G04*
G04 #@! TF.GenerationSoftware,Altium Limited,Altium Designer,18.1.7 (191)*
G04*
G04 Layer_Physical_Order=2*
G04 Layer_Color=16711680*
%FSLAX44Y44*%
%MOMM*%
G71*
G01*
G75*
%ADD13C,0.2000*%
%ADD75C,0.4000*%
%ADD160C,1.1520*%
%ADD161R,1.5000X1.5000*%
%ADD162C,1.3980*%
%ADD163C,2.3550*%
%ADD164C,3.2500*%
%ADD165R,1.3980X1.3980*%
%ADD166C,1.0000*%
%ADD167C,0.4800*%
%ADD168R,38.5000X5.5000*%
%ADD169R,8.0000X5.0000*%
%ADD170R,64.5000X1.0000*%
%ADD171R,141.0000X2.5000*%
%ADD172R,1.0000X2.0000*%
%ADD173R,26.5000X1.0000*%
%ADD174R,85.5000X27.0000*%
%ADD175R,160.8000X5.1000*%
%ADD176R,20.0000X29.5000*%
%ADD177R,27.5000X7.5000*%
%ADD178R,27.0000X15.5000*%
%ADD179R,15.0000X2.0000*%
%ADD180R,15.0000X2.0000*%
%ADD181R,29.0000X6.0000*%
%ADD182R,9.0000X10.0000*%
%ADD183R,156.0000X6.5000*%
%ADD184R,34.5000X15.0000*%
%ADD185R,50.0000X34.5000*%
%ADD186R,24.0000X58.4000*%
%ADD187R,15.0000X13.5000*%
%ADD188R,8.0000X27.5000*%
%ADD189R,3.5000X8.5000*%
%ADD190R,15.5000X16.5000*%
%ADD191R,15.5000X11.5000*%
%ADD192R,96.5000X29.5000*%
G36*
X1655000Y1520000D02*
X1595000Y1460000D01*
X1590000D01*
Y1525000D01*
X1655000D01*
Y1520000D01*
D02*
G37*
G36*
X1675000Y1445000D02*
X1615000D01*
Y1450000D01*
X1665000Y1500000D01*
X1675000D01*
Y1445000D01*
D02*
G37*
G36*
X1955000Y1445001D02*
X2352451Y1445000D01*
Y1422987D01*
X2352188Y1422812D01*
X2351326Y1421522D01*
X2351024Y1420000D01*
X2351326Y1418478D01*
X2352188Y1417188D01*
X2353478Y1416326D01*
X2355000Y1416024D01*
X2356522Y1416326D01*
X2357812Y1417188D01*
X2358674Y1418478D01*
X2358963Y1419935D01*
X2359084Y1420295D01*
X2359705Y1420916D01*
X2360065Y1421037D01*
X2361522Y1421326D01*
X2362812Y1422188D01*
X2363674Y1423478D01*
X2363963Y1424935D01*
X2364084Y1425295D01*
X2364705Y1425916D01*
X2365065Y1426037D01*
X2366522Y1426326D01*
X2367812Y1427188D01*
X2368674Y1428478D01*
X2368976Y1430000D01*
X2368674Y1431522D01*
X2367812Y1432812D01*
X2367549Y1432987D01*
Y1445000D01*
X2402451Y1445000D01*
Y1407987D01*
X2402188Y1407812D01*
X2401326Y1406522D01*
X2401024Y1405000D01*
X2401326Y1403478D01*
X2402188Y1402188D01*
X2403478Y1401326D01*
X2405000Y1401024D01*
X2406522Y1401326D01*
X2407812Y1402188D01*
X2408674Y1403478D01*
X2408963Y1404935D01*
X2409084Y1405295D01*
X2409705Y1405916D01*
X2410065Y1406037D01*
X2411522Y1406326D01*
X2412812Y1407188D01*
X2413674Y1408478D01*
X2413963Y1409935D01*
X2414084Y1410295D01*
X2414705Y1410916D01*
X2415065Y1411037D01*
X2416181Y1411259D01*
X2417451Y1410536D01*
Y1367987D01*
X2417188Y1367812D01*
X2416326Y1366522D01*
X2416024Y1365000D01*
X2416326Y1363478D01*
X2417188Y1362188D01*
X2418478Y1361326D01*
X2420000Y1361024D01*
X2421522Y1361326D01*
X2422812Y1362188D01*
X2423674Y1363478D01*
X2423976Y1365000D01*
X2423674Y1366522D01*
X2422812Y1367812D01*
X2422549Y1367987D01*
Y1430536D01*
X2423819Y1431259D01*
X2425000Y1431024D01*
X2426181Y1431259D01*
X2427451Y1430536D01*
Y1339464D01*
X2426181Y1338742D01*
X2425000Y1338976D01*
X2423478Y1338674D01*
X2422188Y1337812D01*
X2421326Y1336522D01*
X2421024Y1335000D01*
X2421326Y1333478D01*
X2422188Y1332188D01*
X2423478Y1331326D01*
X2425000Y1331024D01*
X2426181Y1331259D01*
X2427451Y1330536D01*
Y1287987D01*
X2427188Y1287812D01*
X2426326Y1286522D01*
X2426024Y1285000D01*
X2426326Y1283478D01*
X2427188Y1282188D01*
X2428478Y1281326D01*
X2430000Y1281024D01*
X2431522Y1281326D01*
X2432812Y1282188D01*
X2433674Y1283478D01*
X2433976Y1285000D01*
X2433674Y1286522D01*
X2432812Y1287812D01*
X2432549Y1287987D01*
Y1319536D01*
X2433819Y1320259D01*
X2435000Y1320024D01*
X2436181Y1320259D01*
X2437451Y1319536D01*
Y1287987D01*
X2437188Y1287812D01*
X2436326Y1286522D01*
X2436024Y1285000D01*
X2436326Y1283478D01*
X2437188Y1282188D01*
X2438478Y1281326D01*
X2440000Y1281024D01*
X2441522Y1281326D01*
X2442812Y1282188D01*
X2443674Y1283478D01*
X2443976Y1285000D01*
X2443674Y1286522D01*
X2442812Y1287812D01*
X2442549Y1287987D01*
Y1445000D01*
X2457451Y1445000D01*
Y1369987D01*
X2457188Y1369812D01*
X2456326Y1368522D01*
X2456024Y1367000D01*
X2456326Y1365478D01*
X2457188Y1364188D01*
X2458478Y1363326D01*
X2460000Y1363024D01*
X2461522Y1363326D01*
X2462812Y1364188D01*
X2463674Y1365478D01*
X2463976Y1367000D01*
X2463674Y1368522D01*
X2462812Y1369812D01*
X2462549Y1369987D01*
Y1445000D01*
X2826024Y1445000D01*
X2826326Y1443478D01*
X2826431Y1443321D01*
X2826431Y1090000D01*
X2812549D01*
Y1125000D01*
X2812355Y1125975D01*
X2811802Y1126802D01*
X2810975Y1127355D01*
X2810000Y1127549D01*
X2794464D01*
X2793741Y1128819D01*
X2793976Y1130000D01*
X2793674Y1131522D01*
X2792812Y1132812D01*
X2791522Y1133674D01*
X2790000Y1133976D01*
X2788478Y1133674D01*
X2787188Y1132812D01*
X2787013Y1132549D01*
X2645000Y1132549D01*
X2634464D01*
X2633741Y1133819D01*
X2633976Y1135000D01*
X2633741Y1136181D01*
X2634464Y1137451D01*
X2687013D01*
X2687188Y1137188D01*
X2688478Y1136326D01*
X2690000Y1136024D01*
X2691522Y1136326D01*
X2692812Y1137188D01*
X2693674Y1138478D01*
X2693976Y1140000D01*
X2693741Y1141181D01*
X2694464Y1142451D01*
X2707013D01*
X2707188Y1142188D01*
X2708478Y1141326D01*
X2710000Y1141024D01*
X2711522Y1141326D01*
X2712812Y1142188D01*
X2713674Y1143478D01*
X2713976Y1145000D01*
X2713741Y1146181D01*
X2714464Y1147451D01*
X2727013D01*
X2727188Y1147188D01*
X2728478Y1146326D01*
X2730000Y1146024D01*
X2731522Y1146326D01*
X2732812Y1147188D01*
X2733674Y1148478D01*
X2733976Y1150000D01*
X2733674Y1151522D01*
X2732812Y1152812D01*
X2731522Y1153674D01*
X2730000Y1153976D01*
X2728478Y1153674D01*
X2727188Y1152812D01*
X2727013Y1152549D01*
X2654464D01*
X2653741Y1153819D01*
X2653976Y1155000D01*
X2653741Y1156181D01*
X2654464Y1157451D01*
X2667013D01*
X2667188Y1157188D01*
X2668478Y1156326D01*
X2670000Y1156024D01*
X2671522Y1156326D01*
X2672812Y1157188D01*
X2673674Y1158478D01*
X2673976Y1160000D01*
X2673674Y1161522D01*
X2672812Y1162812D01*
X2671522Y1163674D01*
X2670000Y1163976D01*
X2668478Y1163674D01*
X2667188Y1162812D01*
X2667013Y1162549D01*
X2587987D01*
X2587812Y1162812D01*
X2586522Y1163674D01*
X2585000Y1163976D01*
X2583478Y1163674D01*
X2582188Y1162812D01*
X2581326Y1161522D01*
X2581037Y1160065D01*
X2580916Y1159705D01*
X2580295Y1159084D01*
X2579935Y1158963D01*
X2578478Y1158674D01*
X2577188Y1157812D01*
X2576326Y1156522D01*
X2576037Y1155065D01*
X2575916Y1154705D01*
X2575295Y1154083D01*
X2574935Y1153963D01*
X2573478Y1153674D01*
X2572188Y1152812D01*
X2571326Y1151522D01*
X2571024Y1150000D01*
X2571259Y1148819D01*
X2570536Y1147549D01*
X2557987D01*
X2557812Y1147812D01*
X2556522Y1148674D01*
X2555000Y1148976D01*
X2553478Y1148674D01*
X2552188Y1147812D01*
X2551326Y1146522D01*
X2551037Y1145065D01*
X2550916Y1144705D01*
X2550295Y1144084D01*
X2549935Y1143963D01*
X2548478Y1143674D01*
X2547188Y1142812D01*
X2546326Y1141522D01*
X2546024Y1140000D01*
X2546259Y1138819D01*
X2545536Y1137549D01*
X2521056D01*
X2496802Y1161802D01*
X2495975Y1162355D01*
X2495000Y1162549D01*
X2482987D01*
X2482812Y1162812D01*
X2481522Y1163674D01*
X2480000Y1163976D01*
X2478478Y1163674D01*
X2477188Y1162812D01*
X2476326Y1161522D01*
X2476024Y1160000D01*
X2476259Y1158819D01*
X2475536Y1157549D01*
X2432987D01*
X2432812Y1157812D01*
X2431522Y1158674D01*
X2430000Y1158976D01*
X2428478Y1158674D01*
X2427188Y1157812D01*
X2426326Y1156522D01*
X2426024Y1155000D01*
X2426326Y1153478D01*
X2427188Y1152188D01*
X2428478Y1151326D01*
X2430000Y1151024D01*
X2431522Y1151326D01*
X2432812Y1152188D01*
X2432987Y1152451D01*
X2435536D01*
X2436259Y1151181D01*
X2436024Y1150000D01*
X2436326Y1148478D01*
X2437188Y1147188D01*
X2438478Y1146326D01*
X2440000Y1146024D01*
X2441522Y1146326D01*
X2442812Y1147188D01*
X2442987Y1147451D01*
X2460536D01*
X2461259Y1146181D01*
X2461037Y1145065D01*
X2460916Y1144705D01*
X2460295Y1144084D01*
X2459935Y1143963D01*
X2458478Y1143674D01*
X2457188Y1142812D01*
X2456326Y1141522D01*
X2456037Y1140065D01*
X2455916Y1139705D01*
X2455295Y1139084D01*
X2454935Y1138963D01*
X2453478Y1138674D01*
X2452188Y1137812D01*
X2451326Y1136522D01*
X2451024Y1135000D01*
X2451326Y1133478D01*
X2452188Y1132188D01*
X2453478Y1131326D01*
X2455000Y1131024D01*
X2456522Y1131326D01*
X2457812Y1132188D01*
X2457987Y1132451D01*
X2488944D01*
X2513198Y1108198D01*
X2514025Y1107645D01*
X2515000Y1107451D01*
X2547050D01*
X2547576Y1106181D01*
X2545310Y1103915D01*
X2545000Y1103976D01*
X2543478Y1103674D01*
X2542188Y1102812D01*
X2541326Y1101522D01*
X2541024Y1100000D01*
X2541326Y1098478D01*
X2542188Y1097188D01*
X2543478Y1096326D01*
X2545000Y1096024D01*
X2546522Y1096326D01*
X2547812Y1097188D01*
X2548674Y1098478D01*
X2548976Y1100000D01*
X2548915Y1100310D01*
X2551056Y1102451D01*
X2557013D01*
X2557188Y1102188D01*
X2558478Y1101326D01*
X2560000Y1101024D01*
X2561522Y1101326D01*
X2562812Y1102188D01*
X2563674Y1103478D01*
X2563976Y1105000D01*
X2563741Y1106181D01*
X2564464Y1107451D01*
X2625536D01*
X2626259Y1106181D01*
X2626024Y1105000D01*
X2626326Y1103478D01*
X2627188Y1102188D01*
X2627451Y1102013D01*
Y1090000D01*
X2223777Y1090000D01*
X2223674Y1090522D01*
X2222812Y1091812D01*
X2222549Y1091987D01*
Y1119013D01*
X2222812Y1119188D01*
X2223674Y1120478D01*
X2223976Y1122000D01*
X2223674Y1123522D01*
X2222812Y1124812D01*
X2221522Y1125674D01*
X2220000Y1125976D01*
X2218478Y1125674D01*
X2217188Y1124812D01*
X2216326Y1123522D01*
X2216024Y1122000D01*
X2216326Y1120478D01*
X2217188Y1119188D01*
X2217451Y1119013D01*
Y1091987D01*
X2217188Y1091812D01*
X2216326Y1090522D01*
X2216223Y1090000D01*
X1950000Y1090000D01*
Y1125000D01*
X1775000Y1125000D01*
X1775000Y1450000D01*
X1955000Y1450000D01*
Y1445001D01*
D02*
G37*
%LPC*%
G36*
X2522000Y1438976D02*
X2520478Y1438674D01*
X2519188Y1437812D01*
X2518326Y1436522D01*
X2518024Y1435000D01*
X2518326Y1433478D01*
X2519188Y1432188D01*
X2519451Y1432013D01*
Y1427644D01*
X2518181Y1427259D01*
X2517812Y1427812D01*
X2516522Y1428674D01*
X2515000Y1428976D01*
X2513478Y1428674D01*
X2512188Y1427812D01*
X2511326Y1426522D01*
X2511037Y1425065D01*
X2510916Y1424705D01*
X2510295Y1424084D01*
X2509935Y1423963D01*
X2508478Y1423674D01*
X2507188Y1422812D01*
X2506326Y1421522D01*
X2506024Y1420000D01*
X2506326Y1418478D01*
X2507188Y1417188D01*
X2507451Y1417013D01*
Y1311655D01*
X2506188Y1310812D01*
X2505326Y1309522D01*
X2505024Y1308000D01*
X2505326Y1306478D01*
X2506188Y1305188D01*
X2507478Y1304326D01*
X2509000Y1304024D01*
X2509791Y1304181D01*
X2510690Y1304049D01*
X2511171Y1303259D01*
X2511326Y1302478D01*
X2512188Y1301188D01*
X2513478Y1300326D01*
X2515000Y1300024D01*
X2516522Y1300326D01*
X2517812Y1301188D01*
X2518674Y1302478D01*
X2518942Y1303826D01*
X2519557Y1304262D01*
X2520165Y1304536D01*
X2520478Y1304326D01*
X2522000Y1304024D01*
X2522791Y1304181D01*
X2523690Y1304049D01*
X2524171Y1303259D01*
X2524326Y1302478D01*
X2525188Y1301188D01*
X2526478Y1300326D01*
X2528000Y1300024D01*
X2529522Y1300326D01*
X2530812Y1301188D01*
X2531674Y1302478D01*
X2531829Y1303259D01*
X2532310Y1304049D01*
X2533209Y1304181D01*
X2534000Y1304024D01*
X2535522Y1304326D01*
X2535835Y1304536D01*
X2536443Y1304262D01*
X2537058Y1303826D01*
X2537326Y1302478D01*
X2538188Y1301188D01*
X2539478Y1300326D01*
X2541000Y1300024D01*
X2542522Y1300326D01*
X2543812Y1301188D01*
X2544674Y1302478D01*
X2544976Y1304000D01*
X2544674Y1305522D01*
X2543812Y1306812D01*
X2543519Y1307007D01*
X2543227Y1336505D01*
X2544398Y1336997D01*
X2546085Y1335310D01*
X2546024Y1335000D01*
X2546326Y1333478D01*
X2547188Y1332188D01*
X2548478Y1331326D01*
X2550000Y1331024D01*
X2551522Y1331326D01*
X2552812Y1332188D01*
X2553674Y1333478D01*
X2553976Y1335000D01*
X2553674Y1336522D01*
X2552812Y1337812D01*
X2551522Y1338674D01*
X2550000Y1338976D01*
X2549690Y1338915D01*
X2547549Y1341056D01*
Y1407013D01*
X2547812Y1407188D01*
X2548674Y1408478D01*
X2548976Y1410000D01*
X2548674Y1411522D01*
X2547812Y1412812D01*
X2546522Y1413674D01*
X2545000Y1413976D01*
X2543478Y1413674D01*
X2542188Y1412812D01*
X2541326Y1411522D01*
X2541037Y1410065D01*
X2540916Y1409705D01*
X2540157Y1408945D01*
X2540000Y1408976D01*
X2539843Y1408945D01*
X2539084Y1409705D01*
X2538963Y1410065D01*
X2538674Y1411522D01*
X2537812Y1412812D01*
X2536522Y1413674D01*
X2535065Y1413963D01*
X2534705Y1414084D01*
X2534084Y1414705D01*
X2533963Y1415065D01*
X2533674Y1416522D01*
X2532812Y1417812D01*
X2531522Y1418674D01*
X2530000Y1418976D01*
X2528478Y1418674D01*
X2527188Y1417812D01*
X2526326Y1416522D01*
X2526024Y1415000D01*
X2526326Y1413478D01*
X2527188Y1412188D01*
X2527314Y1412104D01*
X2525819Y1325361D01*
X2524549Y1325372D01*
Y1432013D01*
X2524812Y1432188D01*
X2525674Y1433478D01*
X2525976Y1435000D01*
X2525674Y1436522D01*
X2524812Y1437812D01*
X2523522Y1438674D01*
X2522000Y1438976D01*
D02*
G37*
G36*
X1905000Y1422590D02*
X1825000D01*
X1824009Y1422393D01*
X1823169Y1421831D01*
X1822607Y1420991D01*
X1822410Y1420000D01*
Y1409491D01*
X1821140Y1408750D01*
X1820000Y1408976D01*
X1818478Y1408674D01*
X1817188Y1407812D01*
X1816326Y1406522D01*
X1816024Y1405000D01*
X1816326Y1403478D01*
X1817188Y1402188D01*
X1817451Y1402013D01*
Y1287987D01*
X1817188Y1287812D01*
X1816326Y1286522D01*
X1816024Y1285000D01*
X1816326Y1283478D01*
X1817188Y1282188D01*
X1817451Y1282013D01*
Y1140000D01*
X1817645Y1139025D01*
X1818198Y1138198D01*
X1819025Y1137645D01*
X1820000Y1137451D01*
X1847013D01*
X1847188Y1137188D01*
X1848478Y1136326D01*
X1850000Y1136024D01*
X1851522Y1136326D01*
X1852812Y1137188D01*
X1852987Y1137451D01*
X1912013D01*
X1912188Y1137188D01*
X1913478Y1136326D01*
X1915000Y1136024D01*
X1916522Y1136326D01*
X1917812Y1137188D01*
X1918674Y1138478D01*
X1918976Y1140000D01*
X1918674Y1141522D01*
X1917812Y1142812D01*
X1916522Y1143674D01*
X1915000Y1143976D01*
X1913478Y1143674D01*
X1912188Y1142812D01*
X1912013Y1142549D01*
X1907945D01*
X1907266Y1143819D01*
X1907393Y1144009D01*
X1907590Y1145000D01*
Y1151295D01*
X1908860Y1151680D01*
X1909188Y1151188D01*
X1910478Y1150326D01*
X1912000Y1150024D01*
X1913522Y1150326D01*
X1914812Y1151188D01*
X1914987Y1151451D01*
X1927013D01*
X1927188Y1151188D01*
X1928478Y1150326D01*
X1930000Y1150024D01*
X1931522Y1150326D01*
X1932812Y1151188D01*
X1933674Y1152478D01*
X1933976Y1154000D01*
X1933674Y1155522D01*
X1932812Y1156812D01*
X1931522Y1157674D01*
X1930000Y1157976D01*
X1928478Y1157674D01*
X1927188Y1156812D01*
X1927013Y1156549D01*
X1914987D01*
X1914812Y1156812D01*
X1913522Y1157674D01*
X1912000Y1157976D01*
X1910478Y1157674D01*
X1909188Y1156812D01*
X1908860Y1156320D01*
X1907590Y1156705D01*
Y1420000D01*
X1907393Y1420991D01*
X1906831Y1421831D01*
X1905991Y1422393D01*
X1905000Y1422590D01*
D02*
G37*
G36*
X2135000Y1398976D02*
X2133478Y1398674D01*
X2132188Y1397812D01*
X2132013Y1397549D01*
X2103000D01*
X2102025Y1397355D01*
X2101198Y1396802D01*
X2100645Y1395975D01*
X2100451Y1395000D01*
Y1379464D01*
X2099181Y1378741D01*
X2098000Y1378976D01*
X2096478Y1378674D01*
X2095188Y1377812D01*
X2094326Y1376522D01*
X2094024Y1375000D01*
X2094326Y1373478D01*
X2094431Y1373321D01*
Y1367674D01*
X2093161Y1367288D01*
X2092812Y1367812D01*
X2091522Y1368674D01*
X2090000Y1368976D01*
X2088478Y1368674D01*
X2087188Y1367812D01*
X2086326Y1366522D01*
X2086024Y1365000D01*
X2086326Y1363478D01*
X2086431Y1363321D01*
Y1318679D01*
X2086326Y1318522D01*
X2086024Y1317000D01*
X2086326Y1315478D01*
X2087188Y1314188D01*
X2088478Y1313326D01*
X2090000Y1313024D01*
X2091522Y1313326D01*
X2092812Y1314188D01*
X2093161Y1314712D01*
X2094431Y1314326D01*
Y1277478D01*
X2086664Y1269711D01*
X2086478Y1269674D01*
X2085188Y1268812D01*
X2084326Y1267522D01*
X2084023Y1266000D01*
X2084326Y1264478D01*
X2085188Y1263188D01*
X2086478Y1262326D01*
X2088000Y1262024D01*
X2089522Y1262326D01*
X2090812Y1263188D01*
X2091674Y1264478D01*
X2091711Y1264664D01*
X2099278Y1272231D01*
X2100451Y1271745D01*
Y1185000D01*
X2100645Y1184025D01*
X2101198Y1183198D01*
X2102025Y1182645D01*
X2103000Y1182451D01*
X2128944D01*
X2131085Y1180310D01*
X2131024Y1180000D01*
X2131326Y1178478D01*
X2132188Y1177188D01*
X2133478Y1176326D01*
X2135000Y1176024D01*
X2136522Y1176326D01*
X2137812Y1177188D01*
X2138674Y1178478D01*
X2138976Y1180000D01*
X2138674Y1181522D01*
X2137812Y1182812D01*
X2136522Y1183674D01*
X2135000Y1183976D01*
X2134690Y1183915D01*
X2133597Y1185008D01*
X2134223Y1186178D01*
X2135000Y1186024D01*
X2136522Y1186326D01*
X2137812Y1187188D01*
X2138674Y1188478D01*
X2138976Y1190000D01*
X2138674Y1191522D01*
X2137812Y1192812D01*
X2136522Y1193674D01*
X2135000Y1193976D01*
X2133478Y1193674D01*
X2132188Y1192812D01*
X2132013Y1192549D01*
X2109549D01*
Y1387451D01*
X2117013D01*
X2117188Y1387188D01*
X2118478Y1386326D01*
X2120000Y1386024D01*
X2121522Y1386326D01*
X2122812Y1387188D01*
X2123674Y1388478D01*
X2123976Y1390000D01*
X2123741Y1391181D01*
X2124464Y1392451D01*
X2132013D01*
X2132188Y1392188D01*
X2133478Y1391326D01*
X2135000Y1391024D01*
X2136522Y1391326D01*
X2137812Y1392188D01*
X2138674Y1393478D01*
X2138976Y1395000D01*
X2138674Y1396522D01*
X2137812Y1397812D01*
X2136522Y1398674D01*
X2135000Y1398976D01*
D02*
G37*
G36*
X2340000Y1398372D02*
X2337833Y1398086D01*
X2335814Y1397250D01*
X2334080Y1395920D01*
X2332750Y1394186D01*
X2331914Y1392167D01*
X2331628Y1390000D01*
X2331914Y1387833D01*
X2332750Y1385814D01*
X2334080Y1384080D01*
X2335814Y1382750D01*
X2337833Y1381914D01*
X2340000Y1381628D01*
X2342167Y1381914D01*
X2344186Y1382750D01*
X2345920Y1384080D01*
X2347250Y1385814D01*
X2348086Y1387833D01*
X2348372Y1390000D01*
X2348086Y1392167D01*
X2347250Y1394186D01*
X2345920Y1395920D01*
X2344186Y1397250D01*
X2342167Y1398086D01*
X2340000Y1398372D01*
D02*
G37*
G36*
X2256000Y1386976D02*
X2254478Y1386674D01*
X2253188Y1385812D01*
X2252326Y1384522D01*
X2252024Y1383000D01*
X2252326Y1381478D01*
X2253188Y1380188D01*
X2254478Y1379326D01*
X2256000Y1379024D01*
X2257522Y1379326D01*
X2258812Y1380188D01*
X2259674Y1381478D01*
X2259976Y1383000D01*
X2259674Y1384522D01*
X2258812Y1385812D01*
X2257522Y1386674D01*
X2256000Y1386976D01*
D02*
G37*
G36*
X2155000Y1378976D02*
X2153478Y1378674D01*
X2153321Y1378569D01*
X2117679D01*
X2117522Y1378674D01*
X2116000Y1378976D01*
X2114478Y1378674D01*
X2113188Y1377812D01*
X2112326Y1376522D01*
X2112024Y1375000D01*
X2112326Y1373478D01*
X2113188Y1372188D01*
X2114478Y1371326D01*
X2116000Y1371024D01*
X2117522Y1371326D01*
X2117679Y1371431D01*
X2153321D01*
X2153478Y1371326D01*
X2155000Y1371024D01*
X2156522Y1371326D01*
X2157812Y1372188D01*
X2158674Y1373478D01*
X2158976Y1375000D01*
X2158674Y1376522D01*
X2157812Y1377812D01*
X2156522Y1378674D01*
X2155000Y1378976D01*
D02*
G37*
G36*
Y1368976D02*
X2153478Y1368674D01*
X2153321Y1368569D01*
X2116679D01*
X2116522Y1368674D01*
X2115000Y1368976D01*
X2113478Y1368674D01*
X2112188Y1367812D01*
X2111326Y1366522D01*
X2111024Y1365000D01*
X2111326Y1363478D01*
X2112188Y1362188D01*
X2113478Y1361326D01*
X2115000Y1361024D01*
X2116522Y1361326D01*
X2116679Y1361431D01*
X2153321D01*
X2153478Y1361326D01*
X2155000Y1361024D01*
X2156522Y1361326D01*
X2157812Y1362188D01*
X2158674Y1363478D01*
X2158976Y1365000D01*
X2158674Y1366522D01*
X2157812Y1367812D01*
X2156522Y1368674D01*
X2155000Y1368976D01*
D02*
G37*
G36*
X2285000Y1348976D02*
X2283478Y1348674D01*
X2282188Y1347812D01*
X2281326Y1346522D01*
X2281024Y1345000D01*
X2281326Y1343478D01*
X2282188Y1342188D01*
X2283478Y1341326D01*
X2285000Y1341024D01*
X2286522Y1341326D01*
X2287812Y1342188D01*
X2288674Y1343478D01*
X2288976Y1345000D01*
X2288674Y1346522D01*
X2287812Y1347812D01*
X2286522Y1348674D01*
X2285000Y1348976D01*
D02*
G37*
G36*
X2275000D02*
X2273478Y1348674D01*
X2272188Y1347812D01*
X2271326Y1346522D01*
X2271024Y1345000D01*
X2271326Y1343478D01*
X2272188Y1342188D01*
X2273478Y1341326D01*
X2275000Y1341024D01*
X2276522Y1341326D01*
X2277812Y1342188D01*
X2278674Y1343478D01*
X2278976Y1345000D01*
X2278674Y1346522D01*
X2277812Y1347812D01*
X2276522Y1348674D01*
X2275000Y1348976D01*
D02*
G37*
G36*
X2135000Y1346976D02*
X2133478Y1346674D01*
X2132188Y1345812D01*
X2131326Y1344522D01*
X2131024Y1343000D01*
X2131085Y1342690D01*
X2114198Y1325802D01*
X2114198Y1325802D01*
X2113198Y1324802D01*
X2112645Y1323976D01*
X2112451Y1323000D01*
Y1222987D01*
X2112188Y1222812D01*
X2111326Y1221522D01*
X2111024Y1220000D01*
X2111326Y1218478D01*
X2112188Y1217188D01*
X2113478Y1216326D01*
X2115000Y1216024D01*
X2116522Y1216326D01*
X2117181Y1216767D01*
X2118451Y1216088D01*
Y1208655D01*
X2117188Y1207812D01*
X2116326Y1206522D01*
X2116024Y1205000D01*
X2116326Y1203478D01*
X2117188Y1202188D01*
X2118478Y1201326D01*
X2120000Y1201024D01*
X2121522Y1201326D01*
X2122812Y1202188D01*
X2123674Y1203478D01*
X2123976Y1205000D01*
X2123674Y1206522D01*
X2123549Y1206708D01*
Y1314944D01*
X2134690Y1326085D01*
X2135000Y1326024D01*
X2136522Y1326326D01*
X2137812Y1327188D01*
X2138674Y1328478D01*
X2138976Y1330000D01*
X2138674Y1331522D01*
X2137812Y1332812D01*
X2136522Y1333674D01*
X2135000Y1333976D01*
X2133478Y1333674D01*
X2132188Y1332812D01*
X2131326Y1331522D01*
X2131024Y1330000D01*
X2131085Y1329690D01*
X2119198Y1317802D01*
X2118819Y1317236D01*
X2117549Y1317479D01*
Y1321944D01*
X2134690Y1339085D01*
X2135000Y1339024D01*
X2136522Y1339326D01*
X2137812Y1340188D01*
X2138674Y1341478D01*
X2138976Y1343000D01*
X2138674Y1344522D01*
X2137812Y1345812D01*
X2136522Y1346674D01*
X2135000Y1346976D01*
D02*
G37*
G36*
X2180000Y1408976D02*
X2178478Y1408674D01*
X2177188Y1407812D01*
X2176326Y1406522D01*
X2176024Y1405000D01*
X2176326Y1403478D01*
X2177188Y1402188D01*
X2178478Y1401326D01*
X2180000Y1401024D01*
X2180310Y1401085D01*
X2192451Y1388944D01*
Y1342987D01*
X2192188Y1342812D01*
X2191326Y1341522D01*
X2191024Y1340000D01*
X2191326Y1338478D01*
X2192188Y1337188D01*
X2193478Y1336326D01*
X2195000Y1336024D01*
X2196522Y1336326D01*
X2197812Y1337188D01*
X2198674Y1338478D01*
X2198976Y1340000D01*
X2198674Y1341522D01*
X2197812Y1342812D01*
X2197549Y1342987D01*
Y1390000D01*
X2197355Y1390975D01*
X2196802Y1391802D01*
X2183915Y1404690D01*
X2183976Y1405000D01*
X2183674Y1406522D01*
X2182812Y1407812D01*
X2181522Y1408674D01*
X2180000Y1408976D01*
D02*
G37*
G36*
X2490000Y1338976D02*
X2488478Y1338674D01*
X2487188Y1337812D01*
X2486326Y1336522D01*
X2486024Y1335000D01*
X2486326Y1333478D01*
X2487188Y1332188D01*
X2488478Y1331326D01*
X2490000Y1331024D01*
X2491522Y1331326D01*
X2492812Y1332188D01*
X2493674Y1333478D01*
X2493976Y1335000D01*
X2493674Y1336522D01*
X2492812Y1337812D01*
X2491522Y1338674D01*
X2490000Y1338976D01*
D02*
G37*
G36*
X2500000Y1328976D02*
X2498478Y1328674D01*
X2497188Y1327812D01*
X2497013Y1327549D01*
X2472987D01*
X2472812Y1327812D01*
X2471522Y1328674D01*
X2470000Y1328976D01*
X2468478Y1328674D01*
X2467188Y1327812D01*
X2466326Y1326522D01*
X2466037Y1325065D01*
X2465916Y1324705D01*
X2465295Y1324084D01*
X2464935Y1323963D01*
X2463478Y1323674D01*
X2462188Y1322812D01*
X2461326Y1321522D01*
X2461024Y1320000D01*
X2461326Y1318478D01*
X2462188Y1317188D01*
X2463478Y1316326D01*
X2465000Y1316024D01*
X2466522Y1316326D01*
X2467812Y1317188D01*
X2467987Y1317451D01*
X2492013D01*
X2492188Y1317188D01*
X2493478Y1316326D01*
X2495000Y1316024D01*
X2496522Y1316326D01*
X2497812Y1317188D01*
X2498674Y1318478D01*
X2498963Y1319935D01*
X2499084Y1320295D01*
X2499705Y1320916D01*
X2500065Y1321037D01*
X2501522Y1321326D01*
X2502812Y1322188D01*
X2503674Y1323478D01*
X2503976Y1325000D01*
X2503674Y1326522D01*
X2502812Y1327812D01*
X2501522Y1328674D01*
X2500000Y1328976D01*
D02*
G37*
G36*
X2025000Y1313976D02*
X2023478Y1313674D01*
X2022188Y1312812D01*
X2021326Y1311522D01*
X2021024Y1310000D01*
X2021326Y1308478D01*
X2022188Y1307188D01*
X2022451Y1307013D01*
Y1304464D01*
X2021181Y1303741D01*
X2020000Y1303976D01*
X2018478Y1303674D01*
X2017188Y1302812D01*
X2016326Y1301522D01*
X2016024Y1300000D01*
X2016326Y1298478D01*
X2017188Y1297188D01*
X2017451Y1297013D01*
Y1294464D01*
X2016181Y1293741D01*
X2015000Y1293976D01*
X2013478Y1293674D01*
X2012188Y1292812D01*
X2011326Y1291522D01*
X2011024Y1290000D01*
X2011326Y1288478D01*
X2012188Y1287188D01*
X2012451Y1287013D01*
Y1205987D01*
X2012188Y1205812D01*
X2011326Y1204522D01*
X2011024Y1203000D01*
X2011326Y1201478D01*
X2012188Y1200188D01*
X2013478Y1199326D01*
X2015000Y1199024D01*
X2016522Y1199326D01*
X2017812Y1200188D01*
X2018674Y1201478D01*
X2018976Y1203000D01*
X2018674Y1204522D01*
X2017812Y1205812D01*
X2017549Y1205987D01*
Y1224536D01*
X2018819Y1225258D01*
X2020000Y1225024D01*
X2021181Y1225258D01*
X2022451Y1224536D01*
Y1192987D01*
X2022188Y1192812D01*
X2021326Y1191522D01*
X2021024Y1190000D01*
X2021326Y1188478D01*
X2022188Y1187188D01*
X2023478Y1186326D01*
X2025000Y1186024D01*
X2026522Y1186326D01*
X2027812Y1187188D01*
X2028674Y1188478D01*
X2028976Y1190000D01*
X2028674Y1191522D01*
X2027812Y1192812D01*
X2027549Y1192987D01*
Y1307013D01*
X2027812Y1307188D01*
X2028674Y1308478D01*
X2028976Y1310000D01*
X2028674Y1311522D01*
X2027812Y1312812D01*
X2026522Y1313674D01*
X2025000Y1313976D01*
D02*
G37*
G36*
X1995000Y1308976D02*
X1993478Y1308674D01*
X1992188Y1307812D01*
X1991326Y1306522D01*
X1991024Y1305000D01*
X1991326Y1303478D01*
X1992188Y1302188D01*
X1992451Y1302013D01*
Y1299464D01*
X1991181Y1298741D01*
X1990000Y1298976D01*
X1988478Y1298674D01*
X1987188Y1297812D01*
X1986326Y1296522D01*
X1986024Y1295000D01*
X1986326Y1293478D01*
X1987188Y1292188D01*
X1987451Y1292013D01*
Y1234464D01*
X1986181Y1233742D01*
X1985000Y1233976D01*
X1983478Y1233674D01*
X1982188Y1232812D01*
X1981326Y1231522D01*
X1981024Y1230000D01*
X1981326Y1228478D01*
X1982188Y1227188D01*
X1982451Y1227013D01*
Y1212987D01*
X1982188Y1212812D01*
X1981326Y1211522D01*
X1981024Y1210000D01*
X1981326Y1208478D01*
X1982188Y1207188D01*
X1983478Y1206326D01*
X1984935Y1206037D01*
X1985295Y1205917D01*
X1985916Y1205295D01*
X1986037Y1204935D01*
X1986326Y1203478D01*
X1987188Y1202188D01*
X1988478Y1201326D01*
X1990000Y1201024D01*
X1991522Y1201326D01*
X1992812Y1202188D01*
X1993674Y1203478D01*
X1993963Y1204935D01*
X1994084Y1205295D01*
X1994705Y1205917D01*
X1995065Y1206037D01*
X1996522Y1206326D01*
X1997812Y1207188D01*
X1998674Y1208478D01*
X1998976Y1210000D01*
X1998674Y1211522D01*
X1997812Y1212812D01*
X1997549Y1212987D01*
Y1302013D01*
X1997812Y1302188D01*
X1998674Y1303478D01*
X1998976Y1305000D01*
X1998674Y1306522D01*
X1997812Y1307812D01*
X1996522Y1308674D01*
X1995000Y1308976D01*
D02*
G37*
G36*
X2235000Y1333976D02*
X2233478Y1333674D01*
X2232188Y1332812D01*
X2231326Y1331522D01*
X2231024Y1330000D01*
X2231326Y1328478D01*
X2232188Y1327188D01*
X2233478Y1326326D01*
X2235000Y1326024D01*
X2236522Y1326326D01*
X2236679Y1326431D01*
X2256075D01*
X2256754Y1325161D01*
X2256326Y1324522D01*
X2256024Y1323000D01*
X2256085Y1322690D01*
X2253198Y1319802D01*
X2252645Y1318975D01*
X2252451Y1318000D01*
Y1150000D01*
X2252645Y1149025D01*
X2253198Y1148198D01*
X2261085Y1140310D01*
X2261024Y1140000D01*
X2261326Y1138478D01*
X2262188Y1137188D01*
X2263478Y1136326D01*
X2265000Y1136024D01*
X2266522Y1136326D01*
X2267812Y1137188D01*
X2268674Y1138478D01*
X2268976Y1140000D01*
X2268674Y1141522D01*
X2267812Y1142812D01*
X2266522Y1143674D01*
X2265000Y1143976D01*
X2264690Y1143915D01*
X2257549Y1151056D01*
Y1191536D01*
X2258819Y1192259D01*
X2260000Y1192024D01*
X2261522Y1192326D01*
X2262812Y1193188D01*
X2263674Y1194478D01*
X2263976Y1196000D01*
X2263674Y1197522D01*
X2263569Y1197679D01*
Y1214451D01*
X2267013D01*
X2267188Y1214188D01*
X2268478Y1213326D01*
X2270000Y1213024D01*
X2271522Y1213326D01*
X2272812Y1214188D01*
X2273674Y1215478D01*
X2273976Y1217000D01*
X2273674Y1218522D01*
X2272812Y1219812D01*
X2271522Y1220674D01*
X2270000Y1220976D01*
X2268478Y1220674D01*
X2267188Y1219812D01*
X2267013Y1219549D01*
X2263569D01*
Y1223000D01*
X2263569Y1223001D01*
Y1232431D01*
X2306321D01*
X2306478Y1232326D01*
X2308000Y1232024D01*
X2309522Y1232326D01*
X2310812Y1233188D01*
X2311674Y1234478D01*
X2311976Y1236000D01*
X2311674Y1237522D01*
X2310812Y1238812D01*
X2309522Y1239674D01*
X2308000Y1239976D01*
X2306478Y1239674D01*
X2306321Y1239569D01*
X2263569D01*
Y1269321D01*
X2263674Y1269478D01*
X2263976Y1271000D01*
X2263674Y1272522D01*
X2263569Y1272679D01*
Y1283431D01*
X2306321D01*
X2306478Y1283326D01*
X2308000Y1283024D01*
X2309522Y1283326D01*
X2310812Y1284188D01*
X2311674Y1285478D01*
X2311976Y1287000D01*
X2311674Y1288522D01*
X2310812Y1289812D01*
X2309522Y1290674D01*
X2308000Y1290976D01*
X2306478Y1290674D01*
X2306321Y1290569D01*
X2263569D01*
Y1309321D01*
X2263674Y1309478D01*
X2263976Y1311000D01*
X2263674Y1312522D01*
X2262812Y1313812D01*
X2261522Y1314674D01*
X2260000Y1314976D01*
X2258819Y1314742D01*
X2257549Y1315464D01*
Y1316944D01*
X2259690Y1319085D01*
X2260000Y1319024D01*
X2261522Y1319326D01*
X2262812Y1320188D01*
X2263674Y1321478D01*
X2263976Y1323000D01*
X2263674Y1324522D01*
X2263246Y1325161D01*
X2263925Y1326431D01*
X2278522D01*
X2292477Y1312477D01*
X2293634Y1311703D01*
X2295000Y1311431D01*
X2333522D01*
X2345289Y1299664D01*
X2345326Y1299478D01*
X2346188Y1298188D01*
X2347478Y1297326D01*
X2349000Y1297024D01*
X2350522Y1297326D01*
X2351812Y1298188D01*
X2352674Y1299478D01*
X2352976Y1301000D01*
X2352674Y1302522D01*
X2351812Y1303812D01*
X2350522Y1304674D01*
X2350336Y1304711D01*
X2337523Y1317523D01*
X2336366Y1318297D01*
X2335000Y1318569D01*
X2296478D01*
X2282523Y1332523D01*
X2281366Y1333297D01*
X2280000Y1333569D01*
X2236679D01*
X2236522Y1333674D01*
X2235000Y1333976D01*
D02*
G37*
G36*
X1915000Y1288976D02*
X1913478Y1288674D01*
X1912188Y1287812D01*
X1911326Y1286522D01*
X1911024Y1285000D01*
X1911326Y1283478D01*
X1912188Y1282188D01*
X1913478Y1281326D01*
X1915000Y1281024D01*
X1915310Y1281085D01*
X1918198Y1278198D01*
X1919025Y1277645D01*
X1920000Y1277451D01*
X1927013D01*
X1927188Y1277188D01*
X1928478Y1276326D01*
X1930000Y1276024D01*
X1931522Y1276326D01*
X1932812Y1277188D01*
X1933674Y1278478D01*
X1933976Y1280000D01*
X1933674Y1281522D01*
X1932812Y1282812D01*
X1931522Y1283674D01*
X1930000Y1283976D01*
X1928478Y1283674D01*
X1927188Y1282812D01*
X1927013Y1282549D01*
X1921056D01*
X1918915Y1284690D01*
X1918976Y1285000D01*
X1918674Y1286522D01*
X1917812Y1287812D01*
X1916522Y1288674D01*
X1915000Y1288976D01*
D02*
G37*
G36*
X2378000Y1286976D02*
X2376478Y1286674D01*
X2375188Y1285812D01*
X2374326Y1284522D01*
X2374023Y1283000D01*
X2374326Y1281478D01*
X2375188Y1280188D01*
X2375451Y1280013D01*
Y1264987D01*
X2375188Y1264812D01*
X2374326Y1263522D01*
X2374023Y1262000D01*
X2374326Y1260478D01*
X2375188Y1259188D01*
X2376478Y1258326D01*
X2378000Y1258024D01*
X2379522Y1258326D01*
X2380812Y1259188D01*
X2381674Y1260478D01*
X2381976Y1262000D01*
X2381674Y1263522D01*
X2380812Y1264812D01*
X2380549Y1264987D01*
Y1280013D01*
X2380812Y1280188D01*
X2381674Y1281478D01*
X2381976Y1283000D01*
X2381674Y1284522D01*
X2380812Y1285812D01*
X2379522Y1286674D01*
X2378000Y1286976D01*
D02*
G37*
G36*
X2198000Y1313976D02*
X2196478Y1313674D01*
X2195188Y1312812D01*
X2194326Y1311522D01*
X2194024Y1310000D01*
X2194326Y1308478D01*
X2194431Y1308321D01*
Y1231569D01*
X2180679D01*
X2180522Y1231674D01*
X2179000Y1231976D01*
X2177478Y1231674D01*
X2176188Y1230812D01*
X2175326Y1229522D01*
X2175024Y1228000D01*
X2175326Y1226478D01*
X2176188Y1225188D01*
X2177478Y1224326D01*
X2179000Y1224024D01*
X2180522Y1224326D01*
X2180679Y1224431D01*
X2194431D01*
Y1184679D01*
X2194326Y1184522D01*
X2194024Y1183000D01*
X2194326Y1181478D01*
X2195188Y1180188D01*
X2196478Y1179326D01*
X2198000Y1179024D01*
X2199522Y1179326D01*
X2200812Y1180188D01*
X2201674Y1181478D01*
X2201976Y1183000D01*
X2201674Y1184522D01*
X2201569Y1184679D01*
Y1228000D01*
Y1308321D01*
X2201674Y1308478D01*
X2201976Y1310000D01*
X2201674Y1311522D01*
X2200812Y1312812D01*
X2199522Y1313674D01*
X2198000Y1313976D01*
D02*
G37*
G36*
X2046000Y1295976D02*
X2044478Y1295674D01*
X2043188Y1294812D01*
X2042326Y1293522D01*
X2042024Y1292000D01*
X2042326Y1290478D01*
X2043188Y1289188D01*
X2043451Y1289013D01*
Y1219987D01*
X2043188Y1219812D01*
X2042326Y1218522D01*
X2042024Y1217000D01*
X2042326Y1215478D01*
X2043188Y1214188D01*
X2044478Y1213326D01*
X2046000Y1213024D01*
X2047522Y1213326D01*
X2048812Y1214188D01*
X2049674Y1215478D01*
X2049976Y1217000D01*
X2049674Y1218522D01*
X2048812Y1219812D01*
X2048549Y1219987D01*
Y1289013D01*
X2048812Y1289188D01*
X2049674Y1290478D01*
X2049976Y1292000D01*
X2049674Y1293522D01*
X2048812Y1294812D01*
X2047522Y1295674D01*
X2046000Y1295976D01*
D02*
G37*
G36*
X2088000Y1219976D02*
X2086478Y1219674D01*
X2085188Y1218812D01*
X2084326Y1217522D01*
X2084024Y1216000D01*
X2084326Y1214478D01*
X2085188Y1213188D01*
X2086478Y1212326D01*
X2088000Y1212024D01*
X2089522Y1212326D01*
X2090812Y1213188D01*
X2091674Y1214478D01*
X2091976Y1216000D01*
X2091674Y1217522D01*
X2090812Y1218812D01*
X2089522Y1219674D01*
X2088000Y1219976D01*
D02*
G37*
G36*
X2338000Y1212976D02*
X2336478Y1212674D01*
X2335188Y1211812D01*
X2334326Y1210522D01*
X2334023Y1209000D01*
X2334085Y1208690D01*
X2332944Y1207549D01*
X2295987D01*
X2295812Y1207812D01*
X2294522Y1208674D01*
X2293000Y1208976D01*
X2291478Y1208674D01*
X2290188Y1207812D01*
X2289326Y1206522D01*
X2289023Y1205000D01*
X2289326Y1203478D01*
X2290188Y1202188D01*
X2291478Y1201326D01*
X2293000Y1201024D01*
X2294522Y1201326D01*
X2295812Y1202188D01*
X2295987Y1202451D01*
X2334000D01*
X2334975Y1202645D01*
X2335802Y1203198D01*
X2337690Y1205085D01*
X2338000Y1205024D01*
X2339522Y1205326D01*
X2340812Y1206188D01*
X2341674Y1207478D01*
X2341976Y1209000D01*
X2341674Y1210522D01*
X2340812Y1211812D01*
X2339522Y1212674D01*
X2338000Y1212976D01*
D02*
G37*
G36*
X2226000Y1282976D02*
X2224478Y1282674D01*
X2223188Y1281812D01*
X2222326Y1280522D01*
X2222024Y1279000D01*
X2222326Y1277478D01*
X2223188Y1276188D01*
X2223451Y1276013D01*
Y1218987D01*
X2223188Y1218812D01*
X2222326Y1217522D01*
X2222024Y1216000D01*
X2222326Y1214478D01*
X2223188Y1213188D01*
X2223245Y1213151D01*
X2223451Y1212944D01*
Y1187987D01*
X2223188Y1187812D01*
X2222326Y1186522D01*
X2222024Y1185000D01*
X2222326Y1183478D01*
X2223188Y1182188D01*
X2224478Y1181326D01*
X2226000Y1181024D01*
X2227522Y1181326D01*
X2228812Y1182188D01*
X2229674Y1183478D01*
X2229976Y1185000D01*
X2229674Y1186522D01*
X2228812Y1187812D01*
X2228549Y1187987D01*
Y1213013D01*
X2228812Y1213188D01*
X2229674Y1214478D01*
X2229976Y1216000D01*
X2229674Y1217522D01*
X2228812Y1218812D01*
X2228549Y1218987D01*
Y1276013D01*
X2228812Y1276188D01*
X2229674Y1277478D01*
X2229976Y1279000D01*
X2229674Y1280522D01*
X2228812Y1281812D01*
X2227522Y1282674D01*
X2226000Y1282976D01*
D02*
G37*
G36*
X2207000Y1239976D02*
X2205478Y1239674D01*
X2204188Y1238812D01*
X2203326Y1237522D01*
X2203024Y1236000D01*
X2203326Y1234478D01*
X2204188Y1233188D01*
X2204451Y1233013D01*
Y1181987D01*
X2204188Y1181812D01*
X2203326Y1180522D01*
X2203024Y1179000D01*
X2203326Y1177478D01*
X2204188Y1176188D01*
X2205478Y1175326D01*
X2207000Y1175024D01*
X2208522Y1175326D01*
X2209812Y1176188D01*
X2210674Y1177478D01*
X2210976Y1179000D01*
X2210674Y1180522D01*
X2209812Y1181812D01*
X2209549Y1181987D01*
Y1233013D01*
X2209812Y1233188D01*
X2210674Y1234478D01*
X2210976Y1236000D01*
X2210674Y1237522D01*
X2209812Y1238812D01*
X2208522Y1239674D01*
X2207000Y1239976D01*
D02*
G37*
G36*
X2575000Y1288976D02*
X2573478Y1288674D01*
X2572188Y1287812D01*
X2571326Y1286522D01*
X2571024Y1285000D01*
X2571326Y1283478D01*
X2572188Y1282188D01*
X2572451Y1282013D01*
Y1241056D01*
X2558198Y1226802D01*
X2557645Y1225975D01*
X2557451Y1225000D01*
Y1176056D01*
X2545992Y1164597D01*
X2544822Y1165223D01*
X2544976Y1166000D01*
X2544674Y1167522D01*
X2543812Y1168812D01*
X2543549Y1168987D01*
Y1223013D01*
X2543812Y1223188D01*
X2544674Y1224478D01*
X2544976Y1226000D01*
X2544674Y1227522D01*
X2543812Y1228812D01*
X2542522Y1229674D01*
X2541000Y1229976D01*
X2539478Y1229674D01*
X2538188Y1228812D01*
X2537326Y1227522D01*
X2537171Y1226741D01*
X2536690Y1225951D01*
X2535791Y1225819D01*
X2535000Y1225976D01*
X2534209Y1225819D01*
X2533310Y1225951D01*
X2532829Y1226741D01*
X2532674Y1227522D01*
X2531812Y1228812D01*
X2530522Y1229674D01*
X2529000Y1229976D01*
X2527478Y1229674D01*
X2526188Y1228812D01*
X2525326Y1227522D01*
X2525058Y1226174D01*
X2524442Y1225738D01*
X2523835Y1225464D01*
X2523522Y1225674D01*
X2522000Y1225976D01*
X2520478Y1225674D01*
X2520165Y1225464D01*
X2519558Y1225738D01*
X2518942Y1226174D01*
X2518674Y1227522D01*
X2517812Y1228812D01*
X2516522Y1229674D01*
X2515000Y1229976D01*
X2513478Y1229674D01*
X2512188Y1228812D01*
X2511326Y1227522D01*
X2511234Y1227057D01*
X2509823Y1226473D01*
X2509522Y1226674D01*
X2508000Y1226976D01*
X2506478Y1226674D01*
X2505608Y1227620D01*
X2504812Y1228812D01*
X2503522Y1229674D01*
X2502000Y1229976D01*
X2500478Y1229674D01*
X2499188Y1228812D01*
X2498326Y1227522D01*
X2498024Y1226000D01*
X2498085Y1225690D01*
X2495198Y1222802D01*
X2494645Y1221975D01*
X2494451Y1221000D01*
Y1200987D01*
X2494188Y1200812D01*
X2493326Y1199522D01*
X2493024Y1198000D01*
X2493326Y1196478D01*
X2494188Y1195188D01*
X2495478Y1194326D01*
X2497000Y1194024D01*
X2498522Y1194326D01*
X2499812Y1195188D01*
X2500674Y1196478D01*
X2500848Y1197354D01*
X2500853Y1197377D01*
X2502147D01*
X2502152Y1197355D01*
X2502326Y1196478D01*
X2503188Y1195188D01*
X2504478Y1194326D01*
X2506000Y1194024D01*
X2507522Y1194326D01*
X2508812Y1195188D01*
X2509674Y1196478D01*
X2509976Y1198000D01*
X2509674Y1199522D01*
X2508812Y1200812D01*
X2508549Y1200987D01*
Y1219133D01*
X2509522Y1219326D01*
X2510812Y1220188D01*
X2511181Y1220741D01*
X2512451Y1220356D01*
Y1171644D01*
X2511181Y1171259D01*
X2510812Y1171812D01*
X2509522Y1172674D01*
X2508000Y1172976D01*
X2506478Y1172674D01*
X2505188Y1171812D01*
X2504326Y1170522D01*
X2504024Y1169000D01*
X2504326Y1167478D01*
X2505188Y1166188D01*
X2505451Y1166013D01*
Y1165000D01*
X2505645Y1164025D01*
X2506198Y1163198D01*
X2516198Y1153198D01*
X2517025Y1152645D01*
X2518000Y1152451D01*
X2550000D01*
X2550975Y1152645D01*
X2551802Y1153198D01*
X2566802Y1168198D01*
X2567355Y1169025D01*
X2567549Y1170000D01*
Y1192013D01*
X2567812Y1192188D01*
X2568674Y1193478D01*
X2568976Y1195000D01*
X2568674Y1196522D01*
X2567812Y1197812D01*
X2567549Y1197987D01*
Y1223944D01*
X2581802Y1238198D01*
X2582355Y1239025D01*
X2582549Y1240000D01*
Y1277013D01*
X2582812Y1277188D01*
X2583674Y1278478D01*
X2583976Y1280000D01*
X2583674Y1281522D01*
X2582812Y1282812D01*
X2581522Y1283674D01*
X2580065Y1283963D01*
X2579705Y1284084D01*
X2579084Y1284705D01*
X2578963Y1285065D01*
X2578674Y1286522D01*
X2577812Y1287812D01*
X2576522Y1288674D01*
X2575000Y1288976D01*
D02*
G37*
G36*
X2215000Y1246976D02*
X2213478Y1246674D01*
X2212188Y1245812D01*
X2211326Y1244522D01*
X2211024Y1243000D01*
X2211326Y1241478D01*
X2212188Y1240188D01*
X2212451Y1240013D01*
Y1175001D01*
X2212451Y1175000D01*
Y1162987D01*
X2212188Y1162812D01*
X2211326Y1161522D01*
X2211024Y1160000D01*
X2211326Y1158478D01*
X2212188Y1157188D01*
X2213478Y1156326D01*
X2215000Y1156024D01*
X2216522Y1156326D01*
X2217812Y1157188D01*
X2218674Y1158478D01*
X2218976Y1160000D01*
X2218674Y1161522D01*
X2217812Y1162812D01*
X2217549Y1162987D01*
Y1169999D01*
X2217549Y1170000D01*
Y1240013D01*
X2217812Y1240188D01*
X2218674Y1241478D01*
X2218976Y1243000D01*
X2218674Y1244522D01*
X2217812Y1245812D01*
X2216522Y1246674D01*
X2215000Y1246976D01*
D02*
G37*
G36*
X2340000Y1148372D02*
X2337833Y1148086D01*
X2335814Y1147250D01*
X2334080Y1145920D01*
X2332750Y1144186D01*
X2331914Y1142167D01*
X2331628Y1140000D01*
X2331914Y1137833D01*
X2332750Y1135814D01*
X2334080Y1134080D01*
X2335814Y1132750D01*
X2337833Y1131914D01*
X2340000Y1131628D01*
X2342167Y1131914D01*
X2344186Y1132750D01*
X2345920Y1134080D01*
X2347250Y1135814D01*
X2348086Y1137833D01*
X2348372Y1140000D01*
X2348086Y1142167D01*
X2347250Y1144186D01*
X2345920Y1145920D01*
X2344186Y1147250D01*
X2342167Y1148086D01*
X2340000Y1148372D01*
D02*
G37*
G36*
X2120000Y1178976D02*
X2118478Y1178674D01*
X2117188Y1177812D01*
X2116326Y1176522D01*
X2116024Y1175000D01*
X2116326Y1173478D01*
X2117188Y1172188D01*
X2118478Y1171326D01*
X2120000Y1171024D01*
X2120310Y1171085D01*
X2132451Y1158944D01*
Y1132987D01*
X2132188Y1132812D01*
X2131326Y1131522D01*
X2131024Y1130000D01*
X2131326Y1128478D01*
X2132188Y1127188D01*
X2133478Y1126326D01*
X2135000Y1126024D01*
X2136522Y1126326D01*
X2137812Y1127188D01*
X2138674Y1128478D01*
X2138976Y1130000D01*
X2138674Y1131522D01*
X2137812Y1132812D01*
X2137549Y1132987D01*
Y1160000D01*
X2137355Y1160975D01*
X2136802Y1161802D01*
X2123915Y1174690D01*
X2123976Y1175000D01*
X2123674Y1176522D01*
X2122812Y1177812D01*
X2121522Y1178674D01*
X2120000Y1178976D01*
D02*
G37*
G36*
X2100000D02*
X2098478Y1178674D01*
X2097188Y1177812D01*
X2096326Y1176522D01*
X2096024Y1175000D01*
X2096326Y1173478D01*
X2097188Y1172188D01*
X2098478Y1171326D01*
X2100000Y1171024D01*
X2100310Y1171085D01*
X2117451Y1153944D01*
Y1132987D01*
X2117188Y1132812D01*
X2116326Y1131522D01*
X2116024Y1130000D01*
X2116326Y1128478D01*
X2117188Y1127188D01*
X2118478Y1126326D01*
X2120000Y1126024D01*
X2121522Y1126326D01*
X2122812Y1127188D01*
X2123674Y1128478D01*
X2123976Y1130000D01*
X2123674Y1131522D01*
X2122812Y1132812D01*
X2122549Y1132987D01*
Y1155000D01*
X2122355Y1155975D01*
X2121802Y1156802D01*
X2103915Y1174690D01*
X2103976Y1175000D01*
X2103674Y1176522D01*
X2102812Y1177812D01*
X2101522Y1178674D01*
X2100000Y1178976D01*
D02*
G37*
G36*
X2236000Y1296976D02*
X2234478Y1296674D01*
X2233188Y1295812D01*
X2232326Y1294522D01*
X2232024Y1293000D01*
X2232326Y1291478D01*
X2233188Y1290188D01*
X2233451Y1290013D01*
Y1171056D01*
X2232310Y1169915D01*
X2232000Y1169976D01*
X2230478Y1169674D01*
X2229188Y1168812D01*
X2228326Y1167522D01*
X2228024Y1166000D01*
X2228326Y1164478D01*
X2229188Y1163188D01*
X2230478Y1162326D01*
X2232000Y1162024D01*
X2233522Y1162326D01*
X2234812Y1163188D01*
X2235674Y1164478D01*
X2235976Y1166000D01*
X2235915Y1166310D01*
X2237802Y1168198D01*
X2238355Y1169025D01*
X2238549Y1170000D01*
Y1246050D01*
X2239819Y1246576D01*
X2242451Y1243944D01*
Y1122987D01*
X2242188Y1122812D01*
X2241326Y1121522D01*
X2241024Y1120000D01*
X2241326Y1118478D01*
X2242188Y1117188D01*
X2243478Y1116326D01*
X2245000Y1116024D01*
X2246522Y1116326D01*
X2247812Y1117188D01*
X2248674Y1118478D01*
X2248976Y1120000D01*
X2248674Y1121522D01*
X2247812Y1122812D01*
X2247549Y1122987D01*
Y1245000D01*
X2247355Y1245975D01*
X2246802Y1246802D01*
X2243549Y1250056D01*
Y1257013D01*
X2243812Y1257188D01*
X2244674Y1258478D01*
X2244976Y1260000D01*
X2244674Y1261522D01*
X2243812Y1262812D01*
X2242522Y1263674D01*
X2241000Y1263976D01*
X2239819Y1263742D01*
X2238549Y1264464D01*
Y1290013D01*
X2238812Y1290188D01*
X2239674Y1291478D01*
X2239976Y1293000D01*
X2239674Y1294522D01*
X2238812Y1295812D01*
X2237522Y1296674D01*
X2236000Y1296976D01*
D02*
G37*
G36*
X2255000Y1138976D02*
X2253478Y1138674D01*
X2252188Y1137812D01*
X2251326Y1136522D01*
X2251024Y1135000D01*
X2251326Y1133478D01*
X2252188Y1132188D01*
X2252451Y1132013D01*
Y1117987D01*
X2252188Y1117812D01*
X2251326Y1116522D01*
X2251024Y1115000D01*
X2251326Y1113478D01*
X2252188Y1112188D01*
X2253478Y1111326D01*
X2255000Y1111024D01*
X2256522Y1111326D01*
X2257812Y1112188D01*
X2258674Y1113478D01*
X2258976Y1115000D01*
X2258674Y1116522D01*
X2257812Y1117812D01*
X2257549Y1117987D01*
Y1132013D01*
X2257812Y1132188D01*
X2258674Y1133478D01*
X2258976Y1135000D01*
X2258674Y1136522D01*
X2257812Y1137812D01*
X2256522Y1138674D01*
X2255000Y1138976D01*
D02*
G37*
%LPD*%
D13*
X2780000Y1090000D02*
Y1120000D01*
X2770000Y1080000D02*
X2780000Y1090000D01*
X2770000Y920000D02*
Y1080000D01*
X2515000Y1120000D02*
X2780000D01*
X2414000Y1590000D02*
X2420000D01*
X2409000D02*
X2414000D01*
X310000Y1095000D02*
X315000Y1090000D01*
X340000D02*
Y1415000D01*
X315000Y1090000D02*
X340000D01*
X2378000Y1282000D02*
X2378000D01*
X2195000Y1340000D02*
Y1390000D01*
X470000Y1565000D02*
X585000D01*
X470000Y1060000D02*
X470000Y1565000D01*
X465000Y1570000D02*
X720000D01*
X465000Y1055000D02*
X465000Y1570000D01*
X585000Y1565000D02*
X710000D01*
X2245000Y1255000D02*
X2245500Y1255500D01*
X2470000Y1280000D02*
Y1305000D01*
X2465000Y1275000D02*
X2470000Y1280000D01*
X2575000Y1240000D02*
Y1285000D01*
X2560000Y1225000D02*
X2575000Y1240000D01*
X2560000Y1175000D02*
Y1225000D01*
X2545000Y1160000D02*
X2560000Y1175000D01*
X2545000Y1160000D02*
X2545000D01*
X2565000Y1170000D02*
Y1195000D01*
X2550000Y1155000D02*
X2565000Y1170000D01*
X2518000Y1155000D02*
X2550000D01*
X2508000Y1165000D02*
X2518000Y1155000D01*
X2545000Y1100000D02*
X2550000Y1105000D01*
X2545000Y1100000D02*
X2545000Y1100000D01*
X2545000Y1100000D02*
X2545000D01*
X2550000Y1105000D02*
X2560000D01*
X2365000Y1430000D02*
Y1515000D01*
X1788000D02*
X2365000D01*
X2180000Y1405000D02*
X2195000Y1390000D01*
X2550000Y1335000D02*
X2550000D01*
X2545000Y1340000D02*
X2550000Y1335000D01*
X2545000Y1340000D02*
Y1410000D01*
X2515000Y1304000D02*
Y1425000D01*
Y1304000D02*
X2515000Y1304000D01*
X2510000Y1307000D02*
Y1420000D01*
X2360000Y1425000D02*
Y1510000D01*
X2355000Y1420000D02*
Y1505000D01*
X2360000D02*
X2360000Y1505000D01*
X2415000Y1415000D02*
Y1586000D01*
X2528000Y1304000D02*
X2529914Y1415002D01*
X2410000Y1410000D02*
Y1582000D01*
X2535000Y1310000D02*
Y1410000D01*
X2405000Y1405000D02*
Y1578000D01*
X2440000Y1150000D02*
X2485000D01*
X2490000D01*
X2515000Y1125000D01*
X2480000Y1160000D02*
X2495000D01*
X2540000Y1405000D02*
X2541000Y1304000D01*
X775000Y1606000D02*
X2440000D01*
X772000D02*
X775000D01*
X686000Y1606000D02*
X775000D01*
X775000Y1606000D01*
X2440000D02*
X2440000Y1285000D01*
X1290000Y1295000D02*
X1295000D01*
X745000Y1295000D02*
X1290000Y1295000D01*
X745000Y1295000D02*
X745000Y1295000D01*
X735000Y1285000D02*
X745000Y1295000D01*
X2645000Y1130000D02*
X2790000Y1130000D01*
X2515000Y1115000D02*
X2755000D01*
X2575000Y1150000D02*
X2730000D01*
X2555000Y1145000D02*
X2710000D01*
X2550000Y1140000D02*
X2690000D01*
X2585000Y1160000D02*
X2670000D01*
X2580000Y1155000D02*
X2650000D01*
X2520000Y1135000D02*
X2630000D01*
X310000Y1301000D02*
X325000D01*
X309148Y1209468D02*
X325000D01*
X2460000Y1367000D02*
Y1610000D01*
X728000Y1578000D02*
X2405000D01*
X722000Y1582000D02*
X2410000D01*
X2405000Y1586000D02*
X2415000D01*
X775000Y1590000D02*
X2409000Y1590000D01*
X2414000Y1590000D02*
X2414000Y1590000D01*
X2415000Y1594000D02*
X2425000D01*
X2418000D02*
X2420000D01*
Y1598000D02*
X2430000D01*
X2422000D02*
X2425000D01*
X264000Y1344000D02*
Y1385000D01*
X781000Y1598000D02*
X2420000Y1598000D01*
X781000Y1598000D02*
X781000Y1598000D01*
X704000Y1594000D02*
X785000D01*
X699000Y1610000D02*
X700000D01*
X325000D02*
X699000D01*
X699000Y1610000D01*
X720000D01*
X728000Y1578000D02*
X728000D01*
X716000Y1586000D02*
X775000D01*
Y1590000D02*
X776000D01*
X710000D02*
X775000D01*
X763000Y1602000D02*
X763000Y1602000D01*
X783000D01*
X2790000Y920000D02*
Y1120000D01*
X2810000Y920000D02*
Y1125000D01*
X340000Y1585000D02*
X705000D01*
X340000Y1415000D02*
Y1585000D01*
X335000Y1602000D02*
X692000D01*
X330000Y1606000D02*
X686000D01*
X325000Y1301000D02*
Y1610000D01*
X2565000Y1225000D02*
X2580000Y1240000D01*
X2565000Y1195000D02*
Y1225000D01*
X2580000Y1240000D02*
Y1280000D01*
X2165000Y1090000D02*
Y1145000D01*
X2425000Y1435000D02*
Y1594000D01*
X2522000Y1435000D02*
X2522000D01*
X2522000Y1435000D02*
X2522000Y1435000D01*
X2495000Y1155000D02*
X2520000Y1130000D01*
X2430000Y1155000D02*
X2495000D01*
X2520000Y1130000D02*
X2645000D01*
X2515000Y1125000D02*
X2565000D01*
X2490000Y1145000D02*
X2515000Y1120000D01*
X2465000Y1145000D02*
X2490000D01*
X2490000Y1140000D02*
X2515000Y1115000D01*
X2460000Y1140000D02*
X2490000D01*
X2515000Y1110000D02*
X2750000D01*
X2490000Y1135000D02*
X2515000Y1110000D01*
X2455000Y1135000D02*
X2490000D01*
X2225000Y1215000D02*
X2226000Y1214000D01*
X555000Y1575000D02*
X715000Y1575000D01*
X700000Y1590000D02*
X704000Y1594000D01*
X705000Y1585000D02*
X710000Y1590000D01*
X700000Y1580000D02*
X710000D01*
X716000Y1586000D01*
X715000Y1575000D02*
X722000Y1582000D01*
X720000Y1570000D02*
X728000Y1578000D01*
X335000Y1266000D02*
Y1602000D01*
X330000Y1195000D02*
Y1606000D01*
X325000Y1209468D02*
Y1301000D01*
X265000Y1195000D02*
X330000D01*
X1660000Y1515000D02*
X1788000D01*
X1600000Y1455000D02*
X1660000Y1515000D01*
X1600000Y1295000D02*
Y1455000D01*
X1660000Y1510000D02*
X1660000D01*
X1605000Y1455000D02*
X1660000Y1510000D01*
X1605000Y1290000D02*
Y1455000D01*
X1660000Y1505000D02*
X1665000D01*
X1610000Y1455000D02*
X1660000Y1505000D01*
X1610000Y1285000D02*
Y1455000D01*
X1660000Y1510000D02*
X2360000Y1510000D01*
X1660000Y1510000D02*
X1660000Y1510000D01*
X1665000D01*
X1665000Y1505000D02*
X2355000Y1505000D01*
X1665000Y1505000D02*
X1665000Y1505000D01*
X1680000D01*
X2120000Y1205000D02*
Y1206000D01*
X2115000Y1220000D02*
Y1323000D01*
X2116000Y1324000D01*
X2120000Y1206000D02*
X2120500Y1205500D01*
X2121000Y1206000D02*
Y1316000D01*
X2120500Y1205500D02*
X2121000Y1206000D01*
X2135000Y1130000D02*
Y1160000D01*
X2120000Y1175000D02*
X2135000Y1160000D01*
X2120000Y1175000D02*
X2120000Y1175000D01*
X2120000Y1175000D02*
X2120000D01*
X2103000Y1395000D02*
X2135000D01*
X2103000Y1185000D02*
Y1395000D01*
X2108000Y1390000D02*
X2120000D01*
X2107000Y1389000D02*
X2108000Y1390000D01*
X2245000Y1120000D02*
Y1245000D01*
X2241000Y1249000D02*
X2245000Y1245000D01*
X2241000Y1249000D02*
Y1260000D01*
X2246000Y1255000D02*
X2250000Y1251000D01*
X2245500Y1255500D02*
X2246000Y1255000D01*
X2250000Y1170000D02*
Y1251000D01*
X2220000Y1122000D02*
Y1123000D01*
Y1089000D02*
Y1122000D01*
X2232000Y1166000D02*
X2236000Y1170000D01*
Y1293000D01*
X2226000Y1216000D02*
Y1279000D01*
Y1215000D02*
Y1216000D01*
Y1185000D02*
Y1214000D01*
X2207000Y1236000D02*
X2207000Y1236000D01*
X2207000Y1179000D02*
Y1236000D01*
X2215000Y1170000D02*
Y1243000D01*
X2255000Y1150000D02*
X2265000Y1140000D01*
X2255000Y1150000D02*
Y1318000D01*
Y1115000D02*
Y1135000D01*
X1295000Y1295000D02*
X1600000Y1295000D01*
X1300000Y1285000D02*
X1610000Y1285000D01*
X1280000Y1290000D02*
X1605000Y1290000D01*
X2255000Y1318000D02*
X2260000Y1323000D01*
X2120000Y1130000D02*
Y1155000D01*
X2100000Y1175000D02*
X2120000Y1155000D01*
X636000Y1598000D02*
X696000D01*
X635000Y1597000D02*
X636000Y1598000D01*
X694000Y1598000D02*
X781000D01*
X692000Y1602000D02*
X692000Y1602000D01*
X686000Y1606000D02*
X686000Y1606000D01*
X775000Y1586000D02*
X2405000Y1586000D01*
X2420000Y1365000D02*
Y1590000D01*
X785000Y1594000D02*
X2415000Y1594000D01*
X2430000Y1580000D02*
Y1598000D01*
X2470000Y1325000D02*
X2500000D01*
Y1326000D01*
X2430000Y1285000D02*
X2430000Y1580000D01*
X783000Y1602000D02*
X2435000Y1602000D01*
Y1355000D02*
Y1602000D01*
X2509000Y1308000D02*
Y1308000D01*
Y1308000D02*
X2510000Y1307000D01*
X2522000Y1308000D02*
Y1435000D01*
X692000Y1602000D02*
X763000D01*
X720000Y1610000D02*
X2460000Y1610000D01*
X2435000Y1324000D02*
Y1335000D01*
X2040000Y1389000D02*
Y1390000D01*
X2065000D01*
X2040000Y1494000D02*
Y1495000D01*
X2065000D01*
X2565000Y1125000D02*
X2810000D01*
X2508000Y1165000D02*
Y1169000D01*
X2610000Y920000D02*
Y1095000D01*
X2435000Y1275000D02*
X2464000D01*
X2435000Y1214000D02*
Y1275000D01*
X2495000Y1160000D02*
X2520000Y1135000D01*
X2850000Y920000D02*
Y1115000D01*
X2750000Y920000D02*
Y1110000D01*
X2710000Y920000D02*
Y1105000D01*
X2690000Y920000D02*
Y1105000D01*
X2670000Y920000D02*
Y1105000D01*
X2650000Y920000D02*
Y1105000D01*
X2630000Y920000D02*
Y1105000D01*
X2730000D02*
X2730000Y945000D01*
X2465000Y1320000D02*
X2495000D01*
X2506000Y1221000D02*
X2508000Y1223000D01*
X2506000Y1198000D02*
Y1221000D01*
X2497000Y1221000D02*
X2502000Y1226000D01*
X2497000Y1198000D02*
Y1221000D01*
X2515000Y1226000D02*
Y1227000D01*
Y1166000D02*
Y1226000D01*
X2522000Y1169000D02*
X2523000D01*
X2522000D02*
Y1222000D01*
X2529000Y1166000D02*
Y1225000D01*
X2535000Y1170000D02*
X2536000D01*
X2535000D02*
Y1222000D01*
X2541000Y1166000D02*
Y1226000D01*
X1995000Y1210000D02*
Y1305000D01*
X1990000Y1205000D02*
Y1295000D01*
X1985000Y1210000D02*
Y1230000D01*
X2025000Y1190000D02*
Y1310000D01*
X1912000Y1154000D02*
X1930000D01*
X1850000Y1140000D02*
X1915000D01*
X1820000D02*
X1850000D01*
X2015000Y1203000D02*
Y1290000D01*
X2020000Y1229000D02*
Y1300000D01*
X1920000Y1280000D02*
X1930000D01*
X1820000Y1285000D02*
Y1405000D01*
Y1140000D02*
Y1285000D01*
X1915000D02*
X1920000Y1280000D01*
X2135000Y1180000D02*
X2136000Y1179000D01*
X2130000Y1185000D02*
X2135000Y1180000D01*
X2103000Y1185000D02*
X2130000D01*
X2135000Y1190000D02*
X2136000Y1191000D01*
X2107000Y1190000D02*
X2135000D01*
X2107000D02*
Y1389000D01*
X2100000Y1175000D02*
Y1175000D01*
X2410000Y1275000D02*
X2435000D01*
X2410000D02*
Y1285000D01*
X2349000Y1282000D02*
X2369000D01*
Y1294000D01*
X2730000Y920000D02*
Y945000D01*
X2046000Y1217000D02*
Y1292000D01*
X2116000Y1324000D02*
X2135000Y1343000D01*
X2116000Y1324000D02*
X2116000D01*
X2135000Y1330000D02*
X2135000D01*
X2121000Y1316000D02*
X2135000Y1330000D01*
X2260000Y1217000D02*
X2270000D01*
X2215000Y1160000D02*
Y1175000D01*
X2334000Y1205000D02*
X2338000Y1209000D01*
X2293000Y1205000D02*
X2334000D01*
X2260000Y1311000D02*
X2260000D01*
X2260000Y1307000D02*
X2260000Y1307000D01*
X2369000Y1305000D02*
X2378000D01*
X2369000Y1294000D02*
Y1305000D01*
X2349000Y1282000D02*
X2349000D01*
X2369000Y1294000D02*
X2378000D01*
X2349000Y1262000D02*
Y1282000D01*
Y1243000D02*
Y1262000D01*
Y1230000D02*
Y1242000D01*
X2378000Y1230000D02*
X2378000D01*
X2349000D02*
X2378000D01*
X2378000Y1233000D02*
Y1239000D01*
Y1230000D02*
Y1233000D01*
X2378000Y1230000D02*
Y1233000D01*
Y1209000D02*
Y1230000D01*
Y1233000D02*
X2378000D01*
X2378000Y1262000D02*
Y1282000D01*
X2260000Y1310000D02*
X2260000Y1310000D01*
X2260000Y1307000D02*
Y1311000D01*
X2050000Y1128000D02*
X2053000D01*
X265000Y1185000D02*
Y1195000D01*
D75*
X2295000Y1315000D02*
X2335000D01*
X2280000Y1330000D02*
X2295000Y1315000D01*
X2235000Y1330000D02*
X2280000D01*
X2090000Y1317000D02*
Y1365000D01*
X2115000D02*
X2155000D01*
X2116000Y1375000D02*
X2155000D01*
X2116000Y1375000D02*
X2116000Y1375000D01*
X2179000Y1228000D02*
X2198000D01*
Y1183000D02*
Y1228000D01*
Y1310000D01*
X2098000Y1276000D02*
Y1375000D01*
X2830000Y1445000D02*
X2830000Y940000D01*
Y920000D02*
Y940000D01*
X2260000Y1217000D02*
Y1223000D01*
Y1197000D02*
Y1217000D01*
X2335000Y1315000D02*
X2349000Y1301000D01*
X2088000Y1266000D02*
X2098000Y1276000D01*
X2260000Y1307000D02*
Y1311000D01*
Y1287000D02*
Y1307000D01*
X2260000Y1287000D02*
X2260000Y1287000D01*
Y1236000D02*
X2308000D01*
X2260000Y1223000D02*
Y1271000D01*
Y1287000D01*
X2308000D01*
D160*
X2340000Y1140000D02*
D03*
Y1390000D02*
D03*
X360000Y960000D02*
D03*
Y1570000D02*
D03*
D161*
X1630000Y920000D02*
D03*
X1650000D02*
D03*
X1670000D02*
D03*
X1690000D02*
D03*
X1710000D02*
D03*
X1730000D02*
D03*
X1750000D02*
D03*
X2010000D02*
D03*
X1970000D02*
D03*
X1950000D02*
D03*
X1930000D02*
D03*
X1910000D02*
D03*
X1890000D02*
D03*
X1870000D02*
D03*
X1850000D02*
D03*
X1830000D02*
D03*
X1810000D02*
D03*
X1790000D02*
D03*
X1770000D02*
D03*
X1990000D02*
D03*
X2810000D02*
D03*
X2050000D02*
D03*
X2730000D02*
D03*
X2750000D02*
D03*
X2770000D02*
D03*
X2790000D02*
D03*
X2830000D02*
D03*
X2850000D02*
D03*
X2870000D02*
D03*
X2710000D02*
D03*
X2690000D02*
D03*
X2670000D02*
D03*
X2630000D02*
D03*
X2650000D02*
D03*
X2610000D02*
D03*
X2570000D02*
D03*
X2550000D02*
D03*
X2530000D02*
D03*
X2510000D02*
D03*
X2490000D02*
D03*
X2470000D02*
D03*
X2450000D02*
D03*
X2430000D02*
D03*
X2410000D02*
D03*
X2390000D02*
D03*
X2370000D02*
D03*
X2350000D02*
D03*
X2330000D02*
D03*
X2310000D02*
D03*
X2270000D02*
D03*
X2250000D02*
D03*
X2230000D02*
D03*
X2210000D02*
D03*
X2190000D02*
D03*
X2170000D02*
D03*
X2150000D02*
D03*
X2130000D02*
D03*
X2110000D02*
D03*
X2090000D02*
D03*
X2070000D02*
D03*
X2030000D02*
D03*
X1590000D02*
D03*
X1570000D02*
D03*
X1550000D02*
D03*
X1530000D02*
D03*
X290000D02*
D03*
X270000D02*
D03*
X250000D02*
D03*
X230000D02*
D03*
X210000D02*
D03*
X190000D02*
D03*
D162*
X311100Y1114300D02*
D03*
Y1091400D02*
D03*
Y1205700D02*
D03*
Y1228600D02*
D03*
X262800Y1195600D02*
D03*
X245000Y1185400D02*
D03*
X262800Y1175200D02*
D03*
X245000Y1165000D02*
D03*
X262800Y1154800D02*
D03*
X245000Y1144600D02*
D03*
X262800Y1134400D02*
D03*
X311100Y1324300D02*
D03*
Y1301400D02*
D03*
Y1415700D02*
D03*
Y1438600D02*
D03*
X262800Y1405600D02*
D03*
X245000Y1395400D02*
D03*
X262800Y1385200D02*
D03*
X245000Y1375000D02*
D03*
X262800Y1364800D02*
D03*
X245000Y1354600D02*
D03*
X262800Y1344400D02*
D03*
D163*
X253900Y1078700D02*
D03*
Y1241300D02*
D03*
Y1288700D02*
D03*
Y1451300D02*
D03*
D164*
X219600Y1096500D02*
D03*
Y1223500D02*
D03*
Y1306500D02*
D03*
Y1433500D02*
D03*
D165*
X245000Y1124200D02*
D03*
Y1334200D02*
D03*
D166*
X2175000Y1095000D02*
D03*
X2285000Y1180000D02*
D03*
Y1150000D02*
D03*
X2130000Y1235000D02*
D03*
Y1280000D02*
D03*
X2435000Y1230000D02*
D03*
X2580000Y1095000D02*
D03*
X2560000Y1255000D02*
D03*
X2450000Y1380000D02*
D03*
Y1395000D02*
D03*
X2320000Y1250000D02*
D03*
Y1305000D02*
D03*
X2215000Y1270000D02*
D03*
Y1315000D02*
D03*
X1970000Y1165000D02*
D03*
Y1205000D02*
D03*
X2005000Y1325000D02*
D03*
Y1205000D02*
D03*
Y1275000D02*
D03*
Y1235000D02*
D03*
X2260000Y1435000D02*
D03*
X2220000D02*
D03*
X2715000Y1475000D02*
D03*
X2765000Y1474000D02*
D03*
X2740000Y1455000D02*
D03*
X2690000D02*
D03*
X2740000Y1495000D02*
D03*
X2690000D02*
D03*
X2665000Y1475000D02*
D03*
X1910000Y1245000D02*
D03*
Y1265000D02*
D03*
X2615000Y1475000D02*
D03*
X2490000Y1455000D02*
D03*
X2590000Y1455000D02*
D03*
X2540000D02*
D03*
X2640000D02*
D03*
X2590000Y1495000D02*
D03*
X2640000D02*
D03*
X2540000D02*
D03*
X2515000Y1476000D02*
D03*
X2565000Y1475000D02*
D03*
X2490000Y1495000D02*
D03*
X495000Y1405000D02*
D03*
Y1425000D02*
D03*
Y1445000D02*
D03*
Y1465000D02*
D03*
Y1485000D02*
D03*
Y1505000D02*
D03*
X515000Y1435000D02*
D03*
Y1415000D02*
D03*
Y1455000D02*
D03*
Y1475000D02*
D03*
Y1495000D02*
D03*
Y1515000D02*
D03*
X495000Y1525000D02*
D03*
Y1545000D02*
D03*
X515000Y1535000D02*
D03*
Y1100000D02*
D03*
Y1120000D02*
D03*
X495000Y1130000D02*
D03*
Y1110000D02*
D03*
Y1090000D02*
D03*
X515000Y1080000D02*
D03*
Y1060000D02*
D03*
Y1040000D02*
D03*
Y1020000D02*
D03*
Y980000D02*
D03*
Y1000000D02*
D03*
X495000Y1070000D02*
D03*
Y1050000D02*
D03*
Y1030000D02*
D03*
Y1010000D02*
D03*
Y990000D02*
D03*
Y970000D02*
D03*
X2420000Y1059000D02*
D03*
X2515000Y1060000D02*
D03*
X2565000Y1059000D02*
D03*
X2540000Y1040000D02*
D03*
X2440000D02*
D03*
X2490000D02*
D03*
X2440000Y1080000D02*
D03*
X2540000D02*
D03*
X2490000D02*
D03*
X2465000Y1060000D02*
D03*
X2395000Y1565000D02*
D03*
X2370000D02*
D03*
X2345000D02*
D03*
X2105000D02*
D03*
X2090000D02*
D03*
X2125000D02*
D03*
X2145000D02*
D03*
X2170000D02*
D03*
X2220000D02*
D03*
X2245000D02*
D03*
X2270000D02*
D03*
X2295000D02*
D03*
X2320000D02*
D03*
X800000Y1560000D02*
D03*
X775000D02*
D03*
X750000D02*
D03*
X800000Y1335000D02*
D03*
Y1310000D02*
D03*
X775000Y1335000D02*
D03*
Y1310000D02*
D03*
X750000D02*
D03*
Y1335000D02*
D03*
X800000Y1385000D02*
D03*
Y1360000D02*
D03*
X775000Y1385000D02*
D03*
Y1360000D02*
D03*
X750000D02*
D03*
Y1385000D02*
D03*
X775000Y1410000D02*
D03*
X800000D02*
D03*
Y1435000D02*
D03*
X750000Y1410000D02*
D03*
X775000Y1435000D02*
D03*
X750000D02*
D03*
Y1460000D02*
D03*
X775000D02*
D03*
X800000D02*
D03*
Y1485000D02*
D03*
X775000D02*
D03*
X800000Y1510000D02*
D03*
X775000D02*
D03*
X750000Y1485000D02*
D03*
Y1510000D02*
D03*
X800000Y1535000D02*
D03*
X775000D02*
D03*
X750000D02*
D03*
X2195000Y1565000D02*
D03*
X1640000Y1085000D02*
D03*
X1620000D02*
D03*
X1640000Y1445000D02*
D03*
X1620000D02*
D03*
X2015000Y1390000D02*
D03*
X2040000D02*
D03*
X2065000D02*
D03*
X1965000D02*
D03*
X1990000D02*
D03*
X1940000D02*
D03*
X2015000Y1495000D02*
D03*
X2040000D02*
D03*
X2065000D02*
D03*
X1965000D02*
D03*
X1990000D02*
D03*
X1940000D02*
D03*
X1970000Y1265000D02*
D03*
X1870000D02*
D03*
X1860000Y1255000D02*
D03*
X1880000D02*
D03*
X1870000Y1245000D02*
D03*
X1860000Y1235000D02*
D03*
Y1215000D02*
D03*
X1870000Y1225000D02*
D03*
X1880000Y1235000D02*
D03*
Y1215000D02*
D03*
X1900000D02*
D03*
X1890000Y1245000D02*
D03*
Y1265000D02*
D03*
X1900000Y1255000D02*
D03*
X1950000Y1265000D02*
D03*
X1930000D02*
D03*
X1940000Y1255000D02*
D03*
X1920000D02*
D03*
Y1235000D02*
D03*
X1930000Y1245000D02*
D03*
X1940000Y1235000D02*
D03*
X1950000Y1245000D02*
D03*
X1970000D02*
D03*
X1960000Y1255000D02*
D03*
Y1235000D02*
D03*
X1900000D02*
D03*
X2170000Y1060000D02*
D03*
X2220000D02*
D03*
X2345000Y1080000D02*
D03*
X2245000Y1080000D02*
D03*
X2295000D02*
D03*
X2195000D02*
D03*
X2145000D02*
D03*
X2245000Y1040000D02*
D03*
X2195000D02*
D03*
X2145000D02*
D03*
X2295000D02*
D03*
X2320000Y1059000D02*
D03*
X2270000Y1060000D02*
D03*
X2370000Y1059000D02*
D03*
X2395000Y1080000D02*
D03*
Y1040000D02*
D03*
X2345000D02*
D03*
X2195000Y1495000D02*
D03*
X2145000D02*
D03*
Y1455000D02*
D03*
X2170000Y1476000D02*
D03*
X2270000Y1475000D02*
D03*
X2220000Y1476000D02*
D03*
X2245000Y1495000D02*
D03*
X2345000D02*
D03*
X2295000D02*
D03*
X2345000Y1455000D02*
D03*
X2245000D02*
D03*
X2295000D02*
D03*
X2195000Y1455000D02*
D03*
X2320000Y1475000D02*
D03*
X830000Y950000D02*
D03*
Y980000D02*
D03*
Y995000D02*
D03*
Y965000D02*
D03*
X2360000Y1180000D02*
D03*
X2355000Y1150000D02*
D03*
X2320000Y1220000D02*
D03*
Y1150000D02*
D03*
Y1180000D02*
D03*
X1980000Y1325000D02*
D03*
X2185000Y1170000D02*
D03*
X2260000Y1400000D02*
D03*
X2220000D02*
D03*
X1890000Y1225000D02*
D03*
X1870000Y1415000D02*
D03*
X1860000Y1410000D02*
D03*
X1880000D02*
D03*
X1900000D02*
D03*
X1890000Y1415000D02*
D03*
Y1400000D02*
D03*
X1870000D02*
D03*
Y1385000D02*
D03*
X1860000Y1380000D02*
D03*
X1880000D02*
D03*
X1900000D02*
D03*
X1890000Y1385000D02*
D03*
X1630000Y1255000D02*
D03*
Y1275000D02*
D03*
X1860000Y1395000D02*
D03*
X1880000D02*
D03*
X1900000D02*
D03*
X1927000Y1019000D02*
D03*
X1952000D02*
D03*
X1977000D02*
D03*
X2002000D02*
D03*
X2027000D02*
D03*
X2052000D02*
D03*
X2065000Y1135000D02*
D03*
X2040000D02*
D03*
X2015000D02*
D03*
X1990000D02*
D03*
X1965000D02*
D03*
X1940000D02*
D03*
D167*
X2435000Y1214000D02*
D03*
X2195000Y1340000D02*
D03*
X2235000Y1330000D02*
D03*
X2470000Y1305000D02*
D03*
X2575000Y1285000D02*
D03*
X2545000Y1160000D02*
D03*
X2560000Y1105000D02*
D03*
X2545000Y1100000D02*
D03*
X2236000Y1141000D02*
D03*
X2180000Y1405000D02*
D03*
X2550000Y1335000D02*
D03*
X2540000Y1405000D02*
D03*
X2545000Y1410000D02*
D03*
X2515000Y1425000D02*
D03*
X2510000Y1420000D02*
D03*
X2365000Y1430000D02*
D03*
X2360000Y1425000D02*
D03*
X2355000Y1420000D02*
D03*
X2530000Y1415000D02*
D03*
X2415000D02*
D03*
X2410000Y1410000D02*
D03*
X2535000D02*
D03*
X2405000Y1405000D02*
D03*
X2485000Y1150000D02*
D03*
X2480000Y1160000D02*
D03*
X2490000Y1210000D02*
D03*
X1300000Y1285000D02*
D03*
X1280000Y1290000D02*
D03*
X2790000Y1130000D02*
D03*
Y1120000D02*
D03*
X2755000Y1115000D02*
D03*
X2730000Y1150000D02*
D03*
X2710000Y1145000D02*
D03*
Y1105000D02*
D03*
X2690000Y1140000D02*
D03*
Y1105000D02*
D03*
X2670000Y1160000D02*
D03*
Y1105000D02*
D03*
X2650000Y1155000D02*
D03*
Y1105000D02*
D03*
X2630000Y1135000D02*
D03*
Y1105000D02*
D03*
X335000Y1265000D02*
D03*
X2830000Y1445000D02*
D03*
X2580000Y1280000D02*
D03*
X2565000Y1195000D02*
D03*
X2508000Y1278000D02*
D03*
X2503000Y1253000D02*
D03*
Y1263000D02*
D03*
X2425000Y1435000D02*
D03*
X2522000D02*
D03*
X2550000Y1140000D02*
D03*
X2455000Y1135000D02*
D03*
X2460000Y1140000D02*
D03*
X2465000Y1145000D02*
D03*
X555000Y1575000D02*
D03*
X700000Y1590000D02*
D03*
Y1580000D02*
D03*
X340000Y1415000D02*
D03*
X2120000Y1205000D02*
D03*
X2115000Y1220000D02*
D03*
X2120000Y1175000D02*
D03*
X2090000Y1365000D02*
D03*
X2115000D02*
D03*
X2155000D02*
D03*
Y1375000D02*
D03*
X2120000Y1390000D02*
D03*
X2135000Y1395000D02*
D03*
X2198000Y1183000D02*
D03*
X2241000Y1260000D02*
D03*
X2246000Y1255000D02*
D03*
X2232000Y1166000D02*
D03*
X2226000Y1279000D02*
D03*
Y1216000D02*
D03*
Y1185000D02*
D03*
X2220000Y1122000D02*
D03*
X2236000Y1293000D02*
D03*
X2260000Y1196000D02*
D03*
X2215000Y1243000D02*
D03*
X2207000Y1236000D02*
D03*
X2255000Y1135000D02*
D03*
Y1115000D02*
D03*
X2245000Y1120000D02*
D03*
X2250000Y1170000D02*
D03*
X735000Y1285000D02*
D03*
X710000Y1565000D02*
D03*
X1290000Y1295000D02*
D03*
X2135000Y1130000D02*
D03*
X2548000Y1308000D02*
D03*
X465000Y1055000D02*
D03*
X470000Y1060000D02*
D03*
X635000Y1597000D02*
D03*
X585000Y1565000D02*
D03*
X2420000Y1365000D02*
D03*
X2490000Y1335000D02*
D03*
X2500000Y1325000D02*
D03*
X2465000Y1320000D02*
D03*
X2470000Y1325000D02*
D03*
X2495000Y1320000D02*
D03*
X2430000Y1155000D02*
D03*
X2440000Y1150000D02*
D03*
X2541000Y1304000D02*
D03*
X2534000Y1308000D02*
D03*
X2528000Y1304000D02*
D03*
X2515000D02*
D03*
X2509000Y1308000D02*
D03*
X2522000D02*
D03*
X2460000Y1367000D02*
D03*
X2435000Y1355000D02*
D03*
Y1335000D02*
D03*
X2425000D02*
D03*
X1788000Y1515000D02*
D03*
X2508000Y1169000D02*
D03*
X2098000Y1375000D02*
D03*
X2575000Y1150000D02*
D03*
X2580000Y1155000D02*
D03*
X2585000Y1160000D02*
D03*
X2565000Y1125000D02*
D03*
X2555000Y1145000D02*
D03*
X2850000Y1115000D02*
D03*
X2730000Y1105000D02*
D03*
X2535000Y1170000D02*
D03*
X2435000Y1324000D02*
D03*
X2508000Y1223000D02*
D03*
X2497000Y1198000D02*
D03*
X2506000D02*
D03*
X2502000Y1226000D02*
D03*
X2515000Y1166000D02*
D03*
X2529000D02*
D03*
X2541000D02*
D03*
X2522000Y1169000D02*
D03*
X2541000Y1226000D02*
D03*
X2535000Y1222000D02*
D03*
X2515000Y1226000D02*
D03*
X2522000Y1222000D02*
D03*
X2529000Y1226000D02*
D03*
X2265000Y1140000D02*
D03*
X1995000Y1305000D02*
D03*
Y1210000D02*
D03*
X2220000Y1089000D02*
D03*
X1990000Y1295000D02*
D03*
Y1205000D02*
D03*
X1985000Y1210000D02*
D03*
Y1230000D02*
D03*
X2025000Y1310000D02*
D03*
X1912000Y1154000D02*
D03*
X1930000D02*
D03*
X1915000Y1140000D02*
D03*
X1850000D02*
D03*
X2015000Y1290000D02*
D03*
X2020000Y1300000D02*
D03*
X1930000Y1280000D02*
D03*
X1820000Y1405000D02*
D03*
X1915000Y1285000D02*
D03*
X2135000Y1180000D02*
D03*
Y1190000D02*
D03*
X2100000Y1175000D02*
D03*
X1820000Y1285000D02*
D03*
X2120000Y1130000D02*
D03*
X2285000Y1345000D02*
D03*
X2275000D02*
D03*
X2265000Y1365000D02*
D03*
X2052000Y1241000D02*
D03*
X2035000Y1259000D02*
D03*
X2046000Y1292000D02*
D03*
X2270000Y1217000D02*
D03*
X2260000Y1323000D02*
D03*
X2215000Y1160000D02*
D03*
X2207000Y1179000D02*
D03*
X2256000Y1383000D02*
D03*
X2349000Y1301000D02*
D03*
X2338000Y1209000D02*
D03*
X2293000Y1205000D02*
D03*
X2440000Y1285000D02*
D03*
X2116000Y1375000D02*
D03*
X2090000Y1317000D02*
D03*
X2227000Y1371000D02*
D03*
Y1361000D02*
D03*
X2209000Y1371000D02*
D03*
Y1361000D02*
D03*
X2088000Y1266000D02*
D03*
X2198000Y1310000D02*
D03*
X2349000Y1230000D02*
D03*
Y1262000D02*
D03*
Y1243000D02*
D03*
X2088000Y1216000D02*
D03*
X2033000Y1241000D02*
D03*
X2308000Y1236000D02*
D03*
X2294000Y1262000D02*
D03*
X2179000Y1228000D02*
D03*
X2378000Y1262000D02*
D03*
Y1283000D02*
D03*
X2349000Y1282000D02*
D03*
X2378000Y1239000D02*
D03*
X2260000Y1311000D02*
D03*
Y1287000D02*
D03*
Y1271000D02*
D03*
X2236000Y1299000D02*
D03*
Y1323000D02*
D03*
X2308000Y1287000D02*
D03*
X2378000Y1209000D02*
D03*
X2378000Y1294000D02*
D03*
X2378000Y1305000D02*
D03*
X2326000Y1327000D02*
D03*
X2034000Y1311000D02*
D03*
X2135000Y1330000D02*
D03*
Y1343000D02*
D03*
X2046000Y1217000D02*
D03*
X2025000Y1190000D02*
D03*
X2015000Y1203000D02*
D03*
X2020000Y1229000D02*
D03*
X2430000Y1285000D02*
D03*
X2460000D02*
D03*
X2410000D02*
D03*
D168*
X2667500Y1477500D02*
D03*
D169*
X1940000Y1250000D02*
D03*
D170*
X1952500Y920000D02*
D03*
D171*
X890000Y927500D02*
D03*
D172*
X2570000Y925000D02*
D03*
X2550000D02*
D03*
X2530000D02*
D03*
X2510000D02*
D03*
X2490000D02*
D03*
X2470000D02*
D03*
X2450000D02*
D03*
X2430000D02*
D03*
X2410000D02*
D03*
X2390000D02*
D03*
X2370000D02*
D03*
X2350000D02*
D03*
X2330000D02*
D03*
X2310000D02*
D03*
D173*
X2437500Y920000D02*
D03*
D174*
X1167500Y1435000D02*
D03*
D175*
X1594000Y1544500D02*
D03*
D176*
X1715000Y1302500D02*
D03*
D177*
X1807500Y1462500D02*
D03*
D178*
X2445000Y1007500D02*
D03*
D179*
X1995000Y1395000D02*
D03*
D180*
Y1130000D02*
D03*
D181*
X2205000Y1470000D02*
D03*
D182*
X2105000Y1035000D02*
D03*
D183*
X1630000Y967500D02*
D03*
D184*
X2312500Y1010000D02*
D03*
D185*
X740000Y1107500D02*
D03*
D186*
X610000Y1268000D02*
D03*
D187*
X1875000Y1062500D02*
D03*
D188*
X1865000Y1282500D02*
D03*
D189*
X252500Y1368500D02*
D03*
Y1163500D02*
D03*
D190*
X2002500Y1067500D02*
D03*
D191*
X1992500Y1442500D02*
D03*
D192*
X1322500Y1132500D02*
D03*
M02*
