M48
;Layer_Color=9474304
;FILE_FORMAT=4:4
METRIC,LZ
;TYPE=PLATED
T1F00S00C0.2540
T2F00S00C0.6000
T3F00S00C0.7620
T4F00S00C0.8900
T5F00S00C1.5700
;TYPE=NON_PLATED
T6F00S00C0.7620
T7F00S00C1.1520
T8F00S00C3.2500
%
T01
X02755Y01115
X0279Y0112
Y0113
X0285Y01115
X0273Y01105
X0271
X0269
X0267
X0265
X0263
Y01135
X0265Y01155
X0267Y0116
X0269Y0114
X0271Y01145
X0273Y0115
X02575
X0258Y01155
X02585Y0116
X02545
X02541Y01166
X02535Y0117
X02529Y01166
X02522Y01169
X02515Y01166
X02508Y01169
X02506Y01198
X02497
X0249Y0121
X02502Y01226
X02508Y01223
X02515Y01226
X02522Y01222
X02529Y01226
X02535Y01222
X02541Y01226
X02565Y01195
X02555Y01145
X0255Y0114
X02565Y01125
X0256Y01105
X02545Y011
X02485Y0115
X0248Y0116
X02465Y01145
X0246Y0114
X02455Y01135
X0244Y0115
X0243Y01155
X02435Y01214
X02378Y01209
Y01239
Y01262
Y01283
X02378Y01294
X02378Y01305
X02349Y01301
Y01282
X02349Y01262
Y01243
Y0123
X02338Y01209
X0241Y01285
X0243
X0244
X0246
X0247Y01305
X02465Y0132
X0247Y01325
X025
X02495Y0132
X0249Y01335
X02509Y01308
X02515Y01304
X02522Y01308
X02528Y01304
X02534Y01308
X02541Y01304
X02548Y01308
X0255Y01335
X02575Y01285
X0258Y0128
X02508Y01278
X02503Y01263
Y01253
X02435Y01324
Y01335
X02425
X02435Y01355
X0242Y01365
X0246Y01367
X02326Y01327
X02308Y01287
X02294Y01262
X02308Y01236
X02293Y01205
X0227Y01217
X0226Y01196
X0225Y0117
X02232Y01166
X02215Y0116
X02207Y01179
X02198Y01183
X02226Y01185
Y01216
X02215Y01243
X02207Y01236
X02179Y01228
X02115Y0122
X0212Y01205
Y01175
X02135Y0118
Y0119
X021Y01175
X02088Y01216
X02046Y01217
X02052Y01241
X02033Y01241
X02035Y01259
X02046Y01292
X02034Y01311
X02025Y0131
X0202Y013
X02015Y0129
X0199Y01295
X01995Y01305
X01985Y0123
Y0121
X0199Y01205
X01995Y0121
X02015Y01203
X02025Y0119
X0202Y01229
X02088Y01266
X0209Y01317
Y01365
X02098Y01375
X02116
X02115Y01365
X02155
Y01375
X02135Y01343
Y0133
X02195Y0134
X02198Y0131
X02236Y01299
X02236Y01293
X02226Y01279
X02241Y0126
X02246Y01255
X0226Y01271
Y01287
Y01311
X0226Y01323
X02236Y01323
X02235Y0133
X02227Y01361
Y01371
X02209
Y01361
X02265Y01365
X02256Y01383
X02275Y01345
X02285
X02265Y0114
X02255Y01135
Y01115
X02245Y0112
X0222Y01122
Y01089
X02236Y01141
X02135Y0113
X0212
X0193Y01154
X01912
X01915Y0114
X0185
X0182Y01285
X01915
X0193Y0128
X013Y01285
X0129Y01295
X0128Y0129
X00735Y01285
X0047Y0106
X00465Y01055
X00335Y01265
X0034Y01415
X00555Y01575
X00585Y01565
X00635Y01597
X007Y0159
Y0158
X0071Y01565
X01788Y01515
X0182Y01405
X0212Y0139
X02135Y01395
X0218Y01405
X02355Y0142
X0236Y01425
X02365Y0143
X02415Y01415
X0241Y0141
X02405Y01405
X02425Y01435
X02522
X02515Y01425
X0251Y0142
X0253Y01415
X02535Y0141
X02545
X0254Y01405
X0283Y01445
T02
X00495Y0097
X00515Y0098
X0083Y0098
Y00965
Y0095
X02345Y0104
X02345Y0108
X0237Y01059
X02395Y0104
Y0108
X0244Y0108
Y0104
X0242Y01059
X02465Y0106
X0249Y0104
Y0108
X02515Y0106
X0254Y0104
Y0108
X02565Y01059
X0258Y01095
X0256Y01255
X02435Y0123
X0236Y0118
X02355Y0115
X0245Y0138
X0232Y01305
Y0125
Y0122
Y0118
Y0115
X02285
Y0118
X02185Y0117
X02175Y01095
X02195Y0108
Y0104
X0217Y0106
X02145Y0104
Y0108
X0222Y0106
X02245Y0104
Y0108
X0227Y0106
X02295Y0104
Y0108
X0232Y01059
X02052Y01019
X02027
X02002
X01977
X01952
X0194Y01135
X01965
X0199
X02015
X0204
X02065
X0197Y01165
Y01205
X02005
Y01235
Y01275
X0197Y01265
Y01245
X0195
Y01265
X0194Y01255
Y01235
X0196
Y01255
X0198Y01325
X02005
X0213Y0128
Y01235
X02215Y0127
Y01315
X0193Y01265
X0192Y01255
X0191Y01265
Y01245
X0189
X0188Y01255
X0189Y01265
X0187
X0186Y01255
X0187Y01245
X0188Y01235
X019
Y01215
X0189Y01225
X0188Y01215
X0187Y01225
X0186Y01215
Y01235
X019Y01255
X0192Y01235
X0193Y01245
X019Y0138
X0188
X0186
X0163Y01275
Y01255
X0164Y01085
X0162
X01927Y01019
X0083Y00995
X008Y0131
Y01335
X00775
Y0131
X0075
Y01335
Y0136
X00775
X008
X00515Y0112
Y011
Y0108
Y0106
Y0104
Y0102
Y01
X00495Y0099
Y0101
Y0103
Y0105
Y0107
Y0109
Y0111
Y0113
Y01405
Y01425
Y01445
Y01465
Y01485
Y01505
Y01525
Y01545
X00515Y01535
Y01515
Y01495
Y01475
Y01455
Y01435
Y01415
X0075Y0141
Y01385
X00775
Y0141
X008
Y01385
Y01435
Y0146
X00775
Y01435
X0075
Y0146
Y01485
X00775
Y0151
X0075
Y01535
X00775
Y0156
X0075
X008
Y01535
Y0151
Y01485
X0162Y01445
X0164
X0186Y0141
X0187Y01415
X0188Y0141
X0189Y01415
X019Y0141
Y01395
X0189Y014
Y01385
X0187
Y014
X0186Y01395
X0188
X0194Y0139
X01965
X0199
X02015
X0204
X02065
Y01495
X0204
X02015
X0199
X01965
X0194
X02145
Y01455
X0217Y01476
X02195Y01495
X02195Y01455
X0222Y01435
Y014
X0226
Y01435
X02245Y01455
Y01495
X0222Y01476
X0227Y01475
X02295Y01495
Y01455
X0232Y01475
X0232Y01565
X02295
X0227
X02245
X0222
X02195
X0217
X02145
X02125
X02105
X0209
X02345
X0237
X02395
X02345Y01495
Y01455
X0249Y01455
X0249Y01495
X02515Y01476
X0254Y01495
Y01455
X02565Y01475
X0259Y01495
Y01455
X02615Y01475
X0264Y01495
Y01455
X02665Y01475
X0269Y01455
Y01495
X02715Y01475
X0245Y01395
X0274Y01455
Y01495
X02765Y01474
T03
X0019Y0092
X0021
X0023
X0025
X0027
X0029
X0153
X0155
X0157
X0159
X0163
X0165
X0167
X0169
X0171
X0173
X0175
X0177
X0179
X0181
X0183
X0185
X0187
X0189
X0191
X0193
X0195
X0197
X0199
X0201
X0203
X0205
X0207
X0209
X0211
X0213
X0215
X0217
X0219
X0221
X0223
X0225
X0227
X0231
X0233
X0235
X0237
X0239
X0241
X0243
X0245
X0247
X0249
X0251
X0253
X0255
X0257
X0261
X0263
X0265
X0267
X0269
X0271
X0273
X0275
X0277
X0279
X0281
X0283
X0285
X0287
T04
X00245Y011242
Y011446
Y01165
Y011854
X002628Y011956
Y011752
Y011548
Y011344
X003111Y011143
Y010914
Y012057
Y012286
Y013014
Y013243
X002628Y013444
Y013648
X00245Y013546
Y01375
Y013342
Y013954
X002628Y014056
Y013852
X003111Y014157
Y014386
T05
X002539Y010787
Y012413
Y012887
Y014513
T06
X0161Y0092
X0229
X0259
T07
X0036Y0096
X0234Y0114
X0036Y0157
X0234Y0139
T08
X002196Y010965
Y012235
Y013065
Y014335
M30
