G04*
G04 #@! TF.GenerationSoftware,Altium Limited,Altium Designer,18.1.7 (191)*
G04*
G04 Layer_Color=255*
%FSLAX44Y44*%
%MOMM*%
G71*
G01*
G75*
%ADD160C,1.1520*%
%ADD161R,1.5000X1.5000*%
%ADD162C,1.3980*%
%ADD163C,2.3550*%
%ADD164C,3.2500*%
%ADD165R,1.3980X1.3980*%
D160*
X2340000Y1140000D02*
D03*
Y1390000D02*
D03*
X360000Y960000D02*
D03*
Y1570000D02*
D03*
D161*
X1630000Y920000D02*
D03*
X1650000D02*
D03*
X1670000D02*
D03*
X1690000D02*
D03*
X1710000D02*
D03*
X1730000D02*
D03*
X1750000D02*
D03*
X2010000D02*
D03*
X1970000D02*
D03*
X1950000D02*
D03*
X1930000D02*
D03*
X1910000D02*
D03*
X1890000D02*
D03*
X1870000D02*
D03*
X1850000D02*
D03*
X1830000D02*
D03*
X1810000D02*
D03*
X1790000D02*
D03*
X1770000D02*
D03*
X1990000D02*
D03*
X2810000D02*
D03*
X2050000D02*
D03*
X2730000D02*
D03*
X2750000D02*
D03*
X2770000D02*
D03*
X2790000D02*
D03*
X2830000D02*
D03*
X2850000D02*
D03*
X2870000D02*
D03*
X2710000D02*
D03*
X2690000D02*
D03*
X2670000D02*
D03*
X2630000D02*
D03*
X2650000D02*
D03*
X2610000D02*
D03*
X2570000D02*
D03*
X2550000D02*
D03*
X2530000D02*
D03*
X2510000D02*
D03*
X2490000D02*
D03*
X2470000D02*
D03*
X2450000D02*
D03*
X2430000D02*
D03*
X2410000D02*
D03*
X2390000D02*
D03*
X2370000D02*
D03*
X2350000D02*
D03*
X2330000D02*
D03*
X2310000D02*
D03*
X2270000D02*
D03*
X2250000D02*
D03*
X2230000D02*
D03*
X2210000D02*
D03*
X2190000D02*
D03*
X2170000D02*
D03*
X2150000D02*
D03*
X2130000D02*
D03*
X2110000D02*
D03*
X2090000D02*
D03*
X2070000D02*
D03*
X2030000D02*
D03*
X1590000D02*
D03*
X1570000D02*
D03*
X1550000D02*
D03*
X1530000D02*
D03*
X290000D02*
D03*
X270000D02*
D03*
X250000D02*
D03*
X230000D02*
D03*
X210000D02*
D03*
X190000D02*
D03*
D162*
X311100Y1114300D02*
D03*
Y1091400D02*
D03*
Y1205700D02*
D03*
Y1228600D02*
D03*
X262800Y1195600D02*
D03*
X245000Y1185400D02*
D03*
X262800Y1175200D02*
D03*
X245000Y1165000D02*
D03*
X262800Y1154800D02*
D03*
X245000Y1144600D02*
D03*
X262800Y1134400D02*
D03*
X311100Y1324300D02*
D03*
Y1301400D02*
D03*
Y1415700D02*
D03*
Y1438600D02*
D03*
X262800Y1405600D02*
D03*
X245000Y1395400D02*
D03*
X262800Y1385200D02*
D03*
X245000Y1375000D02*
D03*
X262800Y1364800D02*
D03*
X245000Y1354600D02*
D03*
X262800Y1344400D02*
D03*
D163*
X253900Y1078700D02*
D03*
Y1241300D02*
D03*
Y1288700D02*
D03*
Y1451300D02*
D03*
D164*
X219600Y1096500D02*
D03*
Y1223500D02*
D03*
Y1306500D02*
D03*
Y1433500D02*
D03*
D165*
X245000Y1124200D02*
D03*
Y1334200D02*
D03*
M02*
