G04*
G04 #@! TF.GenerationSoftware,Altium Limited,Altium Designer,18.1.7 (191)*
G04*
G04 Layer_Color=65535*
%FSLAX44Y44*%
%MOMM*%
G71*
G01*
G75*
%ADD10C,0.2540*%
%ADD11C,0.2500*%
%ADD12C,0.1500*%
%ADD13C,0.2000*%
%ADD14C,0.6000*%
%ADD15C,0.1800*%
G36*
X2716017Y1408207D02*
X2716369Y1408119D01*
X2717336Y1407768D01*
X2717863Y1407504D01*
X2718390Y1407065D01*
X2718478Y1406977D01*
X2718741Y1406713D01*
X2719093Y1406273D01*
X2719445Y1405834D01*
X2719532Y1405746D01*
X2719708Y1405483D01*
X2719972Y1405043D01*
X2720323Y1404516D01*
X2720411Y1404428D01*
X2720499Y1404076D01*
X2720587Y1403637D01*
X2720675Y1403110D01*
Y1403022D01*
X2720587Y1402670D01*
X2720411Y1402231D01*
X2720148Y1401792D01*
X2720060Y1401704D01*
X2719708Y1401440D01*
X2719269Y1401264D01*
X2718741Y1401176D01*
X2718566D01*
X2718214Y1401264D01*
X2717775Y1401440D01*
X2717248Y1401616D01*
X2717160Y1401704D01*
X2716896Y1401879D01*
X2716281Y1402407D01*
X2716193Y1402495D01*
X2716017Y1402670D01*
X2715402Y1403198D01*
X2715314Y1403286D01*
X2715138Y1403373D01*
X2714699Y1403549D01*
X2714611D01*
X2714435Y1403637D01*
X2713996Y1403901D01*
Y1403813D01*
X2713908Y1403637D01*
X2713732Y1403110D01*
Y1403022D01*
X2713644Y1402846D01*
Y1402231D01*
X2713732Y1402143D01*
X2713908Y1401616D01*
X2714084Y1400913D01*
X2714435Y1400034D01*
Y1399946D01*
X2714523Y1399858D01*
X2714699Y1399419D01*
X2715050Y1398716D01*
X2715402Y1397925D01*
Y1397837D01*
X2715578Y1397661D01*
X2715753Y1397397D01*
X2716017Y1396958D01*
X2716808Y1396079D01*
X2717775Y1395200D01*
X2717863Y1395112D01*
X2718038Y1395024D01*
X2718302Y1394849D01*
X2718654Y1394585D01*
X2719532Y1393970D01*
X2720675Y1393267D01*
X2720763Y1393179D01*
X2720939Y1393091D01*
X2721290Y1392915D01*
X2721817Y1392652D01*
X2722960Y1392036D01*
X2724278Y1391333D01*
X2724366D01*
X2724630Y1391158D01*
X2724981Y1391070D01*
X2725421Y1390894D01*
X2726036Y1390630D01*
X2726739Y1390454D01*
X2728233Y1390103D01*
X2728321D01*
X2728585D01*
X2729024D01*
X2729551D01*
X2730694Y1390367D01*
X2731309Y1390542D01*
X2731748Y1390894D01*
Y1390982D01*
X2731924Y1391070D01*
X2732012Y1391421D01*
X2732188Y1391773D01*
X2732276Y1392212D01*
X2732364Y1392827D01*
X2732276Y1393530D01*
X2732188Y1394321D01*
Y1394409D01*
X2732100Y1394497D01*
X2732012Y1395112D01*
X2731748Y1395815D01*
X2731397Y1396694D01*
Y1396782D01*
X2731309Y1396870D01*
X2730957Y1397397D01*
X2730518Y1398100D01*
X2730078Y1398891D01*
Y1398979D01*
X2729991Y1399067D01*
X2729639Y1399507D01*
X2729200Y1400122D01*
X2728585Y1400825D01*
Y1400913D01*
X2728409Y1401001D01*
X2728057Y1401440D01*
X2727530Y1402143D01*
X2726915Y1403022D01*
X2727003D01*
X2727090Y1402934D01*
X2727618Y1402758D01*
X2728321Y1402407D01*
X2729288Y1401879D01*
X2730254Y1401176D01*
X2731309Y1400210D01*
X2732276Y1398979D01*
X2733067Y1397573D01*
Y1397485D01*
X2733155Y1397397D01*
X2733418Y1396870D01*
X2733682Y1395991D01*
X2734033Y1394937D01*
X2734297Y1393706D01*
X2734473Y1392388D01*
X2734385Y1390894D01*
X2734121Y1389488D01*
Y1389400D01*
X2733945Y1389136D01*
X2733770Y1388697D01*
X2733506Y1388169D01*
X2732803Y1386939D01*
X2732276Y1386324D01*
X2731748Y1385797D01*
X2731660Y1385709D01*
X2731397Y1385621D01*
X2731045Y1385357D01*
X2730518Y1385181D01*
X2729903Y1385006D01*
X2729112Y1384830D01*
X2728233Y1384742D01*
X2727354D01*
X2727266D01*
X2727178D01*
X2726739Y1384830D01*
X2726124Y1384918D01*
X2725421Y1385094D01*
X2725333D01*
X2725245Y1385181D01*
X2724806Y1385269D01*
X2724102Y1385357D01*
X2723311Y1385533D01*
Y1385357D01*
X2723224Y1385006D01*
X2723136Y1384390D01*
X2723048Y1383687D01*
Y1383512D01*
X2722960Y1383160D01*
X2722872Y1382545D01*
X2722784Y1381930D01*
X2722696D01*
X2722520D01*
X2722433D01*
X2722257D01*
X2722169Y1382105D01*
X2722081Y1382457D01*
X2721905Y1382896D01*
X2721730Y1383424D01*
Y1383600D01*
X2721554Y1383951D01*
X2721466Y1384390D01*
X2721202Y1385006D01*
Y1385094D01*
X2721115Y1385269D01*
X2720939Y1385621D01*
X2720763Y1385972D01*
X2720236Y1386939D01*
X2719445Y1387994D01*
X2719357Y1388082D01*
X2719269Y1388169D01*
X2719005Y1388433D01*
X2718654Y1388785D01*
X2717863Y1389576D01*
X2716984Y1390542D01*
X2716896Y1390630D01*
X2716632Y1390894D01*
X2716281Y1391333D01*
X2715841Y1391861D01*
X2715314Y1392476D01*
X2714699Y1393267D01*
X2713469Y1394937D01*
X2713381Y1395024D01*
X2713205Y1395376D01*
X2712941Y1395815D01*
X2712678Y1396431D01*
X2712326Y1397222D01*
X2712062Y1398012D01*
X2711799Y1398979D01*
X2711623Y1400034D01*
Y1400297D01*
X2711535Y1400561D01*
Y1400825D01*
X2711447Y1401704D01*
Y1403461D01*
X2711535Y1404252D01*
X2711711Y1405131D01*
Y1405219D01*
X2711799Y1405571D01*
X2711974Y1405922D01*
X2712238Y1406449D01*
X2712590Y1406977D01*
X2713117Y1407504D01*
X2713644Y1407943D01*
X2714435Y1408207D01*
X2714523D01*
X2714787Y1408295D01*
X2715138D01*
X2715490D01*
X2715578D01*
X2715753D01*
X2716017Y1408207D01*
D02*
G37*
G36*
X2705120Y1378590D02*
X2705295Y1378239D01*
X2705559Y1377799D01*
X2705910Y1377184D01*
X2706350Y1376481D01*
X2706789Y1375690D01*
X2707756Y1374020D01*
X2707844Y1373932D01*
X2708020Y1373669D01*
X2708195Y1373141D01*
X2708547Y1372614D01*
X2708987Y1371911D01*
X2709426Y1371208D01*
X2710305Y1369538D01*
X2710217D01*
X2710129Y1369450D01*
Y1369362D01*
X2710041Y1369274D01*
X2709953Y1369362D01*
X2709602Y1369714D01*
X2709074Y1370065D01*
X2708459Y1370593D01*
X2708283Y1370681D01*
X2707932Y1371032D01*
X2707404Y1371472D01*
X2706701Y1371999D01*
Y1371911D01*
X2706613Y1371647D01*
X2706438Y1371296D01*
X2706350Y1370856D01*
Y1370768D01*
X2706262Y1370505D01*
X2706174Y1370153D01*
X2705998Y1369626D01*
X2705910Y1369714D01*
X2705735Y1369977D01*
X2705471Y1370417D01*
X2705032Y1370856D01*
X2704592Y1371472D01*
X2704065Y1372175D01*
X2703010Y1373669D01*
X2702922Y1373757D01*
X2702747Y1374020D01*
X2702483Y1374460D01*
X2702131Y1374987D01*
X2701604Y1375602D01*
X2701077Y1376305D01*
X2699934Y1377887D01*
X2700022D01*
X2700110Y1377799D01*
X2700725Y1377623D01*
X2701516Y1377360D01*
X2702307Y1377008D01*
X2702395D01*
X2702483Y1376920D01*
X2703010Y1376745D01*
X2703713Y1376393D01*
X2704504Y1376041D01*
Y1376129D01*
X2704592Y1376481D01*
X2704680Y1376832D01*
X2704768Y1377272D01*
Y1377360D01*
X2704856Y1377623D01*
X2704944Y1378063D01*
X2705032Y1378678D01*
X2705120Y1378590D01*
D02*
G37*
G36*
X2726915Y1376217D02*
X2727003Y1376129D01*
X2727354Y1375954D01*
X2727794Y1375514D01*
X2728409Y1375075D01*
X2729024Y1374547D01*
X2729815Y1373844D01*
X2731309Y1372438D01*
X2731397Y1372350D01*
X2731573Y1372087D01*
X2731924Y1371647D01*
X2732364Y1371032D01*
X2732803Y1370329D01*
X2733330Y1369450D01*
X2733770Y1368483D01*
X2734209Y1367429D01*
Y1367253D01*
X2734297Y1366902D01*
X2734385Y1366462D01*
X2734473Y1365847D01*
Y1365320D01*
X2734385Y1364792D01*
X2734297Y1364177D01*
Y1364089D01*
X2734209Y1363914D01*
X2734121Y1363650D01*
X2734033Y1363210D01*
X2733682Y1362419D01*
X2733067Y1361716D01*
X2732979D01*
X2732891Y1361541D01*
X2732364Y1361277D01*
X2731660Y1360925D01*
X2730694Y1360662D01*
X2730606D01*
X2730430D01*
X2730078Y1360574D01*
X2729639D01*
X2728672Y1360662D01*
X2727618Y1360838D01*
X2727530D01*
X2727354Y1360925D01*
X2727090Y1361013D01*
X2726739Y1361189D01*
X2725860Y1361541D01*
X2724806Y1361980D01*
X2724718D01*
X2724630Y1362068D01*
X2724366Y1362244D01*
X2724015Y1362419D01*
X2723224Y1362771D01*
X2722257Y1363298D01*
X2722169D01*
X2722081Y1363386D01*
X2721817Y1363562D01*
X2721466Y1363738D01*
X2720675Y1364089D01*
X2719708Y1364617D01*
Y1362595D01*
X2719620Y1362244D01*
Y1362156D01*
X2719532Y1361892D01*
X2719445Y1361453D01*
X2719357Y1361013D01*
X2719269Y1360925D01*
X2719181Y1360662D01*
X2719005Y1360310D01*
X2718829Y1359959D01*
X2718741D01*
X2718654Y1359783D01*
X2718126Y1359607D01*
X2718038D01*
X2717863Y1359519D01*
X2717599D01*
X2717336D01*
X2717248D01*
X2717160Y1359607D01*
X2716984Y1359783D01*
X2716808Y1359959D01*
X2716720Y1360047D01*
X2716632Y1360222D01*
X2716544Y1360398D01*
Y1361189D01*
X2716457Y1361804D01*
Y1362507D01*
X2716281Y1363386D01*
X2716017Y1364353D01*
X2715753Y1365320D01*
X2715314Y1366286D01*
X2715226Y1366374D01*
X2715050Y1366726D01*
X2714787Y1367253D01*
X2714435Y1367868D01*
X2714084Y1368659D01*
X2713644Y1369538D01*
X2712590Y1371472D01*
X2712502Y1371559D01*
X2712414Y1371823D01*
X2712150Y1372262D01*
X2711974Y1372702D01*
X2711887Y1372790D01*
X2711799Y1373141D01*
X2711711Y1373669D01*
X2711623Y1374284D01*
X2711711D01*
X2711974Y1374108D01*
X2712326Y1373932D01*
X2712853Y1373757D01*
X2713996Y1373141D01*
X2715402Y1372438D01*
X2715490D01*
X2715753Y1372262D01*
X2716105Y1372087D01*
X2716632Y1371911D01*
X2717775Y1371296D01*
X2719181Y1370593D01*
X2719269Y1370505D01*
X2719532Y1370417D01*
X2719972Y1370153D01*
X2720499Y1369890D01*
X2721115Y1369538D01*
X2721817Y1369187D01*
X2723399Y1368308D01*
X2723487Y1368220D01*
X2723751Y1368132D01*
X2724190Y1367868D01*
X2724806Y1367605D01*
X2725421Y1367253D01*
X2726212Y1366902D01*
X2727794Y1366111D01*
X2727881D01*
X2728145Y1365935D01*
X2728497Y1365847D01*
X2728848Y1365671D01*
X2728936D01*
X2729200Y1365583D01*
X2729639Y1365495D01*
X2730078Y1365408D01*
X2730166D01*
X2730254D01*
X2730782Y1365495D01*
X2731397Y1365671D01*
X2731924Y1366111D01*
X2732012Y1366286D01*
X2732100Y1366638D01*
Y1367253D01*
X2732012Y1367605D01*
X2731836Y1368044D01*
Y1368132D01*
X2731748Y1368220D01*
X2731397Y1368747D01*
X2730869Y1369450D01*
X2730254Y1370153D01*
Y1370241D01*
X2730078Y1370329D01*
X2729727Y1370856D01*
X2729112Y1371472D01*
X2728497Y1372262D01*
X2728409Y1372350D01*
X2728145Y1372702D01*
X2727706Y1373141D01*
X2727266Y1373581D01*
X2727178Y1373669D01*
X2726827Y1374020D01*
X2726387Y1374372D01*
X2725948Y1374899D01*
X2725860Y1375075D01*
X2725772Y1375251D01*
X2725684Y1375514D01*
Y1375778D01*
X2725597Y1376217D01*
X2725684D01*
X2725772D01*
X2726299Y1376305D01*
X2726387D01*
X2726475D01*
X2726915Y1376217D01*
D02*
G37*
G36*
X2718741Y1353719D02*
X2719093Y1353631D01*
X2720148Y1353280D01*
X2720675Y1352928D01*
X2721202Y1352576D01*
X2721290Y1352489D01*
X2721466Y1352401D01*
X2721730Y1352137D01*
X2721993Y1351785D01*
X2722696Y1350907D01*
X2722960Y1350379D01*
X2723224Y1349764D01*
Y1349676D01*
X2723311Y1349500D01*
X2723399Y1348973D01*
Y1347919D01*
X2723224Y1347479D01*
X2722960Y1346864D01*
X2722520Y1346249D01*
X2722433Y1346161D01*
X2722081Y1345897D01*
X2721554Y1345721D01*
X2720851Y1345634D01*
X2720763D01*
X2720411Y1345721D01*
X2720060Y1345985D01*
X2719708Y1346425D01*
X2719620Y1346600D01*
X2719532Y1346952D01*
X2719445Y1347655D01*
Y1348534D01*
X2719532Y1348797D01*
X2719620Y1349413D01*
Y1349676D01*
X2719445Y1349940D01*
X2719093Y1350116D01*
X2719005D01*
X2718829Y1350204D01*
X2718566Y1350291D01*
X2718214D01*
X2718126D01*
X2717863D01*
X2717336Y1350116D01*
X2717248Y1350028D01*
X2716984Y1349940D01*
X2716720Y1349676D01*
X2716544Y1349325D01*
Y1349237D01*
X2716457Y1348973D01*
Y1348622D01*
X2716544Y1348270D01*
Y1348182D01*
X2716720Y1347831D01*
X2716896Y1347391D01*
X2717072Y1346864D01*
Y1346776D01*
X2717248Y1346425D01*
X2717423Y1345985D01*
X2717687Y1345546D01*
X2717775Y1345370D01*
X2718126Y1344843D01*
X2718654Y1344140D01*
X2719445Y1343173D01*
X2720323Y1342030D01*
X2721290Y1340888D01*
X2722345Y1339657D01*
X2723575Y1338427D01*
X2723751Y1338251D01*
X2724190Y1337900D01*
X2724893Y1337285D01*
X2725860Y1336582D01*
X2727003Y1335791D01*
X2728321Y1334912D01*
X2729815Y1334121D01*
X2731485Y1333330D01*
X2731573D01*
X2731836Y1333154D01*
X2732188Y1332978D01*
X2732627Y1332802D01*
X2733506Y1332187D01*
X2733857Y1331836D01*
X2734033Y1331484D01*
X2734121Y1331308D01*
Y1331045D01*
X2734209Y1330693D01*
X2734297Y1330166D01*
Y1328672D01*
X2734209Y1327617D01*
X2734121D01*
X2734033Y1327705D01*
X2733506Y1327969D01*
X2732715Y1328320D01*
X2731660Y1328848D01*
X2730430Y1329463D01*
X2729112Y1330166D01*
X2727618Y1330957D01*
X2726124Y1331748D01*
X2726036D01*
X2725948Y1331836D01*
X2725421Y1332099D01*
X2724630Y1332539D01*
X2723575Y1333154D01*
X2722345Y1333857D01*
X2720939Y1334648D01*
X2719445Y1335439D01*
X2717863Y1336406D01*
Y1336318D01*
X2717950Y1336142D01*
Y1335791D01*
X2718038Y1335439D01*
X2718302Y1334472D01*
X2718566Y1333506D01*
Y1333330D01*
X2718654Y1333066D01*
X2718741Y1332715D01*
X2718917Y1331924D01*
X2719181Y1330957D01*
X2719093D01*
X2719005D01*
X2718917D01*
X2718829Y1330869D01*
X2718741Y1330957D01*
X2718566Y1331221D01*
X2718478Y1331308D01*
X2718302Y1331660D01*
X2718214Y1331748D01*
X2718126Y1332012D01*
X2717950Y1332451D01*
X2717599Y1332978D01*
X2717336Y1333593D01*
X2716984Y1334297D01*
X2716193Y1335791D01*
X2716105Y1335878D01*
X2716017Y1336142D01*
X2715753Y1336582D01*
X2715402Y1337021D01*
X2714435Y1338251D01*
X2713205Y1339570D01*
X2713117Y1339657D01*
X2712853Y1339921D01*
X2712766Y1340009D01*
X2712678Y1340361D01*
Y1341327D01*
X2712766Y1341503D01*
X2712853Y1341679D01*
X2713029Y1341767D01*
X2713205Y1341855D01*
X2713469Y1341942D01*
X2713556D01*
X2713732D01*
X2714171D01*
X2714347Y1341855D01*
X2714699Y1341767D01*
X2715138Y1341503D01*
X2715753Y1341239D01*
X2715841Y1341151D01*
X2716193Y1341064D01*
X2716720Y1340800D01*
X2717336Y1340536D01*
Y1340624D01*
X2717248Y1340888D01*
X2717072Y1341239D01*
X2716896Y1341679D01*
X2716369Y1342821D01*
X2715841Y1344052D01*
Y1344140D01*
X2715753Y1344315D01*
X2715578Y1344667D01*
X2715402Y1345194D01*
X2714962Y1346337D01*
X2714523Y1347655D01*
Y1347831D01*
X2714435Y1348182D01*
X2714347Y1348710D01*
Y1350379D01*
X2714435Y1350995D01*
Y1351082D01*
X2714523Y1351258D01*
X2714699Y1351873D01*
X2715050Y1352576D01*
X2715666Y1353192D01*
X2715841Y1353280D01*
X2716369Y1353543D01*
X2717072Y1353719D01*
X2718126Y1353807D01*
X2718214D01*
X2718390D01*
X2718741Y1353719D01*
D02*
G37*
G36*
X2708811Y1329990D02*
X2709250Y1329814D01*
X2709514Y1329463D01*
Y1329375D01*
X2709602Y1329111D01*
X2709689Y1328760D01*
X2709777Y1328233D01*
Y1327178D01*
X2709865Y1326563D01*
Y1325596D01*
X2709777Y1324981D01*
Y1324366D01*
X2709865Y1323838D01*
X2710129Y1323223D01*
X2710217Y1323135D01*
X2710480Y1322872D01*
X2710920Y1322520D01*
X2711535Y1322169D01*
X2711623D01*
X2711799Y1321993D01*
X2712150Y1321905D01*
X2712590Y1321641D01*
X2713732Y1321114D01*
X2715050Y1320411D01*
X2715138D01*
X2715314Y1320235D01*
X2715666Y1320059D01*
X2716105Y1319884D01*
X2717160Y1319268D01*
X2718478Y1318565D01*
X2718566Y1318477D01*
X2718829Y1318389D01*
X2719269Y1318126D01*
X2719884Y1317862D01*
X2720499Y1317511D01*
X2721290Y1317159D01*
X2722872Y1316280D01*
X2722960Y1316192D01*
X2723224Y1316105D01*
X2723663Y1315841D01*
X2724278Y1315577D01*
X2724893Y1315226D01*
X2725684Y1314874D01*
X2727354Y1314083D01*
X2727530Y1313995D01*
X2727881Y1313820D01*
X2728321Y1313644D01*
X2728936Y1313380D01*
X2729112Y1313292D01*
X2729463Y1313204D01*
X2729903Y1313029D01*
X2730518Y1312941D01*
X2730606D01*
X2730694D01*
X2731221D01*
X2731748Y1313116D01*
X2732012Y1313292D01*
X2732188Y1313556D01*
X2732276Y1313732D01*
X2732364Y1314083D01*
Y1314698D01*
X2732276Y1315050D01*
X2732100Y1315401D01*
X2732012Y1315577D01*
X2731836Y1315929D01*
X2731573Y1316456D01*
X2731133Y1316983D01*
X2731045Y1317159D01*
X2730694Y1317511D01*
X2730342Y1317950D01*
X2729815Y1318477D01*
X2729639Y1318653D01*
X2729200Y1319005D01*
X2728585Y1319620D01*
X2727881Y1320323D01*
X2727794D01*
X2727706Y1320499D01*
X2727266Y1320850D01*
X2726651Y1321378D01*
X2725948Y1321993D01*
Y1322081D01*
X2726036Y1322169D01*
X2726124Y1322256D01*
X2726212Y1322432D01*
X2726299D01*
X2726387Y1322344D01*
X2726915Y1322256D01*
X2727003D01*
X2727090Y1322169D01*
X2727618Y1321993D01*
X2727706D01*
X2727881Y1321817D01*
X2728233Y1321641D01*
X2728672Y1321465D01*
X2729639Y1320850D01*
X2730782Y1320059D01*
X2730869Y1319971D01*
X2731045Y1319884D01*
X2731221Y1319620D01*
X2731573Y1319268D01*
X2732451Y1318477D01*
X2733330Y1317423D01*
Y1317335D01*
X2733506Y1317247D01*
X2733770Y1316720D01*
X2734209Y1316017D01*
X2734561Y1315138D01*
Y1315050D01*
X2734648Y1314962D01*
X2734736Y1314347D01*
X2734912Y1313556D01*
X2735000Y1312677D01*
Y1312062D01*
X2734912Y1311798D01*
Y1311447D01*
X2734561Y1310656D01*
X2734385Y1310216D01*
X2734033Y1309777D01*
X2733945Y1309689D01*
X2733857Y1309601D01*
X2733594Y1309425D01*
X2733242Y1309162D01*
X2732364Y1308810D01*
X2731836Y1308634D01*
X2731309D01*
X2731221D01*
X2731133D01*
X2730518D01*
X2729727Y1308722D01*
X2728848Y1308810D01*
X2728760D01*
X2728672D01*
X2728145Y1308986D01*
X2727442Y1309162D01*
X2726563Y1309425D01*
X2726475D01*
X2726212Y1309513D01*
X2725860Y1309689D01*
X2725333Y1309865D01*
X2724190Y1310304D01*
X2722784Y1310831D01*
X2722696D01*
X2722433Y1311007D01*
X2722081Y1311183D01*
X2721642Y1311359D01*
X2721115Y1311622D01*
X2720411Y1311974D01*
X2719005Y1312589D01*
Y1312501D01*
X2719093Y1312238D01*
X2719181Y1311886D01*
X2719269Y1311447D01*
X2719620Y1310392D01*
X2719884Y1309162D01*
Y1309074D01*
X2719972Y1308898D01*
X2720060Y1308546D01*
X2720148Y1308107D01*
X2720411Y1307052D01*
X2720675Y1305910D01*
X2720587Y1305822D01*
X2720499Y1305734D01*
X2720411D01*
X2720236Y1305646D01*
Y1305734D01*
X2720148Y1305822D01*
X2719884Y1306349D01*
X2719532Y1307052D01*
X2719181Y1307931D01*
Y1308019D01*
X2719093Y1308107D01*
X2718829Y1308722D01*
X2718478Y1309425D01*
X2718038Y1310216D01*
Y1310304D01*
X2717950Y1310392D01*
X2717599Y1310919D01*
X2717072Y1311535D01*
X2716544Y1312325D01*
Y1312413D01*
X2716369Y1312501D01*
X2716017Y1313029D01*
X2715490Y1313732D01*
X2714787Y1314435D01*
X2714611Y1314610D01*
X2714171Y1314962D01*
X2713556Y1315489D01*
X2712678Y1316105D01*
X2712590D01*
X2712502Y1316280D01*
X2711887Y1316632D01*
X2711096Y1317247D01*
X2710129Y1318038D01*
Y1317862D01*
X2710041Y1317335D01*
Y1315753D01*
X2709953Y1315401D01*
Y1314962D01*
X2709865Y1314347D01*
Y1314259D01*
X2709777Y1314171D01*
X2709602Y1313644D01*
Y1313556D01*
X2709514Y1313468D01*
X2709250Y1313029D01*
X2709162D01*
X2708987Y1313116D01*
X2708371Y1313468D01*
X2708283D01*
X2708108Y1313644D01*
X2707844Y1313732D01*
X2707756Y1313995D01*
X2707668Y1314171D01*
X2707580Y1314523D01*
X2707404Y1315050D01*
X2707229Y1315665D01*
Y1315841D01*
X2707141Y1316192D01*
Y1317511D01*
X2707053Y1317950D01*
X2706965Y1318565D01*
X2706789Y1319093D01*
X2706701Y1319180D01*
X2706438Y1319444D01*
X2705998Y1319796D01*
X2705383Y1320235D01*
X2705208Y1320323D01*
X2704856Y1320499D01*
X2704417Y1320762D01*
X2703801Y1321202D01*
X2703713Y1321290D01*
X2703362Y1321465D01*
X2702922Y1321817D01*
X2702395Y1322256D01*
X2702307Y1322344D01*
X2702219Y1322432D01*
X2701780Y1322959D01*
X2701692Y1323047D01*
X2701604Y1323223D01*
X2701429Y1323487D01*
X2701341Y1323838D01*
Y1323926D01*
X2701253Y1324014D01*
Y1324453D01*
X2701341Y1325069D01*
X2701429Y1325332D01*
X2701604Y1325596D01*
X2701692Y1325684D01*
X2702043Y1325948D01*
X2702659Y1326123D01*
X2703450D01*
X2703538D01*
X2703713Y1326035D01*
X2704241Y1325860D01*
X2704329D01*
X2704504Y1325772D01*
X2705032Y1325508D01*
X2705120D01*
X2705208Y1325420D01*
X2705735Y1325244D01*
X2705822D01*
X2705998Y1325157D01*
X2706262Y1324981D01*
X2706701Y1324805D01*
Y1324981D01*
X2706789Y1325420D01*
Y1326035D01*
X2706877Y1326651D01*
Y1326826D01*
X2706965Y1327178D01*
Y1327705D01*
X2707053Y1328320D01*
Y1328408D01*
X2707141Y1328672D01*
X2707229Y1329023D01*
X2707317Y1329463D01*
X2707404Y1329551D01*
X2707580Y1329727D01*
X2707844Y1329990D01*
X2708371Y1330078D01*
X2708547D01*
X2708811Y1329990D01*
D02*
G37*
G36*
X2660386Y1336582D02*
X2660475D01*
X2660562D01*
X2661177Y1336406D01*
X2661968Y1336230D01*
X2662847Y1335878D01*
X2662935D01*
X2663023Y1335791D01*
X2663550Y1335615D01*
X2664254Y1335263D01*
X2665044Y1334824D01*
X2665220Y1334736D01*
X2665747Y1334472D01*
X2666538Y1334033D01*
X2667593Y1333418D01*
X2668824Y1332715D01*
X2670142Y1332012D01*
X2671636Y1331133D01*
X2673130Y1330254D01*
X2673305Y1330166D01*
X2673833Y1329814D01*
X2674624Y1329375D01*
X2675591Y1328760D01*
X2676821Y1328057D01*
X2678139Y1327266D01*
X2679633Y1326475D01*
X2681127Y1325596D01*
X2681303Y1325508D01*
X2681654Y1325332D01*
X2682270Y1324981D01*
X2683061Y1324717D01*
X2683148D01*
X2683236Y1324629D01*
X2683676Y1324541D01*
X2684379Y1324366D01*
X2685170Y1324190D01*
X2685258D01*
X2685433D01*
X2685961Y1324102D01*
X2686664Y1324190D01*
X2686927Y1324366D01*
X2687191Y1324629D01*
X2687279Y1324805D01*
X2687367Y1325157D01*
X2687455Y1325860D01*
X2687367Y1326211D01*
X2687279Y1326738D01*
Y1326826D01*
X2687191Y1327002D01*
X2687103Y1327266D01*
X2686927Y1327529D01*
X2686576Y1328320D01*
X2685961Y1329111D01*
X2685873Y1329199D01*
X2685785Y1329287D01*
X2685345Y1329727D01*
X2684731Y1330430D01*
X2683940Y1331133D01*
X2683852Y1331221D01*
X2683500Y1331484D01*
X2683061Y1331836D01*
X2682621Y1332275D01*
X2682533Y1332363D01*
X2682270Y1332627D01*
X2681918Y1332978D01*
X2681566Y1333506D01*
Y1333593D01*
X2681479Y1333769D01*
X2681391Y1334033D01*
Y1334824D01*
X2681479Y1335175D01*
X2681654Y1335351D01*
X2681742Y1335439D01*
X2681830Y1335527D01*
X2682182Y1335615D01*
X2682621D01*
X2682709D01*
X2682973D01*
X2683324Y1335527D01*
X2683588Y1335351D01*
X2683676Y1335263D01*
X2683940Y1335000D01*
X2684379Y1334648D01*
X2684906Y1334209D01*
X2685521Y1333593D01*
X2686136Y1332978D01*
X2687543Y1331572D01*
X2687631Y1331484D01*
X2687894Y1331221D01*
X2688246Y1330781D01*
X2688685Y1330254D01*
X2689124Y1329551D01*
X2689652Y1328760D01*
X2690179Y1327881D01*
X2690706Y1326914D01*
X2690794Y1326826D01*
X2690882Y1326475D01*
X2691058Y1325948D01*
X2691146Y1325244D01*
X2691234Y1324453D01*
X2691146Y1323663D01*
X2690970Y1322784D01*
X2690531Y1321905D01*
X2690443Y1321817D01*
X2690267Y1321553D01*
X2689915Y1321202D01*
X2689476Y1320850D01*
X2688861Y1320411D01*
X2688158Y1319971D01*
X2687367Y1319620D01*
X2686488Y1319444D01*
X2686400D01*
X2686224D01*
X2685785Y1319356D01*
X2685697D01*
X2685521D01*
X2685170D01*
X2684818Y1319268D01*
X2684731D01*
X2684467Y1319356D01*
X2684027D01*
X2683500Y1319444D01*
X2682797Y1319620D01*
X2682094Y1319796D01*
X2680512Y1320147D01*
X2680424D01*
X2680161Y1320235D01*
X2679721Y1320411D01*
X2679194Y1320587D01*
X2678578Y1320850D01*
X2677875Y1321114D01*
X2676382Y1321729D01*
X2676294Y1321817D01*
X2676030Y1321905D01*
X2675591Y1322169D01*
X2675063Y1322520D01*
X2674448Y1322959D01*
X2673745Y1323399D01*
X2672251Y1324366D01*
X2672163Y1324453D01*
X2671899Y1324629D01*
X2671460Y1324893D01*
X2670933Y1325244D01*
X2670317Y1325684D01*
X2669614Y1326123D01*
X2668120Y1327178D01*
X2668033D01*
X2667945Y1327354D01*
X2667417Y1327705D01*
X2666714Y1328233D01*
X2666011Y1328848D01*
X2665923D01*
X2665835Y1329023D01*
X2665396Y1329375D01*
X2664693Y1329902D01*
X2663990Y1330517D01*
X2663902Y1330605D01*
X2663726Y1330693D01*
X2663287Y1331045D01*
X2663199D01*
X2663023Y1331133D01*
X2662496Y1331396D01*
X2662408D01*
X2662056Y1331484D01*
X2661705Y1331396D01*
X2661265Y1331221D01*
X2661177Y1331133D01*
X2661089Y1330957D01*
X2661002Y1330605D01*
X2661089Y1330078D01*
X2661177Y1329990D01*
X2661265Y1329639D01*
X2661529Y1329199D01*
X2661793Y1328760D01*
X2661880Y1328672D01*
X2662056Y1328320D01*
X2662320Y1327881D01*
X2662672Y1327442D01*
X2662759Y1327354D01*
X2662935Y1327090D01*
X2663287Y1326738D01*
X2663726Y1326299D01*
X2663814Y1326211D01*
X2663902Y1325948D01*
Y1325332D01*
X2663726Y1325069D01*
X2663638Y1324981D01*
X2663287Y1324717D01*
X2662847Y1324541D01*
X2662320D01*
X2662144D01*
X2661793Y1324717D01*
X2661353Y1324805D01*
X2660738Y1325069D01*
X2660650Y1325157D01*
X2660386Y1325332D01*
X2659947Y1325596D01*
X2659508Y1325948D01*
X2658893Y1326475D01*
X2658365Y1327178D01*
X2657838Y1327969D01*
X2657310Y1328936D01*
Y1329023D01*
X2657135Y1329287D01*
X2657047Y1329639D01*
X2656871Y1330078D01*
X2656607Y1331221D01*
X2656432Y1332451D01*
Y1332890D01*
X2656519Y1333418D01*
X2656695Y1333945D01*
Y1334033D01*
X2656783Y1334209D01*
X2656959Y1334824D01*
X2657398Y1335527D01*
X2658014Y1336142D01*
X2658189Y1336230D01*
X2658629Y1336494D01*
X2659420Y1336669D01*
X2659859D01*
X2660386Y1336582D01*
D02*
G37*
G36*
X2664693Y1311622D02*
X2664781Y1311535D01*
Y1311447D01*
X2664956Y1311359D01*
X2665308Y1310831D01*
X2665747Y1310128D01*
X2666363Y1309250D01*
Y1309162D01*
X2666451Y1309074D01*
X2666626Y1308810D01*
X2666714Y1308459D01*
X2667066Y1307580D01*
X2667417Y1306525D01*
X2667329D01*
X2667154D01*
X2666802Y1306437D01*
X2666363D01*
X2665396Y1306525D01*
X2664868Y1306701D01*
X2664341Y1306877D01*
X2664254D01*
X2664078Y1306965D01*
X2663550Y1307404D01*
X2662935Y1308019D01*
X2662672Y1308459D01*
X2662496Y1308986D01*
Y1309074D01*
X2662408Y1309425D01*
X2662496Y1309865D01*
X2662584Y1310480D01*
X2662672Y1310656D01*
X2662847Y1310919D01*
X2663111Y1311271D01*
X2663550Y1311622D01*
X2663638D01*
X2663726Y1311710D01*
X2664254D01*
X2664341D01*
X2664517D01*
X2664693Y1311622D01*
D02*
G37*
G36*
X2684291Y1311886D02*
X2684906Y1311447D01*
X2684994Y1311359D01*
X2685258Y1311183D01*
X2685609Y1310919D01*
X2686049Y1310568D01*
X2687103Y1309689D01*
X2688246Y1308546D01*
X2688334Y1308459D01*
X2688510Y1308283D01*
X2688773Y1307931D01*
X2689124Y1307492D01*
X2689564Y1306877D01*
X2690003Y1306261D01*
X2690882Y1304855D01*
Y1304767D01*
X2691058Y1304504D01*
X2691146Y1304152D01*
X2691322Y1303801D01*
Y1303713D01*
X2691410Y1303449D01*
X2691497Y1303098D01*
X2691585Y1302746D01*
Y1300988D01*
X2691410Y1300198D01*
X2691146Y1299407D01*
X2690794Y1298703D01*
X2690179Y1298000D01*
X2690091Y1297913D01*
X2689828Y1297737D01*
X2689476Y1297473D01*
X2688861Y1297209D01*
X2688158Y1297034D01*
X2687367Y1296858D01*
X2686400Y1296946D01*
X2685345Y1297122D01*
X2685258D01*
X2685170Y1297209D01*
X2684555Y1297385D01*
X2683764Y1297649D01*
X2682885Y1298088D01*
X2682797D01*
X2682709Y1298176D01*
X2682094Y1298440D01*
X2681303Y1298791D01*
X2680424Y1299231D01*
X2680336Y1299319D01*
X2679985Y1299407D01*
X2679457Y1299670D01*
X2678930Y1299934D01*
X2678754Y1300022D01*
X2678403Y1300198D01*
X2677875Y1300461D01*
X2677173Y1300725D01*
Y1299670D01*
X2677260Y1299143D01*
Y1298264D01*
X2677173Y1297825D01*
Y1297737D01*
X2676996Y1297473D01*
X2676645Y1296858D01*
X2676557Y1296770D01*
X2676382Y1296594D01*
X2675854Y1295979D01*
X2675766D01*
X2675591Y1295891D01*
X2675327Y1295803D01*
X2674975Y1295891D01*
X2674887D01*
X2674712Y1296067D01*
X2674536Y1296331D01*
X2674448Y1296770D01*
Y1297385D01*
X2674360Y1298000D01*
X2674272Y1298879D01*
X2674008Y1299934D01*
X2673745Y1300988D01*
X2673305Y1302131D01*
X2672778Y1303273D01*
X2672690Y1303449D01*
X2672515Y1303801D01*
X2672163Y1304328D01*
X2671724Y1305119D01*
X2671196Y1305998D01*
X2670669Y1307052D01*
X2669526Y1309250D01*
Y1309337D01*
X2669438Y1309425D01*
X2669351Y1309777D01*
X2669263Y1309953D01*
X2669087Y1310128D01*
X2668999Y1310480D01*
X2669087Y1310392D01*
X2669351Y1310304D01*
X2669790Y1310128D01*
X2670317Y1309865D01*
X2670933Y1309513D01*
X2671548Y1309162D01*
X2673042Y1308459D01*
X2673130D01*
X2673393Y1308283D01*
X2673745Y1308107D01*
X2674184Y1307843D01*
X2675415Y1307228D01*
X2676733Y1306525D01*
X2676821D01*
X2676996Y1306349D01*
X2677348Y1306261D01*
X2677700Y1305998D01*
X2678754Y1305471D01*
X2679897Y1304855D01*
X2679985D01*
X2680161Y1304680D01*
X2680512Y1304504D01*
X2680864Y1304328D01*
X2681918Y1303801D01*
X2683061Y1303186D01*
X2683148Y1303098D01*
X2683412Y1303010D01*
X2683852Y1302746D01*
X2684379Y1302570D01*
X2684467Y1302482D01*
X2684731Y1302395D01*
X2685170Y1302131D01*
X2685697Y1301955D01*
X2685785D01*
X2685873Y1301867D01*
X2686400Y1301692D01*
X2687015Y1301516D01*
X2687719D01*
X2687894D01*
X2688158Y1301604D01*
X2688597Y1301779D01*
X2688949Y1302131D01*
Y1302219D01*
X2689037Y1302307D01*
X2689213Y1302746D01*
X2689301Y1303273D01*
X2689213Y1303537D01*
X2689124Y1303801D01*
X2689037Y1303977D01*
X2688861Y1304240D01*
X2688597Y1304767D01*
X2688246Y1305207D01*
X2688158Y1305295D01*
X2688070Y1305383D01*
X2687631Y1305998D01*
X2686927Y1306701D01*
X2686224Y1307580D01*
X2686136Y1307668D01*
X2686049Y1307756D01*
X2685521Y1308283D01*
X2684818Y1309074D01*
X2684027Y1309953D01*
X2683940Y1310041D01*
X2683764Y1310216D01*
X2683324Y1310744D01*
X2683236Y1310831D01*
X2683148Y1311007D01*
X2682621Y1311622D01*
X2682797Y1311710D01*
X2683148Y1311886D01*
X2683588Y1311974D01*
X2684027D01*
X2684115D01*
X2684291Y1311886D01*
D02*
G37*
G36*
X2716544Y1301428D02*
X2717072Y1301252D01*
X2717599Y1301076D01*
X2718214Y1300725D01*
X2718302Y1300637D01*
X2718478Y1300549D01*
X2718741Y1300285D01*
X2719093Y1299934D01*
X2719884Y1299055D01*
X2720675Y1297825D01*
Y1297737D01*
X2720763Y1297385D01*
X2720851Y1297209D01*
X2720939Y1296946D01*
Y1296243D01*
X2720851Y1295628D01*
X2720587Y1295012D01*
X2720499Y1294924D01*
X2720148Y1294661D01*
X2719620Y1294573D01*
X2719269Y1294485D01*
X2718829Y1294573D01*
X2718654Y1294661D01*
X2718302Y1294749D01*
X2717863Y1295012D01*
X2717336Y1295364D01*
X2717248Y1295452D01*
X2716896Y1295715D01*
X2716457Y1295979D01*
X2715929Y1296331D01*
X2715841D01*
X2715666Y1296418D01*
X2715138Y1296770D01*
X2715050D01*
X2714875Y1296858D01*
X2714347Y1297209D01*
Y1297122D01*
X2714259Y1296858D01*
Y1296506D01*
X2714171Y1296155D01*
Y1296067D01*
X2714084Y1295891D01*
Y1295100D01*
X2714171Y1294924D01*
Y1294573D01*
X2714259Y1294221D01*
X2714611Y1293255D01*
X2715050Y1292200D01*
Y1292112D01*
X2715138Y1291936D01*
X2715314Y1291673D01*
X2715578Y1291321D01*
X2716105Y1290530D01*
X2716896Y1289651D01*
X2716984Y1289564D01*
X2717336Y1289300D01*
X2717863Y1288860D01*
X2718478Y1288245D01*
X2719269Y1287630D01*
X2720236Y1287015D01*
X2721202Y1286312D01*
X2722257Y1285697D01*
X2722345Y1285609D01*
X2722784Y1285433D01*
X2723311Y1285169D01*
X2724102Y1284906D01*
X2725069Y1284466D01*
X2726124Y1284115D01*
X2727354Y1283763D01*
X2728585Y1283500D01*
X2728672D01*
X2729024Y1283412D01*
X2729463D01*
X2729991Y1283500D01*
X2730078D01*
X2730430Y1283587D01*
X2730869Y1283675D01*
X2731397Y1283851D01*
X2731485Y1283939D01*
X2731748Y1284115D01*
X2732100Y1284378D01*
X2732451Y1284818D01*
X2732539Y1284906D01*
X2732627Y1285257D01*
X2732715Y1285697D01*
Y1286488D01*
X2732627Y1286839D01*
X2732451Y1287454D01*
X2732364Y1288070D01*
Y1288157D01*
X2732188Y1288509D01*
X2732100Y1288948D01*
X2731836Y1289476D01*
Y1289564D01*
X2731660Y1289739D01*
X2731485Y1290091D01*
X2731221Y1290530D01*
X2730606Y1291585D01*
X2729815Y1292815D01*
X2729727Y1292903D01*
X2729639Y1293079D01*
X2729376Y1293430D01*
X2729112Y1293870D01*
X2728409Y1294924D01*
X2727530Y1296155D01*
X2727706Y1296067D01*
X2728145Y1295891D01*
X2728848Y1295628D01*
X2729639Y1295100D01*
X2730606Y1294397D01*
X2731573Y1293518D01*
X2732539Y1292376D01*
X2733330Y1290970D01*
X2733418Y1290794D01*
X2733682Y1290267D01*
X2734033Y1289476D01*
X2734297Y1288509D01*
X2734648Y1287279D01*
X2734736Y1285872D01*
Y1284378D01*
X2734473Y1282796D01*
Y1282709D01*
X2734385Y1282445D01*
X2734209Y1282006D01*
X2733945Y1281478D01*
X2733682Y1280951D01*
X2733242Y1280336D01*
X2732803Y1279721D01*
X2732188Y1279193D01*
X2732100Y1279105D01*
X2731924Y1279017D01*
X2731573Y1278754D01*
X2731221Y1278578D01*
X2730606Y1278314D01*
X2729991Y1278139D01*
X2729288Y1277963D01*
X2728409D01*
X2728321D01*
X2728233D01*
X2727706Y1278051D01*
X2727003Y1278139D01*
X2726124Y1278227D01*
X2726036D01*
X2725948Y1278314D01*
X2725333Y1278402D01*
X2724542Y1278490D01*
X2723663Y1278666D01*
Y1278490D01*
X2723575Y1278139D01*
X2723487Y1277611D01*
X2723399Y1276996D01*
Y1276820D01*
X2723311Y1276469D01*
X2723224Y1275854D01*
X2723136Y1275063D01*
X2723048D01*
X2722960Y1275151D01*
X2722784Y1275238D01*
X2722696Y1275326D01*
X2722608Y1275414D01*
X2722520Y1275502D01*
Y1275590D01*
X2722433Y1275942D01*
X2722257Y1276381D01*
X2721993Y1276996D01*
X2721730Y1277699D01*
X2721378Y1278490D01*
X2720499Y1280072D01*
X2720411Y1280160D01*
X2720236Y1280424D01*
X2719884Y1280775D01*
X2719532Y1281302D01*
X2718478Y1282533D01*
X2717160Y1283939D01*
X2717072Y1284027D01*
X2716720Y1284378D01*
X2716281Y1284906D01*
X2715753Y1285521D01*
X2715138Y1286312D01*
X2714523Y1287191D01*
X2713205Y1289212D01*
X2713117Y1289388D01*
X2712941Y1289739D01*
X2712766Y1290354D01*
X2712414Y1291145D01*
X2712150Y1292112D01*
X2711974Y1293255D01*
X2711799Y1294485D01*
X2711711Y1295803D01*
Y1296682D01*
X2711799Y1297209D01*
X2712062Y1298440D01*
X2712238Y1299055D01*
X2712502Y1299582D01*
Y1299670D01*
X2712678Y1299846D01*
X2713117Y1300373D01*
X2713996Y1300988D01*
X2714523Y1301252D01*
X2715138Y1301428D01*
X2715226D01*
X2715402D01*
X2715666Y1301516D01*
X2716105D01*
X2716544Y1301428D01*
D02*
G37*
G36*
X2680512Y1290354D02*
X2680688Y1290267D01*
X2681215Y1289739D01*
X2681830Y1289036D01*
X2682445Y1288070D01*
Y1287982D01*
X2682533Y1287806D01*
X2682621Y1287542D01*
X2682709Y1287191D01*
X2682797Y1286312D01*
Y1285785D01*
X2682709Y1285169D01*
Y1284994D01*
X2682621Y1284642D01*
X2682709Y1284115D01*
X2682797Y1283587D01*
X2682885Y1283500D01*
X2682973Y1283236D01*
X2683236Y1282884D01*
X2683676Y1282445D01*
X2683764D01*
X2683852Y1282269D01*
X2684379Y1281830D01*
X2685082Y1281215D01*
X2685873Y1280511D01*
X2685961Y1280424D01*
X2686049Y1280336D01*
X2686576Y1279896D01*
X2687191Y1279193D01*
X2687806Y1278402D01*
X2687894Y1278314D01*
X2688158Y1278051D01*
X2688510Y1277523D01*
X2688949Y1276996D01*
X2689388Y1276205D01*
X2689828Y1275414D01*
X2690267Y1274447D01*
X2690619Y1273481D01*
Y1273393D01*
X2690706Y1273041D01*
X2690882Y1272514D01*
X2690970Y1271811D01*
X2691058Y1270932D01*
Y1269966D01*
X2690970Y1268911D01*
X2690794Y1267768D01*
Y1267681D01*
X2690706Y1267505D01*
X2690531Y1266889D01*
X2690179Y1266186D01*
X2689915Y1265923D01*
X2689652Y1265659D01*
X2689476Y1265571D01*
X2689037Y1265308D01*
X2688246Y1265044D01*
X2687191Y1264868D01*
X2687103D01*
X2687015D01*
X2686400Y1264780D01*
X2685609Y1264868D01*
X2684731Y1264956D01*
X2684643D01*
X2684555Y1265044D01*
X2683940Y1265220D01*
X2683236Y1265483D01*
X2682357Y1265835D01*
X2682270D01*
X2682094Y1265923D01*
X2681742Y1266099D01*
X2681391Y1266274D01*
X2680424Y1266802D01*
X2679282Y1267329D01*
X2679194D01*
X2679018Y1267417D01*
X2678754Y1267593D01*
X2678315Y1267768D01*
X2677348Y1268296D01*
X2676206Y1268823D01*
X2676118Y1268911D01*
X2675942Y1268999D01*
X2675415Y1269262D01*
X2675327Y1269350D01*
X2675151Y1269438D01*
X2674799Y1269614D01*
X2674360Y1269790D01*
Y1269262D01*
X2674448Y1268735D01*
Y1268120D01*
X2674536Y1267768D01*
Y1267329D01*
X2674624Y1266889D01*
X2674536D01*
X2674448D01*
X2674184D01*
X2674096D01*
X2674008D01*
X2673921Y1266977D01*
X2673745Y1267241D01*
X2673481Y1267593D01*
X2673217Y1268032D01*
X2672339Y1269262D01*
X2671460Y1270581D01*
X2671372Y1270668D01*
X2671196Y1270932D01*
X2670933Y1271284D01*
X2670669Y1271811D01*
X2669790Y1272953D01*
X2668911Y1274360D01*
Y1274447D01*
X2668824Y1274623D01*
X2668735Y1274887D01*
Y1275590D01*
X2668824Y1275854D01*
X2668999Y1276117D01*
Y1276205D01*
X2669175Y1276293D01*
X2669438Y1276381D01*
X2669790Y1276469D01*
X2669878D01*
X2670054D01*
X2670669D01*
X2670757D01*
X2671021Y1276293D01*
X2671548Y1276117D01*
X2672075Y1275854D01*
X2672778Y1275590D01*
X2673569Y1275238D01*
X2675239Y1274447D01*
X2675327Y1274360D01*
X2675591Y1274272D01*
X2676030Y1274096D01*
X2676645Y1273832D01*
X2677260Y1273481D01*
X2678051Y1273129D01*
X2679721Y1272338D01*
X2679809D01*
X2679985Y1272250D01*
X2680248Y1272075D01*
X2680688Y1271899D01*
X2681654Y1271460D01*
X2682797Y1271020D01*
X2682885D01*
X2683061Y1270932D01*
X2683324Y1270756D01*
X2683764Y1270668D01*
X2684643Y1270229D01*
X2685785Y1269790D01*
X2685873D01*
X2686049Y1269702D01*
X2686664Y1269614D01*
X2686752D01*
X2686927D01*
X2687367Y1269526D01*
X2687543D01*
X2687894D01*
X2688334Y1269702D01*
X2688685Y1270053D01*
X2688773Y1270141D01*
X2688861Y1270405D01*
X2688949Y1270844D01*
X2688861Y1271372D01*
X2688773Y1271460D01*
Y1271547D01*
X2688685Y1271635D01*
X2688597Y1271723D01*
X2688422Y1272075D01*
X2688070Y1272514D01*
X2687631Y1273041D01*
X2687191Y1273745D01*
X2686576Y1274535D01*
X2685345Y1276205D01*
X2685258Y1276293D01*
X2684994Y1276557D01*
X2684643Y1276996D01*
X2684203Y1277523D01*
X2683588Y1278139D01*
X2682885Y1278842D01*
X2681303Y1280160D01*
X2681215Y1280248D01*
X2680864Y1280424D01*
X2680424Y1280599D01*
X2679985Y1280687D01*
X2679897D01*
X2679545D01*
X2679018Y1280599D01*
X2678491Y1280511D01*
X2678403D01*
X2678051Y1280424D01*
X2677612Y1280336D01*
X2676996Y1280248D01*
X2676294D01*
X2675503D01*
X2674712D01*
X2673921Y1280424D01*
X2673833D01*
X2673569Y1280511D01*
X2673130Y1280687D01*
X2672603Y1280951D01*
X2671987Y1281302D01*
X2671372Y1281830D01*
X2670669Y1282445D01*
X2670054Y1283148D01*
X2669966Y1283236D01*
X2669702Y1283587D01*
X2669438Y1284027D01*
X2669175Y1284554D01*
X2669087Y1284730D01*
X2668999Y1285081D01*
Y1285609D01*
X2669175Y1286224D01*
Y1286312D01*
X2669263Y1286400D01*
X2669526Y1286751D01*
X2669966Y1287191D01*
X2670493Y1287542D01*
X2670669D01*
X2671021Y1287630D01*
X2671636Y1287718D01*
X2672339D01*
X2672515D01*
X2672954D01*
X2673569Y1287630D01*
X2674272Y1287542D01*
X2674448D01*
X2674887Y1287454D01*
X2675415Y1287279D01*
X2676118Y1287103D01*
X2676294D01*
X2676733Y1286927D01*
X2677260Y1286751D01*
X2677963Y1286488D01*
X2678139Y1286400D01*
X2678578Y1286312D01*
X2679194Y1286048D01*
X2679897Y1285785D01*
Y1285872D01*
X2680073Y1285960D01*
X2680336Y1286488D01*
X2680512Y1287191D01*
Y1287630D01*
X2680424Y1288070D01*
Y1288157D01*
X2680336Y1288245D01*
X2680248Y1288773D01*
Y1289564D01*
X2680424Y1290442D01*
X2680512Y1290354D01*
D02*
G37*
G36*
X2663638Y1258453D02*
X2663990Y1258277D01*
X2664078D01*
X2664166Y1258189D01*
X2664341Y1258101D01*
X2664429Y1257925D01*
Y1257838D01*
X2664517Y1257750D01*
X2664781Y1257310D01*
X2665132Y1256607D01*
X2665572Y1255904D01*
Y1255816D01*
X2665659Y1255728D01*
X2665923Y1255289D01*
X2666275Y1254674D01*
X2666626Y1253971D01*
Y1253268D01*
X2666538Y1253092D01*
X2666363Y1252916D01*
X2666187Y1252828D01*
X2666099D01*
X2665747Y1252740D01*
X2665132Y1252828D01*
X2664781Y1252916D01*
X2664341Y1253092D01*
X2664254D01*
X2664078Y1253180D01*
X2663550Y1253531D01*
X2662935Y1254059D01*
X2662320Y1254674D01*
X2662232Y1254762D01*
X2662056Y1255113D01*
X2661880Y1255640D01*
X2661793Y1256168D01*
Y1256343D01*
X2661880Y1256695D01*
X2662056Y1257134D01*
X2662496Y1257750D01*
Y1257838D01*
X2662584Y1257925D01*
X2662935Y1258189D01*
X2663111Y1258277D01*
X2663463Y1258540D01*
X2663638Y1258453D01*
D02*
G37*
G36*
X2683412Y1258716D02*
X2683940Y1258453D01*
X2684027Y1258365D01*
X2684291Y1258189D01*
X2684731Y1257925D01*
X2685170Y1257486D01*
X2686400Y1256431D01*
X2687719Y1255113D01*
X2687806Y1255025D01*
X2687982Y1254849D01*
X2688334Y1254498D01*
X2688685Y1253971D01*
X2689124Y1253355D01*
X2689564Y1252740D01*
X2690091Y1251949D01*
X2690531Y1251070D01*
Y1250983D01*
X2690619Y1250895D01*
X2690706Y1250631D01*
X2690794Y1250279D01*
X2690970Y1249489D01*
X2691058Y1248522D01*
Y1247995D01*
X2690970Y1247643D01*
X2690794Y1246852D01*
X2690531Y1245885D01*
Y1245797D01*
X2690443Y1245710D01*
X2690091Y1245182D01*
X2689564Y1244567D01*
X2688773Y1243952D01*
X2688685D01*
X2688510Y1243864D01*
X2688246Y1243776D01*
X2687894Y1243688D01*
X2687015Y1243600D01*
X2685873D01*
X2685785D01*
X2685697D01*
X2685170Y1243776D01*
X2684467Y1243952D01*
X2683676Y1244215D01*
X2683588D01*
X2683500Y1244303D01*
X2682973Y1244479D01*
X2682270Y1244743D01*
X2681479Y1245006D01*
X2681391D01*
X2681303Y1245094D01*
X2680775Y1245358D01*
X2680073Y1245710D01*
X2679194Y1246149D01*
X2679106D01*
X2679018Y1246237D01*
X2678491Y1246588D01*
X2677700Y1246940D01*
X2676733Y1247467D01*
Y1245358D01*
X2676645Y1245006D01*
Y1244919D01*
X2676557Y1244655D01*
X2676469Y1244303D01*
X2676294Y1243864D01*
X2676206Y1243776D01*
X2676118Y1243512D01*
X2675766Y1242897D01*
X2675678Y1242809D01*
X2675415Y1242634D01*
X2674975Y1242458D01*
X2674536Y1242546D01*
X2674448D01*
X2674184Y1242721D01*
X2673921Y1243073D01*
X2673833Y1243512D01*
Y1244040D01*
X2673745Y1244567D01*
X2673657Y1245358D01*
X2673569Y1246149D01*
X2673305Y1247116D01*
X2673042Y1247995D01*
X2672603Y1248961D01*
X2672515Y1249049D01*
X2672426Y1249401D01*
X2672163Y1249928D01*
X2671812Y1250543D01*
X2671460Y1251334D01*
X2671021Y1252125D01*
X2670054Y1253971D01*
X2669966Y1254059D01*
X2669790Y1254410D01*
X2669526Y1254849D01*
X2669263Y1255377D01*
X2669175Y1255465D01*
X2668999Y1255904D01*
X2668735Y1256431D01*
X2668384Y1257134D01*
X2668472Y1257047D01*
X2668735Y1256959D01*
X2669175Y1256783D01*
X2669702Y1256519D01*
X2670933Y1255816D01*
X2672339Y1255113D01*
X2672426D01*
X2672690Y1254937D01*
X2673042Y1254849D01*
X2673481Y1254586D01*
X2674712Y1254059D01*
X2676030Y1253355D01*
X2676118D01*
X2676294Y1253180D01*
X2676645Y1253092D01*
X2676996Y1252828D01*
X2678051Y1252301D01*
X2679194Y1251686D01*
X2679282D01*
X2679457Y1251510D01*
X2679809Y1251334D01*
X2680161Y1251158D01*
X2681215Y1250543D01*
X2682445Y1249928D01*
X2682533Y1249840D01*
X2682797Y1249752D01*
X2683236Y1249489D01*
X2683764Y1249313D01*
X2683852Y1249225D01*
X2684115Y1249137D01*
X2684555Y1248873D01*
X2685082Y1248698D01*
X2685170D01*
X2685258Y1248610D01*
X2685785Y1248434D01*
X2686488Y1248258D01*
X2687191Y1248170D01*
X2687279D01*
X2687631Y1248258D01*
X2688070Y1248434D01*
X2688422Y1248785D01*
Y1248873D01*
X2688510Y1248961D01*
X2688597Y1249401D01*
X2688685Y1249928D01*
X2688597Y1250279D01*
X2688510Y1250543D01*
X2688422Y1250631D01*
X2688246Y1250983D01*
X2687982Y1251422D01*
X2687631Y1251949D01*
Y1252037D01*
X2687455Y1252125D01*
X2687015Y1252652D01*
X2686400Y1253355D01*
X2685697Y1254234D01*
X2685609Y1254322D01*
X2685521Y1254410D01*
X2685082Y1254937D01*
X2684379Y1255640D01*
X2683676Y1256431D01*
X2683588Y1256519D01*
X2683412Y1256695D01*
X2682885Y1257310D01*
X2682797Y1257398D01*
X2682621Y1257574D01*
X2682094Y1258189D01*
X2682182Y1258277D01*
X2682445Y1258540D01*
X2682797Y1258716D01*
X2683148Y1258804D01*
X2683236D01*
X2683412Y1258716D01*
D02*
G37*
G36*
X2716896Y1271811D02*
X2717423Y1271723D01*
X2717511D01*
X2717599Y1271635D01*
X2718214Y1271284D01*
X2718917Y1270756D01*
X2719620Y1270053D01*
Y1269966D01*
X2719796Y1269878D01*
X2719972Y1269614D01*
X2720236Y1269262D01*
X2720763Y1268471D01*
X2721378Y1267505D01*
Y1267417D01*
X2721554Y1267241D01*
X2721642Y1266977D01*
X2721905Y1266626D01*
X2722345Y1265747D01*
X2722784Y1264780D01*
Y1264692D01*
X2722960Y1264429D01*
X2723048Y1264077D01*
X2723311Y1263550D01*
X2723487Y1262935D01*
X2723751Y1262232D01*
X2724190Y1260738D01*
Y1260650D01*
X2724278Y1260386D01*
X2724366Y1259947D01*
X2724454Y1259419D01*
X2724542Y1258804D01*
Y1256256D01*
X2724630Y1255816D01*
X2724718Y1255289D01*
X2724981Y1254674D01*
X2725069Y1254586D01*
X2725333Y1254410D01*
X2725860Y1254146D01*
X2726563Y1253971D01*
X2726739D01*
X2727090Y1253883D01*
X2727706Y1253795D01*
X2728409Y1253619D01*
X2728585D01*
X2728936Y1253531D01*
X2729551Y1253443D01*
X2730166D01*
X2730254D01*
X2730430D01*
X2730957Y1253531D01*
X2731573Y1253707D01*
X2731836Y1253883D01*
X2732012Y1254059D01*
X2732100Y1254146D01*
X2732364Y1254586D01*
X2732539Y1255201D01*
X2732715Y1256080D01*
Y1256607D01*
X2732627Y1256959D01*
X2732451Y1257838D01*
X2732188Y1258804D01*
Y1258892D01*
X2732100Y1259068D01*
X2732012Y1259332D01*
X2731924Y1259595D01*
X2731573Y1260474D01*
X2731133Y1261353D01*
X2731045Y1261529D01*
X2730869Y1261880D01*
X2730606Y1262495D01*
X2730254Y1263111D01*
Y1263198D01*
X2730166Y1263286D01*
X2729991Y1263726D01*
X2729727Y1264341D01*
X2729376Y1264956D01*
X2729463D01*
X2729639Y1265044D01*
X2729727Y1265132D01*
X2729991Y1265220D01*
X2730078Y1265132D01*
X2730342Y1264868D01*
X2730694Y1264429D01*
X2731221Y1263814D01*
X2731836Y1263111D01*
X2732364Y1262232D01*
X2733594Y1260386D01*
X2733682Y1260298D01*
X2733770Y1259947D01*
X2734033Y1259332D01*
X2734297Y1258628D01*
X2734473Y1257750D01*
X2734736Y1256695D01*
X2734824Y1255553D01*
Y1254234D01*
X2734736Y1253883D01*
X2734648Y1253707D01*
Y1253180D01*
X2734561Y1252828D01*
X2734473Y1252301D01*
X2734297Y1251598D01*
X2733945Y1250895D01*
X2733594Y1250104D01*
X2732979Y1249489D01*
X2732276Y1248873D01*
X2732188Y1248785D01*
X2731924Y1248698D01*
X2731485Y1248434D01*
X2730869Y1248258D01*
X2730166Y1248082D01*
X2729376Y1247907D01*
X2728409Y1247819D01*
X2727442Y1247907D01*
X2727266D01*
X2726915Y1247995D01*
X2726475Y1248170D01*
X2725860Y1248346D01*
X2725684Y1248434D01*
X2725333Y1248522D01*
X2724893D01*
X2724366Y1248434D01*
X2724278Y1248346D01*
X2724015Y1248170D01*
X2723751Y1247907D01*
X2723487Y1247379D01*
X2723399Y1247204D01*
X2723224Y1246852D01*
X2722960Y1246413D01*
X2722696Y1245885D01*
X2722608Y1245797D01*
X2722433Y1245446D01*
X2722081Y1245006D01*
X2721642Y1244479D01*
X2721554Y1244391D01*
X2721202Y1244128D01*
X2720763Y1243776D01*
X2720060Y1243512D01*
Y1243600D01*
X2720148Y1243688D01*
X2720323Y1244128D01*
X2720499Y1244743D01*
X2720763Y1245358D01*
X2720851Y1245534D01*
X2721027Y1245885D01*
X2721290Y1246413D01*
X2721554Y1247028D01*
Y1247116D01*
X2721642Y1247291D01*
X2721730Y1247555D01*
X2721817Y1247907D01*
X2721993Y1248698D01*
Y1249401D01*
X2721905Y1249489D01*
X2721730Y1249928D01*
X2721290Y1250455D01*
X2720939Y1250807D01*
X2720499Y1251158D01*
X2720323Y1251246D01*
X2719972Y1251598D01*
X2719357Y1252037D01*
X2718566Y1252740D01*
X2717775Y1253531D01*
X2716896Y1254410D01*
X2715929Y1255465D01*
X2715138Y1256519D01*
X2715050Y1256695D01*
X2714787Y1257047D01*
X2714435Y1257662D01*
X2713996Y1258540D01*
X2713469Y1259595D01*
X2712941Y1260826D01*
X2712502Y1262144D01*
X2712150Y1263550D01*
Y1263726D01*
X2712062Y1264165D01*
X2711974Y1264780D01*
X2711887Y1265483D01*
Y1267681D01*
X2711974Y1267944D01*
Y1268208D01*
X2712150Y1269087D01*
X2712502Y1269966D01*
Y1270053D01*
X2712590Y1270141D01*
X2713029Y1270581D01*
X2713644Y1271196D01*
X2714611Y1271635D01*
X2714699D01*
X2714875Y1271723D01*
X2715138Y1271811D01*
X2715490D01*
X2716457Y1271899D01*
X2716896Y1271811D01*
D02*
G37*
G36*
X2662056Y1243249D02*
X2662144D01*
X2662408Y1243161D01*
X2662935Y1242985D01*
X2663550Y1242721D01*
X2664254Y1242370D01*
X2665044Y1241843D01*
X2665923Y1241227D01*
X2666890Y1240436D01*
X2666978Y1240349D01*
X2667242Y1239997D01*
X2667681Y1239558D01*
X2668120Y1238855D01*
X2668647Y1237976D01*
X2668999Y1237009D01*
X2669263Y1235866D01*
X2669351Y1234636D01*
Y1234460D01*
X2669263Y1233845D01*
X2669087Y1233142D01*
X2668735Y1232439D01*
X2668647Y1232263D01*
X2668296Y1231912D01*
X2667769Y1231472D01*
X2667066Y1230945D01*
X2666978Y1230857D01*
X2666626D01*
X2666187Y1230769D01*
X2665659Y1230945D01*
X2665572Y1231033D01*
X2665308Y1231209D01*
X2664956Y1231560D01*
X2664781Y1232000D01*
Y1232087D01*
X2664693Y1232351D01*
Y1233318D01*
X2664781Y1233581D01*
X2665132Y1233757D01*
X2665308Y1233845D01*
X2665659Y1233933D01*
X2665835D01*
X2666187Y1234021D01*
X2666538Y1234197D01*
X2666714Y1234548D01*
Y1235779D01*
X2666626Y1235954D01*
X2666538Y1236218D01*
X2666363Y1236570D01*
X2666187Y1237009D01*
X2665835Y1237448D01*
X2665396Y1237888D01*
X2664868Y1238327D01*
X2664781Y1238415D01*
X2664605Y1238503D01*
X2664341Y1238679D01*
X2663902Y1238942D01*
X2662935Y1239294D01*
X2662408Y1239382D01*
X2661880D01*
X2661793D01*
X2661705D01*
X2661353Y1239294D01*
X2660914Y1239118D01*
X2660475Y1238767D01*
X2660386Y1238679D01*
X2660211Y1238415D01*
X2660123Y1237976D01*
X2660035Y1237448D01*
Y1236921D01*
X2660123Y1236482D01*
X2660211Y1235866D01*
Y1235779D01*
X2660298Y1235427D01*
X2660386Y1234900D01*
X2660562Y1234372D01*
Y1234285D01*
X2660738Y1233933D01*
X2660914Y1233494D01*
X2661265Y1232878D01*
X2661617Y1232087D01*
X2662056Y1231296D01*
X2663111Y1229715D01*
X2663199Y1229627D01*
X2663375Y1229363D01*
X2663726Y1228924D01*
X2664166Y1228396D01*
X2664693Y1227781D01*
X2665308Y1227166D01*
X2666714Y1225760D01*
X2666802Y1225672D01*
X2667154Y1225408D01*
X2667593Y1224969D01*
X2668208Y1224354D01*
X2668999Y1223738D01*
X2669878Y1223035D01*
X2671812Y1221629D01*
X2671899Y1221541D01*
X2672251Y1221366D01*
X2672866Y1221014D01*
X2673569Y1220575D01*
X2674360Y1220047D01*
X2675327Y1219520D01*
X2677436Y1218378D01*
X2677524D01*
X2677700Y1218290D01*
X2677963Y1218114D01*
X2678403Y1217938D01*
X2679370Y1217587D01*
X2680512Y1217235D01*
X2680600D01*
X2680775Y1217147D01*
X2681127D01*
X2681479Y1217059D01*
X2682621Y1216971D01*
X2683852D01*
X2683940D01*
X2684115D01*
X2684467Y1217059D01*
X2684906Y1217147D01*
X2685873Y1217499D01*
X2686927Y1218026D01*
X2687015Y1218114D01*
X2687103Y1218202D01*
X2687543Y1218729D01*
X2688070Y1219520D01*
X2688597Y1220663D01*
Y1220750D01*
X2688685Y1221102D01*
X2688773Y1221541D01*
X2688861Y1222244D01*
Y1222947D01*
X2688773Y1223826D01*
X2688597Y1224793D01*
X2688246Y1225848D01*
X2688158Y1225936D01*
X2688070Y1226287D01*
X2687806Y1226814D01*
X2687455Y1227430D01*
X2687015Y1228133D01*
X2686400Y1228836D01*
X2685785Y1229451D01*
X2684994Y1229978D01*
X2684906D01*
X2684731Y1230066D01*
X2684203Y1230330D01*
X2684115D01*
X2683940Y1230418D01*
X2683412Y1230506D01*
X2683324D01*
X2683236D01*
X2682973D01*
X2682709Y1230418D01*
X2682621D01*
X2682533Y1230330D01*
X2682357Y1230154D01*
X2682270Y1229978D01*
X2682182Y1229802D01*
Y1229627D01*
X2682270Y1229363D01*
Y1229275D01*
X2682357Y1229099D01*
X2682445Y1228924D01*
X2682621Y1228748D01*
X2682709D01*
X2682797Y1228572D01*
X2683324Y1228396D01*
X2683412D01*
X2683588Y1228308D01*
X2684115Y1228045D01*
X2684291Y1227957D01*
X2684643Y1227781D01*
X2685082Y1227430D01*
X2685433Y1226990D01*
X2685521Y1226902D01*
X2685609Y1226551D01*
Y1226023D01*
X2685521Y1225320D01*
Y1225145D01*
X2685345Y1224793D01*
X2685082Y1224354D01*
X2684643Y1224002D01*
X2684555Y1223914D01*
X2684203Y1223826D01*
X2683676Y1223738D01*
X2682885D01*
X2682797D01*
X2682621Y1223826D01*
X2682357D01*
X2682006Y1223914D01*
X2681215Y1224266D01*
X2680512Y1224881D01*
Y1224969D01*
X2680336Y1225057D01*
X2680073Y1225584D01*
X2679633Y1226287D01*
X2679194Y1227254D01*
Y1227342D01*
X2679106Y1227517D01*
X2679018Y1227781D01*
Y1228133D01*
X2678842Y1229012D01*
Y1230242D01*
X2679106Y1230769D01*
X2679457Y1231560D01*
X2679809Y1231912D01*
X2680161Y1232351D01*
Y1232439D01*
X2680336Y1232527D01*
X2680775Y1232966D01*
X2681479Y1233318D01*
X2681918Y1233494D01*
X2682357Y1233581D01*
X2682445D01*
X2682533D01*
X2682797D01*
X2683148D01*
X2683940D01*
X2684906Y1233318D01*
X2684994D01*
X2685345Y1233142D01*
X2685785Y1232966D01*
X2686312Y1232615D01*
X2686927Y1232263D01*
X2687455Y1231824D01*
X2688070Y1231209D01*
X2688597Y1230593D01*
X2688685Y1230506D01*
X2688773Y1230242D01*
X2689037Y1229802D01*
X2689301Y1229275D01*
X2689652Y1228660D01*
X2690003Y1227957D01*
X2690619Y1226287D01*
X2690706Y1226111D01*
X2690794Y1225672D01*
X2690970Y1224969D01*
X2691058Y1224178D01*
Y1224002D01*
X2691146Y1223475D01*
X2691234Y1222772D01*
X2691322Y1221981D01*
Y1221278D01*
X2691234Y1220838D01*
X2691146Y1220311D01*
X2691058Y1219608D01*
X2690706Y1218114D01*
X2690179Y1216532D01*
X2689388Y1214862D01*
X2688334Y1213368D01*
X2687719Y1212753D01*
X2686927Y1212138D01*
X2686840D01*
X2686752Y1212050D01*
X2686488Y1211874D01*
X2686136Y1211786D01*
X2685697Y1211610D01*
X2685258Y1211435D01*
X2683940Y1211171D01*
X2682357Y1211083D01*
X2680512Y1211171D01*
X2679545Y1211347D01*
X2678403Y1211523D01*
X2677348Y1211962D01*
X2676118Y1212401D01*
X2676030D01*
X2675766Y1212577D01*
X2675415Y1212753D01*
X2674975Y1213017D01*
X2674360Y1213368D01*
X2673657Y1213720D01*
X2671987Y1214774D01*
X2670142Y1216093D01*
X2668296Y1217587D01*
X2666363Y1219344D01*
X2664605Y1221366D01*
X2664517Y1221453D01*
X2664429Y1221629D01*
X2664166Y1221981D01*
X2663902Y1222420D01*
X2663463Y1222947D01*
X2663111Y1223563D01*
X2662584Y1224354D01*
X2662056Y1225145D01*
X2661002Y1227078D01*
X2659947Y1229363D01*
X2658893Y1231824D01*
X2658014Y1234548D01*
Y1234636D01*
X2657926Y1234812D01*
Y1235076D01*
X2657838Y1235427D01*
X2657750Y1236394D01*
X2657838Y1237536D01*
Y1237800D01*
X2657926Y1238151D01*
Y1238503D01*
X2658014Y1239470D01*
X2658189Y1240612D01*
Y1240700D01*
X2658277Y1240876D01*
X2658453Y1241491D01*
X2658893Y1242194D01*
X2659596Y1242809D01*
X2659684D01*
X2659771Y1242897D01*
X2660298Y1243161D01*
X2661089Y1243337D01*
X2661529D01*
X2662056Y1243249D01*
D02*
G37*
G36*
X2703362Y1240612D02*
X2704241Y1240349D01*
X2704329D01*
X2704417Y1240261D01*
X2704856Y1240085D01*
X2705559Y1239821D01*
X2706262Y1239470D01*
X2706438Y1239382D01*
X2706877Y1239118D01*
X2707492Y1238767D01*
X2708195Y1238415D01*
X2708283D01*
X2708371Y1238327D01*
X2708899Y1237976D01*
X2709689Y1237536D01*
X2710744Y1236921D01*
X2712062Y1236218D01*
X2713381Y1235339D01*
X2714875Y1234460D01*
X2716457Y1233581D01*
X2716544D01*
X2716632Y1233494D01*
X2717160Y1233142D01*
X2718038Y1232703D01*
X2719093Y1232087D01*
X2720323Y1231384D01*
X2721730Y1230593D01*
X2723224Y1229802D01*
X2724806Y1228924D01*
X2724981Y1228836D01*
X2725421Y1228660D01*
X2726036Y1228308D01*
X2726827Y1228045D01*
X2726915D01*
X2727003D01*
X2727530Y1227869D01*
X2728233Y1227781D01*
X2729024Y1227605D01*
X2729112D01*
X2729200D01*
X2729727D01*
X2730254Y1227781D01*
X2730782Y1228133D01*
X2730869Y1228221D01*
X2730957Y1228572D01*
Y1229187D01*
X2730869Y1230066D01*
Y1230154D01*
X2730782Y1230330D01*
X2730694Y1230593D01*
X2730606Y1230945D01*
X2730166Y1231736D01*
X2729551Y1232527D01*
X2729463Y1232615D01*
X2729376Y1232703D01*
X2728936Y1233230D01*
X2728233Y1233845D01*
X2727442Y1234636D01*
X2727354Y1234724D01*
X2727090Y1234900D01*
X2726739Y1235251D01*
X2726299Y1235691D01*
X2726212Y1235779D01*
X2725948Y1236042D01*
X2725597Y1236394D01*
X2725157Y1236745D01*
X2725069Y1236833D01*
X2724893Y1237185D01*
X2724630Y1237536D01*
X2724454Y1238064D01*
Y1238503D01*
X2724542Y1238942D01*
X2724893Y1239382D01*
X2724981Y1239470D01*
X2725245Y1239645D01*
X2725684Y1239821D01*
X2726124D01*
X2726212Y1239733D01*
X2726475Y1239645D01*
X2726827Y1239382D01*
X2727266Y1239118D01*
X2727354Y1239030D01*
X2727618Y1238855D01*
X2727969Y1238503D01*
X2728409Y1238064D01*
X2729551Y1236921D01*
X2730869Y1235603D01*
X2730957Y1235515D01*
X2731133Y1235339D01*
X2731397Y1234900D01*
X2731836Y1234460D01*
X2732276Y1233933D01*
X2732715Y1233230D01*
X2733682Y1231736D01*
X2733770Y1231560D01*
X2734033Y1231033D01*
X2734297Y1230330D01*
X2734561Y1229363D01*
X2734736Y1228308D01*
Y1227254D01*
X2734473Y1226111D01*
X2734297Y1225584D01*
X2733945Y1225057D01*
X2733857Y1224969D01*
X2733594Y1224617D01*
X2733067Y1224266D01*
X2732451Y1223738D01*
X2731660Y1223299D01*
X2730606Y1222860D01*
X2729463Y1222596D01*
X2728145Y1222420D01*
X2728057D01*
X2727794Y1222508D01*
X2727354Y1222596D01*
X2726739Y1222684D01*
X2726124Y1222772D01*
X2725333Y1222947D01*
X2723751Y1223387D01*
X2723663D01*
X2723399Y1223475D01*
X2722960Y1223651D01*
X2722345Y1223826D01*
X2721730Y1224090D01*
X2720939Y1224354D01*
X2719445Y1225145D01*
X2719357Y1225232D01*
X2719093Y1225408D01*
X2718566Y1225672D01*
X2718038Y1226023D01*
X2717336Y1226375D01*
X2716632Y1226902D01*
X2715050Y1227957D01*
X2714962Y1228045D01*
X2714699Y1228221D01*
X2714259Y1228484D01*
X2713644Y1228924D01*
X2713029Y1229363D01*
X2712238Y1229890D01*
X2710656Y1230945D01*
X2710568D01*
X2710480Y1231033D01*
X2710041Y1231384D01*
X2709338Y1231912D01*
X2708635Y1232439D01*
X2708547D01*
X2708459Y1232615D01*
X2707932Y1232966D01*
X2707317Y1233494D01*
X2706526Y1234109D01*
X2706438Y1234197D01*
X2706262Y1234285D01*
X2705735Y1234636D01*
X2705647Y1234724D01*
X2705471Y1234812D01*
X2704856Y1235076D01*
X2704680D01*
X2704417D01*
X2703977D01*
X2703625Y1234812D01*
X2703538Y1234724D01*
X2703450Y1234548D01*
X2703362Y1234197D01*
X2703450Y1233669D01*
Y1233581D01*
X2703538Y1233406D01*
X2703801Y1232791D01*
Y1232703D01*
X2703889Y1232527D01*
X2704241Y1232000D01*
Y1231912D01*
X2704417Y1231824D01*
X2704856Y1231384D01*
X2704944D01*
X2705032Y1231209D01*
X2705383Y1230769D01*
X2705471Y1230681D01*
X2705559Y1230506D01*
X2705822Y1230154D01*
X2705998Y1229715D01*
X2706086Y1229627D01*
X2706174Y1229363D01*
X2706262Y1229012D01*
Y1228748D01*
X2706174Y1228660D01*
X2705998Y1228396D01*
X2705647Y1228133D01*
X2705208Y1228045D01*
X2705120D01*
X2704768D01*
X2704329Y1228133D01*
X2703889Y1228308D01*
X2703801Y1228396D01*
X2703450Y1228484D01*
X2703010Y1228748D01*
X2702571Y1229012D01*
X2702483Y1229099D01*
X2702219Y1229275D01*
X2701868Y1229539D01*
X2701429Y1229890D01*
X2701341Y1229978D01*
X2701165Y1230154D01*
X2700989Y1230418D01*
X2700638Y1230769D01*
X2700022Y1231648D01*
X2699407Y1232703D01*
Y1232791D01*
X2699319Y1232966D01*
X2699231Y1233318D01*
X2699055Y1233757D01*
X2698880Y1234900D01*
X2698704Y1236130D01*
Y1236570D01*
X2698792Y1237097D01*
X2698880Y1237624D01*
X2699055Y1238239D01*
X2699319Y1238942D01*
X2699671Y1239470D01*
X2700198Y1239997D01*
X2700286Y1240085D01*
X2700462Y1240173D01*
X2700813Y1240349D01*
X2701253Y1240524D01*
X2701868Y1240612D01*
X2702571Y1240700D01*
X2703362Y1240612D01*
D02*
G37*
G36*
X2704241Y1221366D02*
X2705208Y1221190D01*
X2706262Y1220750D01*
X2706350D01*
X2706438Y1220663D01*
X2706877Y1220399D01*
X2707580Y1219872D01*
X2708283Y1219256D01*
X2708459Y1219081D01*
X2708811Y1218641D01*
X2709338Y1218026D01*
X2709777Y1217323D01*
X2709865Y1217235D01*
X2709953Y1217059D01*
X2710129Y1216708D01*
X2710392Y1216356D01*
X2711008Y1215214D01*
X2711623Y1213983D01*
Y1213895D01*
X2711799Y1213720D01*
X2711887Y1213368D01*
X2712150Y1212929D01*
X2712678Y1211786D01*
X2713293Y1210556D01*
Y1210468D01*
X2713381Y1210204D01*
X2713732Y1209589D01*
Y1209501D01*
X2713908Y1209238D01*
X2714084Y1208798D01*
X2714347Y1208271D01*
X2714435Y1208447D01*
X2714611Y1208710D01*
X2714787Y1209150D01*
X2715050Y1209589D01*
Y1209677D01*
X2715226Y1209853D01*
X2715578Y1210468D01*
Y1210556D01*
X2715753Y1210644D01*
X2716105Y1210995D01*
X2716720Y1211435D01*
X2716984Y1211523D01*
X2717336D01*
X2717511D01*
X2717863Y1211259D01*
X2718302Y1210819D01*
X2718566Y1210556D01*
X2718741Y1210117D01*
Y1210029D01*
X2718829Y1209853D01*
X2718917Y1209589D01*
X2719005Y1209325D01*
X2719181Y1208447D01*
Y1206865D01*
X2719093Y1206513D01*
X2718917Y1205634D01*
X2718478Y1204668D01*
Y1204580D01*
X2718302Y1204404D01*
X2718214Y1204053D01*
X2718126Y1203613D01*
X2717950Y1202558D01*
Y1202031D01*
X2718038Y1201504D01*
Y1201416D01*
X2718126Y1201240D01*
X2718214Y1200976D01*
X2718390Y1200713D01*
X2718829Y1199834D01*
X2719532Y1198867D01*
X2719620Y1198779D01*
X2719708Y1198604D01*
X2719972Y1198340D01*
X2720323Y1198076D01*
X2721290Y1197197D01*
X2722433Y1196406D01*
X2722520D01*
X2722696Y1196231D01*
X2723048Y1196055D01*
X2723487Y1195879D01*
X2724015Y1195704D01*
X2724630Y1195440D01*
X2726124Y1195176D01*
X2726212D01*
X2726563D01*
X2727003D01*
X2727618Y1195264D01*
X2728321Y1195352D01*
X2729024Y1195616D01*
X2729727Y1195967D01*
X2730430Y1196406D01*
X2730518Y1196494D01*
X2730694Y1196670D01*
X2730957Y1197022D01*
X2731309Y1197461D01*
X2731573Y1197989D01*
X2731836Y1198691D01*
X2732100Y1199482D01*
X2732188Y1200361D01*
Y1202295D01*
X2732012Y1203437D01*
Y1203525D01*
X2731924Y1203701D01*
Y1203965D01*
X2731836Y1204316D01*
X2731485Y1205283D01*
X2730957Y1206250D01*
X2730869Y1206337D01*
X2730606Y1206601D01*
X2730254Y1206953D01*
X2729815Y1207304D01*
X2729727Y1207392D01*
X2729376Y1207568D01*
X2729024Y1207831D01*
X2728497Y1208007D01*
X2728409D01*
X2728233Y1208095D01*
X2727881D01*
X2727442D01*
X2727354D01*
X2727090Y1208007D01*
X2726827Y1207831D01*
X2726563Y1207568D01*
Y1207480D01*
X2726475Y1207304D01*
Y1206601D01*
X2726563Y1206337D01*
X2726651Y1205986D01*
X2726739Y1205546D01*
Y1205459D01*
X2726827Y1205371D01*
X2727266Y1204931D01*
X2727354D01*
X2727530Y1204755D01*
X2727969Y1204404D01*
X2728145Y1204228D01*
X2728409Y1203789D01*
X2728760Y1203174D01*
X2728936Y1202383D01*
Y1202207D01*
X2728848Y1201768D01*
X2728672Y1201240D01*
X2728321Y1200625D01*
X2728233Y1200537D01*
X2727794Y1200273D01*
X2727266Y1200010D01*
X2726915D01*
X2726563D01*
X2726475D01*
X2726387D01*
X2725860Y1200186D01*
X2725245Y1200537D01*
X2724806Y1200801D01*
X2724454Y1201152D01*
X2724366Y1201240D01*
X2724190Y1201416D01*
X2723927Y1201855D01*
X2723575Y1202295D01*
X2723224Y1202910D01*
X2722960Y1203613D01*
X2722696Y1204404D01*
X2722520Y1205283D01*
Y1206162D01*
X2722608Y1206777D01*
X2722696Y1207480D01*
X2722960Y1208183D01*
X2723224Y1208974D01*
X2723663Y1209765D01*
X2723751Y1209853D01*
X2723927Y1210117D01*
X2724278Y1210468D01*
X2724718Y1210819D01*
X2725245Y1211259D01*
X2725948Y1211698D01*
X2726739Y1211962D01*
X2727618Y1212138D01*
X2727706D01*
X2727969D01*
X2728497Y1212050D01*
X2729024Y1211962D01*
X2729639Y1211786D01*
X2730342Y1211435D01*
X2731045Y1210907D01*
X2731748Y1210204D01*
X2731836Y1210117D01*
X2732012Y1209853D01*
X2732364Y1209413D01*
X2732715Y1208798D01*
X2733155Y1208095D01*
X2733594Y1207216D01*
X2733945Y1206337D01*
X2734297Y1205371D01*
Y1205283D01*
X2734385Y1204931D01*
X2734473Y1204404D01*
X2734648Y1203701D01*
X2734736Y1202822D01*
Y1201855D01*
X2734824Y1200889D01*
X2734736Y1199746D01*
Y1199570D01*
X2734648Y1199131D01*
X2734561Y1198516D01*
X2734385Y1197725D01*
Y1197549D01*
X2734209Y1197022D01*
X2734121Y1196319D01*
X2733857Y1195528D01*
Y1195440D01*
X2733770Y1195352D01*
X2733682Y1195088D01*
X2733594Y1194737D01*
X2733155Y1193858D01*
X2732627Y1192803D01*
X2731836Y1191749D01*
X2730869Y1190694D01*
X2729639Y1189727D01*
X2729024Y1189376D01*
X2728233Y1189112D01*
X2728145D01*
X2728057D01*
X2727794Y1189024D01*
X2727442Y1188936D01*
X2726651D01*
X2725509D01*
X2724278Y1189112D01*
X2722872Y1189552D01*
X2722081Y1189903D01*
X2721378Y1190255D01*
X2720587Y1190782D01*
X2719884Y1191397D01*
X2719796Y1191485D01*
X2719620Y1191661D01*
X2719357Y1191837D01*
X2719005Y1192188D01*
X2718214Y1193067D01*
X2717423Y1194209D01*
X2717336Y1194297D01*
X2717248Y1194473D01*
X2717072Y1194825D01*
X2716808Y1195264D01*
X2716193Y1196319D01*
X2715666Y1197549D01*
Y1197637D01*
X2715578Y1197725D01*
X2715402Y1198076D01*
X2715138Y1198516D01*
X2714875Y1198867D01*
X2714787Y1198955D01*
X2714435Y1199043D01*
X2713908D01*
X2713205Y1198867D01*
X2713117D01*
X2712766Y1198779D01*
X2712326D01*
X2711799D01*
X2711623D01*
X2711359D01*
X2710832Y1198867D01*
X2710392Y1198955D01*
X2710305D01*
X2710217Y1199043D01*
X2709602Y1199395D01*
X2708811Y1199746D01*
X2707932Y1200273D01*
X2707844D01*
X2707668Y1200361D01*
X2707141Y1200713D01*
X2706438Y1201240D01*
X2705735Y1201855D01*
X2705647Y1202031D01*
X2705295Y1202383D01*
X2704768Y1202998D01*
X2704065Y1203789D01*
X2703362Y1204755D01*
X2702571Y1205810D01*
X2701780Y1207040D01*
X2701077Y1208271D01*
X2700989Y1208447D01*
X2700813Y1208886D01*
X2700462Y1209589D01*
X2700110Y1210556D01*
X2699759Y1211610D01*
X2699407Y1212929D01*
X2699143Y1214423D01*
X2698968Y1215917D01*
X2698880Y1216005D01*
Y1216796D01*
X2698968Y1217235D01*
X2699055Y1217850D01*
X2699319Y1218553D01*
X2699583Y1219344D01*
X2700022Y1220047D01*
X2700550Y1220750D01*
X2701253Y1221190D01*
X2701341D01*
X2701604Y1221278D01*
X2702043Y1221366D01*
X2702659Y1221453D01*
X2703362D01*
X2704241Y1221366D01*
D02*
G37*
G36*
X2676294Y1195967D02*
X2677700Y1195704D01*
X2679106Y1195264D01*
X2680600Y1194561D01*
X2680775Y1194473D01*
X2681215Y1194122D01*
X2681830Y1193506D01*
X2682621Y1192715D01*
X2683412Y1191749D01*
X2684115Y1190518D01*
X2684818Y1189112D01*
X2685258Y1187442D01*
Y1187267D01*
X2685345Y1187003D01*
Y1186739D01*
X2685433Y1185861D01*
X2685521Y1184806D01*
Y1183488D01*
X2685433Y1182169D01*
X2685258Y1180675D01*
X2684906Y1179269D01*
X2684818Y1179093D01*
X2684643Y1178654D01*
X2684291Y1177951D01*
X2683852Y1176984D01*
X2683236Y1175930D01*
X2682445Y1174787D01*
X2681391Y1173645D01*
X2680248Y1172502D01*
X2680161D01*
X2680073Y1172326D01*
X2679457Y1171887D01*
X2678666Y1171448D01*
X2677700Y1171008D01*
X2677612D01*
X2677436Y1170920D01*
X2677173Y1170832D01*
X2676821Y1170744D01*
X2675942Y1170657D01*
X2674887D01*
X2674799D01*
X2674624Y1170744D01*
X2674272D01*
X2673921Y1170832D01*
X2673042Y1171184D01*
X2672163Y1171711D01*
X2672075D01*
X2671987Y1171887D01*
X2671548Y1172326D01*
X2671021Y1173117D01*
X2670581Y1174084D01*
Y1174172D01*
X2670493Y1174348D01*
Y1174611D01*
X2670405Y1174963D01*
Y1175754D01*
X2670581Y1176545D01*
Y1176633D01*
X2670669Y1176721D01*
X2670933Y1177248D01*
X2671460Y1177863D01*
X2672163Y1178566D01*
X2672251Y1178654D01*
X2672603Y1178918D01*
X2673042Y1179181D01*
X2673569Y1179533D01*
X2673657Y1179621D01*
X2674008Y1179884D01*
X2674536Y1180148D01*
X2675063Y1180499D01*
X2675151Y1180587D01*
X2675327Y1180675D01*
X2675942Y1181203D01*
X2676645Y1182082D01*
X2676909Y1182609D01*
X2677173Y1183136D01*
Y1183224D01*
X2677260Y1183400D01*
Y1183751D01*
X2677348Y1184103D01*
X2677260Y1185157D01*
X2677084Y1185685D01*
X2676821Y1186300D01*
Y1186388D01*
X2676645Y1186563D01*
X2676206Y1187091D01*
X2675503Y1187706D01*
X2674975Y1188058D01*
X2674448Y1188233D01*
X2674360D01*
X2674184Y1188321D01*
X2673833D01*
X2673393Y1188409D01*
X2672251Y1188321D01*
X2671636Y1188233D01*
X2671021Y1187970D01*
X2670933D01*
X2670845Y1187882D01*
X2670229Y1187618D01*
X2669438Y1187091D01*
X2668472Y1186388D01*
X2667417Y1185333D01*
X2666363Y1184103D01*
X2665308Y1182609D01*
X2664517Y1180763D01*
Y1180675D01*
X2664429Y1180499D01*
X2664341Y1180236D01*
X2664254Y1179884D01*
X2663990Y1178918D01*
X2663726Y1177599D01*
X2663638Y1176105D01*
X2663726Y1174523D01*
X2663990Y1172766D01*
X2664254Y1171975D01*
X2664605Y1171096D01*
Y1171008D01*
X2664781Y1170744D01*
X2665044Y1170305D01*
X2665308Y1169778D01*
X2665747Y1169250D01*
X2666275Y1168635D01*
X2666802Y1168020D01*
X2667505Y1167493D01*
X2667593Y1167405D01*
X2667857Y1167229D01*
X2668208Y1167053D01*
X2668735Y1166702D01*
X2669351Y1166350D01*
X2670054Y1166087D01*
X2671636Y1165471D01*
X2671812D01*
X2672163Y1165384D01*
X2672866Y1165208D01*
X2673745Y1165120D01*
X2674712Y1164944D01*
X2675854Y1164768D01*
X2678315Y1164680D01*
X2678491D01*
X2678930D01*
X2679545Y1164768D01*
X2680424Y1164856D01*
X2681479Y1164944D01*
X2682621Y1165120D01*
X2683852Y1165384D01*
X2685082Y1165735D01*
X2685170D01*
X2685345Y1165823D01*
X2685961Y1166087D01*
X2686576Y1166438D01*
X2686840Y1166614D01*
X2687015Y1166790D01*
Y1167844D01*
X2686927Y1168372D01*
X2686840Y1168899D01*
Y1168987D01*
X2686752Y1169338D01*
X2686664Y1169778D01*
X2686576Y1170393D01*
Y1171096D01*
X2686488Y1171887D01*
X2686576Y1173645D01*
Y1173733D01*
X2686664Y1173996D01*
X2686752Y1174523D01*
X2686840Y1175051D01*
X2687015Y1175754D01*
X2687279Y1176545D01*
X2687894Y1178127D01*
Y1178215D01*
X2687982Y1178302D01*
Y1178390D01*
X2688070Y1178566D01*
Y1178654D01*
X2688246Y1178742D01*
X2688597Y1179357D01*
X2689213Y1180060D01*
X2689915Y1180851D01*
X2690003Y1180939D01*
X2690091Y1181027D01*
X2690355Y1181203D01*
X2690619Y1181378D01*
X2691497Y1181642D01*
X2692025Y1181818D01*
X2692640D01*
X2692728D01*
X2692904D01*
X2693255Y1181730D01*
X2693607D01*
X2694573Y1181378D01*
X2695013Y1181115D01*
X2695452Y1180763D01*
Y1180675D01*
X2695628Y1180587D01*
X2696068Y1180060D01*
X2696595Y1179181D01*
X2697122Y1178215D01*
X2697210Y1178127D01*
X2697298Y1177687D01*
X2697473Y1177160D01*
X2697737Y1176369D01*
X2697913Y1175490D01*
X2698089Y1174436D01*
X2698264Y1173381D01*
Y1172238D01*
X2698177Y1171799D01*
X2698089Y1171272D01*
X2698001Y1170481D01*
X2697737Y1169602D01*
X2697386Y1168635D01*
X2696859Y1167669D01*
X2696243Y1166614D01*
X2696155Y1166526D01*
X2695980Y1166174D01*
X2695716Y1165735D01*
Y1165296D01*
X2695892Y1165032D01*
X2696155Y1164680D01*
X2696595Y1164329D01*
X2696683Y1164241D01*
X2697034Y1164065D01*
X2697562Y1163714D01*
X2698177Y1163362D01*
X2698968Y1162923D01*
X2699846Y1162483D01*
X2700813Y1162132D01*
X2701868Y1161780D01*
X2701956D01*
X2702395Y1161692D01*
X2702922Y1161517D01*
X2703625Y1161429D01*
X2704592Y1161341D01*
X2705559D01*
X2706701D01*
X2707844Y1161429D01*
X2707932D01*
X2708195Y1161517D01*
X2708547Y1161605D01*
X2709074Y1161780D01*
X2709689Y1162044D01*
X2710217Y1162395D01*
X2710832Y1162747D01*
X2711447Y1163274D01*
X2711535Y1163362D01*
X2711711Y1163538D01*
X2711974Y1163889D01*
X2712238Y1164329D01*
X2712502Y1164856D01*
X2712853Y1165471D01*
X2713029Y1166087D01*
X2713205Y1166878D01*
Y1167581D01*
X2713117Y1168108D01*
X2713029Y1168723D01*
X2712853Y1169426D01*
X2712590Y1170217D01*
X2712150Y1171008D01*
X2712062Y1171096D01*
X2711887Y1171360D01*
X2711623Y1171711D01*
X2711271Y1172238D01*
X2710305Y1173205D01*
X2709777Y1173557D01*
X2709162Y1173908D01*
X2709074D01*
X2708987Y1173996D01*
X2708547D01*
X2708020D01*
X2707404Y1173820D01*
X2707317Y1173733D01*
X2707053Y1173469D01*
X2706789Y1172942D01*
X2706701Y1172238D01*
Y1172151D01*
X2706789Y1171887D01*
X2706877Y1171448D01*
X2706965Y1171008D01*
Y1170920D01*
X2707053Y1170657D01*
X2707141Y1170305D01*
X2707229Y1169866D01*
Y1169778D01*
X2707317Y1169426D01*
X2707404Y1168899D01*
Y1168284D01*
X2707317Y1167932D01*
X2707141Y1167581D01*
X2706701Y1167141D01*
X2706613Y1167053D01*
X2706262Y1166878D01*
X2705735Y1166702D01*
X2705208Y1166614D01*
X2705032D01*
X2704680Y1166702D01*
X2704241Y1166790D01*
X2703625Y1166965D01*
X2703538D01*
X2703450Y1167053D01*
X2703010Y1167317D01*
X2702395Y1167756D01*
X2701956Y1168372D01*
Y1168459D01*
X2701868Y1168547D01*
X2701692Y1168987D01*
X2701429Y1169602D01*
X2701253Y1170393D01*
Y1170481D01*
X2701165Y1170832D01*
Y1171975D01*
X2701077Y1172678D01*
X2701165Y1173557D01*
X2701341Y1175314D01*
Y1175402D01*
X2701429Y1175666D01*
X2701604Y1176105D01*
X2701780Y1176721D01*
X2702043Y1177336D01*
X2702395Y1178127D01*
X2702834Y1178830D01*
X2703450Y1179621D01*
X2703538Y1179709D01*
X2703713Y1179884D01*
X2703977Y1180236D01*
X2704329Y1180587D01*
X2705295Y1181291D01*
X2705910Y1181554D01*
X2706526Y1181730D01*
X2706613D01*
X2706789Y1181818D01*
X2707141D01*
X2707580D01*
X2708108Y1181730D01*
X2708723Y1181554D01*
X2709338Y1181291D01*
X2710041Y1180851D01*
X2710129Y1180763D01*
X2710392Y1180675D01*
X2710744Y1180412D01*
X2711183Y1180148D01*
X2712326Y1179269D01*
X2713644Y1178302D01*
X2713732Y1178215D01*
X2713908Y1178039D01*
X2714259Y1177775D01*
X2714699Y1177424D01*
X2715753Y1176545D01*
X2716984Y1175578D01*
X2717072D01*
X2717160Y1175402D01*
X2717687Y1174963D01*
X2718478Y1174260D01*
X2719532Y1173381D01*
X2720763Y1172238D01*
X2722081Y1171008D01*
X2723487Y1169690D01*
X2724981Y1168284D01*
X2725157Y1168108D01*
X2725684Y1167669D01*
X2726387Y1166878D01*
X2727354Y1165911D01*
X2728497Y1164768D01*
X2729727Y1163450D01*
X2731045Y1161956D01*
X2732364Y1160462D01*
X2732451Y1160374D01*
X2732715Y1160110D01*
X2732803Y1159935D01*
X2732979Y1159583D01*
X2732891Y1159495D01*
X2732803Y1159320D01*
X2732539Y1159056D01*
X2732276Y1158704D01*
X2731573Y1157825D01*
X2730782Y1156771D01*
X2730694Y1156683D01*
X2730606Y1156507D01*
X2730342Y1156244D01*
X2730078Y1155892D01*
X2729288Y1155101D01*
X2728409Y1154134D01*
X2728321Y1154046D01*
X2728145Y1153871D01*
X2727794Y1153519D01*
X2727354Y1153080D01*
X2726827Y1152552D01*
X2726212Y1151849D01*
X2725509Y1151146D01*
X2724718Y1150355D01*
X2722872Y1148510D01*
X2720763Y1146488D01*
X2718566Y1144379D01*
X2716281Y1142270D01*
X2716193Y1142182D01*
X2716017Y1142006D01*
X2715666Y1141743D01*
X2715226Y1141303D01*
X2714611Y1140776D01*
X2713908Y1140161D01*
X2713205Y1139546D01*
X2712326Y1138755D01*
X2710392Y1137085D01*
X2708195Y1135327D01*
X2705735Y1133394D01*
X2703274Y1131460D01*
X2703098Y1131372D01*
X2702659Y1131021D01*
X2702043Y1130581D01*
X2701165Y1129878D01*
X2700110Y1129175D01*
X2698968Y1128384D01*
X2696507Y1126714D01*
X2696331Y1126627D01*
X2695892Y1126363D01*
X2695189Y1125924D01*
X2694222Y1125484D01*
X2693080Y1124869D01*
X2691849Y1124342D01*
X2690443Y1123727D01*
X2688949Y1123199D01*
X2688861D01*
X2688773Y1123111D01*
X2688510Y1123023D01*
X2688158Y1122935D01*
X2687191Y1122760D01*
X2686049Y1122496D01*
X2684643Y1122145D01*
X2683061Y1121969D01*
X2681391Y1121793D01*
X2679721Y1121705D01*
X2679633D01*
X2679370D01*
X2678930D01*
X2678403Y1121793D01*
X2677700D01*
X2676996Y1121881D01*
X2675503Y1122057D01*
X2675415D01*
X2675239Y1122145D01*
X2674887Y1122233D01*
X2674448Y1122320D01*
X2673833Y1122496D01*
X2673217Y1122672D01*
X2671636Y1123287D01*
X2669790Y1124078D01*
X2667769Y1125220D01*
X2666714Y1125924D01*
X2665659Y1126627D01*
X2664605Y1127505D01*
X2663550Y1128472D01*
X2663375Y1128648D01*
X2662935Y1129087D01*
X2662320Y1129703D01*
X2661617Y1130669D01*
X2660826Y1131724D01*
X2659947Y1133042D01*
X2659244Y1134360D01*
X2658629Y1135854D01*
Y1135942D01*
X2658541Y1136030D01*
X2658365Y1136557D01*
X2658189Y1137436D01*
X2657838Y1138491D01*
X2657574Y1139809D01*
X2657398Y1141303D01*
X2657223Y1142973D01*
X2657135Y1144731D01*
Y1145434D01*
X2657223Y1146137D01*
X2657398Y1147104D01*
X2657574Y1148246D01*
X2657838Y1149476D01*
X2658277Y1150707D01*
X2658805Y1151937D01*
X2658893Y1152113D01*
X2659068Y1152465D01*
X2659420Y1153080D01*
X2659947Y1153871D01*
X2660562Y1154750D01*
X2661265Y1155716D01*
X2662144Y1156771D01*
X2663199Y1157825D01*
Y1157913D01*
X2663375Y1158001D01*
X2663814Y1158441D01*
Y1158529D01*
X2663990Y1158616D01*
X2664429Y1158968D01*
Y1159056D01*
X2664517Y1159232D01*
X2664605Y1159407D01*
X2664781Y1159759D01*
X2664693Y1159847D01*
X2664429Y1160023D01*
X2664078Y1160286D01*
X2663726Y1160638D01*
X2663638Y1160726D01*
X2663375Y1160901D01*
X2663023Y1161253D01*
X2662672Y1161605D01*
X2662584Y1161692D01*
X2662232Y1162044D01*
X2661793Y1162571D01*
X2661265Y1163186D01*
X2660562Y1164065D01*
X2659947Y1164944D01*
X2659332Y1165999D01*
X2658805Y1167141D01*
X2658717Y1167317D01*
X2658629Y1167669D01*
X2658365Y1168284D01*
X2658102Y1169163D01*
X2657838Y1170129D01*
X2657574Y1171184D01*
X2657398Y1172414D01*
X2657310Y1173733D01*
Y1176369D01*
X2657398Y1177599D01*
X2657486Y1179006D01*
X2657750Y1180412D01*
X2658102Y1181906D01*
Y1181994D01*
X2658189Y1182082D01*
X2658277Y1182609D01*
X2658629Y1183312D01*
X2658980Y1184279D01*
X2659596Y1185421D01*
X2660211Y1186651D01*
X2661089Y1187882D01*
X2662056Y1189112D01*
X2662144Y1189200D01*
X2662408Y1189552D01*
X2662847Y1189991D01*
X2663463Y1190518D01*
X2664078Y1191221D01*
X2664868Y1191925D01*
X2666714Y1193243D01*
X2666802Y1193331D01*
X2667154Y1193506D01*
X2667681Y1193858D01*
X2668384Y1194209D01*
X2669175Y1194561D01*
X2670142Y1195000D01*
X2671196Y1195352D01*
X2672339Y1195704D01*
X2672426D01*
X2672515Y1195791D01*
X2672778D01*
X2673042Y1195879D01*
X2673921Y1195967D01*
X2674975Y1196055D01*
X2676294Y1195967D01*
D02*
G37*
%LPC*%
G36*
X2715753Y1267329D02*
X2715578D01*
X2715226D01*
X2714787Y1267241D01*
X2714259Y1266977D01*
X2714171Y1266889D01*
X2713908Y1266538D01*
X2713732Y1266099D01*
X2713644Y1265835D01*
X2713732Y1265571D01*
Y1265483D01*
X2713820Y1265132D01*
X2713996Y1264604D01*
X2714259Y1264165D01*
X2714347Y1264077D01*
X2714523Y1263726D01*
X2714787Y1263198D01*
X2715138Y1262583D01*
X2715666Y1261880D01*
X2716281Y1261177D01*
X2717687Y1259683D01*
X2717775Y1259595D01*
X2718038Y1259419D01*
X2718478Y1259068D01*
X2719005Y1258628D01*
X2719708Y1258101D01*
X2720499Y1257486D01*
X2722257Y1256256D01*
Y1256783D01*
X2722345Y1257134D01*
X2722257Y1257925D01*
X2722169Y1258892D01*
Y1258980D01*
X2722081Y1259068D01*
X2721993Y1259595D01*
X2721730Y1260298D01*
X2721466Y1261089D01*
Y1261177D01*
X2721378Y1261353D01*
X2721202Y1261704D01*
X2721027Y1262144D01*
X2720499Y1263198D01*
X2719884Y1264341D01*
X2719796Y1264429D01*
X2719708Y1264604D01*
X2719445Y1264868D01*
X2719181Y1265132D01*
X2718302Y1265923D01*
X2717248Y1266714D01*
X2717160Y1266802D01*
X2716808Y1266977D01*
X2716281Y1267153D01*
X2715753Y1267329D01*
D02*
G37*
G36*
X2704944Y1217938D02*
X2704417D01*
X2703713D01*
X2703098Y1217674D01*
X2703010Y1217587D01*
X2702659Y1217323D01*
X2702395Y1216796D01*
X2702219Y1216180D01*
Y1215565D01*
X2702307Y1214774D01*
X2702571Y1213895D01*
X2702659Y1213808D01*
X2702747Y1213368D01*
X2703010Y1212841D01*
X2703450Y1212226D01*
X2703889Y1211435D01*
X2704417Y1210644D01*
X2705120Y1209853D01*
X2705910Y1209150D01*
X2705998Y1209062D01*
X2706262Y1208798D01*
X2706789Y1208447D01*
X2707317Y1208007D01*
X2708108Y1207568D01*
X2708899Y1207040D01*
X2709865Y1206513D01*
X2710832Y1205986D01*
X2710920Y1206074D01*
X2711183Y1206162D01*
X2711271Y1206250D01*
X2711447Y1206337D01*
Y1206425D01*
X2711359Y1206601D01*
X2711271Y1206953D01*
X2711183Y1207392D01*
X2710920Y1208447D01*
X2710568Y1209589D01*
Y1209677D01*
X2710480Y1209853D01*
X2710392Y1210204D01*
X2710305Y1210556D01*
X2709953Y1211523D01*
X2709602Y1212665D01*
Y1212753D01*
X2709514Y1212841D01*
X2709338Y1213368D01*
X2709074Y1213983D01*
X2708635Y1214774D01*
Y1214862D01*
X2708547Y1214950D01*
X2708195Y1215389D01*
X2707756Y1216005D01*
X2707229Y1216620D01*
Y1216708D01*
X2707053Y1216796D01*
X2706701Y1217147D01*
X2706086Y1217587D01*
X2705208Y1217850D01*
X2705120D01*
X2704944Y1217938D01*
D02*
G37*
G36*
X2692904Y1176896D02*
X2692816D01*
X2692464D01*
X2692113Y1176808D01*
X2691585Y1176545D01*
X2691497Y1176457D01*
X2691410Y1176281D01*
X2691146Y1176018D01*
X2690970Y1175666D01*
X2690706Y1175139D01*
X2690531Y1174611D01*
X2690355Y1173908D01*
X2690267Y1173117D01*
Y1172766D01*
X2690355Y1172326D01*
X2690443Y1171887D01*
X2690706Y1170657D01*
X2691058Y1170041D01*
X2691410Y1169514D01*
X2691497Y1169602D01*
X2691673Y1169690D01*
X2691937Y1169954D01*
X2692201Y1170305D01*
X2692904Y1171272D01*
X2693519Y1172502D01*
Y1172590D01*
X2693607Y1172854D01*
X2693694Y1173205D01*
X2693782Y1173645D01*
X2693958Y1174787D01*
X2693870Y1175314D01*
X2693782Y1175930D01*
X2693694Y1176018D01*
X2693607Y1176369D01*
X2693255Y1176633D01*
X2692904Y1176896D01*
D02*
G37*
G36*
X2719708Y1166614D02*
X2719620Y1166526D01*
X2719532Y1166350D01*
X2719269Y1165999D01*
X2719005Y1165559D01*
X2718302Y1164417D01*
X2717423Y1163099D01*
X2717336Y1163011D01*
X2717248Y1162835D01*
X2716984Y1162483D01*
X2716720Y1162044D01*
X2716017Y1160901D01*
X2715226Y1159583D01*
X2715314Y1159495D01*
X2715490Y1159407D01*
X2715753Y1159144D01*
X2716105Y1158792D01*
X2716984Y1157825D01*
X2717863Y1156683D01*
Y1156595D01*
X2718038Y1156419D01*
X2718214Y1156068D01*
X2718390Y1155540D01*
X2718654Y1154925D01*
X2718829Y1154222D01*
X2719093Y1153431D01*
X2719269Y1152552D01*
X2719357Y1152640D01*
X2719532Y1152816D01*
X2719884Y1153168D01*
X2720323Y1153607D01*
X2721378Y1154750D01*
X2722520Y1155892D01*
X2722608Y1155980D01*
X2722784Y1156156D01*
X2723048Y1156507D01*
X2723487Y1156859D01*
X2724366Y1157825D01*
X2725509Y1158968D01*
X2725597Y1159056D01*
X2725684Y1159232D01*
X2726036Y1159759D01*
Y1160023D01*
X2725948Y1160286D01*
X2725684Y1160638D01*
X2725597Y1160726D01*
X2725421Y1160901D01*
X2725069Y1161253D01*
X2724718Y1161605D01*
X2723751Y1162571D01*
X2722608Y1163714D01*
X2722520Y1163802D01*
X2722345Y1163977D01*
X2721993Y1164329D01*
X2721642Y1164680D01*
X2720675Y1165647D01*
X2719708Y1166614D01*
D02*
G37*
G36*
X2690882Y1161780D02*
X2690619D01*
X2690355D01*
X2690267D01*
X2690091D01*
X2689652Y1161605D01*
X2689564D01*
X2689388Y1161517D01*
X2689037Y1161341D01*
X2688597Y1161165D01*
X2687543Y1160638D01*
X2686312Y1160023D01*
X2686224D01*
X2686049Y1159847D01*
X2685697Y1159759D01*
X2685170Y1159495D01*
X2684027Y1158968D01*
X2682709Y1158353D01*
Y1158265D01*
X2682797Y1158089D01*
X2683061Y1157562D01*
Y1157474D01*
X2683236Y1157298D01*
X2683500Y1156771D01*
Y1156683D01*
X2683588Y1156595D01*
X2683764Y1156331D01*
X2683940Y1155980D01*
X2684291Y1155101D01*
X2684731Y1153871D01*
X2684994Y1152465D01*
X2685170Y1150883D01*
Y1149125D01*
X2684994Y1148246D01*
X2684731Y1147279D01*
Y1147191D01*
X2684643Y1147104D01*
X2684555Y1146840D01*
X2684379Y1146488D01*
X2684027Y1145610D01*
X2683500Y1144467D01*
X2682709Y1143325D01*
X2681830Y1142094D01*
X2680775Y1140864D01*
X2679457Y1139809D01*
X2679370D01*
X2679282Y1139721D01*
X2678754Y1139370D01*
X2677963Y1139018D01*
X2676996Y1138667D01*
X2676909D01*
X2676821Y1138579D01*
X2676206Y1138491D01*
X2675415D01*
X2674448Y1138579D01*
X2674360D01*
X2674184Y1138667D01*
X2673833Y1138755D01*
X2673481Y1138842D01*
X2672603Y1139194D01*
X2671812Y1139809D01*
X2671724D01*
X2671636Y1139985D01*
X2671196Y1140424D01*
X2670669Y1141215D01*
X2670229Y1142270D01*
Y1142358D01*
X2670142Y1142534D01*
Y1143061D01*
X2670229Y1143852D01*
X2670317Y1144203D01*
X2670493Y1144643D01*
Y1144731D01*
X2670581Y1144819D01*
X2670933Y1145346D01*
X2671460Y1145961D01*
X2672163Y1146576D01*
X2672251Y1146664D01*
X2672603Y1146928D01*
X2673130Y1147279D01*
X2673745Y1147719D01*
X2673921Y1147807D01*
X2674272Y1148070D01*
X2674799Y1148422D01*
X2675415Y1148773D01*
X2675503Y1148861D01*
X2675591Y1148949D01*
X2676118Y1149476D01*
X2676645Y1150180D01*
X2676909Y1150707D01*
X2677084Y1151234D01*
Y1151498D01*
X2677173Y1151761D01*
Y1152113D01*
X2677084Y1153080D01*
X2676909Y1153607D01*
X2676645Y1154134D01*
Y1154222D01*
X2676469Y1154398D01*
X2676294Y1154662D01*
X2676030Y1155013D01*
X2675591Y1155365D01*
X2675151Y1155716D01*
X2674624Y1156068D01*
X2673921Y1156244D01*
X2673833D01*
X2673569Y1156331D01*
X2673217D01*
X2672778D01*
X2672163Y1156244D01*
X2671548Y1156068D01*
X2670845Y1155804D01*
X2670142Y1155453D01*
X2670054D01*
X2669966Y1155365D01*
X2669526Y1155013D01*
X2668824Y1154486D01*
X2668033Y1153783D01*
X2667066Y1152816D01*
X2666187Y1151761D01*
X2665308Y1150531D01*
X2664605Y1149213D01*
X2664517Y1149037D01*
X2664341Y1148510D01*
X2664078Y1147719D01*
X2663814Y1146664D01*
X2663638Y1145434D01*
X2663550Y1143940D01*
X2663638Y1142270D01*
X2663902Y1140424D01*
Y1140249D01*
X2664078Y1139809D01*
X2664341Y1139194D01*
X2664605Y1138315D01*
X2665044Y1137348D01*
X2665572Y1136382D01*
X2666275Y1135327D01*
X2667066Y1134360D01*
X2667154Y1134273D01*
X2667505Y1133921D01*
X2668033Y1133482D01*
X2668647Y1132954D01*
X2669526Y1132251D01*
X2670405Y1131548D01*
X2671460Y1130933D01*
X2672603Y1130230D01*
X2672778Y1130142D01*
X2673217Y1129966D01*
X2673833Y1129615D01*
X2674712Y1129263D01*
X2675766Y1128912D01*
X2676996Y1128560D01*
X2678227Y1128296D01*
X2679545Y1128121D01*
X2679721D01*
X2680161D01*
X2680864Y1128033D01*
X2681830D01*
X2682973Y1128121D01*
X2684203Y1128209D01*
X2685521Y1128384D01*
X2686840Y1128648D01*
X2686927D01*
X2687191Y1128736D01*
X2687543Y1128824D01*
X2688070Y1128999D01*
X2688685Y1129175D01*
X2689476Y1129351D01*
X2690355Y1129703D01*
X2691234Y1129966D01*
X2693343Y1130757D01*
X2695540Y1131724D01*
X2697825Y1132866D01*
X2700110Y1134273D01*
X2700198Y1134360D01*
X2700374Y1134448D01*
X2700725Y1134712D01*
X2701077Y1134976D01*
X2701604Y1135415D01*
X2702219Y1135854D01*
X2703625Y1137085D01*
X2705295Y1138491D01*
X2707053Y1140249D01*
X2708899Y1142094D01*
X2710656Y1144203D01*
X2710744Y1144379D01*
X2711096Y1144731D01*
X2711447Y1145258D01*
X2711887Y1145961D01*
X2711974Y1146137D01*
X2712238Y1146488D01*
X2712502Y1147104D01*
X2712853Y1147719D01*
X2712941Y1147807D01*
X2713029Y1148158D01*
X2713205Y1148773D01*
X2713293Y1149476D01*
Y1151146D01*
X2713029Y1152025D01*
X2712590Y1152992D01*
X2712502Y1153080D01*
X2712326Y1153343D01*
X2711887Y1153783D01*
X2711447Y1154222D01*
X2710744Y1154750D01*
X2709953Y1155189D01*
X2709074Y1155453D01*
X2708020Y1155628D01*
X2707932D01*
X2707756D01*
X2707492D01*
X2707053D01*
X2706174D01*
X2705120Y1155453D01*
X2705032D01*
X2704856Y1155365D01*
X2704592Y1155277D01*
X2704241Y1155189D01*
X2703362Y1154925D01*
X2702395Y1154486D01*
X2702307Y1154398D01*
X2702043Y1154310D01*
X2701604Y1154046D01*
X2701077Y1153607D01*
X2700462Y1153080D01*
X2699846Y1152377D01*
X2699231Y1151498D01*
X2698704Y1150443D01*
X2698616Y1150355D01*
X2698528Y1149916D01*
X2698352Y1149389D01*
X2698264Y1148686D01*
X2698177Y1147807D01*
Y1146928D01*
X2698352Y1145961D01*
X2698704Y1144994D01*
X2698792Y1144819D01*
X2698968Y1144467D01*
Y1144379D01*
X2699055Y1144291D01*
X2699231Y1143852D01*
Y1143764D01*
X2699319Y1143588D01*
Y1143237D01*
X2699407Y1142797D01*
X2699319Y1141743D01*
X2699143Y1141127D01*
X2698880Y1140512D01*
X2698792Y1140424D01*
X2698704Y1140249D01*
X2698177Y1139721D01*
X2697825Y1139370D01*
X2697386Y1139018D01*
X2696771Y1138755D01*
X2696155Y1138579D01*
X2696068D01*
X2695804D01*
X2695452Y1138491D01*
X2695013D01*
X2693958Y1138579D01*
X2692728Y1138842D01*
X2692640D01*
X2692464Y1138930D01*
X2692201Y1139106D01*
X2691761Y1139282D01*
X2690882Y1139897D01*
X2690003Y1140776D01*
X2689915Y1140864D01*
X2689828Y1141040D01*
X2689564Y1141391D01*
X2689301Y1141743D01*
X2688773Y1142797D01*
X2688597Y1143412D01*
X2688422Y1144028D01*
Y1146313D01*
X2688685Y1147631D01*
Y1147807D01*
X2688773Y1148158D01*
X2688949Y1148686D01*
X2689213Y1149389D01*
X2689564Y1150180D01*
X2689915Y1151058D01*
X2690443Y1151937D01*
X2691058Y1152816D01*
X2691146Y1152904D01*
X2691410Y1153168D01*
X2691761Y1153607D01*
X2692201Y1154134D01*
X2692816Y1154662D01*
X2693607Y1155365D01*
X2694398Y1155980D01*
X2695276Y1156683D01*
X2695364Y1156771D01*
X2695628Y1156947D01*
X2695980Y1157210D01*
X2696419Y1157474D01*
X2696507Y1157562D01*
X2696771Y1157738D01*
X2697210Y1158001D01*
X2697737Y1158353D01*
X2697649D01*
X2697473Y1158529D01*
X2697122Y1158704D01*
X2696683Y1158880D01*
X2695540Y1159495D01*
X2694310Y1160110D01*
X2694222D01*
X2694046Y1160286D01*
X2693694Y1160374D01*
X2693255Y1160638D01*
X2692201Y1161077D01*
X2691058Y1161692D01*
X2690970D01*
X2690882Y1161780D01*
D02*
G37*
%LPD*%
D10*
X2350903Y1222783D02*
G03*
X2350903Y1222783I-832J0D01*
G01*
X1466000Y1460000D02*
Y1489000D01*
X1594000D01*
Y1460000D02*
Y1489000D01*
X1466000Y1361000D02*
Y1390000D01*
Y1361000D02*
X1594000D01*
Y1390000D01*
Y1201000D02*
Y1230000D01*
X1466000Y1201000D02*
X1594000D01*
X1466000D02*
Y1230000D01*
X1594000Y1300000D02*
Y1329000D01*
X1466000D02*
X1594000D01*
X1466000Y1300000D02*
Y1329000D01*
X1594000Y1041000D02*
Y1070000D01*
X1466000Y1041000D02*
X1594000D01*
X1466000D02*
Y1070000D01*
X1594000Y1140000D02*
Y1169000D01*
X1466000D02*
X1594000D01*
X1466000Y1140000D02*
Y1169000D01*
X1306000Y1460000D02*
Y1489000D01*
X1434000D01*
Y1460000D02*
Y1489000D01*
X1306000Y1361000D02*
Y1390000D01*
Y1361000D02*
X1434000D01*
Y1390000D01*
X1306000Y1300000D02*
Y1329000D01*
X1434000D01*
Y1300000D02*
Y1329000D01*
X1306000Y1201000D02*
Y1230000D01*
Y1201000D02*
X1434000D01*
Y1230000D01*
X1306000Y1140000D02*
Y1169000D01*
X1434000D01*
Y1140000D02*
Y1169000D01*
X1306000Y1041000D02*
Y1070000D01*
Y1041000D02*
X1434000D01*
Y1070000D01*
X1146000Y1460000D02*
Y1489000D01*
X1274000D01*
Y1460000D02*
Y1489000D01*
X1146000Y1361000D02*
Y1390000D01*
Y1361000D02*
X1274000D01*
Y1390000D01*
X1146000Y1300000D02*
Y1329000D01*
X1274000D01*
Y1300000D02*
Y1329000D01*
X1146000Y1201000D02*
Y1230000D01*
Y1201000D02*
X1274000D01*
Y1230000D01*
X1146000Y1140000D02*
Y1169000D01*
X1274000D01*
Y1140000D02*
Y1169000D01*
X1146000Y1041000D02*
Y1070000D01*
Y1041000D02*
X1274000D01*
Y1070000D01*
X1114000Y1361000D02*
Y1390000D01*
X986000Y1361000D02*
X1114000D01*
X986000D02*
Y1390000D01*
X1114000Y1460000D02*
Y1489000D01*
X986000D02*
X1114000D01*
X986000Y1460000D02*
Y1489000D01*
X1114000Y1201000D02*
Y1230000D01*
X986000Y1201000D02*
X1114000D01*
X986000D02*
Y1230000D01*
X1114000Y1300000D02*
Y1329000D01*
X986000D02*
X1114000D01*
X986000Y1300000D02*
Y1329000D01*
X1114000Y1041000D02*
Y1070000D01*
X986000Y1041000D02*
X1114000D01*
X986000D02*
Y1070000D01*
X1114000Y1140000D02*
Y1169000D01*
X986000D02*
X1114000D01*
X986000Y1140000D02*
Y1169000D01*
X294607Y1237631D02*
Y1225765D01*
X300540Y1231698D02*
X288674D01*
X294546Y1123170D02*
Y1111318D01*
X300472Y1117244D02*
X288620D01*
X297114Y1210862D02*
Y1199004D01*
X297108Y1095213D02*
Y1083356D01*
X294607Y1447631D02*
Y1435765D01*
X300540Y1441698D02*
X288674D01*
X294546Y1333170D02*
Y1321318D01*
X300472Y1327244D02*
X288620D01*
X297114Y1420862D02*
Y1409004D01*
X297108Y1305213D02*
Y1293356D01*
D11*
X2483750Y1236000D02*
G03*
X2483750Y1236000I-1250J0D01*
G01*
X2259250Y1350000D02*
G03*
X2259250Y1350000I-1250J0D01*
G01*
X1881420Y1304360D02*
G03*
X1881420Y1304360I-1250J0D01*
G01*
X1761080Y1540640D02*
G03*
X1761080Y1540640I-1250J0D01*
G01*
Y1070640D02*
G03*
X1761080Y1070640I-1250J0D01*
G01*
X1881420Y1144360D02*
G03*
X1881420Y1144360I-1250J0D01*
G01*
X2162250Y1168450D02*
G03*
X2162250Y1168450I-1250J0D01*
G01*
D12*
X2484500Y1259834D02*
G03*
X2484500Y1270167I0J5167D01*
G01*
X2565000Y1288000D02*
X2566500D01*
X2565000Y1243000D02*
X2566500D01*
X2484500D02*
X2485500D01*
X2484500Y1288000D02*
X2485500D01*
X2566500Y1243000D02*
Y1288000D01*
X2484500Y1270200D02*
Y1288000D01*
Y1243000D02*
Y1259800D01*
X2263500Y1176000D02*
Y1194000D01*
X2232500Y1176000D02*
Y1194000D01*
X2233000D01*
X2232500Y1176000D02*
X2233000D01*
X2263000Y1194000D02*
X2263500D01*
X2263000Y1176000D02*
X2263500D01*
X2430500Y1311000D02*
Y1329000D01*
X2399500Y1311000D02*
Y1329000D01*
X2400000D01*
X2399500Y1311000D02*
X2400000D01*
X2430000Y1329000D02*
X2430500D01*
X2430000Y1311000D02*
X2430500D01*
X2450500Y1348000D02*
Y1366000D01*
X2419500Y1348000D02*
Y1366000D01*
X2420000D01*
X2419500Y1348000D02*
X2420000D01*
X2450000Y1366000D02*
X2450500D01*
X2450000Y1348000D02*
X2450500D01*
X2470500Y1311000D02*
Y1329000D01*
X2439500Y1311000D02*
Y1329000D01*
X2440000D01*
X2439500Y1311000D02*
X2440000D01*
X2470000Y1329000D02*
X2470500D01*
X2470000Y1311000D02*
X2470500D01*
X2470000Y1166000D02*
X2470500D01*
X2470000Y1184000D02*
X2470500D01*
X2439500Y1166000D02*
X2440000D01*
X2439500Y1184000D02*
X2440000D01*
X2439500Y1166000D02*
Y1184000D01*
X2470500Y1166000D02*
Y1184000D01*
X2435000Y1166000D02*
X2435500D01*
X2435000Y1184000D02*
X2435500D01*
X2404500Y1166000D02*
X2405000D01*
X2404500Y1184000D02*
X2405000D01*
X2404500Y1166000D02*
Y1184000D01*
X2435500Y1166000D02*
Y1184000D01*
D13*
X233310Y1124440D02*
G03*
X233310Y1124440I-1000J0D01*
G01*
Y1334440D02*
G03*
X233310Y1334440I-1000J0D01*
G01*
X2232500Y1171000D02*
G03*
X2232500Y1171000I-500J0D01*
G01*
X2399500Y1306000D02*
G03*
X2399500Y1306000I-500J0D01*
G01*
X2419500Y1343000D02*
G03*
X2419500Y1343000I-500J0D01*
G01*
X2439500Y1306000D02*
G03*
X2439500Y1306000I-500J0D01*
G01*
X2439500Y1161000D02*
G03*
X2439500Y1161000I-500J0D01*
G01*
X2404500D02*
G03*
X2404500Y1161000I-500J0D01*
G01*
X2762000Y1527000D02*
Y1533000D01*
X2778000Y1527000D02*
Y1533000D01*
X2762000Y1527000D02*
X2778000D01*
X2762000Y1528900D02*
X2778000D01*
X2737000Y1527000D02*
Y1533000D01*
X2753000Y1527000D02*
Y1533000D01*
X2737000Y1527000D02*
X2753000D01*
X2737000Y1528900D02*
X2753000D01*
X2712000Y1527000D02*
Y1533000D01*
X2728000Y1527000D02*
Y1533000D01*
X2712000Y1527000D02*
X2728000D01*
X2712000Y1528900D02*
X2728000D01*
X2687000Y1527000D02*
Y1533000D01*
X2703000Y1527000D02*
Y1533000D01*
X2687000Y1527000D02*
X2703000D01*
X2687000Y1528900D02*
X2703000D01*
X2662000Y1527000D02*
Y1533000D01*
X2678000Y1527000D02*
Y1533000D01*
X2662000Y1527000D02*
X2678000D01*
X2662000Y1528900D02*
X2678000D01*
X2637000Y1527000D02*
Y1533000D01*
X2653000Y1527000D02*
Y1533000D01*
X2637000Y1527000D02*
X2653000D01*
X2637000Y1528900D02*
X2653000D01*
X2778000Y1002000D02*
Y1008000D01*
X2762000Y1002000D02*
Y1008000D01*
X2778000D01*
X2762000Y1006100D02*
X2778000D01*
X2753000Y1002000D02*
Y1008000D01*
X2737000Y1002000D02*
Y1008000D01*
X2753000D01*
X2737000Y1006100D02*
X2753000D01*
X2728000Y1002000D02*
Y1008000D01*
X2712000Y1002000D02*
Y1008000D01*
X2728000D01*
X2712000Y1006100D02*
X2728000D01*
X2703000Y1002000D02*
Y1008000D01*
X2687000Y1002000D02*
Y1008000D01*
X2703000D01*
X2687000Y1006100D02*
X2703000D01*
X2678000Y1002000D02*
Y1008000D01*
X2662000Y1002000D02*
Y1008000D01*
X2678000D01*
X2662000Y1006100D02*
X2678000D01*
X2653000Y1002000D02*
Y1008000D01*
X2637000Y1002000D02*
Y1008000D01*
X2653000D01*
X2637000Y1006100D02*
X2653000D01*
X1736660Y1383100D02*
Y1397070D01*
X1899360D01*
X1736660Y1292930D02*
X1899360D01*
X1736660D02*
Y1306900D01*
X2032000Y1527000D02*
Y1533000D01*
X2048000Y1527000D02*
Y1533000D01*
X2032000Y1527000D02*
X2048000D01*
X2032000Y1528900D02*
X2048000D01*
X1777000Y1121000D02*
X1792000D01*
X1777000Y1093000D02*
X1792000D01*
X1777000Y1594000D02*
X1792000D01*
X1777000Y1566000D02*
X1792000D01*
X1743000Y1250000D02*
X1758000D01*
X1743000Y1278000D02*
X1758000D01*
X1743000Y1411000D02*
X1758000D01*
X1743000Y1439000D02*
X1758000D01*
X1616000Y1412000D02*
Y1427000D01*
X1644000Y1412000D02*
Y1427000D01*
Y1103000D02*
Y1118000D01*
X1616000Y1103000D02*
Y1118000D01*
X433000Y1021000D02*
X448000D01*
X433000Y1049000D02*
X448000D01*
X562000Y1149000D02*
X577000D01*
X562000Y1121000D02*
X577000D01*
X562000Y1099000D02*
X577000D01*
X562000Y1071000D02*
X577000D01*
X562000Y1049000D02*
X577000D01*
X562000Y1021000D02*
X577000D01*
X562000Y999000D02*
X577000D01*
X562000Y971000D02*
X577000D01*
X433000D02*
X448000D01*
X433000Y999000D02*
X448000D01*
X433000Y1486000D02*
X448000D01*
X433000Y1514000D02*
X448000D01*
X562000Y1414000D02*
X577000D01*
X562000Y1386000D02*
X577000D01*
X563000Y1464000D02*
X578000D01*
X563000Y1436000D02*
X578000D01*
X562000Y1514000D02*
X577000D01*
X562000Y1486000D02*
X577000D01*
X562000Y1564000D02*
X577000D01*
X562000Y1536000D02*
X577000D01*
X433000Y1536000D02*
X448000D01*
X433000Y1564000D02*
X448000D01*
X712000Y999000D02*
X727000D01*
X712000Y971000D02*
X727000D01*
X712000Y1249000D02*
X727000D01*
X712000Y1221000D02*
X727000D01*
X712000Y1199000D02*
X727000D01*
X712000Y1171000D02*
X727000D01*
X712000Y1149000D02*
X727000D01*
X712000Y1121000D02*
X727000D01*
X712000Y1099000D02*
X727000D01*
X712000Y1071000D02*
X727000D01*
X712000Y1049000D02*
X727000D01*
X712000Y1021000D02*
X727000D01*
X712000Y1564000D02*
X727000D01*
X712000Y1536000D02*
X727000D01*
X712000Y1514000D02*
X727000D01*
X712000Y1486000D02*
X727000D01*
X712000Y1464000D02*
X727000D01*
X712000Y1436000D02*
X727000D01*
X712000Y1414000D02*
X727000D01*
X712000Y1386000D02*
X727000D01*
X712000Y1364000D02*
X727000D01*
X712000Y1336000D02*
X727000D01*
X712000Y1314000D02*
X727000D01*
X712000Y1286000D02*
X727000D01*
X1637000Y1183000D02*
X1643000D01*
X1637000Y1167000D02*
X1643000D01*
X1637000D02*
Y1183000D01*
X1638900Y1167000D02*
Y1183000D01*
X1637000Y1363000D02*
X1643000D01*
X1637000Y1347000D02*
X1643000D01*
X1637000D02*
Y1363000D01*
X1638900Y1347000D02*
Y1363000D01*
X2628000Y1002000D02*
Y1008000D01*
X2612000Y1002000D02*
Y1008000D01*
X2628000D01*
X2612000Y1006100D02*
X2628000D01*
X2603000Y1002000D02*
Y1008000D01*
X2587000Y1002000D02*
Y1008000D01*
X2603000D01*
X2587000Y1006100D02*
X2603000D01*
X2578000Y1002000D02*
Y1008000D01*
X2562000Y1002000D02*
Y1008000D01*
X2578000D01*
X2562000Y1006100D02*
X2578000D01*
X2553000Y1002000D02*
Y1008000D01*
X2537000Y1002000D02*
Y1008000D01*
X2553000D01*
X2537000Y1006100D02*
X2553000D01*
X2528000Y1002000D02*
Y1008000D01*
X2512000Y1002000D02*
Y1008000D01*
X2528000D01*
X2512000Y1006100D02*
X2528000D01*
X2503000Y1002000D02*
Y1008000D01*
X2487000Y1002000D02*
Y1008000D01*
X2503000D01*
X2487000Y1006100D02*
X2503000D01*
X2612000Y1527000D02*
Y1533000D01*
X2628000Y1527000D02*
Y1533000D01*
X2612000Y1527000D02*
X2628000D01*
X2612000Y1528900D02*
X2628000D01*
X2587000Y1527000D02*
Y1533000D01*
X2603000Y1527000D02*
Y1533000D01*
X2587000Y1527000D02*
X2603000D01*
X2587000Y1528900D02*
X2603000D01*
X2562000Y1527000D02*
Y1533000D01*
X2578000Y1527000D02*
Y1533000D01*
X2562000Y1527000D02*
X2578000D01*
X2562000Y1528900D02*
X2578000D01*
X2537000Y1527000D02*
Y1533000D01*
X2553000Y1527000D02*
Y1533000D01*
X2537000Y1527000D02*
X2553000D01*
X2537000Y1528900D02*
X2553000D01*
X2512000Y1527000D02*
Y1533000D01*
X2528000Y1527000D02*
Y1533000D01*
X2512000Y1527000D02*
X2528000D01*
X2512000Y1528900D02*
X2528000D01*
X2487000Y1527000D02*
Y1533000D01*
X2503000Y1527000D02*
Y1533000D01*
X2487000Y1527000D02*
X2503000D01*
X2487000Y1528900D02*
X2503000D01*
X2478000Y1002000D02*
Y1008000D01*
X2462000Y1002000D02*
Y1008000D01*
X2478000D01*
X2462000Y1006100D02*
X2478000D01*
X2453000Y1002000D02*
Y1008000D01*
X2437000Y1002000D02*
Y1008000D01*
X2453000D01*
X2437000Y1006100D02*
X2453000D01*
X2428000Y1002000D02*
Y1008000D01*
X2412000Y1002000D02*
Y1008000D01*
X2428000D01*
X2412000Y1006100D02*
X2428000D01*
X2403000Y1002000D02*
Y1008000D01*
X2387000Y1002000D02*
Y1008000D01*
X2403000D01*
X2387000Y1006100D02*
X2403000D01*
X2378000Y1002000D02*
Y1008000D01*
X2362000Y1002000D02*
Y1008000D01*
X2378000D01*
X2362000Y1006100D02*
X2378000D01*
X2353000Y1002000D02*
Y1008000D01*
X2337000Y1002000D02*
Y1008000D01*
X2353000D01*
X2337000Y1006100D02*
X2353000D01*
X2328000Y1002000D02*
Y1008000D01*
X2312000Y1002000D02*
Y1008000D01*
X2328000D01*
X2312000Y1006100D02*
X2328000D01*
X2303000Y1002000D02*
Y1008000D01*
X2287000Y1002000D02*
Y1008000D01*
X2303000D01*
X2287000Y1006100D02*
X2303000D01*
X2278000Y1002000D02*
Y1008000D01*
X2262000Y1002000D02*
Y1008000D01*
X2278000D01*
X2262000Y1006100D02*
X2278000D01*
X2253000Y1002000D02*
Y1008000D01*
X2237000Y1002000D02*
Y1008000D01*
X2253000D01*
X2237000Y1006100D02*
X2253000D01*
X2228000Y1002000D02*
Y1008000D01*
X2212000Y1002000D02*
Y1008000D01*
X2228000D01*
X2212000Y1006100D02*
X2228000D01*
X2203000Y1002000D02*
Y1008000D01*
X2187000Y1002000D02*
Y1008000D01*
X2203000D01*
X2187000Y1006100D02*
X2203000D01*
X2462000Y1527000D02*
Y1533000D01*
X2478000Y1527000D02*
Y1533000D01*
X2462000Y1527000D02*
X2478000D01*
X2462000Y1528900D02*
X2478000D01*
X2437000Y1527000D02*
Y1533000D01*
X2453000Y1527000D02*
Y1533000D01*
X2437000Y1527000D02*
X2453000D01*
X2437000Y1528900D02*
X2453000D01*
X2412000Y1527000D02*
Y1533000D01*
X2428000Y1527000D02*
Y1533000D01*
X2412000Y1527000D02*
X2428000D01*
X2412000Y1528900D02*
X2428000D01*
X2387000Y1527000D02*
Y1533000D01*
X2403000Y1527000D02*
Y1533000D01*
X2387000Y1527000D02*
X2403000D01*
X2387000Y1528900D02*
X2403000D01*
X2362000Y1527000D02*
Y1533000D01*
X2378000Y1527000D02*
Y1533000D01*
X2362000Y1527000D02*
X2378000D01*
X2362000Y1528900D02*
X2378000D01*
X2337000Y1527000D02*
Y1533000D01*
X2353000Y1527000D02*
Y1533000D01*
X2337000Y1527000D02*
X2353000D01*
X2337000Y1528900D02*
X2353000D01*
X2312000Y1527000D02*
Y1533000D01*
X2328000Y1527000D02*
Y1533000D01*
X2312000Y1527000D02*
X2328000D01*
X2312000Y1528900D02*
X2328000D01*
X2287000Y1527000D02*
Y1533000D01*
X2303000Y1527000D02*
Y1533000D01*
X2287000Y1527000D02*
X2303000D01*
X2287000Y1528900D02*
X2303000D01*
X2262000Y1527000D02*
Y1533000D01*
X2278000Y1527000D02*
Y1533000D01*
X2262000Y1527000D02*
X2278000D01*
X2262000Y1528900D02*
X2278000D01*
X2237000Y1527000D02*
Y1533000D01*
X2253000Y1527000D02*
Y1533000D01*
X2237000Y1527000D02*
X2253000D01*
X2237000Y1528900D02*
X2253000D01*
X2212000Y1527000D02*
Y1533000D01*
X2228000Y1527000D02*
Y1533000D01*
X2212000Y1527000D02*
X2228000D01*
X2212000Y1528900D02*
X2228000D01*
X2187000Y1527000D02*
Y1533000D01*
X2203000Y1527000D02*
Y1533000D01*
X2187000Y1527000D02*
X2203000D01*
X2187000Y1528900D02*
X2203000D01*
X858000Y1027001D02*
X882000D01*
X861500Y1028000D02*
Y1044500D01*
X858000Y1045000D02*
X882000D01*
Y1027001D02*
Y1030500D01*
Y1041500D02*
Y1045000D01*
X858000Y1027000D02*
Y1045000D01*
Y1014999D02*
X882000D01*
X878500Y997500D02*
Y1014000D01*
X858000Y997000D02*
X882000D01*
X858000Y1011500D02*
Y1014999D01*
Y997000D02*
Y1000500D01*
X882000Y997000D02*
Y1015000D01*
X2225000Y1141000D02*
X2231000D01*
X2225000Y1127000D02*
X2231000D01*
X2262000Y1141000D02*
X2268000D01*
X2262000Y1127000D02*
X2268000D01*
X2056966Y1006052D02*
X2072966D01*
X2056966Y1007952D02*
X2072966D01*
X2056966Y1001952D02*
Y1007952D01*
X2072966Y1001952D02*
Y1007952D01*
X1932034Y1419948D02*
X1948034D01*
X1932034Y1418048D02*
X1948034D01*
Y1424048D01*
X1932034Y1418048D02*
Y1424048D01*
X1957000Y1419900D02*
X1973000D01*
X1957000Y1418000D02*
X1973000D01*
Y1424000D01*
X1957000Y1418000D02*
Y1424000D01*
X1982000Y1419900D02*
X1998000D01*
X1982000Y1418000D02*
X1998000D01*
Y1424000D01*
X1982000Y1418000D02*
Y1424000D01*
X2007000Y1419900D02*
X2023000D01*
X2007000Y1418000D02*
X2023000D01*
Y1424000D01*
X2007000Y1418000D02*
Y1424000D01*
X2032000Y1419900D02*
X2048000D01*
X2032000Y1418000D02*
X2048000D01*
Y1424000D01*
X2032000Y1418000D02*
Y1424000D01*
X2057000Y1419900D02*
X2073000D01*
X2057000Y1418000D02*
X2073000D01*
Y1424000D01*
X2057000Y1418000D02*
Y1424000D01*
X1932000Y1528900D02*
X1948000D01*
X1932000Y1527000D02*
X1948000D01*
Y1533000D01*
X1932000Y1527000D02*
Y1533000D01*
X1957000Y1528900D02*
X1973000D01*
X1957000Y1527000D02*
X1973000D01*
Y1533000D01*
X1957000Y1527000D02*
Y1533000D01*
X1982000Y1528900D02*
X1998000D01*
X1982000Y1527000D02*
X1998000D01*
Y1533000D01*
X1982000Y1527000D02*
Y1533000D01*
X2031966Y1006052D02*
X2047966D01*
X2031966Y1007952D02*
X2047966D01*
X2031966Y1001952D02*
Y1007952D01*
X2047966Y1001952D02*
Y1007952D01*
X2006966Y1006052D02*
X2022966D01*
X2006966Y1007952D02*
X2022966D01*
X2006966Y1001952D02*
Y1007952D01*
X2022966Y1001952D02*
Y1007952D01*
X1981966Y1006052D02*
X1997966D01*
X1981966Y1007952D02*
X1997966D01*
X1981966Y1001952D02*
Y1007952D01*
X1997966Y1001952D02*
Y1007952D01*
X1956967Y1006052D02*
X1972967D01*
X1956967Y1007952D02*
X1972967D01*
X1956967Y1001952D02*
Y1007952D01*
X1972967Y1001952D02*
Y1007952D01*
X1932000Y1006100D02*
X1948000D01*
X1932000Y1008000D02*
X1948000D01*
X1932000Y1002000D02*
Y1008000D01*
X1948000Y1002000D02*
Y1008000D01*
X2057000Y1106100D02*
X2073000D01*
X2057000Y1108000D02*
X2073000D01*
X2057000Y1102000D02*
Y1108000D01*
X2073000Y1102000D02*
Y1108000D01*
X2031967Y1106052D02*
X2047967D01*
X2031967Y1107952D02*
X2047967D01*
X2031967Y1101952D02*
Y1107952D01*
X2047967Y1101952D02*
Y1107952D01*
X2138000Y1528900D02*
X2154000D01*
X2138000Y1527000D02*
X2154000D01*
Y1533000D01*
X2138000Y1527000D02*
Y1533000D01*
X1981967Y1106052D02*
X1997968D01*
X1981967Y1107952D02*
X1997968D01*
X1981967Y1101952D02*
Y1107952D01*
X1997968Y1101952D02*
Y1107952D01*
X2137000Y1006100D02*
X2153000D01*
X2137000Y1008000D02*
X2153000D01*
X2137000Y1002000D02*
Y1008000D01*
X2153000Y1002000D02*
Y1008000D01*
X2162000Y1006100D02*
X2178000D01*
X2162000Y1008000D02*
X2178000D01*
X2162000Y1002000D02*
Y1008000D01*
X2178000Y1002000D02*
Y1008000D01*
X2057000Y1528900D02*
X2073000D01*
X2057000Y1527000D02*
X2073000D01*
Y1533000D01*
X2057000Y1527000D02*
Y1533000D01*
X2007000Y1528900D02*
X2023000D01*
X2007000Y1527000D02*
X2023000D01*
Y1533000D01*
X2007000Y1527000D02*
Y1533000D01*
X2006967Y1106052D02*
X2022967D01*
X2006967Y1107952D02*
X2022967D01*
X2006967Y1101952D02*
Y1107952D01*
X2022967Y1101952D02*
Y1107952D01*
X1956968Y1106052D02*
X1972968D01*
X1956968Y1107952D02*
X1972968D01*
X1956968Y1101952D02*
Y1107952D01*
X1972968Y1101952D02*
Y1107952D01*
X1931968Y1106052D02*
X1947968D01*
X1931968Y1107952D02*
X1947968D01*
X1931968Y1101952D02*
Y1107952D01*
X1947968Y1101952D02*
Y1107952D01*
X2162000Y1528900D02*
X2178000D01*
X2162000Y1527000D02*
X2178000D01*
Y1533000D01*
X2162000Y1527000D02*
Y1533000D01*
X1963000Y1340000D02*
Y1346000D01*
X1949000Y1340000D02*
Y1346000D01*
X1938000Y1187000D02*
Y1193000D01*
X1952000Y1187000D02*
Y1193000D01*
X1932000Y1340000D02*
Y1346000D01*
X1918000Y1340000D02*
Y1346000D01*
X1913000Y1187000D02*
Y1193000D01*
X1927000Y1187000D02*
Y1193000D01*
X2412000Y1246000D02*
X2430000D01*
X2426500Y1222000D02*
X2430000D01*
X2412001D02*
X2415500D01*
X2430000D02*
Y1246000D01*
X2413000Y1242500D02*
X2429500D01*
X2412001Y1222000D02*
Y1246000D01*
X2424000Y1301000D02*
X2430000D01*
X2424000Y1287000D02*
X2430000D01*
X2440000Y1246000D02*
X2458000D01*
X2454500Y1222000D02*
X2458000D01*
X2440001D02*
X2443500D01*
X2458000D02*
Y1246000D01*
X2441000Y1242500D02*
X2457500D01*
X2440001Y1222000D02*
Y1246000D01*
X2440000Y1287000D02*
X2446000D01*
X2440000Y1301000D02*
X2446000D01*
X858000Y1507000D02*
Y1525000D01*
X882000Y1521500D02*
Y1525000D01*
Y1507001D02*
Y1510500D01*
X858000Y1525000D02*
X882000D01*
X861500Y1508000D02*
Y1524500D01*
X858000Y1507001D02*
X882000D01*
Y1477000D02*
Y1495000D01*
X858000Y1477000D02*
Y1480500D01*
Y1491500D02*
Y1494999D01*
Y1477000D02*
X882000D01*
X878500Y1477500D02*
Y1494000D01*
X858000Y1494999D02*
X882000D01*
X858000Y1447000D02*
Y1465000D01*
X882000Y1461500D02*
Y1465000D01*
Y1447001D02*
Y1450500D01*
X858000Y1465000D02*
X882000D01*
X861500Y1448000D02*
Y1464500D01*
X858000Y1447001D02*
X882000D01*
X882000Y1417000D02*
Y1435000D01*
X858000Y1417000D02*
Y1420500D01*
Y1431500D02*
Y1434999D01*
Y1417000D02*
X882000D01*
X878500Y1417500D02*
Y1434000D01*
X858000Y1434999D02*
X882000D01*
X858000Y1387000D02*
Y1405000D01*
X882000Y1401500D02*
Y1405000D01*
Y1387001D02*
Y1390500D01*
X858000Y1405000D02*
X882000D01*
X861500Y1388000D02*
Y1404500D01*
X858000Y1387001D02*
X882000D01*
Y1357000D02*
Y1375000D01*
X858000Y1357000D02*
Y1360500D01*
Y1371500D02*
Y1374999D01*
Y1357000D02*
X882000D01*
X878500Y1357500D02*
Y1374000D01*
X858000Y1374999D02*
X882000D01*
X858000Y1327000D02*
Y1345000D01*
X882000Y1341500D02*
Y1345000D01*
Y1327001D02*
Y1330500D01*
X858000Y1345000D02*
X882000D01*
X861500Y1328000D02*
Y1344500D01*
X858000Y1327001D02*
X882000D01*
Y1297000D02*
Y1315000D01*
X858000Y1297000D02*
Y1300500D01*
Y1311500D02*
Y1314999D01*
Y1297000D02*
X882000D01*
X878500Y1297500D02*
Y1314000D01*
X858000Y1314999D02*
X882000D01*
X858000Y1267000D02*
Y1285000D01*
X882000Y1281500D02*
Y1285000D01*
Y1267001D02*
Y1270500D01*
X858000Y1285000D02*
X882000D01*
X861500Y1268000D02*
Y1284500D01*
X858000Y1267001D02*
X882000D01*
Y1237000D02*
Y1255000D01*
X858000Y1237000D02*
Y1240500D01*
Y1251500D02*
Y1254999D01*
Y1237000D02*
X882000D01*
X878500Y1237500D02*
Y1254000D01*
X858000Y1254999D02*
X882000D01*
X858000Y1207000D02*
Y1225000D01*
X882000Y1221500D02*
Y1225000D01*
Y1207001D02*
Y1210500D01*
X858000Y1225000D02*
X882000D01*
X861500Y1208000D02*
Y1224500D01*
X858000Y1207001D02*
X882000D01*
X882000Y1177000D02*
Y1195000D01*
X858000Y1177000D02*
Y1180500D01*
Y1191500D02*
Y1194999D01*
Y1177000D02*
X882000D01*
X878500Y1177500D02*
Y1194000D01*
X858000Y1194999D02*
X882000D01*
X858000Y1147000D02*
Y1165000D01*
X882000Y1161500D02*
Y1165000D01*
Y1147001D02*
Y1150500D01*
X858000Y1165000D02*
X882000D01*
X861500Y1148000D02*
Y1164500D01*
X858000Y1147001D02*
X882000D01*
Y1117000D02*
Y1135000D01*
X858000Y1117000D02*
Y1120500D01*
Y1131500D02*
Y1134999D01*
Y1117000D02*
X882000D01*
X878500Y1117500D02*
Y1134000D01*
X858000Y1134999D02*
X882000D01*
X858000Y1087000D02*
Y1105000D01*
X882000Y1101500D02*
Y1105000D01*
Y1087001D02*
Y1090500D01*
X858000Y1105000D02*
X882000D01*
X861500Y1088000D02*
Y1104500D01*
X858000Y1087001D02*
X882000D01*
Y1057000D02*
Y1075000D01*
X858000Y1057000D02*
Y1060500D01*
Y1071500D02*
Y1074999D01*
Y1057000D02*
X882000D01*
X878500Y1057500D02*
Y1074000D01*
X858000Y1074999D02*
X882000D01*
X1903340Y1538100D02*
Y1552070D01*
X1740640D02*
X1903340D01*
X1740640Y1447930D02*
X1903340D01*
Y1461900D01*
Y1068100D02*
Y1082070D01*
X1740640D02*
X1903340D01*
X1740640Y977930D02*
X1903340D01*
Y991900D01*
X1736660Y1132930D02*
Y1146900D01*
Y1132930D02*
X1899360D01*
X1736660Y1237070D02*
X1899360D01*
X1736660Y1223100D02*
Y1237070D01*
X2144000Y1169500D02*
Y1350500D01*
X2086000Y1169500D02*
Y1350500D01*
Y1169500D02*
X2144000D01*
X2086000Y1350500D02*
X2144000D01*
D14*
X2137000Y1179500D02*
G03*
X2137000Y1179500I-3000J0D01*
G01*
D15*
X1318761Y1268998D02*
X1315429D01*
X1317095D01*
Y1260668D01*
X1315429Y1259002D01*
X1313763D01*
X1312097Y1260668D01*
X1322094Y1268998D02*
Y1259002D01*
X1328758D01*
X1338755Y1267332D02*
X1337089Y1268998D01*
X1333756D01*
X1332090Y1267332D01*
Y1260668D01*
X1333756Y1259002D01*
X1337089D01*
X1338755Y1260668D01*
X1348752Y1268998D02*
X1345419D01*
X1347085D01*
Y1260668D01*
X1345419Y1259002D01*
X1343753D01*
X1342087Y1260668D01*
X1352084Y1268998D02*
Y1259002D01*
X1358748D01*
X1368745Y1267332D02*
X1367079Y1268998D01*
X1363747D01*
X1362081Y1267332D01*
Y1260668D01*
X1363747Y1259002D01*
X1367079D01*
X1368745Y1260668D01*
X1378742Y1268998D02*
X1375410D01*
X1377076D01*
Y1260668D01*
X1375410Y1259002D01*
X1373743D01*
X1372077Y1260668D01*
X1382074Y1268998D02*
Y1259002D01*
X1388739D01*
X1398736Y1267332D02*
X1397069Y1268998D01*
X1393737D01*
X1392071Y1267332D01*
Y1260668D01*
X1393737Y1259002D01*
X1397069D01*
X1398736Y1260668D01*
X1408732Y1268998D02*
X1405400D01*
X1407066D01*
Y1260668D01*
X1405400Y1259002D01*
X1403734D01*
X1402068Y1260668D01*
X1412065Y1268998D02*
Y1259002D01*
X1418729D01*
X1428726Y1267332D02*
X1427060Y1268998D01*
X1423727D01*
X1422061Y1267332D01*
Y1260668D01*
X1423727Y1259002D01*
X1427060D01*
X1428726Y1260668D01*
M02*
