G04*
G04 #@! TF.GenerationSoftware,Altium Limited,Altium Designer,18.1.7 (191)*
G04*
G04 Layer_Color=8388736*
%FSLAX44Y44*%
%MOMM*%
G71*
G01*
G75*
%ADD37R,1.6016X1.6016*%
%ADD38R,1.2016X2.1016*%
%ADD39R,1.1016X0.5516*%
%ADD40R,0.7016X0.7016*%
%ADD41R,0.7016X0.7016*%
%ADD42R,0.6516X0.9016*%
%ADD43R,3.0016X5.5016*%
%ADD44R,1.9016X1.7016*%
%ADD45R,0.9016X0.6516*%
%ADD46R,1.9016X2.3016*%
G04:AMPARAMS|DCode=47|XSize=1.5716mm|YSize=0.5816mm|CornerRadius=0.1108mm|HoleSize=0mm|Usage=FLASHONLY|Rotation=270.000|XOffset=0mm|YOffset=0mm|HoleType=Round|Shape=RoundedRectangle|*
%AMROUNDEDRECTD47*
21,1,1.5716,0.3600,0,0,270.0*
21,1,1.3500,0.5816,0,0,270.0*
1,1,0.2216,-0.1800,-0.6750*
1,1,0.2216,-0.1800,0.6750*
1,1,0.2216,0.1800,0.6750*
1,1,0.2216,0.1800,-0.6750*
%
%ADD47ROUNDEDRECTD47*%
%ADD48R,2.3016X1.9016*%
%ADD49O,1.5016X0.4516*%
%ADD50R,6.1016X6.1016*%
G04:AMPARAMS|DCode=51|XSize=2.1016mm|YSize=1.1016mm|CornerRadius=0mm|HoleSize=0mm|Usage=FLASHONLY|Rotation=180.000|XOffset=0mm|YOffset=0mm|HoleType=Round|Shape=Octagon|*
%AMOCTAGOND51*
4,1,8,-1.0508,0.2754,-1.0508,-0.2754,-0.7754,-0.5508,0.7754,-0.5508,1.0508,-0.2754,1.0508,0.2754,0.7754,0.5508,-0.7754,0.5508,-1.0508,0.2754,0.0*
%
%ADD51OCTAGOND51*%

%ADD52R,2.1016X1.1016*%
%ADD53R,10.2616X9.6016*%
%ADD54R,4.6016X1.3516*%
%ADD55O,2.7016X0.7620*%
%ADD56O,2.7016X0.8016*%
%ADD57O,3.1016X2.1016*%
%ADD58R,4.1016X4.1016*%
%ADD59R,2.1016X1.9016*%
%ADD60C,1.4996*%
%ADD61C,2.4566*%
%ADD62C,3.3516*%
%ADD63R,1.4996X1.4996*%
D37*
X1515000Y242954D02*
D03*
Y217046D02*
D03*
X1510000Y832046D02*
D03*
Y857954D02*
D03*
X1965000Y711046D02*
D03*
Y736954D02*
D03*
X1940000Y711046D02*
D03*
Y736954D02*
D03*
X1915000Y711046D02*
D03*
Y736954D02*
D03*
X1890000Y711046D02*
D03*
Y736954D02*
D03*
X1865000Y711046D02*
D03*
Y736954D02*
D03*
X1840000Y711046D02*
D03*
Y736954D02*
D03*
X1990000Y758046D02*
D03*
Y783954D02*
D03*
X2015000Y758046D02*
D03*
Y783954D02*
D03*
X2390000Y711046D02*
D03*
Y736954D02*
D03*
X2365000Y711046D02*
D03*
Y736954D02*
D03*
X2040000Y758046D02*
D03*
Y783954D02*
D03*
X2065000Y758046D02*
D03*
Y783954D02*
D03*
X2090000Y758046D02*
D03*
Y783954D02*
D03*
X2115000Y758046D02*
D03*
Y783954D02*
D03*
X2140000Y758046D02*
D03*
Y783954D02*
D03*
X2165000Y758046D02*
D03*
Y783954D02*
D03*
X2415000Y711046D02*
D03*
Y736954D02*
D03*
X2290000Y758046D02*
D03*
Y783954D02*
D03*
X2265000Y758046D02*
D03*
Y783954D02*
D03*
X2240000Y758046D02*
D03*
Y783954D02*
D03*
X2215000Y758046D02*
D03*
Y783954D02*
D03*
X2190000Y758046D02*
D03*
Y783954D02*
D03*
X2340000Y758046D02*
D03*
Y783954D02*
D03*
X2315000Y758046D02*
D03*
Y783954D02*
D03*
X2365000Y758046D02*
D03*
Y783954D02*
D03*
X2525000Y399954D02*
D03*
Y374046D02*
D03*
X2550000Y399954D02*
D03*
Y374046D02*
D03*
X2600000Y444954D02*
D03*
Y419046D02*
D03*
X2575000Y444954D02*
D03*
Y419046D02*
D03*
X2165000Y711046D02*
D03*
Y736954D02*
D03*
X2190000Y711046D02*
D03*
Y736954D02*
D03*
X2215000Y711046D02*
D03*
Y736954D02*
D03*
X2240000Y711046D02*
D03*
Y736954D02*
D03*
X2265000Y711046D02*
D03*
Y736954D02*
D03*
X2290000Y711046D02*
D03*
Y736954D02*
D03*
X2315000Y711046D02*
D03*
Y736954D02*
D03*
X1915000Y758046D02*
D03*
Y783954D02*
D03*
X1940000Y758046D02*
D03*
Y783954D02*
D03*
X1890000Y758046D02*
D03*
Y783954D02*
D03*
X1840000Y758046D02*
D03*
Y783954D02*
D03*
X1865000Y758046D02*
D03*
Y783954D02*
D03*
X1965000Y758046D02*
D03*
Y783954D02*
D03*
X2340000Y711046D02*
D03*
Y736954D02*
D03*
X2575000Y399954D02*
D03*
Y374046D02*
D03*
X2600000Y399954D02*
D03*
Y374046D02*
D03*
X2525000Y444954D02*
D03*
Y419046D02*
D03*
X2115000Y711046D02*
D03*
Y736954D02*
D03*
X2090000Y711046D02*
D03*
Y736954D02*
D03*
X2065000Y711046D02*
D03*
Y736954D02*
D03*
X2140000Y711046D02*
D03*
Y736954D02*
D03*
X2040000Y711046D02*
D03*
Y736954D02*
D03*
X2015000Y711046D02*
D03*
Y736954D02*
D03*
X1990000Y711046D02*
D03*
Y736954D02*
D03*
X2415000Y758046D02*
D03*
Y783954D02*
D03*
X2390000Y758046D02*
D03*
Y783954D02*
D03*
X2550000Y444954D02*
D03*
Y419046D02*
D03*
X2415000Y336046D02*
D03*
Y361954D02*
D03*
X2390000Y336046D02*
D03*
Y361954D02*
D03*
X2365000Y336046D02*
D03*
Y361954D02*
D03*
X2340000Y336046D02*
D03*
Y361954D02*
D03*
X2415000Y383046D02*
D03*
Y408954D02*
D03*
X2390000Y383046D02*
D03*
Y408954D02*
D03*
X2365000Y383046D02*
D03*
Y408954D02*
D03*
X2340000Y383046D02*
D03*
Y408954D02*
D03*
X2315000Y336046D02*
D03*
Y361954D02*
D03*
X2290000Y336046D02*
D03*
Y361954D02*
D03*
X2265000Y336046D02*
D03*
Y361954D02*
D03*
X2240000Y336046D02*
D03*
Y361954D02*
D03*
X2215000Y336046D02*
D03*
Y361954D02*
D03*
X2190000Y336046D02*
D03*
Y361954D02*
D03*
X2165000Y336046D02*
D03*
Y361954D02*
D03*
X2140000Y336046D02*
D03*
Y361954D02*
D03*
X2115000Y336046D02*
D03*
Y361954D02*
D03*
X2090000Y336046D02*
D03*
Y361954D02*
D03*
X2315000Y383046D02*
D03*
Y408954D02*
D03*
X2290000Y383046D02*
D03*
Y408954D02*
D03*
X2265000Y383046D02*
D03*
Y408954D02*
D03*
X2240000Y383046D02*
D03*
Y408954D02*
D03*
X2215000Y383046D02*
D03*
Y408954D02*
D03*
X2190000Y383046D02*
D03*
Y408954D02*
D03*
X2165000Y383046D02*
D03*
Y408954D02*
D03*
X2140000Y383046D02*
D03*
Y408954D02*
D03*
X2115000Y383046D02*
D03*
Y408954D02*
D03*
X2090000Y383046D02*
D03*
Y408954D02*
D03*
X1890000Y336046D02*
D03*
Y361954D02*
D03*
X1940000Y383046D02*
D03*
Y408954D02*
D03*
X2040000Y383046D02*
D03*
Y408954D02*
D03*
X1990000Y336046D02*
D03*
Y361954D02*
D03*
X1965000Y336046D02*
D03*
Y361954D02*
D03*
X1890000Y383046D02*
D03*
Y408954D02*
D03*
X1990000Y383046D02*
D03*
Y408954D02*
D03*
X1915000Y336046D02*
D03*
Y361954D02*
D03*
X1965000Y383046D02*
D03*
Y408954D02*
D03*
X1865000Y336046D02*
D03*
Y361954D02*
D03*
X1840000Y336046D02*
D03*
Y361954D02*
D03*
X1940000Y336046D02*
D03*
Y361954D02*
D03*
X2040000Y336046D02*
D03*
Y361954D02*
D03*
X2065000Y383046D02*
D03*
Y408954D02*
D03*
X1915000Y383046D02*
D03*
Y408954D02*
D03*
X1865000Y383046D02*
D03*
Y408954D02*
D03*
X2065000Y336046D02*
D03*
Y361954D02*
D03*
X2015000Y383046D02*
D03*
Y408954D02*
D03*
Y336046D02*
D03*
Y361954D02*
D03*
X1840000Y383046D02*
D03*
Y408954D02*
D03*
D38*
X910000Y530000D02*
D03*
X950000D02*
D03*
X950000Y845000D02*
D03*
X910000D02*
D03*
X950000Y495000D02*
D03*
X910000D02*
D03*
Y810000D02*
D03*
X950000D02*
D03*
X910000Y460000D02*
D03*
X950000D02*
D03*
Y775000D02*
D03*
X910000D02*
D03*
X950000Y425000D02*
D03*
X910000D02*
D03*
X910000Y740000D02*
D03*
X950000D02*
D03*
X910000Y390000D02*
D03*
X950000D02*
D03*
Y705000D02*
D03*
X910000D02*
D03*
X950000Y355000D02*
D03*
X910000D02*
D03*
Y670000D02*
D03*
X950000D02*
D03*
X910000Y320000D02*
D03*
X950000D02*
D03*
Y635000D02*
D03*
X910000D02*
D03*
X950000Y285000D02*
D03*
X910000D02*
D03*
Y600000D02*
D03*
X950000D02*
D03*
X910000Y250000D02*
D03*
X950000D02*
D03*
Y565000D02*
D03*
X910000D02*
D03*
X670000Y935000D02*
D03*
X630000D02*
D03*
X670000Y905000D02*
D03*
X630000D02*
D03*
D39*
X564000Y935000D02*
D03*
X586000D02*
D03*
X564000Y905000D02*
D03*
X586000D02*
D03*
X1765000Y578000D02*
D03*
X1743000D02*
D03*
X1764000Y419000D02*
D03*
X1742000D02*
D03*
X1764000Y269000D02*
D03*
X1742000D02*
D03*
X1767000Y729000D02*
D03*
X1745000D02*
D03*
D40*
X605000Y940080D02*
D03*
Y929920D02*
D03*
X615000D02*
D03*
Y940080D02*
D03*
X2579000Y487080D02*
D03*
Y476920D02*
D03*
X2027000Y569918D02*
D03*
Y580078D02*
D03*
X2063000Y642080D02*
D03*
Y631920D02*
D03*
X2209000Y581920D02*
D03*
Y592080D02*
D03*
X2479000Y672920D02*
D03*
Y683080D02*
D03*
X2483000Y471080D02*
D03*
Y460920D02*
D03*
X2457000Y404080D02*
D03*
Y393920D02*
D03*
Y371920D02*
D03*
Y382080D02*
D03*
X2467000Y382080D02*
D03*
Y371920D02*
D03*
X2493000Y471080D02*
D03*
Y460920D02*
D03*
X2590000Y476920D02*
D03*
Y487080D02*
D03*
X2043000Y622080D02*
D03*
Y611920D02*
D03*
Y642080D02*
D03*
Y631920D02*
D03*
X2479000Y694920D02*
D03*
Y705080D02*
D03*
Y650920D02*
D03*
Y661080D02*
D03*
X2601000Y476920D02*
D03*
Y487080D02*
D03*
X2497000Y371920D02*
D03*
Y382080D02*
D03*
X2483000Y492080D02*
D03*
Y481920D02*
D03*
X2467000Y404080D02*
D03*
Y393920D02*
D03*
X470000Y910080D02*
D03*
Y899920D02*
D03*
Y929920D02*
D03*
Y940080D02*
D03*
X605000Y900000D02*
D03*
Y910160D02*
D03*
X485000Y395080D02*
D03*
Y384920D02*
D03*
Y590080D02*
D03*
Y579920D02*
D03*
Y514920D02*
D03*
Y525080D02*
D03*
Y709920D02*
D03*
Y720080D02*
D03*
X615000Y910080D02*
D03*
Y899920D02*
D03*
X2025000Y623078D02*
D03*
Y612918D02*
D03*
X2015000Y623078D02*
D03*
Y612918D02*
D03*
X2489000Y694920D02*
D03*
Y705080D02*
D03*
Y683080D02*
D03*
Y672920D02*
D03*
X2053000Y642080D02*
D03*
Y631920D02*
D03*
Y622080D02*
D03*
Y611920D02*
D03*
X2063000Y612080D02*
D03*
Y601920D02*
D03*
X1846000Y588920D02*
D03*
Y599080D02*
D03*
X1847000Y498080D02*
D03*
Y487920D02*
D03*
X2489000Y650920D02*
D03*
Y661080D02*
D03*
X2015000Y645078D02*
D03*
Y634918D02*
D03*
Y493078D02*
D03*
Y482918D02*
D03*
Y600078D02*
D03*
Y589918D02*
D03*
X2076000Y559918D02*
D03*
Y570078D02*
D03*
X2212000Y553918D02*
D03*
Y564078D02*
D03*
D41*
X629920Y955000D02*
D03*
X640080D02*
D03*
X1538920Y216000D02*
D03*
X1549080D02*
D03*
X1538920Y206000D02*
D03*
X1549080D02*
D03*
X1536920Y856000D02*
D03*
X1547080D02*
D03*
X1536920Y866000D02*
D03*
X1547080D02*
D03*
X1560920Y216000D02*
D03*
X1571080D02*
D03*
X1560920Y206000D02*
D03*
X1571080D02*
D03*
X1560920Y866000D02*
D03*
X1571080D02*
D03*
X1560920Y856000D02*
D03*
X1571080D02*
D03*
X2302080Y575000D02*
D03*
X2291920D02*
D03*
Y586000D02*
D03*
X2302080D02*
D03*
X2197080Y502998D02*
D03*
X2186920D02*
D03*
X2197080Y622000D02*
D03*
X2186920D02*
D03*
X2083080Y612000D02*
D03*
X2072920D02*
D03*
X2114920Y642000D02*
D03*
X2125080D02*
D03*
X2094920Y632000D02*
D03*
X2105080D02*
D03*
X2168080Y631998D02*
D03*
X2157920D02*
D03*
X2105080Y652000D02*
D03*
X2094920D02*
D03*
X1744920Y703000D02*
D03*
X1755080D02*
D03*
X2487080Y372000D02*
D03*
X2476920D02*
D03*
X2197080Y532998D02*
D03*
X2186920D02*
D03*
X2127920Y503000D02*
D03*
X2138080D02*
D03*
X2112080D02*
D03*
X2101920D02*
D03*
X2072920Y602000D02*
D03*
X2083080D02*
D03*
X2094920Y622000D02*
D03*
X2105080D02*
D03*
X2168080Y621998D02*
D03*
X2157920D02*
D03*
X2186920Y632000D02*
D03*
X2197080D02*
D03*
Y612000D02*
D03*
X2186920D02*
D03*
X2105080Y642000D02*
D03*
X2094920D02*
D03*
X1855080Y631998D02*
D03*
X1844920D02*
D03*
X2197080Y563998D02*
D03*
X2186920D02*
D03*
X2197080Y553998D02*
D03*
X2186920D02*
D03*
X2083080Y622000D02*
D03*
X2072920D02*
D03*
X2476920Y382000D02*
D03*
X2487080D02*
D03*
Y362000D02*
D03*
X2476920D02*
D03*
X2065920Y579998D02*
D03*
X2076080D02*
D03*
X2127920Y493000D02*
D03*
X2138080D02*
D03*
X2197080Y582000D02*
D03*
X2186920D02*
D03*
Y592000D02*
D03*
X2197080D02*
D03*
X1855080Y619998D02*
D03*
X1844920D02*
D03*
X1752080Y240000D02*
D03*
X1741920D02*
D03*
X1752080Y393000D02*
D03*
X1741920D02*
D03*
X1742920Y550000D02*
D03*
X1753080D02*
D03*
X1752080Y404000D02*
D03*
X1741920D02*
D03*
X1742920Y562000D02*
D03*
X1753080D02*
D03*
X1752080Y252000D02*
D03*
X1741920D02*
D03*
X1744920Y714000D02*
D03*
X1755080D02*
D03*
X629920Y885000D02*
D03*
X640080D02*
D03*
X1742920Y595000D02*
D03*
X1753080D02*
D03*
X2034080Y504998D02*
D03*
X2023920D02*
D03*
X2034080Y492998D02*
D03*
X2023920D02*
D03*
X2083080Y642000D02*
D03*
X2072920D02*
D03*
X2125080Y622000D02*
D03*
X2114920D02*
D03*
X2125080Y632000D02*
D03*
X2114920D02*
D03*
X1855080Y517998D02*
D03*
X1844920D02*
D03*
X1855080Y568998D02*
D03*
X1844920D02*
D03*
X2072920Y632000D02*
D03*
X2083080D02*
D03*
X2478920Y716000D02*
D03*
X2489080D02*
D03*
X1994920Y657000D02*
D03*
X2005080D02*
D03*
X1752080Y435000D02*
D03*
X1741920D02*
D03*
X1744920Y745000D02*
D03*
X1755080D02*
D03*
X1752080Y285000D02*
D03*
X1741920D02*
D03*
X2005080Y622998D02*
D03*
X1994920D02*
D03*
X2005080Y504998D02*
D03*
X1994920D02*
D03*
X2005080Y634998D02*
D03*
X1994920D02*
D03*
X2005080Y645998D02*
D03*
X1994920D02*
D03*
X1994920Y530998D02*
D03*
X2005080D02*
D03*
X1994840Y611998D02*
D03*
X2005000D02*
D03*
X1994920Y492998D02*
D03*
X2005080D02*
D03*
X1994920Y479998D02*
D03*
X2005080D02*
D03*
X1994920Y600998D02*
D03*
X2005080D02*
D03*
X1994920Y517998D02*
D03*
X2005080D02*
D03*
X2157920Y503000D02*
D03*
X2168080D02*
D03*
X2005080Y469998D02*
D03*
X1994920D02*
D03*
X2157920Y493000D02*
D03*
X2168080D02*
D03*
X2197080Y512998D02*
D03*
X2186920D02*
D03*
X2186920Y602000D02*
D03*
X2197080D02*
D03*
X2197080Y522998D02*
D03*
X2186920D02*
D03*
X2066080Y559998D02*
D03*
X2055920D02*
D03*
X2066080Y569998D02*
D03*
X2055920D02*
D03*
X2186920Y543998D02*
D03*
X2197080D02*
D03*
X2072080Y541998D02*
D03*
X2061920D02*
D03*
D42*
X2297000Y541500D02*
D03*
X2287500Y564500D02*
D03*
X2306500D02*
D03*
X2296800Y619200D02*
D03*
X2306300Y596200D02*
D03*
X2287300D02*
D03*
D43*
X1290000Y535000D02*
D03*
X1190000D02*
D03*
X1290000Y725000D02*
D03*
X1190000D02*
D03*
X2493000Y566000D02*
D03*
X2593000D02*
D03*
X1030000Y725000D02*
D03*
X1130000D02*
D03*
X1190000Y350000D02*
D03*
X1290000D02*
D03*
X1030000D02*
D03*
X1130000D02*
D03*
X1030000Y535000D02*
D03*
X1130000D02*
D03*
X1350000Y725000D02*
D03*
X1450000D02*
D03*
X1350000Y535000D02*
D03*
X1450000D02*
D03*
X1350000Y346998D02*
D03*
X1450000D02*
D03*
D44*
X2165000Y841000D02*
D03*
Y869000D02*
D03*
X2215000Y841000D02*
D03*
Y869000D02*
D03*
X2265000Y841000D02*
D03*
Y869000D02*
D03*
X2040000Y841000D02*
D03*
Y869000D02*
D03*
X1990000Y841000D02*
D03*
Y869000D02*
D03*
X1940000Y841000D02*
D03*
Y869000D02*
D03*
X1890000Y841000D02*
D03*
Y869000D02*
D03*
X1840000Y841000D02*
D03*
Y869000D02*
D03*
X2065000Y841000D02*
D03*
Y869000D02*
D03*
X2115000Y841000D02*
D03*
Y869000D02*
D03*
X2340000Y841000D02*
D03*
Y869000D02*
D03*
X2390000Y841000D02*
D03*
Y869000D02*
D03*
X2140000Y841000D02*
D03*
Y869000D02*
D03*
X2190000Y841000D02*
D03*
Y869000D02*
D03*
X2240000Y841000D02*
D03*
Y869000D02*
D03*
X2290000Y841000D02*
D03*
Y869000D02*
D03*
X2015000Y841000D02*
D03*
Y869000D02*
D03*
X1965000Y841000D02*
D03*
Y869000D02*
D03*
X1915000Y841000D02*
D03*
Y869000D02*
D03*
X1865000Y841000D02*
D03*
Y869000D02*
D03*
X1815000Y841000D02*
D03*
Y869000D02*
D03*
X2090000Y841000D02*
D03*
Y869000D02*
D03*
X2315000Y841000D02*
D03*
Y869000D02*
D03*
X2365000Y841000D02*
D03*
Y869000D02*
D03*
X2415000Y841000D02*
D03*
Y869000D02*
D03*
X2415000Y251000D02*
D03*
Y279000D02*
D03*
X2390000Y251000D02*
D03*
Y279000D02*
D03*
X2365000Y251000D02*
D03*
Y279000D02*
D03*
X2340000Y251000D02*
D03*
Y279000D02*
D03*
X2315000Y251000D02*
D03*
Y279000D02*
D03*
X2290000Y251000D02*
D03*
Y279000D02*
D03*
X2265000Y251000D02*
D03*
Y279000D02*
D03*
X2240000Y251000D02*
D03*
Y279000D02*
D03*
X2215000Y251000D02*
D03*
Y279000D02*
D03*
X2190000Y251000D02*
D03*
Y279000D02*
D03*
X2165000Y251000D02*
D03*
Y279000D02*
D03*
X2140000Y251000D02*
D03*
Y279000D02*
D03*
X2115000Y251000D02*
D03*
Y279000D02*
D03*
X2090000Y251000D02*
D03*
Y279000D02*
D03*
X2065000Y251000D02*
D03*
Y279000D02*
D03*
X1815000Y251000D02*
D03*
Y279000D02*
D03*
X1840000Y251000D02*
D03*
Y279000D02*
D03*
X1865000Y251000D02*
D03*
Y279000D02*
D03*
X1890000Y251000D02*
D03*
Y279000D02*
D03*
X1915000Y251000D02*
D03*
Y279000D02*
D03*
X1940000Y251000D02*
D03*
Y279000D02*
D03*
X1965000Y251000D02*
D03*
Y279000D02*
D03*
X1990000Y251000D02*
D03*
Y279000D02*
D03*
X2015000Y251000D02*
D03*
Y279000D02*
D03*
X2040000Y251000D02*
D03*
Y279000D02*
D03*
D45*
X546500Y910500D02*
D03*
Y929500D02*
D03*
X523500Y920000D02*
D03*
X506500Y890500D02*
D03*
Y909500D02*
D03*
X483500Y900000D02*
D03*
X506500Y930500D02*
D03*
Y949500D02*
D03*
X483500Y940000D02*
D03*
D46*
X1755000Y654000D02*
D03*
X1756000Y616000D02*
D03*
Y306000D02*
D03*
X1755000Y344000D02*
D03*
X1756000Y766000D02*
D03*
X1755000Y804000D02*
D03*
X1756000Y456000D02*
D03*
X1755000Y494000D02*
D03*
D47*
X2499750Y401500D02*
D03*
X2493250D02*
D03*
X2486750D02*
D03*
X2480250D02*
D03*
Y444500D02*
D03*
X2486750D02*
D03*
X2493250D02*
D03*
X2499750D02*
D03*
D48*
X2515000Y478000D02*
D03*
X2553000Y479000D02*
D03*
X674000Y600000D02*
D03*
X636000Y599000D02*
D03*
X819000Y851000D02*
D03*
X781000Y850000D02*
D03*
X636000Y849000D02*
D03*
X674000Y850000D02*
D03*
X781000Y229000D02*
D03*
X819000Y230000D02*
D03*
X674000Y231000D02*
D03*
X636000Y230000D02*
D03*
X781000Y479000D02*
D03*
X819000Y480000D02*
D03*
X781000Y429000D02*
D03*
X819000Y430000D02*
D03*
X781000Y379000D02*
D03*
X819000Y380000D02*
D03*
X781000Y329000D02*
D03*
X819000Y330000D02*
D03*
X781000Y279000D02*
D03*
X819000Y280000D02*
D03*
X674000Y481000D02*
D03*
X636000Y480000D02*
D03*
X673000Y431000D02*
D03*
X635000Y430000D02*
D03*
X674000Y381000D02*
D03*
X636000Y380000D02*
D03*
X674000Y331000D02*
D03*
X636000Y330000D02*
D03*
X674000Y281000D02*
D03*
X636000Y280000D02*
D03*
X819000Y601000D02*
D03*
X781000Y600000D02*
D03*
X819000Y651000D02*
D03*
X781000Y650000D02*
D03*
X819000Y701000D02*
D03*
X781000Y700000D02*
D03*
X819000Y751000D02*
D03*
X781000Y750000D02*
D03*
X819000Y801000D02*
D03*
X781000Y800000D02*
D03*
X636000Y799000D02*
D03*
X674000Y800000D02*
D03*
X636000Y749000D02*
D03*
X674000Y750000D02*
D03*
X636000Y699000D02*
D03*
X674000Y700000D02*
D03*
X636000Y649000D02*
D03*
X674000Y650000D02*
D03*
X1480000Y211000D02*
D03*
X1442000Y210000D02*
D03*
X1480000Y861000D02*
D03*
X1442000Y860000D02*
D03*
D49*
X2164374Y521278D02*
D03*
Y527778D02*
D03*
Y534278D02*
D03*
Y540778D02*
D03*
Y547278D02*
D03*
Y553778D02*
D03*
Y560278D02*
D03*
Y566778D02*
D03*
Y573278D02*
D03*
Y579778D02*
D03*
Y586278D02*
D03*
Y592778D02*
D03*
Y599278D02*
D03*
Y605778D02*
D03*
X2108374Y521278D02*
D03*
Y527778D02*
D03*
Y534278D02*
D03*
Y540778D02*
D03*
Y547278D02*
D03*
Y553778D02*
D03*
Y560278D02*
D03*
Y566778D02*
D03*
Y573278D02*
D03*
Y579778D02*
D03*
Y586278D02*
D03*
Y592778D02*
D03*
Y599278D02*
D03*
Y605778D02*
D03*
D50*
X2575500Y680000D02*
D03*
D51*
X2508000Y704000D02*
D03*
D52*
X2509000Y658000D02*
D03*
D53*
X1610790Y620000D02*
D03*
X1610790Y460000D02*
D03*
X1610790Y310000D02*
D03*
Y770000D02*
D03*
D54*
X1702230Y594600D02*
D03*
Y645400D02*
D03*
X1702230Y434600D02*
D03*
Y485400D02*
D03*
X1702230Y284600D02*
D03*
Y335400D02*
D03*
Y744600D02*
D03*
Y795400D02*
D03*
D55*
X1970782Y479896D02*
D03*
Y492596D02*
D03*
Y505296D02*
D03*
Y517996D02*
D03*
Y530696D02*
D03*
Y543396D02*
D03*
Y556096D02*
D03*
Y568796D02*
D03*
Y581496D02*
D03*
Y594196D02*
D03*
Y606896D02*
D03*
Y619596D02*
D03*
Y632296D02*
D03*
Y644996D02*
D03*
X1878782Y479896D02*
D03*
Y492596D02*
D03*
Y505296D02*
D03*
Y581496D02*
D03*
Y594196D02*
D03*
Y606896D02*
D03*
Y619596D02*
D03*
Y632296D02*
D03*
D56*
Y517996D02*
D03*
Y530696D02*
D03*
Y543396D02*
D03*
Y556096D02*
D03*
Y568796D02*
D03*
Y644996D02*
D03*
D57*
X2544000Y320000D02*
D03*
Y185000D02*
D03*
D58*
X2484000Y288500D02*
D03*
Y216500D02*
D03*
D59*
X2335200Y514000D02*
D03*
Y539400D02*
D03*
Y564800D02*
D03*
Y590200D02*
D03*
Y615600D02*
D03*
X2259000D02*
D03*
Y590200D02*
D03*
Y564800D02*
D03*
Y539400D02*
D03*
Y514000D02*
D03*
D60*
X459148Y592067D02*
D03*
Y569167D02*
D03*
Y683467D02*
D03*
Y706367D02*
D03*
X410848Y673367D02*
D03*
X393048Y663167D02*
D03*
X410848Y652967D02*
D03*
X393048Y642767D02*
D03*
X410848Y632567D02*
D03*
X393048Y622367D02*
D03*
X410848Y612167D02*
D03*
X459148Y397067D02*
D03*
Y374168D02*
D03*
Y488467D02*
D03*
Y511367D02*
D03*
X410848Y478368D02*
D03*
X393048Y468167D02*
D03*
X410848Y457967D02*
D03*
X393048Y447767D02*
D03*
X410848Y437567D02*
D03*
X393048Y427368D02*
D03*
X410848Y417168D02*
D03*
D61*
X401948Y556467D02*
D03*
Y719067D02*
D03*
Y361468D02*
D03*
Y524067D02*
D03*
D62*
X367648Y574267D02*
D03*
Y701267D02*
D03*
Y379268D02*
D03*
Y506268D02*
D03*
D63*
X393048Y601967D02*
D03*
Y406968D02*
D03*
M02*
