G04*
G04 #@! TF.GenerationSoftware,Altium Limited,Altium Designer,18.1.7 (191)*
G04*
G04 Layer_Color=65535*
%FSLAX44Y44*%
%MOMM*%
G71*
G01*
G75*
%ADD10C,0.2000*%
%ADD11C,0.6000*%
%ADD12C,0.2500*%
%ADD13C,0.2032*%
%ADD14C,0.1270*%
%ADD15C,0.1500*%
%ADD16C,0.2540*%
%ADD17C,0.1800*%
G36*
X1164715Y920107D02*
X1164924Y920065D01*
X1165132Y919982D01*
X1165424Y919857D01*
X1165674Y919690D01*
X1165965Y919441D01*
X1166007Y919399D01*
X1166132Y919316D01*
X1166298Y919191D01*
X1166423Y919024D01*
X1166465Y918982D01*
X1166548Y918857D01*
X1166632Y918691D01*
X1166757Y918483D01*
X1166715Y918441D01*
X1166673Y918316D01*
X1166590Y918149D01*
X1166507Y917983D01*
X1166465Y917941D01*
X1166423Y917816D01*
X1166298Y917649D01*
X1166173Y917524D01*
X1166132Y917483D01*
X1166007Y917441D01*
X1165799Y917316D01*
X1165549Y917150D01*
X1165215Y916983D01*
X1164882Y916775D01*
X1164132Y916316D01*
X1164091Y916275D01*
X1163966Y916233D01*
X1163757Y916150D01*
X1163508Y915983D01*
X1163174Y915858D01*
X1162841Y915650D01*
X1162133Y915275D01*
X1162091D01*
X1161966Y915233D01*
X1161800D01*
X1161550Y915275D01*
X1161466Y915317D01*
X1161300Y915400D01*
X1161133Y915525D01*
X1161008Y915692D01*
Y915733D01*
X1160966Y915816D01*
X1160925Y915941D01*
Y916191D01*
Y916441D01*
X1160966Y916775D01*
X1161091Y917191D01*
X1161258Y917649D01*
X1161300Y917691D01*
X1161383Y917858D01*
X1161550Y918108D01*
X1161716Y918399D01*
X1162216Y919024D01*
X1162508Y919357D01*
X1162841Y919649D01*
X1162883Y919690D01*
X1162966Y919732D01*
X1163133Y919816D01*
X1163341Y919899D01*
X1163841Y920065D01*
X1164132Y920149D01*
X1164549D01*
X1164715Y920107D01*
D02*
G37*
G36*
X1145179Y924106D02*
X1145762Y924064D01*
X1145845D01*
X1146054Y924023D01*
X1146345D01*
X1146720Y923981D01*
X1147220Y923898D01*
X1147720Y923856D01*
X1148803Y923731D01*
X1148886D01*
X1149053Y923689D01*
X1149303Y923606D01*
X1149636Y923481D01*
X1150011Y923273D01*
X1150344Y923065D01*
X1150677Y922731D01*
X1150969Y922356D01*
X1151011Y922315D01*
X1151094Y922148D01*
X1151177Y921940D01*
X1151302Y921648D01*
X1151386Y921273D01*
X1151469Y920857D01*
Y920399D01*
X1151427Y919899D01*
Y919857D01*
X1151386Y919816D01*
X1151344Y919690D01*
X1151302Y919524D01*
X1151219Y919316D01*
X1151136Y919066D01*
X1150886Y918441D01*
X1150511Y917733D01*
X1150011Y916899D01*
X1149386Y915983D01*
X1148636Y915025D01*
X1148595Y914983D01*
X1148553Y914900D01*
X1148386Y914775D01*
X1148220Y914650D01*
X1148011Y914442D01*
X1147762Y914234D01*
X1147428Y913984D01*
X1147095Y913775D01*
X1146262Y913317D01*
X1145262Y912901D01*
X1144721Y912776D01*
X1144137Y912651D01*
X1143513Y912567D01*
X1142680D01*
X1142430Y912609D01*
X1142138Y912651D01*
X1141763Y912734D01*
X1141430Y912817D01*
X1141055Y912984D01*
X1140722Y913192D01*
X1140680Y913234D01*
X1140555Y913276D01*
X1140388Y913400D01*
X1140180Y913609D01*
X1139930Y913817D01*
X1139639Y914109D01*
X1139389Y914442D01*
X1139139Y914858D01*
Y914900D01*
X1139097Y914983D01*
X1139055Y915108D01*
X1139014Y915275D01*
X1138972Y915483D01*
Y915733D01*
X1139014Y915983D01*
X1139139Y916233D01*
Y916275D01*
X1139222Y916358D01*
X1139389Y916608D01*
X1139722Y916941D01*
X1139930Y917066D01*
X1140180Y917191D01*
X1140222D01*
X1140305Y917233D01*
X1140430D01*
X1140597Y917274D01*
X1141013Y917316D01*
X1141471Y917274D01*
X1141555D01*
X1141680Y917233D01*
X1141805Y917150D01*
X1141930Y917025D01*
X1142055Y916816D01*
X1142138Y916566D01*
X1142180Y916233D01*
Y916191D01*
X1142221Y916066D01*
Y915941D01*
X1142305Y915733D01*
X1142471Y915400D01*
X1142638Y915275D01*
X1142804Y915192D01*
X1142888D01*
X1143138Y915150D01*
X1143471D01*
X1143929Y915192D01*
X1144013D01*
X1144179Y915275D01*
X1144471Y915358D01*
X1144804Y915525D01*
X1145220Y915733D01*
X1145679Y916066D01*
X1146137Y916483D01*
X1146553Y917025D01*
X1146595Y917108D01*
X1146762Y917316D01*
X1146928Y917608D01*
X1147137Y917983D01*
X1147345Y918483D01*
X1147512Y918982D01*
X1147595Y919524D01*
Y920065D01*
Y920107D01*
Y920232D01*
X1147553Y920399D01*
X1147512Y920607D01*
X1147428Y920815D01*
X1147345Y921065D01*
X1147178Y921273D01*
X1146970Y921482D01*
X1146928D01*
X1146887Y921565D01*
X1146762Y921607D01*
X1146637Y921690D01*
X1146220Y921815D01*
X1145679Y921898D01*
X1145179D01*
X1144679Y921815D01*
X1144096Y921732D01*
X1143971D01*
X1143804Y921690D01*
X1143638Y921648D01*
X1143138Y921523D01*
X1142638Y921357D01*
X1142596D01*
X1142513Y921315D01*
X1142388Y921273D01*
X1142180Y921190D01*
X1141971Y921107D01*
X1141680Y920982D01*
X1141055Y920690D01*
X1140347Y920315D01*
X1139555Y919899D01*
X1138722Y919399D01*
X1137931Y918857D01*
X1137889D01*
X1137847Y918774D01*
X1137722Y918691D01*
X1137556Y918566D01*
X1137181Y918232D01*
X1136639Y917774D01*
X1136014Y917233D01*
X1135348Y916608D01*
X1134681Y915941D01*
X1133973Y915192D01*
X1133932Y915150D01*
X1133890Y915067D01*
X1133765Y914942D01*
X1133598Y914775D01*
X1133390Y914567D01*
X1133182Y914317D01*
X1132640Y913692D01*
X1131974Y912901D01*
X1131307Y912067D01*
X1130599Y911151D01*
X1129891Y910151D01*
Y910110D01*
X1129808Y910026D01*
X1129725Y909901D01*
X1129558Y909693D01*
X1129391Y909443D01*
X1129225Y909152D01*
X1129016Y908818D01*
X1128766Y908443D01*
X1128267Y907569D01*
X1127683Y906610D01*
X1127142Y905569D01*
X1126600Y904444D01*
X1126559Y904361D01*
X1126475Y904194D01*
X1126350Y903903D01*
X1126184Y903528D01*
X1126017Y903070D01*
X1125809Y902528D01*
X1125601Y901987D01*
X1125434Y901404D01*
Y901320D01*
X1125392Y901154D01*
X1125351Y900820D01*
X1125267Y900404D01*
X1125226Y899904D01*
X1125184Y899362D01*
Y898737D01*
Y898113D01*
Y898029D01*
X1125226Y897821D01*
X1125267Y897488D01*
X1125351Y897071D01*
X1125475Y896613D01*
X1125642Y896071D01*
X1125892Y895530D01*
X1126225Y895030D01*
X1126267Y894988D01*
X1126392Y894822D01*
X1126600Y894614D01*
X1126892Y894364D01*
X1127267Y894072D01*
X1127683Y893822D01*
X1128225Y893531D01*
X1128850Y893322D01*
X1128891D01*
X1128975Y893281D01*
X1129100Y893239D01*
X1129266Y893197D01*
X1129516Y893156D01*
X1129766Y893114D01*
X1130433Y893072D01*
X1131182D01*
X1132099Y893114D01*
X1133057Y893322D01*
X1133557Y893447D01*
X1134057Y893655D01*
X1134098D01*
X1134182Y893697D01*
X1134348Y893781D01*
X1134515Y893864D01*
X1135056Y894114D01*
X1135681Y894447D01*
X1136348Y894947D01*
X1137014Y895488D01*
X1137639Y896197D01*
X1138181Y896988D01*
X1138222Y897030D01*
X1138306Y897196D01*
X1138389Y897446D01*
X1138514Y897738D01*
X1138556Y897821D01*
X1138597Y897988D01*
X1138639Y898238D01*
X1138680Y898529D01*
Y898571D01*
X1138722Y898696D01*
X1138680Y898946D01*
X1138597Y899237D01*
X1138556Y899279D01*
X1138472Y899404D01*
X1138347Y899571D01*
X1138181Y899654D01*
X1138139Y899696D01*
X1138056Y899737D01*
X1137847D01*
X1137556Y899654D01*
X1137473D01*
X1137347Y899571D01*
X1137139Y899487D01*
X1136973Y899321D01*
X1136931Y899279D01*
X1136806Y899154D01*
X1136681Y898904D01*
X1136598Y898613D01*
X1136556Y898571D01*
X1136514Y898404D01*
X1136389Y898154D01*
X1136264Y897821D01*
Y897779D01*
X1136181Y897654D01*
X1136098Y897488D01*
X1135973Y897321D01*
X1135640Y896863D01*
X1135431Y896696D01*
X1135223Y896530D01*
X1135181D01*
X1135098Y896488D01*
X1134931Y896446D01*
X1134765Y896405D01*
X1134515Y896363D01*
X1133890D01*
X1133557Y896446D01*
X1133515D01*
X1133432Y896488D01*
X1133265Y896530D01*
X1133057Y896613D01*
X1132849Y896738D01*
X1132640Y896905D01*
X1132432Y897071D01*
X1132265Y897321D01*
Y897363D01*
X1132224Y897446D01*
X1132141Y897571D01*
X1132099Y897779D01*
X1132016Y898029D01*
X1131974Y898321D01*
Y898654D01*
Y899071D01*
Y899154D01*
X1132016Y899321D01*
X1132099Y899571D01*
X1132182Y899904D01*
X1132307Y900279D01*
X1132515Y900654D01*
X1132765Y901070D01*
X1133099Y901404D01*
X1133140Y901445D01*
X1133307Y901528D01*
X1133515Y901695D01*
X1133807Y901862D01*
X1134140Y902070D01*
X1134557Y902320D01*
X1135473Y902737D01*
X1135556D01*
X1135723Y902820D01*
X1135973Y902861D01*
X1136348Y902945D01*
X1136723Y902986D01*
X1137181Y903070D01*
X1138222D01*
X1138389Y903028D01*
X1138639Y902945D01*
X1138972Y902861D01*
X1139347Y902695D01*
X1139764Y902445D01*
X1140180Y902153D01*
X1140597Y901778D01*
X1140638Y901737D01*
X1140763Y901612D01*
X1140972Y901404D01*
X1141180Y901154D01*
X1141430Y900820D01*
X1141638Y900445D01*
X1141763Y900029D01*
X1141846Y899571D01*
Y899529D01*
Y899362D01*
X1141888Y899112D01*
Y898821D01*
X1141846Y898446D01*
X1141805Y897988D01*
X1141680Y897571D01*
X1141555Y897071D01*
Y897030D01*
X1141513Y896946D01*
X1141471Y896821D01*
X1141388Y896655D01*
X1141180Y896197D01*
X1140888Y895655D01*
X1140513Y895030D01*
X1140014Y894405D01*
X1139430Y893822D01*
X1138764Y893322D01*
X1138722D01*
X1138680Y893281D01*
X1138556Y893197D01*
X1138431Y893114D01*
X1138014Y892864D01*
X1137473Y892572D01*
X1136848Y892239D01*
X1136140Y891906D01*
X1135348Y891573D01*
X1134515Y891281D01*
X1134473D01*
X1134348Y891239D01*
X1134140Y891156D01*
X1133890Y891115D01*
X1133598Y891031D01*
X1133224Y890948D01*
X1132432Y890864D01*
X1132224D01*
X1132016Y890823D01*
X1131724D01*
X1131391Y890781D01*
X1131016Y890740D01*
X1130224Y890615D01*
X1129933D01*
X1129558Y890656D01*
X1129100Y890698D01*
X1128516Y890781D01*
X1127850Y890864D01*
X1127142Y891031D01*
X1126350Y891198D01*
X1125559Y891448D01*
X1124726Y891739D01*
X1123893Y892073D01*
X1123101Y892531D01*
X1122351Y893031D01*
X1121601Y893614D01*
X1120977Y894280D01*
X1120394Y895030D01*
X1120352Y895072D01*
X1120268Y895238D01*
X1120185Y895488D01*
X1120019Y895822D01*
X1119852Y896238D01*
X1119685Y896738D01*
X1119560Y897321D01*
X1119394Y897988D01*
X1119311Y898737D01*
X1119269Y899529D01*
Y900445D01*
X1119352Y901362D01*
X1119519Y902403D01*
X1119769Y903445D01*
X1120144Y904611D01*
X1120643Y905777D01*
Y905819D01*
X1120685Y905861D01*
X1120810Y906111D01*
X1120977Y906486D01*
X1121268Y906944D01*
X1121601Y907569D01*
X1122018Y908277D01*
X1122476Y909068D01*
X1123018Y909901D01*
X1123643Y910818D01*
X1124309Y911734D01*
X1125059Y912692D01*
X1125851Y913650D01*
X1126725Y914650D01*
X1127642Y915566D01*
X1128600Y916483D01*
X1129641Y917358D01*
X1129725Y917399D01*
X1129891Y917566D01*
X1130224Y917774D01*
X1130641Y918108D01*
X1131182Y918441D01*
X1131849Y918899D01*
X1132557Y919357D01*
X1133432Y919857D01*
X1134348Y920357D01*
X1135348Y920899D01*
X1136431Y921440D01*
X1137597Y921982D01*
X1138805Y922523D01*
X1140097Y923023D01*
X1141430Y923481D01*
X1142804Y923898D01*
X1142888D01*
X1143054Y923939D01*
X1143304Y924023D01*
X1143679Y924064D01*
X1144137Y924106D01*
X1144637Y924148D01*
X1145179Y924106D01*
D02*
G37*
G36*
X1218035Y919482D02*
X1218327Y919441D01*
X1218618Y919357D01*
X1218660D01*
X1218743Y919316D01*
X1218910Y919232D01*
X1219118Y919107D01*
X1219535Y918816D01*
X1219701Y918607D01*
X1219868Y918399D01*
Y918357D01*
X1219910Y918232D01*
X1219951Y918024D01*
Y917733D01*
Y917649D01*
Y917483D01*
X1219868Y917316D01*
X1219785Y917191D01*
X1219743Y917150D01*
X1219576Y917025D01*
X1219368Y916858D01*
X1219035Y916650D01*
X1218702Y916400D01*
X1218285Y916108D01*
X1217410Y915525D01*
X1217369Y915483D01*
X1217202Y915400D01*
X1216952Y915275D01*
X1216619Y915150D01*
X1216202Y914983D01*
X1215744Y914817D01*
X1215244Y914650D01*
X1214703Y914483D01*
Y914567D01*
X1214661Y914775D01*
X1214619Y915108D01*
Y915525D01*
X1214661Y916025D01*
X1214703Y916566D01*
X1214869Y917108D01*
X1215078Y917649D01*
X1215119Y917691D01*
X1215203Y917858D01*
X1215328Y918108D01*
X1215577Y918399D01*
X1215827Y918691D01*
X1216202Y918982D01*
X1216661Y919232D01*
X1217160Y919441D01*
X1217202D01*
X1217285Y919482D01*
X1217410D01*
X1217577Y919524D01*
X1218035Y919482D01*
D02*
G37*
G36*
X1053661Y924731D02*
X1053994Y924689D01*
X1054410Y924648D01*
X1054869Y924606D01*
X1055368Y924523D01*
X1056452Y924314D01*
X1057660Y924023D01*
X1058909Y923648D01*
X1060159Y923106D01*
X1060201D01*
X1060284Y923023D01*
X1060492Y922940D01*
X1060701Y922815D01*
X1060992Y922690D01*
X1061325Y922481D01*
X1061700Y922273D01*
X1062117Y922023D01*
X1063033Y921398D01*
X1063991Y920649D01*
X1065033Y919774D01*
X1066074Y918774D01*
X1066116Y918732D01*
X1066241Y918607D01*
X1066449Y918399D01*
X1066699Y918149D01*
X1066741Y918108D01*
X1066866Y917983D01*
X1067032Y917774D01*
X1067199Y917524D01*
X1067282Y917483D01*
X1067365Y917441D01*
X1067532D01*
X1067615Y917399D01*
X1067782Y917316D01*
X1067990Y917191D01*
X1068032Y917233D01*
X1068074Y917274D01*
X1068282Y917524D01*
X1068574Y917858D01*
X1068865Y918232D01*
X1068907Y918274D01*
X1068948Y918316D01*
X1069157Y918566D01*
X1069448Y918899D01*
X1069823Y919274D01*
X1069865Y919316D01*
X1069948Y919399D01*
X1070073Y919524D01*
X1070240Y919690D01*
X1070490Y919899D01*
X1070781Y920149D01*
X1071073Y920399D01*
X1071448Y920690D01*
X1072281Y921315D01*
X1073197Y921982D01*
X1074280Y922565D01*
X1075405Y923106D01*
X1075447D01*
X1075530Y923148D01*
X1075697Y923231D01*
X1075947Y923315D01*
X1076238Y923439D01*
X1076571Y923523D01*
X1076946Y923648D01*
X1077363Y923814D01*
X1078321Y924064D01*
X1079446Y924314D01*
X1080654Y924481D01*
X1081945Y924606D01*
X1082362D01*
X1082695Y924648D01*
X1083528D01*
X1084028Y924606D01*
X1084569D01*
X1085194Y924564D01*
X1085819Y924523D01*
X1087235Y924398D01*
X1088693Y924148D01*
X1090151Y923814D01*
X1090193D01*
X1090318Y923773D01*
X1090526Y923689D01*
X1090818Y923606D01*
X1091151Y923481D01*
X1091568Y923315D01*
X1092026Y923106D01*
X1092526Y922898D01*
X1093650Y922356D01*
X1094858Y921690D01*
X1096108Y920857D01*
X1097358Y919899D01*
X1097399Y919857D01*
X1097483Y919816D01*
X1097608Y919690D01*
X1097774Y919524D01*
X1098232Y919107D01*
X1098816Y918524D01*
X1099441Y917816D01*
X1100149Y917025D01*
X1100815Y916150D01*
X1101482Y915192D01*
Y915150D01*
X1101565Y915067D01*
X1101648Y914942D01*
X1101773Y914733D01*
X1101898Y914525D01*
X1102065Y914234D01*
X1102398Y913525D01*
X1102815Y912734D01*
X1103190Y911776D01*
X1103565Y910734D01*
X1103898Y909610D01*
Y909568D01*
X1103939Y909401D01*
X1103981Y909193D01*
X1104064Y908860D01*
X1104106Y908443D01*
X1104189Y907985D01*
Y907485D01*
X1104231Y906902D01*
Y906277D01*
X1104189Y905611D01*
X1104106Y904944D01*
X1103939Y904236D01*
X1103773Y903528D01*
X1103523Y902778D01*
X1103190Y902028D01*
X1102773Y901320D01*
X1102731Y901279D01*
X1102648Y901154D01*
X1102523Y900987D01*
X1102315Y900737D01*
X1102065Y900445D01*
X1101773Y900070D01*
X1101398Y899737D01*
X1100982Y899321D01*
X1100524Y898946D01*
X1099982Y898529D01*
X1099399Y898154D01*
X1098732Y897779D01*
X1098066Y897446D01*
X1097316Y897155D01*
X1096525Y896905D01*
X1095650Y896696D01*
X1095608D01*
X1095442Y896655D01*
X1095233Y896613D01*
X1094900Y896571D01*
X1094525Y896530D01*
X1094067Y896488D01*
X1093567Y896446D01*
X1092984Y896405D01*
X1091734D01*
X1090359Y896488D01*
X1088943Y896696D01*
X1088235Y896863D01*
X1087527Y897071D01*
X1087485D01*
X1087360Y897113D01*
X1087152Y897196D01*
X1086902Y897321D01*
X1086569Y897446D01*
X1086152Y897654D01*
X1085736Y897863D01*
X1085236Y898113D01*
X1084736Y898404D01*
X1084194Y898737D01*
X1083611Y899112D01*
X1083028Y899529D01*
X1082445Y899987D01*
X1081862Y900529D01*
X1081320Y901070D01*
X1080737Y901695D01*
X1080695Y901737D01*
X1080570Y901903D01*
X1080404Y902112D01*
X1080154Y902445D01*
X1079904Y902820D01*
X1079654Y903236D01*
X1079446Y903695D01*
X1079237Y904194D01*
Y904236D01*
X1079154Y904444D01*
X1079071Y904694D01*
X1079029Y905069D01*
X1078946Y905486D01*
X1078904Y905986D01*
X1078863Y906486D01*
X1078904Y907069D01*
Y907152D01*
X1078946Y907360D01*
X1078988Y907652D01*
X1079112Y908027D01*
X1079237Y908443D01*
X1079404Y908902D01*
X1079654Y909360D01*
X1079946Y909776D01*
X1079987Y909818D01*
X1080112Y909943D01*
X1080320Y910151D01*
X1080570Y910359D01*
X1080904Y910610D01*
X1081320Y910901D01*
X1081778Y911151D01*
X1082278Y911359D01*
X1082362D01*
X1082528Y911401D01*
X1082778Y911484D01*
X1083111Y911526D01*
X1083944D01*
X1084403Y911484D01*
X1084819Y911359D01*
X1084861Y911318D01*
X1085028Y911276D01*
X1085236Y911151D01*
X1085486Y910943D01*
X1085819Y910734D01*
X1086152Y910484D01*
X1086486Y910151D01*
X1086819Y909776D01*
X1086860Y909735D01*
X1086902Y909651D01*
X1087027Y909526D01*
X1087152Y909360D01*
X1087444Y908902D01*
X1087777Y908402D01*
X1087819Y908360D01*
X1087860Y908277D01*
X1087985Y908152D01*
X1088110Y907943D01*
X1088402Y907485D01*
X1088735Y906902D01*
X1088777Y906819D01*
X1088943Y906652D01*
X1089152Y906361D01*
X1089443Y906027D01*
X1089818Y905652D01*
X1090276Y905277D01*
X1090776Y904986D01*
X1091359Y904736D01*
X1091443D01*
X1091651Y904653D01*
X1091943Y904611D01*
X1092359Y904569D01*
X1092817D01*
X1093359Y904653D01*
X1093900Y904819D01*
X1094483Y905069D01*
X1094567Y905111D01*
X1094733Y905236D01*
X1095025Y905403D01*
X1095317Y905694D01*
X1095692Y906027D01*
X1096025Y906444D01*
X1096316Y906944D01*
X1096525Y907527D01*
X1096566Y907610D01*
X1096608Y907819D01*
X1096650Y908152D01*
X1096691Y908568D01*
Y909068D01*
X1096608Y909651D01*
X1096483Y910276D01*
X1096233Y910901D01*
X1096191Y910943D01*
X1096150Y911109D01*
X1096025Y911318D01*
X1095858Y911651D01*
X1095608Y912026D01*
X1095317Y912442D01*
X1094983Y912901D01*
X1094567Y913442D01*
X1094109Y913942D01*
X1093609Y914483D01*
X1093026Y915025D01*
X1092359Y915566D01*
X1091609Y916108D01*
X1090818Y916608D01*
X1089985Y917025D01*
X1089026Y917441D01*
X1088985Y917483D01*
X1088777Y917524D01*
X1088527Y917608D01*
X1088152Y917733D01*
X1087694Y917858D01*
X1087152Y917983D01*
X1086527Y918066D01*
X1085861Y918191D01*
X1085111Y918274D01*
X1084361Y918316D01*
X1083528D01*
X1082737Y918232D01*
X1081862Y918149D01*
X1081029Y917941D01*
X1080154Y917691D01*
X1079321Y917358D01*
X1079279D01*
X1079237Y917316D01*
X1079112Y917233D01*
X1078946Y917150D01*
X1078529Y916941D01*
X1078029Y916608D01*
X1077446Y916191D01*
X1076863Y915692D01*
X1076280Y915067D01*
X1075738Y914400D01*
X1075697Y914317D01*
X1075530Y914067D01*
X1075280Y913692D01*
X1074988Y913192D01*
X1074655Y912609D01*
X1074322Y911901D01*
X1073989Y911151D01*
X1073739Y910318D01*
Y910276D01*
X1073697Y910151D01*
X1073655Y909985D01*
X1073614Y909735D01*
X1073531Y909443D01*
X1073447Y909068D01*
X1073364Y908693D01*
X1073322Y908235D01*
X1073156Y907235D01*
X1072989Y906069D01*
X1072906Y904861D01*
X1072864Y903611D01*
Y903570D01*
Y903445D01*
Y903278D01*
Y903028D01*
X1072906Y902737D01*
X1072947Y902362D01*
Y901945D01*
X1073031Y901487D01*
X1073156Y900445D01*
X1073364Y899321D01*
X1073655Y898113D01*
X1074030Y896863D01*
X1074072Y896780D01*
X1074114Y896613D01*
X1074239Y896321D01*
X1074364Y896030D01*
X1074530Y895697D01*
X1074697Y895363D01*
X1074905Y895113D01*
X1075072Y894947D01*
X1075155D01*
X1075280Y894905D01*
X1075780D01*
X1076113Y894947D01*
X1076571Y895030D01*
X1077155Y895155D01*
X1077196D01*
X1077280Y895197D01*
X1077404D01*
X1077571Y895238D01*
X1078029Y895322D01*
X1078613Y895363D01*
X1079321Y895447D01*
X1080112Y895488D01*
X1080987Y895447D01*
X1081862Y895405D01*
X1081945D01*
X1082070Y895363D01*
X1082237Y895322D01*
X1082695Y895238D01*
X1083278Y895072D01*
X1083944Y894905D01*
X1084736Y894655D01*
X1085569Y894364D01*
X1086402Y893989D01*
X1086444D01*
X1086569Y893905D01*
X1086652D01*
X1086819Y893822D01*
X1086860Y893781D01*
X1087027Y893697D01*
X1087277Y893531D01*
X1087569Y893281D01*
X1087943Y893031D01*
X1088318Y892697D01*
X1089110Y891989D01*
X1089152Y891948D01*
X1089277Y891823D01*
X1089401Y891573D01*
X1089610Y891281D01*
X1089776Y890864D01*
X1089901Y890406D01*
X1090026Y889865D01*
X1090068Y889282D01*
Y889198D01*
Y888990D01*
X1090026Y888657D01*
X1089943Y888282D01*
X1089818Y887824D01*
X1089610Y887365D01*
X1089360Y886907D01*
X1089026Y886491D01*
X1088985Y886449D01*
X1088818Y886324D01*
X1088568Y886116D01*
X1088277Y885908D01*
X1087902Y885658D01*
X1087444Y885366D01*
X1086985Y885116D01*
X1086486Y884866D01*
X1086444D01*
X1086361Y884824D01*
X1086194Y884741D01*
X1085986Y884658D01*
X1085694Y884575D01*
X1085361Y884449D01*
X1085028Y884324D01*
X1084611Y884241D01*
X1083695Y883991D01*
X1082695Y883825D01*
X1081653Y883700D01*
X1080445D01*
X1080279Y883741D01*
X1080070D01*
X1079779Y883783D01*
X1079487Y883825D01*
X1078737Y883991D01*
X1077863Y884241D01*
X1076905Y884616D01*
X1075905Y885116D01*
X1075363Y885408D01*
X1074864Y885741D01*
X1074822Y885782D01*
X1074738Y885824D01*
X1074614Y885908D01*
X1074405Y886032D01*
X1073989Y886199D01*
X1073781Y886241D01*
X1073531D01*
X1073489Y886199D01*
X1073239Y886116D01*
X1073114Y885991D01*
X1072906Y885824D01*
X1072739Y885616D01*
X1072531Y885366D01*
Y885324D01*
X1072448Y885241D01*
X1072364Y885116D01*
X1072239Y884908D01*
X1072114Y884699D01*
X1071948Y884408D01*
X1071573Y883741D01*
X1071156Y882950D01*
X1070740Y882075D01*
X1070323Y881075D01*
X1069990Y880076D01*
Y880034D01*
X1069948Y879951D01*
X1069906Y879784D01*
X1069865Y879576D01*
X1069823Y879326D01*
X1069781Y879034D01*
X1069698Y878659D01*
X1069657Y878284D01*
X1069573Y877410D01*
X1069531Y876368D01*
Y875285D01*
X1069657Y874119D01*
Y874077D01*
Y874035D01*
X1069698Y873911D01*
X1069740Y873744D01*
X1069823Y873369D01*
X1070031Y872869D01*
X1070240Y872286D01*
X1070573Y871661D01*
X1070990Y871036D01*
X1071489Y870453D01*
X1071573Y870411D01*
X1071739Y870203D01*
X1072073Y869995D01*
X1072489Y869703D01*
X1073031Y869370D01*
X1073655Y869120D01*
X1074364Y868870D01*
X1075155Y868704D01*
X1075863D01*
X1076405Y868787D01*
X1076988Y868912D01*
X1077696Y869078D01*
X1078446Y869370D01*
X1079237Y869787D01*
X1079279D01*
X1079321Y869828D01*
X1079571Y870036D01*
X1079946Y870286D01*
X1080404Y870661D01*
X1080904Y871078D01*
X1081362Y871619D01*
X1081778Y872203D01*
X1082112Y872828D01*
Y872869D01*
X1082153Y872994D01*
X1082195Y873161D01*
X1082237Y873411D01*
Y873661D01*
Y873952D01*
X1082153Y874285D01*
X1082028Y874577D01*
X1081987Y874619D01*
X1081945Y874702D01*
X1081820Y874785D01*
X1081653Y874910D01*
X1081404Y875035D01*
X1081154Y875160D01*
X1080820Y875202D01*
X1080445Y875244D01*
X1080362D01*
X1080237Y875202D01*
X1080070D01*
X1079696Y875119D01*
X1079237Y874994D01*
X1079196D01*
X1079154Y874952D01*
X1078863Y874910D01*
X1078488Y874827D01*
X1078113Y874744D01*
X1078071D01*
X1077988Y874702D01*
X1077821D01*
X1077613Y874660D01*
X1077155Y874619D01*
X1076613Y874577D01*
X1076488D01*
X1076363Y874619D01*
X1076197Y874660D01*
X1076030Y874744D01*
X1075822Y874869D01*
X1075613Y875035D01*
X1075405Y875244D01*
X1075363Y875285D01*
X1075322Y875368D01*
X1075238Y875493D01*
X1075155Y875702D01*
X1074947Y876160D01*
X1074905Y876452D01*
X1074864Y876743D01*
Y876785D01*
Y876868D01*
X1074905Y877035D01*
Y877243D01*
X1075030Y877743D01*
X1075238Y878326D01*
X1075280Y878368D01*
X1075322Y878493D01*
X1075405Y878701D01*
X1075572Y878951D01*
X1075738Y879201D01*
X1075988Y879492D01*
X1076280Y879742D01*
X1076613Y879951D01*
X1076655Y879992D01*
X1076780Y880034D01*
X1076988Y880117D01*
X1077238Y880242D01*
X1077530Y880367D01*
X1077863Y880492D01*
X1078613Y880659D01*
X1078737D01*
X1078863Y880701D01*
X1079029D01*
X1079279Y880742D01*
X1079529D01*
X1080195Y880784D01*
X1081778D01*
X1082653Y880701D01*
X1083528Y880575D01*
X1083653D01*
X1083778Y880534D01*
X1083944Y880492D01*
X1084361Y880367D01*
X1084944Y880159D01*
X1085611Y879867D01*
X1086361Y879534D01*
X1087110Y879076D01*
X1087860Y878493D01*
X1087943Y878409D01*
X1088152Y878243D01*
X1088443Y877951D01*
X1088777Y877576D01*
X1089152Y877118D01*
X1089485Y876618D01*
X1089776Y876035D01*
X1089985Y875452D01*
Y875368D01*
X1090026Y875160D01*
X1090068Y874827D01*
X1090026Y874369D01*
X1089943Y873827D01*
X1089776Y873244D01*
X1089526Y872578D01*
X1089110Y871869D01*
X1089068Y871786D01*
X1088902Y871578D01*
X1088652Y871203D01*
X1088360Y870745D01*
X1087985Y870203D01*
X1087527Y869578D01*
X1087069Y868953D01*
X1086569Y868287D01*
X1086527Y868204D01*
X1086319Y867995D01*
X1086069Y867662D01*
X1085694Y867246D01*
X1085277Y866746D01*
X1084778Y866162D01*
X1083778Y864955D01*
X1083736Y864913D01*
X1083611Y864788D01*
X1083445Y864538D01*
X1083195Y864246D01*
X1082861Y863871D01*
X1082487Y863455D01*
X1082028Y862955D01*
X1081570Y862413D01*
X1081029Y861789D01*
X1080487Y861164D01*
X1079237Y859831D01*
X1077904Y858415D01*
X1076530Y856957D01*
X1076488Y856915D01*
X1076363Y856790D01*
X1076155Y856582D01*
X1075863Y856290D01*
X1075530Y855957D01*
X1075113Y855540D01*
X1074655Y855082D01*
X1074155Y854540D01*
X1073572Y853999D01*
X1072989Y853416D01*
X1071656Y852166D01*
X1070198Y850833D01*
X1068698Y849500D01*
X1068657Y849458D01*
X1068615Y849417D01*
X1068365Y849167D01*
X1068324D01*
X1068198Y849084D01*
X1068032Y849000D01*
X1067824Y848875D01*
X1067782Y848917D01*
X1067574Y849084D01*
X1067324Y849292D01*
X1066949Y849583D01*
X1066532Y849958D01*
X1066032Y850333D01*
X1065033Y851208D01*
X1064991Y851250D01*
X1064783Y851416D01*
X1064533Y851625D01*
X1064200Y851916D01*
X1063783Y852291D01*
X1063325Y852666D01*
X1062325Y853541D01*
X1062242Y853624D01*
X1062033Y853791D01*
X1061700Y854124D01*
X1061284Y854540D01*
X1060742Y855082D01*
X1060076Y855749D01*
X1059326Y856457D01*
X1058534Y857248D01*
X1057660Y858123D01*
X1056743Y859081D01*
X1055743Y860081D01*
X1054744Y861122D01*
X1052619Y863330D01*
X1050495Y865663D01*
X1050411Y865746D01*
X1050245Y865954D01*
X1049953Y866288D01*
X1049537Y866746D01*
X1049037Y867329D01*
X1048412Y867995D01*
X1047746Y868745D01*
X1046996Y869620D01*
X1046204Y870536D01*
X1045329Y871578D01*
X1044455Y872619D01*
X1043538Y873786D01*
X1042580Y874952D01*
X1041622Y876160D01*
X1039664Y878659D01*
X1039622Y878701D01*
X1039539Y878826D01*
X1039414Y878993D01*
X1039248Y879242D01*
X1038998Y879534D01*
X1038748Y879909D01*
X1038456Y880326D01*
X1038123Y880742D01*
X1037415Y881784D01*
X1036623Y882950D01*
X1035790Y884158D01*
X1034957Y885449D01*
X1034915Y885491D01*
X1034874Y885616D01*
X1034749Y885782D01*
X1034582Y886074D01*
X1034416Y886366D01*
X1034207Y886782D01*
X1033957Y887199D01*
X1033707Y887699D01*
X1033416Y888240D01*
X1033166Y888823D01*
X1032583Y890073D01*
X1032000Y891489D01*
X1031458Y892947D01*
Y892989D01*
X1031416Y893156D01*
X1031333Y893406D01*
X1031250Y893781D01*
X1031125Y894197D01*
X1031000Y894697D01*
X1030875Y895280D01*
X1030750Y895905D01*
X1030583Y896571D01*
X1030458Y897321D01*
X1030250Y898863D01*
X1030083Y900529D01*
X1030000Y902195D01*
Y902237D01*
Y902278D01*
Y902403D01*
Y902570D01*
Y902986D01*
X1030042Y903528D01*
X1030083Y904194D01*
X1030125Y904903D01*
X1030208Y905694D01*
X1030333Y906486D01*
Y906569D01*
X1030375Y906777D01*
X1030458Y907110D01*
X1030583Y907569D01*
X1030750Y908110D01*
X1030958Y908777D01*
X1031208Y909526D01*
X1031541Y910359D01*
X1031916Y911234D01*
X1032333Y912192D01*
X1032874Y913150D01*
X1033457Y914192D01*
X1034124Y915233D01*
X1034915Y916275D01*
X1035749Y917358D01*
X1036707Y918399D01*
X1036748Y918441D01*
X1036873Y918566D01*
X1037040Y918732D01*
X1037290Y918982D01*
X1037581Y919274D01*
X1037956Y919566D01*
X1038373Y919940D01*
X1038873Y920315D01*
X1039414Y920732D01*
X1039956Y921148D01*
X1041206Y921940D01*
X1042622Y922690D01*
X1043372Y923023D01*
X1044121Y923315D01*
X1044163D01*
X1044288Y923398D01*
X1044538Y923439D01*
X1044829Y923565D01*
X1045204Y923648D01*
X1045663Y923773D01*
X1046204Y923898D01*
X1046746Y924064D01*
X1047412Y924189D01*
X1048079Y924314D01*
X1048829Y924439D01*
X1049578Y924564D01*
X1051245Y924731D01*
X1052994Y924772D01*
X1053369D01*
X1053661Y924731D01*
D02*
G37*
G36*
X1183794Y913150D02*
X1184085Y913067D01*
X1184294Y912901D01*
X1184335Y912859D01*
X1184419Y912734D01*
X1184544Y912526D01*
X1184627Y912151D01*
Y912109D01*
Y912067D01*
X1184669Y911859D01*
Y911568D01*
X1184627Y911276D01*
Y911234D01*
X1184585Y911193D01*
X1184544Y911068D01*
X1184460Y910901D01*
X1184252Y910443D01*
X1184002Y909860D01*
X1183711Y909152D01*
X1183377Y908402D01*
X1183002Y907569D01*
X1182628Y906736D01*
Y906694D01*
X1182586Y906652D01*
X1182544Y906527D01*
X1182461Y906361D01*
X1182253Y905902D01*
X1181961Y905319D01*
X1181669Y904611D01*
X1181295Y903861D01*
X1180920Y903028D01*
X1180545Y902195D01*
X1180503Y902112D01*
X1180420Y901945D01*
X1180295Y901653D01*
X1180128Y901279D01*
X1179920Y900820D01*
X1179712Y900279D01*
X1179462Y899737D01*
X1179253Y899154D01*
X1179212Y899071D01*
X1179128Y898904D01*
X1179004Y898613D01*
X1178878Y898238D01*
X1178670Y897779D01*
X1178462Y897280D01*
X1178004Y896197D01*
Y896113D01*
X1177962Y895905D01*
X1177921Y895655D01*
X1177837Y895322D01*
Y895238D01*
X1177795Y895072D01*
X1177754Y894780D01*
Y894530D01*
Y894489D01*
Y894364D01*
Y894197D01*
X1177795Y894030D01*
X1177837Y893781D01*
X1177962Y893572D01*
X1178087Y893406D01*
X1178295Y893239D01*
X1178337D01*
X1178379Y893156D01*
X1178504Y893114D01*
X1178629Y893031D01*
X1179045Y892947D01*
X1179295Y892989D01*
X1179587Y893031D01*
X1179628Y893072D01*
X1179753Y893114D01*
X1179795Y893156D01*
X1179837Y893239D01*
X1179878D01*
X1179962Y893322D01*
X1180045Y893406D01*
X1180211Y893531D01*
X1180670Y893864D01*
X1181253Y894280D01*
X1181961Y894780D01*
X1182711Y895363D01*
X1183544Y895947D01*
X1184377Y896613D01*
X1184419Y896655D01*
X1184460Y896696D01*
X1184585Y896780D01*
X1184752Y896905D01*
X1185169Y897280D01*
X1185710Y897779D01*
X1186335Y898363D01*
X1187001Y899029D01*
X1187710Y899779D01*
X1188376Y900612D01*
X1188418Y900654D01*
X1188459Y900737D01*
X1188543Y900862D01*
X1188668Y901029D01*
X1188834Y901487D01*
X1188876Y901695D01*
X1188918Y901945D01*
Y901987D01*
Y902070D01*
Y902195D01*
Y902403D01*
X1188834Y902861D01*
X1188751Y903403D01*
Y903445D01*
X1188709Y903528D01*
Y903653D01*
X1188668Y903820D01*
X1188584Y904278D01*
X1188501Y904903D01*
X1188459Y905611D01*
Y906402D01*
X1188501Y907194D01*
X1188668Y908027D01*
Y908068D01*
X1188709Y908110D01*
Y908235D01*
X1188793Y908402D01*
X1188959Y908818D01*
X1189209Y909318D01*
X1189542Y909943D01*
X1190001Y910568D01*
X1190584Y911234D01*
X1191334Y911859D01*
X1191375Y911901D01*
X1191459Y911943D01*
X1191584Y912067D01*
X1191792Y912192D01*
X1192250Y912442D01*
X1192750Y912734D01*
X1192792D01*
X1192875Y912776D01*
X1193042Y912817D01*
X1193250Y912859D01*
X1193500Y912901D01*
X1193791D01*
X1194083Y912859D01*
X1194416Y912734D01*
X1194458Y912692D01*
X1194583Y912651D01*
X1194750Y912526D01*
X1194958Y912401D01*
X1195374Y911984D01*
X1195541Y911734D01*
X1195708Y911443D01*
Y911401D01*
X1195749Y911276D01*
X1195791Y911109D01*
X1195833Y910901D01*
X1195874Y910610D01*
Y910318D01*
Y909610D01*
Y909568D01*
Y909443D01*
Y909277D01*
Y909027D01*
X1195833Y908735D01*
X1195791Y908402D01*
X1195708Y907694D01*
Y907652D01*
X1195666Y907527D01*
X1195624Y907360D01*
X1195583Y907110D01*
X1195541Y906819D01*
X1195458Y906486D01*
X1195291Y905777D01*
Y905736D01*
X1195249Y905611D01*
X1195166Y905444D01*
X1195124Y905194D01*
X1194916Y904611D01*
X1194666Y903944D01*
Y903903D01*
X1194624Y903778D01*
X1194541Y903611D01*
X1194458Y903361D01*
X1194333Y903070D01*
X1194208Y902737D01*
X1193958Y902028D01*
X1194000Y901987D01*
X1194125Y901903D01*
X1194375Y901737D01*
X1194624Y901612D01*
X1194958Y901487D01*
X1195374Y901404D01*
X1195791D01*
X1196249Y901487D01*
X1196291D01*
X1196457Y901528D01*
X1196707Y901570D01*
X1196999Y901612D01*
X1197374Y901653D01*
X1197790D01*
X1198207Y901612D01*
X1198665Y901487D01*
X1198624Y901445D01*
X1198499Y901279D01*
X1198249Y901029D01*
X1197957Y900737D01*
X1197624Y900404D01*
X1197207Y900070D01*
X1196749Y899737D01*
X1196249Y899487D01*
X1196207Y899446D01*
X1195999Y899404D01*
X1195749Y899321D01*
X1195374Y899237D01*
X1194958Y899154D01*
X1193958D01*
X1193375Y899237D01*
X1193333D01*
X1193208Y899279D01*
X1192292D01*
X1191792Y899154D01*
X1191750D01*
X1191709Y899112D01*
X1191417Y898946D01*
X1191042Y898696D01*
X1190667Y898279D01*
X1190626Y898238D01*
X1190501Y898071D01*
X1190334Y897863D01*
X1190084Y897571D01*
X1189792Y897238D01*
X1189459Y896905D01*
X1188751Y896113D01*
X1188709Y896071D01*
X1188584Y895905D01*
X1188376Y895697D01*
X1188084Y895405D01*
X1187793Y895113D01*
X1187418Y894780D01*
X1186627Y894072D01*
X1186585Y894030D01*
X1186543Y893989D01*
X1186418Y893864D01*
X1186252Y893739D01*
X1186043Y893572D01*
X1185793Y893406D01*
X1185169Y892989D01*
X1184419Y892531D01*
X1183586Y892073D01*
X1182669Y891614D01*
X1181669Y891281D01*
X1181628D01*
X1181544Y891239D01*
X1181420Y891198D01*
X1181211Y891156D01*
X1180961Y891115D01*
X1180670Y891073D01*
X1180337Y890990D01*
X1179962Y890948D01*
X1179128Y890864D01*
X1178170D01*
X1177129Y890948D01*
X1176004Y891115D01*
X1175921D01*
X1175754Y891198D01*
X1175463Y891281D01*
X1175129Y891406D01*
X1174421Y891781D01*
X1174088Y891989D01*
X1173838Y892281D01*
X1173796Y892322D01*
X1173755Y892406D01*
X1173630Y892614D01*
X1173505Y892864D01*
X1173380Y893197D01*
X1173255Y893614D01*
X1173130Y894114D01*
X1173047Y894697D01*
Y894738D01*
Y894905D01*
X1173005Y895155D01*
Y895488D01*
Y895905D01*
Y896321D01*
X1173130Y897238D01*
Y897280D01*
X1173172Y897446D01*
X1173255Y897696D01*
X1173380Y897988D01*
X1173505Y898321D01*
X1173630Y898737D01*
X1174005Y899571D01*
X1174046Y899654D01*
X1174130Y899862D01*
X1174296Y900154D01*
X1174505Y900570D01*
X1174755Y901029D01*
X1175005Y901528D01*
X1175588Y902653D01*
X1175629Y902737D01*
X1175713Y902903D01*
X1175838Y903195D01*
X1176004Y903570D01*
X1176254Y904028D01*
X1176504Y904569D01*
X1176754Y905111D01*
X1177046Y905694D01*
X1177087Y905777D01*
X1177212Y905944D01*
X1177379Y906236D01*
X1177504Y906569D01*
X1177545Y906652D01*
X1177671Y906860D01*
X1177837Y907194D01*
X1178004Y907610D01*
X1177879D01*
X1177712Y907569D01*
X1177504D01*
X1177004Y907527D01*
X1176338D01*
X1176213Y907485D01*
X1176046D01*
X1175588Y907444D01*
X1175129Y907360D01*
Y907402D01*
Y907527D01*
Y907777D01*
Y907819D01*
X1175088Y907860D01*
Y907902D01*
X1175129Y907943D01*
X1175171D01*
X1175213Y907985D01*
X1175463Y908152D01*
X1175796Y908443D01*
X1176296Y908777D01*
X1176837Y909152D01*
X1177462Y909568D01*
X1178129Y910026D01*
X1178795Y910484D01*
X1178837D01*
X1178878Y910526D01*
X1179128Y910693D01*
X1179503Y910943D01*
X1180003Y911276D01*
X1180545Y911693D01*
X1181170Y912109D01*
X1182544Y913026D01*
X1182628Y913067D01*
X1182794Y913109D01*
X1183086Y913150D01*
X1183502Y913192D01*
X1183586D01*
X1183794Y913150D01*
D02*
G37*
G36*
X1165382Y913484D02*
X1165340Y913442D01*
X1165299Y913317D01*
X1165215Y913192D01*
X1165007Y912776D01*
X1164757Y912276D01*
X1164424Y911651D01*
X1164091Y910984D01*
X1163382Y909610D01*
X1163341Y909526D01*
X1163216Y909277D01*
X1163049Y908943D01*
X1162841Y908485D01*
X1162549Y907902D01*
X1162258Y907277D01*
X1161925Y906610D01*
X1161550Y905944D01*
X1161508Y905861D01*
X1161425Y905652D01*
X1161258Y905319D01*
X1161050Y904903D01*
X1160800Y904444D01*
X1160508Y903903D01*
X1159883Y902737D01*
X1159842Y902653D01*
X1159717Y902445D01*
X1159550Y902153D01*
X1159342Y901737D01*
X1159092Y901237D01*
X1158759Y900695D01*
X1158467Y900112D01*
X1158134Y899487D01*
Y899446D01*
X1158092Y899404D01*
X1158009Y899279D01*
X1157926Y899112D01*
X1157717Y898696D01*
X1157509Y898196D01*
Y898154D01*
X1157467Y898071D01*
X1157384Y897946D01*
X1157301Y897779D01*
X1157134Y897363D01*
X1156926Y896863D01*
X1156884Y896821D01*
X1156842Y896655D01*
X1156759Y896446D01*
X1156676Y896155D01*
X1156468Y895488D01*
X1156426Y895113D01*
X1156384Y894780D01*
Y894738D01*
Y894655D01*
X1156426Y894489D01*
X1156468Y894280D01*
X1156551Y894072D01*
X1156634Y893864D01*
X1156801Y893655D01*
X1157009Y893489D01*
X1157051Y893447D01*
X1157176Y893406D01*
X1157342Y893322D01*
X1157592Y893281D01*
X1157842Y893239D01*
X1158134D01*
X1158467Y893281D01*
X1158759Y893406D01*
X1158800D01*
X1158884Y893447D01*
X1159009Y893531D01*
X1159175Y893655D01*
X1159633Y893905D01*
X1160133Y894280D01*
X1160175Y894322D01*
X1160342Y894447D01*
X1160550Y894655D01*
X1160842Y894905D01*
X1161175Y895197D01*
X1161591Y895530D01*
X1162424Y896280D01*
X1162466Y896321D01*
X1162633Y896446D01*
X1162841Y896655D01*
X1163133Y896905D01*
X1163466Y897238D01*
X1163841Y897571D01*
X1164674Y898279D01*
X1164715D01*
X1164757Y898363D01*
X1164965Y898529D01*
X1165257Y898779D01*
X1165549Y899071D01*
X1165632Y899112D01*
X1165799Y899279D01*
X1166090Y899529D01*
X1166423Y899862D01*
X1166465Y899821D01*
X1166548Y899779D01*
X1166757Y899529D01*
X1167007Y899196D01*
X1167048Y898988D01*
Y898779D01*
X1167007Y898696D01*
X1166965Y898529D01*
X1166840Y898279D01*
X1166673Y898029D01*
Y897988D01*
X1166590Y897946D01*
X1166548Y897821D01*
X1166423Y897654D01*
X1166132Y897280D01*
X1165715Y896738D01*
X1165215Y896155D01*
X1164674Y895530D01*
X1164049Y894864D01*
X1163382Y894197D01*
X1163299Y894114D01*
X1163091Y893905D01*
X1162716Y893614D01*
X1162216Y893239D01*
X1161591Y892781D01*
X1160925Y892322D01*
X1160133Y891864D01*
X1159259Y891406D01*
X1159217Y891364D01*
X1159050Y891323D01*
X1158800Y891239D01*
X1158509Y891156D01*
X1158134Y891031D01*
X1157676Y890948D01*
X1157259Y890906D01*
X1156759Y890864D01*
X1156509D01*
X1156259Y890906D01*
X1155884Y890948D01*
X1155509Y890990D01*
X1155051Y891115D01*
X1154593Y891239D01*
X1154135Y891406D01*
X1154093Y891448D01*
X1153927Y891489D01*
X1153718Y891614D01*
X1153427Y891823D01*
X1153135Y892031D01*
X1152802Y892322D01*
X1152510Y892697D01*
X1152219Y893114D01*
X1152177Y893156D01*
X1152135Y893364D01*
X1152052Y893614D01*
X1151927Y893989D01*
X1151844Y894447D01*
X1151802Y894947D01*
Y895488D01*
X1151844Y896113D01*
Y896155D01*
X1151886Y896321D01*
X1151927Y896530D01*
X1152010Y896821D01*
X1152094Y897155D01*
X1152177Y897488D01*
X1152469Y898279D01*
Y898321D01*
X1152510Y898446D01*
X1152594Y898654D01*
X1152677Y898946D01*
X1152802Y899279D01*
X1152927Y899654D01*
X1153260Y900445D01*
X1153302Y900487D01*
X1153343Y900654D01*
X1153468Y900862D01*
X1153593Y901154D01*
X1153760Y901487D01*
X1153927Y901903D01*
X1154385Y902737D01*
X1154426Y902778D01*
X1154510Y902945D01*
X1154635Y903153D01*
X1154801Y903445D01*
X1154968Y903820D01*
X1155176Y904236D01*
X1155676Y905153D01*
X1153593D01*
X1153260Y905236D01*
X1153177D01*
X1152885Y905319D01*
X1152510Y905444D01*
X1152135Y905611D01*
X1152094D01*
X1152052Y905652D01*
X1151760Y905777D01*
X1151427Y905944D01*
X1151094Y906194D01*
X1151052Y906236D01*
X1151011Y906319D01*
X1150927Y906444D01*
X1150802Y906569D01*
X1150719Y906777D01*
X1150677Y906985D01*
Y907194D01*
X1150719Y907444D01*
Y907485D01*
X1150761Y907569D01*
X1150927Y907777D01*
X1151052Y907902D01*
X1151219Y908027D01*
X1151469Y908068D01*
X1151760Y908110D01*
X1152052D01*
X1152260Y908152D01*
X1152510D01*
X1152843Y908193D01*
X1153552Y908277D01*
X1154385Y908402D01*
X1155301Y908652D01*
X1156259Y908943D01*
X1157176Y909360D01*
X1157217D01*
X1157301Y909401D01*
X1157426Y909485D01*
X1157592Y909568D01*
X1157842Y909693D01*
X1158092Y909818D01*
X1158759Y910110D01*
X1159509Y910484D01*
X1160342Y910943D01*
X1161216Y911401D01*
X1162133Y911859D01*
X1162175Y911901D01*
X1162258Y911943D01*
X1162383Y912026D01*
X1162591Y912151D01*
X1163049Y912401D01*
X1163632Y912651D01*
X1163674D01*
X1163757Y912734D01*
X1163924Y912817D01*
X1164132Y912901D01*
X1164382Y913026D01*
X1164674Y913192D01*
X1165382Y913525D01*
Y913484D01*
D02*
G37*
G36*
X1241113Y925439D02*
X1241612Y925397D01*
X1242196Y925231D01*
X1242279D01*
X1242446Y925147D01*
X1242695Y925064D01*
X1243029Y924939D01*
X1243362Y924731D01*
X1243737Y924523D01*
X1244070Y924231D01*
X1244362Y923898D01*
X1244403Y923856D01*
X1244487Y923731D01*
X1244612Y923565D01*
X1244695Y923273D01*
X1244820Y922940D01*
X1244862Y922565D01*
Y922065D01*
X1244778Y921565D01*
Y921523D01*
X1244737Y921357D01*
X1244695Y921107D01*
X1244653Y920773D01*
X1244528Y920399D01*
X1244445Y919982D01*
X1244112Y919107D01*
Y919066D01*
X1244028Y918899D01*
X1243945Y918691D01*
X1243820Y918357D01*
X1243654Y918024D01*
X1243445Y917649D01*
X1243029Y916858D01*
X1242987Y916816D01*
X1242945Y916691D01*
X1242821Y916441D01*
X1242654Y916150D01*
X1242446Y915816D01*
X1242196Y915358D01*
X1241904Y914900D01*
X1241612Y914359D01*
X1241279Y913734D01*
X1240904Y913109D01*
X1240154Y911776D01*
X1239321Y910318D01*
X1238447Y908818D01*
X1238405Y908777D01*
X1238322Y908652D01*
X1238197Y908443D01*
X1238030Y908152D01*
X1237822Y907777D01*
X1237572Y907360D01*
X1237280Y906860D01*
X1236989Y906319D01*
X1236655Y905736D01*
X1236281Y905111D01*
X1235489Y903778D01*
X1234656Y902320D01*
X1233823Y900820D01*
X1233781Y900779D01*
X1233739Y900654D01*
X1233615Y900487D01*
X1233531Y900237D01*
X1233365Y899987D01*
X1233240Y899654D01*
X1232948Y898904D01*
Y898863D01*
X1232906Y898737D01*
X1232823Y898488D01*
X1232740Y898238D01*
X1232656Y897904D01*
X1232573Y897571D01*
X1232406Y896780D01*
Y896696D01*
X1232365Y896530D01*
Y896280D01*
X1232323Y895988D01*
X1232365Y895613D01*
X1232448Y895280D01*
X1232615Y894947D01*
X1232865Y894697D01*
X1232906D01*
X1232990Y894614D01*
X1233156Y894572D01*
X1233365Y894489D01*
X1233656Y894447D01*
X1234031D01*
X1234448Y894489D01*
X1234948Y894614D01*
X1234989Y894655D01*
X1235198Y894697D01*
X1235447Y894822D01*
X1235739Y894988D01*
X1236114Y895197D01*
X1236530Y895405D01*
X1237280Y895988D01*
X1237322Y896030D01*
X1237447Y896155D01*
X1237655Y896363D01*
X1237905Y896613D01*
X1238238Y896946D01*
X1238572Y897280D01*
X1239280Y898029D01*
X1239321Y898071D01*
X1239363Y898154D01*
X1239488Y898279D01*
X1239613Y898446D01*
X1239988Y898863D01*
X1240446Y899321D01*
X1240488Y899362D01*
X1240529Y899446D01*
X1240654Y899529D01*
X1240821Y899696D01*
X1241238Y900029D01*
X1241737Y900362D01*
X1241779Y900404D01*
X1241946Y900487D01*
X1242237Y900529D01*
X1242821D01*
X1243070Y900487D01*
X1243362Y900445D01*
X1243487Y900362D01*
X1243570Y900279D01*
X1243612Y900237D01*
X1243695Y900070D01*
X1243779Y899779D01*
X1243820Y899571D01*
Y899321D01*
Y899279D01*
Y899196D01*
X1243779Y898946D01*
X1243737Y898613D01*
X1243654Y898488D01*
X1243570Y898363D01*
Y898321D01*
X1243487Y898279D01*
X1243404Y898154D01*
X1243237Y897988D01*
X1242904Y897571D01*
X1242404Y897071D01*
X1241821Y896446D01*
X1241196Y895780D01*
X1240488Y895072D01*
X1239738Y894364D01*
X1239696D01*
X1239655Y894280D01*
X1239530Y894197D01*
X1239405Y894030D01*
X1238988Y893697D01*
X1238405Y893239D01*
X1237738Y892739D01*
X1236947Y892239D01*
X1236072Y891698D01*
X1235114Y891198D01*
X1235072D01*
X1234989Y891156D01*
X1234864Y891073D01*
X1234656Y891031D01*
X1234406Y890948D01*
X1234156Y890864D01*
X1233490Y890740D01*
X1232698Y890698D01*
X1231865Y890740D01*
X1231448Y890823D01*
X1231032Y890948D01*
X1230574Y891156D01*
X1230157Y891406D01*
X1230115D01*
X1230074Y891489D01*
X1229824Y891656D01*
X1229449Y891989D01*
X1229032Y892448D01*
X1228574Y893031D01*
X1228158Y893739D01*
X1227824Y894572D01*
X1227699Y895030D01*
X1227616Y895488D01*
Y895530D01*
X1227574Y895697D01*
X1227533Y895947D01*
Y896197D01*
Y896280D01*
Y896488D01*
X1227491Y896780D01*
X1227449Y897155D01*
Y897196D01*
Y897238D01*
X1227491Y897363D01*
Y897530D01*
X1227574Y897946D01*
X1227658Y898488D01*
X1227783Y899112D01*
X1227908Y899821D01*
X1228116Y900612D01*
X1228324Y901404D01*
Y901445D01*
X1228366Y901487D01*
Y901612D01*
X1228449Y901778D01*
X1228574Y902153D01*
X1228741Y902695D01*
X1228991Y903320D01*
X1229282Y904028D01*
X1229615Y904778D01*
X1229990Y905527D01*
Y905569D01*
X1230032Y905611D01*
X1230115Y905736D01*
X1230199Y905902D01*
X1230449Y906277D01*
X1230782Y906819D01*
X1231157Y907444D01*
X1231573Y908152D01*
X1232073Y908902D01*
X1232573Y909693D01*
Y909735D01*
X1232656Y909776D01*
X1232698Y909901D01*
X1232823Y910068D01*
X1233115Y910443D01*
X1233448Y910984D01*
X1233865Y911609D01*
X1234364Y912276D01*
X1234864Y913026D01*
X1235364Y913775D01*
X1235406Y913817D01*
X1235489Y913984D01*
X1235656Y914192D01*
X1235864Y914483D01*
X1236114Y914817D01*
X1236405Y915150D01*
X1237030Y915900D01*
X1237072Y915941D01*
X1237197Y916066D01*
X1237364Y916275D01*
X1237572Y916566D01*
X1237822Y916858D01*
X1238113Y917233D01*
X1238697Y917983D01*
X1238738Y918024D01*
X1238863Y918191D01*
X1239030Y918441D01*
X1239196Y918691D01*
X1239238Y918774D01*
X1239321Y918941D01*
X1239446Y919191D01*
X1239571Y919441D01*
Y919482D01*
X1239613Y919566D01*
Y919690D01*
Y919857D01*
X1239571Y920274D01*
X1239530Y920482D01*
X1239405Y920690D01*
X1239321Y920773D01*
X1239113Y920857D01*
X1238738Y920940D01*
X1238530D01*
X1238238Y920857D01*
X1238197D01*
X1238113Y920815D01*
X1237988Y920773D01*
X1237822Y920690D01*
X1237405Y920440D01*
X1236947Y920149D01*
X1236905D01*
X1236822Y920065D01*
X1236697Y919982D01*
X1236530Y919899D01*
X1236114Y919607D01*
X1235656Y919274D01*
X1235614D01*
X1235572Y919191D01*
X1235322Y918982D01*
X1234948Y918649D01*
X1234489Y918232D01*
X1234448D01*
X1234406Y918149D01*
X1234156Y918066D01*
X1233989Y918024D01*
X1233781D01*
X1233531Y918108D01*
X1233281Y918232D01*
X1233240Y918274D01*
X1233156Y918357D01*
X1233073Y918483D01*
X1232948Y918649D01*
X1232865Y918857D01*
X1232781Y919107D01*
X1232740Y919357D01*
X1232781Y919649D01*
Y919690D01*
X1232823Y919774D01*
X1232865Y919940D01*
X1232906Y920107D01*
X1233073Y920607D01*
X1233281Y921190D01*
Y921232D01*
X1233323Y921273D01*
X1233406Y921398D01*
X1233490Y921565D01*
X1233781Y921940D01*
X1234198Y922440D01*
X1234698Y922981D01*
X1235364Y923565D01*
X1236155Y924106D01*
X1237114Y924606D01*
X1237155D01*
X1237197Y924648D01*
X1237447Y924731D01*
X1237780Y924898D01*
X1238238Y925064D01*
X1238780Y925189D01*
X1239363Y925356D01*
X1239988Y925439D01*
X1240613Y925481D01*
X1240904D01*
X1241113Y925439D01*
D02*
G37*
G36*
X1218618Y912859D02*
X1218577Y912817D01*
X1218535Y912692D01*
X1218452Y912567D01*
X1218243Y912151D01*
X1217993Y911609D01*
X1217660Y911026D01*
X1217327Y910318D01*
X1216619Y908902D01*
X1216577Y908818D01*
X1216452Y908568D01*
X1216286Y908193D01*
X1216036Y907735D01*
X1215744Y907152D01*
X1215411Y906527D01*
X1214703Y905153D01*
X1214661Y905069D01*
X1214578Y904903D01*
X1214411Y904569D01*
X1214203Y904194D01*
X1213953Y903695D01*
X1213703Y903195D01*
X1213078Y902028D01*
X1213036Y901945D01*
X1212912Y901778D01*
X1212745Y901445D01*
X1212537Y901029D01*
X1212287Y900570D01*
X1211995Y900029D01*
X1211412Y898904D01*
Y898863D01*
X1211370Y898779D01*
X1211287Y898654D01*
X1211204Y898488D01*
X1210995Y898071D01*
X1210787Y897571D01*
Y897530D01*
X1210745Y897488D01*
X1210662Y897363D01*
X1210579Y897196D01*
X1210370Y896780D01*
X1210162Y896280D01*
Y896238D01*
X1210079Y896071D01*
X1209996Y895863D01*
X1209912Y895613D01*
X1209829Y895280D01*
X1209787Y894947D01*
X1209746Y894572D01*
Y894197D01*
Y894155D01*
Y894072D01*
X1209787Y893905D01*
X1209829Y893697D01*
X1209912Y893489D01*
X1209996Y893322D01*
X1210162Y893114D01*
X1210370Y892947D01*
X1210412Y892906D01*
X1210537Y892864D01*
X1210704Y892781D01*
X1210954Y892697D01*
X1211204Y892656D01*
X1211453Y892614D01*
X1211745Y892656D01*
X1211995Y892781D01*
X1212037D01*
X1212120Y892822D01*
X1212287Y892906D01*
X1212453Y893031D01*
X1212912Y893281D01*
X1213411Y893655D01*
X1213453Y893697D01*
X1213620Y893822D01*
X1213870Y894030D01*
X1214161Y894322D01*
X1214494Y894614D01*
X1214911Y894988D01*
X1215744Y895738D01*
X1215786Y895780D01*
X1215952Y895947D01*
X1216161Y896155D01*
X1216494Y896446D01*
X1216827Y896780D01*
X1217244Y897155D01*
X1218119Y897946D01*
X1218160Y897988D01*
X1218368Y898154D01*
X1218618Y898363D01*
X1218993Y898613D01*
X1219077Y898654D01*
X1219243Y898821D01*
X1219535Y899029D01*
X1219868Y899321D01*
X1219910Y899279D01*
X1219951Y899196D01*
X1220035Y899029D01*
X1220118Y898821D01*
X1220201Y898363D01*
X1220243Y898154D01*
X1220201Y897946D01*
Y897904D01*
X1220160Y897863D01*
X1220076Y897654D01*
X1219910Y897363D01*
X1219701Y897071D01*
X1219618Y896988D01*
X1219452Y896780D01*
X1219160Y896405D01*
X1218785Y895947D01*
X1218368Y895447D01*
X1217827Y894864D01*
X1217285Y894239D01*
X1216702Y893655D01*
X1216619Y893572D01*
X1216411Y893406D01*
X1216077Y893114D01*
X1215661Y892781D01*
X1215119Y892364D01*
X1214494Y891906D01*
X1213828Y891448D01*
X1213078Y891031D01*
X1213036D01*
X1212995Y890990D01*
X1212745Y890906D01*
X1212412Y890740D01*
X1211995Y890615D01*
X1211953D01*
X1211912Y890573D01*
X1211662Y890531D01*
X1211329Y890406D01*
X1210954Y890323D01*
X1210829D01*
X1210662Y890281D01*
X1209871D01*
X1209204Y890365D01*
X1208413Y890490D01*
X1207621Y890740D01*
X1207205Y890948D01*
X1206830Y891156D01*
X1206497Y891406D01*
X1206163Y891739D01*
Y891781D01*
X1206080Y891823D01*
X1205913Y892073D01*
X1205663Y892489D01*
X1205413Y893031D01*
X1205163Y893739D01*
X1205039Y894572D01*
Y895030D01*
X1205080Y895530D01*
X1205163Y896071D01*
X1205288Y896613D01*
Y896655D01*
X1205372Y896821D01*
X1205455Y897071D01*
X1205538Y897363D01*
X1205705Y897738D01*
X1205872Y898154D01*
X1206246Y899071D01*
X1206288Y899112D01*
X1206372Y899279D01*
X1206455Y899529D01*
X1206621Y899821D01*
X1206788Y900195D01*
X1206996Y900612D01*
X1207413Y901487D01*
Y901528D01*
X1207455Y901612D01*
X1207538Y901737D01*
X1207621Y901945D01*
X1207871Y902403D01*
X1208163Y902986D01*
Y903028D01*
X1208246Y903111D01*
X1208288Y903278D01*
X1208413Y903486D01*
X1208538Y903778D01*
X1208663Y904070D01*
X1208954Y904736D01*
X1208413D01*
X1207871Y904694D01*
X1207288Y904653D01*
X1206455D01*
X1205997Y904736D01*
X1205955D01*
X1205913Y904778D01*
X1205663Y904861D01*
X1205372Y905028D01*
X1205039Y905236D01*
X1204997Y905277D01*
X1204955Y905319D01*
X1204747Y905527D01*
X1204455Y905819D01*
X1204164Y906111D01*
X1204122Y906194D01*
X1204080Y906361D01*
X1204039Y906652D01*
X1204080Y906985D01*
Y907027D01*
X1204122Y907069D01*
X1204247Y907277D01*
X1204372Y907360D01*
X1204539Y907444D01*
X1204705Y907485D01*
X1204955Y907527D01*
X1205288D01*
X1205580Y907569D01*
X1205872D01*
X1206246Y907610D01*
X1206663Y907652D01*
X1207121Y907735D01*
X1208121Y907943D01*
X1209246Y908235D01*
X1210370Y908652D01*
X1211495Y909193D01*
X1211537Y909235D01*
X1211620Y909277D01*
X1211787Y909360D01*
X1211995Y909485D01*
X1212245Y909651D01*
X1212578Y909818D01*
X1212912Y910026D01*
X1213328Y910235D01*
X1214203Y910734D01*
X1215203Y911276D01*
X1216286Y911817D01*
X1217410Y912401D01*
X1217452D01*
X1217577Y912442D01*
X1217744Y912526D01*
X1217952Y912567D01*
X1217993Y912609D01*
X1218119Y912692D01*
X1218285Y912776D01*
X1218618Y912901D01*
Y912859D01*
D02*
G37*
G36*
X1233281Y880617D02*
X1233573Y880492D01*
X1233823Y880326D01*
X1233865Y880284D01*
X1233906Y880201D01*
X1234031Y880076D01*
X1234156Y879867D01*
X1234239Y879617D01*
X1234323Y879284D01*
X1234364Y878909D01*
X1234323Y878493D01*
Y878409D01*
X1234281Y878243D01*
X1234198Y877993D01*
X1234073Y877701D01*
X1234031Y877660D01*
X1233989Y877493D01*
X1233865Y877243D01*
X1233739Y876910D01*
X1233698Y876868D01*
X1233615Y876702D01*
X1233531Y876452D01*
X1233448Y876202D01*
X1233406Y876160D01*
X1233323Y875952D01*
X1233198Y875660D01*
X1233031Y875244D01*
X1233198D01*
X1233365Y875202D01*
X1233615D01*
X1234198Y875160D01*
X1234864Y875077D01*
X1234989D01*
X1235156Y875035D01*
X1235364D01*
X1235906Y874994D01*
X1236489Y874910D01*
X1236614D01*
X1236697Y874869D01*
X1236864D01*
X1237239Y874785D01*
X1237655Y874660D01*
X1237697D01*
X1237738Y874619D01*
X1237905Y874410D01*
X1238113Y874119D01*
X1238197Y873869D01*
X1238238Y873619D01*
Y873577D01*
Y873494D01*
X1238197Y873327D01*
X1238155Y873161D01*
X1237988Y872744D01*
X1237863Y872578D01*
X1237655Y872453D01*
X1237614D01*
X1237572Y872411D01*
X1237447Y872369D01*
X1237280Y872328D01*
X1236905Y872203D01*
X1236405Y872119D01*
X1235906D01*
X1235406Y872078D01*
X1234781Y872036D01*
X1234281D01*
X1233781Y872078D01*
X1233198Y872119D01*
X1232573D01*
X1232032Y872036D01*
X1231740Y871911D01*
X1231448Y871786D01*
X1231407Y871744D01*
X1231365Y871703D01*
X1231240Y871578D01*
X1231074Y871411D01*
X1230740Y870953D01*
X1230407Y870370D01*
X1230365Y870286D01*
X1230240Y870078D01*
X1230074Y869745D01*
X1229865Y869287D01*
X1229574Y868745D01*
X1229282Y868162D01*
X1228574Y866912D01*
X1228532Y866829D01*
X1228408Y866621D01*
X1228241Y866288D01*
X1228033Y865871D01*
X1227741Y865329D01*
X1227449Y864788D01*
X1227116Y864163D01*
X1226741Y863496D01*
Y863455D01*
X1226700Y863413D01*
X1226616Y863288D01*
X1226533Y863122D01*
X1226325Y862705D01*
X1226033Y862122D01*
X1225700Y861455D01*
X1225325Y860706D01*
X1224908Y859873D01*
X1224492Y859039D01*
Y858998D01*
X1224450Y858956D01*
X1224367Y858831D01*
X1224284Y858664D01*
X1224075Y858248D01*
X1223784Y857665D01*
X1223450Y856998D01*
X1223076Y856248D01*
X1222659Y855415D01*
X1222284Y854582D01*
Y854540D01*
X1222201Y854457D01*
X1222159Y854291D01*
X1222034Y854124D01*
X1221826Y853624D01*
X1221618Y853041D01*
Y852999D01*
X1221576Y852916D01*
X1221493Y852749D01*
X1221409Y852541D01*
X1221284Y852041D01*
X1221159Y851458D01*
Y851416D01*
Y851250D01*
Y851041D01*
Y850750D01*
X1221243Y850458D01*
X1221368Y850167D01*
X1221534Y849875D01*
X1221784Y849667D01*
X1221826D01*
X1221909Y849583D01*
X1222076Y849542D01*
X1222326Y849500D01*
X1222576Y849458D01*
X1222909Y849500D01*
X1223242Y849583D01*
X1223617Y849750D01*
X1223659D01*
X1223784Y849833D01*
X1223950Y849917D01*
X1224159Y850042D01*
X1224659Y850375D01*
X1225158Y850833D01*
X1225200Y850875D01*
X1225283Y850958D01*
X1225450Y851083D01*
X1225658Y851250D01*
X1226116Y851666D01*
X1226658Y852166D01*
X1226700Y852208D01*
X1226825Y852333D01*
X1226991Y852499D01*
X1227199Y852749D01*
X1227491Y852999D01*
X1227783Y853333D01*
X1228491Y854082D01*
X1228532Y854124D01*
X1228658Y854249D01*
X1228824Y854457D01*
X1229032Y854666D01*
X1229324Y854957D01*
X1229615Y855290D01*
X1230240Y855999D01*
X1230282D01*
X1230407Y855915D01*
X1230490Y855873D01*
X1230657Y855749D01*
Y855707D01*
X1230615Y855540D01*
X1230574Y855290D01*
X1230490Y855040D01*
Y854999D01*
X1230449Y854832D01*
X1230365Y854582D01*
X1230240Y854332D01*
X1230199Y854249D01*
X1230074Y854041D01*
X1229907Y853749D01*
X1229657Y853333D01*
X1229366Y852833D01*
X1229032Y852333D01*
X1228241Y851208D01*
X1228199Y851125D01*
X1228033Y850958D01*
X1227783Y850667D01*
X1227491Y850333D01*
X1227075Y849917D01*
X1226658Y849458D01*
X1226158Y849000D01*
X1225617Y848542D01*
X1225575Y848500D01*
X1225450Y848417D01*
X1225242Y848250D01*
X1224950Y848084D01*
X1224617Y847876D01*
X1224200Y847667D01*
X1223784Y847501D01*
X1223326Y847334D01*
X1223284D01*
X1223117Y847251D01*
X1222867Y847209D01*
X1222576Y847126D01*
X1222201Y847042D01*
X1221784Y846959D01*
X1221368Y846917D01*
X1220909Y846876D01*
X1220326D01*
X1220035Y846917D01*
X1219701Y847001D01*
X1219285Y847126D01*
X1218827Y847292D01*
X1218368Y847501D01*
X1217952Y847834D01*
X1217910Y847876D01*
X1217744Y848042D01*
X1217577Y848292D01*
X1217327Y848625D01*
X1217119Y849000D01*
X1216952Y849500D01*
X1216827Y850042D01*
Y850667D01*
Y850708D01*
Y850875D01*
Y851125D01*
X1216869Y851458D01*
Y851833D01*
X1216910Y852249D01*
X1216994Y853124D01*
Y853166D01*
X1217035Y853333D01*
X1217077Y853541D01*
X1217119Y853832D01*
X1217202Y854166D01*
X1217327Y854540D01*
X1217577Y855374D01*
Y855415D01*
X1217619Y855457D01*
X1217702Y855707D01*
X1217827Y856082D01*
X1217993Y856582D01*
X1218202Y857123D01*
X1218493Y857748D01*
X1219077Y859123D01*
X1219118Y859206D01*
X1219243Y859414D01*
X1219410Y859789D01*
X1219618Y860247D01*
X1219910Y860831D01*
X1220201Y861497D01*
X1220493Y862205D01*
X1220826Y862955D01*
X1220743Y862913D01*
X1220535Y862872D01*
X1220160Y862788D01*
X1219701Y862663D01*
X1219160Y862539D01*
X1218577Y862372D01*
X1217327Y862080D01*
X1217244D01*
X1217035Y861997D01*
X1216702Y861914D01*
X1216286Y861830D01*
X1215827Y861705D01*
X1215286Y861539D01*
X1214119Y861206D01*
Y861247D01*
X1214078Y861330D01*
X1213995Y861414D01*
X1213911Y861497D01*
Y861539D01*
Y861580D01*
X1213828Y861747D01*
X1213870Y861789D01*
X1214036Y861830D01*
X1214245Y861955D01*
X1214536Y862080D01*
X1214911Y862247D01*
X1215286Y862413D01*
X1216119Y862788D01*
X1216161Y862830D01*
X1216327Y862872D01*
X1216577Y862997D01*
X1216869Y863122D01*
X1217202Y863288D01*
X1217577Y863496D01*
X1218368Y863913D01*
X1218410Y863955D01*
X1218577Y864038D01*
X1218785Y864163D01*
X1219077Y864371D01*
X1219410Y864580D01*
X1219785Y864829D01*
X1220576Y865413D01*
X1220618Y865454D01*
X1220785Y865538D01*
X1220993Y865704D01*
X1221243Y865913D01*
X1221576Y866204D01*
X1221951Y866496D01*
X1222659Y867162D01*
X1222701Y867204D01*
X1222826Y867329D01*
X1222992Y867495D01*
X1223201Y867746D01*
X1223450Y868037D01*
X1223742Y868412D01*
X1224034Y868829D01*
X1224325Y869245D01*
X1224367Y869287D01*
X1224450Y869453D01*
X1224617Y869662D01*
X1224867Y869995D01*
X1225117Y870370D01*
X1225450Y870786D01*
X1225825Y871286D01*
X1226241Y871786D01*
X1226033D01*
X1225783Y871828D01*
X1225492D01*
X1224825Y871869D01*
X1223992D01*
X1223825Y871911D01*
X1223617D01*
X1223117Y871994D01*
X1222576Y872036D01*
X1222534D01*
X1222367Y872119D01*
X1222117Y872161D01*
X1221868Y872286D01*
X1221826Y872328D01*
X1221659Y872453D01*
X1221451Y872619D01*
X1221243Y872744D01*
X1221284Y872828D01*
X1221368Y872994D01*
X1221493Y873286D01*
X1221701Y873619D01*
Y873661D01*
X1221743Y873702D01*
X1221826Y873869D01*
X1221992Y874077D01*
X1222201Y874202D01*
X1222242D01*
X1222326Y874285D01*
X1222492Y874327D01*
X1222701Y874410D01*
X1223242Y874577D01*
X1223867Y874744D01*
X1224034D01*
X1224200Y874785D01*
X1224408D01*
X1224950Y874827D01*
X1225908D01*
X1226158Y874869D01*
X1226700Y874952D01*
X1227283Y875160D01*
X1227325Y875202D01*
X1227366Y875244D01*
X1227491Y875368D01*
X1227658Y875493D01*
X1227824Y875702D01*
X1227991Y875952D01*
X1228199Y876243D01*
X1228408Y876577D01*
Y876618D01*
X1228491Y876702D01*
X1228532Y876868D01*
X1228658Y877076D01*
X1228949Y877576D01*
X1229366Y878118D01*
X1229407Y878159D01*
X1229449Y878243D01*
X1229574Y878368D01*
X1229699Y878576D01*
X1230032Y879034D01*
X1230490Y879534D01*
X1230532Y879576D01*
X1230657Y879742D01*
X1230907Y879951D01*
X1231199Y880159D01*
X1231282Y880201D01*
X1231448Y880326D01*
X1231740Y880492D01*
X1232073Y880575D01*
X1232115D01*
X1232240Y880617D01*
X1232448Y880659D01*
X1232990D01*
X1233281Y880617D01*
D02*
G37*
G36*
X1286059Y881950D02*
X1286018Y881784D01*
X1285934Y881534D01*
X1285809Y881200D01*
X1285643Y880825D01*
X1285476Y880409D01*
X1285143Y879617D01*
Y879576D01*
X1285060Y879451D01*
X1284976Y879242D01*
X1284851Y878951D01*
X1284726Y878618D01*
X1284560Y878284D01*
X1284185Y877451D01*
X1284310D01*
X1284435Y877410D01*
X1284601Y877368D01*
X1285018Y877285D01*
X1285435Y877160D01*
X1285560D01*
X1285685Y877118D01*
X1285851D01*
X1286309Y877035D01*
X1286893Y876910D01*
X1286851D01*
X1286768Y876868D01*
X1286643Y876785D01*
X1286476Y876660D01*
X1286226Y876535D01*
X1285976Y876410D01*
X1285351Y876077D01*
X1284643Y875660D01*
X1283852Y875202D01*
X1282185Y874202D01*
X1282144D01*
X1282102Y874161D01*
X1281977Y874077D01*
X1281810Y873994D01*
X1281352Y873744D01*
X1280769Y873411D01*
X1280103Y872994D01*
X1279353Y872578D01*
X1278561Y872119D01*
X1277728Y871619D01*
X1277687Y871661D01*
X1277645Y871786D01*
X1277603D01*
X1277478Y871869D01*
X1277520Y871911D01*
X1277603Y871994D01*
X1277728Y872161D01*
X1277895Y872369D01*
X1278270Y872911D01*
X1278770Y873536D01*
X1278811Y873577D01*
X1278895Y873661D01*
X1279020Y873827D01*
X1279186Y874035D01*
X1279395Y874285D01*
X1279644Y874577D01*
X1280186Y875244D01*
X1280144D01*
X1280103Y875285D01*
X1279811Y875368D01*
X1279436Y875493D01*
X1279061Y875618D01*
X1278978D01*
X1278853Y875660D01*
X1278686Y875702D01*
X1278311Y875785D01*
X1277812Y875952D01*
X1277853D01*
X1277895Y876035D01*
X1278020Y876118D01*
X1278145Y876202D01*
X1278561Y876493D01*
X1279103Y876868D01*
X1279686Y877326D01*
X1280394Y877826D01*
X1281102Y878368D01*
X1281852Y878909D01*
X1281894D01*
X1281935Y878993D01*
X1282061Y879034D01*
X1282185Y879159D01*
X1282602Y879451D01*
X1283143Y879826D01*
X1283768Y880284D01*
X1284476Y880825D01*
X1285268Y881367D01*
X1286101Y881992D01*
X1286059Y881950D01*
D02*
G37*
G36*
X1125184Y882992D02*
X1125434Y882950D01*
X1125684Y882867D01*
X1126017Y882825D01*
X1126725Y882617D01*
X1127517Y882283D01*
X1128225Y881867D01*
X1128600Y881617D01*
X1128891Y881325D01*
X1129141Y881034D01*
X1129350Y880659D01*
Y880617D01*
X1129391Y880575D01*
X1129433Y880451D01*
X1129474Y880284D01*
X1129600Y879867D01*
X1129641Y879284D01*
X1129683Y878576D01*
X1129600Y877743D01*
X1129474Y877243D01*
X1129350Y876785D01*
X1129183Y876243D01*
X1128933Y875702D01*
X1128891Y875660D01*
X1128850Y875535D01*
X1128725Y875327D01*
X1128558Y875077D01*
X1128350Y874744D01*
X1128058Y874410D01*
X1127767Y874077D01*
X1127433Y873702D01*
X1127392Y873661D01*
X1127267Y873536D01*
X1127100Y873369D01*
X1126850Y873161D01*
X1126559Y872911D01*
X1126225Y872619D01*
X1125517Y872119D01*
X1125434Y872078D01*
X1125267Y871953D01*
X1124934Y871744D01*
X1124518Y871495D01*
X1124018Y871203D01*
X1123476Y870911D01*
X1122851Y870578D01*
X1122226Y870286D01*
X1122143Y870245D01*
X1121935Y870162D01*
X1121601Y869995D01*
X1121143Y869787D01*
X1120643Y869537D01*
X1120060Y869245D01*
X1118811Y868620D01*
X1118769D01*
X1118727Y868579D01*
X1118477Y868495D01*
X1118144Y868370D01*
X1117769Y868204D01*
X1117728D01*
X1117686Y868162D01*
X1117561Y868120D01*
X1117436Y868037D01*
X1117019Y867829D01*
X1116478Y867579D01*
X1116519D01*
X1116603Y867495D01*
X1116769Y867454D01*
X1116936Y867329D01*
X1117353Y867121D01*
X1117769Y866912D01*
X1117811D01*
X1117852Y866871D01*
X1118102Y866746D01*
X1118394Y866579D01*
X1118727Y866371D01*
X1118769Y866329D01*
X1118894Y866204D01*
X1119061Y866038D01*
X1119269Y865829D01*
X1119477Y865579D01*
X1119644Y865246D01*
X1119769Y864955D01*
Y864621D01*
Y864580D01*
X1119727Y864496D01*
X1119644Y864330D01*
X1119519Y864121D01*
X1119352Y863913D01*
X1119102Y863663D01*
X1118811Y863455D01*
X1118394Y863247D01*
X1118352Y863205D01*
X1118144Y863163D01*
X1117894Y863080D01*
X1117519Y862997D01*
X1117103Y862913D01*
X1116603Y862830D01*
X1116103Y862788D01*
X1115353D01*
X1115061Y862830D01*
X1114687Y862872D01*
X1114270Y862955D01*
X1113812Y863080D01*
X1113354Y863247D01*
X1112895Y863496D01*
X1112812Y863538D01*
X1112604Y863622D01*
X1112271Y863746D01*
X1111854Y863871D01*
X1111354Y863996D01*
X1110854Y864038D01*
X1110313D01*
X1109771Y863913D01*
X1109730D01*
X1109563Y863830D01*
X1109271Y863746D01*
X1108938Y863580D01*
X1108563Y863372D01*
X1108105Y863122D01*
X1107647Y862830D01*
X1107147Y862455D01*
X1107064Y862413D01*
X1106897Y862205D01*
X1106605Y861955D01*
X1106272Y861580D01*
X1105856Y861164D01*
X1105439Y860664D01*
X1105023Y860081D01*
X1104606Y859498D01*
X1104564Y859414D01*
X1104439Y859206D01*
X1104273Y858873D01*
X1104106Y858456D01*
X1103898Y857915D01*
X1103689Y857290D01*
X1103523Y856582D01*
X1103398Y855832D01*
Y855790D01*
Y855707D01*
Y855582D01*
Y855415D01*
Y854957D01*
X1103439Y854332D01*
X1103565Y853666D01*
X1103814Y852958D01*
X1104148Y852249D01*
X1104606Y851541D01*
X1104689Y851458D01*
X1104898Y851250D01*
X1105231Y850958D01*
X1105689Y850625D01*
X1106230Y850292D01*
X1106939Y850000D01*
X1107730Y849792D01*
X1108605Y849667D01*
X1110063D01*
X1110563Y849708D01*
X1111687Y849833D01*
X1111771D01*
X1111937Y849875D01*
X1112229Y849958D01*
X1112604Y850083D01*
X1113020Y850250D01*
X1113479Y850458D01*
X1113979Y850708D01*
X1114478Y851041D01*
X1114520D01*
X1114562Y851125D01*
X1114812Y851333D01*
X1115145Y851708D01*
X1115520Y852166D01*
Y852208D01*
X1115603Y852249D01*
X1115686Y852374D01*
X1115770Y852541D01*
X1115978Y852958D01*
X1116186Y853457D01*
Y853499D01*
X1116228Y853541D01*
X1116270Y853749D01*
X1116311Y854082D01*
Y854499D01*
Y854540D01*
X1116270Y854582D01*
X1116186Y854832D01*
X1115978Y855124D01*
X1115770Y855374D01*
X1115728Y855415D01*
X1115520Y855457D01*
X1115270Y855499D01*
X1114895Y855457D01*
X1114812D01*
X1114520Y855415D01*
X1114145Y855332D01*
X1113770Y855207D01*
X1113729Y855165D01*
X1113562Y855082D01*
X1113354Y854915D01*
X1113145Y854707D01*
X1113104Y854624D01*
X1112979Y854457D01*
X1112812Y854207D01*
X1112645Y853999D01*
X1112604Y853957D01*
X1112479Y853874D01*
X1112271Y853707D01*
X1112021Y853541D01*
X1111729Y853374D01*
X1111396Y853207D01*
X1111021Y853124D01*
X1110646Y853041D01*
X1110271D01*
X1110021Y853083D01*
X1109730Y853166D01*
X1109438Y853249D01*
X1109146Y853416D01*
X1108896Y853624D01*
X1108855Y853666D01*
X1108772Y853749D01*
X1108646Y853916D01*
X1108522Y854124D01*
X1108397Y854374D01*
X1108313Y854666D01*
X1108272Y854999D01*
Y855374D01*
Y855415D01*
X1108313Y855540D01*
X1108355Y855749D01*
X1108438Y856040D01*
X1108605Y856332D01*
X1108772Y856707D01*
X1109063Y857082D01*
X1109396Y857456D01*
X1109480Y857540D01*
X1109688Y857706D01*
X1110063Y857998D01*
X1110521Y858331D01*
X1111146Y858664D01*
X1111854Y858998D01*
X1112645Y859248D01*
X1113520Y859414D01*
X1114395D01*
X1114978Y859331D01*
X1115645Y859206D01*
X1116395Y858998D01*
X1117186Y858664D01*
X1117936Y858248D01*
X1117978D01*
X1118019Y858165D01*
X1118269Y857998D01*
X1118644Y857665D01*
X1119061Y857206D01*
X1119519Y856665D01*
X1119894Y855999D01*
X1120227Y855207D01*
X1120310Y854790D01*
X1120394Y854332D01*
Y854291D01*
Y854249D01*
Y854124D01*
Y853957D01*
X1120352Y853499D01*
X1120227Y852958D01*
X1120019Y852291D01*
X1119644Y851625D01*
X1119435Y851291D01*
X1119144Y850916D01*
X1118852Y850583D01*
X1118477Y850250D01*
X1118436D01*
X1118394Y850167D01*
X1118269Y850083D01*
X1118061Y849958D01*
X1117852Y849792D01*
X1117603Y849625D01*
X1117019Y849209D01*
X1116270Y848792D01*
X1115436Y848334D01*
X1114562Y847917D01*
X1113604Y847584D01*
X1113562D01*
X1113479Y847542D01*
X1113354D01*
X1113145Y847459D01*
X1112895Y847417D01*
X1112604Y847376D01*
X1111937Y847251D01*
X1111104Y847167D01*
X1110146Y847084D01*
X1109105D01*
X1108022Y847126D01*
X1107980D01*
X1107855Y847167D01*
X1107647D01*
X1107355Y847209D01*
X1107064Y847292D01*
X1106689Y847334D01*
X1105939Y847501D01*
X1105897D01*
X1105731Y847542D01*
X1105522Y847584D01*
X1105231Y847626D01*
X1104898Y847709D01*
X1104523Y847792D01*
X1103731Y848000D01*
X1103689D01*
X1103523Y848084D01*
X1103273Y848167D01*
X1102940Y848292D01*
X1102523Y848459D01*
X1102065Y848667D01*
X1101565Y848917D01*
X1101065Y849250D01*
X1100524Y849625D01*
X1099982Y850000D01*
X1099441Y850500D01*
X1098899Y851000D01*
X1098441Y851583D01*
X1098024Y852249D01*
X1097649Y852958D01*
X1097358Y853707D01*
Y853749D01*
X1097316Y853916D01*
X1097274Y854124D01*
X1097233Y854457D01*
X1097191Y854832D01*
X1097150Y855290D01*
Y855832D01*
X1097191Y856415D01*
X1097274Y856998D01*
X1097399Y857665D01*
X1097566Y858373D01*
X1097816Y859081D01*
X1098149Y859831D01*
X1098566Y860581D01*
X1099066Y861330D01*
X1099649Y862080D01*
X1099690Y862164D01*
X1099857Y862330D01*
X1100107Y862580D01*
X1100440Y862913D01*
X1100857Y863288D01*
X1101357Y863705D01*
X1101857Y864121D01*
X1102440Y864538D01*
X1102523Y864580D01*
X1102690Y864705D01*
X1103023Y864913D01*
X1103439Y865163D01*
X1103939Y865413D01*
X1104481Y865704D01*
X1105106Y865996D01*
X1105731Y866288D01*
X1105772D01*
X1105897Y866329D01*
X1106064Y866413D01*
X1106272Y866496D01*
X1106730Y866746D01*
X1106939Y866912D01*
X1107147Y867079D01*
Y867121D01*
X1107189Y867162D01*
X1107272Y867287D01*
X1107314Y867454D01*
Y867704D01*
Y867995D01*
X1107272Y868329D01*
X1107147Y868704D01*
Y868745D01*
X1107105Y868829D01*
X1107064Y868953D01*
X1107022Y869120D01*
X1106980Y869578D01*
Y870120D01*
Y870162D01*
Y870245D01*
Y870411D01*
X1107022Y870578D01*
X1107105Y871036D01*
X1107230Y871495D01*
X1107272Y871536D01*
X1107355Y871703D01*
X1107480Y871994D01*
X1107647Y872328D01*
X1107813Y872702D01*
X1108022Y873119D01*
X1108522Y874035D01*
X1108563Y874077D01*
X1108646Y874244D01*
X1108772Y874494D01*
X1108938Y874827D01*
X1109188Y875160D01*
X1109438Y875493D01*
X1109771Y875868D01*
X1110105Y876202D01*
X1110146Y876243D01*
X1110229Y876327D01*
X1110396Y876493D01*
X1110604Y876660D01*
X1110896Y876910D01*
X1111229Y877201D01*
X1111604Y877493D01*
X1112021Y877826D01*
X1112979Y878576D01*
X1114062Y879326D01*
X1115228Y880117D01*
X1116478Y880825D01*
X1116519Y880867D01*
X1116645Y880909D01*
X1116811Y880992D01*
X1117103Y881117D01*
X1117394Y881242D01*
X1117811Y881409D01*
X1118227Y881617D01*
X1118727Y881784D01*
X1119269Y881950D01*
X1119852Y882158D01*
X1121185Y882492D01*
X1122601Y882783D01*
X1124143Y882950D01*
X1124184D01*
X1124268Y882992D01*
X1124476Y883033D01*
X1125017D01*
X1125184Y882992D01*
D02*
G37*
G36*
X1249694Y869162D02*
X1249860Y869078D01*
X1249902Y869037D01*
X1249944Y868953D01*
X1250027Y868745D01*
X1250110Y868454D01*
Y868370D01*
X1250152Y868204D01*
Y867995D01*
X1250110Y867746D01*
Y867704D01*
X1250069Y867620D01*
X1250027Y867454D01*
X1249944Y867287D01*
X1249694Y866787D01*
X1249402Y866204D01*
Y866162D01*
X1249361Y866079D01*
X1249277Y865954D01*
X1249194Y865746D01*
X1248944Y865246D01*
X1248694Y864621D01*
X1248736D01*
X1248777Y864663D01*
X1249027Y864746D01*
X1249361Y864871D01*
X1249819Y865079D01*
X1250360Y865288D01*
X1250985Y865538D01*
X1252276Y866121D01*
X1252360Y866162D01*
X1252568Y866246D01*
X1252943Y866371D01*
X1253401Y866537D01*
X1253901Y866746D01*
X1254526Y866954D01*
X1255192Y867162D01*
X1255859Y867412D01*
X1255900D01*
X1255984Y867454D01*
X1256150D01*
X1256359Y867495D01*
X1256900Y867537D01*
X1257525Y867579D01*
X1258067D01*
X1258608Y867537D01*
X1259191Y867495D01*
X1259275D01*
X1259441Y867454D01*
X1259691Y867371D01*
X1260024Y867246D01*
X1260358Y867079D01*
X1260733Y866871D01*
X1261066Y866621D01*
X1261357Y866288D01*
X1261399Y866246D01*
X1261482Y866121D01*
X1261566Y865913D01*
X1261691Y865621D01*
X1261816Y865288D01*
X1261941Y864829D01*
X1261982Y864371D01*
Y863830D01*
Y863746D01*
X1261941Y863538D01*
X1261899Y863247D01*
X1261774Y862830D01*
X1261607Y862330D01*
X1261399Y861830D01*
X1261107Y861247D01*
X1260733Y860706D01*
X1260691Y860622D01*
X1260524Y860456D01*
X1260274Y860206D01*
X1259983Y859914D01*
X1259566Y859539D01*
X1259066Y859248D01*
X1258525Y858956D01*
X1257942Y858706D01*
X1257900D01*
X1257733Y858664D01*
X1257483Y858623D01*
X1257150Y858540D01*
X1256275D01*
X1256109Y858581D01*
X1255900Y858623D01*
X1255650Y858706D01*
X1255359Y858831D01*
X1255067Y858998D01*
X1254776Y859164D01*
X1254484Y859414D01*
X1254443Y859456D01*
X1254359Y859539D01*
X1254276Y859664D01*
X1254151Y859873D01*
X1254026Y860122D01*
X1253943Y860372D01*
X1253859Y860706D01*
Y861039D01*
Y861080D01*
Y861164D01*
X1253901Y861330D01*
X1253943Y861497D01*
X1254068Y861705D01*
X1254193Y861914D01*
X1254401Y862122D01*
X1254651Y862289D01*
X1254693D01*
X1254776Y862330D01*
X1254984Y862372D01*
X1255192Y862455D01*
X1255484Y862497D01*
X1255817Y862539D01*
X1256734D01*
X1256942Y862497D01*
X1257275Y862455D01*
X1257608Y862372D01*
X1257900D01*
X1258025Y862413D01*
X1258150Y862497D01*
X1258233Y862663D01*
X1258316Y862872D01*
X1258358Y862955D01*
X1258400Y863122D01*
X1258441Y863413D01*
X1258483Y863746D01*
Y863788D01*
Y863830D01*
Y864080D01*
X1258400Y864330D01*
X1258316Y864621D01*
Y864663D01*
X1258275Y864705D01*
X1258108Y864955D01*
X1257858Y865204D01*
X1257692Y865329D01*
X1257525Y865413D01*
X1257483D01*
X1257442Y865454D01*
X1257192Y865496D01*
X1256859D01*
X1256484Y865413D01*
X1256442D01*
X1256359Y865371D01*
X1256234Y865329D01*
X1256025Y865246D01*
X1255609Y865079D01*
X1255067Y864871D01*
X1255026D01*
X1254942Y864829D01*
X1254817Y864788D01*
X1254651Y864746D01*
X1254234Y864538D01*
X1253776Y864288D01*
X1253734Y864246D01*
X1253609Y864163D01*
X1253401Y864038D01*
X1253110Y863830D01*
X1252735Y863580D01*
X1252360Y863288D01*
X1251901Y862955D01*
X1251402Y862580D01*
X1250277Y861664D01*
X1249069Y860664D01*
X1247819Y859539D01*
X1246611Y858331D01*
X1246570Y858289D01*
X1246486Y858165D01*
X1246320Y857998D01*
X1246111Y857748D01*
X1245820Y857415D01*
X1245528Y857040D01*
X1245195Y856582D01*
X1244820Y856082D01*
X1244403Y855540D01*
X1244028Y854957D01*
X1243570Y854291D01*
X1243154Y853624D01*
X1242321Y852124D01*
X1241571Y850500D01*
Y850458D01*
X1241529Y850417D01*
X1241404Y850125D01*
X1241238Y849750D01*
X1240988Y849292D01*
X1240696Y848834D01*
X1240363Y848417D01*
X1240030Y848042D01*
X1239821Y847917D01*
X1239655Y847834D01*
X1239613D01*
X1239488Y847792D01*
X1239238Y847709D01*
X1238863Y847667D01*
X1238322Y847626D01*
X1238030Y847584D01*
X1236822D01*
X1236364Y847626D01*
X1235822Y847667D01*
X1235864Y847709D01*
X1235906Y847834D01*
X1235989Y848084D01*
X1236155Y848375D01*
X1236322Y848750D01*
X1236530Y849167D01*
X1236739Y849667D01*
X1237030Y850250D01*
X1237322Y850833D01*
X1237614Y851458D01*
X1238322Y852833D01*
X1239072Y854332D01*
X1239905Y855832D01*
X1239946Y855873D01*
X1239988Y855999D01*
X1240113Y856248D01*
X1240279Y856540D01*
X1240488Y856873D01*
X1240738Y857331D01*
X1240988Y857831D01*
X1241321Y858373D01*
X1241654Y858956D01*
X1241987Y859622D01*
X1242821Y860997D01*
X1243695Y862539D01*
X1244612Y864121D01*
X1244528D01*
X1244320Y864080D01*
X1244028Y863996D01*
X1243612Y863913D01*
X1243195Y863788D01*
X1242695Y863663D01*
X1242196Y863538D01*
X1241737Y863413D01*
X1241696D01*
X1241529Y863372D01*
X1241279Y863330D01*
X1240946Y863247D01*
X1240529Y863163D01*
X1240071Y863038D01*
X1239113Y862788D01*
Y862830D01*
Y862955D01*
X1239072Y862997D01*
X1239030Y863163D01*
X1239072D01*
X1239155Y863247D01*
X1239405Y863413D01*
X1239446Y863455D01*
X1239530Y863496D01*
X1239655Y863580D01*
X1239821Y863663D01*
X1239863D01*
X1239905Y863705D01*
X1240030Y863788D01*
X1240196Y863830D01*
X1240571Y864038D01*
X1241113Y864330D01*
X1241737Y864621D01*
X1242446Y864996D01*
X1243195Y865371D01*
X1243987Y865746D01*
X1244028D01*
X1244070Y865788D01*
X1244195Y865871D01*
X1244362Y865954D01*
X1244737Y866204D01*
X1245237Y866537D01*
X1245820Y866996D01*
X1246486Y867495D01*
X1247111Y868079D01*
X1247736Y868704D01*
X1247778Y868745D01*
X1247819Y868829D01*
X1247944Y868953D01*
X1248111Y869078D01*
X1248152Y869120D01*
X1248236Y869162D01*
X1248361Y869203D01*
X1248527Y869245D01*
X1249485D01*
X1249694Y869162D01*
D02*
G37*
G36*
X1312011Y870411D02*
X1312428Y870370D01*
X1313302Y870203D01*
X1313344D01*
X1313427Y870162D01*
X1313552Y870120D01*
X1313677Y870078D01*
X1314094Y869912D01*
X1314594Y869662D01*
X1315135Y869287D01*
X1315635Y868829D01*
X1316052Y868245D01*
X1316218Y867870D01*
X1316343Y867495D01*
Y867454D01*
X1316385Y867412D01*
X1316427Y867162D01*
X1316468Y866829D01*
Y866454D01*
Y866371D01*
Y866204D01*
X1316385Y865913D01*
X1316302Y865538D01*
X1316177Y865079D01*
X1315927Y864621D01*
X1315635Y864080D01*
X1315219Y863580D01*
X1315177Y863538D01*
X1315135Y863496D01*
X1315010Y863372D01*
X1314844Y863247D01*
X1314469Y862913D01*
X1314011Y862539D01*
X1313969D01*
X1313886Y862455D01*
X1313761Y862372D01*
X1313636Y862247D01*
X1313219Y861997D01*
X1312719Y861664D01*
X1312678D01*
X1312594Y861622D01*
X1312469Y861539D01*
X1312261Y861497D01*
X1311844Y861330D01*
X1311303Y861206D01*
X1311178D01*
X1311053Y861247D01*
X1310886Y861289D01*
X1310678Y861372D01*
X1310470Y861455D01*
X1310220Y861622D01*
X1310012Y861830D01*
X1309970Y861872D01*
X1309887Y861955D01*
X1309803Y862080D01*
X1309678Y862247D01*
X1309470Y862705D01*
X1309387Y862955D01*
Y863247D01*
Y863288D01*
Y863372D01*
X1309428Y863538D01*
X1309470Y863705D01*
X1309637Y864163D01*
X1309845Y864705D01*
Y864746D01*
X1309887Y864788D01*
X1310053Y865038D01*
X1310303Y865329D01*
X1310595Y865663D01*
X1310636Y865704D01*
X1310678Y865746D01*
X1310886Y865954D01*
X1311136Y866246D01*
X1311386Y866537D01*
X1311428Y866621D01*
X1311511Y866787D01*
X1311636Y866996D01*
X1311761Y867246D01*
X1311803Y867287D01*
X1311886Y867454D01*
X1311969Y867704D01*
X1312094Y867954D01*
X1312011D01*
X1311844Y868037D01*
X1311553Y868079D01*
X1311303Y868204D01*
X1311220Y868245D01*
X1311053Y868287D01*
X1310803Y868329D01*
X1310511Y868287D01*
X1310470D01*
X1310303Y868245D01*
X1310095Y868162D01*
X1309803Y868079D01*
X1309470Y867954D01*
X1309095Y867829D01*
X1308262Y867495D01*
X1308220D01*
X1308054Y867412D01*
X1307845Y867329D01*
X1307554Y867204D01*
X1307221Y867079D01*
X1306887Y866912D01*
X1306096Y866537D01*
X1306013Y866496D01*
X1305846Y866371D01*
X1305554Y866162D01*
X1305179Y865871D01*
X1304721Y865538D01*
X1304305Y865163D01*
X1303846Y864705D01*
X1303388Y864205D01*
X1303347Y864163D01*
X1303222Y863955D01*
X1303013Y863705D01*
X1302764Y863330D01*
X1302472Y862913D01*
X1302139Y862413D01*
X1301805Y861914D01*
X1301472Y861330D01*
X1301431Y861247D01*
X1301306Y860997D01*
X1301097Y860664D01*
X1300847Y860206D01*
X1300514Y859622D01*
X1300222Y858998D01*
X1299889Y858331D01*
X1299556Y857665D01*
X1299514Y857581D01*
X1299431Y857331D01*
X1299264Y856957D01*
X1299056Y856498D01*
X1298848Y855915D01*
X1298681Y855207D01*
X1298473Y854499D01*
X1298306Y853707D01*
Y853666D01*
Y853624D01*
Y853499D01*
X1298265Y853333D01*
Y852916D01*
X1298306Y852416D01*
X1298390Y851833D01*
X1298556Y851250D01*
X1298764Y850708D01*
X1299098Y850250D01*
X1299139Y850208D01*
X1299306Y850083D01*
X1299556Y849917D01*
X1299931Y849792D01*
X1300431Y849625D01*
X1301014Y849542D01*
X1301722D01*
X1302513Y849667D01*
X1302555D01*
X1302722Y849750D01*
X1302972Y849792D01*
X1303263Y849917D01*
X1303597Y850042D01*
X1304013Y850208D01*
X1304846Y850583D01*
X1304888Y850625D01*
X1305055Y850708D01*
X1305263Y850833D01*
X1305554Y851000D01*
X1305888Y851208D01*
X1306263Y851458D01*
X1307054Y851916D01*
X1307096Y851958D01*
X1307221Y852041D01*
X1307429Y852166D01*
X1307679Y852333D01*
X1308012Y852541D01*
X1308345Y852791D01*
X1309053Y853374D01*
X1309095Y853416D01*
X1309220Y853499D01*
X1309428Y853666D01*
X1309678Y853874D01*
X1310012Y854124D01*
X1310387Y854416D01*
X1311220Y855040D01*
Y854999D01*
X1311178Y854874D01*
X1311095Y854624D01*
X1310970Y854332D01*
X1310803Y853999D01*
X1310595Y853582D01*
X1310387Y853166D01*
X1310095Y852666D01*
X1309720Y852166D01*
X1309345Y851666D01*
X1308887Y851166D01*
X1308387Y850625D01*
X1307804Y850125D01*
X1307179Y849667D01*
X1306471Y849209D01*
X1305721Y848792D01*
X1305679Y848750D01*
X1305513Y848709D01*
X1305305Y848584D01*
X1305013Y848459D01*
X1304638Y848334D01*
X1304180Y848167D01*
X1303680Y848000D01*
X1303138Y847834D01*
X1302555Y847709D01*
X1301889Y847584D01*
X1301222Y847501D01*
X1300556Y847459D01*
X1299848Y847417D01*
X1299139Y847459D01*
X1298431Y847584D01*
X1297723Y847751D01*
X1297681D01*
X1297598Y847792D01*
X1297473Y847834D01*
X1297307Y847917D01*
X1296890Y848084D01*
X1296349Y848375D01*
X1295724Y848709D01*
X1295099Y849125D01*
X1294516Y849667D01*
X1293974Y850250D01*
Y850292D01*
X1293932Y850333D01*
X1293766Y850583D01*
X1293557Y850958D01*
X1293349Y851500D01*
X1293141Y852124D01*
X1292974Y852833D01*
X1292891Y853666D01*
X1292933Y854582D01*
Y854624D01*
Y854749D01*
X1292974Y854957D01*
X1293016Y855165D01*
X1293058Y855457D01*
X1293099Y855790D01*
X1293266Y856498D01*
Y856540D01*
X1293308Y856665D01*
X1293349Y856873D01*
X1293432Y857123D01*
X1293474Y857456D01*
X1293557Y857790D01*
X1293683Y858623D01*
X1293516D01*
X1293349Y858664D01*
X1293141Y858706D01*
X1292849D01*
X1292558Y858748D01*
X1291850Y858873D01*
X1291683D01*
X1291516Y858914D01*
X1291308Y858956D01*
X1290767Y858998D01*
X1290142Y859123D01*
Y859164D01*
Y859206D01*
Y859414D01*
Y859498D01*
Y859664D01*
X1290183D01*
X1290267Y859706D01*
X1290433Y859747D01*
X1290600Y859831D01*
X1291058Y859997D01*
X1291600Y860164D01*
X1291641D01*
X1291725Y860206D01*
X1291891Y860247D01*
X1292099Y860331D01*
X1292599Y860497D01*
X1293183Y860706D01*
X1293266Y860747D01*
X1293474Y860831D01*
X1293766Y860997D01*
X1294182Y861206D01*
X1294641Y861455D01*
X1295140Y861789D01*
X1295640Y862122D01*
X1296140Y862539D01*
X1296182Y862580D01*
X1296349Y862747D01*
X1296640Y862997D01*
X1296973Y863288D01*
X1297348Y863663D01*
X1297806Y864080D01*
X1298764Y864955D01*
X1298806Y864996D01*
X1298848Y865038D01*
X1298973Y865163D01*
X1299098Y865288D01*
X1299514Y865663D01*
X1300056Y866121D01*
X1300722Y866662D01*
X1301431Y867246D01*
X1302222Y867870D01*
X1303097Y868454D01*
X1303138D01*
X1303222Y868537D01*
X1303347Y868579D01*
X1303513Y868704D01*
X1303722Y868829D01*
X1303972Y868953D01*
X1304596Y869245D01*
X1305346Y869578D01*
X1306263Y869870D01*
X1307221Y870120D01*
X1308262Y870286D01*
X1308304D01*
X1308470Y870328D01*
X1308762D01*
X1309095Y870370D01*
X1309470Y870411D01*
X1309928D01*
X1310886Y870453D01*
X1311636D01*
X1312011Y870411D01*
D02*
G37*
G36*
X1204830Y870162D02*
X1205372Y870120D01*
X1205997Y869995D01*
X1206621Y869870D01*
X1207246Y869662D01*
X1207830Y869412D01*
X1207913Y869370D01*
X1208079Y869245D01*
X1208329Y869037D01*
X1208621Y868745D01*
X1208954Y868370D01*
X1209246Y867954D01*
X1209496Y867412D01*
X1209662Y866787D01*
Y866704D01*
X1209704Y866537D01*
Y866246D01*
Y865871D01*
X1209621Y865413D01*
X1209496Y864871D01*
X1209287Y864330D01*
X1208954Y863746D01*
X1208913Y863663D01*
X1208746Y863496D01*
X1208538Y863247D01*
X1208204Y862913D01*
X1207788Y862497D01*
X1207288Y862122D01*
X1206663Y861705D01*
X1205997Y861330D01*
X1205955D01*
X1205872Y861247D01*
X1205747Y861206D01*
X1205580Y861122D01*
X1205538D01*
X1205413Y861080D01*
X1205247Y861039D01*
X1205122Y860956D01*
X1204455D01*
X1204164Y860997D01*
X1203830Y861080D01*
X1203497Y861206D01*
X1203206Y861414D01*
X1203164Y861455D01*
X1203081Y861539D01*
X1202997Y861664D01*
X1202872Y861872D01*
X1202789Y862080D01*
X1202747Y862413D01*
X1202706Y862747D01*
X1202789Y863163D01*
Y863205D01*
X1202831Y863288D01*
X1202914Y863455D01*
X1202997Y863622D01*
X1203206Y864080D01*
X1203539Y864621D01*
X1203580Y864663D01*
X1203622Y864746D01*
X1203747Y864871D01*
X1203872Y865079D01*
X1204164Y865538D01*
X1204497Y866038D01*
X1204539Y866079D01*
X1204622Y866246D01*
X1204789Y866496D01*
X1204955Y866787D01*
X1204997Y866871D01*
X1205080Y867037D01*
X1205205Y867287D01*
X1205372Y867579D01*
X1205288D01*
X1205039Y867620D01*
X1204705Y867704D01*
X1204330Y867746D01*
X1204247Y867787D01*
X1204039Y867829D01*
X1203747Y867870D01*
X1203289D01*
X1203122Y867829D01*
X1202831Y867746D01*
X1202414Y867662D01*
X1201956Y867495D01*
X1201456Y867329D01*
X1200415Y866912D01*
X1200373Y866871D01*
X1200165Y866787D01*
X1199915Y866621D01*
X1199582Y866413D01*
X1199207Y866162D01*
X1198748Y865829D01*
X1198332Y865496D01*
X1197874Y865079D01*
X1197832Y865038D01*
X1197749Y864955D01*
X1197624Y864829D01*
X1197457Y864663D01*
X1197249Y864413D01*
X1197041Y864163D01*
X1196457Y863496D01*
X1195833Y862663D01*
X1195166Y861747D01*
X1194500Y860747D01*
X1193875Y859664D01*
Y859622D01*
X1193791Y859539D01*
X1193750Y859373D01*
X1193625Y859164D01*
X1193500Y858914D01*
X1193375Y858581D01*
X1193208Y858206D01*
X1193042Y857790D01*
X1192708Y856873D01*
X1192333Y855790D01*
X1192000Y854624D01*
X1191709Y853374D01*
Y853333D01*
X1191667Y853249D01*
Y853124D01*
Y852958D01*
X1191625Y852541D01*
X1191709Y852000D01*
Y851958D01*
Y851874D01*
X1191750Y851750D01*
X1191792Y851541D01*
X1191875Y851125D01*
X1192042Y850583D01*
Y850542D01*
X1192084Y850458D01*
X1192167Y850333D01*
X1192250Y850167D01*
X1192542Y849792D01*
X1192750Y849583D01*
X1193000Y849417D01*
X1193042D01*
X1193125Y849375D01*
X1193250Y849292D01*
X1193417Y849250D01*
X1193916Y849167D01*
X1194166Y849125D01*
X1194500Y849167D01*
X1194541D01*
X1194666Y849209D01*
X1194833Y849250D01*
X1195041Y849292D01*
X1195624Y849375D01*
X1196249Y849500D01*
X1196291D01*
X1196374Y849542D01*
X1196541Y849583D01*
X1196707Y849625D01*
X1197166Y849833D01*
X1197707Y850083D01*
X1197790Y850125D01*
X1197999Y850250D01*
X1198332Y850458D01*
X1198748Y850708D01*
X1199248Y851000D01*
X1199831Y851375D01*
X1201040Y852166D01*
X1201123Y852208D01*
X1201290Y852374D01*
X1201623Y852583D01*
X1202039Y852874D01*
X1202539Y853207D01*
X1203081Y853582D01*
X1203706Y853999D01*
X1204330Y854416D01*
Y854374D01*
X1204289Y854249D01*
X1204205Y854041D01*
X1204122Y853791D01*
X1203956Y853499D01*
X1203789Y853124D01*
X1203580Y852708D01*
X1203289Y852291D01*
X1202997Y851833D01*
X1202623Y851333D01*
X1202206Y850833D01*
X1201748Y850375D01*
X1201206Y849875D01*
X1200581Y849417D01*
X1199957Y848959D01*
X1199207Y848542D01*
X1199165Y848500D01*
X1199040Y848459D01*
X1198832Y848334D01*
X1198499Y848209D01*
X1198165Y848042D01*
X1197707Y847876D01*
X1197249Y847709D01*
X1196666Y847542D01*
X1196083Y847417D01*
X1195458Y847292D01*
X1194750Y847167D01*
X1194041Y847126D01*
X1193333Y847084D01*
X1192542Y847126D01*
X1191792Y847251D01*
X1191000Y847417D01*
X1190959D01*
X1190917Y847459D01*
X1190792Y847501D01*
X1190626Y847542D01*
X1190209Y847709D01*
X1189709Y847917D01*
X1189126Y848209D01*
X1188543Y848625D01*
X1187960Y849084D01*
X1187418Y849667D01*
X1187376Y849750D01*
X1187210Y849958D01*
X1187001Y850292D01*
X1186793Y850750D01*
X1186543Y851291D01*
X1186377Y851958D01*
X1186252Y852708D01*
X1186210Y853541D01*
Y853582D01*
Y853749D01*
X1186252Y853957D01*
X1186293Y854249D01*
Y854624D01*
X1186335Y854999D01*
X1186460Y855832D01*
Y855873D01*
X1186502Y856040D01*
X1186543Y856290D01*
X1186627Y856582D01*
X1186710Y856957D01*
X1186793Y857373D01*
X1186918Y858248D01*
X1186793D01*
X1186627Y858289D01*
X1186418Y858331D01*
X1186127Y858373D01*
X1185835Y858415D01*
X1185169Y858540D01*
X1185127D01*
X1185002Y858581D01*
X1184835D01*
X1184585Y858623D01*
X1184335Y858664D01*
X1184002Y858706D01*
X1183252Y858789D01*
X1183294Y858831D01*
X1183336Y858956D01*
X1183419Y859123D01*
X1183502Y859206D01*
Y859248D01*
X1183544Y859331D01*
X1183627Y859373D01*
X1183669Y859414D01*
X1183711D01*
X1183794Y859456D01*
X1183919Y859498D01*
X1184127Y859539D01*
X1184335Y859581D01*
X1184585Y859664D01*
X1185252Y859914D01*
X1185960Y860164D01*
X1186710Y860539D01*
X1187501Y860997D01*
X1188293Y861497D01*
X1188335D01*
X1188376Y861580D01*
X1188626Y861747D01*
X1189043Y862039D01*
X1189542Y862455D01*
X1190126Y862955D01*
X1190751Y863496D01*
X1191417Y864121D01*
X1192125Y864788D01*
X1192167Y864829D01*
X1192250Y864913D01*
X1192375Y865038D01*
X1192542Y865204D01*
X1192792Y865371D01*
X1193042Y865621D01*
X1193708Y866162D01*
X1194500Y866787D01*
X1195416Y867454D01*
X1196416Y868079D01*
X1197457Y868704D01*
X1197499D01*
X1197582Y868787D01*
X1197749Y868829D01*
X1197957Y868953D01*
X1198249Y869037D01*
X1198582Y869162D01*
X1198915Y869328D01*
X1199373Y869453D01*
X1199831Y869578D01*
X1200331Y869745D01*
X1201414Y869953D01*
X1202664Y870120D01*
X1203997Y870203D01*
X1204414D01*
X1204830Y870162D01*
D02*
G37*
G36*
X1175671Y870036D02*
X1175879D01*
X1176129Y869995D01*
X1176462Y869912D01*
X1176837Y869828D01*
X1177254Y869745D01*
X1177712Y869578D01*
X1178170Y869412D01*
X1178212Y869370D01*
X1178379Y869287D01*
X1178587Y869162D01*
X1178837Y868953D01*
X1179087Y868662D01*
X1179378Y868287D01*
X1179628Y867870D01*
X1179837Y867329D01*
X1179878Y867246D01*
X1179920Y867079D01*
X1180003Y866787D01*
X1180045Y866413D01*
X1180087Y865996D01*
Y865538D01*
X1180045Y865038D01*
X1179920Y864538D01*
X1179878Y864496D01*
X1179837Y864330D01*
X1179712Y864080D01*
X1179545Y863788D01*
X1179295Y863455D01*
X1179045Y863080D01*
X1178670Y862705D01*
X1178295Y862372D01*
X1178254Y862330D01*
X1178087Y862205D01*
X1177837Y862039D01*
X1177504Y861789D01*
X1177129Y861497D01*
X1176712Y861206D01*
X1175754Y860539D01*
X1175713Y860497D01*
X1175504Y860414D01*
X1175255Y860247D01*
X1174880Y860039D01*
X1174463Y859831D01*
X1173963Y859581D01*
X1172963Y859123D01*
X1172880Y859081D01*
X1172630Y858998D01*
X1172255Y858831D01*
X1171755Y858623D01*
X1171131Y858415D01*
X1170464Y858165D01*
X1169756Y857956D01*
X1168964Y857748D01*
X1168923D01*
X1168881Y857706D01*
X1168756D01*
X1168589Y857665D01*
X1168173Y857581D01*
X1167631Y857498D01*
X1166965Y857415D01*
X1166257Y857373D01*
X1165465Y857331D01*
X1164674Y857373D01*
X1164299D01*
X1164049Y857331D01*
X1163508Y857206D01*
X1162924Y856957D01*
X1162883Y856915D01*
X1162841Y856873D01*
X1162716Y856748D01*
X1162591Y856540D01*
X1162466Y856332D01*
X1162341Y856082D01*
X1162216Y855749D01*
X1162133Y855374D01*
Y855332D01*
X1162091Y855207D01*
Y855040D01*
X1162049Y854832D01*
X1161966Y854540D01*
X1161925Y854249D01*
X1161800Y853541D01*
Y853499D01*
X1161758Y853374D01*
Y853207D01*
X1161716Y852999D01*
X1161675Y852416D01*
X1161633Y851791D01*
Y851750D01*
Y851583D01*
X1161675Y851333D01*
X1161716Y851041D01*
X1161883Y850375D01*
X1162008Y850083D01*
X1162216Y849833D01*
X1162258Y849792D01*
X1162341Y849750D01*
X1162508Y849625D01*
X1162758Y849542D01*
X1163049Y849417D01*
X1163424Y849292D01*
X1163841Y849209D01*
X1164341Y849167D01*
X1164591D01*
X1164882Y849209D01*
X1165215Y849250D01*
X1165632Y849292D01*
X1166090Y849375D01*
X1166590Y849500D01*
X1167048Y849667D01*
X1167090Y849708D01*
X1167256Y849750D01*
X1167506Y849875D01*
X1167840Y850000D01*
X1168215Y850167D01*
X1168631Y850375D01*
X1169548Y850833D01*
X1169589Y850875D01*
X1169714Y850916D01*
X1169881Y851000D01*
X1170089Y851125D01*
X1170672Y851416D01*
X1171297Y851708D01*
X1171339Y851750D01*
X1171464Y851791D01*
X1171630Y851874D01*
X1171880Y852000D01*
X1172464Y852291D01*
X1173130Y852583D01*
Y852541D01*
Y852499D01*
X1173213Y852333D01*
Y852291D01*
X1173255Y852249D01*
X1173380Y852000D01*
X1173338Y851958D01*
X1173297Y851916D01*
X1173172Y851791D01*
X1173005Y851625D01*
X1172547Y851208D01*
X1171964Y850708D01*
X1171255Y850125D01*
X1170464Y849500D01*
X1169548Y848875D01*
X1168589Y848292D01*
X1168548D01*
X1168465Y848250D01*
X1168298Y848167D01*
X1168131Y848084D01*
X1167840Y847959D01*
X1167548Y847834D01*
X1167215Y847751D01*
X1166798Y847626D01*
X1165923Y847376D01*
X1164882Y847167D01*
X1163757Y847042D01*
X1162383D01*
X1162258Y847084D01*
X1162049Y847126D01*
X1162008Y847167D01*
X1161883Y847209D01*
X1161716Y847251D01*
X1161425D01*
X1161258Y847292D01*
X1161050D01*
X1160758Y847376D01*
X1160467Y847417D01*
X1159800Y847626D01*
X1159092Y847876D01*
X1158342Y848292D01*
X1157676Y848875D01*
X1157342Y849209D01*
X1157093Y849583D01*
Y849625D01*
X1157051Y849667D01*
X1156967Y849792D01*
X1156884Y849958D01*
X1156801Y850167D01*
X1156718Y850417D01*
X1156509Y851041D01*
X1156301Y851750D01*
X1156134Y852583D01*
X1156093Y853499D01*
X1156134Y854499D01*
Y854540D01*
X1156176Y854624D01*
X1156218Y854790D01*
X1156259Y854999D01*
X1156384Y855499D01*
X1156551Y856082D01*
Y856123D01*
X1156593Y856248D01*
X1156676Y856373D01*
X1156718Y856582D01*
X1156759Y857082D01*
Y857331D01*
X1156676Y857581D01*
Y857623D01*
X1156634Y857665D01*
X1156426Y857873D01*
X1156301Y857998D01*
X1156093Y858165D01*
X1155884Y858331D01*
X1155593Y858456D01*
X1155551D01*
X1155468Y858498D01*
X1155301Y858581D01*
X1155093Y858664D01*
X1154593Y858914D01*
X1154135Y859206D01*
X1154093Y859248D01*
X1154010Y859289D01*
X1153885Y859373D01*
X1153677Y859498D01*
X1153260Y859831D01*
X1152719Y860247D01*
X1152677Y860289D01*
X1152635Y860331D01*
X1152510Y860497D01*
X1152385Y860664D01*
X1152219Y860914D01*
X1152052Y861164D01*
X1151844Y861539D01*
X1151677Y861914D01*
X1151719D01*
X1151844Y861830D01*
X1152052Y861747D01*
X1152302Y861664D01*
X1152927Y861414D01*
X1153593Y861122D01*
X1153635D01*
X1153718Y861039D01*
X1153885Y860956D01*
X1154093Y860872D01*
X1154635Y860622D01*
X1155260Y860372D01*
X1155343Y860331D01*
X1155509Y860289D01*
X1155801Y860164D01*
X1156134Y860081D01*
X1156926Y859914D01*
X1157301Y859873D01*
X1157634Y859914D01*
X1157676D01*
X1157759Y859956D01*
X1157884Y860039D01*
X1158092Y860164D01*
X1158342Y860372D01*
X1158634Y860664D01*
X1158967Y861039D01*
X1159342Y861497D01*
X1159383Y861539D01*
X1159467Y861622D01*
X1159592Y861789D01*
X1159758Y862039D01*
X1159967Y862289D01*
X1160258Y862622D01*
X1160925Y863372D01*
X1161716Y864205D01*
X1162633Y865079D01*
X1163632Y865954D01*
X1164757Y866787D01*
X1164799Y866829D01*
X1164882Y866871D01*
X1165049Y866996D01*
X1165299Y867121D01*
X1165590Y867329D01*
X1165923Y867495D01*
X1166340Y867746D01*
X1166757Y867954D01*
X1167256Y868204D01*
X1167798Y868454D01*
X1169006Y868953D01*
X1170339Y869412D01*
X1171755Y869787D01*
X1171797D01*
X1171922Y869828D01*
X1172130D01*
X1172338Y869870D01*
X1172630Y869912D01*
X1172963Y869953D01*
X1173671Y870036D01*
X1173838D01*
X1174046Y870078D01*
X1174963D01*
X1175671Y870036D01*
D02*
G37*
G36*
X1282394Y870203D02*
X1282269Y869953D01*
X1282102Y869578D01*
X1281894Y869120D01*
X1281602Y868537D01*
X1281311Y867912D01*
X1280603Y866537D01*
X1280561Y866454D01*
X1280477Y866204D01*
X1280269Y865829D01*
X1280061Y865371D01*
X1279811Y864788D01*
X1279478Y864163D01*
X1278770Y862788D01*
Y862747D01*
X1278728Y862705D01*
X1278645Y862580D01*
X1278561Y862413D01*
X1278353Y861997D01*
X1278062Y861455D01*
X1277728Y860789D01*
X1277353Y860081D01*
X1276937Y859331D01*
X1276520Y858540D01*
Y858498D01*
X1276479Y858456D01*
X1276395Y858331D01*
X1276312Y858165D01*
X1276104Y857748D01*
X1275812Y857165D01*
X1275479Y856498D01*
X1275104Y855749D01*
X1274687Y854957D01*
X1274271Y854166D01*
Y854124D01*
X1274229Y854082D01*
X1274104Y853832D01*
X1273938Y853499D01*
X1273813Y853124D01*
Y853083D01*
X1273771Y852999D01*
Y852916D01*
X1273729Y852749D01*
X1273646Y852333D01*
X1273563Y851916D01*
Y851874D01*
Y851708D01*
Y851458D01*
X1273604Y851166D01*
X1273688Y850875D01*
X1273813Y850542D01*
X1274021Y850250D01*
X1274271Y850000D01*
X1274312D01*
X1274396Y849917D01*
X1274604Y849875D01*
X1274812Y849833D01*
X1275104D01*
X1275437Y849875D01*
X1275854Y849958D01*
X1276270Y850167D01*
X1276312Y850208D01*
X1276479Y850292D01*
X1276687Y850417D01*
X1276937Y850625D01*
X1277270Y850833D01*
X1277645Y851083D01*
X1278353Y851708D01*
X1278395Y851750D01*
X1278520Y851874D01*
X1278728Y852041D01*
X1279020Y852249D01*
X1279311Y852541D01*
X1279686Y852833D01*
X1280436Y853457D01*
X1280477Y853499D01*
X1280561Y853582D01*
X1280686Y853707D01*
X1280852Y853832D01*
X1281311Y854249D01*
X1281769Y854707D01*
X1281810Y854749D01*
X1281852Y854832D01*
X1281977Y854957D01*
X1282144Y855124D01*
X1282560Y855540D01*
X1283060Y855999D01*
X1283102Y856040D01*
X1283185Y856082D01*
X1283393Y856165D01*
X1283685Y856248D01*
X1283893D01*
X1284102Y856290D01*
X1284352Y856332D01*
Y856290D01*
Y856123D01*
X1284393Y855915D01*
X1284476Y855665D01*
Y855624D01*
Y855457D01*
X1284435Y855249D01*
X1284352Y855040D01*
Y854999D01*
X1284268Y854915D01*
X1284185Y854790D01*
X1284060Y854624D01*
X1283685Y854166D01*
X1283227Y853582D01*
X1282685Y852874D01*
X1282061Y852166D01*
X1281352Y851416D01*
X1280603Y850667D01*
X1280561Y850625D01*
X1280519Y850583D01*
X1280394Y850500D01*
X1280228Y850333D01*
X1279811Y850000D01*
X1279186Y849542D01*
X1278478Y849084D01*
X1277645Y848584D01*
X1276687Y848084D01*
X1275645Y847667D01*
X1275604D01*
X1275520Y847626D01*
X1275354Y847584D01*
X1275146Y847542D01*
X1274604Y847459D01*
X1273979Y847417D01*
X1273646D01*
X1273438Y847459D01*
X1272938Y847501D01*
X1272355Y847584D01*
X1272271D01*
X1272063Y847626D01*
X1271771Y847709D01*
X1271438Y847834D01*
X1271022Y848000D01*
X1270605Y848209D01*
X1270230Y848459D01*
X1269897Y848792D01*
X1269855Y848834D01*
X1269772Y848959D01*
X1269605Y849167D01*
X1269439Y849458D01*
X1269272Y849833D01*
X1269105Y850250D01*
X1268939Y850750D01*
X1268856Y851291D01*
Y851375D01*
X1268814Y851583D01*
Y851874D01*
X1268772Y852291D01*
Y852749D01*
X1268814Y853291D01*
X1268897Y853791D01*
X1269022Y854332D01*
X1269064Y854416D01*
X1269105Y854582D01*
X1269189Y854874D01*
X1269355Y855207D01*
X1269480Y855624D01*
X1269689Y856123D01*
X1270147Y857123D01*
X1270189Y857165D01*
X1270272Y857331D01*
X1270397Y857581D01*
X1270563Y857915D01*
X1270730Y858289D01*
X1270980Y858706D01*
X1271480Y859664D01*
X1271522Y859706D01*
X1271563Y859873D01*
X1271688Y860122D01*
X1271855Y860456D01*
X1272063Y860831D01*
X1272271Y861289D01*
X1272521Y861789D01*
X1272771Y862289D01*
X1271396D01*
X1271105Y862247D01*
X1270772Y862289D01*
X1270438Y862372D01*
X1270313D01*
X1270189Y862413D01*
X1270063Y862455D01*
X1269647Y862497D01*
X1269189Y862622D01*
X1269147D01*
X1269105Y862663D01*
X1268856Y862788D01*
X1268522Y862955D01*
X1268147Y863163D01*
X1268106Y863205D01*
X1268022Y863330D01*
X1267897Y863538D01*
X1267814Y863830D01*
Y863871D01*
X1267772Y863913D01*
X1267731Y864121D01*
Y864371D01*
Y864621D01*
Y864663D01*
X1267814Y864788D01*
X1267939Y864955D01*
X1268147Y865163D01*
X1268231Y865204D01*
X1268397Y865288D01*
X1268606Y865371D01*
X1268856Y865413D01*
X1269355D01*
X1269647Y865454D01*
X1269939D01*
X1270688Y865538D01*
X1271563Y865663D01*
X1272521Y865871D01*
X1273521Y866204D01*
X1274521Y866621D01*
X1274562D01*
X1274646Y866662D01*
X1274771Y866746D01*
X1274979Y866871D01*
X1275187Y866954D01*
X1275479Y867121D01*
X1276104Y867454D01*
X1276895Y867870D01*
X1277770Y868329D01*
X1278686Y868829D01*
X1279644Y869328D01*
X1279686D01*
X1279769Y869370D01*
X1279894Y869453D01*
X1280019Y869537D01*
X1280436Y869745D01*
X1280894Y869953D01*
X1280936D01*
X1281019Y869995D01*
X1281144Y870036D01*
X1281352Y870078D01*
X1281810Y870203D01*
X1282435Y870286D01*
X1282394Y870203D01*
D02*
G37*
G36*
X1145262Y883158D02*
X1145845Y883033D01*
X1146470Y882867D01*
X1147137Y882617D01*
X1147720Y882200D01*
X1148220Y881700D01*
X1148261Y881617D01*
X1148386Y881409D01*
X1148553Y881075D01*
X1148720Y880617D01*
X1148845Y880034D01*
X1148886Y879368D01*
X1148803Y878576D01*
X1148678Y878159D01*
X1148553Y877701D01*
Y877660D01*
X1148511Y877535D01*
X1148428Y877326D01*
X1148303Y877076D01*
X1148178Y876743D01*
X1148053Y876410D01*
X1147678Y875702D01*
X1147636Y875660D01*
X1147595Y875535D01*
X1147470Y875368D01*
X1147345Y875119D01*
X1147178Y874827D01*
X1147012Y874494D01*
X1146637Y873786D01*
X1146595Y873744D01*
X1146512Y873619D01*
X1146387Y873369D01*
X1146220Y873077D01*
X1146012Y872702D01*
X1145762Y872244D01*
X1145470Y871744D01*
X1145137Y871161D01*
X1144804Y870578D01*
X1144429Y869912D01*
X1143596Y868495D01*
X1142763Y867037D01*
X1141846Y865496D01*
X1141805Y865454D01*
X1141721Y865329D01*
X1141596Y865079D01*
X1141430Y864788D01*
X1141221Y864413D01*
X1140972Y863955D01*
X1140680Y863455D01*
X1140347Y862872D01*
X1139972Y862289D01*
X1139639Y861622D01*
X1138805Y860206D01*
X1137972Y858706D01*
X1137139Y857123D01*
X1137098Y857082D01*
X1137056Y856957D01*
X1136931Y856748D01*
X1136848Y856498D01*
X1136681Y856207D01*
X1136556Y855873D01*
X1136264Y855124D01*
Y855082D01*
X1136223Y854957D01*
X1136181Y854749D01*
X1136098Y854457D01*
X1136056Y854124D01*
X1135973Y853791D01*
X1135806Y852958D01*
Y852916D01*
Y852749D01*
Y852541D01*
Y852291D01*
X1135848Y852000D01*
X1135973Y851708D01*
X1136140Y851416D01*
X1136348Y851208D01*
X1136389D01*
X1136473Y851125D01*
X1136598Y851083D01*
X1136806Y851041D01*
X1137098Y851000D01*
X1137431D01*
X1137806Y851041D01*
X1138264Y851125D01*
X1138347D01*
X1138514Y851208D01*
X1138805Y851291D01*
X1139139Y851416D01*
X1139555Y851583D01*
X1139972Y851791D01*
X1140388Y852083D01*
X1140805Y852416D01*
X1140847Y852458D01*
X1140972Y852583D01*
X1141180Y852791D01*
X1141471Y853041D01*
X1141763Y853333D01*
X1142138Y853707D01*
X1142888Y854499D01*
Y854540D01*
X1142971Y854624D01*
X1143054Y854707D01*
X1143179Y854874D01*
X1143513Y855249D01*
X1143929Y855665D01*
X1143971Y855707D01*
X1144013Y855749D01*
X1144262Y856040D01*
X1144596Y856373D01*
X1144971Y856790D01*
X1145012Y856832D01*
X1145096Y856873D01*
X1145220Y856957D01*
X1145387Y857082D01*
X1145762Y857290D01*
X1146262Y857456D01*
X1146303D01*
X1146387Y857498D01*
X1146678D01*
X1146887Y857456D01*
X1147137Y857373D01*
X1147345Y857248D01*
X1147595Y857040D01*
X1147636Y856998D01*
X1147678Y856915D01*
X1147803Y856832D01*
X1147887Y856665D01*
X1147970Y856457D01*
X1148053Y856248D01*
Y856040D01*
X1148011Y855832D01*
Y855790D01*
X1147970Y855749D01*
X1147845Y855457D01*
X1147636Y855082D01*
X1147345Y854707D01*
X1147262Y854624D01*
X1147053Y854416D01*
X1146720Y854041D01*
X1146303Y853582D01*
X1145762Y853041D01*
X1145179Y852416D01*
X1144512Y851791D01*
X1143846Y851125D01*
X1143763Y851041D01*
X1143554Y850833D01*
X1143179Y850542D01*
X1142721Y850125D01*
X1142138Y849667D01*
X1141471Y849167D01*
X1140722Y848667D01*
X1139930Y848209D01*
X1139889Y848167D01*
X1139764Y848126D01*
X1139555Y848000D01*
X1139264Y847876D01*
X1138930Y847751D01*
X1138514Y847584D01*
X1138056Y847459D01*
X1137597Y847334D01*
X1137056Y847209D01*
X1136556Y847126D01*
X1135973Y847084D01*
X1135431Y847126D01*
X1134890Y847209D01*
X1134348Y847376D01*
X1133807Y847584D01*
X1133307Y847917D01*
X1133265Y847959D01*
X1133182Y848000D01*
X1133057Y848126D01*
X1132890Y848292D01*
X1132724Y848500D01*
X1132515Y848792D01*
X1132265Y849084D01*
X1132016Y849458D01*
X1131766Y849833D01*
X1131557Y850292D01*
X1131349Y850750D01*
X1131141Y851291D01*
X1130974Y851874D01*
X1130807Y852499D01*
X1130724Y853124D01*
X1130683Y853832D01*
Y853874D01*
Y853916D01*
X1130724Y854041D01*
X1130766Y854207D01*
X1130807Y854624D01*
X1130932Y855207D01*
X1131058Y855832D01*
X1131224Y856582D01*
X1131432Y857373D01*
X1131641Y858165D01*
Y858206D01*
X1131682Y858248D01*
X1131724Y858373D01*
X1131766Y858540D01*
X1131891Y858998D01*
X1132099Y859581D01*
X1132349Y860247D01*
X1132640Y860997D01*
X1132974Y861747D01*
X1133390Y862539D01*
Y862580D01*
X1133432Y862622D01*
X1133515Y862747D01*
X1133598Y862913D01*
X1133890Y863372D01*
X1134223Y863913D01*
X1134640Y864580D01*
X1135098Y865329D01*
X1135640Y866121D01*
X1136181Y866912D01*
Y866954D01*
X1136264Y866996D01*
X1136306Y867121D01*
X1136431Y867287D01*
X1136723Y867704D01*
X1137098Y868287D01*
X1137556Y868912D01*
X1138056Y869662D01*
X1138597Y870453D01*
X1139139Y871245D01*
X1139180Y871286D01*
X1139264Y871411D01*
X1139430Y871619D01*
X1139597Y871911D01*
X1139847Y872203D01*
X1140097Y872578D01*
X1140722Y873327D01*
X1140763Y873369D01*
X1140847Y873494D01*
X1141013Y873702D01*
X1141221Y873994D01*
X1141471Y874285D01*
X1141763Y874660D01*
X1142346Y875452D01*
X1142388Y875493D01*
X1142513Y875660D01*
X1142680Y875910D01*
X1142888Y876202D01*
Y876243D01*
X1142929Y876285D01*
X1143054Y876493D01*
X1143179Y876785D01*
X1143304Y877076D01*
Y877118D01*
X1143346Y877201D01*
Y877368D01*
Y877535D01*
Y877743D01*
X1143304Y877951D01*
X1143179Y878159D01*
X1143054Y878326D01*
X1142971Y878368D01*
X1142804Y878493D01*
X1142430Y878534D01*
X1142221D01*
X1141930Y878493D01*
X1141846D01*
X1141638Y878409D01*
X1141388Y878284D01*
X1141055Y878118D01*
X1140972Y878076D01*
X1140763Y877993D01*
X1140513Y877868D01*
X1140180Y877701D01*
X1140138Y877660D01*
X1139972Y877535D01*
X1139764Y877326D01*
X1139555Y877076D01*
X1139514Y877035D01*
X1139389Y876910D01*
X1139222Y876743D01*
X1138972Y876577D01*
X1138889Y876535D01*
X1138680Y876368D01*
X1138347Y876160D01*
X1137931Y875952D01*
X1137889D01*
X1137847Y875910D01*
X1137597Y875785D01*
X1137264Y875702D01*
X1136931D01*
X1136848Y875785D01*
X1136598Y875952D01*
X1136473Y876118D01*
X1136348Y876285D01*
X1136264Y876493D01*
Y876743D01*
Y876785D01*
Y876868D01*
Y876993D01*
X1136306Y877160D01*
X1136389Y877576D01*
X1136514Y878035D01*
Y878076D01*
X1136556Y878159D01*
X1136639Y878284D01*
X1136681Y878451D01*
X1136931Y878909D01*
X1137223Y879368D01*
Y879409D01*
X1137306Y879451D01*
X1137473Y879742D01*
X1137764Y880076D01*
X1138097Y880492D01*
X1138139Y880534D01*
X1138306Y880701D01*
X1138597Y880950D01*
X1138930Y881242D01*
X1139389Y881575D01*
X1139847Y881908D01*
X1140388Y882242D01*
X1140972Y882492D01*
X1141055Y882533D01*
X1141263Y882575D01*
X1141596Y882700D01*
X1142013Y882825D01*
X1142513Y882950D01*
X1143096Y883075D01*
X1143721Y883158D01*
X1144346Y883200D01*
X1144804D01*
X1145262Y883158D01*
D02*
G37*
%LPC*%
G36*
X1052161Y918441D02*
X1051328Y918399D01*
X1050495Y918357D01*
X1049578Y918232D01*
X1048662Y918066D01*
X1048620D01*
X1048495Y918024D01*
X1048329Y917983D01*
X1048079Y917899D01*
X1047746Y917774D01*
X1047412Y917649D01*
X1046996Y917524D01*
X1046579Y917358D01*
X1045621Y916899D01*
X1044621Y916358D01*
X1043580Y915650D01*
X1042622Y914858D01*
X1042580Y914817D01*
X1042497Y914733D01*
X1042372Y914609D01*
X1042205Y914442D01*
X1041997Y914192D01*
X1041747Y913942D01*
X1041206Y913234D01*
X1040539Y912442D01*
X1039831Y911484D01*
X1039123Y910484D01*
X1038456Y909360D01*
Y909318D01*
X1038373Y909193D01*
X1038289Y909027D01*
X1038165Y908777D01*
X1038040Y908443D01*
X1037873Y908110D01*
X1037706Y907652D01*
X1037498Y907194D01*
X1037331Y906694D01*
X1037123Y906152D01*
X1036790Y904986D01*
X1036498Y903695D01*
X1036332Y902362D01*
Y902320D01*
Y902195D01*
X1036290Y901987D01*
Y901737D01*
Y901404D01*
Y901029D01*
Y900570D01*
Y900070D01*
X1036332Y898988D01*
X1036415Y897779D01*
X1036582Y896488D01*
X1036873Y895155D01*
X1036915Y895072D01*
X1036956Y894822D01*
X1037040Y894447D01*
X1037206Y893905D01*
X1037373Y893239D01*
X1037623Y892489D01*
X1037873Y891656D01*
X1038206Y890698D01*
X1038581Y889698D01*
X1038998Y888615D01*
X1039456Y887532D01*
X1039956Y886407D01*
X1040539Y885241D01*
X1041164Y884075D01*
X1041830Y882908D01*
X1042539Y881784D01*
X1042580Y881700D01*
X1042747Y881534D01*
X1042955Y881200D01*
X1043288Y880784D01*
X1043663Y880284D01*
X1044121Y879659D01*
X1044705Y878993D01*
X1045329Y878243D01*
X1045996Y877451D01*
X1046746Y876618D01*
X1047579Y875743D01*
X1048454Y874827D01*
X1049412Y873952D01*
X1050370Y873036D01*
X1051411Y872119D01*
X1052494Y871245D01*
X1052536Y871203D01*
X1052619Y871120D01*
X1052786Y870995D01*
X1052994Y870828D01*
X1053244Y870620D01*
X1053536Y870453D01*
X1054244Y870036D01*
X1054285Y869995D01*
X1054369Y869953D01*
X1054535Y869828D01*
X1054785Y869703D01*
X1055327Y869412D01*
X1055952Y869078D01*
X1055993D01*
X1056077Y869037D01*
X1056243Y868995D01*
X1056410Y868912D01*
X1056660Y868829D01*
X1056951Y868787D01*
X1057660Y868662D01*
X1058451Y868620D01*
X1059326Y868662D01*
X1059784Y868745D01*
X1060284Y868912D01*
X1060742Y869078D01*
X1061200Y869328D01*
X1061242D01*
X1061325Y869412D01*
X1061450Y869495D01*
X1061617Y869620D01*
X1062033Y869995D01*
X1062492Y870495D01*
X1062991Y871161D01*
X1063408Y871953D01*
X1063741Y872869D01*
X1063866Y873411D01*
X1063908Y873952D01*
Y874035D01*
Y874202D01*
Y874494D01*
Y874869D01*
Y875327D01*
X1063866Y875785D01*
X1063741Y876826D01*
Y876910D01*
X1063658Y877076D01*
X1063575Y877326D01*
X1063491Y877701D01*
X1063325Y878118D01*
X1063200Y878576D01*
X1062783Y879534D01*
Y879576D01*
X1062742Y879659D01*
X1062658Y879742D01*
X1062575Y879909D01*
X1062283Y880326D01*
X1061867Y880867D01*
X1061284Y881450D01*
X1060575Y882075D01*
X1060159Y882367D01*
X1059701Y882658D01*
X1059201Y882950D01*
X1058659Y883200D01*
X1058618D01*
X1058534Y883242D01*
X1058368Y883325D01*
X1058159Y883366D01*
X1057909Y883450D01*
X1057576Y883533D01*
X1056868Y883700D01*
X1056035Y883783D01*
X1055119Y883741D01*
X1054660Y883700D01*
X1054202Y883575D01*
X1053702Y883408D01*
X1053244Y883200D01*
X1053202Y883158D01*
X1053077Y883117D01*
X1052911Y883033D01*
X1052744Y882950D01*
X1052702Y882908D01*
X1052536Y882825D01*
X1052328Y882742D01*
X1052119Y882658D01*
X1052036D01*
X1051828Y882575D01*
X1051453Y882533D01*
X1050495D01*
X1049912Y882617D01*
X1049328Y882783D01*
X1048745Y883033D01*
X1048662Y883075D01*
X1048495Y883200D01*
X1048245Y883450D01*
X1047912Y883741D01*
X1047579Y884116D01*
X1047287Y884616D01*
X1046996Y885199D01*
X1046829Y885824D01*
Y885866D01*
Y885908D01*
X1046787Y886116D01*
Y886491D01*
X1046746Y886949D01*
Y887449D01*
X1046829Y888032D01*
X1046912Y888615D01*
X1047079Y889198D01*
X1047121Y889282D01*
X1047162Y889448D01*
X1047329Y889740D01*
X1047495Y890115D01*
X1047787Y890573D01*
X1048120Y890990D01*
X1048495Y891448D01*
X1048995Y891906D01*
X1049078Y891948D01*
X1049287Y892114D01*
X1049578Y892322D01*
X1049995Y892614D01*
X1050495Y892864D01*
X1051036Y893156D01*
X1051661Y893364D01*
X1052286Y893489D01*
X1052369D01*
X1052578Y893531D01*
X1053411D01*
X1053911Y893489D01*
X1054535Y893447D01*
X1055202Y893364D01*
X1055868Y893239D01*
X1055910D01*
X1055993Y893197D01*
X1056160Y893156D01*
X1056368Y893114D01*
X1056618Y893031D01*
X1056910Y892947D01*
X1057618Y892697D01*
X1058451Y892406D01*
X1059284Y891989D01*
X1060159Y891489D01*
X1061034Y890864D01*
X1061075D01*
X1061117Y890781D01*
X1061242Y890698D01*
X1061409Y890573D01*
X1061825Y890198D01*
X1062325Y889698D01*
X1062950Y889073D01*
X1063616Y888365D01*
X1064283Y887574D01*
X1064949Y886699D01*
Y886657D01*
X1064991Y886574D01*
X1065074Y886491D01*
X1065158Y886324D01*
X1065408Y885949D01*
X1065741Y885533D01*
Y885491D01*
X1065782Y885449D01*
X1065866Y885324D01*
X1065991Y885158D01*
X1066241Y884741D01*
X1066616Y884241D01*
X1066657Y884324D01*
X1066782Y884533D01*
X1066949Y884866D01*
X1067157Y885324D01*
X1067449Y885866D01*
X1067740Y886407D01*
X1068365Y887657D01*
X1068407Y887740D01*
X1068490Y887949D01*
X1068657Y888240D01*
X1068823Y888657D01*
X1069073Y889157D01*
X1069323Y889698D01*
X1069906Y890864D01*
X1069948Y890906D01*
X1069990Y891031D01*
X1070031Y891281D01*
X1069990Y891573D01*
Y891614D01*
Y891781D01*
X1069906Y892031D01*
X1069823Y892281D01*
X1069781Y892364D01*
X1069698Y892572D01*
X1069573Y892906D01*
X1069365Y893322D01*
X1069115Y893822D01*
X1068865Y894405D01*
X1068574Y894988D01*
X1068240Y895655D01*
X1068198Y895738D01*
X1068115Y895947D01*
X1067949Y896321D01*
X1067740Y896780D01*
X1067532Y897280D01*
X1067241Y897904D01*
X1066949Y898571D01*
X1066616Y899237D01*
X1066532Y899196D01*
X1066366Y899154D01*
X1066074Y899029D01*
X1065824Y898904D01*
X1065741Y898863D01*
X1065574Y898737D01*
X1065283Y898571D01*
X1065033Y898446D01*
X1064991Y898404D01*
X1064824Y898321D01*
X1064575Y898196D01*
X1064241Y898029D01*
X1063825Y897863D01*
X1063325Y897654D01*
X1062783Y897446D01*
X1062158Y897238D01*
X1061450Y897071D01*
X1060701Y896946D01*
X1059951Y896821D01*
X1059118Y896780D01*
X1058243D01*
X1057368Y896821D01*
X1056452Y896988D01*
X1055535Y897238D01*
X1055493D01*
X1055327Y897321D01*
X1055077Y897404D01*
X1054702Y897530D01*
X1054327Y897696D01*
X1053827Y897904D01*
X1053327Y898154D01*
X1052744Y898488D01*
X1052161Y898821D01*
X1051536Y899196D01*
X1050911Y899612D01*
X1050286Y900070D01*
X1049662Y900612D01*
X1049078Y901154D01*
X1048537Y901778D01*
X1048037Y902445D01*
X1047995Y902487D01*
X1047912Y902653D01*
X1047787Y902903D01*
X1047620Y903195D01*
X1047412Y903570D01*
X1047246Y903986D01*
X1047037Y904444D01*
X1046912Y904903D01*
Y904944D01*
X1046871Y905111D01*
X1046829Y905361D01*
X1046746Y905694D01*
Y906069D01*
X1046704Y906527D01*
X1046746Y907027D01*
X1046829Y907527D01*
Y907610D01*
X1046871Y907819D01*
X1046954Y908110D01*
X1047079Y908485D01*
X1047246Y908902D01*
X1047454Y909318D01*
X1047704Y909776D01*
X1048037Y910151D01*
X1048079Y910193D01*
X1048204Y910318D01*
X1048412Y910526D01*
X1048662Y910734D01*
X1049037Y910984D01*
X1049453Y911234D01*
X1049953Y911484D01*
X1050495Y911693D01*
X1050536D01*
X1050745Y911734D01*
X1050995Y911776D01*
X1051328Y911817D01*
X1051703D01*
X1052078Y911734D01*
X1052494Y911651D01*
X1052911Y911443D01*
X1052952Y911401D01*
X1053119Y911318D01*
X1053327Y911193D01*
X1053577Y910984D01*
X1053869Y910776D01*
X1054202Y910484D01*
X1054535Y910151D01*
X1054827Y909776D01*
X1054869Y909735D01*
X1054952Y909651D01*
X1055035Y909526D01*
X1055202Y909318D01*
X1055577Y908818D01*
X1055952Y908193D01*
X1055993Y908152D01*
X1056035Y908068D01*
X1056160Y907902D01*
X1056285Y907694D01*
X1056618Y907194D01*
X1056993Y906569D01*
X1057035Y906527D01*
X1057160Y906361D01*
X1057368Y906111D01*
X1057660Y905819D01*
X1058035Y905527D01*
X1058451Y905236D01*
X1058909Y904986D01*
X1059451Y904819D01*
X1059534D01*
X1059701Y904778D01*
X1059992Y904736D01*
X1060326D01*
X1060784Y904778D01*
X1061242Y904819D01*
X1061784Y904986D01*
X1062325Y905236D01*
X1062408Y905277D01*
X1062617Y905403D01*
X1062908Y905611D01*
X1063242Y905902D01*
X1063616Y906319D01*
X1063991Y906777D01*
X1064283Y907360D01*
X1064491Y908027D01*
Y908068D01*
Y908110D01*
X1064533Y908360D01*
X1064575Y908693D01*
Y909193D01*
X1064491Y909735D01*
X1064366Y910401D01*
X1064116Y911068D01*
X1063741Y911776D01*
X1063700Y911817D01*
X1063616Y911943D01*
X1063491Y912151D01*
X1063283Y912401D01*
X1063033Y912734D01*
X1062742Y913067D01*
X1062408Y913484D01*
X1061992Y913900D01*
X1061575Y914359D01*
X1061075Y914817D01*
X1060034Y915733D01*
X1058784Y916608D01*
X1058159Y917025D01*
X1057451Y917358D01*
X1057410Y917399D01*
X1057285Y917441D01*
X1057076Y917524D01*
X1056785Y917608D01*
X1056410Y917733D01*
X1055993Y917899D01*
X1055493Y918024D01*
X1054952Y918149D01*
X1054327Y918232D01*
X1053661Y918357D01*
X1052952Y918399D01*
X1052161Y918441D01*
D02*
G37*
G36*
X1081320Y891656D02*
X1080945D01*
X1080570Y891614D01*
X1080070Y891531D01*
X1079487Y891364D01*
X1078904Y891198D01*
X1078321Y890906D01*
X1077779Y890531D01*
X1077821Y890448D01*
X1077988Y890281D01*
X1078238Y890031D01*
X1078571Y889698D01*
X1078988Y889365D01*
X1079487Y888990D01*
X1080070Y888698D01*
X1080737Y888407D01*
X1080779D01*
X1080820Y888365D01*
X1081070Y888324D01*
X1081404Y888199D01*
X1081862Y888115D01*
X1082403Y888074D01*
X1082986Y888032D01*
X1083570D01*
X1084111Y888157D01*
X1084153D01*
X1084236Y888199D01*
X1084403Y888282D01*
X1084569Y888365D01*
X1084903Y888615D01*
X1085069Y888823D01*
X1085153Y889032D01*
Y889073D01*
X1085194Y889157D01*
Y889282D01*
Y889448D01*
X1085153Y889615D01*
X1085069Y889823D01*
X1084944Y890073D01*
X1084736Y890323D01*
X1084694Y890365D01*
X1084528Y890531D01*
X1084236Y890740D01*
X1083861Y890948D01*
X1083361Y891198D01*
X1082778Y891406D01*
X1082112Y891573D01*
X1081320Y891656D01*
D02*
G37*
G36*
X1067824Y866704D02*
X1067782Y866621D01*
X1067615Y866454D01*
X1067365Y866162D01*
X1067032Y865788D01*
X1066574Y865413D01*
X1066116Y864955D01*
X1065533Y864538D01*
X1064949Y864121D01*
X1064866Y864080D01*
X1064658Y863955D01*
X1064283Y863788D01*
X1063783Y863580D01*
X1063200Y863372D01*
X1062492Y863122D01*
X1061659Y862913D01*
X1060742Y862705D01*
X1060784D01*
X1060825Y862622D01*
X1061075Y862413D01*
X1061409Y862080D01*
X1061867Y861622D01*
X1062367Y861122D01*
X1062950Y860581D01*
X1064158Y859414D01*
X1064241Y859331D01*
X1064449Y859164D01*
X1064741Y858873D01*
X1065116Y858498D01*
X1065616Y858040D01*
X1066116Y857498D01*
X1067199Y856415D01*
X1067282Y856373D01*
X1067449Y856248D01*
X1067699Y856082D01*
X1067990Y855915D01*
X1068407D01*
X1068574Y855999D01*
X1068698Y856082D01*
X1068865Y856248D01*
X1068948Y856332D01*
X1069157Y856540D01*
X1069448Y856832D01*
X1069823Y857206D01*
X1070323Y857706D01*
X1070823Y858206D01*
X1071906Y859289D01*
X1071989Y859373D01*
X1072156Y859581D01*
X1072489Y859873D01*
X1072864Y860247D01*
X1073322Y860706D01*
X1073822Y861206D01*
X1074864Y862289D01*
X1074780Y862330D01*
X1074572Y862497D01*
X1074197Y862705D01*
X1073739Y862997D01*
X1073197Y863330D01*
X1072614Y863705D01*
X1071323Y864538D01*
X1071239Y864580D01*
X1071031Y864705D01*
X1070698Y864913D01*
X1070240Y865204D01*
X1069698Y865538D01*
X1069115Y865913D01*
X1067824Y866704D01*
D02*
G37*
G36*
X1124018Y879742D02*
X1123768D01*
X1123434Y879701D01*
X1123059Y879617D01*
X1122601Y879534D01*
X1122143Y879368D01*
X1122101D01*
X1122018Y879326D01*
X1121852Y879242D01*
X1121643Y879159D01*
X1121393Y879034D01*
X1121102Y878909D01*
X1120435Y878534D01*
X1119685Y878076D01*
X1118894Y877493D01*
X1118102Y876826D01*
X1117353Y876035D01*
Y875993D01*
X1117269Y875952D01*
X1117186Y875827D01*
X1117019Y875660D01*
X1116853Y875452D01*
X1116686Y875202D01*
X1116228Y874619D01*
X1115728Y873869D01*
X1115228Y873036D01*
X1114687Y872078D01*
X1114187Y871078D01*
Y871036D01*
X1114228Y870995D01*
X1114395Y870745D01*
X1114437Y870661D01*
X1114562Y870453D01*
X1114645Y870495D01*
X1114853Y870536D01*
X1115145Y870620D01*
X1115561Y870745D01*
X1116061Y870870D01*
X1116603Y871036D01*
X1117769Y871328D01*
X1117852Y871369D01*
X1118061Y871411D01*
X1118394Y871495D01*
X1118769Y871619D01*
X1119269Y871744D01*
X1119810Y871911D01*
X1120893Y872286D01*
X1120935Y872328D01*
X1121060Y872369D01*
X1121310Y872453D01*
X1121560Y872578D01*
X1121893Y872744D01*
X1122268Y872911D01*
X1123018Y873327D01*
X1123059Y873369D01*
X1123185Y873452D01*
X1123351Y873577D01*
X1123601Y873744D01*
X1124184Y874202D01*
X1124851Y874744D01*
X1124892Y874785D01*
X1125017Y874869D01*
X1125184Y875035D01*
X1125351Y875244D01*
X1125559Y875535D01*
X1125767Y875868D01*
X1125934Y876285D01*
X1126059Y876743D01*
Y876785D01*
X1126100Y876951D01*
X1126142Y877201D01*
X1126184Y877535D01*
Y877868D01*
X1126142Y878201D01*
X1126059Y878534D01*
X1125892Y878826D01*
X1125851Y878868D01*
X1125809Y878951D01*
X1125684Y879076D01*
X1125517Y879242D01*
X1125309Y879409D01*
X1125017Y879534D01*
X1124726Y879659D01*
X1124392Y879701D01*
X1124226D01*
X1124018Y879742D01*
D02*
G37*
G36*
X1174338Y868245D02*
X1174046D01*
X1173755Y868204D01*
X1173713D01*
X1173630Y868162D01*
X1173463Y868120D01*
X1173297Y868079D01*
X1172838Y867912D01*
X1172338Y867662D01*
X1172297D01*
X1172214Y867620D01*
X1172089Y867537D01*
X1171922Y867412D01*
X1171422Y867162D01*
X1170797Y866746D01*
X1170089Y866288D01*
X1169339Y865704D01*
X1168589Y865038D01*
X1167881Y864288D01*
Y864246D01*
X1167798Y864205D01*
X1167715Y864080D01*
X1167590Y863913D01*
X1167256Y863496D01*
X1166840Y862913D01*
X1166298Y862247D01*
X1165757Y861455D01*
X1165132Y860581D01*
X1164507Y859664D01*
X1164757D01*
X1165007Y859622D01*
X1166215D01*
X1167132Y859747D01*
X1167173D01*
X1167340Y859789D01*
X1167548Y859873D01*
X1167840Y859914D01*
X1168173Y860039D01*
X1168506Y860164D01*
X1169298Y860456D01*
X1169381Y860497D01*
X1169589Y860581D01*
X1169922Y860706D01*
X1170339Y860872D01*
X1170839Y861122D01*
X1171380Y861372D01*
X1171964Y861705D01*
X1172505Y862080D01*
X1172589Y862122D01*
X1172755Y862289D01*
X1173005Y862497D01*
X1173338Y862830D01*
X1173713Y863205D01*
X1174130Y863663D01*
X1174546Y864163D01*
X1174963Y864705D01*
Y864746D01*
X1175046Y864829D01*
X1175088Y864955D01*
X1175213Y865163D01*
X1175421Y865621D01*
X1175588Y866204D01*
Y866246D01*
Y866329D01*
X1175629Y866496D01*
X1175588Y866704D01*
Y866912D01*
X1175504Y867162D01*
X1175379Y867412D01*
X1175213Y867662D01*
X1175171Y867704D01*
X1175088Y867787D01*
X1174963Y867912D01*
X1174796Y868037D01*
X1174546Y868162D01*
X1174338Y868245D01*
D02*
G37*
%LPD*%
D10*
X2184450Y795800D02*
G03*
X2184450Y795800I-1000J0D01*
G01*
X2293500Y417000D02*
G03*
X2293500Y417000I-500J0D01*
G01*
X2261300Y443700D02*
G03*
X2261300Y443700I-500J0D01*
G01*
X389500Y869000D02*
G03*
X389500Y869000I-500J0D01*
G01*
X381358Y652207D02*
G03*
X381358Y652207I-1000J0D01*
G01*
X354500Y869000D02*
G03*
X354500Y869000I-500J0D01*
G01*
X389500Y829000D02*
G03*
X389500Y829000I-500J0D01*
G01*
X381358Y447207D02*
G03*
X381358Y447207I-1000J0D01*
G01*
X2173000Y877000D02*
Y883000D01*
X2157000Y877000D02*
Y883000D01*
X2173000D01*
X2157000Y881100D02*
X2173000D01*
X2157000Y827000D02*
Y833000D01*
X2173000Y827000D02*
Y833000D01*
X2157000Y827000D02*
X2173000D01*
X2157000Y828900D02*
X2173000D01*
X2132000Y827000D02*
Y833000D01*
X2148000Y827000D02*
Y833000D01*
X2132000Y827000D02*
X2148000D01*
X2132000Y828900D02*
X2148000D01*
Y877000D02*
Y883000D01*
X2132000Y877000D02*
Y883000D01*
X2148000D01*
X2132000Y881100D02*
X2148000D01*
X1915782Y652946D02*
X1973782D01*
X1915782Y471946D02*
X1973782D01*
X1915782D02*
Y652946D01*
X1973782Y471946D02*
Y652946D01*
X1767968Y386952D02*
Y392952D01*
X1751968Y386952D02*
Y392952D01*
X1767968D01*
X1751968Y391052D02*
X1767968D01*
X1792968Y386952D02*
Y392952D01*
X1776968Y386952D02*
Y392952D01*
X1792968D01*
X1776968Y391052D02*
X1792968D01*
X1817968Y386952D02*
Y392952D01*
X1801967Y386952D02*
Y392952D01*
X1817968D01*
X1801967Y391052D02*
X1817968D01*
X1842967Y386952D02*
Y392952D01*
X1826967Y386952D02*
Y392952D01*
X1842967D01*
X1826967Y391052D02*
X1842967D01*
X1867967Y386952D02*
Y392952D01*
X1851967Y386952D02*
Y392952D01*
X1867967D01*
X1851967Y391052D02*
X1867967D01*
X1893000Y387000D02*
Y393000D01*
X1877000Y387000D02*
Y393000D01*
X1893000D01*
X1877000Y391100D02*
X1893000D01*
X1877033Y297048D02*
Y303048D01*
X1893033Y297048D02*
Y303048D01*
X1877033Y297048D02*
X1893033D01*
X1877033Y298948D02*
X1893033D01*
X1852033Y297048D02*
Y303048D01*
X1868033Y297048D02*
Y303048D01*
X1852033Y297048D02*
X1868033D01*
X1852033Y298948D02*
X1868033D01*
X1827034Y297048D02*
Y303048D01*
X1843034Y297048D02*
Y303048D01*
X1827034Y297048D02*
X1843034D01*
X1827034Y298948D02*
X1843034D01*
X1802034Y297048D02*
Y303048D01*
X1818034Y297048D02*
Y303048D01*
X1802034Y297048D02*
X1818034D01*
X1802034Y298948D02*
X1818034D01*
X1777034Y297048D02*
Y303048D01*
X1793034Y297048D02*
Y303048D01*
X1777034Y297048D02*
X1793034D01*
X1777034Y298948D02*
X1793034D01*
X1752034Y297048D02*
Y303048D01*
X1768034Y297048D02*
Y303048D01*
X1752034Y297048D02*
X1768034D01*
X1752034Y298948D02*
X1768034D01*
X1768000Y791000D02*
Y797000D01*
X1752000Y791000D02*
Y797000D01*
X1768000D01*
X1752000Y795100D02*
X1768000D01*
X1792966Y790952D02*
Y796952D01*
X1776966Y790952D02*
Y796952D01*
X1792966D01*
X1776966Y795052D02*
X1792966D01*
X1818000Y791000D02*
Y797000D01*
X1802000Y791000D02*
Y797000D01*
X1818000D01*
X1802000Y795100D02*
X1818000D01*
X1843000Y791000D02*
Y797000D01*
X1827000Y791000D02*
Y797000D01*
X1843000D01*
X1827000Y795100D02*
X1843000D01*
X1868000Y791000D02*
Y797000D01*
X1852000Y791000D02*
Y797000D01*
X1868000D01*
X1852000Y795100D02*
X1868000D01*
X1892967Y790952D02*
Y796952D01*
X1876967Y790952D02*
Y796952D01*
X1892967D01*
X1876967Y795052D02*
X1892967D01*
X1877000Y703000D02*
Y709000D01*
X1893000Y703000D02*
Y709000D01*
X1877000Y703000D02*
X1893000D01*
X1877000Y704900D02*
X1893000D01*
X1852000Y703000D02*
Y709000D01*
X1868000Y703000D02*
Y709000D01*
X1852000Y703000D02*
X1868000D01*
X1852000Y704900D02*
X1868000D01*
X1827000Y703000D02*
Y709000D01*
X1843000Y703000D02*
Y709000D01*
X1827000Y703000D02*
X1843000D01*
X1827000Y704900D02*
X1843000D01*
X1802000Y703000D02*
Y709000D01*
X1818000Y703000D02*
Y709000D01*
X1802000Y703000D02*
X1818000D01*
X1802000Y704900D02*
X1818000D01*
X1777000Y703000D02*
Y709000D01*
X1793000Y703000D02*
Y709000D01*
X1777000Y703000D02*
X1793000D01*
X1777000Y704900D02*
X1793000D01*
X1752034Y703048D02*
Y709048D01*
X1768034Y703048D02*
Y709048D01*
X1752034Y703048D02*
X1768034D01*
X1752034Y704948D02*
X1768034D01*
X1457000Y228900D02*
X1473000D01*
X1457000Y227000D02*
X1473000D01*
Y233000D01*
X1457000Y227000D02*
Y233000D01*
X1452000Y841100D02*
X1468000D01*
X1452000Y843000D02*
X1468000D01*
X1452000Y837000D02*
Y843000D01*
X1468000Y837000D02*
Y843000D01*
X918000Y538999D02*
X942000D01*
X938500Y521500D02*
Y538000D01*
X918000Y521000D02*
X942000D01*
X918000Y535500D02*
Y538999D01*
Y521000D02*
Y524500D01*
X942000Y521000D02*
Y539000D01*
X918000Y836001D02*
X942000D01*
X921500Y837000D02*
Y853500D01*
X918000Y854000D02*
X942000D01*
Y836001D02*
Y839500D01*
Y850500D02*
Y854000D01*
X918000Y836000D02*
Y854000D01*
Y486001D02*
X942000D01*
X921500Y487000D02*
Y503500D01*
X918000Y504000D02*
X942000D01*
Y486001D02*
Y489500D01*
Y500500D02*
Y504000D01*
X918000Y486000D02*
Y504000D01*
Y818999D02*
X942000D01*
X938500Y801500D02*
Y818000D01*
X918000Y801000D02*
X942000D01*
X918000Y815500D02*
Y818999D01*
Y801000D02*
Y804500D01*
X942000Y801000D02*
Y819000D01*
X918000Y468999D02*
X942000D01*
X938500Y451500D02*
Y468000D01*
X918000Y451000D02*
X942000D01*
X918000Y465500D02*
Y468999D01*
Y451000D02*
Y454500D01*
X942000Y451000D02*
Y469000D01*
X918000Y766001D02*
X942000D01*
X921500Y767000D02*
Y783500D01*
X918000Y784000D02*
X942000D01*
Y766001D02*
Y769500D01*
Y780500D02*
Y784000D01*
X918000Y766000D02*
Y784000D01*
Y416001D02*
X942000D01*
X921500Y417000D02*
Y433500D01*
X918000Y434000D02*
X942000D01*
Y416001D02*
Y419500D01*
Y430500D02*
Y434000D01*
X918000Y416000D02*
Y434000D01*
X918000Y748999D02*
X942000D01*
X938500Y731500D02*
Y748000D01*
X918000Y731000D02*
X942000D01*
X918000Y745500D02*
Y748999D01*
Y731000D02*
Y734500D01*
X942000Y731000D02*
Y749000D01*
X918000Y398999D02*
X942000D01*
X938500Y381500D02*
Y398000D01*
X918000Y381000D02*
X942000D01*
X918000Y395500D02*
Y398999D01*
Y381000D02*
Y384500D01*
X942000Y381000D02*
Y399000D01*
X918000Y696001D02*
X942000D01*
X921500Y697000D02*
Y713500D01*
X918000Y714000D02*
X942000D01*
Y696001D02*
Y699500D01*
Y710500D02*
Y714000D01*
X918000Y696000D02*
Y714000D01*
Y346001D02*
X942000D01*
X921500Y347000D02*
Y363500D01*
X918000Y364000D02*
X942000D01*
Y346001D02*
Y349500D01*
Y360500D02*
Y364000D01*
X918000Y346000D02*
Y364000D01*
Y678999D02*
X942000D01*
X938500Y661500D02*
Y678000D01*
X918000Y661000D02*
X942000D01*
X918000Y675500D02*
Y678999D01*
Y661000D02*
Y664500D01*
X942000Y661000D02*
Y679000D01*
X918000Y328999D02*
X942000D01*
X938500Y311500D02*
Y328000D01*
X918000Y311000D02*
X942000D01*
X918000Y325500D02*
Y328999D01*
Y311000D02*
Y314500D01*
X942000Y311000D02*
Y329000D01*
X918000Y626001D02*
X942000D01*
X921500Y627000D02*
Y643500D01*
X918000Y644000D02*
X942000D01*
Y626001D02*
Y629500D01*
Y640500D02*
Y644000D01*
X918000Y626000D02*
Y644000D01*
Y276001D02*
X942000D01*
X921500Y277000D02*
Y293500D01*
X918000Y294000D02*
X942000D01*
Y276001D02*
Y279500D01*
Y290500D02*
Y294000D01*
X918000Y276000D02*
Y294000D01*
Y608999D02*
X942000D01*
X938500Y591500D02*
Y608000D01*
X918000Y591000D02*
X942000D01*
X918000Y605500D02*
Y608999D01*
Y591000D02*
Y594500D01*
X942000Y591000D02*
Y609000D01*
X918000Y258999D02*
X942000D01*
X938500Y241500D02*
Y258000D01*
X918000Y241000D02*
X942000D01*
X918000Y255500D02*
Y258999D01*
Y241000D02*
Y244500D01*
X942000Y241000D02*
Y259000D01*
X918000Y556001D02*
X942000D01*
X921500Y557000D02*
Y573500D01*
X918000Y574000D02*
X942000D01*
Y556001D02*
Y559500D01*
Y570500D02*
Y574000D01*
X918000Y556000D02*
Y574000D01*
X398000Y872000D02*
Y878000D01*
X412000Y872000D02*
Y878000D01*
Y852000D02*
Y858000D01*
X398000Y852000D02*
Y858000D01*
X453000Y871001D02*
X477000D01*
X456500Y872000D02*
Y888500D01*
X453000Y889000D02*
X477000D01*
Y871001D02*
Y874500D01*
Y885500D02*
Y889000D01*
X453000Y871000D02*
Y889000D01*
X1560000Y711500D02*
X1575000D01*
X2144000Y798500D02*
X2159000D01*
X665000Y616000D02*
X680000D01*
X665000Y583500D02*
X680000D01*
X453000Y841001D02*
X477000D01*
X456500Y842000D02*
Y858500D01*
X453000Y859000D02*
X477000D01*
Y841001D02*
Y844500D01*
Y855500D02*
Y859000D01*
X453000Y841000D02*
Y859000D01*
X775000Y866500D02*
X790000D01*
X775000Y834000D02*
X790000D01*
X665000Y833500D02*
X680000D01*
X665000Y866000D02*
X680000D01*
X810000Y213500D02*
X825000D01*
X810000Y246000D02*
X825000D01*
X630000Y246500D02*
X645000D01*
X630000Y214000D02*
X645000D01*
X810000Y463500D02*
X825000D01*
X810000Y496000D02*
X825000D01*
X810000Y413500D02*
X825000D01*
X810000Y446000D02*
X825000D01*
X810000Y363500D02*
X825000D01*
X810000Y396000D02*
X825000D01*
X810000Y313500D02*
X825000D01*
X810000Y346000D02*
X825000D01*
X810000Y263500D02*
X825000D01*
X810000Y296000D02*
X825000D01*
X630000Y496500D02*
X645000D01*
X630000Y464000D02*
X645000D01*
X629000Y446500D02*
X644000D01*
X629000Y414000D02*
X644000D01*
X630000Y396500D02*
X645000D01*
X630000Y364000D02*
X645000D01*
X630000Y346500D02*
X645000D01*
X630000Y314000D02*
X645000D01*
X630000Y296500D02*
X645000D01*
X630000Y264000D02*
X645000D01*
X775000Y616500D02*
X790000D01*
X775000Y584000D02*
X790000D01*
X775000Y666500D02*
X790000D01*
X775000Y634000D02*
X790000D01*
X775000Y716500D02*
X790000D01*
X775000Y684000D02*
X790000D01*
X775000Y766500D02*
X790000D01*
X775000Y734000D02*
X790000D01*
X775000Y816500D02*
X790000D01*
X775000Y784000D02*
X790000D01*
X665000Y783500D02*
X680000D01*
X665000Y816000D02*
X680000D01*
X665000Y733500D02*
X680000D01*
X665000Y766000D02*
X680000D01*
X665000Y683500D02*
X680000D01*
X665000Y716000D02*
X680000D01*
X665000Y633500D02*
X680000D01*
X665000Y666000D02*
X680000D01*
X1600000Y363500D02*
X1615000D01*
X1600000Y396000D02*
X1615000D01*
X1600000Y838500D02*
X1615000D01*
X1600000Y871000D02*
X1615000D01*
X1560000Y555500D02*
X1575000D01*
X1560000Y523000D02*
X1575000D01*
X1386000Y226500D02*
X1401000D01*
X1386000Y194000D02*
X1401000D01*
X1381000Y866500D02*
X1396000D01*
X1381000Y834000D02*
X1396000D01*
X1762000Y578000D02*
X1768000D01*
X1762000Y592000D02*
X1768000D01*
X1762000Y488000D02*
X1768000D01*
X1762000Y502000D02*
X1768000D01*
X1762000Y458000D02*
X1768000D01*
X1762000Y472000D02*
X1768000D01*
X1556660Y567930D02*
X1719360D01*
X1556660D02*
Y581900D01*
X1762000Y634000D02*
X1768000D01*
X1762000Y648000D02*
X1768000D01*
X1556660Y498100D02*
Y512070D01*
X1719360D01*
X1556660Y407930D02*
X1719360D01*
X1556660D02*
Y421900D01*
X1723340Y247930D02*
Y261900D01*
X1560640Y247930D02*
X1723340D01*
X1560640Y352070D02*
X1723340D01*
Y338100D02*
Y352070D01*
Y722930D02*
Y736900D01*
X1560640Y722930D02*
X1723340D01*
X1560640Y827070D02*
X1723340D01*
Y813100D02*
Y827070D01*
D11*
X1966782Y481946D02*
G03*
X1966782Y481946I-3000J0D01*
G01*
D12*
X1992032Y470896D02*
G03*
X1992032Y470896I-1250J0D01*
G01*
X1701420Y579360D02*
G03*
X1701420Y579360I-1250J0D01*
G01*
Y419360D02*
G03*
X1701420Y419360I-1250J0D01*
G01*
X1581080Y340640D02*
G03*
X1581080Y340640I-1250J0D01*
G01*
Y815640D02*
G03*
X1581080Y815640I-1250J0D01*
G01*
D13*
X2167000Y214000D02*
X2193000D01*
X2167000Y286000D02*
X2193000D01*
X467000D02*
X493000D01*
X467000Y214000D02*
X493000D01*
D14*
X2211350Y816000D02*
Y846000D01*
X2180650Y816000D02*
Y846000D01*
X419648Y601417D02*
X472348D01*
Y774117D01*
X419648D02*
X472348D01*
X314848Y396418D02*
X381708D01*
X314848D02*
Y569118D01*
X381708D01*
X419648Y396418D02*
X472348D01*
Y569118D01*
X419648D02*
X472348D01*
D15*
X2261500Y394000D02*
Y412000D01*
X2292500Y394000D02*
Y412000D01*
X2292000Y394000D02*
X2292500D01*
X2292000Y412000D02*
X2292500D01*
X2261500Y394000D02*
X2262000D01*
X2261500Y412000D02*
X2262000D01*
X2292300Y448700D02*
Y466700D01*
X2261300Y448700D02*
Y466700D01*
X2261800D01*
X2261300Y448700D02*
X2261800D01*
X2291800Y466700D02*
X2292300D01*
X2291800Y448700D02*
X2292300D01*
X384000Y900000D02*
Y900500D01*
X366000Y900000D02*
Y900500D01*
X384000Y869500D02*
Y870000D01*
X366000Y869500D02*
Y870000D01*
Y869500D02*
X384000D01*
X366000Y900500D02*
X384000D01*
X349000Y900000D02*
Y900500D01*
X331000Y900000D02*
Y900500D01*
X349000Y869500D02*
Y870000D01*
X331000Y869500D02*
Y870000D01*
Y869500D02*
X349000D01*
X331000Y900500D02*
X349000D01*
X384000Y860000D02*
Y860500D01*
X366000Y860000D02*
Y860500D01*
X384000Y829500D02*
Y830000D01*
X366000Y829500D02*
Y830000D01*
Y829500D02*
X384000D01*
X366000Y860500D02*
X384000D01*
D16*
X1304000Y471000D02*
Y500000D01*
X1176000Y471000D02*
X1304000D01*
X1176000D02*
Y500000D01*
X1304000Y570000D02*
Y599000D01*
X1176000D02*
X1304000D01*
X1176000Y570000D02*
Y599000D01*
X1304000Y661000D02*
Y690000D01*
X1176000Y661000D02*
X1304000D01*
X1176000D02*
Y690000D01*
X1304000Y760000D02*
Y789000D01*
X1176000D02*
X1304000D01*
X1176000Y760000D02*
Y789000D01*
X2095000Y773000D02*
X2124000D01*
Y901000D01*
X2095000D02*
X2124000D01*
X1016000Y760000D02*
Y789000D01*
X1144000D01*
Y760000D02*
Y789000D01*
X1016000Y661000D02*
Y690000D01*
Y661000D02*
X1144000D01*
Y690000D01*
X1176000Y385000D02*
Y414000D01*
X1304000D01*
Y385000D02*
Y414000D01*
X1176000Y286000D02*
Y315000D01*
Y286000D02*
X1304000D01*
Y315000D01*
X1016000Y385000D02*
Y414000D01*
X1144000D01*
Y385000D02*
Y414000D01*
X1016000Y286000D02*
Y315000D01*
Y286000D02*
X1144000D01*
Y315000D01*
X1016000Y570000D02*
Y599000D01*
X1144000D01*
Y570000D02*
Y599000D01*
X1016000Y471000D02*
Y500000D01*
Y471000D02*
X1144000D01*
Y500000D01*
X1336000Y760000D02*
Y789000D01*
X1464000D01*
Y760000D02*
Y789000D01*
X1336000Y661000D02*
Y690000D01*
Y661000D02*
X1464000D01*
Y690000D01*
X1336000Y570000D02*
Y599000D01*
X1464000D01*
Y570000D02*
Y599000D01*
X1336000Y471000D02*
Y500000D01*
Y471000D02*
X1464000D01*
Y500000D01*
X1336000Y381998D02*
Y410998D01*
X1464000D01*
Y381998D02*
Y410998D01*
X1336000Y282998D02*
Y311998D01*
Y282998D02*
X1464000D01*
Y311998D01*
X442655Y765398D02*
Y753532D01*
X448588Y759465D02*
X436722D01*
X442594Y650937D02*
Y639085D01*
X448520Y645011D02*
X436668D01*
X445162Y738629D02*
Y726771D01*
X445156Y622980D02*
Y611123D01*
X442655Y560398D02*
Y548532D01*
X448588Y554465D02*
X436722D01*
X442594Y445937D02*
Y434086D01*
X448520Y440011D02*
X436668D01*
X445162Y533629D02*
Y521771D01*
X445156Y417980D02*
Y406124D01*
D17*
X1941002Y511761D02*
Y508429D01*
Y510095D01*
X1949332D01*
X1950998Y508429D01*
Y506763D01*
X1949332Y505097D01*
X1941002Y515093D02*
X1950998D01*
Y521758D01*
X1942668Y531755D02*
X1941002Y530089D01*
Y526756D01*
X1942668Y525090D01*
X1949332D01*
X1950998Y526756D01*
Y530089D01*
X1949332Y531755D01*
X1941002Y541752D02*
Y538419D01*
Y540085D01*
X1949332D01*
X1950998Y538419D01*
Y536753D01*
X1949332Y535087D01*
X1941002Y545084D02*
X1950998D01*
Y551748D01*
X1942668Y561745D02*
X1941002Y560079D01*
Y556747D01*
X1942668Y555081D01*
X1949332D01*
X1950998Y556747D01*
Y560079D01*
X1949332Y561745D01*
X1941002Y571742D02*
Y568410D01*
Y570076D01*
X1949332D01*
X1950998Y568410D01*
Y566744D01*
X1949332Y565077D01*
X1941002Y575074D02*
X1950998D01*
Y581739D01*
X1942668Y591735D02*
X1941002Y590069D01*
Y586737D01*
X1942668Y585071D01*
X1949332D01*
X1950998Y586737D01*
Y590069D01*
X1949332Y591735D01*
X1941002Y601732D02*
Y598400D01*
Y600066D01*
X1949332D01*
X1950998Y598400D01*
Y596734D01*
X1949332Y595068D01*
X1941002Y605065D02*
X1950998D01*
Y611729D01*
X1942668Y621726D02*
X1941002Y620060D01*
Y616727D01*
X1942668Y615061D01*
X1949332D01*
X1950998Y616727D01*
Y620060D01*
X1949332Y621726D01*
M02*
