G04*
G04 #@! TF.GenerationSoftware,Altium Limited,Altium Designer,18.1.7 (191)*
G04*
G04 Layer_Physical_Order=2*
G04 Layer_Color=16711680*
%FSLAX44Y44*%
%MOMM*%
G71*
G01*
G75*
%ADD10C,0.2000*%
%ADD75C,1.0000*%
%ADD77C,0.4000*%
%ADD78C,0.5000*%
%ADD151O,3.0000X2.0000*%
%ADD152R,4.0000X4.0000*%
%ADD153R,2.0000X1.8000*%
%ADD154C,1.3980*%
%ADD155C,2.3550*%
%ADD156C,3.2500*%
%ADD157R,1.3980X1.3980*%
%ADD158C,0.4800*%
%ADD159C,1.0000*%
%ADD160R,0.6000X0.2000*%
%ADD161R,0.2000X0.6000*%
%ADD162R,0.6000X0.4000*%
%ADD163R,0.4000X0.6000*%
%ADD164R,13.5000X7.0000*%
%ADD165R,8.0000X25.0000*%
%ADD166R,16.5000X40.0000*%
%ADD167R,17.0000X8.0000*%
%ADD168R,123.0000X8.5000*%
%ADD169R,18.5000X31.5000*%
%ADD170R,21.0000X16.5000*%
%ADD171R,18.5000X35.0000*%
%ADD172R,120.0000X7.5000*%
%ADD173R,3.5000X8.5000*%
%ADD174R,21.0000X6.0000*%
%ADD175R,9.0000X15.5000*%
%ADD176R,36.5000X7.0000*%
%ADD177R,22.0000X19.0000*%
%ADD178R,82.5000X59.0000*%
G36*
X2295000Y660000D02*
X2295000D01*
X2295000Y435000D01*
X2251540D01*
Y451740D01*
X2226460D01*
Y435000D01*
X2045695Y435000D01*
X2045309Y436270D01*
X2045562Y436438D01*
X2046653Y438073D01*
X2047037Y440000D01*
X2046653Y441927D01*
X2045609Y443490D01*
Y456391D01*
X2056510D01*
X2058073Y455347D01*
X2060000Y454963D01*
X2061927Y455347D01*
X2063562Y456438D01*
X2064653Y458073D01*
X2065037Y460000D01*
X2064653Y461927D01*
X2063562Y463562D01*
X2061927Y464653D01*
X2060000Y465037D01*
X2058073Y464653D01*
X2056510Y463609D01*
X2045490D01*
X2043927Y464653D01*
X2042000Y465037D01*
X2040072Y464653D01*
X2038439Y463562D01*
X2037347Y461927D01*
X2036963Y460000D01*
X2037347Y458073D01*
X2038391Y456510D01*
Y443490D01*
X2037347Y441927D01*
X2036963Y440000D01*
X2037347Y438073D01*
X2038439Y436438D01*
X2038691Y436270D01*
X2038305Y435000D01*
X1960000Y435000D01*
Y455000D01*
X1970000Y465000D01*
Y478817D01*
X1970037Y479000D01*
X1970000Y479183D01*
Y485000D01*
X1960000Y485000D01*
Y485000D01*
X1960000Y485000D01*
X1950000D01*
Y479187D01*
X1949963Y479000D01*
X1950000Y478813D01*
X1950000Y475000D01*
X1940000Y465000D01*
Y435000D01*
X1735000Y435000D01*
X1735000Y536613D01*
X1735832Y537169D01*
X1736393Y538009D01*
X1736591Y539000D01*
Y545000D01*
X1736393Y545991D01*
X1735832Y546831D01*
X1735000Y547387D01*
X1735000Y660000D01*
X1900000Y660000D01*
Y701371D01*
X1904235D01*
X1905041Y700389D01*
X1904963Y700000D01*
X1905347Y698073D01*
X1906438Y696439D01*
X1908073Y695347D01*
X1910000Y694963D01*
X1911927Y695347D01*
X1913490Y696391D01*
X1951510D01*
X1953073Y695347D01*
X1955000Y694963D01*
X1956927Y695347D01*
X1958562Y696439D01*
X1959261Y697486D01*
X1960347Y696927D01*
X1959963Y695000D01*
X1960347Y693073D01*
X1961391Y691510D01*
Y688490D01*
X1960347Y686927D01*
X1959963Y685000D01*
X1960347Y683073D01*
X1961438Y681439D01*
X1963073Y680347D01*
X1965000Y679963D01*
X1966927Y680347D01*
X1968562Y681439D01*
X1969653Y683073D01*
X1970037Y685000D01*
X1969653Y686927D01*
X1968609Y688490D01*
Y691510D01*
X1969653Y693073D01*
X1970037Y695000D01*
X1969653Y696927D01*
X1968562Y698561D01*
X1966927Y699653D01*
X1965926Y699853D01*
Y701147D01*
X1966927Y701347D01*
X1968562Y702439D01*
X1969653Y704072D01*
X1970037Y706000D01*
X1969653Y707927D01*
X1968562Y709561D01*
X1966927Y710653D01*
X1965000Y711037D01*
X1963073Y710653D01*
X1963036Y710629D01*
X1918964D01*
X1918927Y710653D01*
X1917000Y711037D01*
X1915072Y710653D01*
X1915036Y710629D01*
X1900000D01*
X1900000Y960000D01*
X2295000Y960000D01*
X2295000Y660000D01*
D02*
G37*
%LPC*%
G36*
X2200000Y895037D02*
X2198073Y894653D01*
X2196510Y893609D01*
X2186490D01*
X2184928Y894653D01*
X2183000Y895037D01*
X2181073Y894653D01*
X2179438Y893562D01*
X2178347Y891928D01*
X2177963Y890000D01*
X2178347Y888073D01*
X2179438Y886439D01*
X2181073Y885347D01*
X2183000Y884963D01*
X2184928Y885347D01*
X2186490Y886391D01*
X2196510D01*
X2198073Y885347D01*
X2200000Y884963D01*
X2201927Y885347D01*
X2203562Y886439D01*
X2204653Y888073D01*
X2205037Y890000D01*
X2204653Y891928D01*
X2203562Y893562D01*
X2201927Y894653D01*
X2200000Y895037D01*
D02*
G37*
G36*
X2005000Y767605D02*
X2003032Y767346D01*
X2001198Y766586D01*
X1999622Y765378D01*
X1999439Y765139D01*
X1965000D01*
X1963033Y764748D01*
X1961366Y763634D01*
X1925298Y727566D01*
X1925000Y727605D01*
X1923032Y727346D01*
X1921198Y726586D01*
X1919622Y725378D01*
X1918414Y723802D01*
X1917654Y721968D01*
X1917395Y720000D01*
X1917654Y718032D01*
X1918414Y716198D01*
X1919622Y714622D01*
X1921198Y713414D01*
X1923032Y712654D01*
X1925000Y712395D01*
X1926968Y712654D01*
X1928802Y713414D01*
X1930378Y714622D01*
X1931586Y716198D01*
X1932346Y718032D01*
X1932605Y720000D01*
X1932566Y720298D01*
X1967128Y754861D01*
X1999439D01*
X1999622Y754622D01*
X2001198Y753414D01*
X2003032Y752654D01*
X2005000Y752395D01*
X2006968Y752654D01*
X2008803Y753414D01*
X2010378Y754622D01*
X2011586Y756198D01*
X2012346Y758032D01*
X2012605Y760000D01*
X2012346Y761968D01*
X2011586Y763802D01*
X2010378Y765378D01*
X2008803Y766586D01*
X2006968Y767346D01*
X2005000Y767605D01*
D02*
G37*
G36*
X2060000Y675037D02*
X2058073Y674653D01*
X2056510Y673609D01*
X2045490D01*
X2043927Y674653D01*
X2042000Y675037D01*
X2040072Y674653D01*
X2038439Y673561D01*
X2037347Y671927D01*
X2036963Y670000D01*
X2037347Y668073D01*
X2038439Y666439D01*
X2040072Y665347D01*
X2042000Y664963D01*
X2043927Y665347D01*
X2045490Y666391D01*
X2056510D01*
X2058073Y665347D01*
X2060000Y664963D01*
X2061927Y665347D01*
X2063562Y666439D01*
X2064653Y668073D01*
X2065037Y670000D01*
X2064653Y671927D01*
X2063562Y673561D01*
X2061927Y674653D01*
X2060000Y675037D01*
D02*
G37*
G36*
X2195000Y682605D02*
X2193032Y682346D01*
X2191198Y681586D01*
X2189622Y680378D01*
X2188414Y678802D01*
X2187654Y676968D01*
X2187395Y675000D01*
X2187654Y673032D01*
X2188414Y671198D01*
X2189622Y669622D01*
X2191198Y668414D01*
X2193032Y667654D01*
X2195000Y667395D01*
X2196968Y667654D01*
X2198802Y668414D01*
X2200378Y669622D01*
X2201586Y671198D01*
X2202346Y673032D01*
X2202605Y675000D01*
X2202346Y676968D01*
X2201586Y678802D01*
X2200378Y680378D01*
X2198802Y681586D01*
X2196968Y682346D01*
X2195000Y682605D01*
D02*
G37*
G36*
X2099000Y637037D02*
X2097072Y636653D01*
X2097036Y636629D01*
X2043000D01*
X2041229Y636277D01*
X2039727Y635273D01*
X2039727Y635273D01*
X2030113Y625659D01*
X2030072Y625651D01*
X2028439Y624560D01*
X2027347Y622925D01*
X2027338Y622882D01*
X2014727Y610271D01*
X2013723Y608769D01*
X2013371Y606998D01*
X2013371Y606998D01*
Y598462D01*
X2012101Y597869D01*
X2010927Y598653D01*
X2009000Y599037D01*
X2007072Y598653D01*
X2005438Y597561D01*
X2004347Y595928D01*
X2003963Y594000D01*
X2004347Y592072D01*
X2005438Y590438D01*
X2007072Y589347D01*
X2008684Y589026D01*
X2009275Y587822D01*
X2005727Y584273D01*
X2004723Y582771D01*
X2004371Y581000D01*
X2004371Y581000D01*
Y532962D01*
X2004347Y532925D01*
X2003963Y530998D01*
X2004347Y529071D01*
X2004371Y529034D01*
Y520000D01*
X2004371Y520000D01*
X2004723Y518229D01*
X2005727Y516727D01*
X2020727Y501727D01*
X2020727Y501727D01*
X2022229Y500723D01*
X2024000Y500371D01*
X2024000Y500371D01*
X2031036D01*
X2031073Y500347D01*
X2033000Y499963D01*
X2034927Y500347D01*
X2036561Y501438D01*
X2037653Y503073D01*
X2038037Y505000D01*
X2037653Y506927D01*
X2036561Y508562D01*
X2034927Y509653D01*
X2033000Y510037D01*
X2031073Y509653D01*
X2031036Y509629D01*
X2025917D01*
X2013629Y521917D01*
Y529034D01*
X2013653Y529071D01*
X2014037Y530998D01*
X2013653Y532925D01*
X2013629Y532962D01*
Y579083D01*
X2021273Y586727D01*
X2021273Y586727D01*
X2022277Y588229D01*
X2022629Y590000D01*
Y605081D01*
X2033884Y616336D01*
X2033927Y616345D01*
X2035562Y617436D01*
X2036653Y619071D01*
X2036662Y619116D01*
X2044917Y627371D01*
X2097036D01*
X2097072Y627347D01*
X2099000Y626963D01*
X2100927Y627347D01*
X2102561Y628438D01*
X2103653Y630073D01*
X2104037Y632000D01*
X2103653Y633927D01*
X2102561Y635562D01*
X2100927Y636653D01*
X2099000Y637037D01*
D02*
G37*
G36*
X2200540Y638540D02*
X2189460D01*
Y637139D01*
X2185000D01*
X2183033Y636748D01*
X2181366Y635634D01*
X2180252Y633966D01*
X2179861Y632000D01*
X2180252Y630033D01*
X2181366Y628366D01*
X2183033Y627253D01*
X2185000Y626861D01*
X2202000D01*
X2202000Y626861D01*
X2206000D01*
X2207966Y627252D01*
X2209634Y628366D01*
X2210748Y630033D01*
X2211139Y632000D01*
X2210748Y633966D01*
X2209634Y635634D01*
X2207966Y636748D01*
X2206000Y637139D01*
X2202000D01*
X2202000Y637139D01*
X2200540D01*
Y638540D01*
D02*
G37*
G36*
X1878000Y612037D02*
X1876073Y611653D01*
X1876036Y611629D01*
X1816000D01*
X1814229Y611277D01*
X1812727Y610273D01*
X1811723Y608771D01*
X1811371Y607000D01*
X1811470Y606500D01*
X1811371Y606000D01*
Y580768D01*
X1810101Y579818D01*
X1809000Y580037D01*
X1807072Y579653D01*
X1805439Y578562D01*
X1804347Y576927D01*
X1803963Y575000D01*
X1804347Y573073D01*
X1804371Y573036D01*
Y531000D01*
X1804723Y529229D01*
X1805727Y527727D01*
X1807229Y526723D01*
X1809000Y526371D01*
X1876036D01*
X1876073Y526347D01*
X1878000Y525963D01*
X1879928Y526347D01*
X1881561Y527439D01*
X1882653Y529073D01*
X1883037Y531000D01*
X1882653Y532928D01*
X1881561Y534562D01*
X1879928Y535653D01*
X1878000Y536037D01*
X1876073Y535653D01*
X1876036Y535629D01*
X1813629D01*
Y550232D01*
X1814899Y551182D01*
X1816000Y550963D01*
X1817928Y551347D01*
X1817964Y551371D01*
X1876036D01*
X1876073Y551347D01*
X1878000Y550963D01*
X1879927Y551347D01*
X1881561Y552439D01*
X1882653Y554072D01*
X1883037Y556000D01*
X1882653Y557928D01*
X1881561Y559562D01*
X1879927Y560653D01*
X1878000Y561037D01*
X1876073Y560653D01*
X1876036Y560629D01*
X1827462D01*
X1826869Y561899D01*
X1827653Y563073D01*
X1828037Y565000D01*
X1827653Y566927D01*
X1827629Y566964D01*
Y589371D01*
X1876036D01*
X1876073Y589347D01*
X1878000Y588963D01*
X1879927Y589347D01*
X1881561Y590438D01*
X1882653Y592072D01*
X1883037Y594000D01*
X1882653Y595928D01*
X1881561Y597561D01*
X1879927Y598653D01*
X1878000Y599037D01*
X1876073Y598653D01*
X1876036Y598629D01*
X1823000D01*
X1821899Y598410D01*
X1820629Y599287D01*
Y602371D01*
X1876036D01*
X1876073Y602347D01*
X1878000Y601963D01*
X1879928Y602347D01*
X1881561Y603438D01*
X1882653Y605073D01*
X1883037Y607000D01*
X1882653Y608927D01*
X1881561Y610562D01*
X1879928Y611653D01*
X1878000Y612037D01*
D02*
G37*
G36*
X2237000Y591037D02*
X2235072Y590653D01*
X2233438Y589562D01*
X2232347Y587928D01*
X2231963Y586000D01*
X2232347Y584072D01*
X2233438Y582439D01*
X2235072Y581347D01*
X2237000Y580963D01*
X2238927Y581347D01*
X2240562Y582439D01*
X2241653Y584072D01*
X2242037Y586000D01*
X2241653Y587928D01*
X2240562Y589562D01*
X2238927Y590653D01*
X2237000Y591037D01*
D02*
G37*
G36*
X2147000Y614037D02*
X2145072Y613653D01*
X2143438Y612561D01*
X2142347Y610928D01*
X2141963Y609000D01*
X2142347Y607072D01*
X2142371Y607036D01*
Y605000D01*
X2142371Y605000D01*
X2142371Y605000D01*
Y586964D01*
X2142347Y586927D01*
X2141963Y585000D01*
X2142347Y583073D01*
X2142371Y583036D01*
Y570964D01*
X2142347Y570928D01*
X2141963Y569000D01*
X2142347Y567072D01*
X2143438Y565438D01*
X2145072Y564347D01*
X2147000Y563963D01*
X2148927Y564347D01*
X2150562Y565438D01*
X2151653Y567072D01*
X2152037Y569000D01*
X2151653Y570928D01*
X2151629Y570964D01*
Y580371D01*
X2193036D01*
X2193073Y580347D01*
X2195000Y579963D01*
X2196927Y580347D01*
X2198562Y581438D01*
X2199653Y583073D01*
X2200037Y585000D01*
X2199653Y586927D01*
X2198562Y588562D01*
X2196927Y589653D01*
X2195000Y590037D01*
X2193073Y589653D01*
X2193036Y589629D01*
X2151629D01*
Y605000D01*
X2151629Y605000D01*
X2151629Y605000D01*
Y607036D01*
X2151653Y607072D01*
X2152037Y609000D01*
X2151653Y610928D01*
X2150562Y612561D01*
X2148927Y613653D01*
X2147000Y614037D01*
D02*
G37*
G36*
X1878000Y498037D02*
X1876073Y497653D01*
X1876036Y497629D01*
X1838964D01*
X1838927Y497653D01*
X1837000Y498037D01*
X1835072Y497653D01*
X1833439Y496562D01*
X1832347Y494927D01*
X1831963Y493000D01*
X1832347Y491073D01*
X1833439Y489439D01*
X1835072Y488347D01*
X1837000Y487963D01*
X1838927Y488347D01*
X1838964Y488371D01*
X1876036D01*
X1876073Y488347D01*
X1878000Y487963D01*
X1879928Y488347D01*
X1881561Y489439D01*
X1882653Y491073D01*
X1883037Y493000D01*
X1882653Y494927D01*
X1881561Y496562D01*
X1879928Y497653D01*
X1878000Y498037D01*
D02*
G37*
G36*
X2041000Y595037D02*
X2039073Y594653D01*
X2037439Y593562D01*
X2036347Y591927D01*
X2035963Y590000D01*
X2036347Y588073D01*
X2037391Y586510D01*
Y550495D01*
X2024448Y537552D01*
X2023665Y536381D01*
X2023391Y535000D01*
Y525000D01*
X2023665Y523619D01*
X2024448Y522448D01*
X2025619Y521665D01*
X2027000Y521391D01*
X2045391D01*
Y498495D01*
X2020916Y474020D01*
X2019073Y473653D01*
X2017439Y472561D01*
X2016347Y470928D01*
X2015963Y469000D01*
X2016347Y467072D01*
X2017439Y465438D01*
X2019073Y464347D01*
X2021000Y463963D01*
X2022928Y464347D01*
X2024561Y465438D01*
X2025653Y467072D01*
X2026020Y468916D01*
X2051552Y494448D01*
X2052335Y495619D01*
X2052609Y497000D01*
Y525000D01*
X2052335Y526381D01*
X2051552Y527552D01*
X2050381Y528335D01*
X2049000Y528609D01*
X2039755D01*
X2038814Y529879D01*
X2039020Y530916D01*
X2062084Y553980D01*
X2063927Y554347D01*
X2065562Y555438D01*
X2066653Y557072D01*
X2067037Y559000D01*
X2066653Y560928D01*
X2065562Y562561D01*
X2063927Y563653D01*
X2062000Y564037D01*
X2060072Y563653D01*
X2058439Y562561D01*
X2057347Y560928D01*
X2056980Y559085D01*
X2045658Y547762D01*
X2044488Y548388D01*
X2044609Y549000D01*
Y586510D01*
X2045653Y588073D01*
X2046037Y590000D01*
X2045653Y591927D01*
X2044561Y593562D01*
X2042928Y594653D01*
X2041000Y595037D01*
D02*
G37*
%LPD*%
D10*
X2059000Y671000D02*
X2060000Y670000D01*
X2058000D02*
X2059000Y671000D01*
X2042000Y670000D02*
X2058000D01*
X525000Y645000D02*
Y870000D01*
X475000Y595000D02*
X525000Y645000D01*
X475000Y505000D02*
Y595000D01*
X420000Y860000D02*
X515000D01*
Y850000D02*
Y860000D01*
X525000Y550000D02*
X605000D01*
X340000Y580000D02*
Y800000D01*
X440000Y735000D02*
X460000D01*
X440000D02*
Y805000D01*
X330000D02*
X440000D01*
X330000Y776000D02*
Y805000D01*
X2200000Y890000D02*
X2200000Y890000D01*
X2183000Y890000D02*
X2200000D01*
X2041000Y549000D02*
Y590000D01*
X2027000Y535000D02*
X2041000Y549000D01*
X2027000Y525000D02*
Y535000D01*
Y525000D02*
X2049000D01*
Y497000D02*
Y525000D01*
X2021000Y469000D02*
X2049000Y497000D01*
X1910000Y700000D02*
X1955000D01*
X340000Y580000D02*
Y580000D01*
X435000D02*
Y620000D01*
Y528467D02*
Y580000D01*
X380000Y900000D02*
X485000D01*
X380000Y900000D02*
X380000Y900000D01*
X420000Y870000D02*
X525000D01*
X375000Y895000D02*
X380000Y900000D01*
X375000Y895000D02*
X375000D01*
X459148Y370000D02*
Y414168D01*
X330000Y370000D02*
X459148D01*
X330000Y776000D02*
X330000Y370000D01*
X435000Y620000D02*
X460000D01*
X2042000Y440000D02*
Y460000D01*
X2060000D01*
X1955000Y470000D02*
Y479000D01*
X1945000Y460000D02*
X1955000Y470000D01*
X1965000D02*
Y479000D01*
X1955000Y460000D02*
X1965000Y470000D01*
X2062000Y559000D02*
Y560000D01*
X2034000Y531000D02*
X2062000Y559000D01*
X1955000Y285000D02*
Y460000D01*
X1945000Y285000D02*
Y460000D01*
X1965000Y685000D02*
Y695000D01*
X435000Y528467D02*
X459148D01*
X340000Y580000D02*
X435000D01*
D75*
X2315000Y465000D02*
Y465600D01*
X540000Y645000D02*
Y900000D01*
Y645000D02*
X590000Y595000D01*
X890000D01*
X485000Y900000D02*
X540000D01*
X890000Y595000D02*
Y870000D01*
X1920000D01*
X2239000Y465600D02*
X2315000D01*
D77*
X2265000Y599000D02*
X2265000D01*
X2265000Y580000D02*
Y599000D01*
Y501000D02*
X2265000D01*
X900000Y860000D02*
X1895000D01*
Y706000D02*
Y860000D01*
Y706000D02*
X1917000D01*
X485000Y585000D02*
X900000D01*
Y860000D01*
X2018000Y606998D02*
X2032000Y620998D01*
X2018000Y590000D02*
Y606998D01*
X2009000Y581000D02*
X2018000Y590000D01*
X2009000Y530998D02*
Y581000D01*
X2032000Y621000D02*
X2043000Y632000D01*
X2099000D01*
X2032000Y620998D02*
Y621000D01*
X2009000Y520000D02*
Y531000D01*
Y520000D02*
X2024000Y505000D01*
X2033000D01*
X2065000Y725000D02*
X2080000D01*
X2050000D02*
X2065000D01*
X1809000Y531000D02*
Y575000D01*
Y531000D02*
X1878000D01*
X2265000D02*
Y532000D01*
X2256002Y540998D02*
X2265000Y532000D01*
X2237000Y540998D02*
X2256002D01*
X2147000Y585000D02*
Y605000D01*
Y609000D01*
X2147000Y608000D02*
X2147000Y608000D01*
X2147000Y605000D02*
X2147000Y605000D01*
X2213000Y565000D02*
X2237000Y541000D01*
X2265000Y502000D02*
Y532000D01*
Y501000D02*
Y502000D01*
Y599000D02*
Y602000D01*
Y564000D02*
Y580000D01*
Y564000D02*
X2265000D01*
X2213000Y565000D02*
Y622000D01*
Y697000D01*
X1917000Y706000D02*
X1965000D01*
X1837000Y493000D02*
X1878000D01*
X1816000Y607000D02*
X1878000D01*
X1816000Y565000D02*
Y606000D01*
X2035000Y725000D02*
X2050000D01*
X2020000D02*
X2035000D01*
X2005000D02*
X2020000D01*
X1823000Y565000D02*
Y594000D01*
X1878000D01*
X1816000Y556000D02*
X1878000D01*
X2147000Y585000D02*
X2195000D01*
X2147000Y569000D02*
Y585000D01*
D78*
X2185000Y632000D02*
X2202000D01*
X2202000Y632000D02*
X2206000D01*
X1751000Y542000D02*
X1752000Y541000D01*
X1734000Y542000D02*
X1751000D01*
X1965000Y760000D02*
X2005000D01*
X1925000Y720000D02*
X1965000Y760000D01*
D151*
X2240000Y317500D02*
D03*
Y182500D02*
D03*
X420000D02*
D03*
Y317500D02*
D03*
D152*
X2180000Y286000D02*
D03*
Y214000D02*
D03*
X480000D02*
D03*
Y286000D02*
D03*
D153*
X2315200Y465600D02*
D03*
X2239000D02*
D03*
X2315200Y389400D02*
D03*
Y414800D02*
D03*
Y440200D02*
D03*
X2239000D02*
D03*
Y414800D02*
D03*
Y389400D02*
D03*
D154*
X459148Y642067D02*
D03*
Y619167D02*
D03*
Y733467D02*
D03*
Y756367D02*
D03*
X410848Y723367D02*
D03*
X393048Y713167D02*
D03*
X410848Y702967D02*
D03*
X393048Y692767D02*
D03*
X410848Y682567D02*
D03*
X393048Y672367D02*
D03*
X410848Y662167D02*
D03*
X459148Y437067D02*
D03*
Y414168D02*
D03*
Y528467D02*
D03*
Y551367D02*
D03*
X410848Y518368D02*
D03*
X393048Y508167D02*
D03*
X410848Y497967D02*
D03*
X393048Y487767D02*
D03*
X410848Y477567D02*
D03*
X393048Y467368D02*
D03*
X410848Y457168D02*
D03*
D155*
X401948Y606467D02*
D03*
Y769067D02*
D03*
Y401468D02*
D03*
Y564067D02*
D03*
D156*
X367648Y624267D02*
D03*
Y751267D02*
D03*
Y419268D02*
D03*
Y546268D02*
D03*
D157*
X393048Y651967D02*
D03*
Y446968D02*
D03*
D158*
X2060000Y670000D02*
D03*
X2042000D02*
D03*
X485000Y585000D02*
D03*
X340000Y800000D02*
D03*
X330000Y805000D02*
D03*
X2120000Y705000D02*
D03*
Y720000D02*
D03*
X2183000Y890000D02*
D03*
X2200000D02*
D03*
X2218000Y900000D02*
D03*
X2240000Y863000D02*
D03*
X2016000Y538000D02*
D03*
X2206000Y632000D02*
D03*
X2099000Y632000D02*
D03*
X2185000D02*
D03*
X1910000Y700000D02*
D03*
X2080000Y725000D02*
D03*
X2065000D02*
D03*
X485000Y830000D02*
D03*
Y900000D02*
D03*
X515000Y850000D02*
D03*
X375000Y895000D02*
D03*
X2042000Y440000D02*
D03*
Y460000D02*
D03*
X1809000Y575000D02*
D03*
X2162000Y494000D02*
D03*
X1917000Y706000D02*
D03*
X1965000D02*
D03*
X1878000Y493000D02*
D03*
X1816000Y565000D02*
D03*
X2213000Y622000D02*
D03*
X2021000Y469000D02*
D03*
X1955000Y479000D02*
D03*
X1965000D02*
D03*
X2041000Y590000D02*
D03*
X2062000Y559000D02*
D03*
X2034000Y531000D02*
D03*
X2060000Y460000D02*
D03*
X2005000Y725000D02*
D03*
X2020000D02*
D03*
X2035000D02*
D03*
X2050000D02*
D03*
X1955000Y700000D02*
D03*
X2265000Y602000D02*
D03*
X2265000Y591000D02*
D03*
X2265000Y580000D02*
D03*
Y502000D02*
D03*
X1823000Y565000D02*
D03*
X1955000Y285000D02*
D03*
X1945000D02*
D03*
X1965000Y695000D02*
D03*
Y685000D02*
D03*
X1837000Y493000D02*
D03*
X1816000Y556000D02*
D03*
X2195000Y585000D02*
D03*
X2099000Y621000D02*
D03*
X1878000Y543000D02*
D03*
X2056000Y607000D02*
D03*
X2032000Y620998D02*
D03*
X2033000Y505000D02*
D03*
X2237000Y586000D02*
D03*
X2123000Y621000D02*
D03*
Y597000D02*
D03*
X2099000D02*
D03*
X2147000Y569000D02*
D03*
Y585000D02*
D03*
Y609000D02*
D03*
X2099000Y585000D02*
D03*
Y609000D02*
D03*
Y569000D02*
D03*
X2123000Y553000D02*
D03*
X2265000Y532000D02*
D03*
X420000Y870000D02*
D03*
Y860000D02*
D03*
X1878000Y607000D02*
D03*
X1878000Y556000D02*
D03*
Y594000D02*
D03*
X1878000Y531000D02*
D03*
X1850000Y619998D02*
D03*
X2237000Y540998D02*
D03*
X1849000Y568998D02*
D03*
X1850000Y631998D02*
D03*
X1849000Y517998D02*
D03*
X2009000Y530998D02*
D03*
X2265000Y563998D02*
D03*
X2009000Y594000D02*
D03*
D159*
X2120000Y815000D02*
D03*
X2165000Y910000D02*
D03*
X2140000D02*
D03*
X2100000Y395000D02*
D03*
X2120000D02*
D03*
X2140000D02*
D03*
X2110000Y385000D02*
D03*
X2130000D02*
D03*
Y365000D02*
D03*
X2110000D02*
D03*
X2140000Y375000D02*
D03*
X2120000D02*
D03*
X2100000D02*
D03*
X2130000Y345000D02*
D03*
X2110000D02*
D03*
X2140000Y355000D02*
D03*
X2120000D02*
D03*
X2100000D02*
D03*
X2110000Y405000D02*
D03*
X2130000D02*
D03*
X2090000D02*
D03*
X2080000Y355000D02*
D03*
X2090000Y345000D02*
D03*
X2080000Y375000D02*
D03*
X2090000Y365000D02*
D03*
Y385000D02*
D03*
X2080000Y395000D02*
D03*
X1785000Y905000D02*
D03*
Y940000D02*
D03*
X1865000Y905000D02*
D03*
Y940000D02*
D03*
X1825000D02*
D03*
Y905000D02*
D03*
X1820000Y230000D02*
D03*
X1835000Y220000D02*
D03*
Y200000D02*
D03*
X1820000Y210000D02*
D03*
X1835000Y180000D02*
D03*
X1820000Y190000D02*
D03*
X1835000Y240000D02*
D03*
X1895000D02*
D03*
X1865000D02*
D03*
X2195000Y675000D02*
D03*
X1710000Y665000D02*
D03*
X1690000D02*
D03*
X1680000Y675000D02*
D03*
X1690000Y685000D02*
D03*
X1700000Y675000D02*
D03*
X1710000Y685000D02*
D03*
X1680000Y695000D02*
D03*
X1700000D02*
D03*
X1720000Y675000D02*
D03*
Y695000D02*
D03*
X1710000Y530000D02*
D03*
X1690000D02*
D03*
X1680000Y540000D02*
D03*
X1700000D02*
D03*
X1720000D02*
D03*
X1690000Y510000D02*
D03*
X1710000D02*
D03*
X1720000Y520000D02*
D03*
X1700000D02*
D03*
X1680000D02*
D03*
X2205000Y785000D02*
D03*
X2220000Y770000D02*
D03*
X2205000Y755000D02*
D03*
X1925000Y720000D02*
D03*
X2005000Y760000D02*
D03*
X2200000Y715000D02*
D03*
X2220000Y735000D02*
D03*
Y695000D02*
D03*
X2180000D02*
D03*
Y735000D02*
D03*
X1885000Y825000D02*
D03*
X1860000D02*
D03*
X1835000D02*
D03*
X1810000D02*
D03*
X1785000D02*
D03*
X1760000D02*
D03*
Y675000D02*
D03*
X1910000Y300000D02*
D03*
Y285000D02*
D03*
Y270000D02*
D03*
X1885000D02*
D03*
X1860000D02*
D03*
X1835000D02*
D03*
X1810000D02*
D03*
X1785000D02*
D03*
X1760000D02*
D03*
X1910000Y390000D02*
D03*
Y405000D02*
D03*
Y420000D02*
D03*
X1885000D02*
D03*
X1860000D02*
D03*
X1835000D02*
D03*
X1810000D02*
D03*
X1785000D02*
D03*
X1760000D02*
D03*
X1850000Y190000D02*
D03*
X1880000D02*
D03*
X1910000D02*
D03*
X1865000Y180000D02*
D03*
X1895000D02*
D03*
X1850000Y210000D02*
D03*
X1880000D02*
D03*
X1910000D02*
D03*
X1865000Y200000D02*
D03*
X1895000D02*
D03*
Y220000D02*
D03*
X1865000D02*
D03*
X1910000Y230000D02*
D03*
X1880000D02*
D03*
X1850000D02*
D03*
X1545000Y845000D02*
D03*
X745000Y940000D02*
D03*
X785000Y940000D02*
D03*
X1705000Y905000D02*
D03*
Y940000D02*
D03*
X1745000D02*
D03*
Y905000D02*
D03*
X1505000Y940000D02*
D03*
X1545000D02*
D03*
Y905000D02*
D03*
X1585000Y940000D02*
D03*
Y905000D02*
D03*
X1625000Y940000D02*
D03*
Y905000D02*
D03*
X1665000Y940000D02*
D03*
Y905000D02*
D03*
X1505000D02*
D03*
X1810000Y675000D02*
D03*
X1785000D02*
D03*
X860000Y529998D02*
D03*
Y549998D02*
D03*
X750000Y245000D02*
D03*
X735000Y235000D02*
D03*
X705000D02*
D03*
X720000Y245000D02*
D03*
X705000Y255000D02*
D03*
X735000D02*
D03*
X750000Y265000D02*
D03*
X720000D02*
D03*
X710000Y680000D02*
D03*
X745000D02*
D03*
Y645000D02*
D03*
X710000D02*
D03*
Y870000D02*
D03*
X745000D02*
D03*
Y830000D02*
D03*
X710000D02*
D03*
X745000Y790000D02*
D03*
X710000D02*
D03*
X745000Y750000D02*
D03*
X710000D02*
D03*
X745000Y715000D02*
D03*
X710000D02*
D03*
X865000Y940000D02*
D03*
Y905000D02*
D03*
X825000D02*
D03*
Y940000D02*
D03*
X785000Y905000D02*
D03*
X745000D02*
D03*
X710000D02*
D03*
Y940000D02*
D03*
X1065000D02*
D03*
Y905000D02*
D03*
X1025000D02*
D03*
Y940000D02*
D03*
X985000Y905000D02*
D03*
Y940000D02*
D03*
X945000Y905000D02*
D03*
Y940000D02*
D03*
X905000Y905000D02*
D03*
Y940000D02*
D03*
X1265000D02*
D03*
Y905000D02*
D03*
X1225000D02*
D03*
Y940000D02*
D03*
X1185000Y905000D02*
D03*
Y940000D02*
D03*
X1145000Y905000D02*
D03*
Y940000D02*
D03*
X1105000Y905000D02*
D03*
Y940000D02*
D03*
X1465000D02*
D03*
Y905000D02*
D03*
X1425000D02*
D03*
Y940000D02*
D03*
X1385000Y905000D02*
D03*
Y940000D02*
D03*
X1345000Y905000D02*
D03*
Y940000D02*
D03*
X1305000Y905000D02*
D03*
Y940000D02*
D03*
X1360000Y845000D02*
D03*
X790002Y565000D02*
D03*
X810002D02*
D03*
X800002Y530000D02*
D03*
X800002Y550000D02*
D03*
X780002Y530000D02*
D03*
Y550000D02*
D03*
X790002Y515000D02*
D03*
X810002D02*
D03*
X830002Y565000D02*
D03*
X850002D02*
D03*
X840002Y530000D02*
D03*
X840002Y550000D02*
D03*
X820002Y530000D02*
D03*
Y550000D02*
D03*
X830002Y515000D02*
D03*
X850002D02*
D03*
X710002Y565000D02*
D03*
X730002D02*
D03*
X720002Y530000D02*
D03*
X720002Y550000D02*
D03*
X700002Y530000D02*
D03*
Y550000D02*
D03*
X710002Y515000D02*
D03*
X730002D02*
D03*
X750002Y565000D02*
D03*
X770002D02*
D03*
X760002Y530000D02*
D03*
X760002Y550000D02*
D03*
X740002Y530000D02*
D03*
Y550000D02*
D03*
X750002Y515000D02*
D03*
X770002D02*
D03*
X750000Y464998D02*
D03*
X720000D02*
D03*
X735000Y474998D02*
D03*
X705000D02*
D03*
X750000Y444998D02*
D03*
Y424998D02*
D03*
X720000D02*
D03*
X735000Y434998D02*
D03*
X720000Y444998D02*
D03*
X735000Y454998D02*
D03*
X705000D02*
D03*
Y434998D02*
D03*
X750000Y404998D02*
D03*
Y384998D02*
D03*
X720000D02*
D03*
X735000Y394998D02*
D03*
X720000Y404998D02*
D03*
X735000Y414998D02*
D03*
X705000D02*
D03*
Y394998D02*
D03*
X750000Y364998D02*
D03*
Y344998D02*
D03*
X720000D02*
D03*
X735000Y354998D02*
D03*
X720000Y364998D02*
D03*
X735000Y374998D02*
D03*
X705000D02*
D03*
Y354998D02*
D03*
X750000Y324998D02*
D03*
Y304998D02*
D03*
X720000D02*
D03*
X735000Y314998D02*
D03*
X720000Y324998D02*
D03*
X735000Y334998D02*
D03*
X705000D02*
D03*
Y314998D02*
D03*
X750000Y284998D02*
D03*
X735000Y274998D02*
D03*
X720000Y284998D02*
D03*
X735000Y294998D02*
D03*
X705000D02*
D03*
Y274998D02*
D03*
X1885000Y675000D02*
D03*
X1860000D02*
D03*
X1835000D02*
D03*
D160*
X2195000Y635000D02*
D03*
Y639000D02*
D03*
D161*
X1730000Y542000D02*
D03*
X1734000D02*
D03*
D162*
X2195000Y637000D02*
D03*
D163*
X1732001Y542000D02*
D03*
D164*
X2137500Y205000D02*
D03*
D165*
X2110000Y295000D02*
D03*
D166*
X592500Y370000D02*
D03*
D167*
X535000Y210000D02*
D03*
D168*
X1305000Y212500D02*
D03*
D169*
X782500Y327500D02*
D03*
D170*
X1815000Y347500D02*
D03*
D171*
X782500Y785000D02*
D03*
D172*
X1290000Y922500D02*
D03*
D173*
X402500Y482500D02*
D03*
D174*
X490000Y485000D02*
D03*
D175*
X575000Y492500D02*
D03*
D176*
X692500Y540000D02*
D03*
D177*
X1780000Y760000D02*
D03*
D178*
X1317500Y560000D02*
D03*
M02*
