M48
;Layer_Color=9474304
;FILE_FORMAT=4:4
METRIC,LZ
;TYPE=PLATED
T1F00S00C0.2540
T2F00S00C0.6000
T3F00S00C0.8900
T4F00S00C0.9000
T6F00S00C1.5700
T7F00S00C2.8000
;TYPE=NON_PLATED
T8F00S00C3.2500
%
T01
X01945Y00285
X01955
Y00479
X01965
X02021Y00469
X02042Y0046
X0206
X02042Y0044
X02033Y00505
X02034Y00531
X02016Y00538
X02009Y00530998
X02062Y00559
X02099Y00569
Y00585
X02147
Y00569
X02123Y00553
X02162Y00494
X02265Y00502
Y00532
X02265Y00563998
X02265Y0058
X02237Y00586
X02195Y00585
X02237Y00540998
X02041Y0059
X01878Y00556
Y00543
X01878Y00531
X01878Y00493
X01837
X01849Y00517998
Y00568998
X01823Y00565
X01816
Y00556
X01809Y00575
X00485Y00585
X0034Y008
X0033Y00805
X00375Y00895
X0042Y0087
Y0086
X00485Y0083
X00515Y0085
X00485Y009
X0191Y007
X01917Y00706
X01878Y00607
X01878Y00594
X0185Y00619998
Y00631998
X01965Y00685
Y00695
Y00706
X01955Y007
X02005Y00725
X0202
X02035
X0205
X02065
X0208
X0212Y0072
Y00705
X02123Y00621
X02099
X02099Y00632
X02099Y00609
X02099Y00597
X02123
X02147Y00609
X02185Y00632
X02206Y00632
X02213Y00622
X02265Y00602
X02265Y00591
X02056Y00607
X02032Y00620998
X02009Y00594
X02042Y0067
X0206
X02183Y0089
X022
X02218Y009
X0224Y00863
T02
X0182Y0019
X01835Y0018
X0185Y0019
X01865Y0018
X0188Y0019
X01895Y0018
X0191Y0019
X0208Y00355
X021
X0211Y00365
Y00385
X0212Y00375
Y00395
X0214
X0213Y00385
X0214Y00375
X0213Y00365
X0214Y00355
X0213Y00345
X0211
X0212Y00355
X021Y00375
Y00395
X0211Y00405
X0213
X0209
Y00385
X0208Y00375
Y00395
X0209Y00365
Y00345
X0191Y003
Y00285
Y0027
X01885
X0186
X01835
X0181
X01785
X0176
X0182Y0023
Y0021
X01835Y0022
Y002
X0185Y0021
Y0023
X01835Y0024
X01865
Y0022
Y002
X0188Y0021
Y0023
X01895Y0024
Y0022
Y002
X0191Y0021
Y0023
X0191Y0039
Y00405
Y0042
X01885
X0186
X01835
X0181
X01785
X0176
X0171Y0051
X0172Y0052
X0171Y0053
X0172Y0054
X017
X0169Y0053
X0168Y0054
Y0052
X0169Y0051
X017Y0052
X0086Y00529998
Y00549998
X00840002Y0055
X00820002
Y0053
X00800002
X00800002Y0055
X00780002
Y0053
X00760002
X00760002Y0055
X00750002Y00565
X00770002
X00790002
X00810002
X00830002
X00850002
X00840002Y0053
X00850002Y00515
X00830002
X00810002
X00790002
X00770002
X00750002
X0075Y00464998
Y00444998
Y00424998
Y00404998
Y00384998
Y00364998
Y00344998
Y00324998
Y00304998
Y00284998
Y00265
Y00245
X00735Y00235
Y00255
Y00274998
Y00294998
Y00314998
Y00334998
Y00354998
Y00374998
Y00394998
Y00414998
Y00434998
Y00454998
Y00474998
X0072Y00464998
Y00444998
Y00424998
Y00404998
Y00384998
Y00364998
Y00344998
Y00324998
Y00304998
Y00284998
Y00265
Y00245
X00705Y00235
Y00255
X00705Y00274998
Y00294998
Y00314998
Y00334998
Y00354998
Y00374998
Y00394998
Y00414998
Y00434998
Y00454998
Y00474998
X00710002Y00515
X00730002
X00720002Y0053
X00740002
Y0055
X00720002
X00700002
Y0053
X00710002Y00565
X00730002
X00745Y00645
Y0068
X0071
Y00645
Y00715
Y0075
X00745
Y00715
Y0079
X0071
Y0083
X00745
Y0087
X0071
Y00905
X00745
X00745Y0094
X0071Y0094
X00785
Y00905
X00825
Y0094
X00865
Y00905
X00905
Y0094
X00945
Y00905
X00985
Y0094
X01025
Y00905
X01065
Y0094
X01105
Y00905
X01145
Y0094
X01185
Y00905
X01225
Y0094
X01265
Y00905
X01305
Y0094
X01345
Y00905
X01385
Y0094
X01425
Y00905
X01465
Y0094
X01505Y0094
Y00905
X0136Y00845
X01545
X01545Y00905
Y0094
X01585
Y00905
X01625
Y0094
X01665
Y00905
X01705
Y0094
X01745
Y00905
X01785
Y0094
X01825
Y00905
X01865
Y0094
X0186Y00825
X01885
X01835
X0181
X01785
X0176
Y00675
X01785
X0181
X01835
X0186
X01885
X01925Y0072
X0172Y00695
X0171Y00685
X0172Y00675
X0171Y00665
X0169
X0168Y00675
X0169Y00685
X017Y00675
Y00695
X0168
X02005Y0076
X0212Y00815
X02205Y00785
X0222Y0077
X02205Y00755
X0222Y00735
X022Y00715
X0218Y00735
Y00695
X02195Y00675
X0222Y00695
X02165Y0091
X0214
T03
X00393048Y00446968
Y00467368
Y00487767
Y00508167
X00410848Y00518368
Y00497967
Y00477567
Y00457168
X00459148Y00437067
Y00414168
Y00528467
Y00551367
Y00619167
Y00642067
X00410848Y00662167
Y00682567
Y00702967
Y00723367
X00393048Y00713167
Y00692767
Y00672367
Y00651967
X00459148Y00733467
Y00756367
T04
X02239Y003894
Y004148
Y004402
Y004656
X023152
Y004402
Y004148
Y003894
T06
X00401948Y00401468
Y00564067
Y00606467
Y00769067
T07
X0218Y00214
Y00286
X0048
Y00214
T08
X00367648Y00419268
Y00546268
Y00624267
Y00751267
M30
