M48
;Layer_Color=9474304
;FILE_FORMAT=4:4
METRIC,LZ
;TYPE=PLATED
T1F00S00C0.2540
T2F00S00C0.6000
T3F00S00C0.8900
T4F00S00C0.9000
T6F00S00C1.5700
T7F00S00C2.8000
;TYPE=NON_PLATED
T8F00S00C3.2500
%
T01
X02457Y00362
X02497
X0251Y00415
X02614Y00415
X02204Y00532998
Y00563998
X02177Y00540998
X02152Y00586
X02085Y00579998
X02056
X02036Y00571
X02054Y00541998
X02085Y00514
X02093Y00503
X0215Y00493
X02024Y00484998
X02015Y00504998
X01988Y00530998
X01949Y00469
Y00462
X02102Y00297
Y00231
X01764Y00252
X01816Y00332
X01823
X01782Y00367
X01826Y0048
X01818Y00492
X01858
X01858Y0048
Y00531
X01845Y00543
X01858Y00556
X01837Y00568998
Y00517998
X01769Y00531
X01785Y00556
X01913Y00469
X01918Y00462
X00655Y00885
Y00955
X00595Y00925
Y00915
X00555Y00929
X00595Y0086
X00445Y00745
X0042Y00752
X00359Y00745
X01816Y00784
X01824
X01837Y00631998
Y00619998
X01862Y0062
X01858Y00607
X01858Y00594
X01793
X01777Y00607
X01925Y00662
X01987Y00651
X02023Y00660998
X02029
X02035
X02043Y00651
X02034Y00627
X02025Y00604998
X01988Y00593998
X02064Y00622
X02125Y00614
X0215
X02177Y00599
X02204Y00612
X02125Y0065
X02113Y00652
X02102Y00819998
Y00890998
X02479Y00723
X02497Y00683
X02505
X02513
X02489Y00636
X02479
T02
X0234Y00429998
X02365
X0239
X02414Y00430002
X02465Y0043
Y0045
Y0047
Y0049
X02551Y00461
X02575Y00460998
X02599
X02315Y00430002
X0229
X02265
X0224
X02215
X0219
X02165
X0214
X02115
X0209
X02065
X0204
X02015
X0199
X01965
X0194
X01915
X0189Y00429998
X01865
X0184
X0159Y00211
X01415Y0021
X01495Y00434998
Y00454998
Y00474998
Y00494998
X0151Y00484998
Y00464998
Y00444998
Y00424998
X01525Y00434998
Y00454998
Y00474998
Y00494998
X0154Y00484998
Y00464998
Y00444998
Y00424998
X01525Y00584998
X01495
X0087Y00564998
X00850002Y00565
X00830002
X00810002
X00790002
X00770002
X00750002
X00760002Y0055
X00780002
X00800002
X00800002Y0053
X00820002
Y0055
X00840002
X0086Y00549998
X0088
Y00529998
X0086
X00840002Y0053
X00850002Y00515
X00830002
X00810002
X00790002
X00770002
X00750002
X00760002Y0053
X00780002
X0075Y00464998
Y00444998
Y00424998
Y00404998
Y00384998
Y00364998
Y00344998
Y00324998
Y00304998
Y00284998
Y00265
Y00245
X0091Y00225
X0087Y00514998
X00730002Y00515
X00710002
X00700002Y0053
Y0055
X00720002
X00720002Y0053
X00740002
Y0055
X00730002Y00565
X00710002
X00705Y00474998
Y00454998
Y00434998
Y00414998
Y00394998
Y00374998
Y00354998
Y00334998
Y00314998
Y00294998
Y00274998
X00705Y00255
Y00235
X0072Y00245
Y00265
Y00284998
Y00304998
Y00324998
Y00344998
Y00364998
Y00384998
Y00404998
Y00424998
Y00444998
Y00464998
X00735Y00474998
Y00454998
Y00434998
Y00414998
Y00394998
Y00374998
Y00354998
Y00334998
Y00314998
Y00294998
Y00274998
Y00255
Y00235
X00745Y00645
Y0068
X0071
Y00645
Y00715
Y0075
X00745
Y00715
Y0079
X0071
Y0083
X00745
Y0087
X0071
Y00905
X00745
X00745Y0094
X0071Y0094
X00785
Y00905
X00825
Y0094
X00865
Y00905
X00905
Y0094
X00945
Y00905
X00985
Y0094
X01025
Y00905
X01065
Y0094
X01105
Y00905
X01145
Y0094
X01185
Y00905
X01225
Y0094
X01265
Y00905
X01305
Y0094
X01345
Y00905
X01385
Y0094
X01425
Y00905
X01465
Y0094
X01505Y0094
Y00905
X01415Y0086
X01495Y00644998
Y00624998
Y00604998
X0151Y00594998
Y00614998
Y00634998
Y00654998
X01525Y00644998
Y00624998
Y00604998
X0154Y00594998
Y00614998
Y00634998
Y00654998
X01545Y00905
Y0094
X01585
Y00905
X01625
Y0094
X01665
Y00905
X01705
Y0094
X01745
Y00905
X01785
Y0094
X01825
Y00905
X01865
Y0094
X01905
Y00905
X01915Y00689998
X0189
X01865
X0184
X01903Y00673
X01903Y00644
X01591Y00861
X01945Y00905
Y0094
X01985
Y00905
X02025
Y0094
X02065
Y00905
X02105
Y0094
X02145
Y00905
X02185
Y0094
X02225
Y00905
X02265
Y0094
X02305
Y00905
X02315Y00690002
X0229
X02265
X0224Y00689998
X02215
X0219
X02165
X0214
X02115
X0209
X02065
X0204
X02015
X0199
X01965
X0194
X0234Y00690002
X02365
X0239
X02414Y0069
X02437Y00658
X0246Y00755
Y00785
X0249
Y00755
X0252
Y00785
X0255
Y00755
X0258
Y00785
Y00815
X0255
X0252
Y00845
X0255
X0258
X0249
X0246
Y00815
X0249
X02425Y00905
Y0094
X02385
Y00905
X02345
Y0094
T03
X00393048Y00406968
Y00427368
Y00447767
Y00468167
X00410848Y00478368
Y00457967
Y00437567
Y00417168
X00459148Y00397067
Y00374168
Y00488467
Y00511367
Y00569167
Y00592067
X00410848Y00612167
Y00632567
Y00652967
Y00673367
X00393048Y00663167
Y00642767
Y00622367
Y00601967
X00459148Y00683467
Y00706367
T04
X02259Y00514
Y005394
Y005648
Y005902
X023352
Y005648
Y005394
Y00514
Y006156
X02259
T06
X00401948Y00361468
Y00524067
Y00556467
Y00719067
T07
X02484Y002165
Y002885
T08
X00367648Y00379268
Y00506268
Y00574267
Y00701267
M30
