G04*
G04 #@! TF.GenerationSoftware,Altium Limited,Altium Designer,18.1.7 (191)*
G04*
G04 Layer_Color=255*
%FSLAX44Y44*%
%MOMM*%
G71*
G01*
G75*
%ADD145O,3.0000X2.0000*%
%ADD146R,4.0000X4.0000*%
%ADD147R,2.0000X1.8000*%
%ADD148C,1.3980*%
%ADD149C,2.3550*%
%ADD150C,3.2500*%
%ADD151R,1.3980X1.3980*%
D145*
X2544000Y320000D02*
D03*
Y185000D02*
D03*
D146*
X2484000Y288500D02*
D03*
Y216500D02*
D03*
D147*
X2335200Y514000D02*
D03*
Y539400D02*
D03*
Y564800D02*
D03*
Y590200D02*
D03*
Y615600D02*
D03*
X2259000D02*
D03*
Y590200D02*
D03*
Y564800D02*
D03*
Y539400D02*
D03*
Y514000D02*
D03*
D148*
X459148Y592067D02*
D03*
Y569167D02*
D03*
Y683467D02*
D03*
Y706367D02*
D03*
X410848Y673367D02*
D03*
X393048Y663167D02*
D03*
X410848Y652967D02*
D03*
X393048Y642767D02*
D03*
X410848Y632567D02*
D03*
X393048Y622367D02*
D03*
X410848Y612167D02*
D03*
X459148Y397067D02*
D03*
Y374168D02*
D03*
Y488467D02*
D03*
Y511367D02*
D03*
X410848Y478368D02*
D03*
X393048Y468167D02*
D03*
X410848Y457967D02*
D03*
X393048Y447767D02*
D03*
X410848Y437567D02*
D03*
X393048Y427368D02*
D03*
X410848Y417168D02*
D03*
D149*
X401948Y556467D02*
D03*
Y719067D02*
D03*
Y361468D02*
D03*
Y524067D02*
D03*
D150*
X367648Y574267D02*
D03*
Y701267D02*
D03*
Y379268D02*
D03*
Y506268D02*
D03*
D151*
X393048Y601967D02*
D03*
Y406968D02*
D03*
M02*
