G04*
G04 #@! TF.GenerationSoftware,Altium Limited,Altium Designer,18.1.7 (191)*
G04*
G04 Layer_Color=8388736*
%FSLAX44Y44*%
%MOMM*%
G71*
G01*
G75*
%ADD43R,0.7016X0.7016*%
%ADD44R,1.6016X1.3016*%
%ADD45R,0.7016X0.7016*%
G04:AMPARAMS|DCode=46|XSize=1.5716mm|YSize=0.5816mm|CornerRadius=0.1108mm|HoleSize=0mm|Usage=FLASHONLY|Rotation=90.000|XOffset=0mm|YOffset=0mm|HoleType=Round|Shape=RoundedRectangle|*
%AMROUNDEDRECTD46*
21,1,1.5716,0.3600,0,0,90.0*
21,1,1.3500,0.5816,0,0,90.0*
1,1,0.2216,0.1800,0.6750*
1,1,0.2216,0.1800,-0.6750*
1,1,0.2216,-0.1800,-0.6750*
1,1,0.2216,-0.1800,0.6750*
%
%ADD46ROUNDEDRECTD46*%
%ADD47R,1.9016X3.5016*%
%ADD48R,1.7016X1.9016*%
%ADD49O,2.7016X0.8016*%
%ADD50O,2.7016X0.7620*%
%ADD51R,1.0816X1.0316*%
%ADD52R,1.0316X1.0816*%
%ADD53R,1.6016X1.6016*%
%ADD54R,1.2016X2.1016*%
%ADD55R,0.5516X1.1016*%
%ADD56R,0.6516X0.9016*%
%ADD57R,3.0016X5.5016*%
%ADD58R,0.9016X0.6516*%
%ADD59R,2.3016X1.9016*%
%ADD60R,5.5016X3.0016*%
%ADD61O,1.5016X0.4516*%
%ADD62R,6.1016X6.1016*%
G04:AMPARAMS|DCode=63|XSize=2.1016mm|YSize=1.1016mm|CornerRadius=0mm|HoleSize=0mm|Usage=FLASHONLY|Rotation=180.000|XOffset=0mm|YOffset=0mm|HoleType=Round|Shape=Octagon|*
%AMOCTAGOND63*
4,1,8,-1.0508,0.2754,-1.0508,-0.2754,-0.7754,-0.5508,0.7754,-0.5508,1.0508,-0.2754,1.0508,0.2754,0.7754,0.5508,-0.7754,0.5508,-1.0508,0.2754,0.0*
%
%ADD63OCTAGOND63*%

%ADD64R,2.1016X1.1016*%
%ADD65R,1.1016X0.5516*%
%ADD66R,10.2616X9.6016*%
%ADD67R,4.6016X1.3516*%
%ADD68O,3.1016X2.1016*%
%ADD69R,4.1016X4.1016*%
%ADD70R,2.1016X1.9016*%
%ADD71C,1.4996*%
%ADD72C,2.4566*%
%ADD73C,3.3516*%
%ADD74R,1.4996X1.4996*%
D43*
X2110000Y734920D02*
D03*
Y745080D02*
D03*
X2095000Y734920D02*
D03*
Y745080D02*
D03*
X2080000Y734920D02*
D03*
Y745080D02*
D03*
X2065000Y734920D02*
D03*
Y745080D02*
D03*
X978500Y587580D02*
D03*
Y577420D02*
D03*
X1955000Y677080D02*
D03*
Y666920D02*
D03*
X1965000Y677080D02*
D03*
Y666920D02*
D03*
X1940000Y711920D02*
D03*
Y722080D02*
D03*
X1950000Y711920D02*
D03*
Y722080D02*
D03*
X2035000Y734920D02*
D03*
Y745080D02*
D03*
X2020000D02*
D03*
Y734920D02*
D03*
X2005000D02*
D03*
Y745080D02*
D03*
X2232000Y841920D02*
D03*
Y852080D02*
D03*
X2221000Y841920D02*
D03*
Y852080D02*
D03*
X420000Y890080D02*
D03*
Y879920D02*
D03*
X430000D02*
D03*
Y890080D02*
D03*
X2273000Y581920D02*
D03*
Y592080D02*
D03*
X1780000Y641080D02*
D03*
Y630920D02*
D03*
Y454920D02*
D03*
Y465080D02*
D03*
X1780000Y485000D02*
D03*
Y495160D02*
D03*
X1780000Y585080D02*
D03*
Y574920D02*
D03*
X1795000Y485000D02*
D03*
Y495160D02*
D03*
X1795000Y585080D02*
D03*
Y574920D02*
D03*
Y454920D02*
D03*
Y465080D02*
D03*
Y641080D02*
D03*
Y630920D02*
D03*
X330000Y849920D02*
D03*
Y860080D02*
D03*
X340000Y849920D02*
D03*
Y860080D02*
D03*
X420000Y840000D02*
D03*
Y850160D02*
D03*
X485000Y435080D02*
D03*
Y424920D02*
D03*
Y640080D02*
D03*
Y629920D02*
D03*
Y554920D02*
D03*
Y565080D02*
D03*
Y759920D02*
D03*
Y770080D02*
D03*
X430000Y850080D02*
D03*
Y839920D02*
D03*
X1715000Y614920D02*
D03*
Y625080D02*
D03*
X1866000Y588920D02*
D03*
Y599080D02*
D03*
X1867000Y498080D02*
D03*
Y487920D02*
D03*
X2050000Y734920D02*
D03*
Y745080D02*
D03*
X1715000Y465080D02*
D03*
Y454920D02*
D03*
X1560000Y780080D02*
D03*
Y769920D02*
D03*
Y294920D02*
D03*
Y305080D02*
D03*
X2273000Y552920D02*
D03*
Y563080D02*
D03*
D44*
X2165000Y893954D02*
D03*
Y866046D02*
D03*
Y816046D02*
D03*
Y843954D02*
D03*
X2140000Y816046D02*
D03*
Y843954D02*
D03*
Y893954D02*
D03*
Y866046D02*
D03*
X1759968Y403906D02*
D03*
Y375998D02*
D03*
X1784968Y403906D02*
D03*
Y375998D02*
D03*
X1809967Y403906D02*
D03*
Y375998D02*
D03*
X1834967Y403906D02*
D03*
Y375998D02*
D03*
X1859967Y403906D02*
D03*
Y375998D02*
D03*
X1885000Y403954D02*
D03*
Y376046D02*
D03*
X1885033Y286094D02*
D03*
Y314002D02*
D03*
X1860033Y286094D02*
D03*
Y314002D02*
D03*
X1835034Y286094D02*
D03*
Y314002D02*
D03*
X1810034Y286094D02*
D03*
Y314002D02*
D03*
X1785034Y286094D02*
D03*
Y314002D02*
D03*
X1760034Y286094D02*
D03*
Y314002D02*
D03*
X1760000Y807954D02*
D03*
Y780046D02*
D03*
X1784966Y807906D02*
D03*
Y779998D02*
D03*
X1810000Y807954D02*
D03*
Y780046D02*
D03*
X1835000Y807954D02*
D03*
Y780046D02*
D03*
X1860000Y807954D02*
D03*
Y780046D02*
D03*
X1884967Y807906D02*
D03*
Y779998D02*
D03*
X1885000Y692046D02*
D03*
Y719954D02*
D03*
X1860000Y692046D02*
D03*
Y719954D02*
D03*
X1835000Y692046D02*
D03*
Y719954D02*
D03*
X1810000Y692046D02*
D03*
Y719954D02*
D03*
X1785000Y692046D02*
D03*
Y719954D02*
D03*
X1760034Y692094D02*
D03*
Y720002D02*
D03*
D45*
X2110080Y720000D02*
D03*
X2099920D02*
D03*
X2025080Y430000D02*
D03*
X2014920D02*
D03*
X2025080Y460000D02*
D03*
X2014920D02*
D03*
X2025080Y450000D02*
D03*
X2014920D02*
D03*
X2025080Y440000D02*
D03*
X2014920D02*
D03*
X2099920Y705000D02*
D03*
X2110080D02*
D03*
X2230080Y880000D02*
D03*
X2219920D02*
D03*
X2220920Y831000D02*
D03*
X2231080D02*
D03*
X2210080Y900000D02*
D03*
X2199920D02*
D03*
X2230080Y815000D02*
D03*
X2219920D02*
D03*
Y803000D02*
D03*
X2230080D02*
D03*
X2232080Y863000D02*
D03*
X2221920D02*
D03*
X2210080Y870000D02*
D03*
X2199920D02*
D03*
Y880000D02*
D03*
X2210080D02*
D03*
X2209920Y890000D02*
D03*
X2220080D02*
D03*
X2081920Y609000D02*
D03*
X2092080D02*
D03*
X2081920Y569000D02*
D03*
X2092080D02*
D03*
X444920Y900000D02*
D03*
X455080D02*
D03*
X2282080Y425000D02*
D03*
X2271920D02*
D03*
Y436000D02*
D03*
X2282080D02*
D03*
X2257080Y512000D02*
D03*
X2246920D02*
D03*
X2140080Y585000D02*
D03*
X2129920D02*
D03*
X2257080Y622000D02*
D03*
X2246920D02*
D03*
X2116080Y609000D02*
D03*
X2105920D02*
D03*
X2231080Y632998D02*
D03*
X2220920D02*
D03*
X2257080Y532000D02*
D03*
X2246920D02*
D03*
X2172080Y502000D02*
D03*
X2161920D02*
D03*
X2231080Y621998D02*
D03*
X2220920D02*
D03*
X2246920Y633000D02*
D03*
X2257080D02*
D03*
X2257080Y602000D02*
D03*
X2246920D02*
D03*
X1869080Y631998D02*
D03*
X1858920D02*
D03*
X2257080Y563998D02*
D03*
X2246920D02*
D03*
X2257080Y553000D02*
D03*
X2246920D02*
D03*
X2129920Y609000D02*
D03*
X2140080D02*
D03*
X2092080Y585000D02*
D03*
X2081920D02*
D03*
X2187920Y502000D02*
D03*
X2198080D02*
D03*
X2257080Y580000D02*
D03*
X2246920D02*
D03*
Y591000D02*
D03*
X2257080D02*
D03*
X1869080Y619998D02*
D03*
X1858920D02*
D03*
X444920Y830000D02*
D03*
X455080D02*
D03*
X2049080Y621000D02*
D03*
X2038920D02*
D03*
X2050080Y505000D02*
D03*
X2039920D02*
D03*
X2099920Y690000D02*
D03*
X2110080D02*
D03*
X2105920Y597000D02*
D03*
X2116080D02*
D03*
X2129920D02*
D03*
X2140080D02*
D03*
X2129920Y621000D02*
D03*
X2140080D02*
D03*
X2105920D02*
D03*
X2116080D02*
D03*
X1868080Y517998D02*
D03*
X1857920D02*
D03*
X1868080Y568998D02*
D03*
X1857920D02*
D03*
X2049080Y646000D02*
D03*
X2038920D02*
D03*
X2049080Y633000D02*
D03*
X2038920D02*
D03*
X2025080Y621000D02*
D03*
X2014920D02*
D03*
X2026080Y504998D02*
D03*
X2015920D02*
D03*
X2025080Y633000D02*
D03*
X2014920D02*
D03*
X2025080Y645998D02*
D03*
X2014920D02*
D03*
X2015920Y530998D02*
D03*
X2026080D02*
D03*
X2049080Y607000D02*
D03*
X2038920D02*
D03*
X2015920Y492998D02*
D03*
X2026080D02*
D03*
X2015920Y479998D02*
D03*
X2026080D02*
D03*
X2014920Y607000D02*
D03*
X2025080D02*
D03*
X2015920Y517998D02*
D03*
X2026080D02*
D03*
X2217920Y502000D02*
D03*
X2228080D02*
D03*
X2039920Y480000D02*
D03*
X2050080D02*
D03*
X2039920Y493000D02*
D03*
X2050080D02*
D03*
X2257080Y502000D02*
D03*
X2246920D02*
D03*
X2105920Y585000D02*
D03*
X2116080D02*
D03*
X2257080Y522000D02*
D03*
X2246920D02*
D03*
X2140080Y569000D02*
D03*
X2129920D02*
D03*
X2116080D02*
D03*
X2105920D02*
D03*
X2246920Y543000D02*
D03*
X2257080D02*
D03*
X2140080Y553000D02*
D03*
X2129920D02*
D03*
D46*
X2186250Y852500D02*
D03*
X2192750D02*
D03*
X2199250D02*
D03*
X2205750D02*
D03*
Y809500D02*
D03*
X2199250D02*
D03*
X2192750D02*
D03*
X2186250D02*
D03*
D47*
X1924000Y405000D02*
D03*
X1976000D02*
D03*
X1924000Y285000D02*
D03*
X1976000D02*
D03*
X1924000Y345000D02*
D03*
X1976000D02*
D03*
X1919000Y750000D02*
D03*
X1971000D02*
D03*
D48*
X1496000Y210000D02*
D03*
X1524000D02*
D03*
X1491000Y850000D02*
D03*
X1519000D02*
D03*
D49*
X1898782Y644996D02*
D03*
Y568796D02*
D03*
Y556096D02*
D03*
Y543396D02*
D03*
Y530696D02*
D03*
Y517996D02*
D03*
D50*
Y632296D02*
D03*
Y619596D02*
D03*
Y606896D02*
D03*
Y594196D02*
D03*
Y581496D02*
D03*
Y505296D02*
D03*
Y492596D02*
D03*
Y479896D02*
D03*
X1990782Y644996D02*
D03*
Y632296D02*
D03*
Y619596D02*
D03*
Y606896D02*
D03*
Y594196D02*
D03*
Y581496D02*
D03*
Y568796D02*
D03*
Y556096D02*
D03*
Y543396D02*
D03*
Y530696D02*
D03*
Y517996D02*
D03*
Y505296D02*
D03*
Y492596D02*
D03*
Y479896D02*
D03*
D51*
X2080000Y647700D02*
D03*
Y632300D02*
D03*
D52*
X2052300Y590000D02*
D03*
X2067700D02*
D03*
D53*
X1465000Y242954D02*
D03*
Y217046D02*
D03*
X1460000Y827046D02*
D03*
Y852954D02*
D03*
D54*
X910000Y530000D02*
D03*
X950000D02*
D03*
X950000Y845000D02*
D03*
X910000D02*
D03*
X950000Y495000D02*
D03*
X910000D02*
D03*
Y810000D02*
D03*
X950000D02*
D03*
X910000Y460000D02*
D03*
X950000D02*
D03*
Y775000D02*
D03*
X910000D02*
D03*
X950000Y425000D02*
D03*
X910000D02*
D03*
X910000Y740000D02*
D03*
X950000D02*
D03*
X910000Y390000D02*
D03*
X950000D02*
D03*
Y705000D02*
D03*
X910000D02*
D03*
X950000Y355000D02*
D03*
X910000D02*
D03*
Y670000D02*
D03*
X950000D02*
D03*
X910000Y320000D02*
D03*
X950000D02*
D03*
Y635000D02*
D03*
X910000D02*
D03*
X950000Y285000D02*
D03*
X910000D02*
D03*
Y600000D02*
D03*
X950000D02*
D03*
X910000Y250000D02*
D03*
X950000D02*
D03*
Y565000D02*
D03*
X910000D02*
D03*
X485000Y880000D02*
D03*
X445000D02*
D03*
X485000Y850000D02*
D03*
X445000D02*
D03*
D55*
X405000Y874000D02*
D03*
Y896000D02*
D03*
Y856000D02*
D03*
Y834000D02*
D03*
D56*
X2277000Y391500D02*
D03*
X2267500Y414500D02*
D03*
X2286500D02*
D03*
X2276800Y469200D02*
D03*
X2286300Y446200D02*
D03*
X2267300D02*
D03*
D57*
X1290000Y535000D02*
D03*
X1190000D02*
D03*
X1290000Y725000D02*
D03*
X1190000D02*
D03*
X1030000D02*
D03*
X1130000D02*
D03*
X1190000Y350000D02*
D03*
X1290000D02*
D03*
X1030000D02*
D03*
X1130000D02*
D03*
X1030000Y535000D02*
D03*
X1130000D02*
D03*
X1350000Y725000D02*
D03*
X1450000D02*
D03*
X1350000Y535000D02*
D03*
X1450000D02*
D03*
X1350000Y346998D02*
D03*
X1450000D02*
D03*
D58*
X386500Y875500D02*
D03*
Y894500D02*
D03*
X363500Y885000D02*
D03*
X351500Y875500D02*
D03*
Y894500D02*
D03*
X328500Y885000D02*
D03*
X386500Y835500D02*
D03*
Y854500D02*
D03*
X363500Y845000D02*
D03*
D59*
X1566000Y695000D02*
D03*
X1604000Y696000D02*
D03*
X2150000Y782000D02*
D03*
X2188000Y783000D02*
D03*
X674000Y600000D02*
D03*
X636000Y599000D02*
D03*
X819000Y851000D02*
D03*
X781000Y850000D02*
D03*
X636000Y849000D02*
D03*
X674000Y850000D02*
D03*
X781000Y229000D02*
D03*
X819000Y230000D02*
D03*
X674000Y231000D02*
D03*
X636000Y230000D02*
D03*
X781000Y479000D02*
D03*
X819000Y480000D02*
D03*
X781000Y429000D02*
D03*
X819000Y430000D02*
D03*
X781000Y379000D02*
D03*
X819000Y380000D02*
D03*
X781000Y329000D02*
D03*
X819000Y330000D02*
D03*
X781000Y279000D02*
D03*
X819000Y280000D02*
D03*
X674000Y481000D02*
D03*
X636000Y480000D02*
D03*
X673000Y431000D02*
D03*
X635000Y430000D02*
D03*
X674000Y381000D02*
D03*
X636000Y380000D02*
D03*
X674000Y331000D02*
D03*
X636000Y330000D02*
D03*
X674000Y281000D02*
D03*
X636000Y280000D02*
D03*
X819000Y601000D02*
D03*
X781000Y600000D02*
D03*
X819000Y651000D02*
D03*
X781000Y650000D02*
D03*
X819000Y701000D02*
D03*
X781000Y700000D02*
D03*
X819000Y751000D02*
D03*
X781000Y750000D02*
D03*
X819000Y801000D02*
D03*
X781000Y800000D02*
D03*
X636000Y799000D02*
D03*
X674000Y800000D02*
D03*
X636000Y749000D02*
D03*
X674000Y750000D02*
D03*
X636000Y699000D02*
D03*
X674000Y700000D02*
D03*
X636000Y649000D02*
D03*
X674000Y650000D02*
D03*
X1571000Y379000D02*
D03*
X1609000Y380000D02*
D03*
X1571000Y854000D02*
D03*
X1609000Y855000D02*
D03*
X1604000Y540000D02*
D03*
X1566000Y539000D02*
D03*
X1430000Y211000D02*
D03*
X1392000Y210000D02*
D03*
X1425000Y851000D02*
D03*
X1387000Y850000D02*
D03*
D60*
X2060000Y787000D02*
D03*
Y887000D02*
D03*
D61*
X2224374Y521278D02*
D03*
Y527778D02*
D03*
Y534278D02*
D03*
Y540778D02*
D03*
Y547278D02*
D03*
Y553778D02*
D03*
Y560278D02*
D03*
Y566778D02*
D03*
Y573278D02*
D03*
Y579778D02*
D03*
Y586278D02*
D03*
Y592778D02*
D03*
Y599278D02*
D03*
Y605778D02*
D03*
X2168374Y521278D02*
D03*
Y527778D02*
D03*
Y534278D02*
D03*
Y540778D02*
D03*
Y547278D02*
D03*
Y553778D02*
D03*
Y560278D02*
D03*
Y566778D02*
D03*
Y573278D02*
D03*
Y579778D02*
D03*
Y586278D02*
D03*
Y592778D02*
D03*
Y599278D02*
D03*
Y605778D02*
D03*
D62*
X2200500Y715000D02*
D03*
D63*
X2133000Y739000D02*
D03*
D64*
X2134000Y693000D02*
D03*
D65*
X1766000Y585000D02*
D03*
X1744000D02*
D03*
X1766000Y495000D02*
D03*
X1744000D02*
D03*
X1766000Y465000D02*
D03*
X1744000D02*
D03*
X1766000Y641000D02*
D03*
X1744000D02*
D03*
D66*
X1610000Y620000D02*
D03*
Y460000D02*
D03*
X1670000Y300000D02*
D03*
Y775000D02*
D03*
D67*
X1701440Y594600D02*
D03*
Y645400D02*
D03*
Y434600D02*
D03*
Y485400D02*
D03*
X1578560Y325400D02*
D03*
Y274600D02*
D03*
Y800400D02*
D03*
Y749600D02*
D03*
D68*
X2240000Y317500D02*
D03*
Y182500D02*
D03*
X420000D02*
D03*
Y317500D02*
D03*
D69*
X2180000Y286000D02*
D03*
Y214000D02*
D03*
X480000D02*
D03*
Y286000D02*
D03*
D70*
X2315200Y465600D02*
D03*
X2239000D02*
D03*
X2315200Y389400D02*
D03*
Y414800D02*
D03*
Y440200D02*
D03*
X2239000D02*
D03*
Y414800D02*
D03*
Y389400D02*
D03*
D71*
X459148Y642067D02*
D03*
Y619167D02*
D03*
Y733467D02*
D03*
Y756367D02*
D03*
X410848Y723367D02*
D03*
X393048Y713167D02*
D03*
X410848Y702967D02*
D03*
X393048Y692767D02*
D03*
X410848Y682567D02*
D03*
X393048Y672367D02*
D03*
X410848Y662167D02*
D03*
X459148Y437067D02*
D03*
Y414168D02*
D03*
Y528467D02*
D03*
Y551367D02*
D03*
X410848Y518368D02*
D03*
X393048Y508167D02*
D03*
X410848Y497967D02*
D03*
X393048Y487767D02*
D03*
X410848Y477567D02*
D03*
X393048Y467368D02*
D03*
X410848Y457168D02*
D03*
D72*
X401948Y606467D02*
D03*
Y769067D02*
D03*
Y401468D02*
D03*
Y564067D02*
D03*
D73*
X367648Y624267D02*
D03*
Y751267D02*
D03*
Y419268D02*
D03*
Y546268D02*
D03*
D74*
X393048Y651967D02*
D03*
Y446968D02*
D03*
M02*
