G04*
G04 #@! TF.GenerationSoftware,Altium Limited,Altium Designer,18.1.7 (191)*
G04*
G04 Layer_Physical_Order=1*
G04 Layer_Color=255*
%FSLAX44Y44*%
%MOMM*%
G71*
G01*
G75*
%ADD10C,0.2000*%
%ADD15C,0.2540*%
%ADD17R,1.5000X1.5000*%
%ADD18R,1.1000X2.0000*%
%ADD19R,1.0000X0.4500*%
%ADD20R,0.6000X0.6000*%
%ADD21R,0.6000X0.6000*%
%ADD22R,0.5500X0.8000*%
%ADD23R,2.9000X5.4000*%
%ADD24R,1.8000X1.6000*%
%ADD25R,0.8000X0.5500*%
%ADD26R,1.8000X2.2000*%
G04:AMPARAMS|DCode=27|XSize=1.47mm|YSize=0.48mm|CornerRadius=0.06mm|HoleSize=0mm|Usage=FLASHONLY|Rotation=270.000|XOffset=0mm|YOffset=0mm|HoleType=Round|Shape=RoundedRectangle|*
%AMROUNDEDRECTD27*
21,1,1.4700,0.3600,0,0,270.0*
21,1,1.3500,0.4800,0,0,270.0*
1,1,0.1200,-0.1800,-0.6750*
1,1,0.1200,-0.1800,0.6750*
1,1,0.1200,0.1800,0.6750*
1,1,0.1200,0.1800,-0.6750*
%
%ADD27ROUNDEDRECTD27*%
%ADD28R,2.2000X1.8000*%
%ADD29O,1.4000X0.3500*%
%ADD30R,6.0000X6.0000*%
G04:AMPARAMS|DCode=31|XSize=2mm|YSize=1mm|CornerRadius=0mm|HoleSize=0mm|Usage=FLASHONLY|Rotation=180.000|XOffset=0mm|YOffset=0mm|HoleType=Round|Shape=Octagon|*
%AMOCTAGOND31*
4,1,8,-1.0000,0.2500,-1.0000,-0.2500,-0.7500,-0.5000,0.7500,-0.5000,1.0000,-0.2500,1.0000,0.2500,0.7500,0.5000,-0.7500,0.5000,-1.0000,0.2500,0.0*
%
%ADD31OCTAGOND31*%

%ADD32R,2.0000X1.0000*%
%ADD33R,10.1600X9.5000*%
%ADD34R,4.5000X1.2500*%
%ADD35O,2.6000X0.6604*%
%ADD36O,2.6000X0.7000*%
%ADD64C,0.5000*%
%ADD65C,1.5000*%
%ADD66C,0.3000*%
%ADD67C,0.4000*%
%ADD68C,1.0000*%
%ADD69R,7.7000X6.7000*%
%ADD70R,4.2000X6.7000*%
%ADD71R,4.0000X5.5000*%
%ADD72R,1.5000X1.0000*%
%ADD73R,2.5000X1.4000*%
%ADD74R,4.1000X1.4000*%
%ADD75R,4.1000X1.4000*%
%ADD76R,2.1000X1.4000*%
%ADD77R,2.0000X1.4000*%
%ADD78R,2.5000X1.1000*%
%ADD79R,31.1000X1.2000*%
%ADD80R,1.9000X7.9000*%
%ADD81R,17.3200X14.0000*%
%ADD82R,7.0000X13.0000*%
%ADD83R,1.3000X1.2000*%
%ADD84R,5.0000X1.0000*%
%ADD85R,2.0000X56.0000*%
%ADD86R,5.0000X32.5000*%
%ADD87R,32.3000X7.5000*%
%ADD88R,8.0000X4.4000*%
%ADD89R,19.9500X17.1000*%
%ADD90R,1.0000X2.0000*%
%ADD91R,5.3000X1.2000*%
%ADD92R,4.3000X13.3000*%
%ADD93R,15.9000X3.0000*%
%ADD94R,1.8000X7.7000*%
%ADD95R,0.4000X3.5000*%
%ADD96R,1.2000X12.4000*%
%ADD97R,0.9000X2.7000*%
%ADD98R,2.0000X1.0000*%
%ADD99R,8.4000X1.0000*%
%ADD100R,10.1000X1.0000*%
%ADD101R,1.0000X3.6000*%
%ADD102R,1.0000X0.9000*%
%ADD103R,3.1000X5.8000*%
%ADD104R,1.4000X14.3000*%
%ADD105R,40.0000X0.6000*%
%ADD106R,1.2000X13.4000*%
%ADD107R,57.0000X1.2000*%
%ADD108R,1.0000X3.1000*%
%ADD109R,4.0000X9.3000*%
%ADD110R,1.9000X0.9000*%
%ADD111R,6.0000X1.2000*%
%ADD112R,17.0000X5.0000*%
%ADD113R,5.0000X10.0000*%
%ADD114R,4.0000X9.0000*%
%ADD115R,2.0000X1.0000*%
%ADD116R,11.5000X5.5000*%
%ADD117R,20.0000X7.0000*%
%ADD118R,7.5000X27.5000*%
%ADD119R,9.0000X65.5000*%
%ADD120R,6.0000X64.5000*%
%ADD121R,7.5000X37.0000*%
%ADD122R,8.1000X4.3000*%
%ADD123R,3.0000X7.0000*%
%ADD124R,59.0000X1.8000*%
%ADD125R,59.0000X2.0000*%
%ADD126R,64.5000X3.0000*%
%ADD127R,12.5000X3.5000*%
%ADD128R,6.6500X16.5000*%
%ADD129R,24.2500X4.3500*%
%ADD130R,64.0000X6.7000*%
%ADD131R,64.5000X3.0000*%
%ADD132R,177.0000X7.5000*%
%ADD133R,5.0000X52.2000*%
%ADD134R,5.5000X61.1500*%
%ADD135R,4.5000X46.0000*%
%ADD136R,4.5000X47.0000*%
%ADD137R,5.0000X45.2000*%
%ADD138R,3.5000X7.5000*%
%ADD139R,26.0000X4.0000*%
%ADD140R,6.0000X45.7000*%
%ADD141R,9.0000X9.4000*%
%ADD142R,9.0000X9.4000*%
%ADD143R,56.0000X8.0000*%
%ADD144R,65.2000X7.3000*%
%ADD145O,3.0000X2.0000*%
%ADD146R,4.0000X4.0000*%
%ADD147R,2.0000X1.8000*%
%ADD148C,1.3980*%
%ADD149C,2.3550*%
%ADD150C,3.2500*%
%ADD151R,1.3980X1.3980*%
%ADD152C,0.4800*%
%ADD153C,1.2000*%
D10*
X1755080Y703920D02*
X1756000Y703000D01*
X2479000Y717000D02*
Y724000D01*
X2197080Y609998D02*
X2199082Y612000D01*
X2197000Y609998D02*
X2197080D01*
Y582000D02*
Y608918D01*
Y579998D02*
Y582000D01*
X2156000Y631998D02*
X2157000Y630998D01*
X2083000Y642000D02*
Y643000D01*
X2072920Y633000D02*
X2074000D01*
X2064000Y612080D02*
Y622000D01*
X2125000Y614000D02*
Y622000D01*
X2064000Y612080D02*
X2073920D01*
X2064000Y612000D02*
Y612080D01*
X2164594Y540998D02*
X2164594Y540998D01*
X2071000Y612000D02*
X2072920Y610080D01*
X2602000Y461000D02*
Y477920D01*
X2575000Y447000D02*
X2577046Y444954D01*
X2525000Y447000D02*
X2527046Y444954D01*
X2497080Y362000D02*
Y371920D01*
X2198000Y533998D02*
X2199000Y532998D01*
X2197000Y532998D02*
X2197080Y532918D01*
X2092999Y502923D02*
X2100360Y502860D01*
X2157420Y493000D02*
X2157860Y492560D01*
X2005000Y622918D02*
Y622998D01*
Y622918D02*
X2015000Y612918D01*
X1982000Y530998D02*
X1994920D01*
X1571080Y216000D02*
Y217000D01*
Y206920D02*
Y216000D01*
Y206920D02*
X1572000Y206000D01*
X1844920Y517998D02*
Y568998D01*
X1750080Y435000D02*
X1752000Y436920D01*
X1571080Y856920D02*
X1572000Y856000D01*
X1571080Y866000D02*
Y867000D01*
Y856920D02*
Y866000D01*
X440000Y760000D02*
Y910000D01*
X432000Y752000D02*
X440000Y760000D01*
X420000Y752000D02*
X432000D01*
X459920Y929920D02*
X470000D01*
X440000Y910000D02*
X459920Y929920D01*
X460000Y910000D02*
X470000D01*
X358000Y745000D02*
X445000D01*
X446000Y896000D02*
X460000Y910000D01*
X446000Y746000D02*
Y896000D01*
X445000Y745000D02*
X446000Y746000D01*
X340000Y540000D02*
Y715000D01*
X364000Y739000D01*
X485000D01*
X546500Y929500D02*
X554500D01*
X615000Y910000D02*
X630000D01*
X583000Y905000D02*
X585000D01*
X568000Y920000D02*
X583000Y905000D01*
X545000Y920000D02*
X568000D01*
X560000Y935000D02*
Y936000D01*
X556000Y940000D02*
X560000Y936000D01*
X499000Y940000D02*
X556000D01*
X549000Y909000D02*
X553000Y905000D01*
X564000D01*
X494000Y944000D02*
X500000Y950000D01*
X494000Y916000D02*
Y944000D01*
Y916000D02*
X500500Y909500D01*
X506500D01*
X500000Y950000D02*
X505000D01*
X499000Y925000D02*
Y940000D01*
Y925000D02*
X532000D01*
X546500Y910500D01*
X534500Y930500D02*
X545000Y920000D01*
X506500Y930500D02*
X534500D01*
X525000Y915000D02*
Y920000D01*
X519500Y909500D02*
X525000Y915000D01*
X506500Y909500D02*
X519500D01*
X470000Y940080D02*
X484920D01*
X485000Y912000D02*
Y940000D01*
Y912000D02*
X506500Y890500D01*
X484920Y940080D02*
X485000Y940000D01*
X470000Y899920D02*
X484920D01*
X485000Y900000D01*
X595000Y915000D02*
X600160D01*
X595000Y925000D02*
X600000D01*
X604920Y929920D01*
X605000D01*
X600160Y915000D02*
X605000Y910160D01*
X628000Y885000D02*
X628000Y885000D01*
X627920Y884920D02*
X628000Y885000D01*
X629920D02*
X630000D01*
X628000D02*
X629920D01*
X595000D02*
X628000D01*
X586000Y894000D02*
X595000Y885000D01*
X586000Y894000D02*
Y905000D01*
X629920Y955000D02*
Y955000D01*
Y930080D02*
Y955000D01*
X630000D01*
X595000D02*
X629920D01*
X586000Y946000D02*
X595000Y955000D01*
X586000Y935000D02*
Y946000D01*
X605000Y900000D02*
X605080Y899920D01*
X615000D01*
X605000Y900000D02*
X605000D01*
X629920Y900080D02*
X630000Y900000D01*
X629920Y885000D02*
Y900080D01*
X670000Y930000D02*
X670000Y930000D01*
Y905000D02*
Y930000D01*
X655000Y885000D02*
X670000Y900000D01*
X640080Y885000D02*
X655000D01*
X655000Y955000D02*
X670000Y940000D01*
X640080Y955000D02*
X655000D01*
X629920Y904920D02*
X630000Y905000D01*
X629920Y930080D02*
X630000Y930000D01*
X629920Y929920D02*
X630000Y930000D01*
X615000Y929920D02*
X629920D01*
X614920Y940080D02*
X615000Y940000D01*
X605000Y940080D02*
X614920D01*
X668000Y910000D02*
X668000Y910000D01*
X1572080Y866000D02*
X1587000D01*
X1573000Y856000D02*
X1587000D01*
X1572000Y206000D02*
X1586000D01*
X1571080Y216000D02*
X1586000D01*
X1501000Y206000D02*
X1538920D01*
X1485000Y216000D02*
X1486000Y217000D01*
X1502000D02*
X1538920D01*
X1560920Y866000D02*
Y866920D01*
Y856000D02*
Y867000D01*
Y866920D02*
X1561000Y867000D01*
X1547080Y858920D02*
X1548000Y858000D01*
X1547080Y858920D02*
Y867000D01*
X1560920Y856000D02*
X1561000D01*
X1547080D02*
X1560920D01*
X1547080Y866000D02*
X1560000D01*
X1536920Y865920D02*
X1537000Y866000D01*
X1483000Y868000D02*
X1484000Y867000D01*
X1499000Y866000D02*
X1536920D01*
X1504000Y856000D02*
X1536920D01*
Y866920D01*
X1538920Y214920D02*
X1539000Y215000D01*
X1538920Y206000D02*
Y215920D01*
X1549080Y216000D02*
X1560000D01*
X1549080Y206000D02*
X1560920D01*
X1547000D02*
X1549080D01*
X1571080D02*
X1572000D01*
X1442000Y866000D02*
X1443000Y865000D01*
X2197080Y553918D02*
X2212000D01*
X2197000Y553998D02*
X2197080Y553918D01*
X2186000Y534998D02*
X2187080D01*
X2186281Y533278D02*
X2187000Y533998D01*
X2034000Y661000D02*
X2035000Y662000D01*
X2083000Y632000D02*
X2089000Y638000D01*
X2072920Y622000D02*
X2083000Y632080D01*
X2034000Y627000D02*
Y661000D01*
X2138000Y503000D02*
Y533998D01*
X2138020Y503560D02*
X2157482D01*
X2027000Y568998D02*
X2028002D01*
X2254000Y534000D02*
Y539000D01*
X2218000D02*
X2254000D01*
X2212000Y545000D02*
X2218000Y539000D01*
X2281000Y544000D02*
X2297000D01*
X2252000Y572000D02*
X2255000Y569000D01*
X2237875Y572000D02*
X2252000D01*
X2235873Y569998D02*
X2237875Y572000D01*
X2297000Y612000D02*
Y621000D01*
X2207000Y579998D02*
X2209000D01*
X2239000Y580000D02*
X2247000D01*
X2233998Y574998D02*
X2239000Y580000D01*
X2212000Y545000D02*
Y553918D01*
X2314000Y546000D02*
X2332000D01*
X2309000Y551000D02*
X2314000Y546000D01*
X2285000Y551000D02*
X2309000D01*
X2277000Y559000D02*
X2285000Y551000D01*
X2277000Y559000D02*
Y585900D01*
X2287300Y596200D01*
X2268000Y557000D02*
X2281000Y544000D01*
X2266800Y557000D02*
X2268000D01*
X2327000D02*
X2331000Y561000D01*
X2295000Y557000D02*
X2327000D01*
X2287500Y564500D02*
X2295000Y557000D01*
X2302080Y591080D02*
X2307000Y596000D01*
X2330800Y596200D02*
X2332000Y595000D01*
X2306300Y596200D02*
X2330800D01*
X2294000Y609000D02*
X2297000Y612000D01*
X2286000Y609000D02*
X2294000D01*
X2275000Y598000D02*
X2286000Y609000D01*
X2267000Y598000D02*
X2275000D01*
X2259200Y590200D02*
X2267000Y598000D01*
X2246998Y579998D02*
X2253000Y586000D01*
X2209000Y574998D02*
X2233998D01*
X2212000Y569998D02*
X2235873D01*
X2259000Y590200D02*
X2259200D01*
X2259000Y564800D02*
X2266800Y557000D01*
X2288000Y566000D02*
X2291920Y569920D01*
Y575000D01*
X2291080Y586000D02*
X2302080Y575000D01*
X2291000Y586000D02*
X2291080D01*
X2302080Y569920D02*
X2306000Y566000D01*
X2302080Y569920D02*
Y575000D01*
X2288000Y594000D02*
X2291920Y590080D01*
Y586000D02*
Y590080D01*
X2302080Y586000D02*
Y591080D01*
X2479000Y636000D02*
Y650920D01*
X2479000Y650920D02*
X2479000Y650920D01*
X2602000Y487080D02*
Y547000D01*
X2604000Y503000D02*
X2614000Y493000D01*
Y415000D02*
Y493000D01*
X2508000Y415000D02*
X2509000Y414000D01*
X1741000Y435000D02*
X1742300Y433700D01*
Y393000D02*
Y433700D01*
Y283300D02*
X1743000Y284000D01*
X1742300Y250000D02*
Y283300D01*
X1741920Y251920D02*
X1742000Y252000D01*
X1744000Y745000D02*
X1745000Y744000D01*
Y710000D02*
Y744000D01*
X1744920Y745000D02*
X1745000D01*
X1744000D02*
X1744920D01*
X1721000D02*
X1744000D01*
X1743000Y594000D02*
X1744000Y595000D01*
X1743000Y551000D02*
Y578000D01*
X1720000Y594000D02*
Y595000D01*
X1949000Y463000D02*
X2015000D01*
X1843000Y663000D02*
X1925000D01*
X2051920Y642000D02*
X2053000Y643080D01*
X2043000Y642000D02*
X2051920D01*
X2042000Y643000D02*
X2043000Y642000D01*
X1984000Y653000D02*
X1987000Y650000D01*
X1822000Y332000D02*
Y450000D01*
X1840000Y336046D02*
Y337046D01*
Y326000D02*
Y336046D01*
X445000Y745000D02*
X445000D01*
X445000Y744000D02*
Y745000D01*
X1829000Y781000D02*
Y797000D01*
X1830000Y798000D01*
Y801000D01*
X2525000Y695000D02*
Y709000D01*
X2518000Y716000D02*
X2525000Y709000D01*
X2491080Y716000D02*
X2518000D01*
X2505000Y683000D02*
X2513000D01*
X2497000D02*
X2505000D01*
X2491000D02*
X2497000D01*
X2513000D02*
X2525000Y695000D01*
X2579000Y485000D02*
Y499920D01*
Y462000D02*
Y476920D01*
X2590000Y462000D02*
Y476920D01*
X2590000Y488080D02*
Y537000D01*
X2457000Y404000D02*
X2457080Y404080D01*
X2586000Y541000D02*
X2589000Y538000D01*
Y489080D02*
X2589000Y489080D01*
X1750080Y285000D02*
X1752000Y286920D01*
X2498000Y661080D02*
X2501000Y661000D01*
X2489000Y661080D02*
X2501000Y661000D01*
X2502000Y657000D02*
X2502000D01*
X1751000Y299000D02*
X1752000D01*
Y286920D02*
Y299000D01*
Y410000D02*
X1760000Y418000D01*
X1752000Y409000D02*
Y410000D01*
X1751000Y610000D02*
X1753000D01*
Y597920D02*
Y610000D01*
X1751000Y452000D02*
X1752000D01*
Y436920D02*
Y452000D01*
X2499750Y400500D02*
X2501250Y402000D01*
X2575000Y377000D02*
X2580000Y372000D01*
X2487000Y362000D02*
X2487080Y362080D01*
X1914000Y469000D02*
Y655000D01*
X1950000Y467998D02*
X1994920D01*
X1818000Y676000D02*
Y783000D01*
Y676000D02*
X1839000Y655000D01*
X1914000D01*
X1822000Y678000D02*
Y783000D01*
Y678000D02*
X1841000Y659000D01*
X1918000D01*
X1826000Y680000D02*
Y778000D01*
Y680000D02*
X1843000Y663000D01*
X1817000Y332000D02*
Y454000D01*
X1933000D02*
Y663000D01*
X1817000Y454000D02*
X1933000D01*
X1937000Y450000D02*
Y659000D01*
X1822000Y450000D02*
X1937000D01*
X1941000Y446000D02*
Y653000D01*
X1826000Y446000D02*
X1941000D01*
X1826000Y338000D02*
Y446000D01*
X2033000Y525000D02*
X2036000D01*
X2033000D02*
X2033000D01*
X1983000Y556000D02*
X2002000D01*
X2033000Y525000D01*
X2034000D01*
X2096000Y534000D02*
X2109000D01*
X2030002Y519998D02*
X2088998D01*
X2006002Y543998D02*
X2030002Y519998D01*
X1981000Y543998D02*
X2006002D01*
X2033002Y524998D02*
X2086998D01*
X1978000Y555998D02*
X2002002D01*
X2036002Y529998D02*
X2084998D01*
X1997002Y568998D02*
X2036002Y529998D01*
X1981000Y568998D02*
X1997002D01*
X1993002Y580998D02*
X2039002Y534998D01*
X1978000Y580998D02*
X1993002D01*
X2039002Y534998D02*
X2082998D01*
X2096000Y567000D02*
X2107000D01*
X2095002D02*
X2096000D01*
X2004000Y611998D02*
Y612998D01*
Y611998D02*
X2005000Y610998D01*
Y577000D02*
Y610998D01*
X2033002Y548998D02*
X2077000D01*
X2005000Y577000D02*
X2033002Y548998D01*
X2040000Y557000D02*
X2044000Y553000D01*
X2045000D01*
X2045002Y552998D01*
X2074000D01*
X2036000Y571000D02*
X2037000D01*
X2029000D02*
X2036000D01*
Y561090D02*
X2043040Y554050D01*
X2036000Y561090D02*
Y569000D01*
X2084222Y579778D02*
X2108374D01*
X2004000Y530998D02*
X2005080Y529918D01*
X2024000Y513998D02*
X2085000D01*
X2066000Y569998D02*
X2066080Y569918D01*
X2093278Y573278D02*
X2106722D01*
X2089998Y569998D02*
X2093278Y573278D01*
X2077000Y569998D02*
X2089998D01*
X2074000Y552998D02*
X2076000Y554998D01*
Y559918D01*
X1933000Y663000D02*
X2015000D01*
X1937000Y659000D02*
X1992920D01*
X1941000Y653000D02*
X1984000D01*
X1918000Y462000D02*
Y659000D01*
X1826000Y778000D02*
X1829000Y781000D01*
X2105080Y652000D02*
X2113000D01*
X2115080Y503560D02*
X2127940D01*
X2120000Y504000D02*
Y553998D01*
X2113000D02*
X2120000D01*
X2168080Y504918D02*
Y520078D01*
Y493998D02*
Y503000D01*
Y504000D02*
Y504918D01*
Y503000D02*
Y504000D01*
X2138000Y533998D02*
X2160000D01*
X2209000Y592080D02*
Y622000D01*
Y592000D02*
Y592080D01*
X2096000Y560000D02*
X2105000D01*
X2077998Y541998D02*
X2096000Y560000D01*
X2072080Y541998D02*
X2077998D01*
X2095278Y547278D02*
X2108374D01*
X2082998Y534998D02*
X2095278Y547278D01*
X2095779Y540778D02*
X2106778D01*
X2084998Y529998D02*
X2095779Y540778D01*
X2086998Y524998D02*
X2087000D01*
X2086998D02*
X2096000Y534000D01*
X2097000Y528000D02*
X2106000D01*
X2088998Y519998D02*
X2097000Y528000D01*
X2175780Y566778D02*
X2179000Y569998D01*
X2168184Y566778D02*
X2175780D01*
X2179000Y569998D02*
X2212000D01*
X2177000Y575000D02*
X2209000D01*
X2175278Y573278D02*
X2177000Y575000D01*
X2164374Y573278D02*
X2175278D01*
X2209000Y575000D02*
Y579998D01*
X2185220Y581778D02*
X2186000Y580998D01*
X2177000Y582000D02*
X2186000D01*
X2174778Y579778D02*
X2177000Y582000D01*
X2150000Y599278D02*
Y614000D01*
Y631998D01*
X2209000Y622000D02*
Y653000D01*
X2197080Y622000D02*
X2209000D01*
X2207078Y590078D02*
X2209000Y592000D01*
X2196000Y653000D02*
X2209000D01*
X2199082Y612000D02*
X2204000D01*
X2207000Y590078D02*
X2207078D01*
X2197080Y632000D02*
Y633920D01*
Y622000D02*
Y632000D01*
X2197000Y634000D02*
X2197080Y633920D01*
X2186920Y589998D02*
Y612078D01*
X2186920Y621920D02*
X2187000Y622000D01*
X2186920Y612000D02*
Y621920D01*
X2185000Y589998D02*
Y592000D01*
X2174559D02*
X2185000D01*
X2173781Y592778D02*
X2174559Y592000D01*
X2168000Y632000D02*
X2186920D01*
X2168000Y631998D02*
Y632000D01*
Y605998D02*
Y631998D01*
X2197000Y609998D02*
X2197080Y610078D01*
X2150000Y631998D02*
Y632000D01*
X2125080Y642000D02*
Y649920D01*
X2082000Y601000D02*
X2083080Y602080D01*
X2085000Y602000D02*
X2094000D01*
X2096722Y599278D01*
X2083080Y612000D02*
Y622000D01*
Y602920D02*
Y612000D01*
Y602080D02*
Y602920D01*
X2096722Y599278D02*
X2108374D01*
X2084000Y580000D02*
X2084222Y579778D01*
X2054000Y602000D02*
Y612920D01*
Y597000D02*
Y602000D01*
X2062920D01*
X2063000Y601920D01*
Y612080D02*
X2064000D01*
X2073920D02*
X2074000Y612000D01*
X2072920Y602000D02*
Y610080D01*
X2083000Y603000D02*
X2083080Y602920D01*
X2106000Y586998D02*
X2107000D01*
X2105000D02*
X2106000D01*
X2027000D02*
X2105000D01*
X2027000Y581998D02*
X2028000Y580998D01*
X2052920Y612920D02*
X2054000D01*
X2043000D02*
X2043920Y612000D01*
X2052000D02*
X2052920Y612920D01*
X2058000Y593000D02*
X2105000D01*
X2054000Y612920D02*
Y614000D01*
X2059000Y619000D02*
Y624000D01*
X2054000Y614000D02*
X2059000Y619000D01*
X2083000Y632080D02*
Y634000D01*
X2105080Y642000D02*
Y652000D01*
Y641080D02*
Y642000D01*
X2105000Y641000D02*
X2105080Y641080D01*
X2094920Y651920D02*
X2096000Y653000D01*
X2094920Y642000D02*
Y651920D01*
Y632000D02*
Y642000D01*
Y622000D02*
Y632000D01*
X2106000Y622000D02*
X2114920D01*
X2105080D02*
X2106000D01*
X2103000Y621000D02*
X2104000Y620000D01*
X2105080Y622920D02*
X2106000Y622000D01*
X2105080Y622920D02*
Y632000D01*
X2114920D01*
X2105000D02*
X2105080D01*
X2125080D02*
X2126000D01*
X2124920D02*
X2125080D01*
X2114920Y642000D02*
X2124920Y632000D01*
X2114920Y622000D02*
X2115000Y620000D01*
X2104000Y621000D02*
X2105000Y622000D01*
X2104000Y620000D02*
X2105080Y622000D01*
X2112920Y630000D02*
Y630920D01*
X2113000Y631000D01*
X2105000Y606998D02*
Y619998D01*
X2104000Y605998D02*
X2105000Y606998D01*
X2106722Y573278D02*
X2108374D01*
X2106722D02*
X2107000Y573000D01*
X2095000Y567000D02*
X2095002D01*
X2077000Y548998D02*
X2095002Y567000D01*
X2108374Y547278D02*
X2108722D01*
X2109000Y547000D01*
X2106778Y540778D02*
X2107000Y541000D01*
X2036000Y661000D02*
X2089000D01*
Y638000D02*
Y661000D01*
X2043000Y642080D02*
Y651000D01*
X2042000Y652000D02*
X2043000Y651000D01*
X2054000Y597000D02*
X2058000Y593000D01*
X2052920Y612920D02*
X2053000Y613000D01*
X2043920Y612000D02*
X2052000D01*
X2063000Y631920D02*
Y634000D01*
Y628000D02*
Y631920D01*
X2074000Y633000D02*
X2083000Y642000D01*
X2071000Y630000D02*
Y631000D01*
X2064000Y623000D02*
X2071000Y630000D01*
X2059000Y624000D02*
X2063000Y628000D01*
X2053000Y623080D02*
Y634000D01*
X2064000Y642000D02*
X2073920D01*
X2043000Y624000D02*
Y633920D01*
X2489000Y637000D02*
Y650920D01*
X2554080Y672920D02*
X2555000Y672000D01*
X2491000Y672920D02*
X2554080D01*
X2488920Y705080D02*
X2489000Y705000D01*
X2491000Y705000D02*
X2501000D01*
X2479000Y705080D02*
X2488920D01*
X2479000Y683080D02*
Y692000D01*
X2489000Y650920D02*
X2489920D01*
X2479000D02*
X2489000D01*
X2489920D02*
X2490000Y651000D01*
X2479000Y663080D02*
Y672000D01*
X1753080Y562000D02*
Y569080D01*
Y551000D02*
Y562000D01*
Y569080D02*
X1763000Y579000D01*
X1743000Y578000D02*
Y594000D01*
X1752080Y404000D02*
Y410080D01*
Y394000D02*
Y404000D01*
X1755080Y720080D02*
X1763000Y728000D01*
X1755080Y714000D02*
Y720080D01*
Y703920D02*
Y714000D01*
X1744920Y705080D02*
X1745000Y705000D01*
X1744920Y705080D02*
Y714000D01*
X1752080Y252000D02*
X1763000D01*
X1752080D02*
Y260080D01*
Y241000D02*
Y252000D01*
Y260080D02*
X1761000Y269000D01*
X1741920Y241000D02*
Y251920D01*
X1830000Y322000D02*
X1836000D01*
X1829000Y323000D02*
X1830000Y322000D01*
X1829000Y323000D02*
Y335000D01*
X1826000Y338000D02*
X1829000Y335000D01*
X1836000Y322000D02*
X1840000Y326000D01*
X2499750Y400500D02*
Y401500D01*
Y401750D01*
X2505000Y361000D02*
Y373000D01*
X2500000Y356000D02*
X2505000Y361000D01*
X2493080Y356000D02*
X2500000D01*
X2487080Y362000D02*
X2493080Y356000D01*
X2098909Y566909D02*
X2100998D01*
X2497000Y384000D02*
Y390000D01*
X2493250D02*
X2497000D01*
X2493250D02*
Y401500D01*
X2467000Y415000D02*
X2508000D01*
X2467000Y405000D02*
Y415000D01*
X2472080Y492080D02*
X2483000D01*
X2482080Y493000D02*
X2483000Y492080D01*
Y472000D02*
Y481920D01*
Y460000D02*
X2486750Y456250D01*
Y444500D02*
Y456250D01*
X2493000Y471080D02*
X2499920D01*
X2493000D02*
X2493920Y472000D01*
X2493000Y460000D02*
X2493250Y459750D01*
Y444500D02*
Y459750D01*
X2457000Y362000D02*
Y371920D01*
X2465000Y395920D02*
X2479920D01*
X2456920Y393920D02*
X2457000Y394000D01*
Y381000D02*
Y381080D01*
Y380080D02*
Y394920D01*
X2456000Y380000D02*
X2457000Y381000D01*
X2456840Y394000D02*
X2456920Y393920D01*
X2488920Y684000D02*
Y691920D01*
X2489000Y705000D02*
Y705080D01*
X485000Y720080D02*
Y739000D01*
X2027000Y569918D02*
Y571000D01*
X1862000Y620000D02*
X1877000D01*
X1855080D02*
X1862000D01*
X2504920Y655920D02*
X2505000Y656000D01*
X2508000Y706000D02*
X2508080Y706080D01*
X2558000Y694000D02*
X2558080Y694080D01*
X2527046Y444954D02*
X2550000D01*
X2577046D02*
X2600000D01*
X2456920Y393920D02*
X2457000D01*
X2500000Y402000D02*
X2501250D01*
X2499750Y401750D02*
X2500000Y402000D01*
X2501250Y403250D01*
Y402000D02*
Y403250D01*
X2487000Y382000D02*
X2488750Y383750D01*
X2486750D02*
Y400500D01*
X2476920Y382080D02*
X2477000Y382000D01*
X2467000Y382080D02*
X2476920D01*
Y371920D02*
X2477000Y372000D01*
X2467000D02*
X2476920D01*
Y362000D02*
Y371920D01*
X2487080Y362080D02*
Y372000D01*
X2487000Y362000D02*
X2487080D01*
X2457080Y404080D02*
X2467000D01*
X485000Y340000D02*
Y384920D01*
X340000Y340000D02*
X485000D01*
X340000D02*
Y540000D01*
X460000Y395000D02*
X485000D01*
Y540000D02*
Y579920D01*
Y525080D02*
Y540000D01*
X340000D02*
X485000D01*
X460000Y515000D02*
X485000D01*
Y579920D02*
Y580000D01*
X460000Y590000D02*
X485000D01*
X460000Y710000D02*
X485000D01*
Y720000D02*
Y720080D01*
X2150000Y599278D02*
X2164374D01*
X2151000Y621998D02*
X2157000D01*
X2150000Y631998D02*
X2156000D01*
X1714000Y285000D02*
X1741000D01*
X1722000Y435000D02*
X1741000D01*
X1741920Y435000D02*
Y435000D01*
X1720000Y595000D02*
X1742000D01*
X1754000Y764000D02*
X1755080D01*
Y745000D02*
Y764000D01*
X1844920Y568998D02*
Y569000D01*
X1844000D02*
X1844920D01*
X1845396Y543396D02*
X1878782D01*
X1845000Y543000D02*
X1845396Y543396D01*
X1889000Y518000D02*
X1898000D01*
Y568796D01*
X1878782D02*
X1898000D01*
X1817000Y784000D02*
X1818000Y783000D01*
X1823000Y784000D02*
X1824000D01*
X1822000Y783000D02*
X1823000Y784000D01*
X1913000Y469000D02*
X1914000D01*
X2015000Y463000D02*
Y482918D01*
Y645078D02*
Y663000D01*
X1992920Y659000D02*
X1994920Y657000D01*
X2004000Y656000D02*
X2005080Y654920D01*
Y645998D02*
Y654920D01*
X2169002Y599000D02*
X2177000D01*
X2169000Y598998D02*
X2169002Y599000D01*
X2027000Y586998D02*
Y587000D01*
X2024000Y590000D02*
X2027000Y587000D01*
X2016002Y590000D02*
X2024000D01*
X2016000Y589998D02*
X2016002Y590000D01*
X2034080Y499078D02*
Y504998D01*
X2034000Y493998D02*
X2034080Y494078D01*
Y499078D01*
X1993702Y505296D02*
X1995000Y503998D01*
X1837000Y619998D02*
X1844920D01*
X1855080Y619998D02*
Y620000D01*
X1868102Y479896D02*
X1869000Y478998D01*
X1868000Y479998D02*
X1868102Y479896D01*
X2152000Y586000D02*
X2155002D01*
X2155280Y586278D01*
X2149500Y493000D02*
X2150000D01*
X2148940Y493560D02*
X2149500Y493000D01*
X2150000D02*
X2157420D01*
X2164594Y540998D02*
X2177000D01*
X2178000Y503998D02*
X2186920D01*
X2178000D02*
Y527998D01*
X2169000D02*
X2178000D01*
X2127860Y502480D02*
X2127940Y502560D01*
X2127860Y493560D02*
Y502480D01*
X2137940Y502560D02*
X2138020Y502480D01*
Y493560D02*
Y502480D01*
X2157482Y503560D02*
X2157920Y503998D01*
X2025000Y605998D02*
Y612918D01*
X2027000Y581998D02*
Y586998D01*
X2025000Y623078D02*
Y628998D01*
Y622998D02*
Y623078D01*
X2015000Y628998D02*
X2025000D01*
X2015000Y600078D02*
Y612918D01*
Y599998D02*
Y600078D01*
X2014000Y598998D02*
X2015000Y599998D01*
X2014920Y612918D02*
X2015000D01*
X2025000D01*
X2014000Y611998D02*
X2014920Y612918D01*
X2015000Y623078D02*
Y628998D01*
Y621998D02*
Y623078D01*
X1995000Y628998D02*
X2015000D01*
X1994920Y628918D02*
X1995000Y628998D01*
X1994920Y622998D02*
Y628918D01*
X1970782Y606896D02*
X1985018Y606980D01*
X1985000Y606998D02*
X1985018Y606980D01*
X1990000Y601998D01*
X1970884Y606998D02*
X1985000D01*
X1970782Y606896D02*
X1970884Y606998D01*
X2023920Y485078D02*
Y492998D01*
X2015000Y504998D02*
X2023920D01*
X1988000D02*
X1988080Y504918D01*
Y499078D02*
Y504918D01*
Y499078D02*
X2034080D01*
X2020000Y517998D02*
X2024000Y513998D01*
X2005080Y517998D02*
X2020000D01*
X2005000Y634998D02*
X2005080Y634918D01*
X2015000D01*
X2053080Y541998D02*
X2054000D01*
X2060000D01*
X1990000Y601998D02*
X1994000D01*
X2099000Y559998D02*
X2108000D01*
X2071080Y541998D02*
X2072080D01*
X2057000Y579998D02*
X2065920D01*
X2055920Y578918D02*
X2056000Y578998D01*
X2055920Y569998D02*
Y578918D01*
Y568918D02*
X2056000Y568998D01*
X2055920Y559998D02*
Y568918D01*
X2067000Y569998D02*
X2067080Y570078D01*
X2076000D01*
X2066080Y559998D02*
Y569918D01*
X1837000Y568998D02*
X1844920D01*
X1857080Y568998D02*
X1874000D01*
X1837000Y631998D02*
X1844920D01*
X1873000Y631998D02*
X1874000Y632998D01*
X1855080Y631998D02*
X1873000D01*
X1837000Y517998D02*
X1844920D01*
X1874000Y517998D02*
X1875000Y516998D01*
X1855080Y517998D02*
X1874000D01*
X2075920Y579998D02*
Y585918D01*
X2197080Y553918D02*
X2197080Y553918D01*
X2199000Y532998D02*
X2204000D01*
X2187080Y533998D02*
X2197080Y543998D01*
Y553918D01*
X2212000Y564998D02*
Y569998D01*
X2184920Y563998D02*
Y565998D01*
X2180000Y563998D02*
X2184920D01*
X2176281Y560278D02*
X2180000Y563998D01*
X2197000D02*
X2197080D01*
X2204000D01*
X2185000Y552998D02*
Y553998D01*
X2178000D02*
X2185000D01*
X2178000Y553998D02*
X2178000Y553998D01*
X2182000Y543998D02*
X2187000D01*
X2178720Y547278D02*
X2182000Y543998D01*
X2164374Y547278D02*
X2178720D01*
X2005080Y504998D02*
X2013000D01*
X1970782Y505296D02*
X1993702D01*
X1979000Y517998D02*
X1983000D01*
X1994920D01*
X1981000Y529998D02*
X1982000Y530998D01*
X2005080Y517998D02*
Y529918D01*
X1993920Y633998D02*
X1994920Y632998D01*
X1977000Y630998D02*
X1979000Y632998D01*
X1993920D01*
X1979000Y619998D02*
X1987000D01*
X1990000Y622998D01*
X1994920D01*
X2004000Y621158D02*
Y621998D01*
X1994840Y611998D02*
X2004000Y621158D01*
X2168000Y605998D02*
X2168220Y605778D01*
X2164374D02*
X2168220D01*
X2168000Y621998D02*
Y629918D01*
X1974000Y644998D02*
X1994920D01*
Y645998D02*
X1995000D01*
X1994920Y632998D02*
X1995000D01*
X2164374Y534278D02*
X2185280D01*
X2005000Y470998D02*
X2005080Y471078D01*
Y479998D01*
Y492998D02*
X2015000D01*
X1979000Y479998D02*
X1994920D01*
X1977000Y492998D02*
X1994920D01*
X2168000Y504998D02*
X2168080Y504918D01*
Y520078D02*
X2169000Y520998D01*
X2100998Y566909D02*
X2108374Y566778D01*
X2100998Y566909D02*
X2100999D01*
X2105000Y586998D02*
X2106000Y585998D01*
X2197000Y608998D02*
X2197080Y608918D01*
X2164374Y592778D02*
X2173781D01*
X2164374Y579778D02*
X2174778D01*
X2106920Y585918D02*
X2107000Y585998D01*
X2197080Y513918D02*
Y522998D01*
Y512998D02*
Y513918D01*
Y502998D02*
Y512998D01*
X2197000Y513998D02*
X2197080Y513918D01*
X2168184Y560278D02*
X2176281D01*
X2196080Y543998D02*
X2197080D01*
X2168000Y553998D02*
X2178000D01*
X2164374Y540778D02*
X2164594Y540998D01*
X2197080Y522998D02*
Y532918D01*
X2186920Y522998D02*
Y532998D01*
Y514078D02*
Y522998D01*
Y514078D02*
X2187000Y513998D01*
X2164155Y566998D02*
X2164374Y566778D01*
X1970580Y568998D02*
X1970782Y568796D01*
X2164155Y592998D02*
X2164374Y592778D01*
X2155280Y586278D02*
X2164374D01*
D15*
X2495250Y383750D02*
X2497000Y382000D01*
X2526954Y419046D02*
X2575000D01*
X2526046Y399954D02*
X2575000D01*
X2600000Y417000D02*
Y419046D01*
Y399954D02*
Y417000D01*
X2575000Y419046D02*
Y422000D01*
Y399954D02*
Y419046D01*
X2597954D02*
X2600000Y417000D01*
X2575000Y419046D02*
X2597954D01*
X2580000Y402000D02*
X2582046Y399954D01*
X2600000D01*
Y419046D02*
Y424046D01*
X1872080Y632918D02*
X1873000Y631998D01*
X1964000Y593998D02*
X1988000D01*
D17*
X1515000Y242954D02*
D03*
Y217046D02*
D03*
X1510000Y832046D02*
D03*
Y857954D02*
D03*
X1965000Y711046D02*
D03*
Y736954D02*
D03*
X1940000Y711046D02*
D03*
Y736954D02*
D03*
X1915000Y711046D02*
D03*
Y736954D02*
D03*
X1890000Y711046D02*
D03*
Y736954D02*
D03*
X1865000Y711046D02*
D03*
Y736954D02*
D03*
X1840000Y711046D02*
D03*
Y736954D02*
D03*
X1990000Y758046D02*
D03*
Y783954D02*
D03*
X2015000Y758046D02*
D03*
Y783954D02*
D03*
X2390000Y711046D02*
D03*
Y736954D02*
D03*
X2365000Y711046D02*
D03*
Y736954D02*
D03*
X2040000Y758046D02*
D03*
Y783954D02*
D03*
X2065000Y758046D02*
D03*
Y783954D02*
D03*
X2090000Y758046D02*
D03*
Y783954D02*
D03*
X2115000Y758046D02*
D03*
Y783954D02*
D03*
X2140000Y758046D02*
D03*
Y783954D02*
D03*
X2165000Y758046D02*
D03*
Y783954D02*
D03*
X2415000Y711046D02*
D03*
Y736954D02*
D03*
X2290000Y758046D02*
D03*
Y783954D02*
D03*
X2265000Y758046D02*
D03*
Y783954D02*
D03*
X2240000Y758046D02*
D03*
Y783954D02*
D03*
X2215000Y758046D02*
D03*
Y783954D02*
D03*
X2190000Y758046D02*
D03*
Y783954D02*
D03*
X2340000Y758046D02*
D03*
Y783954D02*
D03*
X2315000Y758046D02*
D03*
Y783954D02*
D03*
X2365000Y758046D02*
D03*
Y783954D02*
D03*
X2525000Y399954D02*
D03*
Y374046D02*
D03*
X2550000Y399954D02*
D03*
Y374046D02*
D03*
X2600000Y444954D02*
D03*
Y419046D02*
D03*
X2575000Y444954D02*
D03*
Y419046D02*
D03*
X2165000Y711046D02*
D03*
Y736954D02*
D03*
X2190000Y711046D02*
D03*
Y736954D02*
D03*
X2215000Y711046D02*
D03*
Y736954D02*
D03*
X2240000Y711046D02*
D03*
Y736954D02*
D03*
X2265000Y711046D02*
D03*
Y736954D02*
D03*
X2290000Y711046D02*
D03*
Y736954D02*
D03*
X2315000Y711046D02*
D03*
Y736954D02*
D03*
X1915000Y758046D02*
D03*
Y783954D02*
D03*
X1940000Y758046D02*
D03*
Y783954D02*
D03*
X1890000Y758046D02*
D03*
Y783954D02*
D03*
X1840000Y758046D02*
D03*
Y783954D02*
D03*
X1865000Y758046D02*
D03*
Y783954D02*
D03*
X1965000Y758046D02*
D03*
Y783954D02*
D03*
X2340000Y711046D02*
D03*
Y736954D02*
D03*
X2575000Y399954D02*
D03*
Y374046D02*
D03*
X2600000Y399954D02*
D03*
Y374046D02*
D03*
X2525000Y444954D02*
D03*
Y419046D02*
D03*
X2115000Y711046D02*
D03*
Y736954D02*
D03*
X2090000Y711046D02*
D03*
Y736954D02*
D03*
X2065000Y711046D02*
D03*
Y736954D02*
D03*
X2140000Y711046D02*
D03*
Y736954D02*
D03*
X2040000Y711046D02*
D03*
Y736954D02*
D03*
X2015000Y711046D02*
D03*
Y736954D02*
D03*
X1990000Y711046D02*
D03*
Y736954D02*
D03*
X2415000Y758046D02*
D03*
Y783954D02*
D03*
X2390000Y758046D02*
D03*
Y783954D02*
D03*
X2550000Y444954D02*
D03*
Y419046D02*
D03*
X2415000Y336046D02*
D03*
Y361954D02*
D03*
X2390000Y336046D02*
D03*
Y361954D02*
D03*
X2365000Y336046D02*
D03*
Y361954D02*
D03*
X2340000Y336046D02*
D03*
Y361954D02*
D03*
X2415000Y383046D02*
D03*
Y408954D02*
D03*
X2390000Y383046D02*
D03*
Y408954D02*
D03*
X2365000Y383046D02*
D03*
Y408954D02*
D03*
X2340000Y383046D02*
D03*
Y408954D02*
D03*
X2315000Y336046D02*
D03*
Y361954D02*
D03*
X2290000Y336046D02*
D03*
Y361954D02*
D03*
X2265000Y336046D02*
D03*
Y361954D02*
D03*
X2240000Y336046D02*
D03*
Y361954D02*
D03*
X2215000Y336046D02*
D03*
Y361954D02*
D03*
X2190000Y336046D02*
D03*
Y361954D02*
D03*
X2165000Y336046D02*
D03*
Y361954D02*
D03*
X2140000Y336046D02*
D03*
Y361954D02*
D03*
X2115000Y336046D02*
D03*
Y361954D02*
D03*
X2090000Y336046D02*
D03*
Y361954D02*
D03*
X2315000Y383046D02*
D03*
Y408954D02*
D03*
X2290000Y383046D02*
D03*
Y408954D02*
D03*
X2265000Y383046D02*
D03*
Y408954D02*
D03*
X2240000Y383046D02*
D03*
Y408954D02*
D03*
X2215000Y383046D02*
D03*
Y408954D02*
D03*
X2190000Y383046D02*
D03*
Y408954D02*
D03*
X2165000Y383046D02*
D03*
Y408954D02*
D03*
X2140000Y383046D02*
D03*
Y408954D02*
D03*
X2115000Y383046D02*
D03*
Y408954D02*
D03*
X2090000Y383046D02*
D03*
Y408954D02*
D03*
X1890000Y336046D02*
D03*
Y361954D02*
D03*
X1940000Y383046D02*
D03*
Y408954D02*
D03*
X2040000Y383046D02*
D03*
Y408954D02*
D03*
X1990000Y336046D02*
D03*
Y361954D02*
D03*
X1965000Y336046D02*
D03*
Y361954D02*
D03*
X1890000Y383046D02*
D03*
Y408954D02*
D03*
X1990000Y383046D02*
D03*
Y408954D02*
D03*
X1915000Y336046D02*
D03*
Y361954D02*
D03*
X1965000Y383046D02*
D03*
Y408954D02*
D03*
X1865000Y336046D02*
D03*
Y361954D02*
D03*
X1840000Y336046D02*
D03*
Y361954D02*
D03*
X1940000Y336046D02*
D03*
Y361954D02*
D03*
X2040000Y336046D02*
D03*
Y361954D02*
D03*
X2065000Y383046D02*
D03*
Y408954D02*
D03*
X1915000Y383046D02*
D03*
Y408954D02*
D03*
X1865000Y383046D02*
D03*
Y408954D02*
D03*
X2065000Y336046D02*
D03*
Y361954D02*
D03*
X2015000Y383046D02*
D03*
Y408954D02*
D03*
Y336046D02*
D03*
Y361954D02*
D03*
X1840000Y383046D02*
D03*
Y408954D02*
D03*
D18*
X910000Y530000D02*
D03*
X950000D02*
D03*
X950000Y845000D02*
D03*
X910000D02*
D03*
X950000Y495000D02*
D03*
X910000D02*
D03*
Y810000D02*
D03*
X950000D02*
D03*
X910000Y460000D02*
D03*
X950000D02*
D03*
Y775000D02*
D03*
X910000D02*
D03*
X950000Y425000D02*
D03*
X910000D02*
D03*
X910000Y740000D02*
D03*
X950000D02*
D03*
X910000Y390000D02*
D03*
X950000D02*
D03*
Y705000D02*
D03*
X910000D02*
D03*
X950000Y355000D02*
D03*
X910000D02*
D03*
Y670000D02*
D03*
X950000D02*
D03*
X910000Y320000D02*
D03*
X950000D02*
D03*
Y635000D02*
D03*
X910000D02*
D03*
X950000Y285000D02*
D03*
X910000D02*
D03*
Y600000D02*
D03*
X950000D02*
D03*
X910000Y250000D02*
D03*
X950000D02*
D03*
Y565000D02*
D03*
X910000D02*
D03*
X670000Y935000D02*
D03*
X630000D02*
D03*
X670000Y905000D02*
D03*
X630000D02*
D03*
D19*
X564000Y935000D02*
D03*
X586000D02*
D03*
X564000Y905000D02*
D03*
X586000D02*
D03*
X1765000Y578000D02*
D03*
X1743000D02*
D03*
X1764000Y419000D02*
D03*
X1742000D02*
D03*
X1764000Y269000D02*
D03*
X1742000D02*
D03*
X1767000Y729000D02*
D03*
X1745000D02*
D03*
D20*
X605000Y940080D02*
D03*
Y929920D02*
D03*
X615000D02*
D03*
Y940080D02*
D03*
X2579000Y487080D02*
D03*
Y476920D02*
D03*
X2027000Y569918D02*
D03*
Y580078D02*
D03*
X2063000Y642080D02*
D03*
Y631920D02*
D03*
X2209000Y581920D02*
D03*
Y592080D02*
D03*
X2479000Y672920D02*
D03*
Y683080D02*
D03*
X2483000Y471080D02*
D03*
Y460920D02*
D03*
X2457000Y404080D02*
D03*
Y393920D02*
D03*
Y371920D02*
D03*
Y382080D02*
D03*
X2467000Y382080D02*
D03*
Y371920D02*
D03*
X2493000Y471080D02*
D03*
Y460920D02*
D03*
X2590000Y476920D02*
D03*
Y487080D02*
D03*
X2043000Y622080D02*
D03*
Y611920D02*
D03*
Y642080D02*
D03*
Y631920D02*
D03*
X2479000Y694920D02*
D03*
Y705080D02*
D03*
Y650920D02*
D03*
Y661080D02*
D03*
X2601000Y476920D02*
D03*
Y487080D02*
D03*
X2497000Y371920D02*
D03*
Y382080D02*
D03*
X2483000Y492080D02*
D03*
Y481920D02*
D03*
X2467000Y404080D02*
D03*
Y393920D02*
D03*
X470000Y910080D02*
D03*
Y899920D02*
D03*
Y929920D02*
D03*
Y940080D02*
D03*
X605000Y900000D02*
D03*
Y910160D02*
D03*
X485000Y395080D02*
D03*
Y384920D02*
D03*
Y590080D02*
D03*
Y579920D02*
D03*
Y514920D02*
D03*
Y525080D02*
D03*
Y709920D02*
D03*
Y720080D02*
D03*
X615000Y910080D02*
D03*
Y899920D02*
D03*
X2025000Y623078D02*
D03*
Y612918D02*
D03*
X2015000Y623078D02*
D03*
Y612918D02*
D03*
X2489000Y694920D02*
D03*
Y705080D02*
D03*
Y683080D02*
D03*
Y672920D02*
D03*
X2053000Y642080D02*
D03*
Y631920D02*
D03*
Y622080D02*
D03*
Y611920D02*
D03*
X2063000Y612080D02*
D03*
Y601920D02*
D03*
X1846000Y588920D02*
D03*
Y599080D02*
D03*
X1847000Y498080D02*
D03*
Y487920D02*
D03*
X2489000Y650920D02*
D03*
Y661080D02*
D03*
X2015000Y645078D02*
D03*
Y634918D02*
D03*
Y493078D02*
D03*
Y482918D02*
D03*
Y600078D02*
D03*
Y589918D02*
D03*
X2076000Y559918D02*
D03*
Y570078D02*
D03*
X2212000Y553918D02*
D03*
Y564078D02*
D03*
D21*
X629920Y955000D02*
D03*
X640080D02*
D03*
X1538920Y216000D02*
D03*
X1549080D02*
D03*
X1538920Y206000D02*
D03*
X1549080D02*
D03*
X1536920Y856000D02*
D03*
X1547080D02*
D03*
X1536920Y866000D02*
D03*
X1547080D02*
D03*
X1560920Y216000D02*
D03*
X1571080D02*
D03*
X1560920Y206000D02*
D03*
X1571080D02*
D03*
X1560920Y866000D02*
D03*
X1571080D02*
D03*
X1560920Y856000D02*
D03*
X1571080D02*
D03*
X2302080Y575000D02*
D03*
X2291920D02*
D03*
Y586000D02*
D03*
X2302080D02*
D03*
X2197080Y502998D02*
D03*
X2186920D02*
D03*
X2197080Y622000D02*
D03*
X2186920D02*
D03*
X2083080Y612000D02*
D03*
X2072920D02*
D03*
X2114920Y642000D02*
D03*
X2125080D02*
D03*
X2094920Y632000D02*
D03*
X2105080D02*
D03*
X2168080Y631998D02*
D03*
X2157920D02*
D03*
X2105080Y652000D02*
D03*
X2094920D02*
D03*
X1744920Y703000D02*
D03*
X1755080D02*
D03*
X2487080Y372000D02*
D03*
X2476920D02*
D03*
X2197080Y532998D02*
D03*
X2186920D02*
D03*
X2127920Y503000D02*
D03*
X2138080D02*
D03*
X2112080D02*
D03*
X2101920D02*
D03*
X2072920Y602000D02*
D03*
X2083080D02*
D03*
X2094920Y622000D02*
D03*
X2105080D02*
D03*
X2168080Y621998D02*
D03*
X2157920D02*
D03*
X2186920Y632000D02*
D03*
X2197080D02*
D03*
Y612000D02*
D03*
X2186920D02*
D03*
X2105080Y642000D02*
D03*
X2094920D02*
D03*
X1855080Y631998D02*
D03*
X1844920D02*
D03*
X2197080Y563998D02*
D03*
X2186920D02*
D03*
X2197080Y553998D02*
D03*
X2186920D02*
D03*
X2083080Y622000D02*
D03*
X2072920D02*
D03*
X2476920Y382000D02*
D03*
X2487080D02*
D03*
Y362000D02*
D03*
X2476920D02*
D03*
X2065920Y579998D02*
D03*
X2076080D02*
D03*
X2127920Y493000D02*
D03*
X2138080D02*
D03*
X2197080Y582000D02*
D03*
X2186920D02*
D03*
Y592000D02*
D03*
X2197080D02*
D03*
X1855080Y619998D02*
D03*
X1844920D02*
D03*
X1752080Y240000D02*
D03*
X1741920D02*
D03*
X1752080Y393000D02*
D03*
X1741920D02*
D03*
X1742920Y550000D02*
D03*
X1753080D02*
D03*
X1752080Y404000D02*
D03*
X1741920D02*
D03*
X1742920Y562000D02*
D03*
X1753080D02*
D03*
X1752080Y252000D02*
D03*
X1741920D02*
D03*
X1744920Y714000D02*
D03*
X1755080D02*
D03*
X629920Y885000D02*
D03*
X640080D02*
D03*
X1742920Y595000D02*
D03*
X1753080D02*
D03*
X2034080Y504998D02*
D03*
X2023920D02*
D03*
X2034080Y492998D02*
D03*
X2023920D02*
D03*
X2083080Y642000D02*
D03*
X2072920D02*
D03*
X2125080Y622000D02*
D03*
X2114920D02*
D03*
X2125080Y632000D02*
D03*
X2114920D02*
D03*
X1855080Y517998D02*
D03*
X1844920D02*
D03*
X1855080Y568998D02*
D03*
X1844920D02*
D03*
X2072920Y632000D02*
D03*
X2083080D02*
D03*
X2478920Y716000D02*
D03*
X2489080D02*
D03*
X1994920Y657000D02*
D03*
X2005080D02*
D03*
X1752080Y435000D02*
D03*
X1741920D02*
D03*
X1744920Y745000D02*
D03*
X1755080D02*
D03*
X1752080Y285000D02*
D03*
X1741920D02*
D03*
X2005080Y622998D02*
D03*
X1994920D02*
D03*
X2005080Y504998D02*
D03*
X1994920D02*
D03*
X2005080Y634998D02*
D03*
X1994920D02*
D03*
X2005080Y645998D02*
D03*
X1994920D02*
D03*
X1994920Y530998D02*
D03*
X2005080D02*
D03*
X1994840Y611998D02*
D03*
X2005000D02*
D03*
X1994920Y492998D02*
D03*
X2005080D02*
D03*
X1994920Y479998D02*
D03*
X2005080D02*
D03*
X1994920Y600998D02*
D03*
X2005080D02*
D03*
X1994920Y517998D02*
D03*
X2005080D02*
D03*
X2157920Y503000D02*
D03*
X2168080D02*
D03*
X2005080Y469998D02*
D03*
X1994920D02*
D03*
X2157920Y493000D02*
D03*
X2168080D02*
D03*
X2197080Y512998D02*
D03*
X2186920D02*
D03*
X2186920Y602000D02*
D03*
X2197080D02*
D03*
X2197080Y522998D02*
D03*
X2186920D02*
D03*
X2066080Y559998D02*
D03*
X2055920D02*
D03*
X2066080Y569998D02*
D03*
X2055920D02*
D03*
X2186920Y543998D02*
D03*
X2197080D02*
D03*
X2072080Y541998D02*
D03*
X2061920D02*
D03*
D22*
X2297000Y541500D02*
D03*
X2287500Y564500D02*
D03*
X2306500D02*
D03*
X2296800Y619200D02*
D03*
X2306300Y596200D02*
D03*
X2287300D02*
D03*
D23*
X1290000Y535000D02*
D03*
X1190000D02*
D03*
X1290000Y725000D02*
D03*
X1190000D02*
D03*
X2493000Y566000D02*
D03*
X2593000D02*
D03*
X1030000Y725000D02*
D03*
X1130000D02*
D03*
X1190000Y350000D02*
D03*
X1290000D02*
D03*
X1030000D02*
D03*
X1130000D02*
D03*
X1030000Y535000D02*
D03*
X1130000D02*
D03*
X1350000Y725000D02*
D03*
X1450000D02*
D03*
X1350000Y535000D02*
D03*
X1450000D02*
D03*
X1350000Y346998D02*
D03*
X1450000D02*
D03*
D24*
X2165000Y841000D02*
D03*
Y869000D02*
D03*
X2215000Y841000D02*
D03*
Y869000D02*
D03*
X2265000Y841000D02*
D03*
Y869000D02*
D03*
X2040000Y841000D02*
D03*
Y869000D02*
D03*
X1990000Y841000D02*
D03*
Y869000D02*
D03*
X1940000Y841000D02*
D03*
Y869000D02*
D03*
X1890000Y841000D02*
D03*
Y869000D02*
D03*
X1840000Y841000D02*
D03*
Y869000D02*
D03*
X2065000Y841000D02*
D03*
Y869000D02*
D03*
X2115000Y841000D02*
D03*
Y869000D02*
D03*
X2340000Y841000D02*
D03*
Y869000D02*
D03*
X2390000Y841000D02*
D03*
Y869000D02*
D03*
X2140000Y841000D02*
D03*
Y869000D02*
D03*
X2190000Y841000D02*
D03*
Y869000D02*
D03*
X2240000Y841000D02*
D03*
Y869000D02*
D03*
X2290000Y841000D02*
D03*
Y869000D02*
D03*
X2015000Y841000D02*
D03*
Y869000D02*
D03*
X1965000Y841000D02*
D03*
Y869000D02*
D03*
X1915000Y841000D02*
D03*
Y869000D02*
D03*
X1865000Y841000D02*
D03*
Y869000D02*
D03*
X1815000Y841000D02*
D03*
Y869000D02*
D03*
X2090000Y841000D02*
D03*
Y869000D02*
D03*
X2315000Y841000D02*
D03*
Y869000D02*
D03*
X2365000Y841000D02*
D03*
Y869000D02*
D03*
X2415000Y841000D02*
D03*
Y869000D02*
D03*
X2415000Y251000D02*
D03*
Y279000D02*
D03*
X2390000Y251000D02*
D03*
Y279000D02*
D03*
X2365000Y251000D02*
D03*
Y279000D02*
D03*
X2340000Y251000D02*
D03*
Y279000D02*
D03*
X2315000Y251000D02*
D03*
Y279000D02*
D03*
X2290000Y251000D02*
D03*
Y279000D02*
D03*
X2265000Y251000D02*
D03*
Y279000D02*
D03*
X2240000Y251000D02*
D03*
Y279000D02*
D03*
X2215000Y251000D02*
D03*
Y279000D02*
D03*
X2190000Y251000D02*
D03*
Y279000D02*
D03*
X2165000Y251000D02*
D03*
Y279000D02*
D03*
X2140000Y251000D02*
D03*
Y279000D02*
D03*
X2115000Y251000D02*
D03*
Y279000D02*
D03*
X2090000Y251000D02*
D03*
Y279000D02*
D03*
X2065000Y251000D02*
D03*
Y279000D02*
D03*
X1815000Y251000D02*
D03*
Y279000D02*
D03*
X1840000Y251000D02*
D03*
Y279000D02*
D03*
X1865000Y251000D02*
D03*
Y279000D02*
D03*
X1890000Y251000D02*
D03*
Y279000D02*
D03*
X1915000Y251000D02*
D03*
Y279000D02*
D03*
X1940000Y251000D02*
D03*
Y279000D02*
D03*
X1965000Y251000D02*
D03*
Y279000D02*
D03*
X1990000Y251000D02*
D03*
Y279000D02*
D03*
X2015000Y251000D02*
D03*
Y279000D02*
D03*
X2040000Y251000D02*
D03*
Y279000D02*
D03*
D25*
X546500Y910500D02*
D03*
Y929500D02*
D03*
X523500Y920000D02*
D03*
X506500Y890500D02*
D03*
Y909500D02*
D03*
X483500Y900000D02*
D03*
X506500Y930500D02*
D03*
Y949500D02*
D03*
X483500Y940000D02*
D03*
D26*
X1755000Y654000D02*
D03*
X1756000Y616000D02*
D03*
Y306000D02*
D03*
X1755000Y344000D02*
D03*
X1756000Y766000D02*
D03*
X1755000Y804000D02*
D03*
X1756000Y456000D02*
D03*
X1755000Y494000D02*
D03*
D27*
X2499750Y401500D02*
D03*
X2493250D02*
D03*
X2486750D02*
D03*
X2480250D02*
D03*
Y444500D02*
D03*
X2486750D02*
D03*
X2493250D02*
D03*
X2499750D02*
D03*
D28*
X2515000Y478000D02*
D03*
X2553000Y479000D02*
D03*
X674000Y600000D02*
D03*
X636000Y599000D02*
D03*
X819000Y851000D02*
D03*
X781000Y850000D02*
D03*
X636000Y849000D02*
D03*
X674000Y850000D02*
D03*
X781000Y229000D02*
D03*
X819000Y230000D02*
D03*
X674000Y231000D02*
D03*
X636000Y230000D02*
D03*
X781000Y479000D02*
D03*
X819000Y480000D02*
D03*
X781000Y429000D02*
D03*
X819000Y430000D02*
D03*
X781000Y379000D02*
D03*
X819000Y380000D02*
D03*
X781000Y329000D02*
D03*
X819000Y330000D02*
D03*
X781000Y279000D02*
D03*
X819000Y280000D02*
D03*
X674000Y481000D02*
D03*
X636000Y480000D02*
D03*
X673000Y431000D02*
D03*
X635000Y430000D02*
D03*
X674000Y381000D02*
D03*
X636000Y380000D02*
D03*
X674000Y331000D02*
D03*
X636000Y330000D02*
D03*
X674000Y281000D02*
D03*
X636000Y280000D02*
D03*
X819000Y601000D02*
D03*
X781000Y600000D02*
D03*
X819000Y651000D02*
D03*
X781000Y650000D02*
D03*
X819000Y701000D02*
D03*
X781000Y700000D02*
D03*
X819000Y751000D02*
D03*
X781000Y750000D02*
D03*
X819000Y801000D02*
D03*
X781000Y800000D02*
D03*
X636000Y799000D02*
D03*
X674000Y800000D02*
D03*
X636000Y749000D02*
D03*
X674000Y750000D02*
D03*
X636000Y699000D02*
D03*
X674000Y700000D02*
D03*
X636000Y649000D02*
D03*
X674000Y650000D02*
D03*
X1480000Y211000D02*
D03*
X1442000Y210000D02*
D03*
X1480000Y861000D02*
D03*
X1442000Y860000D02*
D03*
D29*
X2164374Y521278D02*
D03*
Y527778D02*
D03*
Y534278D02*
D03*
Y540778D02*
D03*
Y547278D02*
D03*
Y553778D02*
D03*
Y560278D02*
D03*
Y566778D02*
D03*
Y573278D02*
D03*
Y579778D02*
D03*
Y586278D02*
D03*
Y592778D02*
D03*
Y599278D02*
D03*
Y605778D02*
D03*
X2108374Y521278D02*
D03*
Y527778D02*
D03*
Y534278D02*
D03*
Y540778D02*
D03*
Y547278D02*
D03*
Y553778D02*
D03*
Y560278D02*
D03*
Y566778D02*
D03*
Y573278D02*
D03*
Y579778D02*
D03*
Y586278D02*
D03*
Y592778D02*
D03*
Y599278D02*
D03*
Y605778D02*
D03*
D30*
X2575500Y680000D02*
D03*
D31*
X2508000Y704000D02*
D03*
D32*
X2509000Y658000D02*
D03*
D33*
X1610790Y620000D02*
D03*
X1610790Y460000D02*
D03*
X1610790Y310000D02*
D03*
Y770000D02*
D03*
D34*
X1702230Y594600D02*
D03*
Y645400D02*
D03*
X1702230Y434600D02*
D03*
Y485400D02*
D03*
X1702230Y284600D02*
D03*
Y335400D02*
D03*
Y744600D02*
D03*
Y795400D02*
D03*
D35*
X1970782Y479896D02*
D03*
Y492596D02*
D03*
Y505296D02*
D03*
Y517996D02*
D03*
Y530696D02*
D03*
Y543396D02*
D03*
Y556096D02*
D03*
Y568796D02*
D03*
Y581496D02*
D03*
Y594196D02*
D03*
Y606896D02*
D03*
Y619596D02*
D03*
Y632296D02*
D03*
Y644996D02*
D03*
X1878782Y479896D02*
D03*
Y492596D02*
D03*
Y505296D02*
D03*
Y581496D02*
D03*
Y594196D02*
D03*
Y606896D02*
D03*
Y619596D02*
D03*
Y632296D02*
D03*
D36*
Y517996D02*
D03*
Y530696D02*
D03*
Y543396D02*
D03*
Y556096D02*
D03*
Y568796D02*
D03*
Y644996D02*
D03*
D64*
X1815000Y510000D02*
X1830000Y495000D01*
Y480000D02*
Y495000D01*
X1790000Y685000D02*
X1815000Y660000D01*
Y510000D02*
Y660000D01*
X1780000Y681000D02*
X1805000Y656000D01*
Y505000D02*
Y656000D01*
Y505000D02*
X1818000Y492000D01*
X950000Y810000D02*
Y845000D01*
Y740000D02*
Y775000D01*
Y670000D02*
Y705000D01*
Y600000D02*
Y635000D01*
Y530000D02*
Y565000D01*
Y460000D02*
Y495000D01*
Y390000D02*
Y425000D01*
Y320000D02*
Y355000D01*
X910000Y225000D02*
Y250000D01*
X910000Y845000D02*
Y900000D01*
X950000Y810000D02*
Y845000D01*
Y805000D02*
Y810000D01*
X950000Y805000D02*
X950000Y805000D01*
X910000Y810000D02*
X910000Y810000D01*
X910000Y775000D02*
Y810000D01*
X950000Y775000D02*
X950000Y775000D01*
Y740000D02*
Y775000D01*
X910000Y740000D02*
X910000Y740000D01*
X910000Y705000D02*
Y740000D01*
X950000Y670000D02*
Y700000D01*
X910000Y670000D02*
X910000Y670000D01*
X910000Y635000D02*
Y670000D01*
X950000Y600000D02*
Y635000D01*
X910000Y600000D02*
Y605000D01*
Y565000D02*
Y600000D01*
Y605000D02*
X910000Y605000D01*
X950000Y530000D02*
Y565000D01*
X910000Y525000D02*
X910000Y525000D01*
X910000Y495000D02*
Y525000D01*
X950000Y460000D02*
Y495000D01*
X910000Y425000D02*
Y460000D01*
X910000Y425000D02*
X910000Y425000D01*
X950000Y390000D02*
Y420000D01*
X910000Y385000D02*
X910000Y385000D01*
X910000Y355000D02*
Y385000D01*
X950000Y320000D02*
Y355000D01*
X910000Y315000D02*
X910000Y315000D01*
X910000Y285000D02*
Y315000D01*
X950000Y250000D02*
Y285000D01*
X2414954Y361954D02*
X2417000Y364000D01*
X2390000Y361954D02*
X2414954D01*
X2365000D02*
X2390000D01*
X2340000D02*
X2365000D01*
X2315000D02*
X2340000D01*
X2290000D02*
X2315000D01*
X2265000D02*
X2290000D01*
X2240000D02*
X2265000D01*
X2215000D02*
X2240000D01*
X2190000D02*
X2215000D01*
X2165000D02*
X2190000D01*
X2140000D02*
X2165000D01*
X2115000D02*
X2140000D01*
X2090000D02*
X2115000D01*
X2065000D02*
X2090000D01*
X2040000D02*
X2065000D01*
X2015000D02*
X2040000D01*
X1990000D02*
X2015000D01*
X1965000D02*
X1990000D01*
X1940000D02*
X1965000D01*
X1915000D02*
X1940000D01*
X1890000D02*
X1915000D01*
X1865000D02*
X1890000D01*
X1840000D02*
X1865000D01*
X1840000Y737000D02*
X1840046Y736954D01*
X2390000D02*
X2415000D01*
X2365000D02*
X2390000D01*
X2340000D02*
X2365000D01*
X2315000D02*
X2340000D01*
X2290000D02*
X2315000D01*
X2265000D02*
X2290000D01*
X2240000D02*
X2265000D01*
X2215000D02*
X2240000D01*
X2190000D02*
X2215000D01*
X2165000D02*
X2190000D01*
X2140000D02*
X2165000D01*
X2115000D02*
X2140000D01*
X2090000D02*
X2115000D01*
X2065000D02*
X2090000D01*
X2040000D02*
X2065000D01*
X2015000D02*
X2040000D01*
X1990000D02*
X2015000D01*
X1965000D02*
X1990000D01*
X1940000D02*
X1965000D01*
X1915000D02*
X1940000D01*
X1890000D02*
X1915000D01*
X1865000D02*
X1890000D01*
X1840046D02*
X1865000D01*
X1841000Y758000D02*
X2416000D01*
X1842000Y383000D02*
X2419000D01*
X2336200Y614600D02*
X2477600D01*
X1858000Y594196D02*
X1878782D01*
X1793000Y520000D02*
Y594000D01*
X1782000Y509000D02*
X1793000Y520000D01*
X1782000Y367000D02*
Y509000D01*
X1858000Y556000D02*
X1878782D01*
X1785000Y523000D02*
Y556000D01*
X1774000Y512000D02*
X1785000Y523000D01*
X1774000Y419000D02*
Y512000D01*
X1777000Y526000D02*
Y607000D01*
X1770000Y519000D02*
X1777000Y526000D01*
X1740830Y519000D02*
X1770000D01*
X1764000Y419000D02*
X1774000D01*
X1762000D02*
X1764000D01*
X1858000Y531000D02*
X1878782D01*
X1769000Y531000D02*
Y577000D01*
X1755000Y765000D02*
X1775000D01*
X1752000D02*
X1757000Y770000D01*
X1790000Y685000D02*
Y750000D01*
X1780000Y681000D02*
Y726600D01*
X1767000Y729000D02*
X1777600D01*
X1766000D02*
X1767000D01*
X1777600D02*
X1780000Y726600D01*
X1702230Y485400D02*
X1735830Y519000D01*
X1775000Y765000D02*
X1790000Y750000D01*
X1755000Y745000D02*
X1755080D01*
X1868102Y479896D02*
X1878782D01*
X1708000Y487998D02*
X1709000Y488998D01*
D65*
X1640000Y615000D02*
Y620000D01*
X1640000Y455000D02*
Y460000D01*
X1650000Y305000D02*
Y315000D01*
X1605000Y765000D02*
Y770000D01*
Y765000D02*
X1747000D01*
X1030000Y725000D02*
Y765000D01*
Y535000D02*
Y725000D01*
X1640000Y615000D02*
X1745000D01*
X1640000Y455000D02*
X1745000D01*
X1650000Y305000D02*
X1745000D01*
X1450000Y381998D02*
Y535000D01*
X1290000Y385000D02*
Y535000D01*
X1350000Y381998D02*
Y535000D01*
X1190000D02*
Y685000D01*
Y385000D02*
Y535000D01*
X1300000Y285000D02*
X1450000D01*
X1140000D02*
X1290000D01*
X1130000Y535000D02*
Y685000D01*
Y385000D02*
Y535000D01*
Y285000D02*
Y355000D01*
X1030000Y385000D02*
Y535000D01*
X1190000Y345000D02*
Y355000D01*
X1290000Y285000D02*
Y355000D01*
X1450000Y285000D02*
Y351998D01*
X1620000Y311998D02*
X1630000Y301998D01*
D66*
X1847000Y480000D02*
Y488920D01*
X1858000Y607000D02*
X1877000D01*
X1846000D02*
X1858000D01*
Y480000D02*
X1867000D01*
X1847000D02*
X1858000D01*
X1847000Y506000D02*
X1870000D01*
X1847000Y500080D02*
Y506000D01*
X1846000Y600080D02*
Y607000D01*
Y581496D02*
Y589000D01*
Y581496D02*
X1874782D01*
D67*
X1859000Y492596D02*
X1878782D01*
D68*
X1709000Y647998D02*
Y700000D01*
Y647998D02*
X1710000D01*
D69*
X2466500Y203500D02*
D03*
D70*
X2421000D02*
D03*
D71*
X980000Y827500D02*
D03*
Y757500D02*
D03*
Y687500D02*
D03*
Y617500D02*
D03*
Y547500D02*
D03*
Y477500D02*
D03*
Y407500D02*
D03*
Y337500D02*
D03*
Y267500D02*
D03*
D72*
X957500Y810000D02*
D03*
Y845000D02*
D03*
Y740000D02*
D03*
Y775000D02*
D03*
Y670000D02*
D03*
Y705000D02*
D03*
Y600000D02*
D03*
Y635000D02*
D03*
Y530000D02*
D03*
Y565000D02*
D03*
Y460000D02*
D03*
Y495000D02*
D03*
Y390000D02*
D03*
Y425000D02*
D03*
Y320000D02*
D03*
Y355000D02*
D03*
Y285000D02*
D03*
Y250000D02*
D03*
D73*
X1420500Y860000D02*
D03*
Y210000D02*
D03*
D74*
X1509500Y861000D02*
D03*
D75*
X1509500Y211000D02*
D03*
D76*
X1587500Y861000D02*
D03*
D77*
X1587000Y211000D02*
D03*
D78*
X2506500Y684500D02*
D03*
D79*
X2287500Y658000D02*
D03*
D80*
X2457500Y639500D02*
D03*
D81*
X2523400Y800000D02*
D03*
D82*
X2575000Y715000D02*
D03*
D83*
X2504500Y478000D02*
D03*
D84*
X2615000Y375000D02*
D03*
D85*
X2630000Y650000D02*
D03*
D86*
X1435000Y397500D02*
D03*
D87*
X2478500Y922500D02*
D03*
D88*
X1720000Y661000D02*
D03*
D89*
X1562250Y315500D02*
D03*
D90*
X2550000Y465000D02*
D03*
X2525000Y408000D02*
D03*
X2550000Y413000D02*
D03*
Y449000D02*
D03*
X2575000Y413000D02*
D03*
X2600000Y411000D02*
D03*
Y449000D02*
D03*
X2575000D02*
D03*
X2415000Y244000D02*
D03*
Y291000D02*
D03*
X2415000Y826000D02*
D03*
Y881000D02*
D03*
X2390000Y880000D02*
D03*
X2365000D02*
D03*
X2340000D02*
D03*
X2315000D02*
D03*
X2390000Y826000D02*
D03*
X2365000D02*
D03*
X2340000D02*
D03*
X2315000D02*
D03*
X2390000Y241000D02*
D03*
X2365000D02*
D03*
X2340000D02*
D03*
X2315000D02*
D03*
X2390000Y291000D02*
D03*
X2365000D02*
D03*
X2340000D02*
D03*
X2315000D02*
D03*
X2415000Y326000D02*
D03*
X2390000D02*
D03*
X2365000D02*
D03*
X2340000D02*
D03*
X2415000Y370000D02*
D03*
X2390000D02*
D03*
X2365000D02*
D03*
X2340000D02*
D03*
X2415000Y416000D02*
D03*
X2390000D02*
D03*
X2365000D02*
D03*
X2340000D02*
D03*
X2415000Y704000D02*
D03*
X2390000D02*
D03*
X2365000D02*
D03*
X2340000D02*
D03*
X2165000D02*
D03*
X2140000D02*
D03*
X2115000D02*
D03*
X2315000D02*
D03*
X2290000D02*
D03*
X2265000D02*
D03*
X2240000D02*
D03*
X2215000D02*
D03*
X2190000D02*
D03*
X1965000D02*
D03*
X1990000D02*
D03*
X2015000D02*
D03*
X2040000D02*
D03*
X2065000D02*
D03*
X2090000D02*
D03*
X1890000D02*
D03*
X1915000D02*
D03*
X1940000D02*
D03*
X1865000D02*
D03*
X1840000D02*
D03*
X2290000Y746000D02*
D03*
X2315000D02*
D03*
X2340000D02*
D03*
X2365000D02*
D03*
X2390000D02*
D03*
X2415000D02*
D03*
X1990000D02*
D03*
X2015000D02*
D03*
X2040000D02*
D03*
X1840000D02*
D03*
X1865000D02*
D03*
X1890000D02*
D03*
X1915000D02*
D03*
X1940000D02*
D03*
X1965000D02*
D03*
X2190000D02*
D03*
X2165000D02*
D03*
X2140000D02*
D03*
X2115000D02*
D03*
X2090000D02*
D03*
X2065000D02*
D03*
X2265000Y746000D02*
D03*
X2240000D02*
D03*
X2215000D02*
D03*
X2290000Y791000D02*
D03*
X2315000D02*
D03*
X2340000D02*
D03*
X2365000D02*
D03*
X2390000D02*
D03*
X2415000D02*
D03*
X1990000D02*
D03*
X2015000D02*
D03*
X2040000D02*
D03*
X1840000D02*
D03*
X1865000D02*
D03*
X1890000D02*
D03*
X1915000D02*
D03*
X1940000D02*
D03*
X1965000D02*
D03*
X2190000D02*
D03*
X2165000D02*
D03*
X2140000D02*
D03*
X2115000D02*
D03*
X2090000D02*
D03*
X2065000D02*
D03*
X2265000Y791000D02*
D03*
X2240000D02*
D03*
X2215000D02*
D03*
X2315000Y416000D02*
D03*
X2290000D02*
D03*
X2315000Y371000D02*
D03*
X2290000D02*
D03*
X2265000D02*
D03*
X2240000D02*
D03*
X2215000D02*
D03*
X2190000D02*
D03*
X2165000D02*
D03*
X2140000D02*
D03*
X2115000D02*
D03*
X2090000D02*
D03*
X2215000Y416000D02*
D03*
X2240000D02*
D03*
X2265000D02*
D03*
X2065000Y416000D02*
D03*
X2090000D02*
D03*
X2115000D02*
D03*
X2140000D02*
D03*
X2165000D02*
D03*
X2190000D02*
D03*
X1965000D02*
D03*
X1940000D02*
D03*
X1915000D02*
D03*
X1890000D02*
D03*
X1865000D02*
D03*
X1840000D02*
D03*
X2040000D02*
D03*
X2015000D02*
D03*
X1990000D02*
D03*
X2065000Y371000D02*
D03*
X2040000D02*
D03*
X1840000D02*
D03*
X1865000D02*
D03*
X1890000D02*
D03*
X1915000D02*
D03*
X1940000D02*
D03*
X1965000D02*
D03*
X1990000D02*
D03*
X2015000D02*
D03*
X2240000Y326000D02*
D03*
X2265000D02*
D03*
X2290000D02*
D03*
X2315000D02*
D03*
X2040000D02*
D03*
X2065000D02*
D03*
X2090000D02*
D03*
X2115000D02*
D03*
X2140000D02*
D03*
X2165000D02*
D03*
X2190000D02*
D03*
X2215000D02*
D03*
X1840000D02*
D03*
X1865000D02*
D03*
X1890000D02*
D03*
X1915000D02*
D03*
X1940000D02*
D03*
X1965000D02*
D03*
X1990000D02*
D03*
X2015000D02*
D03*
X2065000Y880000D02*
D03*
X2090000D02*
D03*
X2115000D02*
D03*
X2140000D02*
D03*
X2165000D02*
D03*
X2190000D02*
D03*
X2215000D02*
D03*
X2240000D02*
D03*
X2265000D02*
D03*
X2290000D02*
D03*
X2065000Y825000D02*
D03*
X2090000D02*
D03*
X2115000D02*
D03*
X2140000D02*
D03*
X2165000D02*
D03*
X2190000D02*
D03*
X2215000D02*
D03*
X2240000D02*
D03*
X2265000D02*
D03*
X2290000D02*
D03*
X2290000Y291000D02*
D03*
X2265000D02*
D03*
X2240000D02*
D03*
X2215000D02*
D03*
X2190000D02*
D03*
X2165000D02*
D03*
X2140000D02*
D03*
X2115000D02*
D03*
X2090000D02*
D03*
X2065000Y286000D02*
D03*
X2290000Y241000D02*
D03*
X2265000D02*
D03*
X2240000D02*
D03*
X2215000D02*
D03*
X2190000D02*
D03*
X2165000D02*
D03*
X2140000D02*
D03*
X2115000D02*
D03*
X2090000D02*
D03*
X2065000D02*
D03*
X2040000Y240000D02*
D03*
X2015000D02*
D03*
X1990000D02*
D03*
X1965000D02*
D03*
X1940000D02*
D03*
X1915000D02*
D03*
X1890000D02*
D03*
X1865000D02*
D03*
X1840000D02*
D03*
X1815000D02*
D03*
X2040000Y825000D02*
D03*
X2015000D02*
D03*
X1990000D02*
D03*
X1965000D02*
D03*
X1940000D02*
D03*
X1915000D02*
D03*
X1890000D02*
D03*
X1865000D02*
D03*
X1840000D02*
D03*
X1815000D02*
D03*
Y880000D02*
D03*
X1840000D02*
D03*
X1865000D02*
D03*
X1890000D02*
D03*
X1915000D02*
D03*
X1940000D02*
D03*
X1965000D02*
D03*
X1990000D02*
D03*
X2015000D02*
D03*
X2040000D02*
D03*
X1815000Y290000D02*
D03*
X1840000D02*
D03*
X1865000D02*
D03*
X1890000D02*
D03*
X1915000D02*
D03*
X1940000D02*
D03*
X1965000D02*
D03*
X1990000D02*
D03*
X2015000D02*
D03*
X2040000D02*
D03*
D91*
X2486500Y429000D02*
D03*
D92*
X2589500Y562500D02*
D03*
D93*
X2527500Y614000D02*
D03*
D94*
X2464000Y461500D02*
D03*
D95*
X2500000Y466500D02*
D03*
D96*
X2510000Y532000D02*
D03*
D97*
X2509500Y436500D02*
D03*
D98*
X2519000Y445000D02*
D03*
D99*
X2560000Y445000D02*
D03*
D100*
X2554500Y374000D02*
D03*
D101*
X2509000Y387000D02*
D03*
D102*
X2505000Y400500D02*
D03*
D103*
X2492500Y565000D02*
D03*
D104*
X2138000Y589500D02*
D03*
D105*
X2220000Y661000D02*
D03*
D106*
X1903000Y583000D02*
D03*
D107*
X2182000Y673000D02*
D03*
D108*
X2508000Y640500D02*
D03*
D109*
X2588000Y582500D02*
D03*
D110*
X2469500Y445500D02*
D03*
D111*
X2575000Y461000D02*
D03*
D112*
X505000Y635000D02*
D03*
D113*
X405000Y640000D02*
D03*
D114*
X400000Y445000D02*
D03*
D115*
X830000Y850000D02*
D03*
X770000D02*
D03*
X690000D02*
D03*
X620000D02*
D03*
X625000Y230000D02*
D03*
X835000D02*
D03*
X690000D02*
D03*
X770000D02*
D03*
Y280000D02*
D03*
Y330000D02*
D03*
Y380000D02*
D03*
Y430000D02*
D03*
Y480000D02*
D03*
X620000Y330000D02*
D03*
Y280000D02*
D03*
X690000D02*
D03*
Y330000D02*
D03*
Y380000D02*
D03*
Y480000D02*
D03*
Y430000D02*
D03*
X620000Y380000D02*
D03*
Y430000D02*
D03*
Y480000D02*
D03*
Y800000D02*
D03*
Y750000D02*
D03*
Y700000D02*
D03*
Y650000D02*
D03*
Y600000D02*
D03*
X690000D02*
D03*
Y650000D02*
D03*
Y700000D02*
D03*
Y750000D02*
D03*
Y800000D02*
D03*
X765000D02*
D03*
X835000D02*
D03*
Y700000D02*
D03*
Y750000D02*
D03*
X765000D02*
D03*
Y700000D02*
D03*
Y650000D02*
D03*
Y600000D02*
D03*
X835000Y650000D02*
D03*
Y600000D02*
D03*
Y480000D02*
D03*
Y430000D02*
D03*
Y380000D02*
D03*
Y330000D02*
D03*
Y280000D02*
D03*
D116*
X1732500Y812500D02*
D03*
D117*
X790000Y540000D02*
D03*
D118*
X727500Y352500D02*
D03*
D119*
X575000Y542500D02*
D03*
D120*
X865000Y537500D02*
D03*
D121*
X727500Y775000D02*
D03*
D122*
X1718500Y500500D02*
D03*
D123*
X1790000Y325000D02*
D03*
D124*
X2125000Y691000D02*
D03*
D125*
X2125000Y430000D02*
D03*
D126*
X2097500Y308000D02*
D03*
D127*
X1737500Y342500D02*
D03*
D128*
X1513250Y759000D02*
D03*
D129*
X1601250Y694750D02*
D03*
D130*
X2100000Y203500D02*
D03*
D131*
X2097500Y811000D02*
D03*
D132*
X1635000Y922500D02*
D03*
D133*
X1120000Y491000D02*
D03*
D134*
X1037500Y535750D02*
D03*
D135*
X1197500Y550000D02*
D03*
D136*
X1357500Y555000D02*
D03*
D137*
X1285000Y526000D02*
D03*
D138*
X1702500Y522500D02*
D03*
D139*
X1570000Y540000D02*
D03*
D140*
X1440000Y523500D02*
D03*
D141*
X1525000Y620000D02*
D03*
D142*
X1525000Y460000D02*
D03*
D143*
X1380000Y270000D02*
D03*
D144*
X1336000Y806500D02*
D03*
D145*
X2544000Y320000D02*
D03*
Y185000D02*
D03*
D146*
X2484000Y288500D02*
D03*
Y216500D02*
D03*
D147*
X2335200Y514000D02*
D03*
Y539400D02*
D03*
Y564800D02*
D03*
Y590200D02*
D03*
Y615600D02*
D03*
X2259000D02*
D03*
Y590200D02*
D03*
Y564800D02*
D03*
Y539400D02*
D03*
Y514000D02*
D03*
D148*
X459148Y592067D02*
D03*
Y569167D02*
D03*
Y683467D02*
D03*
Y706367D02*
D03*
X410848Y673367D02*
D03*
X393048Y663167D02*
D03*
X410848Y652967D02*
D03*
X393048Y642767D02*
D03*
X410848Y632567D02*
D03*
X393048Y622367D02*
D03*
X410848Y612167D02*
D03*
X459148Y397067D02*
D03*
Y374168D02*
D03*
Y488467D02*
D03*
Y511367D02*
D03*
X410848Y478368D02*
D03*
X393048Y468167D02*
D03*
X410848Y457967D02*
D03*
X393048Y447767D02*
D03*
X410848Y437567D02*
D03*
X393048Y427368D02*
D03*
X410848Y417168D02*
D03*
D149*
X401948Y556467D02*
D03*
Y719067D02*
D03*
Y361468D02*
D03*
Y524067D02*
D03*
D150*
X367648Y574267D02*
D03*
Y701267D02*
D03*
Y379268D02*
D03*
Y506268D02*
D03*
D151*
X393048Y601967D02*
D03*
Y406968D02*
D03*
D152*
X1830000Y480000D02*
D03*
X359000Y745000D02*
D03*
X420000Y752000D02*
D03*
X655000Y885000D02*
D03*
Y955000D02*
D03*
X555000Y929000D02*
D03*
X595000Y860000D02*
D03*
Y925000D02*
D03*
Y915000D02*
D03*
X2479000Y723000D02*
D03*
X2479000Y636000D02*
D03*
X2489000D02*
D03*
X2614000Y415000D02*
D03*
X1925000Y662000D02*
D03*
X2513000Y683000D02*
D03*
X2505000D02*
D03*
X2497000D02*
D03*
X1782000Y367000D02*
D03*
X1793000Y594000D02*
D03*
X1777000Y607000D02*
D03*
X1785000Y556000D02*
D03*
X2036000Y571000D02*
D03*
X2093000Y503000D02*
D03*
X2085000Y514000D02*
D03*
X2034000Y627000D02*
D03*
X2113000Y652000D02*
D03*
X2150000Y614000D02*
D03*
X2204000Y612000D02*
D03*
X2125000Y650000D02*
D03*
X2064000Y622000D02*
D03*
X2125000Y614000D02*
D03*
X2043000Y651000D02*
D03*
X1764000Y252000D02*
D03*
X1818000Y492000D02*
D03*
X1987000Y651000D02*
D03*
X1949000Y462000D02*
D03*
Y469000D02*
D03*
X2457000Y362000D02*
D03*
X2510000Y415000D02*
D03*
X2497000Y362000D02*
D03*
X445000Y745000D02*
D03*
X2035000Y660998D02*
D03*
X2029000D02*
D03*
X2023000D02*
D03*
X1862000Y620000D02*
D03*
X1845000Y543000D02*
D03*
X2102000Y890998D02*
D03*
Y819998D02*
D03*
X1824000Y784000D02*
D03*
X1816000D02*
D03*
X1918000Y462000D02*
D03*
X1913000Y469000D02*
D03*
X2102000Y231000D02*
D03*
Y297000D02*
D03*
X1816000Y332000D02*
D03*
X1823000D02*
D03*
X1769000Y531000D02*
D03*
X2177000Y599000D02*
D03*
X1858000Y607000D02*
D03*
X1858000Y492000D02*
D03*
X1858000Y480000D02*
D03*
X1858000Y556000D02*
D03*
Y594000D02*
D03*
X1858000Y531000D02*
D03*
X1837000Y619998D02*
D03*
X2152000Y586000D02*
D03*
X2150000Y493000D02*
D03*
X2177000Y540998D02*
D03*
X2085000Y579998D02*
D03*
X2025000Y604998D02*
D03*
X2024000Y484998D02*
D03*
X2015000Y504998D02*
D03*
X2054000Y541998D02*
D03*
X2056000Y579998D02*
D03*
X1837000Y568998D02*
D03*
Y631998D02*
D03*
Y517998D02*
D03*
X1988000Y530998D02*
D03*
X2204000Y563998D02*
D03*
X1988000Y593998D02*
D03*
X2204000Y532998D02*
D03*
D153*
X745000Y940000D02*
D03*
X785000Y940000D02*
D03*
X2305000Y940000D02*
D03*
X2345000D02*
D03*
Y905000D02*
D03*
X2385000Y940000D02*
D03*
Y905000D02*
D03*
X2425000Y940000D02*
D03*
Y905000D02*
D03*
X2305000D02*
D03*
X2105000D02*
D03*
Y940000D02*
D03*
X2145000D02*
D03*
Y905000D02*
D03*
X2185000Y940000D02*
D03*
Y905000D02*
D03*
X2225000Y940000D02*
D03*
Y905000D02*
D03*
X2265000Y940000D02*
D03*
Y905000D02*
D03*
X1905000D02*
D03*
Y940000D02*
D03*
X1945000D02*
D03*
Y905000D02*
D03*
X1985000Y940000D02*
D03*
Y905000D02*
D03*
X2025000Y940000D02*
D03*
Y905000D02*
D03*
X2065000Y940000D02*
D03*
Y905000D02*
D03*
X1705000D02*
D03*
Y940000D02*
D03*
X1745000D02*
D03*
Y905000D02*
D03*
X1785000Y940000D02*
D03*
Y905000D02*
D03*
X1825000Y940000D02*
D03*
Y905000D02*
D03*
X1865000Y940000D02*
D03*
Y905000D02*
D03*
X1505000Y940000D02*
D03*
X1545000D02*
D03*
Y905000D02*
D03*
X1585000Y940000D02*
D03*
Y905000D02*
D03*
X1625000Y940000D02*
D03*
Y905000D02*
D03*
X1665000Y940000D02*
D03*
Y905000D02*
D03*
X1505000D02*
D03*
X910000Y225000D02*
D03*
X1915000Y689998D02*
D03*
X1890000D02*
D03*
X880000Y529998D02*
D03*
Y549998D02*
D03*
X870000Y564998D02*
D03*
Y514998D02*
D03*
X860000Y529998D02*
D03*
Y549998D02*
D03*
X750000Y245000D02*
D03*
X735000Y235000D02*
D03*
X705000D02*
D03*
X720000Y245000D02*
D03*
X705000Y255000D02*
D03*
X735000D02*
D03*
X750000Y265000D02*
D03*
X720000D02*
D03*
X710000Y680000D02*
D03*
X745000D02*
D03*
Y645000D02*
D03*
X710000D02*
D03*
Y870000D02*
D03*
X745000D02*
D03*
Y830000D02*
D03*
X710000D02*
D03*
X745000Y790000D02*
D03*
X710000D02*
D03*
X745000Y750000D02*
D03*
X710000D02*
D03*
X745000Y715000D02*
D03*
X710000D02*
D03*
X865000Y940000D02*
D03*
Y905000D02*
D03*
X825000D02*
D03*
Y940000D02*
D03*
X785000Y905000D02*
D03*
X745000D02*
D03*
X710000D02*
D03*
Y940000D02*
D03*
X1065000D02*
D03*
Y905000D02*
D03*
X1025000D02*
D03*
Y940000D02*
D03*
X985000Y905000D02*
D03*
Y940000D02*
D03*
X945000Y905000D02*
D03*
Y940000D02*
D03*
X905000Y905000D02*
D03*
Y940000D02*
D03*
X1265000D02*
D03*
Y905000D02*
D03*
X1225000D02*
D03*
Y940000D02*
D03*
X1185000Y905000D02*
D03*
Y940000D02*
D03*
X1145000Y905000D02*
D03*
Y940000D02*
D03*
X1105000Y905000D02*
D03*
Y940000D02*
D03*
X1465000D02*
D03*
Y905000D02*
D03*
X1425000D02*
D03*
Y940000D02*
D03*
X1385000Y905000D02*
D03*
Y940000D02*
D03*
X1345000Y905000D02*
D03*
Y940000D02*
D03*
X1305000Y905000D02*
D03*
Y940000D02*
D03*
X1415000Y210000D02*
D03*
Y860000D02*
D03*
X1591000Y861000D02*
D03*
X1590000Y211000D02*
D03*
X2460000Y755000D02*
D03*
Y785000D02*
D03*
Y815000D02*
D03*
Y845000D02*
D03*
X2490000D02*
D03*
Y815000D02*
D03*
Y755000D02*
D03*
X2520000Y845000D02*
D03*
Y815000D02*
D03*
Y785000D02*
D03*
Y755000D02*
D03*
X2550000Y845000D02*
D03*
Y815000D02*
D03*
Y785000D02*
D03*
Y755000D02*
D03*
X2580000Y845000D02*
D03*
Y815000D02*
D03*
Y785000D02*
D03*
Y755000D02*
D03*
X2490000Y785000D02*
D03*
X2437000Y658000D02*
D03*
X2465000Y450000D02*
D03*
Y470000D02*
D03*
Y490000D02*
D03*
Y430000D02*
D03*
X2414000Y430002D02*
D03*
X2414000Y690000D02*
D03*
X1903000Y644000D02*
D03*
X2551000Y461000D02*
D03*
X1903000Y673000D02*
D03*
X2599000Y460998D02*
D03*
X2575000D02*
D03*
X790002Y565000D02*
D03*
X810002D02*
D03*
X800002Y530000D02*
D03*
X800002Y550000D02*
D03*
X780002Y530000D02*
D03*
Y550000D02*
D03*
X790002Y515000D02*
D03*
X810002D02*
D03*
X830002Y565000D02*
D03*
X850002D02*
D03*
X840002Y530000D02*
D03*
X840002Y550000D02*
D03*
X820002Y530000D02*
D03*
Y550000D02*
D03*
X830002Y515000D02*
D03*
X850002D02*
D03*
X710002Y565000D02*
D03*
X730002D02*
D03*
X720002Y530000D02*
D03*
X720002Y550000D02*
D03*
X700002Y530000D02*
D03*
Y550000D02*
D03*
X710002Y515000D02*
D03*
X730002D02*
D03*
X750002Y565000D02*
D03*
X770002D02*
D03*
X760002Y530000D02*
D03*
X760002Y550000D02*
D03*
X740002Y530000D02*
D03*
Y550000D02*
D03*
X750002Y515000D02*
D03*
X770002D02*
D03*
X750000Y464998D02*
D03*
X720000D02*
D03*
X735000Y474998D02*
D03*
X705000D02*
D03*
X750000Y444998D02*
D03*
Y424998D02*
D03*
X720000D02*
D03*
X735000Y434998D02*
D03*
X720000Y444998D02*
D03*
X735000Y454998D02*
D03*
X705000D02*
D03*
Y434998D02*
D03*
X750000Y404998D02*
D03*
Y384998D02*
D03*
X720000D02*
D03*
X735000Y394998D02*
D03*
X720000Y404998D02*
D03*
X735000Y414998D02*
D03*
X705000D02*
D03*
Y394998D02*
D03*
X750000Y364998D02*
D03*
Y344998D02*
D03*
X720000D02*
D03*
X735000Y354998D02*
D03*
X720000Y364998D02*
D03*
X735000Y374998D02*
D03*
X705000D02*
D03*
Y354998D02*
D03*
X750000Y324998D02*
D03*
Y304998D02*
D03*
X720000D02*
D03*
X735000Y314998D02*
D03*
X720000Y324998D02*
D03*
X735000Y334998D02*
D03*
X705000D02*
D03*
Y314998D02*
D03*
X750000Y284998D02*
D03*
X735000Y274998D02*
D03*
X720000Y284998D02*
D03*
X735000Y294998D02*
D03*
X705000D02*
D03*
Y274998D02*
D03*
X1840000Y689998D02*
D03*
X1865000D02*
D03*
X2390000Y429998D02*
D03*
X2365000D02*
D03*
X2340000D02*
D03*
X2315000Y430002D02*
D03*
X2290000D02*
D03*
X2390000Y690002D02*
D03*
X2365000D02*
D03*
X2340000D02*
D03*
X2315000D02*
D03*
X2290000D02*
D03*
X2265000D02*
D03*
X2240000Y689998D02*
D03*
X2215000D02*
D03*
X2190000D02*
D03*
X2165000D02*
D03*
X2140000D02*
D03*
X2115000D02*
D03*
X2090000D02*
D03*
X2065000D02*
D03*
X2040000D02*
D03*
X2015000D02*
D03*
X1990000D02*
D03*
X1965000D02*
D03*
X1940000D02*
D03*
X2265000Y430002D02*
D03*
X2240000D02*
D03*
X2215000D02*
D03*
X2190000D02*
D03*
X2165000D02*
D03*
X2140000D02*
D03*
X2115000D02*
D03*
X2090000D02*
D03*
X2065000D02*
D03*
X2040000D02*
D03*
X2015000D02*
D03*
X1990000D02*
D03*
X1965000D02*
D03*
X1940000D02*
D03*
X1915000D02*
D03*
X1890000Y429998D02*
D03*
X1865000D02*
D03*
X1840000D02*
D03*
X1495000Y584998D02*
D03*
Y604998D02*
D03*
X1525000D02*
D03*
X1510000Y594998D02*
D03*
X1540000D02*
D03*
X1495000Y624998D02*
D03*
Y644998D02*
D03*
X1525000D02*
D03*
X1510000Y634998D02*
D03*
X1525000Y624998D02*
D03*
X1510000Y614998D02*
D03*
X1540000D02*
D03*
Y634998D02*
D03*
X1510000Y654998D02*
D03*
X1540000D02*
D03*
X1525000Y584998D02*
D03*
X1495000Y434998D02*
D03*
Y454998D02*
D03*
X1525000D02*
D03*
X1510000Y444998D02*
D03*
X1525000Y434998D02*
D03*
X1510000Y424998D02*
D03*
X1540000D02*
D03*
Y444998D02*
D03*
X1495000Y474998D02*
D03*
Y494998D02*
D03*
X1525000D02*
D03*
X1510000Y484998D02*
D03*
X1525000Y474998D02*
D03*
X1510000Y464998D02*
D03*
X1540000D02*
D03*
Y484998D02*
D03*
M02*
