G04*
G04 #@! TF.GenerationSoftware,Altium Limited,Altium Designer,18.1.7 (191)*
G04*
G04 Layer_Color=8388736*
%FSLAX44Y44*%
%MOMM*%
G71*
G01*
G75*
%ADD10C,0.2000*%
%ADD11C,0.2500*%
%ADD12C,0.6000*%
%ADD15C,0.2540*%
%ADD16C,0.1270*%
%ADD179C,0.1000*%
D10*
X2503550Y458200D02*
G03*
X2503550Y458200I-1000J0D01*
G01*
X2107000Y769900D02*
X2123000D01*
X2073000Y768000D02*
Y774000D01*
X2057000Y768000D02*
Y774000D01*
X2182000Y768000D02*
X2198000D01*
X2273000D02*
Y774000D01*
X2257000Y768000D02*
Y774000D01*
X1982000Y769900D02*
X1998000D01*
X1948000Y768000D02*
Y774000D01*
X2307000Y769900D02*
X2323000D01*
X1932000Y768000D02*
Y774000D01*
X2382000Y768000D02*
X2398000D01*
X1857000D02*
X1873000D01*
X1932000Y721000D02*
X1948000D01*
X1857000Y722900D02*
X1873000D01*
X2023000Y721000D02*
Y727000D01*
X2007000Y721000D02*
Y727000D01*
X2057000Y722900D02*
X2073000D01*
X2257000Y721000D02*
X2273000D01*
X2148000D02*
Y727000D01*
X2132000Y721000D02*
Y727000D01*
X2182000Y722900D02*
X2198000D01*
X2348000Y721000D02*
Y727000D01*
X2332000Y721000D02*
Y727000D01*
X2382000Y722900D02*
X2398000D01*
X2517000Y384000D02*
Y390000D01*
X2567000Y384000D02*
Y390000D01*
X2592000Y435000D02*
X2608000D01*
X2592000Y433100D02*
X2608000D01*
X2107000Y768000D02*
X2123000D01*
X2198000D02*
Y774000D01*
X2182000Y768000D02*
Y774000D01*
X2032000Y769900D02*
X2048000D01*
X2232000D02*
X2248000D01*
X1982000Y768000D02*
X1998000D01*
X2307000D02*
X2323000D01*
X1907000Y769900D02*
X1923000D01*
X1857000Y768000D02*
Y774000D01*
X2382000Y768000D02*
Y774000D01*
X2398000Y768000D02*
Y774000D01*
X1873000Y768000D02*
Y774000D01*
X1857000Y721000D02*
X1873000D01*
X2057000D02*
X2073000D01*
X1948000D02*
Y727000D01*
X1932000Y721000D02*
Y727000D01*
X1982000Y722900D02*
X1998000D01*
X2182000Y721000D02*
X2198000D01*
X2107000Y722900D02*
X2123000D01*
X2273000Y721000D02*
Y727000D01*
X2257000Y721000D02*
Y727000D01*
X2307000Y722900D02*
X2323000D01*
X2382000Y721000D02*
X2398000D01*
X2533000Y384000D02*
Y390000D01*
X2583000Y384000D02*
Y390000D01*
X2592000Y429000D02*
Y435000D01*
X2123000Y768000D02*
Y774000D01*
X2107000Y768000D02*
Y774000D01*
X2157000Y769900D02*
X2173000D01*
X2032000Y768000D02*
X2048000D01*
X1998000D02*
Y774000D01*
X2232000Y768000D02*
X2248000D01*
X1982000D02*
Y774000D01*
X2323000Y768000D02*
Y774000D01*
X2307000Y768000D02*
Y774000D01*
X1832000Y769900D02*
X1848000D01*
X1907000Y768000D02*
X1923000D01*
X2357000Y769900D02*
X2373000D01*
X1982000Y721000D02*
X1998000D01*
X1873000D02*
Y727000D01*
X1857000Y721000D02*
Y727000D01*
X2107000Y721000D02*
X2123000D01*
X1907000Y722900D02*
X1923000D01*
X2057000Y721000D02*
Y727000D01*
X2073000Y721000D02*
Y727000D01*
X2307000Y721000D02*
X2323000D01*
X2232000Y722900D02*
X2248000D01*
X2198000Y721000D02*
Y727000D01*
X2182000Y721000D02*
Y727000D01*
X2382000Y721000D02*
Y727000D01*
X2398000Y721000D02*
Y727000D01*
X2608000Y429000D02*
Y435000D01*
X2517000D02*
X2533000D01*
X2517000Y433100D02*
X2533000D01*
X2592000Y390000D02*
X2608000D01*
X2592000Y388100D02*
X2608000D01*
X2157000Y768000D02*
X2173000D01*
X2082000Y769900D02*
X2098000D01*
X2048000Y768000D02*
Y774000D01*
X2032000Y768000D02*
Y774000D01*
X2248000Y768000D02*
Y774000D01*
X2232000Y768000D02*
Y774000D01*
X1957000Y769900D02*
X1973000D01*
X2282000D02*
X2298000D01*
X1923000Y768000D02*
Y774000D01*
X1832000Y768000D02*
X1848000D01*
X1907000D02*
Y774000D01*
X2357000Y768000D02*
X2373000D01*
X1907000Y721000D02*
X1923000D01*
X1832000Y722900D02*
X1848000D01*
X1998000Y721000D02*
Y727000D01*
X1982000Y721000D02*
Y727000D01*
X2032000Y722900D02*
X2048000D01*
X2232000Y721000D02*
X2248000D01*
X2123000D02*
Y727000D01*
X2107000Y721000D02*
Y727000D01*
X2157000Y722900D02*
X2173000D01*
X2323000Y721000D02*
Y727000D01*
X2307000Y721000D02*
Y727000D01*
X2357000Y722900D02*
X2373000D01*
X2509000Y462000D02*
X2524000D01*
X2517000Y429000D02*
Y435000D01*
X2592000Y384000D02*
Y390000D01*
X2157000Y768000D02*
Y774000D01*
X2173000Y768000D02*
Y774000D01*
X2082000Y768000D02*
X2098000D01*
X2207000Y769900D02*
X2223000D01*
X2007000D02*
X2023000D01*
X1957000Y768000D02*
X1973000D01*
X2282000D02*
X2298000D01*
X1832000D02*
Y774000D01*
X1848000Y768000D02*
Y774000D01*
X2373000Y768000D02*
Y774000D01*
X2357000Y768000D02*
Y774000D01*
X1832000Y721000D02*
X1848000D01*
X1882000Y769900D02*
X1898000D01*
X2407000D02*
X2423000D01*
X2032000Y721000D02*
X2048000D01*
X1923000D02*
Y727000D01*
X1907000Y721000D02*
Y727000D01*
X2157000Y721000D02*
X2173000D01*
X1957000Y722900D02*
X1973000D01*
X2082000D02*
X2098000D01*
X2607500Y646000D02*
Y716000D01*
X2357000Y721000D02*
X2373000D01*
X2282000Y722900D02*
X2298000D01*
X2248000Y721000D02*
Y727000D01*
X2232000Y721000D02*
Y727000D01*
X2608000Y384000D02*
Y390000D01*
X2542000Y390000D02*
X2558000D01*
X2542000Y388100D02*
X2558000D01*
X2533000Y429000D02*
Y435000D01*
X2119374Y612528D02*
X2153374D01*
X2098000Y768000D02*
Y774000D01*
X2132000Y769900D02*
X2148000D01*
X2082000Y768000D02*
Y774000D01*
X2207000Y768000D02*
X2223000D01*
X1557450Y658100D02*
Y672070D01*
X2007000Y768000D02*
X2023000D01*
X1973000D02*
Y774000D01*
X1557450Y672070D02*
X1720150D01*
X1957000Y768000D02*
Y774000D01*
X2282000Y768000D02*
Y774000D01*
X2298000Y768000D02*
Y774000D01*
X2332000Y769900D02*
X2348000D01*
X1882000Y768000D02*
X1898000D01*
X2407000D02*
X2423000D01*
X1957000Y721000D02*
X1973000D01*
X1832000D02*
Y727000D01*
X1848000Y721000D02*
Y727000D01*
X2082000Y721000D02*
X2098000D01*
X1882000Y722900D02*
X1898000D01*
X2048000Y721000D02*
Y727000D01*
X2032000Y721000D02*
Y727000D01*
X2282000Y721000D02*
X2298000D01*
X2157000D02*
Y727000D01*
X2173000Y721000D02*
Y727000D01*
X2207000Y722900D02*
X2223000D01*
X2501500Y646000D02*
X2607500D01*
X2373000Y721000D02*
Y727000D01*
X2357000Y721000D02*
Y727000D01*
X2407000Y722900D02*
X2423000D01*
X2542000Y435000D02*
X2558000D01*
X2542000Y433100D02*
X2558000D01*
X2542000Y384000D02*
Y390000D01*
X2567000Y435000D02*
X2583000D01*
X2567000Y433100D02*
X2583000D01*
X2119374Y514528D02*
X2153374D01*
X2132000Y768000D02*
X2148000D01*
X2057000Y769900D02*
X2073000D01*
X2223000Y768000D02*
Y774000D01*
X2207000Y768000D02*
Y774000D01*
X2023000Y768000D02*
Y774000D01*
X2007000Y768000D02*
Y774000D01*
X2257000Y769900D02*
X2273000D01*
X1932000D02*
X1948000D01*
X1898000Y768000D02*
Y774000D01*
X2332000Y768000D02*
X2348000D01*
X1882000D02*
Y774000D01*
Y721000D02*
X1898000D01*
X2423000Y768000D02*
Y774000D01*
X2407000Y768000D02*
Y774000D01*
X1957000Y721000D02*
Y727000D01*
X1973000Y721000D02*
Y727000D01*
X2007000Y722900D02*
X2023000D01*
X2207000Y721000D02*
X2223000D01*
X2098000D02*
Y727000D01*
X2082000Y721000D02*
Y727000D01*
X2501500Y716000D02*
X2607500D01*
X2132000Y722900D02*
X2148000D01*
X2282000Y721000D02*
Y727000D01*
X2298000Y721000D02*
Y727000D01*
X2332000Y722900D02*
X2348000D01*
X2407000Y721000D02*
X2423000D01*
X2558000Y384000D02*
Y390000D01*
X2542000Y429000D02*
Y435000D01*
X2567000Y429000D02*
Y435000D01*
Y390000D02*
X2583000D01*
X2567000Y388100D02*
X2583000D01*
X2153374Y514528D02*
Y612528D01*
X2119374Y514528D02*
Y612528D01*
X2148000Y768000D02*
Y774000D01*
X2132000Y768000D02*
Y774000D01*
X2057000Y768000D02*
X2073000D01*
X2182000Y769900D02*
X2198000D01*
X2257000Y768000D02*
X2273000D01*
X1739000Y645000D02*
Y660000D01*
X1932000Y768000D02*
X1948000D01*
X2382000Y769900D02*
X2398000D01*
X2348000Y768000D02*
Y774000D01*
X2332000Y768000D02*
Y774000D01*
X1857000Y769900D02*
X1873000D01*
X2007000Y721000D02*
X2023000D01*
X1898000D02*
Y727000D01*
X1882000Y721000D02*
Y727000D01*
X2132000Y721000D02*
X2148000D01*
X1932000Y722900D02*
X1948000D01*
X2332000Y721000D02*
X2348000D01*
X2257000Y722900D02*
X2273000D01*
X2223000Y721000D02*
Y727000D01*
X2207000Y721000D02*
Y727000D01*
X2423000Y721000D02*
Y727000D01*
X2407000Y721000D02*
Y727000D01*
X2558000Y429000D02*
Y435000D01*
X2517000Y390000D02*
X2533000D01*
X2517000Y388100D02*
X2533000D01*
X2583000Y429000D02*
Y435000D01*
D11*
X2165624Y514028D02*
G03*
X2165624Y514028I-1250J0D01*
G01*
X2510250Y692000D02*
G03*
X2510250Y692000I-1250J0D01*
G01*
D12*
X2146374Y524528D02*
G03*
X2146374Y524528I-3000J0D01*
G01*
D15*
X2607000Y601000D02*
Y630000D01*
X2479000D02*
X2607000D01*
X2479000Y601000D02*
Y630000D01*
D16*
X2505350Y408000D02*
Y438000D01*
X2474650Y408000D02*
Y438000D01*
X314848Y724117D02*
X381708D01*
X314848Y551417D02*
X381708D01*
X314848D02*
Y724117D01*
D179*
X2650000Y970000D02*
X2650000Y160000D01*
X310000D02*
Y970000D01*
Y160000D02*
X2550000D01*
X310000Y970000D02*
X2550000Y970000D01*
M02*
