G04*
G04 #@! TF.GenerationSoftware,Altium Limited,Altium Designer,18.1.7 (191)*
G04*
G04 Layer_Physical_Order=1*
G04 Layer_Color=255*
%FSLAX44Y44*%
%MOMM*%
G71*
G01*
G75*
%ADD10C,0.2000*%
%ADD16C,0.2540*%
%ADD18R,0.6000X0.6000*%
%ADD19R,1.5000X1.2000*%
%ADD20R,0.6000X0.6000*%
G04:AMPARAMS|DCode=21|XSize=1.47mm|YSize=0.48mm|CornerRadius=0.06mm|HoleSize=0mm|Usage=FLASHONLY|Rotation=90.000|XOffset=0mm|YOffset=0mm|HoleType=Round|Shape=RoundedRectangle|*
%AMROUNDEDRECTD21*
21,1,1.4700,0.3600,0,0,90.0*
21,1,1.3500,0.4800,0,0,90.0*
1,1,0.1200,0.1800,0.6750*
1,1,0.1200,0.1800,-0.6750*
1,1,0.1200,-0.1800,-0.6750*
1,1,0.1200,-0.1800,0.6750*
%
%ADD21ROUNDEDRECTD21*%
%ADD22R,1.8000X3.4000*%
%ADD23R,1.6000X1.8000*%
%ADD24O,2.6000X0.7000*%
%ADD25O,2.6000X0.6604*%
%ADD26R,0.9800X0.9300*%
%ADD27R,0.9300X0.9800*%
%ADD28R,1.5000X1.5000*%
%ADD29R,1.1000X2.0000*%
%ADD30R,0.4500X1.0000*%
%ADD31R,0.5500X0.8000*%
%ADD32R,2.9000X5.4000*%
%ADD33R,0.8000X0.5500*%
%ADD34R,2.2000X1.8000*%
%ADD35R,5.4000X2.9000*%
%ADD36O,1.4000X0.3500*%
%ADD37R,6.0000X6.0000*%
G04:AMPARAMS|DCode=38|XSize=2mm|YSize=1mm|CornerRadius=0mm|HoleSize=0mm|Usage=FLASHONLY|Rotation=180.000|XOffset=0mm|YOffset=0mm|HoleType=Round|Shape=Octagon|*
%AMOCTAGOND38*
4,1,8,-1.0000,0.2500,-1.0000,-0.2500,-0.7500,-0.5000,0.7500,-0.5000,1.0000,-0.2500,1.0000,0.2500,0.7500,0.5000,-0.7500,0.5000,-1.0000,0.2500,0.0*
%
%ADD38OCTAGOND38*%

%ADD39R,2.0000X1.0000*%
%ADD40R,1.0000X0.4500*%
%ADD41R,10.1600X9.5000*%
%ADD42R,4.5000X1.2500*%
%ADD75C,1.0000*%
%ADD76C,0.3000*%
%ADD77C,0.4000*%
%ADD78C,0.5000*%
%ADD79C,1.5000*%
%ADD80R,10.1000X4.9000*%
%ADD81R,22.5000X4.5000*%
%ADD82R,19.5000X2.5000*%
%ADD83R,5.0000X10.5000*%
%ADD84R,25.5000X5.0000*%
%ADD85R,0.9000X8.2000*%
%ADD86R,4.0000X1.0000*%
%ADD87R,1.0000X2.0000*%
%ADD88R,1.0000X2.0000*%
%ADD89R,4.5000X0.6000*%
%ADD90R,16.0000X7.0000*%
%ADD91R,6.0000X7.5000*%
%ADD92R,24.8000X4.0000*%
%ADD93R,2.0000X5.7000*%
%ADD94R,8.0000X10.5000*%
%ADD95R,15.0000X3.0000*%
%ADD96R,5.5000X11.0000*%
%ADD97R,7.5000X3.0000*%
%ADD98R,2.5000X5.7000*%
%ADD99R,4.0000X3.0000*%
%ADD100R,13.5000X1.5000*%
%ADD101R,13.5000X1.5000*%
%ADD102R,2.0000X5.0000*%
%ADD103R,2.0000X5.0000*%
%ADD104R,4.3000X3.2000*%
%ADD105R,15.0000X1.5000*%
%ADD106R,8.0000X9.0000*%
%ADD107R,19.0000X8.5000*%
%ADD108R,3.6000X2.1000*%
%ADD109R,2.7000X13.9000*%
%ADD110R,11.8000X2.6000*%
%ADD111R,12.5000X4.0000*%
%ADD112R,1.0000X4.3000*%
%ADD113R,13.0000X1.3000*%
%ADD114R,13.2000X2.0000*%
%ADD115R,5.2000X7.0000*%
%ADD116R,12.7000X2.0000*%
%ADD117R,5.2000X7.5000*%
%ADD118R,3.8000X1.0000*%
%ADD119R,10.1000X5.1000*%
%ADD120R,20.0000X7.0000*%
%ADD121R,4.0000X5.5000*%
%ADD122R,1.5000X1.0000*%
%ADD123R,5.5000X1.0000*%
%ADD124R,5.1000X1.0000*%
%ADD125R,3.4000X1.0000*%
%ADD126R,5.0000X32.5000*%
%ADD127R,9.8500X22.8000*%
%ADD128R,17.0000X5.0000*%
%ADD129R,3.5000X8.5000*%
%ADD130R,2.0000X1.0000*%
%ADD131R,7.5000X27.5000*%
%ADD132R,11.0000X63.0000*%
%ADD133R,6.0000X63.0000*%
%ADD134R,7.5000X36.5000*%
%ADD135R,1.0000X2.0000*%
%ADD136R,16.0000X1.6000*%
%ADD137R,25.0000X4.0000*%
%ADD138R,6.6500X19.8000*%
%ADD139R,18.2000X9.4000*%
%ADD140R,27.1000X4.0000*%
%ADD141R,123.5000X8.0000*%
%ADD142R,5.0000X51.7000*%
%ADD143R,5.0000X60.0000*%
%ADD144R,4.5000X46.0000*%
%ADD145R,4.5000X47.0000*%
%ADD146R,5.0000X45.2000*%
%ADD147R,22.2000X9.5000*%
%ADD148R,5.5000X45.7000*%
%ADD149R,44.8000X7.0000*%
%ADD150R,53.2000X6.5000*%
%ADD151O,3.0000X2.0000*%
%ADD152R,4.0000X4.0000*%
%ADD153R,2.0000X1.8000*%
%ADD154C,1.3980*%
%ADD155C,2.3550*%
%ADD156C,3.2500*%
%ADD157R,1.3980X1.3980*%
%ADD158C,0.4800*%
%ADD159C,1.0000*%
D10*
X1905000Y745000D02*
X1910000Y740000D01*
X1560000Y748000D02*
Y750000D01*
X1745000Y495000D02*
Y500000D01*
X2262000Y393000D02*
X2277000D01*
X2280000Y495000D02*
Y569998D01*
X2220000Y495000D02*
X2280000D01*
X2277000Y467000D02*
Y471000D01*
X2233000Y433000D02*
Y445000D01*
X2284000Y491000D02*
Y574000D01*
X2224000Y491000D02*
X2284000D01*
X2060000Y633000D02*
Y670000D01*
X2042000D02*
Y690000D01*
X1942000Y709920D02*
Y712920D01*
X1955000Y690000D02*
X2042000D01*
X2049000Y646000D02*
Y695000D01*
X1948000Y709920D02*
Y712920D01*
X1965000Y695000D02*
X2049000D01*
X2080000Y647700D02*
Y700000D01*
X1955000D02*
X2080000D01*
X2256162Y553000D02*
X2257080Y553918D01*
X2256080Y543998D02*
X2257080D01*
X2247998Y533998D02*
X2257998Y543998D01*
X2226374Y534278D02*
X2247280D01*
X2246920Y522998D02*
Y532998D01*
X2234000Y389000D02*
X2239000D01*
X2215922Y502000D02*
X2217920Y503998D01*
X2198000Y502000D02*
Y533998D01*
X2216000Y411000D02*
Y502000D01*
X1884000Y620000D02*
X1899000D01*
X1868080Y619998D02*
Y620000D01*
X484000Y631000D02*
X485000D01*
X2239999Y863080D02*
X2240000D01*
X2233080Y863011D02*
X2239999Y863080D01*
X2210080Y900000D02*
X2219000D01*
X2218998Y633000D02*
X2220000Y631998D01*
X2257000Y604000D02*
X2257080D01*
X2190700Y782100D02*
X2190900Y782700D01*
X2208000Y782000D02*
Y788000D01*
X2190500Y781500D02*
X2190700Y782100D01*
X2258000Y532000D02*
Y533998D01*
X2257080Y591920D02*
X2258000Y591000D01*
X2257080Y580000D02*
Y591920D01*
Y513918D02*
Y532918D01*
X2257000Y513000D02*
X2257080D01*
X2224594Y540998D02*
X2224594Y540998D01*
X2162077Y493999D02*
X2162140Y501360D01*
X2080000Y735000D02*
X2094920D01*
X2095000D02*
X2109920D01*
X2110000Y720000D02*
Y734920D01*
Y705000D02*
Y719920D01*
X375000Y895000D02*
X387000D01*
X1856920Y568998D02*
Y569000D01*
X485000Y565080D02*
Y585000D01*
X340000Y800000D02*
Y850000D01*
X330000Y805000D02*
Y850000D01*
X350000Y875000D02*
X355000D01*
X340000Y860000D02*
X355000D01*
X2112080Y705000D02*
X2120000D01*
X2112080Y720000D02*
X2120000D01*
X2110000Y745080D02*
Y760000D01*
X2219000Y840000D02*
X2220000D01*
X2212000Y833000D02*
X2219000Y840000D01*
X2120000Y833000D02*
X2212000D01*
X2120000D02*
Y866000D01*
X2217920Y829000D02*
X2218920Y830000D01*
X2186000Y829000D02*
X2217920D01*
X2186000Y814000D02*
Y829000D01*
X2200000Y890000D02*
X2210910D01*
X2192750Y852500D02*
Y892750D01*
X2199000Y899000D01*
X2230000Y878000D02*
X2231000D01*
X2209000Y869000D02*
X2209080Y868920D01*
X2230000Y870000D02*
Y878000D01*
X2210080Y870000D02*
X2230000D01*
X2210910Y889000D02*
Y890000D01*
Y888000D02*
X2210930Y890000D01*
X2199943Y885002D02*
X2200000Y890000D01*
X2199897Y880955D02*
X2199943Y885002D01*
Y885001D02*
Y885002D01*
X2198920Y880000D02*
X2199897Y880955D01*
X2027000Y621000D02*
X2038920D01*
X2026080Y504998D02*
X2034000D01*
X1760000Y369000D02*
Y380046D01*
X2015920Y537920D02*
X2016000Y538000D01*
X2015920Y530998D02*
Y537920D01*
X2002000Y530998D02*
X2009000D01*
X1910000Y700000D02*
Y740000D01*
X2237000Y675000D02*
X2272882Y639118D01*
X2195000Y675000D02*
X2237000D01*
X2194000D02*
X2195000D01*
X1869080Y619998D02*
X1887998D01*
X2195000Y675000D02*
X2195188Y674767D01*
X2095000Y745080D02*
Y760000D01*
X2080000Y745080D02*
Y760000D01*
X2065000Y745080D02*
Y760000D01*
X2080000Y725000D02*
Y732920D01*
X2065000Y725000D02*
Y732920D01*
X485000Y585000D02*
Y629920D01*
X320000Y585000D02*
Y789000D01*
Y380000D02*
Y585000D01*
X485000Y585000D01*
X320000Y789000D02*
X485000D01*
Y629920D02*
Y631000D01*
X320000Y380000D02*
X485000D01*
X1745000Y585000D02*
Y595000D01*
X1720000Y594000D02*
Y595000D01*
X1795000Y574920D02*
X1809000D01*
X1765000Y575000D02*
Y585000D01*
X485000Y830000D02*
Y845000D01*
X455080Y830000D02*
X485000D01*
Y885000D02*
Y900000D01*
X455080D02*
X485000D01*
X455080Y900000D02*
X455080Y900000D01*
X386500Y835000D02*
X405000D01*
X386500D02*
Y835500D01*
X405000Y900000D02*
X444920D01*
X405000Y900000D02*
Y900000D01*
X440000Y880000D02*
X444920Y875080D01*
Y900000D01*
X430000Y880000D02*
X440000D01*
X420000Y879920D02*
Y880000D01*
Y870000D02*
Y879920D01*
Y850160D02*
Y860000D01*
X444920Y875080D02*
X445000Y875000D01*
X386500Y875000D02*
X405000D01*
Y856000D02*
Y874000D01*
Y855000D02*
Y856000D01*
X386500Y875000D02*
Y875500D01*
X365000Y885000D02*
Y895000D01*
Y855000D02*
X385000D01*
X351500Y895000D02*
X365000D01*
X363500Y885000D02*
X365000Y883500D01*
Y855000D02*
Y883500D01*
X351500Y894500D02*
Y895000D01*
X330000Y860080D02*
Y885000D01*
X355000Y860000D02*
Y875000D01*
Y845000D02*
Y860000D01*
Y845000D02*
X363500D01*
X430000Y850000D02*
X445000D01*
X405000Y830000D02*
X443000D01*
X2048000Y646000D02*
X2049000D01*
X1948000Y695000D02*
Y709920D01*
X2049000Y646000D02*
X2049080D01*
X2025080Y440000D02*
X2042000D01*
X2025080Y460000D02*
X2042000D01*
X2277000Y393000D02*
Y394000D01*
X2248000Y407000D02*
X2262000Y393000D01*
X2115000Y621000D02*
X2116000Y620000D01*
X2085000Y615000D02*
X2096000D01*
X2080000Y620000D02*
X2085000Y615000D01*
X2080000Y620000D02*
Y630000D01*
X1942000Y690000D02*
Y709920D01*
X2049080Y633000D02*
X2060000D01*
X2232000Y841920D02*
X2233080D01*
X2221000D02*
X2232000D01*
X2258000Y532000D02*
X2264000D01*
X2050000Y745080D02*
Y760000D01*
Y745000D02*
Y745080D01*
X2020000D02*
Y760000D01*
Y745000D02*
Y745080D01*
X2035000D02*
Y760000D01*
Y745000D02*
Y745080D01*
X2005000D02*
Y760000D01*
Y745000D02*
Y745080D01*
X1868080Y568998D02*
X1894000D01*
X1867002D02*
X1868080D01*
Y517998D02*
X1894000D01*
X1867080D02*
X1868080D01*
X2284000Y438000D02*
X2286300Y440300D01*
Y446200D01*
X2288200D02*
X2310800D01*
X2271080Y436000D02*
X2282080Y425000D01*
X2268000Y444000D02*
X2268000Y444000D01*
Y439920D02*
Y444000D01*
Y439920D02*
X2271920Y436000D01*
X2268000Y421080D02*
X2271920Y425000D01*
X2268000Y416000D02*
Y421080D01*
X2268000Y416000D02*
X2268000Y416000D01*
X2282080Y425000D02*
X2286000Y421080D01*
Y416000D02*
Y421080D01*
X2273000Y622000D02*
Y637001D01*
Y592080D02*
Y622000D01*
X2272882Y639118D02*
X2273000Y637001D01*
X2273000Y569998D02*
X2280000D01*
X2239000D02*
X2273000D01*
X2225096Y574000D02*
X2284000D01*
X2273000Y564998D02*
Y569998D01*
X2257080Y553000D02*
X2272000D01*
X2230000Y606000D02*
Y621998D01*
X2231080D01*
X2231000Y633000D02*
X2246920D01*
X2231000Y632998D02*
Y633000D01*
X2213000Y622000D02*
Y631998D01*
X2213000Y631998D02*
X2213000Y631998D01*
X2224000Y454000D02*
Y491000D01*
X2220000Y432000D02*
Y495000D01*
X1868080Y619998D02*
X1869080D01*
X2216000Y411000D02*
X2231000Y396000D01*
X2232400D01*
X2230000Y422000D02*
X2235000D01*
X2220000Y432000D02*
X2230000Y422000D01*
X2224000Y454000D02*
X2233000Y445000D01*
X2229000Y527998D02*
X2237000D01*
Y512000D02*
Y527998D01*
Y512000D02*
X2245920D01*
X1926000Y750000D02*
X1941000D01*
Y724000D02*
Y750000D01*
X1949000D02*
X1968000D01*
X1949000Y723000D02*
Y750000D01*
X2244920Y562920D02*
Y565998D01*
X2242278Y560278D02*
X2244920Y562920D01*
X2228184Y560278D02*
X2242278D01*
X2245002Y543998D02*
X2247000D01*
X2241722Y547278D02*
X2245002Y543998D01*
X2224374Y547278D02*
X2241722D01*
X1941000Y460000D02*
X2014920D01*
X1941000Y405000D02*
Y460000D01*
X1924000Y405000D02*
X1941000D01*
X1953000Y440000D02*
X2014920D01*
X1953000Y345000D02*
Y440000D01*
Y345000D02*
X1976000D01*
X1947000Y450000D02*
X2014920D01*
X1947000Y345000D02*
Y450000D01*
X1924000Y345000D02*
X1947000D01*
X1959000Y430000D02*
X2014920D01*
X1959000Y405000D02*
Y430000D01*
Y405000D02*
X1975000D01*
X1935000Y469000D02*
X2020000D01*
X1935000Y435000D02*
Y469000D01*
X1748000Y435000D02*
X1935000D01*
X1748000Y363000D02*
Y435000D01*
X1965000Y479000D02*
Y666920D01*
X2307000Y396000D02*
X2312000D01*
X2302000Y401000D02*
X2307000Y396000D01*
X2265000Y401000D02*
X2302000D01*
X2282080Y436000D02*
X2284000Y437920D01*
X1948000Y709920D02*
X1950000Y711920D01*
X1948000Y695000D02*
X1965000D01*
X1940000Y711920D02*
X1942000Y709920D01*
Y690000D02*
X1955000D01*
X2041000Y590000D02*
X2052300D01*
X2026080Y530998D02*
X2032998D01*
X2063000Y559000D02*
X2152000D01*
X2060000Y460000D02*
Y493000D01*
X2051000D02*
X2060000D01*
X2050000Y450000D02*
Y480000D01*
X2025080Y450000D02*
X2040000D01*
X2050000D01*
Y430000D02*
Y450000D01*
X2025080Y430000D02*
X2050000D01*
X2044000Y575000D02*
X2153000D01*
X2032000Y587000D02*
X2044000Y575000D01*
X2032000Y587000D02*
Y607000D01*
X2049000Y528000D02*
X2167000D01*
X2033002Y543998D02*
X2049000Y528000D01*
X2001000Y543998D02*
X2033002D01*
X2057000Y540000D02*
X2166000D01*
X2028002Y568998D02*
X2057000Y540000D01*
X2001000Y568998D02*
X2028002D01*
X2156000Y534000D02*
X2169000D01*
X2053000D02*
X2103000D01*
X2031000Y556000D02*
X2053000Y534000D01*
X2003000Y556000D02*
X2031000D01*
X2061000Y547000D02*
X2168096D01*
X2027002Y580998D02*
X2061000Y547000D01*
X1998000Y580998D02*
X2027002D01*
X2050000Y725000D02*
Y732920D01*
X2005000Y725000D02*
Y732920D01*
X2224000Y788000D02*
X2229000Y793000D01*
X1745000Y641000D02*
Y651000D01*
X2224374Y573278D02*
X2225096Y574000D01*
X2035000Y725000D02*
Y732920D01*
X2020000Y725000D02*
Y732920D01*
X1747000Y465000D02*
Y473000D01*
X2175080Y502560D02*
X2187940D01*
X2257080Y602000D02*
Y604000D01*
Y591920D02*
Y602000D01*
X2264000D01*
X2257080D02*
X2257080D01*
X2258000Y591000D02*
X2264000D01*
X2257080Y579998D02*
Y580000D01*
X2264000D01*
X2257080D02*
X2257080D01*
X2257080Y502000D02*
X2263000D01*
X2257080Y512000D02*
Y513000D01*
Y502000D02*
Y512000D01*
X2232400Y396000D02*
X2239000Y389400D01*
X2215922Y502000D02*
X2216000D01*
X2198080D02*
X2215000D01*
X1765000Y455000D02*
Y465000D01*
X2190400Y781200D02*
X2190500Y781500D01*
X2190000Y780000D02*
X2190400Y781200D01*
X1955000Y285000D02*
X1975000D01*
X1924000D02*
X1945000D01*
X1920000D02*
X1924000D01*
X1955000Y479000D02*
Y666920D01*
X1955000Y685000D02*
Y690000D01*
Y685000D02*
X1955000D01*
Y677080D02*
Y685000D01*
X1965000Y677080D02*
Y685000D01*
X1940000Y711920D02*
Y712000D01*
X1950000Y711920D02*
Y712000D01*
X1765000Y631000D02*
X1794920D01*
X1765000D02*
Y641000D01*
X1794920Y631000D02*
X1795000Y630920D01*
X1794920Y631000D02*
X1794920Y631000D01*
X1780000Y503000D02*
Y503000D01*
Y495160D02*
Y503000D01*
X1745000D02*
Y503000D01*
Y500000D02*
Y503000D01*
X1795000Y586080D02*
Y595000D01*
Y641080D02*
Y651000D01*
X1780000Y651000D02*
Y651000D01*
Y641080D02*
Y651000D01*
X1745000D02*
Y651000D01*
X2014920Y430000D02*
X2015000D01*
X2014920Y440000D02*
X2015000D01*
X2050000Y480000D02*
X2050080D01*
X2025000Y430000D02*
X2025080D01*
X2025000Y460000D02*
X2025080D01*
X2014920D02*
X2015000D01*
X1955000Y677080D02*
X1957000Y679080D01*
X1780000Y473000D02*
X1795000D01*
X1747000D02*
X1780000D01*
X1795000Y465080D02*
Y473000D01*
X1780000Y465080D02*
Y473000D01*
X1745000Y503000D02*
X1780000D01*
X1795000Y495160D02*
Y503000D01*
X1780000D02*
X1795000D01*
X2049000Y633000D02*
X2049080D01*
X2211000Y803000D02*
X2219920D01*
X2209080Y869000D02*
X2210080Y870000D01*
X2209080Y879000D02*
X2220000D01*
X2208080D02*
X2209080D01*
X2219920Y880000D02*
X2220000Y890000D01*
X2230000Y862000D02*
X2231080Y862011D01*
X2085000Y883000D02*
X2088000Y886000D01*
X2206080Y853080D02*
X2221000D01*
X2199250Y851500D02*
Y868250D01*
X2200000Y813000D02*
Y821000D01*
X2186000Y809500D02*
X2186250D01*
X2203920Y781000D02*
X2205000D01*
X2229080Y801000D02*
X2230000D01*
X2229080D02*
X2230080Y803000D01*
Y815000D01*
X2200000Y821000D02*
X2218920D01*
Y815000D02*
Y821000D01*
Y815000D02*
X2219000D01*
X2193000Y816000D02*
Y825000D01*
X2218920Y801920D02*
X2219000Y802000D01*
X2221463Y862540D02*
X2232000Y852080D01*
X2225000Y825000D02*
X2230080Y825000D01*
X2231000D01*
X2230080Y825000D02*
Y825000D01*
X2193000Y825000D02*
X2225000D01*
X2229080D01*
X2231000Y825000D02*
Y830000D01*
X2200000Y782000D02*
X2201000D01*
X2190900Y782700D02*
X2191000Y783000D01*
X1715000Y625080D02*
Y640000D01*
X1714000Y484000D02*
Y485080D01*
X1715000Y465080D02*
Y485000D01*
X2099000Y621000D02*
X2105920D01*
X2107000D01*
X1745000Y651000D02*
X1780000D01*
X1780000Y485000D02*
X1795000D01*
X1780000Y651000D02*
X1795000D01*
X1780000Y574920D02*
X1795000D01*
X1765080D02*
X1780000D01*
X1765000Y575000D02*
X1765080Y574920D01*
X1780000Y585080D02*
Y595000D01*
X1745000D02*
X1745000D01*
X1780000Y454920D02*
X1795000D01*
X1765080D02*
X1780000D01*
X1765000Y455000D02*
X1765080Y454920D01*
X1765000Y485000D02*
X1780000D01*
X1765000Y495000D02*
X1765000Y495000D01*
Y485000D02*
Y495000D01*
X1745000Y500000D02*
X1745000D01*
X1715000Y600000D02*
Y614920D01*
Y440000D02*
Y454920D01*
X1560000Y800000D02*
X1561000D01*
X1560000Y780080D02*
Y800000D01*
Y750000D02*
Y769920D01*
Y748000D02*
X1561000D01*
X1560000Y275000D02*
Y294920D01*
Y305080D02*
Y325000D01*
X1530000Y715000D02*
X1535000D01*
X2050000Y505000D02*
Y511000D01*
X2014702Y505296D02*
X2016000Y503998D01*
X2009080Y505296D02*
Y511000D01*
Y505296D02*
X2013702D01*
X1990782D02*
X2009080D01*
Y511000D02*
X2050000D01*
X2025080Y632918D02*
X2038000D01*
X2025000Y632998D02*
X2025080Y632918D01*
X2049000Y614000D02*
Y623000D01*
X2007002Y620000D02*
X2015000D01*
Y614000D02*
Y620000D01*
Y614000D02*
X2049000D01*
X1867080Y619998D02*
X1868080D01*
X2026080Y530998D02*
Y531920D01*
Y517998D02*
Y530998D01*
X2026000Y532000D02*
X2026080Y531920D01*
X2049080Y607000D02*
X2056000D01*
X2047080D02*
X2049080D01*
X2039920Y505000D02*
X2041000D01*
X2033000D02*
X2039920D01*
X1894000Y517998D02*
X1894998D01*
X1895000Y518000D01*
X1893000Y543000D02*
X1894000Y544000D01*
X1867000Y569000D02*
X1867002Y568998D01*
X1887998Y619998D02*
X1888000Y620000D01*
X2096000Y615000D02*
X2096000Y615000D01*
X2152000Y559000D02*
X2159909Y566909D01*
X2158000Y606000D02*
X2165000D01*
X2149000Y615000D02*
X2158000Y606000D01*
X2140000Y615000D02*
X2149000D01*
X2150000Y599000D02*
X2150000Y599000D01*
X2146000Y603000D02*
X2150000Y599000D01*
X2130000Y603000D02*
X2146000D01*
X2115000Y608000D02*
X2116000Y607000D01*
X2130000Y603000D02*
Y610000D01*
Y603000D02*
Y603000D01*
X2137000Y591000D02*
X2140000D01*
X2116000D02*
X2137000D01*
X2140000D02*
X2147000D01*
X2116000D02*
Y598000D01*
X2067000Y591000D02*
X2116000D01*
X2147000Y591000D02*
X2149000Y593000D01*
X2157000Y586000D02*
X2164000D01*
X2130000Y579000D02*
X2150000D01*
X2150000D01*
X2157000Y586000D01*
X2157778Y579778D02*
X2168374D01*
X2153000Y575000D02*
X2157778Y579778D01*
X2032000Y607000D02*
X2038920D01*
X2025080D02*
X2032000D01*
X1997000Y594000D02*
X2009000D01*
X2005037Y607000D02*
X2014000D01*
X2005018Y606980D02*
X2005037Y607000D01*
X2037998Y645998D02*
X2038000D01*
X2025080D02*
X2036998D01*
X2007000Y619998D02*
X2007002Y620000D01*
X2031000Y493000D02*
X2039920D01*
X2026000D02*
X2031000D01*
X2039920D02*
X2040000D01*
X2031000Y492998D02*
X2036000D01*
X2026080D02*
X2031000D01*
Y493000D01*
X2036920Y480000D02*
X2037000D01*
X2026080D02*
X2036920D01*
X2026080Y479998D02*
Y480000D01*
X2037998Y645998D02*
X2038000Y646000D01*
X2140080Y609000D02*
X2147000D01*
X2138080D02*
X2140080D01*
X2096000Y615000D02*
X2116000D01*
X2159998Y559998D02*
X2160998D01*
X2153000Y553000D02*
X2159998Y559998D01*
X2141000Y553000D02*
X2153000D01*
X2159909Y566909D02*
X2160998D01*
X2130000Y567000D02*
X2131000Y568000D01*
X2081000Y569000D02*
X2082000Y568000D01*
X2130000Y563000D02*
X2149000D01*
X2130000D02*
Y563000D01*
X2159000Y573000D02*
X2165000D01*
X2149000Y563000D02*
X2159000Y573000D01*
X2130000Y563000D02*
Y567000D01*
X2160998Y559998D02*
X2168000D01*
X2160998D02*
X2161000Y560000D01*
X2140080Y553000D02*
X2141000D01*
X2138000D02*
X2140080D01*
X2161000Y560000D02*
X2165000D01*
X2130000Y579000D02*
Y585000D01*
X2116000Y579000D02*
Y586000D01*
X2224374Y586278D02*
X2236278D01*
X2025000Y622918D02*
Y622998D01*
X2129920Y553000D02*
X2130920D01*
X2124000D02*
X2129920D01*
X2099000Y609000D02*
X2105920D01*
X2092080D02*
X2099000D01*
Y569000D02*
X2105920D01*
X2092080D02*
X2099000D01*
Y585000D02*
X2105920D01*
X2092080D02*
X2099000D01*
X2149000Y593000D02*
X2165000D01*
X2140000Y597000D02*
X2140080D01*
X2166000Y599000D02*
X2167000Y600000D01*
X2150000Y599000D02*
X2166000D01*
X2116000Y615000D02*
Y620000D01*
Y615000D02*
X2140000D01*
X2123000Y621000D02*
X2129920D01*
X2140000Y615000D02*
Y620000D01*
X2082000Y603000D02*
Y607000D01*
X2116000Y603000D02*
X2130000D01*
X2082000D02*
X2116000D01*
Y607000D01*
X2198000Y502000D02*
X2198080D01*
X2140080Y585000D02*
X2147000D01*
X2138080D02*
X2140080D01*
Y569000D02*
X2147000D01*
X2138080D02*
X2140080D01*
X2140000Y591000D02*
X2140080Y591080D01*
Y597000D01*
X2123000D02*
X2129920D01*
X2105920D02*
X2107000D01*
X2099000D02*
X2105920D01*
Y609000D02*
X2107000D01*
X2105920Y585000D02*
X2107000D01*
X2105920Y569000D02*
X2107000D01*
X2141000Y553000D02*
X2142000Y554000D01*
X2245002Y580000D02*
X2246000Y580998D01*
X2224596Y580000D02*
X2245002D01*
X2224374Y579778D02*
X2224596Y580000D01*
X2246000Y502000D02*
X2247000Y503000D01*
X2228080Y502000D02*
X2246000D01*
X2257080Y602000D02*
Y604000D01*
Y591920D02*
Y602000D01*
Y591920D02*
X2257080Y591920D01*
X2269000Y459000D02*
X2277000Y467000D01*
X2259000Y459000D02*
X2269000D01*
X2247000Y447000D02*
X2259000Y459000D01*
X2246000Y447000D02*
X2247000D01*
X2239200Y440200D02*
X2246000Y447000D01*
X2234000Y420000D02*
X2235000Y419000D01*
X2273000Y574998D02*
Y579998D01*
X2257080Y543998D02*
X2257998D01*
X2246281Y533278D02*
X2247000Y533998D01*
X2247080Y533998D02*
X2247998D01*
X2257080Y553000D02*
X2257080D01*
X2256162D02*
X2257080D01*
X2257080D02*
Y553918D01*
Y543998D02*
Y553000D01*
X2257000Y553998D02*
X2257080Y553918D01*
X2246920Y621920D02*
X2247000Y622000D01*
X2246920Y591998D02*
Y614078D01*
X2224596Y593000D02*
X2244000D01*
X2224374Y592778D02*
X2224596Y593000D01*
X2257000Y532998D02*
X2257080Y532918D01*
X2213000Y633000D02*
X2218998D01*
X2213000Y632000D02*
Y633000D01*
X2168096Y547000D02*
X2168374Y547278D01*
X2166000Y540000D02*
X2167000Y541000D01*
X2116000Y579000D02*
X2130000D01*
X2082000D02*
X2116000D01*
X2082000D02*
Y584000D01*
X2116000Y563000D02*
X2130000D01*
X2082000D02*
X2116000D01*
X2082000D02*
Y568000D01*
X2116000Y563000D02*
Y567000D01*
X2165720Y586278D02*
X2166000Y585998D01*
X2165000Y586998D02*
X2165720Y586278D01*
X2168374D01*
X443000Y830000D02*
X443000Y830000D01*
X442920Y829920D02*
X443000Y830000D01*
X444920D02*
X445000D01*
X443000D02*
X444920D01*
Y900000D02*
Y900000D01*
Y900000D02*
X445000D01*
X420000Y840000D02*
X420080Y839920D01*
X430000D01*
X420000Y840000D02*
X420000D01*
X444920Y845080D02*
X445000Y845000D01*
X444920Y830000D02*
Y845080D01*
X485000Y875000D02*
X485000Y875000D01*
Y850000D02*
Y875000D01*
X444920Y849920D02*
X445000Y850000D01*
X483000Y855000D02*
X483000Y855000D01*
X1435000Y216000D02*
X1436000Y217000D01*
X2234000Y384000D02*
Y389000D01*
X2257000Y409000D02*
X2265000Y401000D01*
X2257000Y409000D02*
Y435900D01*
X2267300Y446200D01*
X2246800Y407000D02*
X2248000D01*
X2307000D02*
X2311000Y411000D01*
X2275000Y407000D02*
X2307000D01*
X2267500Y414500D02*
X2275000Y407000D01*
X2310800Y446200D02*
X2312000Y445000D01*
X2239000Y414800D02*
X2246800Y407000D01*
X2271000Y436000D02*
X2271080D01*
X2098002Y533998D02*
X2151998D01*
X1998000Y555998D02*
X2022002D01*
X2180000Y503000D02*
Y553998D01*
X2173000D02*
X2180000D01*
X2228080Y504918D02*
Y520078D01*
Y503000D02*
Y504918D01*
X2198000Y533998D02*
X2220000D01*
X2151998D02*
X2156000Y534000D01*
X2235780Y566778D02*
X2239000Y569998D01*
X2228184Y566778D02*
X2235780D01*
X2257080Y622000D02*
X2273000D01*
X2257080Y633000D02*
Y634920D01*
Y622000D02*
Y632000D01*
X2257000Y635000D02*
X2257080Y634920D01*
X2246920Y612000D02*
Y621920D01*
X2165000Y586998D02*
X2167000D01*
X2166721Y573278D02*
X2168374D01*
X2166721D02*
X2167000Y573000D01*
X2168374Y547278D02*
X2168721D01*
X2169000Y547000D01*
X1756000Y365000D02*
X1760000Y369000D01*
X485000Y770080D02*
Y789000D01*
X1869080Y620000D02*
X1876000D01*
X485000Y380000D02*
Y424920D01*
X460000Y435000D02*
X485000D01*
X460000Y555000D02*
X485000D01*
X460000Y640000D02*
X485000D01*
X460000Y760000D02*
X485000D01*
Y770000D02*
Y770080D01*
X2214000Y621998D02*
X2220000D01*
X1856000Y569000D02*
X1856920D01*
X1850000Y619998D02*
X1857920D01*
X1888102Y479896D02*
X1889000Y478998D01*
X1888000Y479998D02*
X1888102Y479896D01*
X2224594Y540998D02*
X2237000D01*
X2187860Y501480D02*
X2187940Y501560D01*
X2197940D02*
X2198020Y501480D01*
X1990782Y606896D02*
X2005018Y606980D01*
X2005000Y606998D02*
X2005018Y606980D01*
X1990884Y606998D02*
X2005000D01*
X1990782Y606896D02*
X1990884Y606998D01*
X1849000Y568998D02*
X1856920D01*
X1850000Y631998D02*
X1857920D01*
X1889000Y631998D02*
X1890000Y632998D01*
X1869080Y631998D02*
X1887000D01*
X1849000Y517998D02*
X1856920D01*
X1894000Y517998D02*
X1895000Y516998D01*
X2257000Y563998D02*
X2257080D01*
X2264000D01*
X2245000Y552998D02*
Y553998D01*
X2238000D02*
X2245000D01*
X2238000Y553998D02*
X2238000Y553998D01*
X1999000Y517998D02*
X2003000D01*
X2014920D01*
X2001000Y529998D02*
X2002000Y530998D01*
X2013920Y633998D02*
X2014920Y632998D01*
X1997000Y630998D02*
X1999000Y632998D01*
X2013920D01*
X1999000Y619998D02*
X2007000D01*
X2024000Y621158D02*
Y621998D01*
X2231000Y621998D02*
Y629918D01*
X1994000Y644998D02*
X2014920D01*
Y645998D02*
X2015000D01*
X2014920Y632998D02*
X2015000D01*
X1999000Y479998D02*
X2014920D01*
X1997000Y492998D02*
X2014920D01*
X2228000Y504998D02*
X2228080Y504918D01*
Y520078D02*
X2229000Y520998D01*
X2160998Y566909D02*
X2168374Y566778D01*
X2160998Y566909D02*
X2160998D01*
X2166920Y585918D02*
X2167000Y585998D01*
X2257080Y512998D02*
Y513918D01*
X2257000Y513998D02*
X2257080Y513918D01*
X2228000Y553998D02*
X2238000D01*
X2224374Y540778D02*
X2224594Y540998D01*
X2224155Y566998D02*
X2224374Y566778D01*
X1990580Y568998D02*
X1990782Y568796D01*
X2224155Y592998D02*
X2224374Y592778D01*
D16*
X1888080Y632918D02*
X1889000Y631998D01*
D18*
X2110000Y734920D02*
D03*
Y745080D02*
D03*
X2095000Y734920D02*
D03*
Y745080D02*
D03*
X2080000Y734920D02*
D03*
Y745080D02*
D03*
X2065000Y734920D02*
D03*
Y745080D02*
D03*
X978500Y587580D02*
D03*
Y577420D02*
D03*
X1955000Y677080D02*
D03*
Y666920D02*
D03*
X1965000Y677080D02*
D03*
Y666920D02*
D03*
X1940000Y711920D02*
D03*
Y722080D02*
D03*
X1950000Y711920D02*
D03*
Y722080D02*
D03*
X2035000Y734920D02*
D03*
Y745080D02*
D03*
X2020000D02*
D03*
Y734920D02*
D03*
X2005000D02*
D03*
Y745080D02*
D03*
X2232000Y841920D02*
D03*
Y852080D02*
D03*
X2221000Y841920D02*
D03*
Y852080D02*
D03*
X420000Y890080D02*
D03*
Y879920D02*
D03*
X430000D02*
D03*
Y890080D02*
D03*
X2273000Y581920D02*
D03*
Y592080D02*
D03*
X1780000Y641080D02*
D03*
Y630920D02*
D03*
Y454920D02*
D03*
Y465080D02*
D03*
X1780000Y485000D02*
D03*
Y495160D02*
D03*
X1780000Y585080D02*
D03*
Y574920D02*
D03*
X1795000Y485000D02*
D03*
Y495160D02*
D03*
X1795000Y585080D02*
D03*
Y574920D02*
D03*
Y454920D02*
D03*
Y465080D02*
D03*
Y641080D02*
D03*
Y630920D02*
D03*
X330000Y849920D02*
D03*
Y860080D02*
D03*
X340000Y849920D02*
D03*
Y860080D02*
D03*
X420000Y840000D02*
D03*
Y850160D02*
D03*
X485000Y435080D02*
D03*
Y424920D02*
D03*
Y640080D02*
D03*
Y629920D02*
D03*
Y554920D02*
D03*
Y565080D02*
D03*
Y759920D02*
D03*
Y770080D02*
D03*
X430000Y850080D02*
D03*
Y839920D02*
D03*
X1715000Y614920D02*
D03*
Y625080D02*
D03*
X1866000Y588920D02*
D03*
Y599080D02*
D03*
X1867000Y498080D02*
D03*
Y487920D02*
D03*
X2050000Y734920D02*
D03*
Y745080D02*
D03*
X1715000Y465080D02*
D03*
Y454920D02*
D03*
X1560000Y780080D02*
D03*
Y769920D02*
D03*
Y294920D02*
D03*
Y305080D02*
D03*
X2273000Y552920D02*
D03*
Y563080D02*
D03*
D19*
X2165000Y893954D02*
D03*
Y866046D02*
D03*
Y816046D02*
D03*
Y843954D02*
D03*
X2140000Y816046D02*
D03*
Y843954D02*
D03*
Y893954D02*
D03*
Y866046D02*
D03*
X1759968Y403906D02*
D03*
Y375998D02*
D03*
X1784968Y403906D02*
D03*
Y375998D02*
D03*
X1809967Y403906D02*
D03*
Y375998D02*
D03*
X1834967Y403906D02*
D03*
Y375998D02*
D03*
X1859967Y403906D02*
D03*
Y375998D02*
D03*
X1885000Y403954D02*
D03*
Y376046D02*
D03*
X1885033Y286094D02*
D03*
Y314002D02*
D03*
X1860033Y286094D02*
D03*
Y314002D02*
D03*
X1835034Y286094D02*
D03*
Y314002D02*
D03*
X1810034Y286094D02*
D03*
Y314002D02*
D03*
X1785034Y286094D02*
D03*
Y314002D02*
D03*
X1760034Y286094D02*
D03*
Y314002D02*
D03*
X1760000Y807954D02*
D03*
Y780046D02*
D03*
X1784966Y807906D02*
D03*
Y779998D02*
D03*
X1810000Y807954D02*
D03*
Y780046D02*
D03*
X1835000Y807954D02*
D03*
Y780046D02*
D03*
X1860000Y807954D02*
D03*
Y780046D02*
D03*
X1884967Y807906D02*
D03*
Y779998D02*
D03*
X1885000Y692046D02*
D03*
Y719954D02*
D03*
X1860000Y692046D02*
D03*
Y719954D02*
D03*
X1835000Y692046D02*
D03*
Y719954D02*
D03*
X1810000Y692046D02*
D03*
Y719954D02*
D03*
X1785000Y692046D02*
D03*
Y719954D02*
D03*
X1760034Y692094D02*
D03*
Y720002D02*
D03*
D20*
X2110080Y720000D02*
D03*
X2099920D02*
D03*
X2025080Y430000D02*
D03*
X2014920D02*
D03*
X2025080Y460000D02*
D03*
X2014920D02*
D03*
X2025080Y450000D02*
D03*
X2014920D02*
D03*
X2025080Y440000D02*
D03*
X2014920D02*
D03*
X2099920Y705000D02*
D03*
X2110080D02*
D03*
X2230080Y880000D02*
D03*
X2219920D02*
D03*
X2220920Y831000D02*
D03*
X2231080D02*
D03*
X2210080Y900000D02*
D03*
X2199920D02*
D03*
X2230080Y815000D02*
D03*
X2219920D02*
D03*
Y803000D02*
D03*
X2230080D02*
D03*
X2232080Y863000D02*
D03*
X2221920D02*
D03*
X2210080Y870000D02*
D03*
X2199920D02*
D03*
Y880000D02*
D03*
X2210080D02*
D03*
X2209920Y890000D02*
D03*
X2220080D02*
D03*
X2081920Y609000D02*
D03*
X2092080D02*
D03*
X2081920Y569000D02*
D03*
X2092080D02*
D03*
X444920Y900000D02*
D03*
X455080D02*
D03*
X2282080Y425000D02*
D03*
X2271920D02*
D03*
Y436000D02*
D03*
X2282080D02*
D03*
X2257080Y512000D02*
D03*
X2246920D02*
D03*
X2140080Y585000D02*
D03*
X2129920D02*
D03*
X2257080Y622000D02*
D03*
X2246920D02*
D03*
X2116080Y609000D02*
D03*
X2105920D02*
D03*
X2231080Y632998D02*
D03*
X2220920D02*
D03*
X2257080Y532000D02*
D03*
X2246920D02*
D03*
X2172080Y502000D02*
D03*
X2161920D02*
D03*
X2231080Y621998D02*
D03*
X2220920D02*
D03*
X2246920Y633000D02*
D03*
X2257080D02*
D03*
X2257080Y602000D02*
D03*
X2246920D02*
D03*
X1869080Y631998D02*
D03*
X1858920D02*
D03*
X2257080Y563998D02*
D03*
X2246920D02*
D03*
X2257080Y553000D02*
D03*
X2246920D02*
D03*
X2129920Y609000D02*
D03*
X2140080D02*
D03*
X2092080Y585000D02*
D03*
X2081920D02*
D03*
X2187920Y502000D02*
D03*
X2198080D02*
D03*
X2257080Y580000D02*
D03*
X2246920D02*
D03*
Y591000D02*
D03*
X2257080D02*
D03*
X1869080Y619998D02*
D03*
X1858920D02*
D03*
X444920Y830000D02*
D03*
X455080D02*
D03*
X2049080Y621000D02*
D03*
X2038920D02*
D03*
X2050080Y505000D02*
D03*
X2039920D02*
D03*
X2099920Y690000D02*
D03*
X2110080D02*
D03*
X2105920Y597000D02*
D03*
X2116080D02*
D03*
X2129920D02*
D03*
X2140080D02*
D03*
X2129920Y621000D02*
D03*
X2140080D02*
D03*
X2105920D02*
D03*
X2116080D02*
D03*
X1868080Y517998D02*
D03*
X1857920D02*
D03*
X1868080Y568998D02*
D03*
X1857920D02*
D03*
X2049080Y646000D02*
D03*
X2038920D02*
D03*
X2049080Y633000D02*
D03*
X2038920D02*
D03*
X2025080Y621000D02*
D03*
X2014920D02*
D03*
X2026080Y504998D02*
D03*
X2015920D02*
D03*
X2025080Y633000D02*
D03*
X2014920D02*
D03*
X2025080Y645998D02*
D03*
X2014920D02*
D03*
X2015920Y530998D02*
D03*
X2026080D02*
D03*
X2049080Y607000D02*
D03*
X2038920D02*
D03*
X2015920Y492998D02*
D03*
X2026080D02*
D03*
X2015920Y479998D02*
D03*
X2026080D02*
D03*
X2014920Y607000D02*
D03*
X2025080D02*
D03*
X2015920Y517998D02*
D03*
X2026080D02*
D03*
X2217920Y502000D02*
D03*
X2228080D02*
D03*
X2039920Y480000D02*
D03*
X2050080D02*
D03*
X2039920Y493000D02*
D03*
X2050080D02*
D03*
X2257080Y502000D02*
D03*
X2246920D02*
D03*
X2105920Y585000D02*
D03*
X2116080D02*
D03*
X2257080Y522000D02*
D03*
X2246920D02*
D03*
X2140080Y569000D02*
D03*
X2129920D02*
D03*
X2116080D02*
D03*
X2105920D02*
D03*
X2246920Y543000D02*
D03*
X2257080D02*
D03*
X2140080Y553000D02*
D03*
X2129920D02*
D03*
D21*
X2186250Y852500D02*
D03*
X2192750D02*
D03*
X2199250D02*
D03*
X2205750D02*
D03*
Y809500D02*
D03*
X2199250D02*
D03*
X2192750D02*
D03*
X2186250D02*
D03*
D22*
X1924000Y405000D02*
D03*
X1976000D02*
D03*
X1924000Y285000D02*
D03*
X1976000D02*
D03*
X1924000Y345000D02*
D03*
X1976000D02*
D03*
X1919000Y750000D02*
D03*
X1971000D02*
D03*
D23*
X1496000Y210000D02*
D03*
X1524000D02*
D03*
X1491000Y850000D02*
D03*
X1519000D02*
D03*
D24*
X1898782Y644996D02*
D03*
Y568796D02*
D03*
Y556096D02*
D03*
Y543396D02*
D03*
Y530696D02*
D03*
Y517996D02*
D03*
D25*
Y632296D02*
D03*
Y619596D02*
D03*
Y606896D02*
D03*
Y594196D02*
D03*
Y581496D02*
D03*
Y505296D02*
D03*
Y492596D02*
D03*
Y479896D02*
D03*
X1990782Y644996D02*
D03*
Y632296D02*
D03*
Y619596D02*
D03*
Y606896D02*
D03*
Y594196D02*
D03*
Y581496D02*
D03*
Y568796D02*
D03*
Y556096D02*
D03*
Y543396D02*
D03*
Y530696D02*
D03*
Y517996D02*
D03*
Y505296D02*
D03*
Y492596D02*
D03*
Y479896D02*
D03*
D26*
X2080000Y647700D02*
D03*
Y632300D02*
D03*
D27*
X2052300Y590000D02*
D03*
X2067700D02*
D03*
D28*
X1465000Y242954D02*
D03*
Y217046D02*
D03*
X1460000Y827046D02*
D03*
Y852954D02*
D03*
D29*
X910000Y530000D02*
D03*
X950000D02*
D03*
X950000Y845000D02*
D03*
X910000D02*
D03*
X950000Y495000D02*
D03*
X910000D02*
D03*
Y810000D02*
D03*
X950000D02*
D03*
X910000Y460000D02*
D03*
X950000D02*
D03*
Y775000D02*
D03*
X910000D02*
D03*
X950000Y425000D02*
D03*
X910000D02*
D03*
X910000Y740000D02*
D03*
X950000D02*
D03*
X910000Y390000D02*
D03*
X950000D02*
D03*
Y705000D02*
D03*
X910000D02*
D03*
X950000Y355000D02*
D03*
X910000D02*
D03*
Y670000D02*
D03*
X950000D02*
D03*
X910000Y320000D02*
D03*
X950000D02*
D03*
Y635000D02*
D03*
X910000D02*
D03*
X950000Y285000D02*
D03*
X910000D02*
D03*
Y600000D02*
D03*
X950000D02*
D03*
X910000Y250000D02*
D03*
X950000D02*
D03*
Y565000D02*
D03*
X910000D02*
D03*
X485000Y880000D02*
D03*
X445000D02*
D03*
X485000Y850000D02*
D03*
X445000D02*
D03*
D30*
X405000Y874000D02*
D03*
Y896000D02*
D03*
Y856000D02*
D03*
Y834000D02*
D03*
D31*
X2277000Y391500D02*
D03*
X2267500Y414500D02*
D03*
X2286500D02*
D03*
X2276800Y469200D02*
D03*
X2286300Y446200D02*
D03*
X2267300D02*
D03*
D32*
X1290000Y535000D02*
D03*
X1190000D02*
D03*
X1290000Y725000D02*
D03*
X1190000D02*
D03*
X1030000D02*
D03*
X1130000D02*
D03*
X1190000Y350000D02*
D03*
X1290000D02*
D03*
X1030000D02*
D03*
X1130000D02*
D03*
X1030000Y535000D02*
D03*
X1130000D02*
D03*
X1350000Y725000D02*
D03*
X1450000D02*
D03*
X1350000Y535000D02*
D03*
X1450000D02*
D03*
X1350000Y346998D02*
D03*
X1450000D02*
D03*
D33*
X386500Y875500D02*
D03*
Y894500D02*
D03*
X363500Y885000D02*
D03*
X351500Y875500D02*
D03*
Y894500D02*
D03*
X328500Y885000D02*
D03*
X386500Y835500D02*
D03*
Y854500D02*
D03*
X363500Y845000D02*
D03*
D34*
X1566000Y695000D02*
D03*
X1604000Y696000D02*
D03*
X2150000Y782000D02*
D03*
X2188000Y783000D02*
D03*
X674000Y600000D02*
D03*
X636000Y599000D02*
D03*
X819000Y851000D02*
D03*
X781000Y850000D02*
D03*
X636000Y849000D02*
D03*
X674000Y850000D02*
D03*
X781000Y229000D02*
D03*
X819000Y230000D02*
D03*
X674000Y231000D02*
D03*
X636000Y230000D02*
D03*
X781000Y479000D02*
D03*
X819000Y480000D02*
D03*
X781000Y429000D02*
D03*
X819000Y430000D02*
D03*
X781000Y379000D02*
D03*
X819000Y380000D02*
D03*
X781000Y329000D02*
D03*
X819000Y330000D02*
D03*
X781000Y279000D02*
D03*
X819000Y280000D02*
D03*
X674000Y481000D02*
D03*
X636000Y480000D02*
D03*
X673000Y431000D02*
D03*
X635000Y430000D02*
D03*
X674000Y381000D02*
D03*
X636000Y380000D02*
D03*
X674000Y331000D02*
D03*
X636000Y330000D02*
D03*
X674000Y281000D02*
D03*
X636000Y280000D02*
D03*
X819000Y601000D02*
D03*
X781000Y600000D02*
D03*
X819000Y651000D02*
D03*
X781000Y650000D02*
D03*
X819000Y701000D02*
D03*
X781000Y700000D02*
D03*
X819000Y751000D02*
D03*
X781000Y750000D02*
D03*
X819000Y801000D02*
D03*
X781000Y800000D02*
D03*
X636000Y799000D02*
D03*
X674000Y800000D02*
D03*
X636000Y749000D02*
D03*
X674000Y750000D02*
D03*
X636000Y699000D02*
D03*
X674000Y700000D02*
D03*
X636000Y649000D02*
D03*
X674000Y650000D02*
D03*
X1571000Y379000D02*
D03*
X1609000Y380000D02*
D03*
X1571000Y854000D02*
D03*
X1609000Y855000D02*
D03*
X1604000Y540000D02*
D03*
X1566000Y539000D02*
D03*
X1430000Y211000D02*
D03*
X1392000Y210000D02*
D03*
X1425000Y851000D02*
D03*
X1387000Y850000D02*
D03*
D35*
X2060000Y787000D02*
D03*
Y887000D02*
D03*
D36*
X2224374Y521278D02*
D03*
Y527778D02*
D03*
Y534278D02*
D03*
Y540778D02*
D03*
Y547278D02*
D03*
Y553778D02*
D03*
Y560278D02*
D03*
Y566778D02*
D03*
Y573278D02*
D03*
Y579778D02*
D03*
Y586278D02*
D03*
Y592778D02*
D03*
Y599278D02*
D03*
Y605778D02*
D03*
X2168374Y521278D02*
D03*
Y527778D02*
D03*
Y534278D02*
D03*
Y540778D02*
D03*
Y547278D02*
D03*
Y553778D02*
D03*
Y560278D02*
D03*
Y566778D02*
D03*
Y573278D02*
D03*
Y579778D02*
D03*
Y586278D02*
D03*
Y592778D02*
D03*
Y599278D02*
D03*
Y605778D02*
D03*
D37*
X2200500Y715000D02*
D03*
D38*
X2133000Y739000D02*
D03*
D39*
X2134000Y693000D02*
D03*
X1535000Y210000D02*
D03*
D40*
X1766000Y585000D02*
D03*
X1744000D02*
D03*
X1766000Y495000D02*
D03*
X1744000D02*
D03*
X1766000Y465000D02*
D03*
X1744000D02*
D03*
X1766000Y641000D02*
D03*
X1744000D02*
D03*
D41*
X1610000Y620000D02*
D03*
Y460000D02*
D03*
X1670000Y300000D02*
D03*
Y775000D02*
D03*
D42*
X1701440Y594600D02*
D03*
Y645400D02*
D03*
Y434600D02*
D03*
Y485400D02*
D03*
X1578560Y325400D02*
D03*
Y274600D02*
D03*
Y800400D02*
D03*
Y749600D02*
D03*
D75*
X1611000Y853000D02*
X1624000D01*
Y824000D02*
Y853000D01*
X1560000Y750000D02*
X1578560D01*
X1550000Y180000D02*
X1760000D01*
X1360000D02*
X1550000D01*
X1615000Y696000D02*
X1705000D01*
Y645000D02*
Y690000D01*
X1524000Y210000D02*
X1550000D01*
X1760000Y180000D02*
Y270000D01*
X1360000Y210000D02*
X1390000D01*
X1360000Y180000D02*
Y210000D01*
X1550000Y180000D02*
Y210000D01*
X1571000Y830000D02*
Y854000D01*
X1542000Y830000D02*
X1571000D01*
X1542000Y819000D02*
Y830000D01*
X910000Y205000D02*
Y250000D01*
X1700000Y540000D02*
X1702000D01*
X1680000D02*
X1700000D01*
X1604000D02*
X1680000D01*
X1535000Y710000D02*
Y715000D01*
Y695000D02*
Y710000D01*
X1609000Y855000D02*
X1611000Y853000D01*
X1535000Y695000D02*
X1561000D01*
X1535000Y750000D02*
X1560000D01*
X1535000Y715000D02*
Y750000D01*
X1578560Y749600D02*
Y750000D01*
X1458000Y539000D02*
Y541000D01*
Y539000D02*
X1566000D01*
X1526000Y379000D02*
X1571000D01*
X1507000Y274600D02*
X1578560D01*
X910000Y845000D02*
Y900000D01*
X910000Y775000D02*
Y810000D01*
Y705000D02*
Y740000D01*
Y635000D02*
Y670000D01*
Y565000D02*
Y600000D01*
Y495000D02*
Y525000D01*
X910000Y425000D02*
Y460000D01*
X910000Y355000D02*
Y385000D01*
Y285000D02*
Y315000D01*
D76*
X1867000Y480000D02*
Y488920D01*
X2099920Y705080D02*
Y720000D01*
Y705000D02*
Y705080D01*
X2206000Y599278D02*
Y632000D01*
Y599278D02*
X2224374D01*
X2100000Y675000D02*
X2194000D01*
X2099920D02*
Y690000D01*
Y705000D01*
X2110080Y690000D02*
X2135000D01*
X1878000Y607000D02*
X1897000D01*
X1866000D02*
X1878000D01*
X1867000Y480000D02*
X1887000D01*
X1867000Y506000D02*
X1890000D01*
X1867000Y500080D02*
Y506000D01*
X1866000Y600080D02*
Y607000D01*
Y581496D02*
Y589000D01*
Y581496D02*
X1894782D01*
D77*
X1732000Y615000D02*
Y712000D01*
X1541000D02*
X1732000D01*
X1810000Y565000D02*
X1816000D01*
X1805000Y560000D02*
X1810000Y565000D01*
X1456000Y560000D02*
X1805000D01*
X1830000Y480000D02*
X1830000Y615000D01*
X1732000D02*
X1830000D01*
X1732000Y435000D02*
Y503000D01*
X1718000Y435000D02*
X1732000D01*
X1718000Y435000D02*
X1718000Y435000D01*
X1718000Y435000D02*
X1722000D01*
X2099000Y706000D02*
X2099920Y705080D01*
X1965000Y706000D02*
X2099000D01*
X2186000Y807000D02*
Y809500D01*
X2184000Y804000D02*
X2185000Y805000D01*
X2168000Y804000D02*
X2184000D01*
X2158000Y794000D02*
X2168000Y804000D01*
X1723000Y595000D02*
X1742000D01*
X1878000Y531000D02*
X1898782D01*
X1917000Y620000D02*
Y706000D01*
X1908000Y620000D02*
X1917000D01*
X1878000Y493000D02*
X1893000D01*
X1737000Y595000D02*
X1745000D01*
X1720000Y592000D02*
X1723000Y595000D01*
X1456000Y560000D02*
Y568000D01*
X1745000Y651000D02*
Y720000D01*
X1610000D02*
X1745000D01*
X1830000Y480000D02*
X1895000D01*
X1740000Y465000D02*
X1745000D01*
X1740000Y405000D02*
Y465000D01*
X1590000Y405000D02*
X1740000D01*
X1590000Y327000D02*
Y405000D01*
X1720000Y592000D02*
Y594000D01*
X1878000Y556000D02*
X1898782D01*
X1816000Y485000D02*
Y556000D01*
X1795000Y485000D02*
X1816000D01*
X1878000Y594196D02*
X1898782D01*
X1795000Y455000D02*
X1823000D01*
Y565000D01*
X1794920Y631000D02*
X1837000D01*
X1794000D02*
X1794920D01*
X1780000Y503000D02*
X1794000D01*
X1745000D02*
X1780000D01*
X1732000D02*
X1745000D01*
X1780000Y595000D02*
X1794000D01*
X1780000Y651000D02*
X1794000D01*
X1745000D02*
X1780000D01*
X1541000Y706000D02*
Y710000D01*
X1535000D02*
X1541000D01*
X1520000D02*
X1535000D01*
X1745000Y595000D02*
X1780000D01*
X1837000Y493000D02*
Y631000D01*
X1795000Y485000D02*
Y485000D01*
X1878000Y594196D02*
X1878002Y594000D01*
X2158000Y786000D02*
Y794000D01*
X1744000Y641000D02*
X1745000D01*
X1795000Y454920D02*
Y455000D01*
X1610000Y720000D02*
Y800400D01*
X1578560D02*
X1610000D01*
X1585000Y327000D02*
X1586000D01*
X1878000Y543000D02*
X1893000D01*
D78*
X2099000Y632000D02*
X2099000Y632000D01*
X2185000D01*
X760000Y205000D02*
X910000D01*
X760000D02*
Y230000D01*
X2195000Y585000D02*
Y675000D01*
X2160000Y923000D02*
X2164000D01*
X2127000Y740000D02*
Y760000D01*
X1898782Y568796D02*
X1925000D01*
Y720000D01*
Y518000D02*
Y568796D01*
X1909000Y518000D02*
X1925000D01*
X2195000Y585000D02*
X2195000Y585000D01*
X2195000Y536998D02*
Y585000D01*
Y536998D02*
X2198000Y533998D01*
X950000Y805000D02*
Y810000D01*
X950000Y805000D02*
X950000Y805000D01*
X910000Y810000D02*
X910000Y810000D01*
X950000Y775000D02*
X950000Y775000D01*
X910000Y740000D02*
X910000Y740000D01*
X910000Y670000D02*
X910000Y670000D01*
X910000Y600000D02*
Y605000D01*
X910000Y605000D01*
X910000Y525000D02*
X910000Y525000D01*
X910000Y425000D02*
X910000Y425000D01*
X910000Y385000D02*
X910000Y385000D01*
X910000Y315000D02*
X910000Y315000D01*
X1888102Y479896D02*
X1898782D01*
D79*
X1450000Y346998D02*
Y351998D01*
Y285000D02*
Y346998D01*
X1290000Y350000D02*
Y355000D01*
Y285000D02*
Y350000D01*
X1130000D02*
Y355000D01*
Y285000D02*
Y350000D01*
X1190000D02*
Y355000D01*
Y345000D02*
Y350000D01*
X1030000Y725000D02*
Y765000D01*
Y535000D02*
Y725000D01*
X1450000Y381998D02*
Y535000D01*
X1290000Y385000D02*
Y535000D01*
X1350000Y381998D02*
Y535000D01*
X1190000D02*
Y685000D01*
Y385000D02*
Y535000D01*
X1300000Y285000D02*
X1450000D01*
X1140000D02*
X1290000D01*
X1130000Y535000D02*
Y685000D01*
Y385000D02*
Y535000D01*
X1030000Y385000D02*
Y535000D01*
D80*
X1669500Y839500D02*
D03*
D81*
X802500Y192500D02*
D03*
D82*
X1452500Y182500D02*
D03*
D83*
X1775000Y222500D02*
D03*
D84*
X1667500Y195000D02*
D03*
D85*
X2183500Y886000D02*
D03*
D86*
X2140000Y815000D02*
D03*
D87*
X2165000Y900000D02*
D03*
X2140000Y855000D02*
D03*
D88*
X2140000Y900000D02*
D03*
X2165000Y855000D02*
D03*
D89*
X2162500Y855000D02*
D03*
D90*
X530000Y295000D02*
D03*
D91*
X2200000Y757500D02*
D03*
D92*
X2064000Y940000D02*
D03*
D93*
X1975000Y761500D02*
D03*
D94*
X1945000Y832500D02*
D03*
D95*
X2070000Y385000D02*
D03*
X2055000Y405000D02*
D03*
D96*
X2032500Y305000D02*
D03*
D97*
X2012500Y345000D02*
D03*
D98*
X1982500Y273500D02*
D03*
D99*
X1900000Y750000D02*
D03*
D100*
X1822500Y827500D02*
D03*
D101*
Y672500D02*
D03*
D102*
X1910000Y285000D02*
D03*
D103*
X1910000Y405000D02*
D03*
D104*
X1900500Y345000D02*
D03*
D105*
X1830000Y267500D02*
D03*
D106*
X2110000Y375000D02*
D03*
D107*
X1900000Y212500D02*
D03*
D108*
X2212000Y784500D02*
D03*
D109*
X2013500Y834500D02*
D03*
D110*
X2102000Y787000D02*
D03*
D111*
X2062500Y885000D02*
D03*
D112*
X2209000Y795500D02*
D03*
D113*
X2065000Y761500D02*
D03*
D114*
X1659000Y691000D02*
D03*
D115*
X1699000Y665000D02*
D03*
D116*
X1656500Y535000D02*
D03*
D117*
X1699000Y507500D02*
D03*
D118*
X1379000Y845000D02*
D03*
D119*
X1669500Y363500D02*
D03*
D120*
X2105000Y285000D02*
D03*
X790000Y540000D02*
D03*
D121*
X980000Y827500D02*
D03*
Y757500D02*
D03*
Y687500D02*
D03*
Y617500D02*
D03*
Y547500D02*
D03*
Y477500D02*
D03*
Y407500D02*
D03*
Y337500D02*
D03*
Y267500D02*
D03*
D122*
X957500Y810000D02*
D03*
Y845000D02*
D03*
Y740000D02*
D03*
Y775000D02*
D03*
Y670000D02*
D03*
Y705000D02*
D03*
Y600000D02*
D03*
Y635000D02*
D03*
Y530000D02*
D03*
Y565000D02*
D03*
Y460000D02*
D03*
Y495000D02*
D03*
Y390000D02*
D03*
Y425000D02*
D03*
Y320000D02*
D03*
Y355000D02*
D03*
Y285000D02*
D03*
Y250000D02*
D03*
D123*
X1457500Y850000D02*
D03*
D124*
X1464500Y210000D02*
D03*
D125*
X1528000Y845000D02*
D03*
D126*
X1435000Y397500D02*
D03*
D127*
X1498750Y391000D02*
D03*
D128*
X480000Y685000D02*
D03*
D129*
X402500Y687500D02*
D03*
D130*
X830000Y850000D02*
D03*
X770000D02*
D03*
X690000D02*
D03*
X620000D02*
D03*
X625000Y230000D02*
D03*
X835000D02*
D03*
X690000D02*
D03*
X770000D02*
D03*
Y280000D02*
D03*
Y330000D02*
D03*
Y380000D02*
D03*
Y430000D02*
D03*
Y480000D02*
D03*
X620000Y330000D02*
D03*
Y280000D02*
D03*
X690000D02*
D03*
Y330000D02*
D03*
Y380000D02*
D03*
Y480000D02*
D03*
Y430000D02*
D03*
X620000Y380000D02*
D03*
Y430000D02*
D03*
Y480000D02*
D03*
Y800000D02*
D03*
Y750000D02*
D03*
Y700000D02*
D03*
Y650000D02*
D03*
Y600000D02*
D03*
X690000D02*
D03*
Y650000D02*
D03*
Y700000D02*
D03*
Y750000D02*
D03*
Y800000D02*
D03*
X765000D02*
D03*
X835000D02*
D03*
Y700000D02*
D03*
Y750000D02*
D03*
X765000D02*
D03*
Y700000D02*
D03*
Y650000D02*
D03*
Y600000D02*
D03*
X835000Y650000D02*
D03*
Y600000D02*
D03*
Y480000D02*
D03*
Y430000D02*
D03*
Y380000D02*
D03*
Y330000D02*
D03*
Y280000D02*
D03*
D131*
X727500Y347500D02*
D03*
D132*
X565000Y540000D02*
D03*
D133*
X865000D02*
D03*
D134*
X727500Y777500D02*
D03*
D135*
X1760000Y816000D02*
D03*
X1885000Y684000D02*
D03*
X1885000Y816000D02*
D03*
X1860000D02*
D03*
X1835000D02*
D03*
X1810000D02*
D03*
X1785000D02*
D03*
X1810000Y684000D02*
D03*
X1835000D02*
D03*
X1860000D02*
D03*
X1785000D02*
D03*
X1760000D02*
D03*
X1885000Y771000D02*
D03*
X1860000D02*
D03*
X1835000D02*
D03*
X1760000Y729000D02*
D03*
X1785000D02*
D03*
X1810000D02*
D03*
X1835000D02*
D03*
X1860000D02*
D03*
X1885000D02*
D03*
X1760000Y771000D02*
D03*
X1785000D02*
D03*
X1810000D02*
D03*
X1810000Y278000D02*
D03*
X1785000D02*
D03*
X1760000D02*
D03*
X1885000Y412000D02*
D03*
X1860000D02*
D03*
X1835000D02*
D03*
X1810000D02*
D03*
X1785000D02*
D03*
X1760000D02*
D03*
X1835000Y278000D02*
D03*
X1860000D02*
D03*
X1885000D02*
D03*
X1835000Y321000D02*
D03*
X1810000D02*
D03*
X1785000D02*
D03*
X1760000D02*
D03*
X1760000Y369000D02*
D03*
X1785000D02*
D03*
X1810000D02*
D03*
X1835000D02*
D03*
X1860000D02*
D03*
X1885000D02*
D03*
X1885000Y321000D02*
D03*
X1860000D02*
D03*
D136*
X1835000Y422000D02*
D03*
D137*
X1765000Y345000D02*
D03*
D138*
X1513250Y736000D02*
D03*
D139*
X1571000Y620000D02*
D03*
D140*
X1754500Y750000D02*
D03*
D141*
X1367500Y920000D02*
D03*
D142*
X1120000Y493500D02*
D03*
D143*
X1040000Y535000D02*
D03*
D144*
X1197500Y550000D02*
D03*
D145*
X1357500Y555000D02*
D03*
D146*
X1285000Y526000D02*
D03*
D147*
X1551000Y460500D02*
D03*
D148*
X1437500Y523500D02*
D03*
D149*
X1324000Y270000D02*
D03*
D150*
X1281000Y802500D02*
D03*
D151*
X2240000Y317500D02*
D03*
Y182500D02*
D03*
X420000D02*
D03*
Y317500D02*
D03*
D152*
X2180000Y286000D02*
D03*
Y214000D02*
D03*
X480000D02*
D03*
Y286000D02*
D03*
D153*
X2315200Y465600D02*
D03*
X2239000D02*
D03*
X2315200Y389400D02*
D03*
Y414800D02*
D03*
Y440200D02*
D03*
X2239000D02*
D03*
Y414800D02*
D03*
Y389400D02*
D03*
D154*
X459148Y642067D02*
D03*
Y619167D02*
D03*
Y733467D02*
D03*
Y756367D02*
D03*
X410848Y723367D02*
D03*
X393048Y713167D02*
D03*
X410848Y702967D02*
D03*
X393048Y692767D02*
D03*
X410848Y682567D02*
D03*
X393048Y672367D02*
D03*
X410848Y662167D02*
D03*
X459148Y437067D02*
D03*
Y414168D02*
D03*
Y528467D02*
D03*
Y551367D02*
D03*
X410848Y518368D02*
D03*
X393048Y508167D02*
D03*
X410848Y497967D02*
D03*
X393048Y487767D02*
D03*
X410848Y477567D02*
D03*
X393048Y467368D02*
D03*
X410848Y457168D02*
D03*
D155*
X401948Y606467D02*
D03*
Y769067D02*
D03*
Y401468D02*
D03*
Y564067D02*
D03*
D156*
X367648Y624267D02*
D03*
Y751267D02*
D03*
Y419268D02*
D03*
Y546268D02*
D03*
D157*
X393048Y651967D02*
D03*
Y446968D02*
D03*
D158*
X2060000Y670000D02*
D03*
X2042000D02*
D03*
X485000Y585000D02*
D03*
X340000Y800000D02*
D03*
X330000Y805000D02*
D03*
X2120000Y705000D02*
D03*
Y720000D02*
D03*
X2183000Y890000D02*
D03*
X2200000D02*
D03*
X2218000Y900000D02*
D03*
X2240000Y863000D02*
D03*
X2016000Y538000D02*
D03*
X2206000Y632000D02*
D03*
X2099000Y632000D02*
D03*
X2185000D02*
D03*
X1910000Y700000D02*
D03*
X2080000Y725000D02*
D03*
X2065000D02*
D03*
X485000Y830000D02*
D03*
Y900000D02*
D03*
X515000Y850000D02*
D03*
X375000Y895000D02*
D03*
X2042000Y440000D02*
D03*
Y460000D02*
D03*
X1809000Y575000D02*
D03*
X2162000Y494000D02*
D03*
X1917000Y706000D02*
D03*
X1965000D02*
D03*
X1878000Y493000D02*
D03*
X1816000Y565000D02*
D03*
X2213000Y622000D02*
D03*
X2021000Y469000D02*
D03*
X1955000Y479000D02*
D03*
X1965000D02*
D03*
X2041000Y590000D02*
D03*
X2062000Y559000D02*
D03*
X2034000Y531000D02*
D03*
X2060000Y460000D02*
D03*
X2005000Y725000D02*
D03*
X2020000D02*
D03*
X2035000D02*
D03*
X2050000D02*
D03*
X1955000Y700000D02*
D03*
X2265000Y602000D02*
D03*
X2265000Y591000D02*
D03*
X2265000Y580000D02*
D03*
Y502000D02*
D03*
X1823000Y565000D02*
D03*
X1955000Y285000D02*
D03*
X1945000D02*
D03*
X1965000Y695000D02*
D03*
Y685000D02*
D03*
X1837000Y493000D02*
D03*
X1816000Y556000D02*
D03*
X2195000Y585000D02*
D03*
X2099000Y621000D02*
D03*
X1878000Y543000D02*
D03*
X2056000Y607000D02*
D03*
X2032000Y620998D02*
D03*
X2033000Y505000D02*
D03*
X2237000Y586000D02*
D03*
X2123000Y621000D02*
D03*
Y597000D02*
D03*
X2099000D02*
D03*
X2147000Y569000D02*
D03*
Y585000D02*
D03*
Y609000D02*
D03*
X2099000Y585000D02*
D03*
Y609000D02*
D03*
Y569000D02*
D03*
X2123000Y553000D02*
D03*
X2265000Y532000D02*
D03*
X420000Y870000D02*
D03*
Y860000D02*
D03*
X1878000Y607000D02*
D03*
X1878000Y556000D02*
D03*
Y594000D02*
D03*
X1878000Y531000D02*
D03*
X1850000Y619998D02*
D03*
X2237000Y540998D02*
D03*
X1849000Y568998D02*
D03*
X1850000Y631998D02*
D03*
X1849000Y517998D02*
D03*
X2009000Y530998D02*
D03*
X2265000Y563998D02*
D03*
X2009000Y594000D02*
D03*
D159*
X2120000Y815000D02*
D03*
X2165000Y910000D02*
D03*
X2140000D02*
D03*
X2100000Y395000D02*
D03*
X2120000D02*
D03*
X2140000D02*
D03*
X2110000Y385000D02*
D03*
X2130000D02*
D03*
Y365000D02*
D03*
X2110000D02*
D03*
X2140000Y375000D02*
D03*
X2120000D02*
D03*
X2100000D02*
D03*
X2130000Y345000D02*
D03*
X2110000D02*
D03*
X2140000Y355000D02*
D03*
X2120000D02*
D03*
X2100000D02*
D03*
X2110000Y405000D02*
D03*
X2130000D02*
D03*
X2090000D02*
D03*
X2080000Y355000D02*
D03*
X2090000Y345000D02*
D03*
X2080000Y375000D02*
D03*
X2090000Y365000D02*
D03*
Y385000D02*
D03*
X2080000Y395000D02*
D03*
X1785000Y905000D02*
D03*
Y940000D02*
D03*
X1865000Y905000D02*
D03*
Y940000D02*
D03*
X1825000D02*
D03*
Y905000D02*
D03*
X1820000Y230000D02*
D03*
X1835000Y220000D02*
D03*
Y200000D02*
D03*
X1820000Y210000D02*
D03*
X1835000Y180000D02*
D03*
X1820000Y190000D02*
D03*
X1835000Y240000D02*
D03*
X1895000D02*
D03*
X1865000D02*
D03*
X2195000Y675000D02*
D03*
X1710000Y665000D02*
D03*
X1690000D02*
D03*
X1680000Y675000D02*
D03*
X1690000Y685000D02*
D03*
X1700000Y675000D02*
D03*
X1710000Y685000D02*
D03*
X1680000Y695000D02*
D03*
X1700000D02*
D03*
X1720000Y675000D02*
D03*
Y695000D02*
D03*
X1710000Y530000D02*
D03*
X1690000D02*
D03*
X1680000Y540000D02*
D03*
X1700000D02*
D03*
X1720000D02*
D03*
X1690000Y510000D02*
D03*
X1710000D02*
D03*
X1720000Y520000D02*
D03*
X1700000D02*
D03*
X1680000D02*
D03*
X2205000Y785000D02*
D03*
X2220000Y770000D02*
D03*
X2205000Y755000D02*
D03*
X1925000Y720000D02*
D03*
X2005000Y760000D02*
D03*
X2200000Y715000D02*
D03*
X2220000Y735000D02*
D03*
Y695000D02*
D03*
X2180000D02*
D03*
Y735000D02*
D03*
X1885000Y825000D02*
D03*
X1860000D02*
D03*
X1835000D02*
D03*
X1810000D02*
D03*
X1785000D02*
D03*
X1760000D02*
D03*
Y675000D02*
D03*
X1910000Y300000D02*
D03*
Y285000D02*
D03*
Y270000D02*
D03*
X1885000D02*
D03*
X1860000D02*
D03*
X1835000D02*
D03*
X1810000D02*
D03*
X1785000D02*
D03*
X1760000D02*
D03*
X1910000Y390000D02*
D03*
Y405000D02*
D03*
Y420000D02*
D03*
X1885000D02*
D03*
X1860000D02*
D03*
X1835000D02*
D03*
X1810000D02*
D03*
X1785000D02*
D03*
X1760000D02*
D03*
X1850000Y190000D02*
D03*
X1880000D02*
D03*
X1910000D02*
D03*
X1865000Y180000D02*
D03*
X1895000D02*
D03*
X1850000Y210000D02*
D03*
X1880000D02*
D03*
X1910000D02*
D03*
X1865000Y200000D02*
D03*
X1895000D02*
D03*
Y220000D02*
D03*
X1865000D02*
D03*
X1910000Y230000D02*
D03*
X1880000D02*
D03*
X1850000D02*
D03*
X1545000Y845000D02*
D03*
X745000Y940000D02*
D03*
X785000Y940000D02*
D03*
X1705000Y905000D02*
D03*
Y940000D02*
D03*
X1745000D02*
D03*
Y905000D02*
D03*
X1505000Y940000D02*
D03*
X1545000D02*
D03*
Y905000D02*
D03*
X1585000Y940000D02*
D03*
Y905000D02*
D03*
X1625000Y940000D02*
D03*
Y905000D02*
D03*
X1665000Y940000D02*
D03*
Y905000D02*
D03*
X1505000D02*
D03*
X1810000Y675000D02*
D03*
X1785000D02*
D03*
X860000Y529998D02*
D03*
Y549998D02*
D03*
X750000Y245000D02*
D03*
X735000Y235000D02*
D03*
X705000D02*
D03*
X720000Y245000D02*
D03*
X705000Y255000D02*
D03*
X735000D02*
D03*
X750000Y265000D02*
D03*
X720000D02*
D03*
X710000Y680000D02*
D03*
X745000D02*
D03*
Y645000D02*
D03*
X710000D02*
D03*
Y870000D02*
D03*
X745000D02*
D03*
Y830000D02*
D03*
X710000D02*
D03*
X745000Y790000D02*
D03*
X710000D02*
D03*
X745000Y750000D02*
D03*
X710000D02*
D03*
X745000Y715000D02*
D03*
X710000D02*
D03*
X865000Y940000D02*
D03*
Y905000D02*
D03*
X825000D02*
D03*
Y940000D02*
D03*
X785000Y905000D02*
D03*
X745000D02*
D03*
X710000D02*
D03*
Y940000D02*
D03*
X1065000D02*
D03*
Y905000D02*
D03*
X1025000D02*
D03*
Y940000D02*
D03*
X985000Y905000D02*
D03*
Y940000D02*
D03*
X945000Y905000D02*
D03*
Y940000D02*
D03*
X905000Y905000D02*
D03*
Y940000D02*
D03*
X1265000D02*
D03*
Y905000D02*
D03*
X1225000D02*
D03*
Y940000D02*
D03*
X1185000Y905000D02*
D03*
Y940000D02*
D03*
X1145000Y905000D02*
D03*
Y940000D02*
D03*
X1105000Y905000D02*
D03*
Y940000D02*
D03*
X1465000D02*
D03*
Y905000D02*
D03*
X1425000D02*
D03*
Y940000D02*
D03*
X1385000Y905000D02*
D03*
Y940000D02*
D03*
X1345000Y905000D02*
D03*
Y940000D02*
D03*
X1305000Y905000D02*
D03*
Y940000D02*
D03*
X1360000Y845000D02*
D03*
X790002Y565000D02*
D03*
X810002D02*
D03*
X800002Y530000D02*
D03*
X800002Y550000D02*
D03*
X780002Y530000D02*
D03*
Y550000D02*
D03*
X790002Y515000D02*
D03*
X810002D02*
D03*
X830002Y565000D02*
D03*
X850002D02*
D03*
X840002Y530000D02*
D03*
X840002Y550000D02*
D03*
X820002Y530000D02*
D03*
Y550000D02*
D03*
X830002Y515000D02*
D03*
X850002D02*
D03*
X710002Y565000D02*
D03*
X730002D02*
D03*
X720002Y530000D02*
D03*
X720002Y550000D02*
D03*
X700002Y530000D02*
D03*
Y550000D02*
D03*
X710002Y515000D02*
D03*
X730002D02*
D03*
X750002Y565000D02*
D03*
X770002D02*
D03*
X760002Y530000D02*
D03*
X760002Y550000D02*
D03*
X740002Y530000D02*
D03*
Y550000D02*
D03*
X750002Y515000D02*
D03*
X770002D02*
D03*
X750000Y464998D02*
D03*
X720000D02*
D03*
X735000Y474998D02*
D03*
X705000D02*
D03*
X750000Y444998D02*
D03*
Y424998D02*
D03*
X720000D02*
D03*
X735000Y434998D02*
D03*
X720000Y444998D02*
D03*
X735000Y454998D02*
D03*
X705000D02*
D03*
Y434998D02*
D03*
X750000Y404998D02*
D03*
Y384998D02*
D03*
X720000D02*
D03*
X735000Y394998D02*
D03*
X720000Y404998D02*
D03*
X735000Y414998D02*
D03*
X705000D02*
D03*
Y394998D02*
D03*
X750000Y364998D02*
D03*
Y344998D02*
D03*
X720000D02*
D03*
X735000Y354998D02*
D03*
X720000Y364998D02*
D03*
X735000Y374998D02*
D03*
X705000D02*
D03*
Y354998D02*
D03*
X750000Y324998D02*
D03*
Y304998D02*
D03*
X720000D02*
D03*
X735000Y314998D02*
D03*
X720000Y324998D02*
D03*
X735000Y334998D02*
D03*
X705000D02*
D03*
Y314998D02*
D03*
X750000Y284998D02*
D03*
X735000Y274998D02*
D03*
X720000Y284998D02*
D03*
X735000Y294998D02*
D03*
X705000D02*
D03*
Y274998D02*
D03*
X1885000Y675000D02*
D03*
X1860000D02*
D03*
X1835000D02*
D03*
M02*
