G04*
G04 #@! TF.GenerationSoftware,Altium Limited,Altium Designer,18.1.7 (191)*
G04*
G04 Layer_Color=65535*
%FSLAX44Y44*%
%MOMM*%
G71*
G01*
G75*
%ADD10C,0.2000*%
%ADD11C,0.2500*%
%ADD12C,0.6000*%
%ADD13C,0.2032*%
%ADD14C,0.1500*%
%ADD15C,0.2540*%
%ADD16C,0.1270*%
D10*
X2313500Y567000D02*
G03*
X2313500Y567000I-500J0D01*
G01*
X2281300Y593700D02*
G03*
X2281300Y593700I-500J0D01*
G01*
X549500Y904000D02*
G03*
X549500Y904000I-500J0D01*
G01*
X381358Y602207D02*
G03*
X381358Y602207I-1000J0D01*
G01*
X509500Y884000D02*
G03*
X509500Y884000I-500J0D01*
G01*
Y924000D02*
G03*
X509500Y924000I-500J0D01*
G01*
X381358Y407207D02*
G03*
X381358Y407207I-1000J0D01*
G01*
X1507000Y228900D02*
X1523000D01*
X1507000Y227000D02*
X1523000D01*
Y233000D01*
X1507000Y227000D02*
Y233000D01*
X1502000Y846100D02*
X1518000D01*
X1502000Y848000D02*
X1518000D01*
X1502000Y842000D02*
Y848000D01*
X1518000Y842000D02*
Y848000D01*
X918000Y538999D02*
X942000D01*
X938500Y521500D02*
Y538000D01*
X918000Y521000D02*
X942000D01*
X918000Y535500D02*
Y538999D01*
Y521000D02*
Y524500D01*
X942000Y521000D02*
Y539000D01*
X918000Y836001D02*
X942000D01*
X921500Y837000D02*
Y853500D01*
X918000Y854000D02*
X942000D01*
Y836001D02*
Y839500D01*
Y850500D02*
Y854000D01*
X918000Y836000D02*
Y854000D01*
Y486001D02*
X942000D01*
X921500Y487000D02*
Y503500D01*
X918000Y504000D02*
X942000D01*
Y486001D02*
Y489500D01*
Y500500D02*
Y504000D01*
X918000Y486000D02*
Y504000D01*
Y818999D02*
X942000D01*
X938500Y801500D02*
Y818000D01*
X918000Y801000D02*
X942000D01*
X918000Y815500D02*
Y818999D01*
Y801000D02*
Y804500D01*
X942000Y801000D02*
Y819000D01*
X918000Y468999D02*
X942000D01*
X938500Y451500D02*
Y468000D01*
X918000Y451000D02*
X942000D01*
X918000Y465500D02*
Y468999D01*
Y451000D02*
Y454500D01*
X942000Y451000D02*
Y469000D01*
X918000Y766001D02*
X942000D01*
X921500Y767000D02*
Y783500D01*
X918000Y784000D02*
X942000D01*
Y766001D02*
Y769500D01*
Y780500D02*
Y784000D01*
X918000Y766000D02*
Y784000D01*
Y416001D02*
X942000D01*
X921500Y417000D02*
Y433500D01*
X918000Y434000D02*
X942000D01*
Y416001D02*
Y419500D01*
Y430500D02*
Y434000D01*
X918000Y416000D02*
Y434000D01*
X918000Y748999D02*
X942000D01*
X938500Y731500D02*
Y748000D01*
X918000Y731000D02*
X942000D01*
X918000Y745500D02*
Y748999D01*
Y731000D02*
Y734500D01*
X942000Y731000D02*
Y749000D01*
X918000Y398999D02*
X942000D01*
X938500Y381500D02*
Y398000D01*
X918000Y381000D02*
X942000D01*
X918000Y395500D02*
Y398999D01*
Y381000D02*
Y384500D01*
X942000Y381000D02*
Y399000D01*
X918000Y696001D02*
X942000D01*
X921500Y697000D02*
Y713500D01*
X918000Y714000D02*
X942000D01*
Y696001D02*
Y699500D01*
Y710500D02*
Y714000D01*
X918000Y696000D02*
Y714000D01*
Y346001D02*
X942000D01*
X921500Y347000D02*
Y363500D01*
X918000Y364000D02*
X942000D01*
Y346001D02*
Y349500D01*
Y360500D02*
Y364000D01*
X918000Y346000D02*
Y364000D01*
Y678999D02*
X942000D01*
X938500Y661500D02*
Y678000D01*
X918000Y661000D02*
X942000D01*
X918000Y675500D02*
Y678999D01*
Y661000D02*
Y664500D01*
X942000Y661000D02*
Y679000D01*
X918000Y328999D02*
X942000D01*
X938500Y311500D02*
Y328000D01*
X918000Y311000D02*
X942000D01*
X918000Y325500D02*
Y328999D01*
Y311000D02*
Y314500D01*
X942000Y311000D02*
Y329000D01*
X918000Y626001D02*
X942000D01*
X921500Y627000D02*
Y643500D01*
X918000Y644000D02*
X942000D01*
Y626001D02*
Y629500D01*
Y640500D02*
Y644000D01*
X918000Y626000D02*
Y644000D01*
Y276001D02*
X942000D01*
X921500Y277000D02*
Y293500D01*
X918000Y294000D02*
X942000D01*
Y276001D02*
Y279500D01*
Y290500D02*
Y294000D01*
X918000Y276000D02*
Y294000D01*
Y608999D02*
X942000D01*
X938500Y591500D02*
Y608000D01*
X918000Y591000D02*
X942000D01*
X918000Y605500D02*
Y608999D01*
Y591000D02*
Y594500D01*
X942000Y591000D02*
Y609000D01*
X918000Y258999D02*
X942000D01*
X938500Y241500D02*
Y258000D01*
X918000Y241000D02*
X942000D01*
X918000Y255500D02*
Y258999D01*
Y241000D02*
Y244500D01*
X942000Y241000D02*
Y259000D01*
X918000Y556001D02*
X942000D01*
X921500Y557000D02*
Y573500D01*
X918000Y574000D02*
X942000D01*
Y556001D02*
Y559500D01*
Y570500D02*
Y574000D01*
X918000Y556000D02*
Y574000D01*
X562000Y942000D02*
X568000D01*
X562000Y928000D02*
X568000D01*
X562000Y912000D02*
X568000D01*
X562000Y898000D02*
X568000D01*
X638000Y926001D02*
X662000D01*
X641500Y927000D02*
Y943500D01*
X638000Y944000D02*
X662000D01*
Y926001D02*
Y929500D01*
Y940500D02*
Y944000D01*
X638000Y926000D02*
Y944000D01*
X1771500Y645000D02*
Y660000D01*
X2509000Y494500D02*
X2524000D01*
X665000Y616000D02*
X680000D01*
X665000Y583500D02*
X680000D01*
X638000Y896001D02*
X662000D01*
X641500Y897000D02*
Y913500D01*
X638000Y914000D02*
X662000D01*
Y896001D02*
Y899500D01*
Y910500D02*
Y914000D01*
X638000Y896000D02*
Y914000D01*
X775000Y866500D02*
X790000D01*
X775000Y834000D02*
X790000D01*
X665000Y833500D02*
X680000D01*
X665000Y866000D02*
X680000D01*
X810000Y213500D02*
X825000D01*
X810000Y246000D02*
X825000D01*
X630000Y246500D02*
X645000D01*
X630000Y214000D02*
X645000D01*
X810000Y463500D02*
X825000D01*
X810000Y496000D02*
X825000D01*
X810000Y413500D02*
X825000D01*
X810000Y446000D02*
X825000D01*
X810000Y363500D02*
X825000D01*
X810000Y396000D02*
X825000D01*
X810000Y313500D02*
X825000D01*
X810000Y346000D02*
X825000D01*
X810000Y263500D02*
X825000D01*
X810000Y296000D02*
X825000D01*
X630000Y496500D02*
X645000D01*
X630000Y464000D02*
X645000D01*
X629000Y446500D02*
X644000D01*
X629000Y414000D02*
X644000D01*
X630000Y396500D02*
X645000D01*
X630000Y364000D02*
X645000D01*
X630000Y346500D02*
X645000D01*
X630000Y314000D02*
X645000D01*
X630000Y296500D02*
X645000D01*
X630000Y264000D02*
X645000D01*
X775000Y616500D02*
X790000D01*
X775000Y584000D02*
X790000D01*
X775000Y666500D02*
X790000D01*
X775000Y634000D02*
X790000D01*
X775000Y716500D02*
X790000D01*
X775000Y684000D02*
X790000D01*
X775000Y766500D02*
X790000D01*
X775000Y734000D02*
X790000D01*
X775000Y816500D02*
X790000D01*
X775000Y784000D02*
X790000D01*
X665000Y783500D02*
X680000D01*
X665000Y816000D02*
X680000D01*
X665000Y733500D02*
X680000D01*
X665000Y766000D02*
X680000D01*
X665000Y683500D02*
X680000D01*
X665000Y716000D02*
X680000D01*
X665000Y633500D02*
X680000D01*
X665000Y666000D02*
X680000D01*
X2407000Y350100D02*
X2423000D01*
X2407000Y352000D02*
X2423000D01*
X2407000Y346000D02*
Y352000D01*
X2423000Y346000D02*
Y352000D01*
X2382000Y350100D02*
X2398000D01*
X2382000Y352000D02*
X2398000D01*
X2382000Y346000D02*
Y352000D01*
X2398000Y346000D02*
Y352000D01*
X2357000Y350100D02*
X2373000D01*
X2357000Y352000D02*
X2373000D01*
X2357000Y346000D02*
Y352000D01*
X2373000Y346000D02*
Y352000D01*
X2332000Y350100D02*
X2348000D01*
X2332000Y352000D02*
X2348000D01*
X2332000Y346000D02*
Y352000D01*
X2348000Y346000D02*
Y352000D01*
X2407000Y397100D02*
X2423000D01*
X2407000Y399000D02*
X2423000D01*
X2407000Y393000D02*
Y399000D01*
X2423000Y393000D02*
Y399000D01*
X2382000Y397100D02*
X2398000D01*
X2382000Y399000D02*
X2398000D01*
X2382000Y393000D02*
Y399000D01*
X2398000Y393000D02*
Y399000D01*
X2357000Y397100D02*
X2373000D01*
X2357000Y399000D02*
X2373000D01*
X2357000Y393000D02*
Y399000D01*
X2373000Y393000D02*
Y399000D01*
X2332000Y397100D02*
X2348000D01*
X2332000Y399000D02*
X2348000D01*
X2332000Y393000D02*
Y399000D01*
X2348000Y393000D02*
Y399000D01*
X2307000Y350100D02*
X2323000D01*
X2307000Y352000D02*
X2323000D01*
X2307000Y346000D02*
Y352000D01*
X2323000Y346000D02*
Y352000D01*
X2282000Y350100D02*
X2298000D01*
X2282000Y352000D02*
X2298000D01*
X2282000Y346000D02*
Y352000D01*
X2298000Y346000D02*
Y352000D01*
X2257000Y350100D02*
X2273000D01*
X2257000Y352000D02*
X2273000D01*
X2257000Y346000D02*
Y352000D01*
X2273000Y346000D02*
Y352000D01*
X2232000Y350100D02*
X2248000D01*
X2232000Y352000D02*
X2248000D01*
X2232000Y346000D02*
Y352000D01*
X2248000Y346000D02*
Y352000D01*
X2207000Y350100D02*
X2223000D01*
X2207000Y352000D02*
X2223000D01*
X2207000Y346000D02*
Y352000D01*
X2223000Y346000D02*
Y352000D01*
X2182000Y350100D02*
X2198000D01*
X2182000Y352000D02*
X2198000D01*
X2182000Y346000D02*
Y352000D01*
X2198000Y346000D02*
Y352000D01*
X2157000Y350100D02*
X2173000D01*
X2157000Y352000D02*
X2173000D01*
X2157000Y346000D02*
Y352000D01*
X2173000Y346000D02*
Y352000D01*
X2132000Y350100D02*
X2148000D01*
X2132000Y352000D02*
X2148000D01*
X2132000Y346000D02*
Y352000D01*
X2148000Y346000D02*
Y352000D01*
X2107000Y350100D02*
X2123000D01*
X2107000Y352000D02*
X2123000D01*
X2107000Y346000D02*
Y352000D01*
X2123000Y346000D02*
Y352000D01*
X2082000Y350100D02*
X2098000D01*
X2082000Y352000D02*
X2098000D01*
X2082000Y346000D02*
Y352000D01*
X2098000Y346000D02*
Y352000D01*
X2307000Y397100D02*
X2323000D01*
X2307000Y399000D02*
X2323000D01*
X2307000Y393000D02*
Y399000D01*
X2323000Y393000D02*
Y399000D01*
X2282000Y397100D02*
X2298000D01*
X2282000Y399000D02*
X2298000D01*
X2282000Y393000D02*
Y399000D01*
X2298000Y393000D02*
Y399000D01*
X2257000Y397100D02*
X2273000D01*
X2257000Y399000D02*
X2273000D01*
X2257000Y393000D02*
Y399000D01*
X2273000Y393000D02*
Y399000D01*
X2232000Y397100D02*
X2248000D01*
X2232000Y399000D02*
X2248000D01*
X2232000Y393000D02*
Y399000D01*
X2248000Y393000D02*
Y399000D01*
X2207000Y397100D02*
X2223000D01*
X2207000Y399000D02*
X2223000D01*
X2207000Y393000D02*
Y399000D01*
X2223000Y393000D02*
Y399000D01*
X2182000Y397100D02*
X2198000D01*
X2182000Y399000D02*
X2198000D01*
X2182000Y393000D02*
Y399000D01*
X2198000Y393000D02*
Y399000D01*
X2157000Y397100D02*
X2173000D01*
X2157000Y399000D02*
X2173000D01*
X2157000Y393000D02*
Y399000D01*
X2173000Y393000D02*
Y399000D01*
X2132000Y397100D02*
X2148000D01*
X2132000Y399000D02*
X2148000D01*
X2132000Y393000D02*
Y399000D01*
X2148000Y393000D02*
Y399000D01*
X2107000Y397100D02*
X2123000D01*
X2107000Y399000D02*
X2123000D01*
X2107000Y393000D02*
Y399000D01*
X2123000Y393000D02*
Y399000D01*
X2082000Y397100D02*
X2098000D01*
X2082000Y399000D02*
X2098000D01*
X2082000Y393000D02*
Y399000D01*
X2098000Y393000D02*
Y399000D01*
X1882000Y350100D02*
X1898000D01*
X1882000Y352000D02*
X1898000D01*
X1882000Y346000D02*
Y352000D01*
X1898000Y346000D02*
Y352000D01*
X1932000Y397100D02*
X1948000D01*
X1932000Y399000D02*
X1948000D01*
X1932000Y393000D02*
Y399000D01*
X1948000Y393000D02*
Y399000D01*
X2032000Y397100D02*
X2048000D01*
X2032000Y399000D02*
X2048000D01*
X2032000Y393000D02*
Y399000D01*
X2048000Y393000D02*
Y399000D01*
X1982000Y350100D02*
X1998000D01*
X1982000Y352000D02*
X1998000D01*
X1982000Y346000D02*
Y352000D01*
X1998000Y346000D02*
Y352000D01*
X1957000Y350100D02*
X1973000D01*
X1957000Y352000D02*
X1973000D01*
X1957000Y346000D02*
Y352000D01*
X1973000Y346000D02*
Y352000D01*
X1882000Y397100D02*
X1898000D01*
X1882000Y399000D02*
X1898000D01*
X1882000Y393000D02*
Y399000D01*
X1898000Y393000D02*
Y399000D01*
X1982000Y397100D02*
X1998000D01*
X1982000Y399000D02*
X1998000D01*
X1982000Y393000D02*
Y399000D01*
X1998000Y393000D02*
Y399000D01*
X1907000Y350100D02*
X1923000D01*
X1907000Y352000D02*
X1923000D01*
X1907000Y346000D02*
Y352000D01*
X1923000Y346000D02*
Y352000D01*
X1957000Y397100D02*
X1973000D01*
X1957000Y399000D02*
X1973000D01*
X1957000Y393000D02*
Y399000D01*
X1973000Y393000D02*
Y399000D01*
X1857000Y350100D02*
X1873000D01*
X1857000Y352000D02*
X1873000D01*
X1857000Y346000D02*
Y352000D01*
X1873000Y346000D02*
Y352000D01*
X1832000Y350100D02*
X1848000D01*
X1832000Y352000D02*
X1848000D01*
X1832000Y346000D02*
Y352000D01*
X1848000Y346000D02*
Y352000D01*
X1932000Y350100D02*
X1948000D01*
X1932000Y352000D02*
X1948000D01*
X1932000Y346000D02*
Y352000D01*
X1948000Y346000D02*
Y352000D01*
X2032000Y350100D02*
X2048000D01*
X2032000Y352000D02*
X2048000D01*
X2032000Y346000D02*
Y352000D01*
X2048000Y346000D02*
Y352000D01*
X2057000Y397100D02*
X2073000D01*
X2057000Y399000D02*
X2073000D01*
X2057000Y393000D02*
Y399000D01*
X2073000Y393000D02*
Y399000D01*
X1907000Y397100D02*
X1923000D01*
X1907000Y399000D02*
X1923000D01*
X1907000Y393000D02*
Y399000D01*
X1923000Y393000D02*
Y399000D01*
X1857000Y397100D02*
X1873000D01*
X1857000Y399000D02*
X1873000D01*
X1857000Y393000D02*
Y399000D01*
X1873000Y393000D02*
Y399000D01*
X2057000Y350100D02*
X2073000D01*
X2057000Y352000D02*
X2073000D01*
X2057000Y346000D02*
Y352000D01*
X2073000Y346000D02*
Y352000D01*
X2007000Y397100D02*
X2023000D01*
X2007000Y399000D02*
X2023000D01*
X2007000Y393000D02*
Y399000D01*
X2023000Y393000D02*
Y399000D01*
X2007000Y350100D02*
X2023000D01*
X2007000Y352000D02*
X2023000D01*
X2007000Y346000D02*
Y352000D01*
X2023000Y346000D02*
Y352000D01*
X1832000Y397100D02*
X1848000D01*
X1832000Y399000D02*
X1848000D01*
X1832000Y393000D02*
Y399000D01*
X1848000Y393000D02*
Y399000D01*
X1771500Y335000D02*
Y350000D01*
X1739000Y335000D02*
Y350000D01*
X1771500Y795000D02*
Y810000D01*
X1739000Y795000D02*
Y810000D01*
X1771500Y485000D02*
Y500000D01*
X1739000Y485000D02*
Y500000D01*
X1436000Y226500D02*
X1451000D01*
X1436000Y194000D02*
X1451000D01*
X1436000Y876500D02*
X1451000D01*
X1436000Y844000D02*
X1451000D01*
X1761000Y571000D02*
X1767000D01*
X1761000Y585000D02*
X1767000D01*
X1760000Y412000D02*
X1766000D01*
X1760000Y426000D02*
X1766000D01*
X1760000Y262000D02*
X1766000D01*
X1760000Y276000D02*
X1766000D01*
X1557450Y567930D02*
X1720150D01*
X1557450D02*
Y581900D01*
X1763000Y722000D02*
X1769000D01*
X1763000Y736000D02*
X1769000D01*
X1557450Y498100D02*
Y512070D01*
X1720150D01*
X1557450Y407930D02*
X1720150D01*
X1557450D02*
Y421900D01*
X1557450Y348100D02*
Y362070D01*
X1720150D01*
X1557450Y257930D02*
X1720150D01*
X1557450D02*
Y271900D01*
Y808100D02*
Y822070D01*
X1720150D01*
X1557450Y717930D02*
X1720150D01*
X1557450D02*
Y731900D01*
X1953782Y471946D02*
Y652946D01*
X1895782Y471946D02*
Y652946D01*
Y471946D02*
X1953782D01*
X1895782Y652946D02*
X1953782D01*
D11*
X1702210Y579360D02*
G03*
X1702210Y579360I-1250J0D01*
G01*
X1702210Y419360D02*
G03*
X1702210Y419360I-1250J0D01*
G01*
X1702210Y269360D02*
G03*
X1702210Y269360I-1250J0D01*
G01*
Y729360D02*
G03*
X1702210Y729360I-1250J0D01*
G01*
X1972032Y470896D02*
G03*
X1972032Y470896I-1250J0D01*
G01*
D12*
X1946782Y481946D02*
G03*
X1946782Y481946I-3000J0D01*
G01*
D13*
X2471000Y216500D02*
X2497000D01*
X2471000Y288500D02*
X2497000D01*
D14*
X2281500Y544000D02*
Y562000D01*
X2312500Y544000D02*
Y562000D01*
X2312000Y544000D02*
X2312500D01*
X2312000Y562000D02*
X2312500D01*
X2281500Y544000D02*
X2282000D01*
X2281500Y562000D02*
X2282000D01*
X2312300Y598700D02*
Y616700D01*
X2281300Y598700D02*
Y616700D01*
X2281800D01*
X2281300Y598700D02*
X2281800D01*
X2311800Y616700D02*
X2312300D01*
X2311800Y598700D02*
X2312300D01*
X544000Y935000D02*
Y935500D01*
X526000Y935000D02*
Y935500D01*
X544000Y904500D02*
Y905000D01*
X526000Y904500D02*
Y905000D01*
Y904500D02*
X544000D01*
X526000Y935500D02*
X544000D01*
X504000Y915000D02*
Y915500D01*
X486000Y915000D02*
Y915500D01*
X504000Y884500D02*
Y885000D01*
X486000Y884500D02*
Y885000D01*
Y884500D02*
X504000D01*
X486000Y915500D02*
X504000D01*
Y955000D02*
Y955500D01*
X486000Y955000D02*
Y955500D01*
X504000Y924500D02*
Y925000D01*
X486000Y924500D02*
Y925000D01*
Y924500D02*
X504000D01*
X486000Y955500D02*
X504000D01*
D15*
X1304000Y471000D02*
Y500000D01*
X1176000Y471000D02*
X1304000D01*
X1176000D02*
Y500000D01*
X1304000Y570000D02*
Y599000D01*
X1176000D02*
X1304000D01*
X1176000Y570000D02*
Y599000D01*
X1304000Y661000D02*
Y690000D01*
X1176000Y661000D02*
X1304000D01*
X1176000D02*
Y690000D01*
X1304000Y760000D02*
Y789000D01*
X1176000D02*
X1304000D01*
X1176000Y760000D02*
Y789000D01*
X2479000Y502000D02*
Y531000D01*
Y502000D02*
X2607000D01*
Y531000D01*
X1016000Y760000D02*
Y789000D01*
X1144000D01*
Y760000D02*
Y789000D01*
X1016000Y661000D02*
Y690000D01*
Y661000D02*
X1144000D01*
Y690000D01*
X1176000Y385000D02*
Y414000D01*
X1304000D01*
Y385000D02*
Y414000D01*
X1176000Y286000D02*
Y315000D01*
Y286000D02*
X1304000D01*
Y315000D01*
X1016000Y385000D02*
Y414000D01*
X1144000D01*
Y385000D02*
Y414000D01*
X1016000Y286000D02*
Y315000D01*
Y286000D02*
X1144000D01*
Y315000D01*
X1016000Y570000D02*
Y599000D01*
X1144000D01*
Y570000D02*
Y599000D01*
X1016000Y471000D02*
Y500000D01*
Y471000D02*
X1144000D01*
Y500000D01*
X1336000Y760000D02*
Y789000D01*
X1464000D01*
Y760000D02*
Y789000D01*
X1336000Y661000D02*
Y690000D01*
Y661000D02*
X1464000D01*
Y690000D01*
X1336000Y570000D02*
Y599000D01*
X1464000D01*
Y570000D02*
Y599000D01*
X1336000Y471000D02*
Y500000D01*
Y471000D02*
X1464000D01*
Y500000D01*
X1336000Y381998D02*
Y410998D01*
X1464000D01*
Y381998D02*
Y410998D01*
X1336000Y282998D02*
Y311998D01*
Y282998D02*
X1464000D01*
Y311998D01*
X442655Y715398D02*
Y703532D01*
X448588Y709465D02*
X436722D01*
X442594Y600937D02*
Y589085D01*
X448520Y595011D02*
X436668D01*
X445162Y688629D02*
Y676771D01*
X445156Y572980D02*
Y561123D01*
X442655Y520398D02*
Y508532D01*
X448588Y514465D02*
X436722D01*
X442594Y405937D02*
Y394086D01*
X448520Y400011D02*
X436668D01*
X445162Y493629D02*
Y481771D01*
X445156Y377980D02*
Y366124D01*
D16*
X419648Y551417D02*
X472348D01*
Y724117D01*
X419648D02*
X472348D01*
X314848Y356418D02*
X381708D01*
X314848D02*
Y529118D01*
X381708D01*
X419648Y356418D02*
X472348D01*
Y529118D01*
X419648D02*
X472348D01*
M02*
