G04*
G04 #@! TF.GenerationSoftware,Altium Limited,Altium Designer,18.1.7 (191)*
G04*
G04 Layer_Color=8388736*
%FSLAX44Y44*%
%MOMM*%
G71*
G01*
G75*
%ADD49R,4.1016X4.1016*%
%ADD50R,0.7016X0.7016*%
%ADD51R,0.7016X0.7016*%
%ADD52R,0.6516X0.9016*%
%ADD53R,0.5516X1.1016*%
%ADD54R,2.1016X1.2016*%
%ADD55R,1.1016X0.5516*%
%ADD56R,1.3016X1.6016*%
%ADD57R,0.9016X0.9016*%
%ADD58R,1.0816X1.0316*%
%ADD59R,0.4016X1.7516*%
%ADD60R,0.9016X0.6516*%
%ADD61R,10.2616X9.6016*%
%ADD62R,4.6016X1.3516*%
%ADD63R,1.6016X1.4016*%
%ADD64R,1.2016X2.1016*%
%ADD65R,1.0016X1.8016*%
%ADD66R,3.3016X1.8016*%
%ADD67R,1.0316X1.0816*%
%ADD68R,0.3516X0.8016*%
%ADD69R,0.3516X1.9016*%
%ADD70R,0.8016X0.3516*%
%ADD71R,0.3516X1.6016*%
%ADD72R,9.4816X3.2516*%
%ADD73R,1.9016X3.5016*%
%ADD74R,3.0016X5.5016*%
%ADD75R,1.9016X2.3016*%
%ADD76R,1.6016X1.3016*%
%ADD77R,10.8400X8.7400*%
%ADD78R,1.1400X3.5400*%
%ADD79R,1.9016X1.7016*%
%ADD80R,0.4016X1.5516*%
%ADD81R,2.3016X1.9016*%
%ADD82R,3.5016X1.9016*%
%ADD83R,1.6016X1.6016*%
%ADD84R,0.1016X0.1016*%
%ADD85R,2.0516X2.0516*%
%ADD86C,2.0516*%
%ADD87C,1.2536*%
%ADD88C,1.4996*%
%ADD89C,2.4566*%
%ADD90C,3.3516*%
%ADD91R,1.4996X1.4996*%
G36*
X2432015Y1280400D02*
Y1286388D01*
X2472150D01*
Y1280400D01*
X2432015D01*
D02*
G37*
D49*
X482000Y1350000D02*
D03*
X418000D02*
D03*
X482000Y1265000D02*
D03*
X418000D02*
D03*
X482000Y1180000D02*
D03*
X418000D02*
D03*
D50*
X2810000Y1254920D02*
D03*
Y1265080D02*
D03*
Y1240080D02*
D03*
Y1229920D02*
D03*
X2805000Y1289920D02*
D03*
Y1300080D02*
D03*
X2775000D02*
D03*
Y1289920D02*
D03*
X2795000Y1300080D02*
D03*
Y1289920D02*
D03*
X2775000Y1199920D02*
D03*
Y1210080D02*
D03*
X2795000D02*
D03*
Y1199920D02*
D03*
X2570000Y1240080D02*
D03*
Y1229920D02*
D03*
Y1305080D02*
D03*
Y1294920D02*
D03*
X2560000Y1115080D02*
D03*
Y1104920D02*
D03*
X2570000Y1115080D02*
D03*
Y1104920D02*
D03*
X2580000Y1115080D02*
D03*
Y1104920D02*
D03*
X2410000Y1179920D02*
D03*
Y1190080D02*
D03*
X2485000Y1359920D02*
D03*
Y1370080D02*
D03*
X2495000Y1360080D02*
D03*
Y1349920D02*
D03*
X2545000Y1340080D02*
D03*
Y1329920D02*
D03*
X2535000D02*
D03*
Y1340080D02*
D03*
X2585000Y1319920D02*
D03*
Y1330080D02*
D03*
X2560000Y1390080D02*
D03*
Y1379920D02*
D03*
X2585000Y1344920D02*
D03*
Y1355080D02*
D03*
X2465000Y1205080D02*
D03*
Y1194920D02*
D03*
X2495000Y1329920D02*
D03*
Y1340080D02*
D03*
X2478000Y1205080D02*
D03*
Y1194920D02*
D03*
X2495000Y1205080D02*
D03*
Y1194920D02*
D03*
X2525000Y1329920D02*
D03*
Y1340080D02*
D03*
X2515000D02*
D03*
Y1329920D02*
D03*
X2510000Y1194920D02*
D03*
Y1205080D02*
D03*
X2405000Y1340080D02*
D03*
Y1329920D02*
D03*
X2425000Y1360080D02*
D03*
Y1349920D02*
D03*
X2435000Y1340080D02*
D03*
Y1329920D02*
D03*
X2425000Y1340080D02*
D03*
Y1329920D02*
D03*
X2405000Y1360080D02*
D03*
Y1349920D02*
D03*
X2535000Y1360080D02*
D03*
Y1349920D02*
D03*
X2525000Y1360080D02*
D03*
Y1349920D02*
D03*
X2515000Y1360080D02*
D03*
Y1349920D02*
D03*
X2415000Y1340080D02*
D03*
Y1329920D02*
D03*
X2520000Y1194920D02*
D03*
Y1205080D02*
D03*
X2435000Y1349920D02*
D03*
Y1360080D02*
D03*
X2445000Y1349920D02*
D03*
Y1360080D02*
D03*
X2555000Y1340080D02*
D03*
Y1329920D02*
D03*
X2485000D02*
D03*
Y1340080D02*
D03*
X2530000Y1205080D02*
D03*
Y1194920D02*
D03*
X2460000Y1329920D02*
D03*
Y1340080D02*
D03*
X2470000Y1329920D02*
D03*
Y1340080D02*
D03*
X2645000Y1334920D02*
D03*
Y1345080D02*
D03*
X2860000Y1400080D02*
D03*
Y1389920D02*
D03*
X2600000Y1334920D02*
D03*
Y1345080D02*
D03*
X2608000Y1314920D02*
D03*
Y1325080D02*
D03*
X2650000Y1314920D02*
D03*
Y1325080D02*
D03*
X2635000D02*
D03*
Y1314920D02*
D03*
X2629000Y1345080D02*
D03*
Y1334920D02*
D03*
X1690000Y1254920D02*
D03*
Y1265080D02*
D03*
X2820000Y1389920D02*
D03*
Y1400080D02*
D03*
X2622000Y1179920D02*
D03*
Y1190080D02*
D03*
X2628000Y1204920D02*
D03*
Y1215080D02*
D03*
X2635000Y1179920D02*
D03*
Y1190080D02*
D03*
X2641000Y1204920D02*
D03*
Y1215080D02*
D03*
X2665000Y1204920D02*
D03*
Y1215080D02*
D03*
X2140000Y1035080D02*
D03*
Y1024920D02*
D03*
Y1494920D02*
D03*
Y1505080D02*
D03*
X2295000Y1350080D02*
D03*
Y1339920D02*
D03*
Y1179920D02*
D03*
Y1190080D02*
D03*
X2660000Y1384920D02*
D03*
Y1395080D02*
D03*
Y1414920D02*
D03*
Y1425080D02*
D03*
X2615000Y1345080D02*
D03*
Y1334920D02*
D03*
X2621500Y1325080D02*
D03*
Y1314920D02*
D03*
D51*
X2774920Y1140000D02*
D03*
X2785080D02*
D03*
X2877840Y1445000D02*
D03*
X2888000D02*
D03*
X2645160Y1120000D02*
D03*
X2635000D02*
D03*
X2779920Y1340000D02*
D03*
X2790080D02*
D03*
X2774920Y1150000D02*
D03*
X2785080D02*
D03*
X2695080Y1325000D02*
D03*
X2684920D02*
D03*
X2695080Y1305000D02*
D03*
X2684920D02*
D03*
X2695080Y1355000D02*
D03*
X2684920D02*
D03*
X2695080Y1335000D02*
D03*
X2684920D02*
D03*
X2560080Y1230000D02*
D03*
X2549920D02*
D03*
Y1295000D02*
D03*
X2560080D02*
D03*
Y1305000D02*
D03*
X2549920D02*
D03*
X2545080Y1395000D02*
D03*
X2534920D02*
D03*
X2724920Y1235000D02*
D03*
X2735080D02*
D03*
X2710080D02*
D03*
X2699920D02*
D03*
X2710080Y1215000D02*
D03*
X2699920D02*
D03*
X2710080Y1195000D02*
D03*
X2699920D02*
D03*
X2724920Y1215000D02*
D03*
X2735080D02*
D03*
X2724920Y1195000D02*
D03*
X2735080D02*
D03*
X2599920Y1360000D02*
D03*
X2610080D02*
D03*
X2640080D02*
D03*
X2629920D02*
D03*
X2739920Y1435000D02*
D03*
X2750080D02*
D03*
X2584920Y1310000D02*
D03*
X2595080D02*
D03*
X2560080Y1240000D02*
D03*
X2549920D02*
D03*
X2560080Y1220000D02*
D03*
X2549920D02*
D03*
Y1265000D02*
D03*
X2560080D02*
D03*
Y1250000D02*
D03*
X2549920D02*
D03*
X2459920Y1320000D02*
D03*
X2470080D02*
D03*
X970080Y1010000D02*
D03*
X959920D02*
D03*
X3049920Y1255000D02*
D03*
X3060080D02*
D03*
X3069920Y1305000D02*
D03*
X3080080D02*
D03*
X3074920Y1255000D02*
D03*
X3085080D02*
D03*
X959920Y1525000D02*
D03*
X970080D02*
D03*
X2165080Y1500000D02*
D03*
X2154920D02*
D03*
X2280080Y1345000D02*
D03*
X2269920D02*
D03*
X2280080Y1185000D02*
D03*
X2269920D02*
D03*
X2165080Y1030000D02*
D03*
X2154920D02*
D03*
X2674920Y1410000D02*
D03*
X2685080D02*
D03*
X279920Y1495000D02*
D03*
X290080D02*
D03*
X275080Y1265000D02*
D03*
X264920D02*
D03*
X279920Y1035000D02*
D03*
X290080D02*
D03*
X295000Y1265000D02*
D03*
X305160D02*
D03*
X2710000Y1400000D02*
D03*
X2699840D02*
D03*
X2685080D02*
D03*
X2674920D02*
D03*
X2710080Y1410000D02*
D03*
X2699920D02*
D03*
D52*
X2630500Y1133500D02*
D03*
X2649500D02*
D03*
X2640000Y1156500D02*
D03*
X2794500Y1326500D02*
D03*
X2775500D02*
D03*
X2785000Y1303500D02*
D03*
X2794500Y1186500D02*
D03*
X2775500D02*
D03*
X2785000Y1163500D02*
D03*
X2775500Y1258500D02*
D03*
X2794500D02*
D03*
X2785000Y1281500D02*
D03*
X2794500Y1236500D02*
D03*
X2775500D02*
D03*
X2785000Y1213500D02*
D03*
X2745000Y1398500D02*
D03*
X2735500Y1421500D02*
D03*
X2754500D02*
D03*
D53*
X2350000Y1186000D02*
D03*
Y1164000D02*
D03*
X2393000Y1211000D02*
D03*
Y1233000D02*
D03*
Y1252000D02*
D03*
Y1274000D02*
D03*
X2350000Y1364000D02*
D03*
Y1342000D02*
D03*
X2320000Y1364000D02*
D03*
Y1342000D02*
D03*
X2320000Y1164000D02*
D03*
Y1186000D02*
D03*
X2643000Y1376000D02*
D03*
Y1398000D02*
D03*
Y1434000D02*
D03*
Y1412000D02*
D03*
D54*
X1060000Y1248000D02*
D03*
Y1212000D02*
D03*
Y1287000D02*
D03*
Y1323000D02*
D03*
X2755000Y1262000D02*
D03*
Y1298000D02*
D03*
Y1192000D02*
D03*
Y1228000D02*
D03*
D55*
X1111000Y1320000D02*
D03*
X1089000D02*
D03*
X1111000Y1215000D02*
D03*
X1089000D02*
D03*
D56*
X2448954Y1160000D02*
D03*
X2421046D02*
D03*
X2026046Y1175000D02*
D03*
X2053954D02*
D03*
X2026046Y1355000D02*
D03*
X2053954D02*
D03*
D57*
X2683000Y1315000D02*
D03*
X2697000D02*
D03*
X2683000Y1345000D02*
D03*
X2697000D02*
D03*
D58*
X2545000Y1102300D02*
D03*
Y1117700D02*
D03*
X2485000Y1422700D02*
D03*
Y1407300D02*
D03*
X2515000Y1102300D02*
D03*
Y1117700D02*
D03*
X2545000Y1407300D02*
D03*
Y1422700D02*
D03*
X2350000Y1327700D02*
D03*
Y1312300D02*
D03*
X2320000Y1312300D02*
D03*
Y1327700D02*
D03*
X2350000Y1217700D02*
D03*
Y1202300D02*
D03*
X2320000Y1202300D02*
D03*
Y1217700D02*
D03*
X2880000Y1172700D02*
D03*
Y1157300D02*
D03*
X2925000Y1142700D02*
D03*
Y1127300D02*
D03*
X2910000D02*
D03*
Y1142700D02*
D03*
X2895000Y1127300D02*
D03*
Y1142700D02*
D03*
X2880000D02*
D03*
Y1127300D02*
D03*
X2925000Y1157300D02*
D03*
Y1172700D02*
D03*
X2910000Y1157300D02*
D03*
Y1172700D02*
D03*
X2895000Y1157300D02*
D03*
Y1172700D02*
D03*
X2925000Y1202700D02*
D03*
Y1187300D02*
D03*
X2910000D02*
D03*
Y1202700D02*
D03*
X2895000Y1187300D02*
D03*
Y1202700D02*
D03*
X2880000Y1187300D02*
D03*
Y1202700D02*
D03*
X2925000Y1232700D02*
D03*
Y1217300D02*
D03*
X2910000Y1232700D02*
D03*
Y1217300D02*
D03*
X2895000Y1232700D02*
D03*
Y1217300D02*
D03*
X2880000Y1232700D02*
D03*
Y1217300D02*
D03*
X2925000Y1247300D02*
D03*
Y1262700D02*
D03*
X2910000Y1247300D02*
D03*
Y1262700D02*
D03*
X2895000D02*
D03*
Y1247300D02*
D03*
X2880000Y1262700D02*
D03*
Y1247300D02*
D03*
X2925000Y1277300D02*
D03*
Y1292700D02*
D03*
X2910000Y1277300D02*
D03*
Y1292700D02*
D03*
X2895000Y1277300D02*
D03*
Y1292700D02*
D03*
X2880000Y1277300D02*
D03*
Y1292700D02*
D03*
X2925000Y1307300D02*
D03*
Y1322700D02*
D03*
X2910000Y1307300D02*
D03*
Y1322700D02*
D03*
X2895000Y1307300D02*
D03*
Y1322700D02*
D03*
X2880000Y1307300D02*
D03*
Y1322700D02*
D03*
X2925000Y1352700D02*
D03*
Y1337300D02*
D03*
X2910000Y1352700D02*
D03*
Y1337300D02*
D03*
X2895000D02*
D03*
Y1352700D02*
D03*
X2880000Y1337300D02*
D03*
Y1352700D02*
D03*
X2925000Y1382700D02*
D03*
Y1367300D02*
D03*
X2910000Y1382700D02*
D03*
Y1367300D02*
D03*
X2895000Y1382700D02*
D03*
Y1367300D02*
D03*
X2880000Y1382700D02*
D03*
Y1367300D02*
D03*
X2410000Y1247300D02*
D03*
Y1262700D02*
D03*
Y1222700D02*
D03*
Y1207300D02*
D03*
X2530000Y1407300D02*
D03*
Y1422700D02*
D03*
X2530000Y1117700D02*
D03*
Y1102300D02*
D03*
X2515000Y1422700D02*
D03*
Y1407300D02*
D03*
X2500000Y1422700D02*
D03*
Y1407300D02*
D03*
X2500000Y1102300D02*
D03*
Y1117700D02*
D03*
D59*
X2555500Y1143250D02*
D03*
X2562000D02*
D03*
X2568500D02*
D03*
X2575000D02*
D03*
X2581500D02*
D03*
X2588000D02*
D03*
X2594500D02*
D03*
X2555500Y1196750D02*
D03*
X2562000D02*
D03*
X2568500D02*
D03*
X2575000D02*
D03*
X2581500D02*
D03*
X2588000D02*
D03*
X2594500D02*
D03*
D60*
X2428500Y1199500D02*
D03*
Y1180500D02*
D03*
X2451500Y1190000D02*
D03*
X2571500Y1385000D02*
D03*
X2594500Y1394500D02*
D03*
Y1375500D02*
D03*
X3068500Y1280000D02*
D03*
X3091500Y1289500D02*
D03*
Y1270500D02*
D03*
X2626500Y1415500D02*
D03*
Y1434500D02*
D03*
X2603500Y1425000D02*
D03*
Y1385000D02*
D03*
X2626500Y1394500D02*
D03*
Y1375500D02*
D03*
X2571500Y1425000D02*
D03*
X2594500Y1434500D02*
D03*
Y1415500D02*
D03*
D61*
X2250000Y1030000D02*
D03*
X2190000Y1185000D02*
D03*
Y1345000D02*
D03*
X2250000Y1500000D02*
D03*
D62*
X2158560Y1055400D02*
D03*
Y1004600D02*
D03*
X2281440Y1159600D02*
D03*
Y1210400D02*
D03*
Y1319600D02*
D03*
Y1370400D02*
D03*
X2158560Y1525400D02*
D03*
Y1474600D02*
D03*
D63*
X2385000Y1360500D02*
D03*
Y1341500D02*
D03*
D64*
X1288000Y1006000D02*
D03*
X1252000D02*
D03*
Y1046000D02*
D03*
X1288000D02*
D03*
Y1086000D02*
D03*
X1252000D02*
D03*
X1252000Y1126000D02*
D03*
X1288000D02*
D03*
X1288000Y1166000D02*
D03*
X1252000D02*
D03*
Y1206000D02*
D03*
X1288000D02*
D03*
Y1246000D02*
D03*
X1252000D02*
D03*
Y1286000D02*
D03*
X1288000D02*
D03*
Y1326000D02*
D03*
X1252000D02*
D03*
Y1366000D02*
D03*
X1288000D02*
D03*
X1288000Y1406000D02*
D03*
X1252000D02*
D03*
X1252000Y1446000D02*
D03*
X1288000D02*
D03*
X1288000Y1486000D02*
D03*
X1252000D02*
D03*
Y1526000D02*
D03*
X1288000D02*
D03*
X2677000Y1430000D02*
D03*
X2713000D02*
D03*
X2677000Y1380000D02*
D03*
X2713000D02*
D03*
D65*
X2743000Y1170500D02*
D03*
X2720000D02*
D03*
X2697000D02*
D03*
D66*
X2720000Y1109500D02*
D03*
D67*
X2372300Y1325000D02*
D03*
X2387700D02*
D03*
X3020300Y1253000D02*
D03*
X3035700D02*
D03*
X2648300Y1182000D02*
D03*
X2663700D02*
D03*
D68*
X2527500Y1299000D02*
D03*
X2472500D02*
D03*
X2467500D02*
D03*
X2462500D02*
D03*
X2457500D02*
D03*
X2452500D02*
D03*
X2447500D02*
D03*
X2442500D02*
D03*
X2437500D02*
D03*
X2432500D02*
D03*
Y1231000D02*
D03*
X2442500D02*
D03*
X2447500D02*
D03*
X2452500D02*
D03*
X2457500D02*
D03*
X2467500D02*
D03*
X2472500D02*
D03*
X2527500D02*
D03*
D69*
X2522500Y1293500D02*
D03*
X2517500D02*
D03*
X2512500D02*
D03*
X2507500D02*
D03*
X2502500D02*
D03*
X2497500D02*
D03*
X2492500D02*
D03*
X2487500D02*
D03*
X2482500D02*
D03*
X2477500D02*
D03*
X2507500Y1236500D02*
D03*
X2512500D02*
D03*
X2517500D02*
D03*
X2522500D02*
D03*
D70*
X2426000Y1292500D02*
D03*
Y1287500D02*
D03*
Y1282500D02*
D03*
Y1277500D02*
D03*
Y1272500D02*
D03*
Y1262500D02*
D03*
Y1257500D02*
D03*
Y1252500D02*
D03*
Y1242500D02*
D03*
Y1237500D02*
D03*
X2534000D02*
D03*
Y1242500D02*
D03*
Y1247500D02*
D03*
Y1252500D02*
D03*
Y1257500D02*
D03*
Y1262500D02*
D03*
Y1267500D02*
D03*
Y1272500D02*
D03*
Y1277500D02*
D03*
Y1282500D02*
D03*
Y1287500D02*
D03*
Y1292500D02*
D03*
D71*
X2477500Y1235000D02*
D03*
X2487500D02*
D03*
X2492500D02*
D03*
X2497500D02*
D03*
D72*
X2480000Y1265000D02*
D03*
D73*
X2296000Y1255000D02*
D03*
X2348000D02*
D03*
D74*
X3058000Y1178000D02*
D03*
X2958000D02*
D03*
X1880000Y1425000D02*
D03*
X1980000D02*
D03*
Y1265000D02*
D03*
X1880000D02*
D03*
X1980000Y1105000D02*
D03*
X1880000D02*
D03*
X1720000Y1425000D02*
D03*
X1820000D02*
D03*
X1720000Y1265000D02*
D03*
X1820000D02*
D03*
X1720000Y1105000D02*
D03*
X1820000D02*
D03*
X1560000Y1425000D02*
D03*
X1660000D02*
D03*
X1560000Y1265000D02*
D03*
X1660000D02*
D03*
X1560000Y1105000D02*
D03*
X1660000D02*
D03*
X1500000Y1425000D02*
D03*
X1400000D02*
D03*
X1500000Y1265000D02*
D03*
X1400000D02*
D03*
X1500000Y1105000D02*
D03*
X1400000D02*
D03*
D75*
X2958000Y1302000D02*
D03*
Y1264000D02*
D03*
X2030000Y1424000D02*
D03*
Y1386000D02*
D03*
Y1106000D02*
D03*
Y1144000D02*
D03*
D76*
X2904000Y1401046D02*
D03*
Y1428954D02*
D03*
X2926000Y1401046D02*
D03*
Y1428954D02*
D03*
X2948000Y1401046D02*
D03*
Y1428954D02*
D03*
X2882000Y1401046D02*
D03*
Y1428954D02*
D03*
X3170000Y1516046D02*
D03*
Y1543954D02*
D03*
X3145000Y1516046D02*
D03*
Y1543954D02*
D03*
X3120000Y1516046D02*
D03*
Y1543954D02*
D03*
X3095000Y1516046D02*
D03*
Y1543954D02*
D03*
X3070000Y1516046D02*
D03*
Y1543954D02*
D03*
X3045000Y1516046D02*
D03*
Y1543954D02*
D03*
X3170000Y1018954D02*
D03*
Y991046D02*
D03*
X3145000Y1018954D02*
D03*
Y991046D02*
D03*
X3120000Y1018954D02*
D03*
Y991046D02*
D03*
X3095000Y1018954D02*
D03*
Y991046D02*
D03*
X3070000Y1018954D02*
D03*
Y991046D02*
D03*
X3045000Y1018954D02*
D03*
Y991046D02*
D03*
X2440000Y1516046D02*
D03*
Y1543954D02*
D03*
X3020000Y1018954D02*
D03*
Y991046D02*
D03*
X2995000Y1018954D02*
D03*
Y991046D02*
D03*
X2970000Y1018954D02*
D03*
Y991046D02*
D03*
X2945000Y1018954D02*
D03*
Y991046D02*
D03*
X2920000Y1018954D02*
D03*
Y991046D02*
D03*
X2895000Y1018954D02*
D03*
Y991046D02*
D03*
X3020000Y1516046D02*
D03*
Y1543954D02*
D03*
X2995000Y1516046D02*
D03*
Y1543954D02*
D03*
X2970000Y1516046D02*
D03*
Y1543954D02*
D03*
X2945000Y1516046D02*
D03*
Y1543954D02*
D03*
X2920000Y1516046D02*
D03*
Y1543954D02*
D03*
X2895000Y1516046D02*
D03*
Y1543954D02*
D03*
X2870000Y1018954D02*
D03*
Y991046D02*
D03*
X2845000Y1018954D02*
D03*
Y991046D02*
D03*
X2820000Y1018954D02*
D03*
Y991046D02*
D03*
X2795000Y1018954D02*
D03*
Y991046D02*
D03*
X2770000Y1018954D02*
D03*
Y991046D02*
D03*
X2745000Y1018954D02*
D03*
Y991046D02*
D03*
X2720000Y1018954D02*
D03*
Y991046D02*
D03*
X2695000Y1018954D02*
D03*
Y991046D02*
D03*
X2670000Y1018954D02*
D03*
Y991046D02*
D03*
X2645000Y1018954D02*
D03*
Y991046D02*
D03*
X2620000Y1018954D02*
D03*
Y991046D02*
D03*
X2595000Y1018954D02*
D03*
Y991046D02*
D03*
X2870000Y1516046D02*
D03*
Y1543954D02*
D03*
X2845000Y1516046D02*
D03*
Y1543954D02*
D03*
X2820000Y1516046D02*
D03*
Y1543954D02*
D03*
X2795000Y1516046D02*
D03*
Y1543954D02*
D03*
X2770000Y1516046D02*
D03*
Y1543954D02*
D03*
X2745000Y1516046D02*
D03*
Y1543954D02*
D03*
X2720000Y1516046D02*
D03*
Y1543954D02*
D03*
X2695000Y1516046D02*
D03*
Y1543954D02*
D03*
X2670000Y1516046D02*
D03*
Y1543954D02*
D03*
X2645000Y1516046D02*
D03*
Y1543954D02*
D03*
X2620000Y1516046D02*
D03*
Y1543954D02*
D03*
X2595000Y1516046D02*
D03*
Y1543954D02*
D03*
X2464966Y990998D02*
D03*
Y1018906D02*
D03*
X2340034Y1435002D02*
D03*
Y1407094D02*
D03*
X2365000Y1434954D02*
D03*
Y1407046D02*
D03*
X2390000Y1434954D02*
D03*
Y1407046D02*
D03*
X2415000Y1434954D02*
D03*
Y1407046D02*
D03*
X2440000Y1434954D02*
D03*
Y1407046D02*
D03*
X2465000Y1434954D02*
D03*
Y1407046D02*
D03*
X2340000Y1543954D02*
D03*
Y1516046D02*
D03*
X2365000Y1543954D02*
D03*
Y1516046D02*
D03*
X2390000Y1543954D02*
D03*
Y1516046D02*
D03*
X2439966Y990998D02*
D03*
Y1018906D02*
D03*
X2414966Y990998D02*
D03*
Y1018906D02*
D03*
X2389966Y990998D02*
D03*
Y1018906D02*
D03*
X2364967Y990998D02*
D03*
Y1018906D02*
D03*
X2340000Y991046D02*
D03*
Y1018954D02*
D03*
X2465000Y1091046D02*
D03*
Y1118954D02*
D03*
X2439967Y1090998D02*
D03*
Y1118906D02*
D03*
X2546000Y1543954D02*
D03*
Y1516046D02*
D03*
X2389967Y1090998D02*
D03*
Y1118906D02*
D03*
X2545000Y991046D02*
D03*
Y1018954D02*
D03*
X2570000Y991046D02*
D03*
Y1018954D02*
D03*
X2465000Y1543954D02*
D03*
Y1516046D02*
D03*
X2415000Y1543954D02*
D03*
Y1516046D02*
D03*
X2414967Y1090998D02*
D03*
Y1118906D02*
D03*
X2364968Y1090998D02*
D03*
Y1118906D02*
D03*
X2339968Y1090998D02*
D03*
Y1118906D02*
D03*
X2570000Y1543954D02*
D03*
Y1516046D02*
D03*
D77*
X3020000Y1389000D02*
D03*
D78*
X2986000Y1283000D02*
D03*
X3020000D02*
D03*
X3003000D02*
D03*
X3054000D02*
D03*
X3037000D02*
D03*
D79*
X2950000Y1351000D02*
D03*
Y1379000D02*
D03*
X2030000Y1301000D02*
D03*
Y1329000D02*
D03*
Y1229000D02*
D03*
Y1201000D02*
D03*
D80*
X2615250Y1292500D02*
D03*
X2621750D02*
D03*
X2628250D02*
D03*
X2634750D02*
D03*
X2641250D02*
D03*
X2647750D02*
D03*
X2660750D02*
D03*
X2654250D02*
D03*
X2654200Y1238000D02*
D03*
X2660700D02*
D03*
X2647700D02*
D03*
X2641200D02*
D03*
X2634700D02*
D03*
X2628200D02*
D03*
X2621700D02*
D03*
X2615200D02*
D03*
X2608700D02*
D03*
X2602200D02*
D03*
X2595700D02*
D03*
X2589200D02*
D03*
X2589250Y1292500D02*
D03*
X2595750D02*
D03*
X2602250D02*
D03*
X2608750D02*
D03*
D81*
X2189000Y1107000D02*
D03*
X2151000D02*
D03*
X2189000Y1580000D02*
D03*
X2151000D02*
D03*
X2146000Y1264000D02*
D03*
X2184000D02*
D03*
X2146000Y1425000D02*
D03*
X2184000D02*
D03*
X796000Y1035000D02*
D03*
X834000D02*
D03*
X984000Y1035000D02*
D03*
X946000D02*
D03*
X984000Y985000D02*
D03*
X946000D02*
D03*
X796000D02*
D03*
X834000D02*
D03*
X796000Y1550000D02*
D03*
X834000D02*
D03*
X796000Y1500000D02*
D03*
X834000D02*
D03*
X985000Y1500000D02*
D03*
X947000D02*
D03*
X984000Y1550000D02*
D03*
X946000D02*
D03*
X1144000Y1135000D02*
D03*
X1106000D02*
D03*
X1144000Y1085000D02*
D03*
X1106000D02*
D03*
X1144000Y1035000D02*
D03*
X1106000D02*
D03*
X1144000Y985000D02*
D03*
X1106000D02*
D03*
X1144000Y1550000D02*
D03*
X1106000D02*
D03*
X1144000Y1500000D02*
D03*
X1106000D02*
D03*
X1144000Y1450000D02*
D03*
X1106000D02*
D03*
X1144000Y1400000D02*
D03*
X1106000D02*
D03*
D82*
X2505000Y1491000D02*
D03*
Y1543000D02*
D03*
Y1046000D02*
D03*
Y994000D02*
D03*
D83*
X3550000Y920000D02*
D03*
X2770000D02*
D03*
X2790000D02*
D03*
X2750000D02*
D03*
X2730000D02*
D03*
X1870000D02*
D03*
X1890000D02*
D03*
X1950000D02*
D03*
X1930000D02*
D03*
X1910000D02*
D03*
X2090000D02*
D03*
X2110000D02*
D03*
X2070000D02*
D03*
X2050000D02*
D03*
X2030000D02*
D03*
X2010000D02*
D03*
X1990000D02*
D03*
X1970000D02*
D03*
X3290000D02*
D03*
X3110000D02*
D03*
X3130000D02*
D03*
X3150000D02*
D03*
X3170000D02*
D03*
X3190000D02*
D03*
X3210000D02*
D03*
X3230000D02*
D03*
X3250000D02*
D03*
X3270000D02*
D03*
X3570000D02*
D03*
X3630000D02*
D03*
X3490000Y920000D02*
D03*
X3450000Y920000D02*
D03*
X3470000Y920000D02*
D03*
X2810000Y920000D02*
D03*
X2830000D02*
D03*
X3530000D02*
D03*
X3510000D02*
D03*
X2130000D02*
D03*
X2150000D02*
D03*
X2170000D02*
D03*
X2190000D02*
D03*
X2210000D02*
D03*
X2230000D02*
D03*
X2250000D02*
D03*
X2430000D02*
D03*
X2410000D02*
D03*
X2390000D02*
D03*
X2370000D02*
D03*
X2350000D02*
D03*
X2330000D02*
D03*
X2310000D02*
D03*
X2290000D02*
D03*
X2270000D02*
D03*
X3430000D02*
D03*
X3590000D02*
D03*
X3610000D02*
D03*
X3410000D02*
D03*
X3390000D02*
D03*
X3370000D02*
D03*
X3330000D02*
D03*
X3350000D02*
D03*
X3090000D02*
D03*
X3070000D02*
D03*
X3050000D02*
D03*
X3030000D02*
D03*
X3010000D02*
D03*
X2990000D02*
D03*
X2970000D02*
D03*
X2950000D02*
D03*
X2930000D02*
D03*
X2910000D02*
D03*
X2890000D02*
D03*
X2870000D02*
D03*
X2850000D02*
D03*
X1830000D02*
D03*
X1810000D02*
D03*
X1790000D02*
D03*
X1770000D02*
D03*
D84*
X3310000D02*
D03*
X1850000D02*
D03*
D85*
X1000000Y1235000D02*
D03*
Y1375000D02*
D03*
D86*
Y1160000D02*
D03*
X800000D02*
D03*
X850000D02*
D03*
X750000D02*
D03*
Y1235000D02*
D03*
X850000D02*
D03*
X800000D02*
D03*
X1000000Y1300000D02*
D03*
X800000D02*
D03*
X850000D02*
D03*
X750000D02*
D03*
Y1375000D02*
D03*
X850000D02*
D03*
X800000D02*
D03*
D87*
X3150000Y1160000D02*
D03*
Y1390000D02*
D03*
X760000Y960000D02*
D03*
Y1575000D02*
D03*
D88*
X306100Y1094300D02*
D03*
Y1071400D02*
D03*
Y1185700D02*
D03*
Y1208600D02*
D03*
X257800Y1175600D02*
D03*
X240000Y1165400D02*
D03*
X257800Y1155200D02*
D03*
X240000Y1145000D02*
D03*
X257800Y1134800D02*
D03*
X240000Y1124600D02*
D03*
X257800Y1114400D02*
D03*
X306100Y1344300D02*
D03*
Y1321400D02*
D03*
Y1435700D02*
D03*
Y1458600D02*
D03*
X257800Y1425600D02*
D03*
X240000Y1415400D02*
D03*
X257800Y1405200D02*
D03*
X240000Y1395000D02*
D03*
X257800Y1384800D02*
D03*
X240000Y1374600D02*
D03*
X257800Y1364400D02*
D03*
D89*
X248900Y1058700D02*
D03*
Y1221300D02*
D03*
Y1308700D02*
D03*
Y1471300D02*
D03*
D90*
X214600Y1076500D02*
D03*
Y1203500D02*
D03*
Y1326500D02*
D03*
Y1453500D02*
D03*
D91*
X240000Y1104200D02*
D03*
Y1354200D02*
D03*
M02*
