G04*
G04 #@! TF.GenerationSoftware,Altium Limited,Altium Designer,18.1.7 (191)*
G04*
G04 Layer_Color=65535*
%FSLAX44Y44*%
%MOMM*%
G71*
G01*
G75*
%ADD10C,0.2000*%
%ADD11C,0.2500*%
%ADD12C,0.1500*%
%ADD13C,0.1270*%
%ADD14C,0.2540*%
%ADD15C,0.1800*%
G36*
X2878910Y1424100D02*
X2879301Y1424003D01*
X2880375Y1423612D01*
X2880961Y1423319D01*
X2881547Y1422831D01*
X2881644Y1422734D01*
X2881937Y1422441D01*
X2882328Y1421953D01*
X2882718Y1421464D01*
X2882816Y1421367D01*
X2883011Y1421074D01*
X2883304Y1420585D01*
X2883694Y1420000D01*
X2883792Y1419902D01*
X2883890Y1419512D01*
X2883987Y1419023D01*
X2884085Y1418438D01*
Y1418340D01*
X2883987Y1417949D01*
X2883792Y1417461D01*
X2883499Y1416973D01*
X2883401Y1416875D01*
X2883011Y1416582D01*
X2882523Y1416387D01*
X2881937Y1416290D01*
X2881742D01*
X2881351Y1416387D01*
X2880863Y1416582D01*
X2880277Y1416778D01*
X2880179Y1416875D01*
X2879886Y1417071D01*
X2879203Y1417656D01*
X2879106Y1417754D01*
X2878910Y1417949D01*
X2878227Y1418535D01*
X2878129Y1418633D01*
X2877934Y1418730D01*
X2877446Y1418926D01*
X2877348D01*
X2877153Y1419023D01*
X2876665Y1419316D01*
Y1419219D01*
X2876567Y1419023D01*
X2876372Y1418438D01*
Y1418340D01*
X2876274Y1418145D01*
Y1417461D01*
X2876372Y1417363D01*
X2876567Y1416778D01*
X2876762Y1415997D01*
X2877153Y1415020D01*
Y1414922D01*
X2877250Y1414825D01*
X2877446Y1414337D01*
X2877836Y1413556D01*
X2878227Y1412677D01*
Y1412579D01*
X2878422Y1412384D01*
X2878617Y1412091D01*
X2878910Y1411603D01*
X2879789Y1410627D01*
X2880863Y1409650D01*
X2880961Y1409552D01*
X2881156Y1409455D01*
X2881449Y1409260D01*
X2881839Y1408967D01*
X2882816Y1408283D01*
X2884085Y1407502D01*
X2884183Y1407404D01*
X2884378Y1407307D01*
X2884768Y1407112D01*
X2885354Y1406819D01*
X2886624Y1406135D01*
X2888088Y1405354D01*
X2888186D01*
X2888479Y1405159D01*
X2888869Y1405061D01*
X2889358Y1404866D01*
X2890041Y1404573D01*
X2890822Y1404378D01*
X2892482Y1403987D01*
X2892580D01*
X2892872D01*
X2893361D01*
X2893947D01*
X2895216Y1404280D01*
X2895899Y1404475D01*
X2896387Y1404866D01*
Y1404964D01*
X2896583Y1405061D01*
X2896680Y1405452D01*
X2896876Y1405842D01*
X2896973Y1406330D01*
X2897071Y1407014D01*
X2896973Y1407795D01*
X2896876Y1408674D01*
Y1408771D01*
X2896778Y1408869D01*
X2896680Y1409552D01*
X2896387Y1410334D01*
X2895997Y1411310D01*
Y1411408D01*
X2895899Y1411505D01*
X2895509Y1412091D01*
X2895020Y1412872D01*
X2894532Y1413751D01*
Y1413849D01*
X2894435Y1413946D01*
X2894044Y1414434D01*
X2893556Y1415118D01*
X2892872Y1415899D01*
Y1415997D01*
X2892677Y1416094D01*
X2892287Y1416582D01*
X2891701Y1417363D01*
X2891017Y1418340D01*
X2891115D01*
X2891212Y1418242D01*
X2891798Y1418047D01*
X2892580Y1417656D01*
X2893654Y1417071D01*
X2894727Y1416290D01*
X2895899Y1415215D01*
X2896973Y1413849D01*
X2897852Y1412286D01*
Y1412189D01*
X2897950Y1412091D01*
X2898242Y1411505D01*
X2898535Y1410529D01*
X2898926Y1409357D01*
X2899219Y1407990D01*
X2899414Y1406526D01*
X2899316Y1404866D01*
X2899024Y1403304D01*
Y1403206D01*
X2898828Y1402913D01*
X2898633Y1402425D01*
X2898340Y1401839D01*
X2897559Y1400472D01*
X2896973Y1399789D01*
X2896387Y1399203D01*
X2896290Y1399105D01*
X2895997Y1399008D01*
X2895606Y1398715D01*
X2895020Y1398519D01*
X2894337Y1398324D01*
X2893458Y1398129D01*
X2892482Y1398031D01*
X2891505D01*
X2891408D01*
X2891310D01*
X2890822Y1398129D01*
X2890139Y1398226D01*
X2889358Y1398422D01*
X2889260D01*
X2889162Y1398519D01*
X2888674Y1398617D01*
X2887893Y1398715D01*
X2887014Y1398910D01*
Y1398715D01*
X2886917Y1398324D01*
X2886819Y1397641D01*
X2886721Y1396860D01*
Y1396664D01*
X2886624Y1396274D01*
X2886526Y1395590D01*
X2886429Y1394907D01*
X2886331D01*
X2886136D01*
X2886038D01*
X2885843D01*
X2885745Y1395102D01*
X2885647Y1395493D01*
X2885452Y1395981D01*
X2885257Y1396567D01*
Y1396762D01*
X2885061Y1397153D01*
X2884964Y1397641D01*
X2884671Y1398324D01*
Y1398422D01*
X2884573Y1398617D01*
X2884378Y1399008D01*
X2884183Y1399398D01*
X2883597Y1400472D01*
X2882718Y1401644D01*
X2882621Y1401741D01*
X2882523Y1401839D01*
X2882230Y1402132D01*
X2881839Y1402523D01*
X2880961Y1403401D01*
X2879984Y1404475D01*
X2879886Y1404573D01*
X2879594Y1404866D01*
X2879203Y1405354D01*
X2878715Y1405940D01*
X2878129Y1406623D01*
X2877446Y1407502D01*
X2876079Y1409357D01*
X2875981Y1409455D01*
X2875786Y1409845D01*
X2875493Y1410334D01*
X2875200Y1411017D01*
X2874810Y1411896D01*
X2874517Y1412775D01*
X2874224Y1413849D01*
X2874028Y1415020D01*
Y1415313D01*
X2873931Y1415606D01*
Y1415899D01*
X2873833Y1416875D01*
Y1418828D01*
X2873931Y1419707D01*
X2874126Y1420683D01*
Y1420781D01*
X2874224Y1421171D01*
X2874419Y1421562D01*
X2874712Y1422148D01*
X2875103Y1422734D01*
X2875688Y1423319D01*
X2876274Y1423808D01*
X2877153Y1424100D01*
X2877250D01*
X2877543Y1424198D01*
X2877934D01*
X2878324D01*
X2878422D01*
X2878617D01*
X2878910Y1424100D01*
D02*
G37*
G36*
X2866803Y1391197D02*
X2866999Y1390806D01*
X2867291Y1390318D01*
X2867682Y1389634D01*
X2868170Y1388853D01*
X2868658Y1387975D01*
X2869732Y1386120D01*
X2869830Y1386022D01*
X2870025Y1385729D01*
X2870221Y1385143D01*
X2870611Y1384557D01*
X2871099Y1383776D01*
X2871588Y1382995D01*
X2872564Y1381140D01*
X2872466D01*
X2872368Y1381042D01*
Y1380945D01*
X2872271Y1380847D01*
X2872173Y1380945D01*
X2871783Y1381335D01*
X2871197Y1381726D01*
X2870513Y1382312D01*
X2870318Y1382409D01*
X2869928Y1382800D01*
X2869342Y1383288D01*
X2868561Y1383874D01*
Y1383776D01*
X2868463Y1383483D01*
X2868268Y1383093D01*
X2868170Y1382605D01*
Y1382507D01*
X2868073Y1382214D01*
X2867975Y1381823D01*
X2867780Y1381238D01*
X2867682Y1381335D01*
X2867487Y1381628D01*
X2867194Y1382116D01*
X2866706Y1382605D01*
X2866217Y1383288D01*
X2865632Y1384069D01*
X2864460Y1385729D01*
X2864362Y1385827D01*
X2864167Y1386120D01*
X2863874Y1386608D01*
X2863484Y1387193D01*
X2862898Y1387877D01*
X2862312Y1388658D01*
X2861042Y1390415D01*
X2861140D01*
X2861238Y1390318D01*
X2861921Y1390123D01*
X2862800Y1389830D01*
X2863679Y1389439D01*
X2863777D01*
X2863874Y1389341D01*
X2864460Y1389146D01*
X2865241Y1388756D01*
X2866120Y1388365D01*
Y1388463D01*
X2866217Y1388853D01*
X2866315Y1389244D01*
X2866413Y1389732D01*
Y1389830D01*
X2866510Y1390123D01*
X2866608Y1390611D01*
X2866706Y1391294D01*
X2866803Y1391197D01*
D02*
G37*
G36*
X2891017Y1388560D02*
X2891115Y1388463D01*
X2891505Y1388268D01*
X2891994Y1387779D01*
X2892677Y1387291D01*
X2893361Y1386705D01*
X2894240Y1385924D01*
X2895899Y1384362D01*
X2895997Y1384264D01*
X2896192Y1383971D01*
X2896583Y1383483D01*
X2897071Y1382800D01*
X2897559Y1382019D01*
X2898145Y1381042D01*
X2898633Y1379968D01*
X2899121Y1378797D01*
Y1378601D01*
X2899219Y1378211D01*
X2899316Y1377723D01*
X2899414Y1377039D01*
Y1376453D01*
X2899316Y1375867D01*
X2899219Y1375184D01*
Y1375086D01*
X2899121Y1374891D01*
X2899024Y1374598D01*
X2898926Y1374110D01*
X2898535Y1373231D01*
X2897852Y1372450D01*
X2897754D01*
X2897657Y1372255D01*
X2897071Y1371962D01*
X2896290Y1371572D01*
X2895216Y1371279D01*
X2895118D01*
X2894923D01*
X2894532Y1371181D01*
X2894044D01*
X2892970Y1371279D01*
X2891798Y1371474D01*
X2891701D01*
X2891505Y1371572D01*
X2891212Y1371669D01*
X2890822Y1371864D01*
X2889846Y1372255D01*
X2888674Y1372743D01*
X2888576D01*
X2888479Y1372841D01*
X2888186Y1373036D01*
X2887795Y1373231D01*
X2886917Y1373622D01*
X2885843Y1374208D01*
X2885745D01*
X2885647Y1374305D01*
X2885354Y1374501D01*
X2884964Y1374696D01*
X2884085Y1375086D01*
X2883011Y1375672D01*
Y1373427D01*
X2882914Y1373036D01*
Y1372938D01*
X2882816Y1372646D01*
X2882718Y1372157D01*
X2882621Y1371669D01*
X2882523Y1371572D01*
X2882425Y1371279D01*
X2882230Y1370888D01*
X2882035Y1370497D01*
X2881937D01*
X2881839Y1370302D01*
X2881254Y1370107D01*
X2881156D01*
X2880961Y1370009D01*
X2880668D01*
X2880375D01*
X2880277D01*
X2880180Y1370107D01*
X2879984Y1370302D01*
X2879789Y1370497D01*
X2879691Y1370595D01*
X2879594Y1370790D01*
X2879496Y1370986D01*
Y1371864D01*
X2879398Y1372548D01*
Y1373329D01*
X2879203Y1374305D01*
X2878910Y1375379D01*
X2878617Y1376453D01*
X2878129Y1377527D01*
X2878032Y1377625D01*
X2877836Y1378015D01*
X2877543Y1378601D01*
X2877153Y1379285D01*
X2876762Y1380164D01*
X2876274Y1381140D01*
X2875103Y1383288D01*
X2875005Y1383386D01*
X2874907Y1383678D01*
X2874614Y1384167D01*
X2874419Y1384655D01*
X2874321Y1384753D01*
X2874224Y1385143D01*
X2874126Y1385729D01*
X2874028Y1386412D01*
X2874126D01*
X2874419Y1386217D01*
X2874810Y1386022D01*
X2875395Y1385827D01*
X2876665Y1385143D01*
X2878227Y1384362D01*
X2878324D01*
X2878617Y1384167D01*
X2879008Y1383971D01*
X2879594Y1383776D01*
X2880863Y1383093D01*
X2882425Y1382312D01*
X2882523Y1382214D01*
X2882816Y1382116D01*
X2883304Y1381823D01*
X2883890Y1381530D01*
X2884573Y1381140D01*
X2885354Y1380749D01*
X2887112Y1379773D01*
X2887209Y1379675D01*
X2887502Y1379578D01*
X2887991Y1379285D01*
X2888674Y1378992D01*
X2889358Y1378601D01*
X2890236Y1378211D01*
X2891994Y1377332D01*
X2892091D01*
X2892384Y1377137D01*
X2892775Y1377039D01*
X2893165Y1376844D01*
X2893263D01*
X2893556Y1376746D01*
X2894044Y1376649D01*
X2894532Y1376551D01*
X2894630D01*
X2894727D01*
X2895313Y1376649D01*
X2895997Y1376844D01*
X2896583Y1377332D01*
X2896680Y1377527D01*
X2896778Y1377918D01*
Y1378601D01*
X2896680Y1378992D01*
X2896485Y1379480D01*
Y1379578D01*
X2896387Y1379675D01*
X2895997Y1380261D01*
X2895411Y1381042D01*
X2894727Y1381823D01*
Y1381921D01*
X2894532Y1382019D01*
X2894142Y1382605D01*
X2893458Y1383288D01*
X2892775Y1384167D01*
X2892677Y1384264D01*
X2892384Y1384655D01*
X2891896Y1385143D01*
X2891408Y1385631D01*
X2891310Y1385729D01*
X2890920Y1386120D01*
X2890432Y1386510D01*
X2889943Y1387096D01*
X2889846Y1387291D01*
X2889748Y1387486D01*
X2889650Y1387779D01*
Y1388072D01*
X2889553Y1388560D01*
X2889650D01*
X2889748D01*
X2890334Y1388658D01*
X2890432D01*
X2890529D01*
X2891017Y1388560D01*
D02*
G37*
G36*
X2881937Y1363565D02*
X2882328Y1363468D01*
X2883499Y1363077D01*
X2884085Y1362686D01*
X2884671Y1362296D01*
X2884768Y1362198D01*
X2884964Y1362101D01*
X2885257Y1361808D01*
X2885550Y1361417D01*
X2886331Y1360441D01*
X2886624Y1359855D01*
X2886917Y1359171D01*
Y1359074D01*
X2887014Y1358879D01*
X2887112Y1358293D01*
Y1357121D01*
X2886917Y1356633D01*
X2886624Y1355949D01*
X2886136Y1355266D01*
X2886038Y1355168D01*
X2885647Y1354875D01*
X2885061Y1354680D01*
X2884280Y1354583D01*
X2884183D01*
X2883792Y1354680D01*
X2883401Y1354973D01*
X2883011Y1355461D01*
X2882914Y1355656D01*
X2882816Y1356047D01*
X2882718Y1356828D01*
Y1357805D01*
X2882816Y1358098D01*
X2882914Y1358781D01*
Y1359074D01*
X2882718Y1359367D01*
X2882328Y1359562D01*
X2882230D01*
X2882035Y1359660D01*
X2881742Y1359757D01*
X2881351D01*
X2881254D01*
X2880961D01*
X2880375Y1359562D01*
X2880277Y1359464D01*
X2879984Y1359367D01*
X2879691Y1359074D01*
X2879496Y1358683D01*
Y1358586D01*
X2879398Y1358293D01*
Y1357902D01*
X2879496Y1357512D01*
Y1357414D01*
X2879691Y1357023D01*
X2879886Y1356535D01*
X2880082Y1355949D01*
Y1355852D01*
X2880277Y1355461D01*
X2880472Y1354973D01*
X2880765Y1354485D01*
X2880863Y1354290D01*
X2881254Y1353704D01*
X2881839Y1352923D01*
X2882718Y1351849D01*
X2883694Y1350579D01*
X2884768Y1349310D01*
X2885940Y1347943D01*
X2887307Y1346576D01*
X2887502Y1346381D01*
X2887991Y1345990D01*
X2888772Y1345307D01*
X2889846Y1344526D01*
X2891115Y1343647D01*
X2892580Y1342671D01*
X2894240Y1341792D01*
X2896094Y1340913D01*
X2896192D01*
X2896485Y1340718D01*
X2896876Y1340523D01*
X2897364Y1340327D01*
X2898340Y1339644D01*
X2898731Y1339253D01*
X2898926Y1338863D01*
X2899024Y1338668D01*
Y1338375D01*
X2899121Y1337984D01*
X2899219Y1337398D01*
Y1335739D01*
X2899121Y1334567D01*
X2899024D01*
X2898926Y1334664D01*
X2898340Y1334957D01*
X2897462Y1335348D01*
X2896290Y1335934D01*
X2894923Y1336617D01*
X2893458Y1337398D01*
X2891798Y1338277D01*
X2890139Y1339156D01*
X2890041D01*
X2889943Y1339253D01*
X2889358Y1339546D01*
X2888479Y1340034D01*
X2887307Y1340718D01*
X2885940Y1341499D01*
X2884378Y1342378D01*
X2882718Y1343257D01*
X2880961Y1344331D01*
Y1344233D01*
X2881058Y1344038D01*
Y1343647D01*
X2881156Y1343257D01*
X2881449Y1342182D01*
X2881742Y1341109D01*
Y1340913D01*
X2881839Y1340620D01*
X2881937Y1340230D01*
X2882132Y1339351D01*
X2882425Y1338277D01*
X2882328D01*
X2882230D01*
X2882132D01*
X2882035Y1338179D01*
X2881937Y1338277D01*
X2881742Y1338570D01*
X2881644Y1338668D01*
X2881449Y1339058D01*
X2881351Y1339156D01*
X2881254Y1339449D01*
X2881058Y1339937D01*
X2880668Y1340523D01*
X2880375Y1341206D01*
X2879984Y1341987D01*
X2879106Y1343647D01*
X2879008Y1343745D01*
X2878910Y1344038D01*
X2878617Y1344526D01*
X2878227Y1345014D01*
X2877153Y1346381D01*
X2875786Y1347845D01*
X2875688Y1347943D01*
X2875395Y1348236D01*
X2875298Y1348334D01*
X2875200Y1348724D01*
Y1349798D01*
X2875298Y1349993D01*
X2875395Y1350189D01*
X2875591Y1350287D01*
X2875786Y1350384D01*
X2876079Y1350482D01*
X2876176D01*
X2876372D01*
X2876860D01*
X2877055Y1350384D01*
X2877446Y1350287D01*
X2877934Y1349993D01*
X2878617Y1349701D01*
X2878715Y1349603D01*
X2879106Y1349505D01*
X2879691Y1349212D01*
X2880375Y1348920D01*
Y1349017D01*
X2880277Y1349310D01*
X2880082Y1349701D01*
X2879886Y1350189D01*
X2879301Y1351458D01*
X2878715Y1352825D01*
Y1352923D01*
X2878617Y1353118D01*
X2878422Y1353508D01*
X2878227Y1354094D01*
X2877739Y1355364D01*
X2877250Y1356828D01*
Y1357023D01*
X2877153Y1357414D01*
X2877055Y1358000D01*
Y1359855D01*
X2877153Y1360538D01*
Y1360636D01*
X2877250Y1360831D01*
X2877446Y1361515D01*
X2877836Y1362296D01*
X2878520Y1362979D01*
X2878715Y1363077D01*
X2879301Y1363370D01*
X2880082Y1363565D01*
X2881254Y1363663D01*
X2881351D01*
X2881547D01*
X2881937Y1363565D01*
D02*
G37*
G36*
X2870904Y1337203D02*
X2871392Y1337008D01*
X2871685Y1336617D01*
Y1336520D01*
X2871783Y1336227D01*
X2871880Y1335836D01*
X2871978Y1335250D01*
Y1334079D01*
X2872076Y1333395D01*
Y1332321D01*
X2871978Y1331638D01*
Y1330954D01*
X2872076Y1330368D01*
X2872368Y1329685D01*
X2872466Y1329587D01*
X2872759Y1329294D01*
X2873247Y1328904D01*
X2873931Y1328513D01*
X2874028D01*
X2874224Y1328318D01*
X2874614Y1328220D01*
X2875103Y1327927D01*
X2876372Y1327342D01*
X2877836Y1326561D01*
X2877934D01*
X2878129Y1326365D01*
X2878520Y1326170D01*
X2879008Y1325975D01*
X2880180Y1325291D01*
X2881644Y1324510D01*
X2881742Y1324413D01*
X2882035Y1324315D01*
X2882523Y1324022D01*
X2883206Y1323729D01*
X2883890Y1323338D01*
X2884768Y1322948D01*
X2886526Y1321971D01*
X2886624Y1321874D01*
X2886917Y1321776D01*
X2887405Y1321483D01*
X2888088Y1321190D01*
X2888772Y1320800D01*
X2889650Y1320409D01*
X2891505Y1319531D01*
X2891701Y1319433D01*
X2892091Y1319238D01*
X2892580Y1319042D01*
X2893263Y1318750D01*
X2893458Y1318652D01*
X2893849Y1318554D01*
X2894337Y1318359D01*
X2895020Y1318261D01*
X2895118D01*
X2895216D01*
X2895802D01*
X2896387Y1318457D01*
X2896680Y1318652D01*
X2896876Y1318945D01*
X2896973Y1319140D01*
X2897071Y1319531D01*
Y1320214D01*
X2896973Y1320605D01*
X2896778Y1320995D01*
X2896680Y1321190D01*
X2896485Y1321581D01*
X2896192Y1322167D01*
X2895704Y1322753D01*
X2895606Y1322948D01*
X2895216Y1323338D01*
X2894825Y1323827D01*
X2894240Y1324413D01*
X2894044Y1324608D01*
X2893556Y1324998D01*
X2892872Y1325682D01*
X2892091Y1326463D01*
X2891994D01*
X2891896Y1326658D01*
X2891408Y1327049D01*
X2890724Y1327634D01*
X2889943Y1328318D01*
Y1328416D01*
X2890041Y1328513D01*
X2890139Y1328611D01*
X2890236Y1328806D01*
X2890334D01*
X2890432Y1328708D01*
X2891017Y1328611D01*
X2891115D01*
X2891212Y1328513D01*
X2891798Y1328318D01*
X2891896D01*
X2892091Y1328123D01*
X2892482Y1327927D01*
X2892970Y1327732D01*
X2894044Y1327049D01*
X2895313Y1326170D01*
X2895411Y1326072D01*
X2895606Y1325975D01*
X2895802Y1325682D01*
X2896192Y1325291D01*
X2897169Y1324413D01*
X2898145Y1323241D01*
Y1323143D01*
X2898340Y1323046D01*
X2898633Y1322460D01*
X2899121Y1321679D01*
X2899512Y1320702D01*
Y1320605D01*
X2899609Y1320507D01*
X2899707Y1319823D01*
X2899902Y1318945D01*
X2900000Y1317968D01*
Y1317285D01*
X2899902Y1316992D01*
Y1316602D01*
X2899512Y1315723D01*
X2899316Y1315235D01*
X2898926Y1314746D01*
X2898828Y1314649D01*
X2898731Y1314551D01*
X2898438Y1314356D01*
X2898047Y1314063D01*
X2897071Y1313672D01*
X2896485Y1313477D01*
X2895899D01*
X2895802D01*
X2895704D01*
X2895020D01*
X2894142Y1313575D01*
X2893165Y1313672D01*
X2893068D01*
X2892970D01*
X2892384Y1313868D01*
X2891603Y1314063D01*
X2890627Y1314356D01*
X2890529D01*
X2890236Y1314453D01*
X2889846Y1314649D01*
X2889260Y1314844D01*
X2887991Y1315332D01*
X2886429Y1315918D01*
X2886331D01*
X2886038Y1316113D01*
X2885647Y1316309D01*
X2885159Y1316504D01*
X2884573Y1316797D01*
X2883792Y1317187D01*
X2882230Y1317871D01*
Y1317773D01*
X2882328Y1317480D01*
X2882425Y1317090D01*
X2882523Y1316602D01*
X2882914Y1315430D01*
X2883206Y1314063D01*
Y1313965D01*
X2883304Y1313770D01*
X2883401Y1313379D01*
X2883499Y1312891D01*
X2883792Y1311720D01*
X2884085Y1310450D01*
X2883987Y1310353D01*
X2883890Y1310255D01*
X2883792D01*
X2883597Y1310157D01*
Y1310255D01*
X2883499Y1310353D01*
X2883206Y1310939D01*
X2882816Y1311720D01*
X2882425Y1312696D01*
Y1312794D01*
X2882328Y1312891D01*
X2882035Y1313575D01*
X2881644Y1314356D01*
X2881156Y1315235D01*
Y1315332D01*
X2881058Y1315430D01*
X2880668Y1316016D01*
X2880082Y1316699D01*
X2879496Y1317578D01*
Y1317675D01*
X2879301Y1317773D01*
X2878910Y1318359D01*
X2878324Y1319140D01*
X2877543Y1319921D01*
X2877348Y1320116D01*
X2876860Y1320507D01*
X2876176Y1321093D01*
X2875200Y1321776D01*
X2875103D01*
X2875005Y1321971D01*
X2874321Y1322362D01*
X2873443Y1323046D01*
X2872368Y1323924D01*
Y1323729D01*
X2872271Y1323143D01*
Y1321386D01*
X2872173Y1320995D01*
Y1320507D01*
X2872076Y1319823D01*
Y1319726D01*
X2871978Y1319628D01*
X2871783Y1319042D01*
Y1318945D01*
X2871685Y1318847D01*
X2871392Y1318359D01*
X2871295D01*
X2871099Y1318457D01*
X2870416Y1318847D01*
X2870318D01*
X2870123Y1319042D01*
X2869830Y1319140D01*
X2869732Y1319433D01*
X2869635Y1319628D01*
X2869537Y1320019D01*
X2869342Y1320605D01*
X2869146Y1321288D01*
Y1321483D01*
X2869049Y1321874D01*
Y1323338D01*
X2868951Y1323827D01*
X2868853Y1324510D01*
X2868658Y1325096D01*
X2868561Y1325194D01*
X2868268Y1325486D01*
X2867780Y1325877D01*
X2867096Y1326365D01*
X2866901Y1326463D01*
X2866510Y1326658D01*
X2866022Y1326951D01*
X2865339Y1327439D01*
X2865241Y1327537D01*
X2864850Y1327732D01*
X2864362Y1328123D01*
X2863777Y1328611D01*
X2863679Y1328708D01*
X2863581Y1328806D01*
X2863093Y1329392D01*
X2862995Y1329490D01*
X2862898Y1329685D01*
X2862702Y1329978D01*
X2862605Y1330368D01*
Y1330466D01*
X2862507Y1330564D01*
Y1331052D01*
X2862605Y1331735D01*
X2862702Y1332028D01*
X2862898Y1332321D01*
X2862995Y1332419D01*
X2863386Y1332712D01*
X2864070Y1332907D01*
X2864948D01*
X2865046D01*
X2865241Y1332809D01*
X2865827Y1332614D01*
X2865924D01*
X2866120Y1332516D01*
X2866706Y1332224D01*
X2866803D01*
X2866901Y1332126D01*
X2867487Y1331931D01*
X2867584D01*
X2867780Y1331833D01*
X2868073Y1331638D01*
X2868561Y1331442D01*
Y1331638D01*
X2868658Y1332126D01*
Y1332809D01*
X2868756Y1333493D01*
Y1333688D01*
X2868853Y1334079D01*
Y1334664D01*
X2868951Y1335348D01*
Y1335446D01*
X2869049Y1335739D01*
X2869146Y1336129D01*
X2869244Y1336617D01*
X2869342Y1336715D01*
X2869537Y1336910D01*
X2869830Y1337203D01*
X2870416Y1337301D01*
X2870611D01*
X2870904Y1337203D01*
D02*
G37*
G36*
X2817106Y1344526D02*
X2817203D01*
X2817301D01*
X2817984Y1344331D01*
X2818863Y1344135D01*
X2819839Y1343745D01*
X2819937D01*
X2820035Y1343647D01*
X2820621Y1343452D01*
X2821402Y1343061D01*
X2822281Y1342573D01*
X2822476Y1342475D01*
X2823062Y1342182D01*
X2823940Y1341694D01*
X2825112Y1341011D01*
X2826479Y1340230D01*
X2827943Y1339449D01*
X2829603Y1338472D01*
X2831263Y1337496D01*
X2831458Y1337398D01*
X2832044Y1337008D01*
X2832923Y1336520D01*
X2833997Y1335836D01*
X2835364Y1335055D01*
X2836829Y1334176D01*
X2838488Y1333297D01*
X2840148Y1332321D01*
X2840343Y1332224D01*
X2840734Y1332028D01*
X2841418Y1331638D01*
X2842296Y1331345D01*
X2842394D01*
X2842491Y1331247D01*
X2842980Y1331149D01*
X2843761Y1330954D01*
X2844640Y1330759D01*
X2844737D01*
X2844932D01*
X2845518Y1330661D01*
X2846299Y1330759D01*
X2846592Y1330954D01*
X2846885Y1331247D01*
X2846983Y1331442D01*
X2847080Y1331833D01*
X2847178Y1332614D01*
X2847080Y1333005D01*
X2846983Y1333590D01*
Y1333688D01*
X2846885Y1333883D01*
X2846787Y1334176D01*
X2846592Y1334469D01*
X2846202Y1335348D01*
X2845518Y1336227D01*
X2845421Y1336324D01*
X2845323Y1336422D01*
X2844835Y1336910D01*
X2844151Y1337691D01*
X2843272Y1338472D01*
X2843175Y1338570D01*
X2842784Y1338863D01*
X2842296Y1339253D01*
X2841808Y1339742D01*
X2841710Y1339839D01*
X2841418Y1340132D01*
X2841027Y1340523D01*
X2840636Y1341109D01*
Y1341206D01*
X2840539Y1341401D01*
X2840441Y1341694D01*
Y1342573D01*
X2840539Y1342964D01*
X2840734Y1343159D01*
X2840832Y1343257D01*
X2840929Y1343354D01*
X2841320Y1343452D01*
X2841808D01*
X2841906D01*
X2842198D01*
X2842589Y1343354D01*
X2842882Y1343159D01*
X2842980Y1343061D01*
X2843272Y1342768D01*
X2843761Y1342378D01*
X2844347Y1341890D01*
X2845030Y1341206D01*
X2845714Y1340523D01*
X2847276Y1338961D01*
X2847373Y1338863D01*
X2847666Y1338570D01*
X2848057Y1338082D01*
X2848545Y1337496D01*
X2849033Y1336715D01*
X2849619Y1335836D01*
X2850205Y1334860D01*
X2850791Y1333786D01*
X2850888Y1333688D01*
X2850986Y1333297D01*
X2851181Y1332712D01*
X2851279Y1331931D01*
X2851377Y1331052D01*
X2851279Y1330173D01*
X2851084Y1329197D01*
X2850595Y1328220D01*
X2850498Y1328123D01*
X2850302Y1327830D01*
X2849912Y1327439D01*
X2849424Y1327049D01*
X2848740Y1326561D01*
X2847959Y1326072D01*
X2847080Y1325682D01*
X2846104Y1325486D01*
X2846006D01*
X2845811D01*
X2845323Y1325389D01*
X2845225D01*
X2845030D01*
X2844640D01*
X2844249Y1325291D01*
X2844151D01*
X2843858Y1325389D01*
X2843370D01*
X2842784Y1325486D01*
X2842003Y1325682D01*
X2841222Y1325877D01*
X2839465Y1326268D01*
X2839367D01*
X2839074Y1326365D01*
X2838586Y1326561D01*
X2838000Y1326756D01*
X2837317Y1327049D01*
X2836536Y1327342D01*
X2834876Y1328025D01*
X2834778Y1328123D01*
X2834485Y1328220D01*
X2833997Y1328513D01*
X2833411Y1328904D01*
X2832728Y1329392D01*
X2831947Y1329880D01*
X2830287Y1330954D01*
X2830189Y1331052D01*
X2829896Y1331247D01*
X2829408Y1331540D01*
X2828822Y1331931D01*
X2828139Y1332419D01*
X2827357Y1332907D01*
X2825698Y1334079D01*
X2825600D01*
X2825503Y1334274D01*
X2824917Y1334664D01*
X2824136Y1335250D01*
X2823354Y1335934D01*
X2823257D01*
X2823159Y1336129D01*
X2822671Y1336520D01*
X2821890Y1337105D01*
X2821109Y1337789D01*
X2821011Y1337887D01*
X2820816Y1337984D01*
X2820328Y1338375D01*
X2820230D01*
X2820035Y1338472D01*
X2819449Y1338765D01*
X2819351D01*
X2818961Y1338863D01*
X2818570Y1338765D01*
X2818082Y1338570D01*
X2817984Y1338472D01*
X2817887Y1338277D01*
X2817789Y1337887D01*
X2817887Y1337301D01*
X2817984Y1337203D01*
X2818082Y1336812D01*
X2818375Y1336324D01*
X2818668Y1335836D01*
X2818766Y1335739D01*
X2818961Y1335348D01*
X2819254Y1334860D01*
X2819644Y1334371D01*
X2819742Y1334274D01*
X2819937Y1333981D01*
X2820328Y1333590D01*
X2820816Y1333102D01*
X2820913Y1333005D01*
X2821011Y1332712D01*
Y1332028D01*
X2820816Y1331735D01*
X2820718Y1331638D01*
X2820328Y1331345D01*
X2819839Y1331149D01*
X2819254D01*
X2819059D01*
X2818668Y1331345D01*
X2818180Y1331442D01*
X2817496Y1331735D01*
X2817399Y1331833D01*
X2817106Y1332028D01*
X2816617Y1332321D01*
X2816129Y1332712D01*
X2815446Y1333297D01*
X2814860Y1334079D01*
X2814274Y1334957D01*
X2813688Y1336031D01*
Y1336129D01*
X2813493Y1336422D01*
X2813395Y1336812D01*
X2813200Y1337301D01*
X2812907Y1338570D01*
X2812712Y1339937D01*
Y1340425D01*
X2812809Y1341011D01*
X2813005Y1341597D01*
Y1341694D01*
X2813102Y1341890D01*
X2813298Y1342573D01*
X2813786Y1343354D01*
X2814470Y1344038D01*
X2814665Y1344135D01*
X2815153Y1344428D01*
X2816032Y1344624D01*
X2816520D01*
X2817106Y1344526D01*
D02*
G37*
G36*
X2821890Y1316797D02*
X2821988Y1316699D01*
Y1316602D01*
X2822183Y1316504D01*
X2822574Y1315918D01*
X2823062Y1315137D01*
X2823745Y1314160D01*
Y1314063D01*
X2823843Y1313965D01*
X2824038Y1313672D01*
X2824136Y1313282D01*
X2824526Y1312305D01*
X2824917Y1311134D01*
X2824819D01*
X2824624D01*
X2824233Y1311036D01*
X2823745D01*
X2822671Y1311134D01*
X2822085Y1311329D01*
X2821499Y1311524D01*
X2821402D01*
X2821206Y1311622D01*
X2820621Y1312110D01*
X2819937Y1312794D01*
X2819644Y1313282D01*
X2819449Y1313868D01*
Y1313965D01*
X2819351Y1314356D01*
X2819449Y1314844D01*
X2819547Y1315527D01*
X2819644Y1315723D01*
X2819839Y1316016D01*
X2820132Y1316406D01*
X2820621Y1316797D01*
X2820718D01*
X2820816Y1316894D01*
X2821402D01*
X2821499D01*
X2821695D01*
X2821890Y1316797D01*
D02*
G37*
G36*
X2843663Y1317090D02*
X2844347Y1316602D01*
X2844444Y1316504D01*
X2844737Y1316309D01*
X2845128Y1316016D01*
X2845616Y1315625D01*
X2846787Y1314649D01*
X2848057Y1313379D01*
X2848154Y1313282D01*
X2848350Y1313087D01*
X2848643Y1312696D01*
X2849033Y1312208D01*
X2849521Y1311524D01*
X2850009Y1310841D01*
X2850986Y1309279D01*
Y1309181D01*
X2851181Y1308888D01*
X2851279Y1308498D01*
X2851474Y1308107D01*
Y1308009D01*
X2851572Y1307717D01*
X2851669Y1307326D01*
X2851767Y1306935D01*
Y1304983D01*
X2851572Y1304104D01*
X2851279Y1303225D01*
X2850888Y1302444D01*
X2850205Y1301663D01*
X2850107Y1301565D01*
X2849814Y1301370D01*
X2849424Y1301077D01*
X2848740Y1300784D01*
X2847959Y1300589D01*
X2847080Y1300394D01*
X2846006Y1300491D01*
X2844835Y1300687D01*
X2844737D01*
X2844640Y1300784D01*
X2843956Y1300979D01*
X2843077Y1301272D01*
X2842101Y1301761D01*
X2842003D01*
X2841906Y1301858D01*
X2841222Y1302151D01*
X2840343Y1302542D01*
X2839367Y1303030D01*
X2839269Y1303127D01*
X2838879Y1303225D01*
X2838293Y1303518D01*
X2837707Y1303811D01*
X2837512Y1303909D01*
X2837121Y1304104D01*
X2836536Y1304397D01*
X2835754Y1304690D01*
Y1303518D01*
X2835852Y1302932D01*
Y1301956D01*
X2835754Y1301468D01*
Y1301370D01*
X2835559Y1301077D01*
X2835168Y1300394D01*
X2835071Y1300296D01*
X2834876Y1300101D01*
X2834290Y1299417D01*
X2834192D01*
X2833997Y1299320D01*
X2833704Y1299222D01*
X2833314Y1299320D01*
X2833216D01*
X2833021Y1299515D01*
X2832825Y1299808D01*
X2832728Y1300296D01*
Y1300979D01*
X2832630Y1301663D01*
X2832532Y1302639D01*
X2832239Y1303811D01*
X2831947Y1304983D01*
X2831458Y1306252D01*
X2830872Y1307521D01*
X2830775Y1307717D01*
X2830580Y1308107D01*
X2830189Y1308693D01*
X2829701Y1309572D01*
X2829115Y1310548D01*
X2828529Y1311720D01*
X2827260Y1314160D01*
Y1314258D01*
X2827162Y1314356D01*
X2827065Y1314746D01*
X2826967Y1314942D01*
X2826772Y1315137D01*
X2826674Y1315527D01*
X2826772Y1315430D01*
X2827065Y1315332D01*
X2827553Y1315137D01*
X2828139Y1314844D01*
X2828822Y1314453D01*
X2829506Y1314063D01*
X2831165Y1313282D01*
X2831263D01*
X2831556Y1313087D01*
X2831947Y1312891D01*
X2832435Y1312598D01*
X2833802Y1311915D01*
X2835266Y1311134D01*
X2835364D01*
X2835559Y1310939D01*
X2835950Y1310841D01*
X2836340Y1310548D01*
X2837512Y1309962D01*
X2838781Y1309279D01*
X2838879D01*
X2839074Y1309083D01*
X2839465Y1308888D01*
X2839855Y1308693D01*
X2841027Y1308107D01*
X2842296Y1307424D01*
X2842394Y1307326D01*
X2842687Y1307228D01*
X2843175Y1306935D01*
X2843761Y1306740D01*
X2843858Y1306642D01*
X2844151Y1306545D01*
X2844640Y1306252D01*
X2845225Y1306057D01*
X2845323D01*
X2845421Y1305959D01*
X2846006Y1305764D01*
X2846690Y1305568D01*
X2847471D01*
X2847666D01*
X2847959Y1305666D01*
X2848447Y1305861D01*
X2848838Y1306252D01*
Y1306349D01*
X2848936Y1306447D01*
X2849131Y1306935D01*
X2849229Y1307521D01*
X2849131Y1307814D01*
X2849033Y1308107D01*
X2848936Y1308302D01*
X2848740Y1308595D01*
X2848447Y1309181D01*
X2848057Y1309669D01*
X2847959Y1309767D01*
X2847862Y1309865D01*
X2847373Y1310548D01*
X2846592Y1311329D01*
X2845811Y1312305D01*
X2845714Y1312403D01*
X2845616Y1312501D01*
X2845030Y1313087D01*
X2844249Y1313965D01*
X2843370Y1314942D01*
X2843272Y1315039D01*
X2843077Y1315235D01*
X2842589Y1315820D01*
X2842491Y1315918D01*
X2842394Y1316113D01*
X2841808Y1316797D01*
X2842003Y1316894D01*
X2842394Y1317090D01*
X2842882Y1317187D01*
X2843370D01*
X2843468D01*
X2843663Y1317090D01*
D02*
G37*
G36*
X2879496Y1305471D02*
X2880082Y1305276D01*
X2880668Y1305080D01*
X2881351Y1304690D01*
X2881449Y1304592D01*
X2881644Y1304494D01*
X2881937Y1304202D01*
X2882328Y1303811D01*
X2883206Y1302835D01*
X2884085Y1301468D01*
Y1301370D01*
X2884183Y1300979D01*
X2884280Y1300784D01*
X2884378Y1300491D01*
Y1299710D01*
X2884280Y1299027D01*
X2883987Y1298343D01*
X2883890Y1298246D01*
X2883499Y1297953D01*
X2882914Y1297855D01*
X2882523Y1297757D01*
X2882035Y1297855D01*
X2881839Y1297953D01*
X2881449Y1298050D01*
X2880961Y1298343D01*
X2880375Y1298734D01*
X2880277Y1298831D01*
X2879886Y1299124D01*
X2879398Y1299417D01*
X2878813Y1299808D01*
X2878715D01*
X2878520Y1299906D01*
X2877934Y1300296D01*
X2877836D01*
X2877641Y1300394D01*
X2877055Y1300784D01*
Y1300687D01*
X2876957Y1300394D01*
Y1300003D01*
X2876860Y1299612D01*
Y1299515D01*
X2876762Y1299320D01*
Y1298441D01*
X2876860Y1298246D01*
Y1297855D01*
X2876957Y1297464D01*
X2877348Y1296391D01*
X2877836Y1295219D01*
Y1295121D01*
X2877934Y1294926D01*
X2878129Y1294633D01*
X2878422Y1294243D01*
X2879008Y1293364D01*
X2879886Y1292387D01*
X2879984Y1292290D01*
X2880375Y1291997D01*
X2880961Y1291509D01*
X2881644Y1290825D01*
X2882523Y1290142D01*
X2883597Y1289458D01*
X2884671Y1288677D01*
X2885843Y1287994D01*
X2885940Y1287896D01*
X2886429Y1287701D01*
X2887014Y1287408D01*
X2887893Y1287115D01*
X2888967Y1286627D01*
X2890139Y1286236D01*
X2891505Y1285846D01*
X2892872Y1285553D01*
X2892970D01*
X2893361Y1285455D01*
X2893849D01*
X2894435Y1285553D01*
X2894532D01*
X2894923Y1285650D01*
X2895411Y1285748D01*
X2895997Y1285943D01*
X2896094Y1286041D01*
X2896387Y1286236D01*
X2896778Y1286529D01*
X2897169Y1287017D01*
X2897266Y1287115D01*
X2897364Y1287505D01*
X2897462Y1287994D01*
Y1288872D01*
X2897364Y1289263D01*
X2897169Y1289946D01*
X2897071Y1290630D01*
Y1290728D01*
X2896876Y1291118D01*
X2896778Y1291606D01*
X2896485Y1292192D01*
Y1292290D01*
X2896290Y1292485D01*
X2896094Y1292876D01*
X2895802Y1293364D01*
X2895118Y1294535D01*
X2894240Y1295902D01*
X2894142Y1296000D01*
X2894044Y1296195D01*
X2893751Y1296586D01*
X2893458Y1297074D01*
X2892677Y1298246D01*
X2891701Y1299612D01*
X2891896Y1299515D01*
X2892384Y1299320D01*
X2893165Y1299027D01*
X2894044Y1298441D01*
X2895118Y1297660D01*
X2896192Y1296683D01*
X2897266Y1295414D01*
X2898145Y1293852D01*
X2898242Y1293657D01*
X2898535Y1293071D01*
X2898926Y1292192D01*
X2899219Y1291118D01*
X2899609Y1289751D01*
X2899707Y1288189D01*
Y1286529D01*
X2899414Y1284772D01*
Y1284674D01*
X2899316Y1284381D01*
X2899121Y1283893D01*
X2898828Y1283307D01*
X2898535Y1282721D01*
X2898047Y1282038D01*
X2897559Y1281354D01*
X2896876Y1280768D01*
X2896778Y1280671D01*
X2896583Y1280573D01*
X2896192Y1280280D01*
X2895802Y1280085D01*
X2895118Y1279792D01*
X2894435Y1279597D01*
X2893654Y1279402D01*
X2892677D01*
X2892580D01*
X2892482D01*
X2891896Y1279499D01*
X2891115Y1279597D01*
X2890139Y1279695D01*
X2890041D01*
X2889943Y1279792D01*
X2889260Y1279890D01*
X2888381Y1279987D01*
X2887405Y1280183D01*
Y1279987D01*
X2887307Y1279597D01*
X2887209Y1279011D01*
X2887112Y1278327D01*
Y1278132D01*
X2887014Y1277742D01*
X2886917Y1277058D01*
X2886819Y1276180D01*
X2886721D01*
X2886624Y1276277D01*
X2886429Y1276375D01*
X2886331Y1276472D01*
X2886233Y1276570D01*
X2886136Y1276668D01*
Y1276765D01*
X2886038Y1277156D01*
X2885843Y1277644D01*
X2885550Y1278327D01*
X2885257Y1279109D01*
X2884866Y1279987D01*
X2883890Y1281745D01*
X2883792Y1281842D01*
X2883597Y1282135D01*
X2883206Y1282526D01*
X2882816Y1283112D01*
X2881644Y1284479D01*
X2880180Y1286041D01*
X2880082Y1286139D01*
X2879691Y1286529D01*
X2879203Y1287115D01*
X2878617Y1287798D01*
X2877934Y1288677D01*
X2877250Y1289653D01*
X2875786Y1291899D01*
X2875688Y1292094D01*
X2875493Y1292485D01*
X2875298Y1293168D01*
X2874907Y1294047D01*
X2874614Y1295121D01*
X2874419Y1296391D01*
X2874224Y1297757D01*
X2874126Y1299222D01*
Y1300198D01*
X2874224Y1300784D01*
X2874517Y1302151D01*
X2874712Y1302835D01*
X2875005Y1303420D01*
Y1303518D01*
X2875200Y1303713D01*
X2875688Y1304299D01*
X2876665Y1304983D01*
X2877250Y1305276D01*
X2877934Y1305471D01*
X2878032D01*
X2878227D01*
X2878520Y1305568D01*
X2879008D01*
X2879496Y1305471D01*
D02*
G37*
G36*
X2839465Y1293168D02*
X2839660Y1293071D01*
X2840246Y1292485D01*
X2840929Y1291704D01*
X2841613Y1290630D01*
Y1290532D01*
X2841710Y1290337D01*
X2841808Y1290044D01*
X2841906Y1289653D01*
X2842003Y1288677D01*
Y1288091D01*
X2841906Y1287408D01*
Y1287213D01*
X2841808Y1286822D01*
X2841906Y1286236D01*
X2842003Y1285650D01*
X2842101Y1285553D01*
X2842198Y1285260D01*
X2842491Y1284869D01*
X2842980Y1284381D01*
X2843077D01*
X2843175Y1284186D01*
X2843761Y1283698D01*
X2844542Y1283014D01*
X2845421Y1282233D01*
X2845518Y1282135D01*
X2845616Y1282038D01*
X2846202Y1281550D01*
X2846885Y1280768D01*
X2847569Y1279890D01*
X2847666Y1279792D01*
X2847959Y1279499D01*
X2848350Y1278913D01*
X2848838Y1278327D01*
X2849326Y1277449D01*
X2849814Y1276570D01*
X2850302Y1275496D01*
X2850693Y1274422D01*
Y1274324D01*
X2850791Y1273934D01*
X2850986Y1273348D01*
X2851084Y1272567D01*
X2851181Y1271590D01*
Y1270517D01*
X2851084Y1269345D01*
X2850888Y1268076D01*
Y1267978D01*
X2850791Y1267783D01*
X2850595Y1267099D01*
X2850205Y1266318D01*
X2849912Y1266025D01*
X2849619Y1265732D01*
X2849424Y1265635D01*
X2848936Y1265342D01*
X2848057Y1265049D01*
X2846885Y1264854D01*
X2846787D01*
X2846690D01*
X2846006Y1264756D01*
X2845128Y1264854D01*
X2844151Y1264951D01*
X2844054D01*
X2843956Y1265049D01*
X2843272Y1265244D01*
X2842491Y1265537D01*
X2841515Y1265928D01*
X2841418D01*
X2841222Y1266025D01*
X2840832Y1266220D01*
X2840441Y1266416D01*
X2839367Y1267002D01*
X2838098Y1267587D01*
X2838000D01*
X2837805Y1267685D01*
X2837512Y1267880D01*
X2837024Y1268076D01*
X2835950Y1268661D01*
X2834680Y1269247D01*
X2834583Y1269345D01*
X2834388Y1269443D01*
X2833802Y1269735D01*
X2833704Y1269833D01*
X2833509Y1269931D01*
X2833118Y1270126D01*
X2832630Y1270321D01*
Y1269735D01*
X2832728Y1269150D01*
Y1268466D01*
X2832825Y1268076D01*
Y1267587D01*
X2832923Y1267099D01*
X2832825D01*
X2832728D01*
X2832435D01*
X2832337D01*
X2832239D01*
X2832142Y1267197D01*
X2831947Y1267490D01*
X2831654Y1267880D01*
X2831361Y1268369D01*
X2830385Y1269735D01*
X2829408Y1271200D01*
X2829310Y1271298D01*
X2829115Y1271590D01*
X2828822Y1271981D01*
X2828529Y1272567D01*
X2827553Y1273836D01*
X2826577Y1275398D01*
Y1275496D01*
X2826479Y1275691D01*
X2826381Y1275984D01*
Y1276765D01*
X2826479Y1277058D01*
X2826674Y1277351D01*
Y1277449D01*
X2826870Y1277546D01*
X2827162Y1277644D01*
X2827553Y1277742D01*
X2827650D01*
X2827846D01*
X2828529D01*
X2828627D01*
X2828920Y1277546D01*
X2829506Y1277351D01*
X2830092Y1277058D01*
X2830872Y1276765D01*
X2831751Y1276375D01*
X2833606Y1275496D01*
X2833704Y1275398D01*
X2833997Y1275301D01*
X2834485Y1275106D01*
X2835168Y1274813D01*
X2835852Y1274422D01*
X2836731Y1274032D01*
X2838586Y1273153D01*
X2838683D01*
X2838879Y1273055D01*
X2839172Y1272860D01*
X2839660Y1272665D01*
X2840734Y1272176D01*
X2842003Y1271688D01*
X2842101D01*
X2842296Y1271590D01*
X2842589Y1271395D01*
X2843077Y1271298D01*
X2844054Y1270809D01*
X2845323Y1270321D01*
X2845421D01*
X2845616Y1270224D01*
X2846299Y1270126D01*
X2846397D01*
X2846592D01*
X2847080Y1270028D01*
X2847276D01*
X2847666D01*
X2848154Y1270224D01*
X2848545Y1270614D01*
X2848643Y1270712D01*
X2848740Y1271005D01*
X2848838Y1271493D01*
X2848740Y1272079D01*
X2848643Y1272176D01*
Y1272274D01*
X2848545Y1272372D01*
X2848447Y1272469D01*
X2848252Y1272860D01*
X2847862Y1273348D01*
X2847373Y1273934D01*
X2846885Y1274715D01*
X2846202Y1275594D01*
X2844835Y1277449D01*
X2844737Y1277546D01*
X2844444Y1277839D01*
X2844054Y1278327D01*
X2843565Y1278913D01*
X2842882Y1279597D01*
X2842101Y1280378D01*
X2840343Y1281842D01*
X2840246Y1281940D01*
X2839855Y1282135D01*
X2839367Y1282331D01*
X2838879Y1282428D01*
X2838781D01*
X2838391D01*
X2837805Y1282331D01*
X2837219Y1282233D01*
X2837121D01*
X2836731Y1282135D01*
X2836243Y1282038D01*
X2835559Y1281940D01*
X2834778D01*
X2833899D01*
X2833021D01*
X2832142Y1282135D01*
X2832044D01*
X2831751Y1282233D01*
X2831263Y1282428D01*
X2830677Y1282721D01*
X2829994Y1283112D01*
X2829310Y1283698D01*
X2828529Y1284381D01*
X2827846Y1285162D01*
X2827748Y1285260D01*
X2827455Y1285650D01*
X2827162Y1286139D01*
X2826870Y1286724D01*
X2826772Y1286920D01*
X2826674Y1287310D01*
Y1287896D01*
X2826870Y1288580D01*
Y1288677D01*
X2826967Y1288775D01*
X2827260Y1289165D01*
X2827748Y1289653D01*
X2828334Y1290044D01*
X2828529D01*
X2828920Y1290142D01*
X2829603Y1290239D01*
X2830385D01*
X2830580D01*
X2831068D01*
X2831751Y1290142D01*
X2832532Y1290044D01*
X2832728D01*
X2833216Y1289946D01*
X2833802Y1289751D01*
X2834583Y1289556D01*
X2834778D01*
X2835266Y1289361D01*
X2835852Y1289165D01*
X2836633Y1288872D01*
X2836829Y1288775D01*
X2837317Y1288677D01*
X2838000Y1288384D01*
X2838781Y1288091D01*
Y1288189D01*
X2838976Y1288287D01*
X2839269Y1288872D01*
X2839465Y1289653D01*
Y1290142D01*
X2839367Y1290630D01*
Y1290728D01*
X2839269Y1290825D01*
X2839172Y1291411D01*
Y1292290D01*
X2839367Y1293266D01*
X2839465Y1293168D01*
D02*
G37*
G36*
X2820718Y1257726D02*
X2821109Y1257531D01*
X2821206D01*
X2821304Y1257433D01*
X2821499Y1257336D01*
X2821597Y1257140D01*
Y1257042D01*
X2821695Y1256945D01*
X2821988Y1256457D01*
X2822378Y1255676D01*
X2822866Y1254894D01*
Y1254797D01*
X2822964Y1254699D01*
X2823257Y1254211D01*
X2823647Y1253528D01*
X2824038Y1252747D01*
Y1251965D01*
X2823940Y1251770D01*
X2823745Y1251575D01*
X2823550Y1251477D01*
X2823452D01*
X2823062Y1251380D01*
X2822378Y1251477D01*
X2821988Y1251575D01*
X2821499Y1251770D01*
X2821402D01*
X2821206Y1251868D01*
X2820621Y1252258D01*
X2819937Y1252844D01*
X2819254Y1253528D01*
X2819156Y1253625D01*
X2818961Y1254016D01*
X2818766Y1254602D01*
X2818668Y1255187D01*
Y1255383D01*
X2818766Y1255773D01*
X2818961Y1256261D01*
X2819449Y1256945D01*
Y1257042D01*
X2819547Y1257140D01*
X2819937Y1257433D01*
X2820132Y1257531D01*
X2820523Y1257824D01*
X2820718Y1257726D01*
D02*
G37*
G36*
X2842687Y1258019D02*
X2843272Y1257726D01*
X2843370Y1257628D01*
X2843663Y1257433D01*
X2844151Y1257140D01*
X2844640Y1256652D01*
X2846006Y1255480D01*
X2847471Y1254016D01*
X2847569Y1253918D01*
X2847764Y1253723D01*
X2848154Y1253332D01*
X2848545Y1252747D01*
X2849033Y1252063D01*
X2849521Y1251380D01*
X2850107Y1250501D01*
X2850595Y1249525D01*
Y1249427D01*
X2850693Y1249329D01*
X2850791Y1249036D01*
X2850888Y1248646D01*
X2851084Y1247767D01*
X2851181Y1246693D01*
Y1246107D01*
X2851084Y1245717D01*
X2850888Y1244838D01*
X2850595Y1243764D01*
Y1243666D01*
X2850498Y1243569D01*
X2850107Y1242983D01*
X2849521Y1242299D01*
X2848643Y1241616D01*
X2848545D01*
X2848350Y1241518D01*
X2848057Y1241421D01*
X2847666Y1241323D01*
X2846690Y1241225D01*
X2845421D01*
X2845323D01*
X2845225D01*
X2844640Y1241421D01*
X2843858Y1241616D01*
X2842980Y1241909D01*
X2842882D01*
X2842784Y1242006D01*
X2842198Y1242202D01*
X2841418Y1242495D01*
X2840539Y1242787D01*
X2840441D01*
X2840343Y1242885D01*
X2839758Y1243178D01*
X2838976Y1243569D01*
X2838000Y1244057D01*
X2837903D01*
X2837805Y1244154D01*
X2837219Y1244545D01*
X2836340Y1244936D01*
X2835266Y1245521D01*
Y1243178D01*
X2835168Y1242787D01*
Y1242690D01*
X2835071Y1242397D01*
X2834973Y1242006D01*
X2834778Y1241518D01*
X2834680Y1241421D01*
X2834583Y1241128D01*
X2834192Y1240444D01*
X2834095Y1240347D01*
X2833802Y1240151D01*
X2833314Y1239956D01*
X2832825Y1240054D01*
X2832728D01*
X2832435Y1240249D01*
X2832142Y1240639D01*
X2832044Y1241128D01*
Y1241713D01*
X2831947Y1242299D01*
X2831849Y1243178D01*
X2831751Y1244057D01*
X2831458Y1245131D01*
X2831165Y1246107D01*
X2830677Y1247181D01*
X2830580Y1247279D01*
X2830482Y1247669D01*
X2830189Y1248255D01*
X2829799Y1248939D01*
X2829408Y1249817D01*
X2828920Y1250696D01*
X2827846Y1252747D01*
X2827748Y1252844D01*
X2827553Y1253235D01*
X2827260Y1253723D01*
X2826967Y1254309D01*
X2826870Y1254406D01*
X2826674Y1254894D01*
X2826381Y1255480D01*
X2825991Y1256261D01*
X2826088Y1256164D01*
X2826381Y1256066D01*
X2826870Y1255871D01*
X2827455Y1255578D01*
X2828822Y1254797D01*
X2830385Y1254016D01*
X2830482D01*
X2830775Y1253820D01*
X2831165Y1253723D01*
X2831654Y1253430D01*
X2833021Y1252844D01*
X2834485Y1252063D01*
X2834583D01*
X2834778Y1251868D01*
X2835168Y1251770D01*
X2835559Y1251477D01*
X2836731Y1250891D01*
X2838000Y1250208D01*
X2838098D01*
X2838293Y1250013D01*
X2838683Y1249817D01*
X2839074Y1249622D01*
X2840246Y1248939D01*
X2841613Y1248255D01*
X2841710Y1248158D01*
X2842003Y1248060D01*
X2842491Y1247767D01*
X2843077Y1247572D01*
X2843175Y1247474D01*
X2843468Y1247376D01*
X2843956Y1247084D01*
X2844542Y1246888D01*
X2844640D01*
X2844737Y1246791D01*
X2845323Y1246595D01*
X2846104Y1246400D01*
X2846885Y1246302D01*
X2846983D01*
X2847373Y1246400D01*
X2847862Y1246595D01*
X2848252Y1246986D01*
Y1247084D01*
X2848350Y1247181D01*
X2848447Y1247669D01*
X2848545Y1248255D01*
X2848447Y1248646D01*
X2848350Y1248939D01*
X2848252Y1249036D01*
X2848057Y1249427D01*
X2847764Y1249915D01*
X2847373Y1250501D01*
Y1250599D01*
X2847178Y1250696D01*
X2846690Y1251282D01*
X2846006Y1252063D01*
X2845225Y1253039D01*
X2845128Y1253137D01*
X2845030Y1253235D01*
X2844542Y1253820D01*
X2843761Y1254602D01*
X2842980Y1255480D01*
X2842882Y1255578D01*
X2842687Y1255773D01*
X2842101Y1256457D01*
X2842003Y1256554D01*
X2841808Y1256750D01*
X2841222Y1257433D01*
X2841320Y1257531D01*
X2841613Y1257824D01*
X2842003Y1258019D01*
X2842394Y1258117D01*
X2842491D01*
X2842687Y1258019D01*
D02*
G37*
G36*
X2879886Y1272567D02*
X2880472Y1272469D01*
X2880570D01*
X2880668Y1272372D01*
X2881351Y1271981D01*
X2882132Y1271395D01*
X2882914Y1270614D01*
Y1270517D01*
X2883109Y1270419D01*
X2883304Y1270126D01*
X2883597Y1269735D01*
X2884183Y1268857D01*
X2884866Y1267783D01*
Y1267685D01*
X2885061Y1267490D01*
X2885159Y1267197D01*
X2885452Y1266806D01*
X2885940Y1265830D01*
X2886429Y1264756D01*
Y1264658D01*
X2886624Y1264365D01*
X2886721Y1263975D01*
X2887014Y1263389D01*
X2887209Y1262706D01*
X2887502Y1261924D01*
X2887991Y1260265D01*
Y1260167D01*
X2888088Y1259874D01*
X2888186Y1259386D01*
X2888283Y1258800D01*
X2888381Y1258117D01*
Y1255285D01*
X2888479Y1254797D01*
X2888576Y1254211D01*
X2888869Y1253528D01*
X2888967Y1253430D01*
X2889260Y1253235D01*
X2889846Y1252942D01*
X2890627Y1252747D01*
X2890822D01*
X2891212Y1252649D01*
X2891896Y1252551D01*
X2892677Y1252356D01*
X2892872D01*
X2893263Y1252258D01*
X2893947Y1252161D01*
X2894630D01*
X2894727D01*
X2894923D01*
X2895509Y1252258D01*
X2896192Y1252454D01*
X2896485Y1252649D01*
X2896680Y1252844D01*
X2896778Y1252942D01*
X2897071Y1253430D01*
X2897266Y1254113D01*
X2897462Y1255090D01*
Y1255676D01*
X2897364Y1256066D01*
X2897169Y1257042D01*
X2896876Y1258117D01*
Y1258214D01*
X2896778Y1258410D01*
X2896680Y1258702D01*
X2896583Y1258995D01*
X2896192Y1259972D01*
X2895704Y1260948D01*
X2895606Y1261143D01*
X2895411Y1261534D01*
X2895118Y1262217D01*
X2894727Y1262901D01*
Y1262998D01*
X2894630Y1263096D01*
X2894435Y1263584D01*
X2894142Y1264268D01*
X2893751Y1264951D01*
X2893849D01*
X2894044Y1265049D01*
X2894142Y1265146D01*
X2894435Y1265244D01*
X2894532Y1265146D01*
X2894825Y1264854D01*
X2895216Y1264365D01*
X2895802Y1263682D01*
X2896485Y1262901D01*
X2897071Y1261924D01*
X2898438Y1259874D01*
X2898535Y1259776D01*
X2898633Y1259386D01*
X2898926Y1258702D01*
X2899219Y1257921D01*
X2899414Y1256945D01*
X2899707Y1255773D01*
X2899805Y1254504D01*
Y1253039D01*
X2899707Y1252649D01*
X2899609Y1252454D01*
Y1251868D01*
X2899512Y1251477D01*
X2899414Y1250891D01*
X2899219Y1250110D01*
X2898828Y1249329D01*
X2898438Y1248450D01*
X2897754Y1247767D01*
X2896973Y1247084D01*
X2896876Y1246986D01*
X2896583Y1246888D01*
X2896094Y1246595D01*
X2895411Y1246400D01*
X2894630Y1246205D01*
X2893751Y1246010D01*
X2892677Y1245912D01*
X2891603Y1246010D01*
X2891408D01*
X2891017Y1246107D01*
X2890529Y1246302D01*
X2889846Y1246498D01*
X2889650Y1246595D01*
X2889260Y1246693D01*
X2888772D01*
X2888186Y1246595D01*
X2888088Y1246498D01*
X2887795Y1246302D01*
X2887502Y1246010D01*
X2887209Y1245424D01*
X2887112Y1245228D01*
X2886917Y1244838D01*
X2886624Y1244350D01*
X2886331Y1243764D01*
X2886233Y1243666D01*
X2886038Y1243276D01*
X2885647Y1242787D01*
X2885159Y1242202D01*
X2885061Y1242104D01*
X2884671Y1241811D01*
X2884183Y1241421D01*
X2883401Y1241128D01*
Y1241225D01*
X2883499Y1241323D01*
X2883694Y1241811D01*
X2883890Y1242495D01*
X2884183Y1243178D01*
X2884280Y1243373D01*
X2884476Y1243764D01*
X2884768Y1244350D01*
X2885061Y1245033D01*
Y1245131D01*
X2885159Y1245326D01*
X2885257Y1245619D01*
X2885354Y1246010D01*
X2885550Y1246888D01*
Y1247669D01*
X2885452Y1247767D01*
X2885257Y1248255D01*
X2884768Y1248841D01*
X2884378Y1249231D01*
X2883890Y1249622D01*
X2883694Y1249720D01*
X2883304Y1250110D01*
X2882621Y1250599D01*
X2881742Y1251380D01*
X2880863Y1252258D01*
X2879886Y1253235D01*
X2878813Y1254406D01*
X2877934Y1255578D01*
X2877836Y1255773D01*
X2877543Y1256164D01*
X2877153Y1256847D01*
X2876665Y1257824D01*
X2876079Y1258995D01*
X2875493Y1260362D01*
X2875005Y1261827D01*
X2874614Y1263389D01*
Y1263584D01*
X2874517Y1264072D01*
X2874419Y1264756D01*
X2874321Y1265537D01*
Y1267978D01*
X2874419Y1268271D01*
Y1268564D01*
X2874614Y1269540D01*
X2875005Y1270517D01*
Y1270614D01*
X2875103Y1270712D01*
X2875591Y1271200D01*
X2876274Y1271883D01*
X2877348Y1272372D01*
X2877446D01*
X2877641Y1272469D01*
X2877934Y1272567D01*
X2878324D01*
X2879398Y1272665D01*
X2879886Y1272567D01*
D02*
G37*
G36*
X2818961Y1240835D02*
X2819059D01*
X2819351Y1240737D01*
X2819937Y1240542D01*
X2820621Y1240249D01*
X2821402Y1239858D01*
X2822281Y1239273D01*
X2823257Y1238589D01*
X2824331Y1237710D01*
X2824428Y1237613D01*
X2824721Y1237222D01*
X2825210Y1236734D01*
X2825698Y1235953D01*
X2826284Y1234976D01*
X2826674Y1233902D01*
X2826967Y1232633D01*
X2827065Y1231266D01*
Y1231071D01*
X2826967Y1230387D01*
X2826772Y1229606D01*
X2826381Y1228825D01*
X2826284Y1228630D01*
X2825893Y1228240D01*
X2825307Y1227751D01*
X2824526Y1227165D01*
X2824428Y1227068D01*
X2824038D01*
X2823550Y1226970D01*
X2822964Y1227165D01*
X2822866Y1227263D01*
X2822574Y1227458D01*
X2822183Y1227849D01*
X2821988Y1228337D01*
Y1228435D01*
X2821890Y1228728D01*
Y1229802D01*
X2821988Y1230095D01*
X2822378Y1230290D01*
X2822574Y1230387D01*
X2822964Y1230485D01*
X2823159D01*
X2823550Y1230583D01*
X2823940Y1230778D01*
X2824136Y1231169D01*
Y1232535D01*
X2824038Y1232731D01*
X2823940Y1233024D01*
X2823745Y1233414D01*
X2823550Y1233902D01*
X2823159Y1234391D01*
X2822671Y1234879D01*
X2822085Y1235367D01*
X2821988Y1235465D01*
X2821792Y1235562D01*
X2821499Y1235758D01*
X2821011Y1236050D01*
X2819937Y1236441D01*
X2819351Y1236539D01*
X2818766D01*
X2818668D01*
X2818570D01*
X2818180Y1236441D01*
X2817692Y1236246D01*
X2817203Y1235855D01*
X2817106Y1235758D01*
X2816910Y1235465D01*
X2816813Y1234976D01*
X2816715Y1234391D01*
Y1233805D01*
X2816813Y1233317D01*
X2816910Y1232633D01*
Y1232535D01*
X2817008Y1232145D01*
X2817106Y1231559D01*
X2817301Y1230973D01*
Y1230876D01*
X2817496Y1230485D01*
X2817692Y1229997D01*
X2818082Y1229314D01*
X2818473Y1228435D01*
X2818961Y1227556D01*
X2820132Y1225798D01*
X2820230Y1225701D01*
X2820425Y1225408D01*
X2820816Y1224920D01*
X2821304Y1224334D01*
X2821890Y1223651D01*
X2822574Y1222967D01*
X2824136Y1221405D01*
X2824233Y1221307D01*
X2824624Y1221014D01*
X2825112Y1220526D01*
X2825795Y1219843D01*
X2826674Y1219159D01*
X2827650Y1218378D01*
X2829799Y1216816D01*
X2829896Y1216718D01*
X2830287Y1216523D01*
X2830970Y1216132D01*
X2831751Y1215644D01*
X2832630Y1215058D01*
X2833704Y1214473D01*
X2836047Y1213203D01*
X2836145D01*
X2836340Y1213106D01*
X2836633Y1212910D01*
X2837121Y1212715D01*
X2838195Y1212325D01*
X2839465Y1211934D01*
X2839562D01*
X2839758Y1211836D01*
X2840148D01*
X2840539Y1211739D01*
X2841808Y1211641D01*
X2843175D01*
X2843272D01*
X2843468D01*
X2843858Y1211739D01*
X2844347Y1211836D01*
X2845421Y1212227D01*
X2846592Y1212813D01*
X2846690Y1212910D01*
X2846787Y1213008D01*
X2847276Y1213594D01*
X2847862Y1214473D01*
X2848447Y1215742D01*
Y1215839D01*
X2848545Y1216230D01*
X2848643Y1216718D01*
X2848740Y1217499D01*
Y1218280D01*
X2848643Y1219257D01*
X2848447Y1220331D01*
X2848057Y1221503D01*
X2847959Y1221600D01*
X2847862Y1221991D01*
X2847569Y1222577D01*
X2847178Y1223260D01*
X2846690Y1224041D01*
X2846006Y1224822D01*
X2845323Y1225506D01*
X2844444Y1226091D01*
X2844347D01*
X2844151Y1226189D01*
X2843565Y1226482D01*
X2843468D01*
X2843272Y1226580D01*
X2842687Y1226677D01*
X2842589D01*
X2842491D01*
X2842198D01*
X2841906Y1226580D01*
X2841808D01*
X2841710Y1226482D01*
X2841515Y1226287D01*
X2841418Y1226091D01*
X2841320Y1225896D01*
Y1225701D01*
X2841418Y1225408D01*
Y1225310D01*
X2841515Y1225115D01*
X2841613Y1224920D01*
X2841808Y1224725D01*
X2841906D01*
X2842003Y1224529D01*
X2842589Y1224334D01*
X2842687D01*
X2842882Y1224236D01*
X2843468Y1223943D01*
X2843663Y1223846D01*
X2844054Y1223651D01*
X2844542Y1223260D01*
X2844932Y1222772D01*
X2845030Y1222674D01*
X2845128Y1222284D01*
Y1221698D01*
X2845030Y1220917D01*
Y1220721D01*
X2844835Y1220331D01*
X2844542Y1219843D01*
X2844054Y1219452D01*
X2843956Y1219354D01*
X2843565Y1219257D01*
X2842980Y1219159D01*
X2842101D01*
X2842003D01*
X2841808Y1219257D01*
X2841515D01*
X2841125Y1219354D01*
X2840246Y1219745D01*
X2839465Y1220428D01*
Y1220526D01*
X2839269Y1220624D01*
X2838976Y1221209D01*
X2838488Y1221991D01*
X2838000Y1223065D01*
Y1223162D01*
X2837903Y1223358D01*
X2837805Y1223651D01*
Y1224041D01*
X2837610Y1225017D01*
Y1226384D01*
X2837903Y1226970D01*
X2838293Y1227849D01*
X2838683Y1228240D01*
X2839074Y1228728D01*
Y1228825D01*
X2839269Y1228923D01*
X2839758Y1229411D01*
X2840539Y1229802D01*
X2841027Y1229997D01*
X2841515Y1230095D01*
X2841613D01*
X2841710D01*
X2842003D01*
X2842394D01*
X2843272D01*
X2844347Y1229802D01*
X2844444D01*
X2844835Y1229606D01*
X2845323Y1229411D01*
X2845909Y1229021D01*
X2846592Y1228630D01*
X2847178Y1228142D01*
X2847862Y1227458D01*
X2848447Y1226775D01*
X2848545Y1226677D01*
X2848643Y1226384D01*
X2848936Y1225896D01*
X2849229Y1225310D01*
X2849619Y1224627D01*
X2850009Y1223846D01*
X2850693Y1221991D01*
X2850791Y1221795D01*
X2850888Y1221307D01*
X2851084Y1220526D01*
X2851181Y1219647D01*
Y1219452D01*
X2851279Y1218866D01*
X2851377Y1218085D01*
X2851474Y1217206D01*
Y1216425D01*
X2851377Y1215937D01*
X2851279Y1215351D01*
X2851181Y1214570D01*
X2850791Y1212910D01*
X2850205Y1211153D01*
X2849326Y1209298D01*
X2848154Y1207638D01*
X2847471Y1206954D01*
X2846592Y1206271D01*
X2846495D01*
X2846397Y1206173D01*
X2846104Y1205978D01*
X2845714Y1205880D01*
X2845225Y1205685D01*
X2844737Y1205490D01*
X2843272Y1205197D01*
X2841515Y1205099D01*
X2839465Y1205197D01*
X2838391Y1205392D01*
X2837121Y1205587D01*
X2835950Y1206076D01*
X2834583Y1206564D01*
X2834485D01*
X2834192Y1206759D01*
X2833802Y1206954D01*
X2833314Y1207247D01*
X2832630Y1207638D01*
X2831849Y1208028D01*
X2829994Y1209200D01*
X2827943Y1210665D01*
X2825893Y1212325D01*
X2823745Y1214277D01*
X2821792Y1216523D01*
X2821695Y1216621D01*
X2821597Y1216816D01*
X2821304Y1217206D01*
X2821011Y1217695D01*
X2820523Y1218280D01*
X2820132Y1218964D01*
X2819547Y1219843D01*
X2818961Y1220721D01*
X2817789Y1222869D01*
X2816617Y1225408D01*
X2815446Y1228142D01*
X2814470Y1231169D01*
Y1231266D01*
X2814372Y1231461D01*
Y1231754D01*
X2814274Y1232145D01*
X2814177Y1233219D01*
X2814274Y1234488D01*
Y1234781D01*
X2814372Y1235172D01*
Y1235562D01*
X2814470Y1236636D01*
X2814665Y1237906D01*
Y1238003D01*
X2814762Y1238198D01*
X2814958Y1238882D01*
X2815446Y1239663D01*
X2816227Y1240347D01*
X2816324D01*
X2816422Y1240444D01*
X2817008Y1240737D01*
X2817887Y1240932D01*
X2818375D01*
X2818961Y1240835D01*
D02*
G37*
G36*
X2864850Y1237906D02*
X2865827Y1237613D01*
X2865924D01*
X2866022Y1237515D01*
X2866510Y1237320D01*
X2867291Y1237027D01*
X2868073Y1236636D01*
X2868268Y1236539D01*
X2868756Y1236246D01*
X2869439Y1235855D01*
X2870221Y1235465D01*
X2870318D01*
X2870416Y1235367D01*
X2871002Y1234976D01*
X2871880Y1234488D01*
X2873052Y1233805D01*
X2874517Y1233024D01*
X2875981Y1232047D01*
X2877641Y1231071D01*
X2879398Y1230095D01*
X2879496D01*
X2879594Y1229997D01*
X2880180Y1229606D01*
X2881156Y1229118D01*
X2882328Y1228435D01*
X2883694Y1227654D01*
X2885257Y1226775D01*
X2886917Y1225896D01*
X2888674Y1224920D01*
X2888869Y1224822D01*
X2889358Y1224627D01*
X2890041Y1224236D01*
X2890920Y1223943D01*
X2891017D01*
X2891115D01*
X2891701Y1223748D01*
X2892482Y1223651D01*
X2893361Y1223455D01*
X2893458D01*
X2893556D01*
X2894142D01*
X2894727Y1223651D01*
X2895313Y1224041D01*
X2895411Y1224139D01*
X2895509Y1224529D01*
Y1225213D01*
X2895411Y1226189D01*
Y1226287D01*
X2895313Y1226482D01*
X2895216Y1226775D01*
X2895118Y1227165D01*
X2894630Y1228044D01*
X2893947Y1228923D01*
X2893849Y1229021D01*
X2893751Y1229118D01*
X2893263Y1229704D01*
X2892482Y1230387D01*
X2891603Y1231266D01*
X2891505Y1231364D01*
X2891212Y1231559D01*
X2890822Y1231950D01*
X2890334Y1232438D01*
X2890236Y1232535D01*
X2889943Y1232828D01*
X2889553Y1233219D01*
X2889065Y1233609D01*
X2888967Y1233707D01*
X2888772Y1234098D01*
X2888479Y1234488D01*
X2888283Y1235074D01*
Y1235562D01*
X2888381Y1236050D01*
X2888772Y1236539D01*
X2888869Y1236636D01*
X2889162Y1236832D01*
X2889650Y1237027D01*
X2890139D01*
X2890236Y1236929D01*
X2890529Y1236832D01*
X2890920Y1236539D01*
X2891408Y1236246D01*
X2891505Y1236148D01*
X2891798Y1235953D01*
X2892189Y1235562D01*
X2892677Y1235074D01*
X2893947Y1233805D01*
X2895411Y1232340D01*
X2895509Y1232243D01*
X2895704Y1232047D01*
X2895997Y1231559D01*
X2896485Y1231071D01*
X2896973Y1230485D01*
X2897462Y1229704D01*
X2898535Y1228044D01*
X2898633Y1227849D01*
X2898926Y1227263D01*
X2899219Y1226482D01*
X2899512Y1225408D01*
X2899707Y1224236D01*
Y1223065D01*
X2899414Y1221795D01*
X2899219Y1221209D01*
X2898828Y1220624D01*
X2898731Y1220526D01*
X2898438Y1220135D01*
X2897852Y1219745D01*
X2897169Y1219159D01*
X2896290Y1218671D01*
X2895118Y1218183D01*
X2893849Y1217890D01*
X2892384Y1217695D01*
X2892287D01*
X2891994Y1217792D01*
X2891505Y1217890D01*
X2890822Y1217988D01*
X2890139Y1218085D01*
X2889260Y1218280D01*
X2887502Y1218769D01*
X2887405D01*
X2887112Y1218866D01*
X2886624Y1219062D01*
X2885940Y1219257D01*
X2885257Y1219550D01*
X2884378Y1219843D01*
X2882718Y1220721D01*
X2882621Y1220819D01*
X2882328Y1221014D01*
X2881742Y1221307D01*
X2881156Y1221698D01*
X2880375Y1222088D01*
X2879594Y1222674D01*
X2877836Y1223846D01*
X2877739Y1223943D01*
X2877446Y1224139D01*
X2876957Y1224432D01*
X2876274Y1224920D01*
X2875591Y1225408D01*
X2874712Y1225994D01*
X2872954Y1227165D01*
X2872857D01*
X2872759Y1227263D01*
X2872271Y1227654D01*
X2871490Y1228240D01*
X2870709Y1228825D01*
X2870611D01*
X2870513Y1229021D01*
X2869928Y1229411D01*
X2869244Y1229997D01*
X2868365Y1230680D01*
X2868268Y1230778D01*
X2868073Y1230876D01*
X2867487Y1231266D01*
X2867389Y1231364D01*
X2867194Y1231461D01*
X2866510Y1231754D01*
X2866315D01*
X2866022D01*
X2865534D01*
X2865143Y1231461D01*
X2865046Y1231364D01*
X2864948Y1231169D01*
X2864850Y1230778D01*
X2864948Y1230192D01*
Y1230095D01*
X2865046Y1229899D01*
X2865339Y1229216D01*
Y1229118D01*
X2865436Y1228923D01*
X2865827Y1228337D01*
Y1228240D01*
X2866022Y1228142D01*
X2866510Y1227654D01*
X2866608D01*
X2866706Y1227458D01*
X2867096Y1226970D01*
X2867194Y1226872D01*
X2867291Y1226677D01*
X2867584Y1226287D01*
X2867780Y1225798D01*
X2867877Y1225701D01*
X2867975Y1225408D01*
X2868073Y1225017D01*
Y1224725D01*
X2867975Y1224627D01*
X2867780Y1224334D01*
X2867389Y1224041D01*
X2866901Y1223943D01*
X2866803D01*
X2866413D01*
X2865924Y1224041D01*
X2865436Y1224236D01*
X2865339Y1224334D01*
X2864948Y1224432D01*
X2864460Y1224725D01*
X2863972Y1225017D01*
X2863874Y1225115D01*
X2863581Y1225310D01*
X2863191Y1225603D01*
X2862702Y1225994D01*
X2862605Y1226091D01*
X2862409Y1226287D01*
X2862214Y1226580D01*
X2861824Y1226970D01*
X2861140Y1227946D01*
X2860457Y1229118D01*
Y1229216D01*
X2860359Y1229411D01*
X2860262Y1229802D01*
X2860066Y1230290D01*
X2859871Y1231559D01*
X2859676Y1232926D01*
Y1233414D01*
X2859773Y1234000D01*
X2859871Y1234586D01*
X2860066Y1235269D01*
X2860359Y1236050D01*
X2860750Y1236636D01*
X2861335Y1237222D01*
X2861433Y1237320D01*
X2861628Y1237417D01*
X2862019Y1237613D01*
X2862507Y1237808D01*
X2863191Y1237906D01*
X2863972Y1238003D01*
X2864850Y1237906D01*
D02*
G37*
G36*
X2865827Y1216523D02*
X2866901Y1216328D01*
X2868073Y1215839D01*
X2868170D01*
X2868268Y1215742D01*
X2868756Y1215449D01*
X2869537Y1214863D01*
X2870318Y1214180D01*
X2870513Y1213984D01*
X2870904Y1213496D01*
X2871490Y1212813D01*
X2871978Y1212032D01*
X2872076Y1211934D01*
X2872173Y1211739D01*
X2872368Y1211348D01*
X2872661Y1210958D01*
X2873345Y1209688D01*
X2874028Y1208321D01*
Y1208224D01*
X2874224Y1208028D01*
X2874321Y1207638D01*
X2874614Y1207150D01*
X2875200Y1205880D01*
X2875883Y1204513D01*
Y1204416D01*
X2875981Y1204123D01*
X2876372Y1203439D01*
Y1203342D01*
X2876567Y1203049D01*
X2876762Y1202561D01*
X2877055Y1201975D01*
X2877153Y1202170D01*
X2877348Y1202463D01*
X2877543Y1202951D01*
X2877836Y1203439D01*
Y1203537D01*
X2878032Y1203732D01*
X2878422Y1204416D01*
Y1204513D01*
X2878617Y1204611D01*
X2879008Y1205002D01*
X2879691Y1205490D01*
X2879984Y1205587D01*
X2880375D01*
X2880570D01*
X2880961Y1205295D01*
X2881449Y1204806D01*
X2881742Y1204513D01*
X2881937Y1204025D01*
Y1203928D01*
X2882035Y1203732D01*
X2882132Y1203439D01*
X2882230Y1203147D01*
X2882425Y1202170D01*
Y1200413D01*
X2882328Y1200022D01*
X2882132Y1199046D01*
X2881644Y1197972D01*
Y1197874D01*
X2881449Y1197679D01*
X2881351Y1197288D01*
X2881254Y1196800D01*
X2881058Y1195629D01*
Y1195043D01*
X2881156Y1194457D01*
Y1194359D01*
X2881254Y1194164D01*
X2881351Y1193871D01*
X2881547Y1193578D01*
X2882035Y1192602D01*
X2882816Y1191528D01*
X2882914Y1191430D01*
X2883011Y1191235D01*
X2883304Y1190942D01*
X2883694Y1190649D01*
X2884768Y1189673D01*
X2886038Y1188794D01*
X2886136D01*
X2886331Y1188599D01*
X2886721Y1188403D01*
X2887209Y1188208D01*
X2887795Y1188013D01*
X2888479Y1187720D01*
X2890139Y1187427D01*
X2890236D01*
X2890627D01*
X2891115D01*
X2891798Y1187525D01*
X2892580Y1187622D01*
X2893361Y1187915D01*
X2894142Y1188306D01*
X2894923Y1188794D01*
X2895020Y1188892D01*
X2895216Y1189087D01*
X2895509Y1189477D01*
X2895899Y1189966D01*
X2896192Y1190551D01*
X2896485Y1191332D01*
X2896778Y1192211D01*
X2896876Y1193188D01*
Y1195336D01*
X2896680Y1196605D01*
Y1196702D01*
X2896583Y1196898D01*
Y1197191D01*
X2896485Y1197581D01*
X2896094Y1198655D01*
X2895509Y1199729D01*
X2895411Y1199827D01*
X2895118Y1200120D01*
X2894727Y1200510D01*
X2894240Y1200901D01*
X2894142Y1200999D01*
X2893751Y1201194D01*
X2893361Y1201487D01*
X2892775Y1201682D01*
X2892677D01*
X2892482Y1201780D01*
X2892091D01*
X2891603D01*
X2891505D01*
X2891212Y1201682D01*
X2890920Y1201487D01*
X2890627Y1201194D01*
Y1201096D01*
X2890529Y1200901D01*
Y1200120D01*
X2890627Y1199827D01*
X2890724Y1199436D01*
X2890822Y1198948D01*
Y1198850D01*
X2890920Y1198753D01*
X2891408Y1198265D01*
X2891505D01*
X2891701Y1198069D01*
X2892189Y1197679D01*
X2892384Y1197484D01*
X2892677Y1196995D01*
X2893068Y1196312D01*
X2893263Y1195433D01*
Y1195238D01*
X2893165Y1194750D01*
X2892970Y1194164D01*
X2892580Y1193481D01*
X2892482Y1193383D01*
X2891994Y1193090D01*
X2891408Y1192797D01*
X2891017D01*
X2890627D01*
X2890529D01*
X2890432D01*
X2889846Y1192992D01*
X2889162Y1193383D01*
X2888674Y1193676D01*
X2888283Y1194066D01*
X2888186Y1194164D01*
X2887991Y1194359D01*
X2887698Y1194847D01*
X2887307Y1195336D01*
X2886917Y1196019D01*
X2886624Y1196800D01*
X2886331Y1197679D01*
X2886136Y1198655D01*
Y1199632D01*
X2886233Y1200315D01*
X2886331Y1201096D01*
X2886624Y1201877D01*
X2886917Y1202756D01*
X2887405Y1203635D01*
X2887502Y1203732D01*
X2887698Y1204025D01*
X2888088Y1204416D01*
X2888576Y1204806D01*
X2889162Y1205295D01*
X2889943Y1205783D01*
X2890822Y1206076D01*
X2891798Y1206271D01*
X2891896D01*
X2892189D01*
X2892775Y1206173D01*
X2893361Y1206076D01*
X2894044Y1205880D01*
X2894825Y1205490D01*
X2895606Y1204904D01*
X2896387Y1204123D01*
X2896485Y1204025D01*
X2896680Y1203732D01*
X2897071Y1203244D01*
X2897462Y1202561D01*
X2897950Y1201780D01*
X2898438Y1200803D01*
X2898828Y1199827D01*
X2899219Y1198753D01*
Y1198655D01*
X2899316Y1198265D01*
X2899414Y1197679D01*
X2899609Y1196898D01*
X2899707Y1195921D01*
Y1194847D01*
X2899805Y1193773D01*
X2899707Y1192504D01*
Y1192309D01*
X2899609Y1191821D01*
X2899512Y1191137D01*
X2899316Y1190258D01*
Y1190063D01*
X2899121Y1189477D01*
X2899024Y1188696D01*
X2898731Y1187818D01*
Y1187720D01*
X2898633Y1187622D01*
X2898535Y1187329D01*
X2898438Y1186939D01*
X2897950Y1185962D01*
X2897364Y1184791D01*
X2896485Y1183619D01*
X2895411Y1182447D01*
X2894044Y1181373D01*
X2893361Y1180983D01*
X2892482Y1180690D01*
X2892384D01*
X2892287D01*
X2891994Y1180592D01*
X2891603Y1180495D01*
X2890724D01*
X2889455D01*
X2888088Y1180690D01*
X2886526Y1181178D01*
X2885647Y1181569D01*
X2884866Y1181959D01*
X2883987Y1182545D01*
X2883206Y1183229D01*
X2883109Y1183326D01*
X2882914Y1183521D01*
X2882621Y1183717D01*
X2882230Y1184107D01*
X2881351Y1185084D01*
X2880472Y1186353D01*
X2880375Y1186451D01*
X2880277Y1186646D01*
X2880082Y1187036D01*
X2879789Y1187525D01*
X2879106Y1188696D01*
X2878520Y1190063D01*
Y1190161D01*
X2878422Y1190258D01*
X2878227Y1190649D01*
X2877934Y1191137D01*
X2877641Y1191528D01*
X2877543Y1191625D01*
X2877153Y1191723D01*
X2876567D01*
X2875786Y1191528D01*
X2875688D01*
X2875298Y1191430D01*
X2874810D01*
X2874224D01*
X2874028D01*
X2873735D01*
X2873150Y1191528D01*
X2872661Y1191625D01*
X2872564D01*
X2872466Y1191723D01*
X2871783Y1192113D01*
X2870904Y1192504D01*
X2869928Y1193090D01*
X2869830D01*
X2869635Y1193188D01*
X2869049Y1193578D01*
X2868268Y1194164D01*
X2867487Y1194847D01*
X2867389Y1195043D01*
X2866999Y1195433D01*
X2866413Y1196117D01*
X2865632Y1196995D01*
X2864850Y1198069D01*
X2863972Y1199241D01*
X2863093Y1200608D01*
X2862312Y1201975D01*
X2862214Y1202170D01*
X2862019Y1202658D01*
X2861628Y1203439D01*
X2861238Y1204513D01*
X2860847Y1205685D01*
X2860457Y1207150D01*
X2860164Y1208810D01*
X2859969Y1210469D01*
X2859871Y1210567D01*
Y1211446D01*
X2859969Y1211934D01*
X2860066Y1212617D01*
X2860359Y1213399D01*
X2860652Y1214277D01*
X2861140Y1215058D01*
X2861726Y1215839D01*
X2862507Y1216328D01*
X2862605D01*
X2862898Y1216425D01*
X2863386Y1216523D01*
X2864070Y1216621D01*
X2864850D01*
X2865827Y1216523D01*
D02*
G37*
G36*
X2834778Y1188306D02*
X2836340Y1188013D01*
X2837903Y1187525D01*
X2839562Y1186743D01*
X2839758Y1186646D01*
X2840246Y1186255D01*
X2840929Y1185572D01*
X2841808Y1184693D01*
X2842687Y1183619D01*
X2843468Y1182252D01*
X2844249Y1180690D01*
X2844737Y1178835D01*
Y1178640D01*
X2844835Y1178347D01*
Y1178054D01*
X2844932Y1177077D01*
X2845030Y1175906D01*
Y1174441D01*
X2844932Y1172977D01*
X2844737Y1171317D01*
X2844347Y1169754D01*
X2844249Y1169559D01*
X2844054Y1169071D01*
X2843663Y1168290D01*
X2843175Y1167216D01*
X2842491Y1166044D01*
X2841613Y1164775D01*
X2840441Y1163506D01*
X2839172Y1162236D01*
X2839074D01*
X2838976Y1162041D01*
X2838293Y1161553D01*
X2837414Y1161065D01*
X2836340Y1160577D01*
X2836243D01*
X2836047Y1160479D01*
X2835754Y1160381D01*
X2835364Y1160284D01*
X2834388Y1160186D01*
X2833216D01*
X2833118D01*
X2832923Y1160284D01*
X2832532D01*
X2832142Y1160381D01*
X2831165Y1160772D01*
X2830189Y1161358D01*
X2830092D01*
X2829994Y1161553D01*
X2829506Y1162041D01*
X2828920Y1162920D01*
X2828432Y1163994D01*
Y1164092D01*
X2828334Y1164287D01*
Y1164580D01*
X2828236Y1164970D01*
Y1165849D01*
X2828432Y1166728D01*
Y1166825D01*
X2828529Y1166923D01*
X2828822Y1167509D01*
X2829408Y1168192D01*
X2830189Y1168973D01*
X2830287Y1169071D01*
X2830677Y1169364D01*
X2831165Y1169657D01*
X2831751Y1170047D01*
X2831849Y1170145D01*
X2832239Y1170438D01*
X2832825Y1170731D01*
X2833411Y1171122D01*
X2833509Y1171219D01*
X2833704Y1171317D01*
X2834388Y1171903D01*
X2835168Y1172879D01*
X2835461Y1173465D01*
X2835754Y1174051D01*
Y1174148D01*
X2835852Y1174343D01*
Y1174734D01*
X2835950Y1175125D01*
X2835852Y1176296D01*
X2835657Y1176882D01*
X2835364Y1177566D01*
Y1177663D01*
X2835168Y1177859D01*
X2834680Y1178444D01*
X2833899Y1179128D01*
X2833314Y1179518D01*
X2832728Y1179714D01*
X2832630D01*
X2832435Y1179811D01*
X2832044D01*
X2831556Y1179909D01*
X2830287Y1179811D01*
X2829603Y1179714D01*
X2828920Y1179421D01*
X2828822D01*
X2828724Y1179323D01*
X2828041Y1179030D01*
X2827162Y1178444D01*
X2826088Y1177663D01*
X2824917Y1176491D01*
X2823745Y1175125D01*
X2822574Y1173465D01*
X2821695Y1171414D01*
Y1171317D01*
X2821597Y1171122D01*
X2821499Y1170828D01*
X2821402Y1170438D01*
X2821109Y1169364D01*
X2820816Y1167899D01*
X2820718Y1166240D01*
X2820816Y1164482D01*
X2821109Y1162529D01*
X2821402Y1161651D01*
X2821792Y1160674D01*
Y1160577D01*
X2821988Y1160284D01*
X2822281Y1159796D01*
X2822574Y1159210D01*
X2823062Y1158624D01*
X2823647Y1157940D01*
X2824233Y1157257D01*
X2825014Y1156671D01*
X2825112Y1156573D01*
X2825405Y1156378D01*
X2825795Y1156183D01*
X2826381Y1155792D01*
X2827065Y1155402D01*
X2827846Y1155109D01*
X2829603Y1154425D01*
X2829799D01*
X2830189Y1154328D01*
X2830970Y1154133D01*
X2831947Y1154035D01*
X2833021Y1153840D01*
X2834290Y1153644D01*
X2837024Y1153547D01*
X2837219D01*
X2837707D01*
X2838391Y1153644D01*
X2839367Y1153742D01*
X2840539Y1153840D01*
X2841808Y1154035D01*
X2843175Y1154328D01*
X2844542Y1154718D01*
X2844640D01*
X2844835Y1154816D01*
X2845518Y1155109D01*
X2846202Y1155499D01*
X2846495Y1155695D01*
X2846690Y1155890D01*
Y1157062D01*
X2846592Y1157647D01*
X2846495Y1158233D01*
Y1158331D01*
X2846397Y1158721D01*
X2846299Y1159210D01*
X2846202Y1159893D01*
Y1160674D01*
X2846104Y1161553D01*
X2846202Y1163506D01*
Y1163603D01*
X2846299Y1163896D01*
X2846397Y1164482D01*
X2846495Y1165068D01*
X2846690Y1165849D01*
X2846983Y1166728D01*
X2847666Y1168485D01*
Y1168583D01*
X2847764Y1168680D01*
Y1168778D01*
X2847862Y1168973D01*
Y1169071D01*
X2848057Y1169169D01*
X2848447Y1169852D01*
X2849131Y1170633D01*
X2849912Y1171512D01*
X2850009Y1171610D01*
X2850107Y1171707D01*
X2850400Y1171903D01*
X2850693Y1172098D01*
X2851669Y1172391D01*
X2852255Y1172586D01*
X2852939D01*
X2853036D01*
X2853232D01*
X2853622Y1172488D01*
X2854013D01*
X2855087Y1172098D01*
X2855575Y1171805D01*
X2856063Y1171414D01*
Y1171317D01*
X2856258Y1171219D01*
X2856747Y1170633D01*
X2857332Y1169657D01*
X2857918Y1168583D01*
X2858016Y1168485D01*
X2858113Y1167997D01*
X2858309Y1167411D01*
X2858602Y1166533D01*
X2858797Y1165556D01*
X2858992Y1164385D01*
X2859188Y1163213D01*
Y1161944D01*
X2859090Y1161455D01*
X2858992Y1160870D01*
X2858895Y1159991D01*
X2858602Y1159014D01*
X2858211Y1157940D01*
X2857625Y1156866D01*
X2856942Y1155695D01*
X2856844Y1155597D01*
X2856649Y1155207D01*
X2856356Y1154718D01*
Y1154230D01*
X2856551Y1153937D01*
X2856844Y1153547D01*
X2857332Y1153156D01*
X2857430Y1153058D01*
X2857820Y1152863D01*
X2858406Y1152473D01*
X2859090Y1152082D01*
X2859969Y1151594D01*
X2860945Y1151106D01*
X2862019Y1150715D01*
X2863191Y1150325D01*
X2863288D01*
X2863777Y1150227D01*
X2864362Y1150032D01*
X2865143Y1149934D01*
X2866217Y1149837D01*
X2867291D01*
X2868561D01*
X2869830Y1149934D01*
X2869928D01*
X2870221Y1150032D01*
X2870611Y1150129D01*
X2871197Y1150325D01*
X2871880Y1150618D01*
X2872466Y1151008D01*
X2873150Y1151399D01*
X2873833Y1151984D01*
X2873931Y1152082D01*
X2874126Y1152277D01*
X2874419Y1152668D01*
X2874712Y1153156D01*
X2875005Y1153742D01*
X2875395Y1154425D01*
X2875591Y1155109D01*
X2875786Y1155988D01*
Y1156769D01*
X2875688Y1157355D01*
X2875591Y1158038D01*
X2875395Y1158819D01*
X2875103Y1159698D01*
X2874614Y1160577D01*
X2874517Y1160674D01*
X2874321Y1160967D01*
X2874028Y1161358D01*
X2873638Y1161944D01*
X2872564Y1163018D01*
X2871978Y1163408D01*
X2871295Y1163799D01*
X2871197D01*
X2871099Y1163896D01*
X2870611D01*
X2870025D01*
X2869342Y1163701D01*
X2869244Y1163603D01*
X2868951Y1163310D01*
X2868658Y1162725D01*
X2868561Y1161944D01*
Y1161846D01*
X2868658Y1161553D01*
X2868756Y1161065D01*
X2868853Y1160577D01*
Y1160479D01*
X2868951Y1160186D01*
X2869049Y1159796D01*
X2869146Y1159307D01*
Y1159210D01*
X2869244Y1158819D01*
X2869342Y1158233D01*
Y1157550D01*
X2869244Y1157159D01*
X2869049Y1156769D01*
X2868561Y1156281D01*
X2868463Y1156183D01*
X2868073Y1155988D01*
X2867487Y1155792D01*
X2866901Y1155695D01*
X2866706D01*
X2866315Y1155792D01*
X2865827Y1155890D01*
X2865143Y1156085D01*
X2865046D01*
X2864948Y1156183D01*
X2864460Y1156476D01*
X2863777Y1156964D01*
X2863288Y1157647D01*
Y1157745D01*
X2863191Y1157843D01*
X2862995Y1158331D01*
X2862702Y1159014D01*
X2862507Y1159893D01*
Y1159991D01*
X2862409Y1160381D01*
Y1161651D01*
X2862312Y1162432D01*
X2862409Y1163408D01*
X2862605Y1165361D01*
Y1165459D01*
X2862702Y1165751D01*
X2862898Y1166240D01*
X2863093Y1166923D01*
X2863386Y1167607D01*
X2863777Y1168485D01*
X2864265Y1169266D01*
X2864948Y1170145D01*
X2865046Y1170243D01*
X2865241Y1170438D01*
X2865534Y1170828D01*
X2865924Y1171219D01*
X2866999Y1172000D01*
X2867682Y1172293D01*
X2868365Y1172488D01*
X2868463D01*
X2868658Y1172586D01*
X2869049D01*
X2869537D01*
X2870123Y1172488D01*
X2870806Y1172293D01*
X2871490Y1172000D01*
X2872271Y1171512D01*
X2872368Y1171414D01*
X2872661Y1171317D01*
X2873052Y1171024D01*
X2873540Y1170731D01*
X2874810Y1169754D01*
X2876274Y1168680D01*
X2876372Y1168583D01*
X2876567Y1168388D01*
X2876957Y1168095D01*
X2877446Y1167704D01*
X2878617Y1166728D01*
X2879984Y1165654D01*
X2880082D01*
X2880180Y1165459D01*
X2880765Y1164970D01*
X2881644Y1164189D01*
X2882816Y1163213D01*
X2884183Y1161944D01*
X2885647Y1160577D01*
X2887209Y1159112D01*
X2888869Y1157550D01*
X2889065Y1157355D01*
X2889650Y1156866D01*
X2890432Y1155988D01*
X2891505Y1154914D01*
X2892775Y1153644D01*
X2894142Y1152180D01*
X2895606Y1150520D01*
X2897071Y1148860D01*
X2897169Y1148762D01*
X2897462Y1148469D01*
X2897559Y1148274D01*
X2897754Y1147884D01*
X2897657Y1147786D01*
X2897559Y1147591D01*
X2897266Y1147298D01*
X2896973Y1146907D01*
X2896192Y1145931D01*
X2895313Y1144759D01*
X2895216Y1144662D01*
X2895118Y1144466D01*
X2894825Y1144174D01*
X2894532Y1143783D01*
X2893654Y1142904D01*
X2892677Y1141830D01*
X2892580Y1141732D01*
X2892384Y1141537D01*
X2891994Y1141147D01*
X2891505Y1140658D01*
X2890920Y1140073D01*
X2890236Y1139292D01*
X2889455Y1138511D01*
X2888576Y1137632D01*
X2886526Y1135581D01*
X2884183Y1133336D01*
X2881742Y1130992D01*
X2879203Y1128649D01*
X2879106Y1128551D01*
X2878910Y1128356D01*
X2878520Y1128063D01*
X2878032Y1127575D01*
X2877348Y1126989D01*
X2876567Y1126306D01*
X2875786Y1125622D01*
X2874810Y1124744D01*
X2872661Y1122888D01*
X2870221Y1120936D01*
X2867487Y1118788D01*
X2864753Y1116640D01*
X2864557Y1116542D01*
X2864070Y1116152D01*
X2863386Y1115663D01*
X2862409Y1114882D01*
X2861238Y1114101D01*
X2859969Y1113222D01*
X2857235Y1111367D01*
X2857039Y1111270D01*
X2856551Y1110977D01*
X2855770Y1110489D01*
X2854696Y1110000D01*
X2853427Y1109317D01*
X2852060Y1108731D01*
X2850498Y1108048D01*
X2848838Y1107462D01*
X2848740D01*
X2848643Y1107364D01*
X2848350Y1107266D01*
X2847959Y1107169D01*
X2846885Y1106974D01*
X2845616Y1106681D01*
X2844054Y1106290D01*
X2842296Y1106095D01*
X2840441Y1105900D01*
X2838586Y1105802D01*
X2838488D01*
X2838195D01*
X2837707D01*
X2837121Y1105900D01*
X2836340D01*
X2835559Y1105997D01*
X2833899Y1106192D01*
X2833802D01*
X2833606Y1106290D01*
X2833216Y1106388D01*
X2832728Y1106485D01*
X2832044Y1106681D01*
X2831361Y1106876D01*
X2829603Y1107559D01*
X2827553Y1108438D01*
X2825307Y1109707D01*
X2824136Y1110489D01*
X2822964Y1111270D01*
X2821792Y1112246D01*
X2820621Y1113320D01*
X2820425Y1113515D01*
X2819937Y1114004D01*
X2819254Y1114687D01*
X2818473Y1115761D01*
X2817594Y1116933D01*
X2816617Y1118397D01*
X2815836Y1119862D01*
X2815153Y1121522D01*
Y1121619D01*
X2815055Y1121717D01*
X2814860Y1122303D01*
X2814665Y1123279D01*
X2814274Y1124451D01*
X2813981Y1125915D01*
X2813786Y1127575D01*
X2813591Y1129430D01*
X2813493Y1131383D01*
Y1132164D01*
X2813591Y1132945D01*
X2813786Y1134019D01*
X2813981Y1135288D01*
X2814274Y1136655D01*
X2814762Y1138022D01*
X2815348Y1139389D01*
X2815446Y1139585D01*
X2815641Y1139975D01*
X2816032Y1140658D01*
X2816617Y1141537D01*
X2817301Y1142514D01*
X2818082Y1143588D01*
X2819059Y1144759D01*
X2820230Y1145931D01*
Y1146029D01*
X2820425Y1146126D01*
X2820913Y1146614D01*
Y1146712D01*
X2821109Y1146810D01*
X2821597Y1147200D01*
Y1147298D01*
X2821695Y1147493D01*
X2821792Y1147688D01*
X2821988Y1148079D01*
X2821890Y1148177D01*
X2821597Y1148372D01*
X2821206Y1148665D01*
X2820816Y1149055D01*
X2820718Y1149153D01*
X2820425Y1149348D01*
X2820035Y1149739D01*
X2819644Y1150129D01*
X2819547Y1150227D01*
X2819156Y1150618D01*
X2818668Y1151203D01*
X2818082Y1151887D01*
X2817301Y1152863D01*
X2816617Y1153840D01*
X2815934Y1155011D01*
X2815348Y1156281D01*
X2815251Y1156476D01*
X2815153Y1156866D01*
X2814860Y1157550D01*
X2814567Y1158526D01*
X2814274Y1159600D01*
X2813981Y1160772D01*
X2813786Y1162139D01*
X2813688Y1163603D01*
Y1166533D01*
X2813786Y1167899D01*
X2813884Y1169462D01*
X2814177Y1171024D01*
X2814567Y1172684D01*
Y1172781D01*
X2814665Y1172879D01*
X2814762Y1173465D01*
X2815153Y1174246D01*
X2815544Y1175320D01*
X2816227Y1176589D01*
X2816910Y1177956D01*
X2817887Y1179323D01*
X2818961Y1180690D01*
X2819059Y1180788D01*
X2819351Y1181178D01*
X2819839Y1181666D01*
X2820523Y1182252D01*
X2821206Y1183033D01*
X2822085Y1183814D01*
X2824136Y1185279D01*
X2824233Y1185377D01*
X2824624Y1185572D01*
X2825210Y1185962D01*
X2825991Y1186353D01*
X2826870Y1186743D01*
X2827943Y1187232D01*
X2829115Y1187622D01*
X2830385Y1188013D01*
X2830482D01*
X2830580Y1188110D01*
X2830872D01*
X2831165Y1188208D01*
X2832142Y1188306D01*
X2833314Y1188403D01*
X2834778Y1188306D01*
D02*
G37*
%LPC*%
G36*
X2878617Y1267587D02*
X2878422D01*
X2878032D01*
X2877543Y1267490D01*
X2876957Y1267197D01*
X2876860Y1267099D01*
X2876567Y1266709D01*
X2876372Y1266220D01*
X2876274Y1265928D01*
X2876372Y1265635D01*
Y1265537D01*
X2876469Y1265146D01*
X2876665Y1264561D01*
X2876957Y1264072D01*
X2877055Y1263975D01*
X2877250Y1263584D01*
X2877543Y1262998D01*
X2877934Y1262315D01*
X2878520Y1261534D01*
X2879203Y1260753D01*
X2880765Y1259093D01*
X2880863Y1258995D01*
X2881156Y1258800D01*
X2881644Y1258410D01*
X2882230Y1257921D01*
X2883011Y1257336D01*
X2883890Y1256652D01*
X2885843Y1255285D01*
Y1255871D01*
X2885940Y1256261D01*
X2885843Y1257140D01*
X2885745Y1258214D01*
Y1258312D01*
X2885647Y1258410D01*
X2885550Y1258995D01*
X2885257Y1259776D01*
X2884964Y1260655D01*
Y1260753D01*
X2884866Y1260948D01*
X2884671Y1261339D01*
X2884476Y1261827D01*
X2883890Y1262998D01*
X2883206Y1264268D01*
X2883109Y1264365D01*
X2883011Y1264561D01*
X2882718Y1264854D01*
X2882425Y1265146D01*
X2881449Y1266025D01*
X2880277Y1266904D01*
X2880180Y1267002D01*
X2879789Y1267197D01*
X2879203Y1267392D01*
X2878617Y1267587D01*
D02*
G37*
G36*
X2866608Y1212715D02*
X2866022D01*
X2865241D01*
X2864557Y1212422D01*
X2864460Y1212325D01*
X2864070Y1212032D01*
X2863777Y1211446D01*
X2863581Y1210762D01*
Y1210079D01*
X2863679Y1209200D01*
X2863972Y1208224D01*
X2864070Y1208126D01*
X2864167Y1207638D01*
X2864460Y1207052D01*
X2864948Y1206369D01*
X2865436Y1205490D01*
X2866022Y1204611D01*
X2866803Y1203732D01*
X2867682Y1202951D01*
X2867780Y1202854D01*
X2868073Y1202561D01*
X2868658Y1202170D01*
X2869244Y1201682D01*
X2870123Y1201194D01*
X2871002Y1200608D01*
X2872076Y1200022D01*
X2873150Y1199436D01*
X2873247Y1199534D01*
X2873540Y1199632D01*
X2873638Y1199729D01*
X2873833Y1199827D01*
Y1199924D01*
X2873735Y1200120D01*
X2873638Y1200510D01*
X2873540Y1200999D01*
X2873247Y1202170D01*
X2872857Y1203439D01*
Y1203537D01*
X2872759Y1203732D01*
X2872661Y1204123D01*
X2872564Y1204513D01*
X2872173Y1205587D01*
X2871783Y1206857D01*
Y1206954D01*
X2871685Y1207052D01*
X2871490Y1207638D01*
X2871197Y1208321D01*
X2870709Y1209200D01*
Y1209298D01*
X2870611Y1209395D01*
X2870221Y1209884D01*
X2869732Y1210567D01*
X2869146Y1211251D01*
Y1211348D01*
X2868951Y1211446D01*
X2868561Y1211836D01*
X2867877Y1212325D01*
X2866901Y1212617D01*
X2866803D01*
X2866608Y1212715D01*
D02*
G37*
G36*
X2853232Y1167118D02*
X2853134D01*
X2852744D01*
X2852353Y1167021D01*
X2851767Y1166728D01*
X2851669Y1166630D01*
X2851572Y1166435D01*
X2851279Y1166142D01*
X2851084Y1165751D01*
X2850791Y1165166D01*
X2850595Y1164580D01*
X2850400Y1163799D01*
X2850302Y1162920D01*
Y1162529D01*
X2850400Y1162041D01*
X2850498Y1161553D01*
X2850791Y1160186D01*
X2851181Y1159503D01*
X2851572Y1158917D01*
X2851669Y1159014D01*
X2851865Y1159112D01*
X2852158Y1159405D01*
X2852451Y1159796D01*
X2853232Y1160870D01*
X2853915Y1162236D01*
Y1162334D01*
X2854013Y1162627D01*
X2854110Y1163018D01*
X2854208Y1163506D01*
X2854403Y1164775D01*
X2854306Y1165361D01*
X2854208Y1166044D01*
X2854110Y1166142D01*
X2854013Y1166533D01*
X2853622Y1166825D01*
X2853232Y1167118D01*
D02*
G37*
G36*
X2883011Y1155695D02*
X2882914Y1155597D01*
X2882816Y1155402D01*
X2882523Y1155011D01*
X2882230Y1154523D01*
X2881449Y1153254D01*
X2880472Y1151789D01*
X2880375Y1151692D01*
X2880277Y1151496D01*
X2879984Y1151106D01*
X2879691Y1150618D01*
X2878910Y1149348D01*
X2878032Y1147884D01*
X2878129Y1147786D01*
X2878324Y1147688D01*
X2878617Y1147395D01*
X2879008Y1147005D01*
X2879984Y1145931D01*
X2880961Y1144662D01*
Y1144564D01*
X2881156Y1144369D01*
X2881351Y1143978D01*
X2881547Y1143392D01*
X2881839Y1142709D01*
X2882035Y1141928D01*
X2882328Y1141049D01*
X2882523Y1140073D01*
X2882621Y1140170D01*
X2882816Y1140366D01*
X2883206Y1140756D01*
X2883694Y1141244D01*
X2884866Y1142514D01*
X2886136Y1143783D01*
X2886233Y1143881D01*
X2886429Y1144076D01*
X2886721Y1144466D01*
X2887209Y1144857D01*
X2888186Y1145931D01*
X2889455Y1147200D01*
X2889553Y1147298D01*
X2889650Y1147493D01*
X2890041Y1148079D01*
Y1148372D01*
X2889943Y1148665D01*
X2889650Y1149055D01*
X2889553Y1149153D01*
X2889358Y1149348D01*
X2888967Y1149739D01*
X2888576Y1150129D01*
X2887502Y1151203D01*
X2886233Y1152473D01*
X2886136Y1152570D01*
X2885940Y1152766D01*
X2885550Y1153156D01*
X2885159Y1153547D01*
X2884085Y1154621D01*
X2883011Y1155695D01*
D02*
G37*
G36*
X2850986Y1150325D02*
X2850693D01*
X2850400D01*
X2850302D01*
X2850107D01*
X2849619Y1150129D01*
X2849521D01*
X2849326Y1150032D01*
X2848936Y1149837D01*
X2848447Y1149641D01*
X2847276Y1149055D01*
X2845909Y1148372D01*
X2845811D01*
X2845616Y1148177D01*
X2845225Y1148079D01*
X2844640Y1147786D01*
X2843370Y1147200D01*
X2841906Y1146517D01*
Y1146419D01*
X2842003Y1146224D01*
X2842296Y1145638D01*
Y1145540D01*
X2842491Y1145345D01*
X2842784Y1144759D01*
Y1144662D01*
X2842882Y1144564D01*
X2843077Y1144271D01*
X2843272Y1143881D01*
X2843663Y1142904D01*
X2844151Y1141537D01*
X2844444Y1139975D01*
X2844640Y1138218D01*
Y1136265D01*
X2844444Y1135288D01*
X2844151Y1134214D01*
Y1134117D01*
X2844054Y1134019D01*
X2843956Y1133726D01*
X2843761Y1133336D01*
X2843370Y1132359D01*
X2842784Y1131090D01*
X2841906Y1129821D01*
X2840929Y1128454D01*
X2839758Y1127087D01*
X2838293Y1125915D01*
X2838195D01*
X2838098Y1125818D01*
X2837512Y1125427D01*
X2836633Y1125036D01*
X2835559Y1124646D01*
X2835461D01*
X2835364Y1124548D01*
X2834680Y1124451D01*
X2833802D01*
X2832728Y1124548D01*
X2832630D01*
X2832435Y1124646D01*
X2832044Y1124744D01*
X2831654Y1124841D01*
X2830677Y1125232D01*
X2829799Y1125915D01*
X2829701D01*
X2829603Y1126111D01*
X2829115Y1126599D01*
X2828529Y1127477D01*
X2828041Y1128649D01*
Y1128747D01*
X2827943Y1128942D01*
Y1129528D01*
X2828041Y1130407D01*
X2828139Y1130797D01*
X2828334Y1131285D01*
Y1131383D01*
X2828432Y1131481D01*
X2828822Y1132066D01*
X2829408Y1132750D01*
X2830189Y1133433D01*
X2830287Y1133531D01*
X2830677Y1133824D01*
X2831263Y1134214D01*
X2831947Y1134703D01*
X2832142Y1134800D01*
X2832532Y1135093D01*
X2833118Y1135484D01*
X2833802Y1135874D01*
X2833899Y1135972D01*
X2833997Y1136070D01*
X2834583Y1136655D01*
X2835168Y1137437D01*
X2835461Y1138022D01*
X2835657Y1138608D01*
Y1138901D01*
X2835754Y1139194D01*
Y1139585D01*
X2835657Y1140658D01*
X2835461Y1141244D01*
X2835168Y1141830D01*
Y1141928D01*
X2834973Y1142123D01*
X2834778Y1142416D01*
X2834485Y1142807D01*
X2833997Y1143197D01*
X2833509Y1143588D01*
X2832923Y1143978D01*
X2832142Y1144174D01*
X2832044D01*
X2831751Y1144271D01*
X2831361D01*
X2830872D01*
X2830189Y1144174D01*
X2829506Y1143978D01*
X2828724Y1143685D01*
X2827943Y1143295D01*
X2827846D01*
X2827748Y1143197D01*
X2827260Y1142807D01*
X2826479Y1142221D01*
X2825600Y1141440D01*
X2824526Y1140366D01*
X2823550Y1139194D01*
X2822574Y1137827D01*
X2821792Y1136363D01*
X2821695Y1136167D01*
X2821499Y1135581D01*
X2821206Y1134703D01*
X2820913Y1133531D01*
X2820718Y1132164D01*
X2820621Y1130504D01*
X2820718Y1128649D01*
X2821011Y1126599D01*
Y1126403D01*
X2821206Y1125915D01*
X2821499Y1125232D01*
X2821792Y1124255D01*
X2822281Y1123181D01*
X2822866Y1122107D01*
X2823647Y1120936D01*
X2824526Y1119862D01*
X2824624Y1119764D01*
X2825014Y1119373D01*
X2825600Y1118885D01*
X2826284Y1118299D01*
X2827260Y1117518D01*
X2828236Y1116737D01*
X2829408Y1116054D01*
X2830677Y1115273D01*
X2830872Y1115175D01*
X2831361Y1114980D01*
X2832044Y1114589D01*
X2833021Y1114199D01*
X2834192Y1113808D01*
X2835559Y1113418D01*
X2836926Y1113125D01*
X2838391Y1112929D01*
X2838586D01*
X2839074D01*
X2839855Y1112832D01*
X2840929D01*
X2842198Y1112929D01*
X2843565Y1113027D01*
X2845030Y1113222D01*
X2846495Y1113515D01*
X2846592D01*
X2846885Y1113613D01*
X2847276Y1113710D01*
X2847862Y1113906D01*
X2848545Y1114101D01*
X2849424Y1114296D01*
X2850400Y1114687D01*
X2851377Y1114980D01*
X2853720Y1115859D01*
X2856161Y1116933D01*
X2858699Y1118202D01*
X2861238Y1119764D01*
X2861335Y1119862D01*
X2861531Y1119959D01*
X2861921Y1120252D01*
X2862312Y1120545D01*
X2862898Y1121033D01*
X2863581Y1121522D01*
X2865143Y1122888D01*
X2866999Y1124451D01*
X2868951Y1126403D01*
X2871002Y1128454D01*
X2872954Y1130797D01*
X2873052Y1130992D01*
X2873443Y1131383D01*
X2873833Y1131969D01*
X2874321Y1132750D01*
X2874419Y1132945D01*
X2874712Y1133336D01*
X2875005Y1134019D01*
X2875395Y1134703D01*
X2875493Y1134800D01*
X2875591Y1135191D01*
X2875786Y1135874D01*
X2875883Y1136655D01*
Y1138511D01*
X2875591Y1139487D01*
X2875103Y1140561D01*
X2875005Y1140658D01*
X2874810Y1140951D01*
X2874321Y1141440D01*
X2873833Y1141928D01*
X2873052Y1142514D01*
X2872173Y1143002D01*
X2871197Y1143295D01*
X2870025Y1143490D01*
X2869928D01*
X2869732D01*
X2869439D01*
X2868951D01*
X2867975D01*
X2866803Y1143295D01*
X2866706D01*
X2866510Y1143197D01*
X2866217Y1143100D01*
X2865827Y1143002D01*
X2864850Y1142709D01*
X2863777Y1142221D01*
X2863679Y1142123D01*
X2863386Y1142026D01*
X2862898Y1141732D01*
X2862312Y1141244D01*
X2861628Y1140658D01*
X2860945Y1139877D01*
X2860262Y1138901D01*
X2859676Y1137729D01*
X2859578Y1137632D01*
X2859480Y1137144D01*
X2859285Y1136558D01*
X2859188Y1135777D01*
X2859090Y1134800D01*
Y1133824D01*
X2859285Y1132750D01*
X2859676Y1131676D01*
X2859773Y1131481D01*
X2859969Y1131090D01*
Y1130992D01*
X2860066Y1130895D01*
X2860262Y1130407D01*
Y1130309D01*
X2860359Y1130114D01*
Y1129723D01*
X2860457Y1129235D01*
X2860359Y1128063D01*
X2860164Y1127380D01*
X2859871Y1126696D01*
X2859773Y1126599D01*
X2859676Y1126403D01*
X2859090Y1125818D01*
X2858699Y1125427D01*
X2858211Y1125036D01*
X2857527Y1124744D01*
X2856844Y1124548D01*
X2856747D01*
X2856454D01*
X2856063Y1124451D01*
X2855575D01*
X2854403Y1124548D01*
X2853036Y1124841D01*
X2852939D01*
X2852744Y1124939D01*
X2852451Y1125134D01*
X2851962Y1125329D01*
X2850986Y1126013D01*
X2850009Y1126989D01*
X2849912Y1127087D01*
X2849814Y1127282D01*
X2849521Y1127673D01*
X2849229Y1128063D01*
X2848643Y1129235D01*
X2848447Y1129918D01*
X2848252Y1130602D01*
Y1133140D01*
X2848545Y1134605D01*
Y1134800D01*
X2848643Y1135191D01*
X2848838Y1135777D01*
X2849131Y1136558D01*
X2849521Y1137437D01*
X2849912Y1138413D01*
X2850498Y1139389D01*
X2851181Y1140366D01*
X2851279Y1140463D01*
X2851572Y1140756D01*
X2851962Y1141244D01*
X2852451Y1141830D01*
X2853134Y1142416D01*
X2854013Y1143197D01*
X2854891Y1143881D01*
X2855868Y1144662D01*
X2855965Y1144759D01*
X2856258Y1144955D01*
X2856649Y1145247D01*
X2857137Y1145540D01*
X2857235Y1145638D01*
X2857527Y1145833D01*
X2858016Y1146126D01*
X2858602Y1146517D01*
X2858504D01*
X2858309Y1146712D01*
X2857918Y1146907D01*
X2857430Y1147103D01*
X2856161Y1147786D01*
X2854794Y1148469D01*
X2854696D01*
X2854501Y1148665D01*
X2854110Y1148762D01*
X2853622Y1149055D01*
X2852451Y1149544D01*
X2851181Y1150227D01*
X2851084D01*
X2850986Y1150325D01*
D02*
G37*
%LPD*%
D10*
X2224500Y1131000D02*
G03*
X2224500Y1131000I-500J0D01*
G01*
X2401500Y1329000D02*
G03*
X2401500Y1329000I-500J0D01*
G01*
X2401500Y1189000D02*
G03*
X2401500Y1189000I-500J0D01*
G01*
X2369500Y1256000D02*
G03*
X2369500Y1256000I-500J0D01*
G01*
X2401500Y1239000D02*
G03*
X2401500Y1239000I-500J0D01*
G01*
X2151000Y1164833D02*
G03*
X2151000Y1175167I0J5167D01*
G01*
X2026500Y1206000D02*
G03*
X2026500Y1206000I-500J0D01*
G01*
X2129236Y1309000D02*
G03*
X2129236Y1309000I-2236J0D01*
G01*
X2197500Y1369000D02*
G03*
X2197500Y1369000I-500J0D01*
G01*
X2361500Y1424000D02*
G03*
X2361500Y1424000I-500J0D01*
G01*
X661500Y1235000D02*
G03*
X661500Y1235000I-1000J0D01*
G01*
Y1375000D02*
G03*
X661500Y1375000I-1000J0D01*
G01*
X2694500Y1264000D02*
G03*
X2694500Y1264000I-500J0D01*
G01*
X2587000Y1257000D02*
G03*
X2587000Y1257000I-1000J0D01*
G01*
X2229500Y1409000D02*
G03*
X2229500Y1409000I-500J0D01*
G01*
X233310Y1124440D02*
G03*
X233310Y1124440I-1000J0D01*
G01*
Y1334440D02*
G03*
X233310Y1334440I-1000J0D01*
G01*
X2229500Y1369000D02*
G03*
X2229500Y1369000I-500J0D01*
G01*
X2197500Y1409000D02*
G03*
X2197500Y1409000I-500J0D01*
G01*
X1943000Y1182000D02*
Y1188000D01*
X1957000Y1182000D02*
Y1188000D01*
X666001Y1240000D02*
X684000D01*
X680500Y1222000D02*
X684000D01*
X666001D02*
X669500D01*
X684000D02*
Y1240000D01*
X667000Y1234500D02*
X683500D01*
X666001Y1222000D02*
Y1240000D01*
X666000Y1295000D02*
X683999D01*
X666000Y1313000D02*
X669500D01*
X680500D02*
X683999D01*
X666000Y1295000D02*
Y1313000D01*
X666500Y1300500D02*
X683000D01*
X683999Y1295000D02*
Y1313000D01*
X682000Y1367000D02*
Y1373000D01*
X668000Y1367000D02*
Y1373000D01*
X2032000Y1152000D02*
X2038000D01*
X2032000Y1168000D02*
X2038000D01*
Y1152000D02*
Y1168000D01*
X2036100Y1152000D02*
Y1168000D01*
X2346000Y1270000D02*
X2363999D01*
X2346000Y1288000D02*
X2349500D01*
X2360500D02*
X2363999D01*
X2346000Y1270000D02*
Y1288000D01*
X2346500Y1275500D02*
X2363000D01*
X2363999Y1270000D02*
Y1288000D01*
X2346000Y1200000D02*
X2363999D01*
X2346000Y1218000D02*
X2349500D01*
X2360500D02*
X2363999D01*
X2346000Y1200000D02*
Y1218000D01*
X2346500Y1205500D02*
X2363000D01*
X2363999Y1200000D02*
Y1218000D01*
X2291000Y1312500D02*
Y1317500D01*
X2289000Y1315000D02*
X2291000Y1312500D01*
X2289000Y1315000D02*
X2291000Y1317500D01*
Y1342500D02*
Y1347500D01*
X2289000Y1345000D02*
X2291000Y1342500D01*
X2289000Y1345000D02*
X2291000Y1347500D01*
X2151000Y1154500D02*
Y1164833D01*
Y1175167D02*
Y1185500D01*
X2199000Y1154500D02*
Y1185500D01*
X2151000Y1154500D02*
X2199000D01*
X2151000Y1185500D02*
X2199000D01*
X880000Y997000D02*
Y1014999D01*
X862000Y997000D02*
Y1000500D01*
Y1011500D02*
Y1014999D01*
Y997000D02*
X880000D01*
X874500Y997500D02*
Y1014000D01*
X862000Y1014999D02*
X880000D01*
X860000Y1037001D02*
Y1055000D01*
X878000Y1051500D02*
Y1055000D01*
Y1037001D02*
Y1040500D01*
X860000Y1055000D02*
X878000D01*
X865500Y1038000D02*
Y1054500D01*
X860000Y1037001D02*
X878000D01*
X880000Y1077000D02*
Y1094999D01*
X862000Y1077000D02*
Y1080500D01*
Y1091500D02*
Y1094999D01*
Y1077000D02*
X880000D01*
X874500Y1077500D02*
Y1094000D01*
X862000Y1094999D02*
X880000D01*
X860000Y1117001D02*
Y1135000D01*
X878000Y1131500D02*
Y1135000D01*
Y1117001D02*
Y1120500D01*
X860000Y1135000D02*
X878000D01*
X865500Y1118000D02*
Y1134500D01*
X860000Y1117001D02*
X878000D01*
X880000Y1157000D02*
Y1174999D01*
X862000Y1157000D02*
Y1160500D01*
Y1171500D02*
Y1174999D01*
Y1157000D02*
X880000D01*
X874500Y1157500D02*
Y1174000D01*
X862000Y1174999D02*
X880000D01*
X860000Y1197001D02*
Y1215000D01*
X878000Y1211500D02*
Y1215000D01*
Y1197001D02*
Y1200500D01*
X860000Y1215000D02*
X878000D01*
X865500Y1198000D02*
Y1214500D01*
X860000Y1197001D02*
X878000D01*
X880000Y1237000D02*
Y1254999D01*
X862000Y1237000D02*
Y1240500D01*
Y1251500D02*
Y1254999D01*
Y1237000D02*
X880000D01*
X874500Y1237500D02*
Y1254000D01*
X862000Y1254999D02*
X880000D01*
X860000Y1277001D02*
Y1295000D01*
X878000Y1291500D02*
Y1295000D01*
Y1277001D02*
Y1280500D01*
X860000Y1295000D02*
X878000D01*
X865500Y1278000D02*
Y1294500D01*
X860000Y1277001D02*
X878000D01*
X880000Y1317000D02*
Y1334999D01*
X862000Y1317000D02*
Y1320500D01*
Y1331500D02*
Y1334999D01*
Y1317000D02*
X880000D01*
X874500Y1317500D02*
Y1334000D01*
X862000Y1334999D02*
X880000D01*
X860000Y1357001D02*
Y1375000D01*
X878000Y1371500D02*
Y1375000D01*
Y1357001D02*
Y1360500D01*
X860000Y1375000D02*
X878000D01*
X865500Y1358000D02*
Y1374500D01*
X860000Y1357001D02*
X878000D01*
X880000Y1397000D02*
Y1414999D01*
X862000Y1397000D02*
Y1400500D01*
Y1411500D02*
Y1414999D01*
Y1397000D02*
X880000D01*
X874500Y1397500D02*
Y1414000D01*
X862000Y1414999D02*
X880000D01*
X860000Y1437001D02*
Y1455000D01*
X878000Y1451500D02*
Y1455000D01*
Y1437001D02*
Y1440500D01*
X860000Y1455000D02*
X878000D01*
X865500Y1438000D02*
Y1454500D01*
X860000Y1437001D02*
X878000D01*
X880000Y1477000D02*
Y1494999D01*
X862000Y1477000D02*
Y1480500D01*
Y1491500D02*
Y1494999D01*
Y1477000D02*
X880000D01*
X874500Y1477500D02*
Y1494000D01*
X862000Y1494999D02*
X880000D01*
X860000Y1517001D02*
Y1535000D01*
X878000Y1531500D02*
Y1535000D01*
Y1517001D02*
Y1520500D01*
X860000Y1535000D02*
X878000D01*
X865500Y1518000D02*
Y1534500D01*
X860000Y1517001D02*
X878000D01*
X2285000Y1421001D02*
Y1439000D01*
X2303000Y1435500D02*
Y1439000D01*
Y1421001D02*
Y1424500D01*
X2285000Y1439000D02*
X2303000D01*
X2290500Y1422000D02*
Y1438500D01*
X2285000Y1421001D02*
X2303000D01*
X2285000Y1371001D02*
Y1389000D01*
X2303000Y1385500D02*
Y1389000D01*
Y1371001D02*
Y1374500D01*
X2285000Y1389000D02*
X2303000D01*
X2290500Y1372000D02*
Y1388500D01*
X2285000Y1371001D02*
X2303000D01*
X2286500Y1159000D02*
X2353500D01*
X2286500Y1121000D02*
X2353500D01*
Y1159000D01*
X2286500Y1121000D02*
Y1159000D01*
X2135000Y1230000D02*
Y1232500D01*
X2132500Y1230000D02*
X2135000D01*
X2025000Y1297500D02*
Y1300000D01*
X2027500D01*
X2025000Y1230000D02*
X2027500D01*
X2025000D02*
Y1232500D01*
X1986000Y1209000D02*
Y1215000D01*
X2000000Y1209000D02*
Y1215000D01*
X1986000Y1250000D02*
Y1256000D01*
X2000000Y1250000D02*
Y1256000D01*
X668000Y1162000D02*
Y1168000D01*
X682000Y1162000D02*
Y1168000D01*
X2544000Y1261000D02*
Y1276000D01*
X2572000Y1261000D02*
Y1276000D01*
X2512000Y1412000D02*
Y1418000D01*
X2496000Y1416100D02*
X2512000D01*
X2496000Y1412000D02*
Y1418000D01*
X2512000D01*
X2534000Y1412000D02*
Y1418000D01*
X2518000Y1416100D02*
X2534000D01*
X2518000Y1412000D02*
Y1418000D01*
X2534000D01*
X2556000Y1412000D02*
Y1418000D01*
X2540000Y1416100D02*
X2556000D01*
X2540000Y1412000D02*
Y1418000D01*
X2556000D01*
X2490000Y1412000D02*
Y1418000D01*
X2474000Y1416100D02*
X2490000D01*
X2474000Y1412000D02*
Y1418000D01*
X2490000D01*
X2762000Y1527000D02*
Y1533000D01*
X2778000Y1527000D02*
Y1533000D01*
X2762000Y1527000D02*
X2778000D01*
X2762000Y1528900D02*
X2778000D01*
X2737000Y1527000D02*
Y1533000D01*
X2753000Y1527000D02*
Y1533000D01*
X2737000Y1527000D02*
X2753000D01*
X2737000Y1528900D02*
X2753000D01*
X2712000Y1527000D02*
Y1533000D01*
X2728000Y1527000D02*
Y1533000D01*
X2712000Y1527000D02*
X2728000D01*
X2712000Y1528900D02*
X2728000D01*
X2687000Y1527000D02*
Y1533000D01*
X2703000Y1527000D02*
Y1533000D01*
X2687000Y1527000D02*
X2703000D01*
X2687000Y1528900D02*
X2703000D01*
X2662000Y1527000D02*
Y1533000D01*
X2678000Y1527000D02*
Y1533000D01*
X2662000Y1527000D02*
X2678000D01*
X2662000Y1528900D02*
X2678000D01*
X2637000Y1527000D02*
Y1533000D01*
X2653000Y1527000D02*
Y1533000D01*
X2637000Y1527000D02*
X2653000D01*
X2637000Y1528900D02*
X2653000D01*
X2778000Y1002000D02*
Y1008000D01*
X2762000Y1002000D02*
Y1008000D01*
X2778000D01*
X2762000Y1006100D02*
X2778000D01*
X2753000Y1002000D02*
Y1008000D01*
X2737000Y1002000D02*
Y1008000D01*
X2753000D01*
X2737000Y1006100D02*
X2753000D01*
X2728000Y1002000D02*
Y1008000D01*
X2712000Y1002000D02*
Y1008000D01*
X2728000D01*
X2712000Y1006100D02*
X2728000D01*
X2703000Y1002000D02*
Y1008000D01*
X2687000Y1002000D02*
Y1008000D01*
X2703000D01*
X2687000Y1006100D02*
X2703000D01*
X2678000Y1002000D02*
Y1008000D01*
X2662000Y1002000D02*
Y1008000D01*
X2678000D01*
X2662000Y1006100D02*
X2678000D01*
X2653000Y1002000D02*
Y1008000D01*
X2637000Y1002000D02*
Y1008000D01*
X2653000D01*
X2637000Y1006100D02*
X2653000D01*
X2032000Y1527000D02*
Y1533000D01*
X2048000Y1527000D02*
Y1533000D01*
X2032000Y1527000D02*
X2048000D01*
X2032000Y1528900D02*
X2048000D01*
X1777000Y1121000D02*
X1792000D01*
X1777000Y1093000D02*
X1792000D01*
X1777000Y1594000D02*
X1792000D01*
X1777000Y1566000D02*
X1792000D01*
X1743000Y1250000D02*
X1758000D01*
X1743000Y1278000D02*
X1758000D01*
X1743000Y1411000D02*
X1758000D01*
X1743000Y1439000D02*
X1758000D01*
X1616000Y1412000D02*
Y1427000D01*
X1644000Y1412000D02*
Y1427000D01*
Y1103000D02*
Y1118000D01*
X1616000Y1103000D02*
Y1118000D01*
X393000Y1021000D02*
X408000D01*
X393000Y1049000D02*
X408000D01*
X572000Y1049000D02*
X587000D01*
X572000Y1021000D02*
X587000D01*
X572000Y999000D02*
X587000D01*
X572000Y971000D02*
X587000D01*
X393000D02*
X408000D01*
X393000Y999000D02*
X408000D01*
X393000Y1536000D02*
X408000D01*
X393000Y1564000D02*
X408000D01*
X393000Y1486000D02*
X408000D01*
X393000Y1514000D02*
X408000D01*
X573000Y1514000D02*
X588000D01*
X573000Y1486000D02*
X588000D01*
X572000Y1564000D02*
X587000D01*
X572000Y1536000D02*
X587000D01*
X732000Y1149000D02*
X747000D01*
X732000Y1121000D02*
X747000D01*
X732000Y1099000D02*
X747000D01*
X732000Y1071000D02*
X747000D01*
X732000Y1049000D02*
X747000D01*
X732000Y1021000D02*
X747000D01*
X732000Y999000D02*
X747000D01*
X732000Y971000D02*
X747000D01*
X732000Y1564000D02*
X747000D01*
X732000Y1536000D02*
X747000D01*
X732000Y1514000D02*
X747000D01*
X732000Y1486000D02*
X747000D01*
X732000Y1464000D02*
X747000D01*
X732000Y1436000D02*
X747000D01*
X732000Y1414000D02*
X747000D01*
X732000Y1386000D02*
X747000D01*
X1637000Y1183000D02*
X1643000D01*
X1637000Y1167000D02*
X1643000D01*
X1637000D02*
Y1183000D01*
X1638900Y1167000D02*
Y1183000D01*
X1637000Y1363000D02*
X1643000D01*
X1637000Y1347000D02*
X1643000D01*
X1637000D02*
Y1363000D01*
X1638900Y1347000D02*
Y1363000D01*
X2628000Y1002000D02*
Y1008000D01*
X2612000Y1002000D02*
Y1008000D01*
X2628000D01*
X2612000Y1006100D02*
X2628000D01*
X2603000Y1002000D02*
Y1008000D01*
X2587000Y1002000D02*
Y1008000D01*
X2603000D01*
X2587000Y1006100D02*
X2603000D01*
X2578000Y1002000D02*
Y1008000D01*
X2562000Y1002000D02*
Y1008000D01*
X2578000D01*
X2562000Y1006100D02*
X2578000D01*
X2553000Y1002000D02*
Y1008000D01*
X2537000Y1002000D02*
Y1008000D01*
X2553000D01*
X2537000Y1006100D02*
X2553000D01*
X2528000Y1002000D02*
Y1008000D01*
X2512000Y1002000D02*
Y1008000D01*
X2528000D01*
X2512000Y1006100D02*
X2528000D01*
X2503000Y1002000D02*
Y1008000D01*
X2487000Y1002000D02*
Y1008000D01*
X2503000D01*
X2487000Y1006100D02*
X2503000D01*
X2612000Y1527000D02*
Y1533000D01*
X2628000Y1527000D02*
Y1533000D01*
X2612000Y1527000D02*
X2628000D01*
X2612000Y1528900D02*
X2628000D01*
X2587000Y1527000D02*
Y1533000D01*
X2603000Y1527000D02*
Y1533000D01*
X2587000Y1527000D02*
X2603000D01*
X2587000Y1528900D02*
X2603000D01*
X2562000Y1527000D02*
Y1533000D01*
X2578000Y1527000D02*
Y1533000D01*
X2562000Y1527000D02*
X2578000D01*
X2562000Y1528900D02*
X2578000D01*
X2537000Y1527000D02*
Y1533000D01*
X2553000Y1527000D02*
Y1533000D01*
X2537000Y1527000D02*
X2553000D01*
X2537000Y1528900D02*
X2553000D01*
X2512000Y1527000D02*
Y1533000D01*
X2528000Y1527000D02*
Y1533000D01*
X2512000Y1527000D02*
X2528000D01*
X2512000Y1528900D02*
X2528000D01*
X2487000Y1527000D02*
Y1533000D01*
X2503000Y1527000D02*
Y1533000D01*
X2487000Y1527000D02*
X2503000D01*
X2487000Y1528900D02*
X2503000D01*
X2478000Y1002000D02*
Y1008000D01*
X2462000Y1002000D02*
Y1008000D01*
X2478000D01*
X2462000Y1006100D02*
X2478000D01*
X2453000Y1002000D02*
Y1008000D01*
X2437000Y1002000D02*
Y1008000D01*
X2453000D01*
X2437000Y1006100D02*
X2453000D01*
X2428000Y1002000D02*
Y1008000D01*
X2412000Y1002000D02*
Y1008000D01*
X2428000D01*
X2412000Y1006100D02*
X2428000D01*
X2403000Y1002000D02*
Y1008000D01*
X2387000Y1002000D02*
Y1008000D01*
X2403000D01*
X2387000Y1006100D02*
X2403000D01*
X2378000Y1002000D02*
Y1008000D01*
X2362000Y1002000D02*
Y1008000D01*
X2378000D01*
X2362000Y1006100D02*
X2378000D01*
X2353000Y1002000D02*
Y1008000D01*
X2337000Y1002000D02*
Y1008000D01*
X2353000D01*
X2337000Y1006100D02*
X2353000D01*
X2328000Y1002000D02*
Y1008000D01*
X2312000Y1002000D02*
Y1008000D01*
X2328000D01*
X2312000Y1006100D02*
X2328000D01*
X2303000Y1002000D02*
Y1008000D01*
X2287000Y1002000D02*
Y1008000D01*
X2303000D01*
X2287000Y1006100D02*
X2303000D01*
X2278000Y1002000D02*
Y1008000D01*
X2262000Y1002000D02*
Y1008000D01*
X2278000D01*
X2262000Y1006100D02*
X2278000D01*
X2253000Y1002000D02*
Y1008000D01*
X2237000Y1002000D02*
Y1008000D01*
X2253000D01*
X2237000Y1006100D02*
X2253000D01*
X2228000Y1002000D02*
Y1008000D01*
X2212000Y1002000D02*
Y1008000D01*
X2228000D01*
X2212000Y1006100D02*
X2228000D01*
X2203000Y1002000D02*
Y1008000D01*
X2187000Y1002000D02*
Y1008000D01*
X2203000D01*
X2187000Y1006100D02*
X2203000D01*
X2462000Y1527000D02*
Y1533000D01*
X2478000Y1527000D02*
Y1533000D01*
X2462000Y1527000D02*
X2478000D01*
X2462000Y1528900D02*
X2478000D01*
X2437000Y1527000D02*
Y1533000D01*
X2453000Y1527000D02*
Y1533000D01*
X2437000Y1527000D02*
X2453000D01*
X2437000Y1528900D02*
X2453000D01*
X2412000Y1527000D02*
Y1533000D01*
X2428000Y1527000D02*
Y1533000D01*
X2412000Y1527000D02*
X2428000D01*
X2412000Y1528900D02*
X2428000D01*
X2387000Y1527000D02*
Y1533000D01*
X2403000Y1527000D02*
Y1533000D01*
X2387000Y1527000D02*
X2403000D01*
X2387000Y1528900D02*
X2403000D01*
X2362000Y1527000D02*
Y1533000D01*
X2378000Y1527000D02*
Y1533000D01*
X2362000Y1527000D02*
X2378000D01*
X2362000Y1528900D02*
X2378000D01*
X2337000Y1527000D02*
Y1533000D01*
X2353000Y1527000D02*
Y1533000D01*
X2337000Y1527000D02*
X2353000D01*
X2337000Y1528900D02*
X2353000D01*
X2312000Y1527000D02*
Y1533000D01*
X2328000Y1527000D02*
Y1533000D01*
X2312000Y1527000D02*
X2328000D01*
X2312000Y1528900D02*
X2328000D01*
X2287000Y1527000D02*
Y1533000D01*
X2303000Y1527000D02*
Y1533000D01*
X2287000Y1527000D02*
X2303000D01*
X2287000Y1528900D02*
X2303000D01*
X2262000Y1527000D02*
Y1533000D01*
X2278000Y1527000D02*
Y1533000D01*
X2262000Y1527000D02*
X2278000D01*
X2262000Y1528900D02*
X2278000D01*
X2237000Y1527000D02*
Y1533000D01*
X2253000Y1527000D02*
Y1533000D01*
X2237000Y1527000D02*
X2253000D01*
X2237000Y1528900D02*
X2253000D01*
X2212000Y1527000D02*
Y1533000D01*
X2228000Y1527000D02*
Y1533000D01*
X2212000Y1527000D02*
X2228000D01*
X2212000Y1528900D02*
X2228000D01*
X2187000Y1527000D02*
Y1533000D01*
X2203000Y1527000D02*
Y1533000D01*
X2187000Y1527000D02*
X2203000D01*
X2187000Y1528900D02*
X2203000D01*
X2056966Y1006052D02*
X2072966D01*
X2056966Y1007952D02*
X2072966D01*
X2056966Y1001952D02*
Y1007952D01*
X2072966Y1001952D02*
Y1007952D01*
X1932034Y1419948D02*
X1948034D01*
X1932034Y1418048D02*
X1948034D01*
Y1424048D01*
X1932034Y1418048D02*
Y1424048D01*
X1957000Y1419900D02*
X1973000D01*
X1957000Y1418000D02*
X1973000D01*
Y1424000D01*
X1957000Y1418000D02*
Y1424000D01*
X1982000Y1419900D02*
X1998000D01*
X1982000Y1418000D02*
X1998000D01*
Y1424000D01*
X1982000Y1418000D02*
Y1424000D01*
X2007000Y1419900D02*
X2023000D01*
X2007000Y1418000D02*
X2023000D01*
Y1424000D01*
X2007000Y1418000D02*
Y1424000D01*
X2032000Y1419900D02*
X2048000D01*
X2032000Y1418000D02*
X2048000D01*
Y1424000D01*
X2032000Y1418000D02*
Y1424000D01*
X2057000Y1419900D02*
X2073000D01*
X2057000Y1418000D02*
X2073000D01*
Y1424000D01*
X2057000Y1418000D02*
Y1424000D01*
X1932000Y1528900D02*
X1948000D01*
X1932000Y1527000D02*
X1948000D01*
Y1533000D01*
X1932000Y1527000D02*
Y1533000D01*
X1957000Y1528900D02*
X1973000D01*
X1957000Y1527000D02*
X1973000D01*
Y1533000D01*
X1957000Y1527000D02*
Y1533000D01*
X1982000Y1528900D02*
X1998000D01*
X1982000Y1527000D02*
X1998000D01*
Y1533000D01*
X1982000Y1527000D02*
Y1533000D01*
X2031966Y1006052D02*
X2047966D01*
X2031966Y1007952D02*
X2047966D01*
X2031966Y1001952D02*
Y1007952D01*
X2047966Y1001952D02*
Y1007952D01*
X2006966Y1006052D02*
X2022966D01*
X2006966Y1007952D02*
X2022966D01*
X2006966Y1001952D02*
Y1007952D01*
X2022966Y1001952D02*
Y1007952D01*
X1981966Y1006052D02*
X1997966D01*
X1981966Y1007952D02*
X1997966D01*
X1981966Y1001952D02*
Y1007952D01*
X1997966Y1001952D02*
Y1007952D01*
X1956967Y1006052D02*
X1972967D01*
X1956967Y1007952D02*
X1972967D01*
X1956967Y1001952D02*
Y1007952D01*
X1972967Y1001952D02*
Y1007952D01*
X1932000Y1006100D02*
X1948000D01*
X1932000Y1008000D02*
X1948000D01*
X1932000Y1002000D02*
Y1008000D01*
X1948000Y1002000D02*
Y1008000D01*
X2057000Y1106100D02*
X2073000D01*
X2057000Y1108000D02*
X2073000D01*
X2057000Y1102000D02*
Y1108000D01*
X2073000Y1102000D02*
Y1108000D01*
X2031967Y1106052D02*
X2047967D01*
X2031967Y1107952D02*
X2047967D01*
X2031967Y1101952D02*
Y1107952D01*
X2047967Y1101952D02*
Y1107952D01*
X2138000Y1528900D02*
X2154000D01*
X2138000Y1527000D02*
X2154000D01*
Y1533000D01*
X2138000Y1527000D02*
Y1533000D01*
X1981967Y1106052D02*
X1997968D01*
X1981967Y1107952D02*
X1997968D01*
X1981967Y1101952D02*
Y1107952D01*
X1997968Y1101952D02*
Y1107952D01*
X2137000Y1006100D02*
X2153000D01*
X2137000Y1008000D02*
X2153000D01*
X2137000Y1002000D02*
Y1008000D01*
X2153000Y1002000D02*
Y1008000D01*
X2162000Y1006100D02*
X2178000D01*
X2162000Y1008000D02*
X2178000D01*
X2162000Y1002000D02*
Y1008000D01*
X2178000Y1002000D02*
Y1008000D01*
X2057000Y1528900D02*
X2073000D01*
X2057000Y1527000D02*
X2073000D01*
Y1533000D01*
X2057000Y1527000D02*
Y1533000D01*
X2007000Y1528900D02*
X2023000D01*
X2007000Y1527000D02*
X2023000D01*
Y1533000D01*
X2007000Y1527000D02*
Y1533000D01*
X2006967Y1106052D02*
X2022967D01*
X2006967Y1107952D02*
X2022967D01*
X2006967Y1101952D02*
Y1107952D01*
X2022967Y1101952D02*
Y1107952D01*
X1956968Y1106052D02*
X1972968D01*
X1956968Y1107952D02*
X1972968D01*
X1956968Y1101952D02*
Y1107952D01*
X1972968Y1101952D02*
Y1107952D01*
X1931968Y1106052D02*
X1947968D01*
X1931968Y1107952D02*
X1947968D01*
X1931968Y1101952D02*
Y1107952D01*
X1947968Y1101952D02*
Y1107952D01*
X2162000Y1528900D02*
X2178000D01*
X2162000Y1527000D02*
X2178000D01*
Y1533000D01*
X2162000Y1527000D02*
Y1533000D01*
X1957000Y1340000D02*
Y1346000D01*
X1943000Y1340000D02*
Y1346000D01*
X1927000Y1340000D02*
Y1346000D01*
X1913000Y1340000D02*
Y1346000D01*
X1913000Y1182000D02*
Y1188000D01*
X1927000Y1182000D02*
Y1188000D01*
X2236000Y1394000D02*
Y1400000D01*
X2250000Y1394000D02*
Y1400000D01*
Y1410000D02*
Y1416000D01*
X2236000Y1410000D02*
Y1416000D01*
D11*
X2149750Y1143750D02*
G03*
X2149750Y1143750I-1250J0D01*
G01*
X1761080Y1070640D02*
G03*
X1761080Y1070640I-1250J0D01*
G01*
X1881420Y1144360D02*
G03*
X1881420Y1144360I-1250J0D01*
G01*
Y1304360D02*
G03*
X1881420Y1304360I-1250J0D01*
G01*
X1761080Y1540640D02*
G03*
X1761080Y1540640I-1250J0D01*
G01*
X2354250Y1170500D02*
G03*
X2354250Y1170500I-1250J0D01*
G01*
X2183750Y1236000D02*
G03*
X2183750Y1236000I-1250J0D01*
G01*
D12*
X2184500Y1259834D02*
G03*
X2184500Y1270167I0J5167D01*
G01*
X2255000Y1136000D02*
X2255500D01*
X2255000Y1154000D02*
X2255500D01*
X2224500Y1136000D02*
X2225000D01*
X2224500Y1154000D02*
X2225000D01*
X2224500Y1136000D02*
Y1154000D01*
X2255500Y1136000D02*
Y1154000D01*
X2369500Y1324000D02*
X2370000D01*
X2369500Y1306000D02*
X2370000D01*
X2400000Y1324000D02*
X2400500D01*
X2400000Y1306000D02*
X2400500D01*
Y1324000D01*
X2369500Y1306000D02*
Y1324000D01*
X2369500Y1184000D02*
X2370000D01*
X2369500Y1166000D02*
X2370000D01*
X2400000Y1184000D02*
X2400500D01*
X2400000Y1166000D02*
X2400500D01*
Y1184000D01*
X2369500Y1166000D02*
Y1184000D01*
X2400000Y1261000D02*
X2400500D01*
X2400000Y1279000D02*
X2400500D01*
X2369500Y1261000D02*
X2370000D01*
X2369500Y1279000D02*
X2370000D01*
X2369500Y1261000D02*
Y1279000D01*
X2400500Y1261000D02*
Y1279000D01*
X2369500Y1234000D02*
X2370000D01*
X2369500Y1216000D02*
X2370000D01*
X2400000Y1234000D02*
X2400500D01*
X2400000Y1216000D02*
X2400500D01*
Y1234000D01*
X2369500Y1216000D02*
Y1234000D01*
X2031000Y1174500D02*
Y1175000D01*
X2049000Y1174500D02*
Y1175000D01*
X2031000Y1205000D02*
Y1205500D01*
X2049000Y1205000D02*
Y1205500D01*
X2031000D02*
X2049000D01*
X2031000Y1174500D02*
X2049000D01*
X2174000Y1400500D02*
X2192000D01*
X2174000Y1369500D02*
X2192000D01*
X2174000D02*
Y1370000D01*
X2192000Y1369500D02*
Y1370000D01*
X2174000Y1400000D02*
Y1400500D01*
X2192000Y1400000D02*
Y1400500D01*
X2329500Y1401000D02*
Y1419000D01*
X2360500Y1401000D02*
Y1419000D01*
X2360000Y1401000D02*
X2360500D01*
X2360000Y1419000D02*
X2360500D01*
X2329500Y1401000D02*
X2330000D01*
X2329500Y1419000D02*
X2330000D01*
X2671000Y1295500D02*
X2689000D01*
X2671000Y1264500D02*
X2689000D01*
X2671000D02*
Y1265000D01*
X2689000Y1264500D02*
Y1265000D01*
X2671000Y1295000D02*
Y1295500D01*
X2689000Y1295000D02*
Y1295500D01*
X2224000Y1440000D02*
Y1440500D01*
X2206000Y1440000D02*
Y1440500D01*
X2224000Y1409500D02*
Y1410000D01*
X2206000Y1409500D02*
Y1410000D01*
Y1409500D02*
X2224000D01*
X2206000Y1440500D02*
X2224000D01*
X2265000Y1288000D02*
X2266500D01*
X2265000Y1243000D02*
X2266500D01*
X2184500D02*
X2185500D01*
X2184500Y1288000D02*
X2185500D01*
X2266500Y1243000D02*
Y1288000D01*
X2184500Y1270200D02*
Y1288000D01*
Y1243000D02*
Y1259800D01*
X2206000Y1400500D02*
X2224000D01*
X2206000Y1369500D02*
X2224000D01*
X2206000D02*
Y1370000D01*
X2224000Y1369500D02*
Y1370000D01*
X2206000Y1400000D02*
Y1400500D01*
X2224000Y1400000D02*
Y1400500D01*
X2174000Y1440500D02*
X2192000D01*
X2174000Y1409500D02*
X2192000D01*
X2174000D02*
Y1410000D01*
X2192000Y1409500D02*
Y1410000D01*
X2174000Y1440000D02*
Y1440500D01*
X2192000Y1440000D02*
Y1440500D01*
X2311832Y1318999D02*
X2306500D01*
Y1315000D01*
X2309166D01*
X2306500D01*
Y1311001D01*
X2314497D02*
Y1316333D01*
X2317163Y1318999D01*
X2319829Y1316333D01*
Y1311001D01*
Y1315000D01*
X2314497D01*
X2322495Y1318999D02*
Y1312334D01*
X2323828Y1311001D01*
X2326494D01*
X2327826Y1312334D01*
Y1318999D01*
X2330492D02*
Y1311001D01*
X2335824D01*
X2338490Y1318999D02*
X2343821D01*
X2341155D01*
Y1311001D01*
X2311832Y1347666D02*
X2310499Y1348999D01*
X2307833D01*
X2306500Y1347666D01*
Y1346333D01*
X2307833Y1345000D01*
X2310499D01*
X2311832Y1343667D01*
Y1342334D01*
X2310499Y1341001D01*
X2307833D01*
X2306500Y1342334D01*
X2314497Y1348999D02*
X2319829D01*
X2317163D01*
Y1341001D01*
X2322495D02*
Y1346333D01*
X2325161Y1348999D01*
X2327826Y1346333D01*
Y1341001D01*
Y1345000D01*
X2322495D01*
X2330492Y1348999D02*
X2335824D01*
X2333158D01*
Y1341001D01*
X2338490Y1348999D02*
Y1342334D01*
X2339823Y1341001D01*
X2342488D01*
X2343821Y1342334D01*
Y1348999D01*
X2351819Y1347666D02*
X2350486Y1348999D01*
X2347820D01*
X2346487Y1347666D01*
Y1346333D01*
X2347820Y1345000D01*
X2350486D01*
X2351819Y1343667D01*
Y1342334D01*
X2350486Y1341001D01*
X2347820D01*
X2346487Y1342334D01*
D13*
X653000Y1135000D02*
Y1260000D01*
X365000Y1135000D02*
X653000D01*
X365000D02*
Y1260000D01*
X653000D01*
Y1275000D02*
Y1400000D01*
X365000Y1275000D02*
X653000D01*
X365000D02*
Y1400000D01*
X653000D01*
X2569200Y1319950D02*
X2670800D01*
X2569200D02*
Y1342800D01*
X2670800Y1319950D02*
Y1342800D01*
D14*
X2544000Y1213000D02*
Y1242000D01*
X2672000D01*
Y1213000D02*
Y1242000D01*
X2544000Y1114000D02*
Y1143000D01*
X2672000Y1114000D02*
Y1143000D01*
X2544000Y1114000D02*
X2672000D01*
X1466000Y1460000D02*
Y1489000D01*
X1594000D01*
Y1460000D02*
Y1489000D01*
X1466000Y1361000D02*
Y1390000D01*
Y1361000D02*
X1594000D01*
Y1390000D01*
Y1201000D02*
Y1230000D01*
X1466000Y1201000D02*
X1594000D01*
X1466000D02*
Y1230000D01*
X1594000Y1300000D02*
Y1329000D01*
X1466000D02*
X1594000D01*
X1466000Y1300000D02*
Y1329000D01*
X1594000Y1041000D02*
Y1070000D01*
X1466000Y1041000D02*
X1594000D01*
X1466000D02*
Y1070000D01*
X1594000Y1140000D02*
Y1169000D01*
X1466000D02*
X1594000D01*
X1466000Y1140000D02*
Y1169000D01*
X1306000Y1460000D02*
Y1489000D01*
X1434000D01*
Y1460000D02*
Y1489000D01*
X1306000Y1361000D02*
Y1390000D01*
Y1361000D02*
X1434000D01*
Y1390000D01*
X1306000Y1300000D02*
Y1329000D01*
X1434000D01*
Y1300000D02*
Y1329000D01*
X1306000Y1201000D02*
Y1230000D01*
Y1201000D02*
X1434000D01*
Y1230000D01*
X1306000Y1140000D02*
Y1169000D01*
X1434000D01*
Y1140000D02*
Y1169000D01*
X1306000Y1041000D02*
Y1070000D01*
Y1041000D02*
X1434000D01*
Y1070000D01*
X1146000Y1460000D02*
Y1489000D01*
X1274000D01*
Y1460000D02*
Y1489000D01*
X1146000Y1361000D02*
Y1390000D01*
Y1361000D02*
X1274000D01*
Y1390000D01*
X1146000Y1300000D02*
Y1329000D01*
X1274000D01*
Y1300000D02*
Y1329000D01*
X1146000Y1201000D02*
Y1230000D01*
Y1201000D02*
X1274000D01*
Y1230000D01*
X1146000Y1140000D02*
Y1169000D01*
X1274000D01*
Y1140000D02*
Y1169000D01*
X1146000Y1041000D02*
Y1070000D01*
Y1041000D02*
X1274000D01*
Y1070000D01*
X1114000Y1361000D02*
Y1390000D01*
X986000Y1361000D02*
X1114000D01*
X986000D02*
Y1390000D01*
X1114000Y1460000D02*
Y1489000D01*
X986000D02*
X1114000D01*
X986000Y1460000D02*
Y1489000D01*
X1114000Y1201000D02*
Y1230000D01*
X986000Y1201000D02*
X1114000D01*
X986000D02*
Y1230000D01*
X1114000Y1300000D02*
Y1329000D01*
X986000D02*
X1114000D01*
X986000Y1300000D02*
Y1329000D01*
X1114000Y1041000D02*
Y1070000D01*
X986000Y1041000D02*
X1114000D01*
X986000D02*
Y1070000D01*
X1114000Y1140000D02*
Y1169000D01*
X986000D02*
X1114000D01*
X986000Y1140000D02*
Y1169000D01*
X294607Y1237631D02*
Y1225765D01*
X300540Y1231698D02*
X288674D01*
X294546Y1123170D02*
Y1111318D01*
X300472Y1117244D02*
X288620D01*
X297114Y1210862D02*
Y1199004D01*
X297108Y1095213D02*
Y1083356D01*
X294607Y1447631D02*
Y1435765D01*
X300540Y1441698D02*
X288674D01*
X294546Y1333170D02*
Y1321318D01*
X300472Y1327244D02*
X288620D01*
X297114Y1420862D02*
Y1409004D01*
X297108Y1305213D02*
Y1293356D01*
D15*
X1318761Y1268998D02*
X1315429D01*
X1317095D01*
Y1260668D01*
X1315429Y1259002D01*
X1313763D01*
X1312097Y1260668D01*
X1322094Y1268998D02*
Y1259002D01*
X1328758D01*
X1338755Y1267332D02*
X1337089Y1268998D01*
X1333756D01*
X1332090Y1267332D01*
Y1260668D01*
X1333756Y1259002D01*
X1337089D01*
X1338755Y1260668D01*
X1348752Y1268998D02*
X1345419D01*
X1347085D01*
Y1260668D01*
X1345419Y1259002D01*
X1343753D01*
X1342087Y1260668D01*
X1352084Y1268998D02*
Y1259002D01*
X1358748D01*
X1368745Y1267332D02*
X1367079Y1268998D01*
X1363747D01*
X1362081Y1267332D01*
Y1260668D01*
X1363747Y1259002D01*
X1367079D01*
X1368745Y1260668D01*
X1378742Y1268998D02*
X1375410D01*
X1377076D01*
Y1260668D01*
X1375410Y1259002D01*
X1373743D01*
X1372077Y1260668D01*
X1382074Y1268998D02*
Y1259002D01*
X1388739D01*
X1398736Y1267332D02*
X1397069Y1268998D01*
X1393737D01*
X1392071Y1267332D01*
Y1260668D01*
X1393737Y1259002D01*
X1397069D01*
X1398736Y1260668D01*
X1408732Y1268998D02*
X1405400D01*
X1407066D01*
Y1260668D01*
X1405400Y1259002D01*
X1403734D01*
X1402068Y1260668D01*
X1412065Y1268998D02*
Y1259002D01*
X1418729D01*
X1428726Y1267332D02*
X1427060Y1268998D01*
X1423727D01*
X1422061Y1267332D01*
Y1260668D01*
X1423727Y1259002D01*
X1427060D01*
X1428726Y1260668D01*
M02*
