G04*
G04 #@! TF.GenerationSoftware,Altium Limited,Altium Designer,18.1.7 (191)*
G04*
G04 Layer_Physical_Order=1*
G04 Layer_Color=255*
%FSLAX44Y44*%
%MOMM*%
G71*
G01*
G75*
%ADD10C,0.2000*%
%ADD16R,4.0000X4.0000*%
%ADD17R,0.6000X0.6000*%
%ADD18R,0.6000X0.6000*%
%ADD19R,0.5500X0.8000*%
%ADD20R,0.4500X1.0000*%
%ADD21R,2.0000X1.1000*%
%ADD22R,1.0000X0.4500*%
%ADD23R,1.2000X1.5000*%
%ADD24R,0.8000X0.8000*%
%ADD25R,0.9800X0.9300*%
%ADD26R,0.3000X1.6500*%
%ADD27R,0.8000X0.5500*%
%ADD28R,10.1600X9.5000*%
%ADD29R,4.5000X1.2500*%
%ADD30R,1.5000X1.3000*%
%ADD31R,1.1000X2.0000*%
%ADD32R,0.9000X1.7000*%
%ADD33R,3.2000X1.7000*%
%ADD34R,0.9300X0.9800*%
%ADD35R,0.2500X0.7000*%
%ADD36R,0.2500X1.8000*%
%ADD37R,0.7000X0.2500*%
%ADD38R,0.2500X1.5000*%
%ADD39R,1.8000X3.4000*%
%ADD40R,2.9000X5.4000*%
%ADD41R,1.8000X2.2000*%
%ADD42R,1.5000X1.2000*%
%ADD45R,1.8000X1.6000*%
%ADD46R,0.3000X1.4500*%
%ADD47R,2.2000X1.8000*%
%ADD48R,3.4000X1.8000*%
%ADD92R,9.3800X3.1500*%
%ADD93R,10.7000X8.6000*%
%ADD94R,1.0000X3.4000*%
%ADD95C,0.4000*%
%ADD96C,0.5000*%
%ADD97C,0.3000*%
%ADD98C,1.0000*%
%ADD99C,1.5000*%
%ADD100R,8.5000X3.0000*%
%ADD101R,12.5000X3.0000*%
%ADD102R,9.5000X3.0000*%
%ADD103R,3.5000X17.5000*%
%ADD104R,21.5000X11.5000*%
%ADD105R,16.5000X4.5000*%
%ADD106R,10.0000X3.0000*%
%ADD107R,9.5000X3.5000*%
%ADD108R,10.5000X23.5000*%
%ADD109R,6.0000X9.0000*%
%ADD110R,32.5000X4.5000*%
%ADD111R,23.0000X5.0000*%
%ADD112R,84.0000X1.0000*%
%ADD113R,1.5000X1.0000*%
%ADD114R,1.0000X2.0000*%
%ADD115R,4.0000X5.5000*%
%ADD116R,6.0000X3.0000*%
%ADD117R,8.0000X2.5000*%
%ADD118R,30.0000X4.0000*%
%ADD119R,3.5000X6.5000*%
%ADD120R,5.5000X13.0000*%
%ADD121R,35.0000X8.5000*%
%ADD122R,6.5000X13.5000*%
%ADD123R,4.0000X5.5000*%
%ADD124R,21.5000X30.0000*%
%ADD125R,12.0000X2.5000*%
%ADD126R,3.0000X4.5000*%
%ADD127R,4.0000X6.0000*%
%ADD128R,13.5000X3.0000*%
%ADD129R,28.0000X8.0000*%
%ADD130R,4.0000X6.5000*%
%ADD131R,1.0000X9.7000*%
%ADD132R,5.3000X10.3000*%
%ADD133R,3.5000X11.8000*%
%ADD134R,5.8000X1.0000*%
%ADD135R,1.0000X7.0000*%
%ADD136R,0.8000X8.0000*%
%ADD137R,1.8000X3.7000*%
%ADD138R,2.4000X1.4000*%
%ADD139R,7.5000X10.4000*%
%ADD140R,3.3000X5.7000*%
%ADD141R,25.5000X13.5000*%
%ADD142R,10.5000X10.0000*%
%ADD143R,1.0000X2.0000*%
%ADD144R,1.0000X1.9000*%
%ADD145R,15.0000X1.0000*%
%ADD146R,45.0000X67.5000*%
%ADD147R,38.5000X2.5000*%
%ADD148R,4.5000X5.8000*%
%ADD149R,7.5000X2.5000*%
%ADD150R,69.0000X5.5000*%
%ADD151R,4.0000X5.0000*%
%ADD152R,2.0000X1.0000*%
%ADD153R,5.0000X59.0000*%
%ADD154R,2.0000X1.0000*%
%ADD155R,15.0000X1.3000*%
%ADD156R,13.5000X1.5000*%
%ADD157R,8.0000X11.0000*%
%ADD158R,2.0000X7.5000*%
%ADD159R,36.0000X3.5000*%
%ADD160R,2.0000X7.0000*%
%ADD161R,2.0000X6.7000*%
%ADD162R,2.0000X7.0000*%
%ADD163R,76.0000X5.0000*%
%ADD164R,63.5000X4.5000*%
%ADD165R,58.5000X4.5000*%
%ADD166R,9.0000X4.5000*%
%ADD167R,3.5000X4.5000*%
%ADD168R,1.0000X2.5000*%
%ADD169R,13.2000X1.9000*%
%ADD170R,27.5000X4.5000*%
%ADD171R,6.0000X13.0000*%
%ADD172R,27.0000X5.5000*%
%ADD173R,6.2000X4.3000*%
%ADD174R,30.2000X3.7000*%
%ADD175R,6.5000X47.0000*%
%ADD176R,6.5000X45.5000*%
%ADD177R,1.0000X3.0000*%
%ADD178R,1.0000X3.0000*%
%ADD179R,6.0000X47.5000*%
%ADD180R,6.5000X47.0000*%
%ADD181R,7.0000X6.6000*%
%ADD182R,7.0000X7.0000*%
%ADD183R,7.0000X7.0000*%
%ADD184R,3.5000X8.5000*%
%ADD185R,11.5000X6.5000*%
%ADD186R,45.0000X17.0000*%
%ADD187R,8.0000X6.0000*%
%ADD188R,14.9000X1.0000*%
%ADD189R,13.2000X2.0000*%
%ADD190R,5.2000X7.0000*%
%ADD191R,12.7000X2.0000*%
%ADD192R,5.2000X7.5000*%
%ADD193R,12.0000X15.6000*%
%ADD194R,8.0000X30.0000*%
%ADD195R,11.0000X6.5000*%
%ADD196R,4.0000X16.0000*%
%ADD197R,4.0000X16.0000*%
%ADD198R,13.5000X1.1000*%
%ADD199R,26.0000X5.0000*%
%ADD200R,8.0000X27.5000*%
%ADD201R,19.2000X9.2000*%
%ADD202R,11.6000X13.7000*%
%ADD203R,16.7000X9.5000*%
%ADD204R,75.0000X7.0000*%
%ADD205R,67.5000X7.0000*%
%ADD206R,1.5000X1.5000*%
%ADD207R,1.9500X1.9500*%
%ADD208C,1.9500*%
%ADD209C,1.1520*%
%ADD210C,1.3980*%
%ADD211C,2.3550*%
%ADD212C,3.2500*%
%ADD213R,1.3980X1.3980*%
%ADD214C,0.4800*%
%ADD215C,1.0000*%
G36*
X2840000Y1575000D02*
X2775000D01*
Y1610000D01*
X2840000D01*
Y1575000D01*
D02*
G37*
G36*
X3200000Y1445000D02*
X3260000D01*
X3260000Y1090000D01*
X3200000D01*
Y1030000D01*
X2540000D01*
Y1082451D01*
X2805000D01*
X2805975Y1082645D01*
X2806603Y1083064D01*
X2807188Y1082188D01*
X2808478Y1081326D01*
X2809935Y1081037D01*
X2810295Y1080916D01*
X2810916Y1080295D01*
X2811037Y1079935D01*
X2811326Y1078478D01*
X2812188Y1077188D01*
X2813478Y1076326D01*
X2815000Y1076024D01*
X2816522Y1076326D01*
X2817812Y1077188D01*
X2818674Y1078478D01*
X2818976Y1080000D01*
X2818674Y1081522D01*
X2817812Y1082812D01*
X2817549Y1082987D01*
Y1090000D01*
Y1145536D01*
X2818819Y1146258D01*
X2820000Y1146024D01*
X2821522Y1146326D01*
X2822812Y1147188D01*
X2823674Y1148478D01*
X2823976Y1150000D01*
X2823674Y1151522D01*
X2822812Y1152812D01*
X2822549Y1152987D01*
Y1235000D01*
X2822355Y1235975D01*
X2821802Y1236802D01*
X2816722Y1241882D01*
X2815895Y1242435D01*
X2815540Y1242506D01*
Y1245620D01*
X2812549D01*
Y1249380D01*
X2815540D01*
Y1259540D01*
Y1270620D01*
X2807751D01*
X2807365Y1271890D01*
X2807812Y1272188D01*
X2808674Y1273478D01*
X2808976Y1275000D01*
X2808674Y1276522D01*
X2807812Y1277812D01*
X2807549Y1277987D01*
Y1284380D01*
X2810540D01*
Y1294540D01*
Y1305620D01*
X2793065D01*
X2791882Y1306802D01*
X2791056Y1307355D01*
X2790290Y1307507D01*
Y1310040D01*
X2780441D01*
X2779915Y1311310D01*
X2781056Y1312451D01*
X2790000D01*
X2790976Y1312645D01*
X2791802Y1313198D01*
X2796802Y1318198D01*
X2797355Y1319025D01*
X2797541Y1319960D01*
X2799790D01*
Y1333040D01*
X2797549D01*
Y1335080D01*
X2797355Y1336055D01*
X2796802Y1336882D01*
X2795620Y1338065D01*
Y1345540D01*
X2774380D01*
Y1337985D01*
X2773698Y1337302D01*
X2773145Y1336476D01*
X2772951Y1335500D01*
Y1333040D01*
X2770210D01*
Y1328645D01*
X2769698Y1328302D01*
X2758198Y1316802D01*
X2757645Y1315975D01*
X2757451Y1315000D01*
Y1312987D01*
X2757188Y1312812D01*
X2756326Y1311522D01*
X2756024Y1310000D01*
X2756326Y1308478D01*
X2757107Y1307310D01*
X2756967Y1306740D01*
X2756621Y1306040D01*
X2742460D01*
Y1289960D01*
X2758435D01*
X2758560Y1288690D01*
X2758478Y1288674D01*
X2757188Y1287812D01*
X2756326Y1286522D01*
X2756024Y1285000D01*
X2756085Y1284690D01*
X2753198Y1281802D01*
X2752645Y1280975D01*
X2752451Y1280000D01*
Y1270040D01*
X2742460D01*
Y1253960D01*
X2767540D01*
Y1267451D01*
X2800000D01*
X2800976Y1267645D01*
X2801802Y1268198D01*
X2803190Y1269585D01*
X2804460Y1269059D01*
Y1267442D01*
X2804025Y1267355D01*
X2803198Y1266802D01*
X2801198Y1264802D01*
X2801060Y1264596D01*
X2799790Y1264982D01*
Y1265040D01*
X2795770D01*
Y1258500D01*
Y1251960D01*
X2799181D01*
X2799790Y1251960D01*
X2800451Y1250964D01*
Y1249056D01*
X2798944Y1247549D01*
X2777896D01*
X2777218Y1248819D01*
X2777355Y1249025D01*
X2777549Y1250000D01*
Y1251960D01*
X2780790D01*
Y1265040D01*
X2770210D01*
Y1252549D01*
X2736056D01*
X2726802Y1261802D01*
X2725976Y1262355D01*
X2725000Y1262549D01*
X2719464D01*
X2718741Y1263819D01*
X2718976Y1265000D01*
X2718674Y1266522D01*
X2717812Y1267812D01*
X2716522Y1268674D01*
X2715000Y1268976D01*
X2713478Y1268674D01*
X2712188Y1267812D01*
X2712013Y1267549D01*
X2699464D01*
X2698741Y1268819D01*
X2698976Y1270000D01*
X2698741Y1271181D01*
X2699464Y1272451D01*
X2707013D01*
X2707188Y1272188D01*
X2708478Y1271326D01*
X2710000Y1271024D01*
X2711522Y1271326D01*
X2712812Y1272188D01*
X2713674Y1273478D01*
X2713976Y1275000D01*
X2713674Y1276522D01*
X2712812Y1277812D01*
X2711522Y1278674D01*
X2710000Y1278976D01*
X2708478Y1278674D01*
X2707188Y1277812D01*
X2707013Y1277549D01*
X2689464D01*
X2688741Y1278819D01*
X2688964Y1279935D01*
X2689084Y1280295D01*
X2689705Y1280916D01*
X2690065Y1281037D01*
X2691522Y1281326D01*
X2692812Y1282188D01*
X2693674Y1283478D01*
X2693976Y1285000D01*
X2693741Y1286181D01*
X2694464Y1287451D01*
X2700000D01*
X2700976Y1287645D01*
X2701802Y1288198D01*
X2704690Y1291085D01*
X2705000Y1291024D01*
X2706522Y1291326D01*
X2707812Y1292188D01*
X2708674Y1293478D01*
X2708976Y1295000D01*
X2708674Y1296522D01*
X2707812Y1297812D01*
X2706522Y1298674D01*
X2705000Y1298976D01*
X2703478Y1298674D01*
X2702188Y1297812D01*
X2701326Y1296522D01*
X2701024Y1295000D01*
X2701085Y1294690D01*
X2698944Y1292549D01*
X2694464D01*
X2693741Y1293819D01*
X2693976Y1295000D01*
X2693674Y1296522D01*
X2692812Y1297812D01*
X2692245Y1298190D01*
X2692631Y1299460D01*
X2693810D01*
Y1305000D01*
X2695080D01*
Y1306270D01*
X2700620D01*
Y1308460D01*
X2703540D01*
Y1321540D01*
X2704407Y1322451D01*
X2707013D01*
X2707188Y1322188D01*
X2708478Y1321326D01*
X2710000Y1321024D01*
X2711522Y1321326D01*
X2712812Y1322188D01*
X2713674Y1323478D01*
X2713976Y1325000D01*
X2713674Y1326522D01*
X2712812Y1327812D01*
X2711522Y1328674D01*
X2710000Y1328976D01*
X2708478Y1328674D01*
X2707188Y1327812D01*
X2707013Y1327549D01*
X2700620D01*
Y1332451D01*
X2712013D01*
X2712188Y1332188D01*
X2713478Y1331326D01*
X2715000Y1331024D01*
X2716522Y1331326D01*
X2717812Y1332188D01*
X2718674Y1333478D01*
X2718976Y1335000D01*
X2718674Y1336522D01*
X2717812Y1337812D01*
X2716522Y1338674D01*
X2715000Y1338976D01*
X2713478Y1338674D01*
X2712188Y1337812D01*
X2712013Y1337549D01*
X2704407D01*
X2703540Y1338460D01*
Y1351540D01*
X2700620D01*
Y1353730D01*
X2695080D01*
Y1355000D01*
X2693810D01*
Y1360540D01*
X2679380D01*
Y1351540D01*
X2676460D01*
Y1338460D01*
X2675593Y1337549D01*
X2675000D01*
X2674025Y1337355D01*
X2673198Y1336802D01*
X2672645Y1335975D01*
X2672451Y1335000D01*
Y1325000D01*
Y1302950D01*
X2671181Y1302424D01*
X2666802Y1306802D01*
X2665976Y1307355D01*
X2665000Y1307549D01*
X2657987D01*
X2657812Y1307812D01*
X2656522Y1308674D01*
X2656518Y1308674D01*
X2655540Y1309380D01*
X2655540Y1310065D01*
Y1313650D01*
X2650000D01*
Y1316190D01*
X2655540D01*
Y1322531D01*
X2656959D01*
X2657188Y1322188D01*
X2658478Y1321326D01*
X2660000Y1321024D01*
X2661522Y1321326D01*
X2662812Y1322188D01*
X2663674Y1323478D01*
X2663976Y1325000D01*
X2663674Y1326522D01*
X2662812Y1327812D01*
X2661522Y1328674D01*
X2660000Y1328976D01*
X2658478Y1328674D01*
X2657188Y1327812D01*
X2657066Y1327629D01*
X2655540D01*
Y1330620D01*
X2650540D01*
Y1342451D01*
X2662013D01*
X2662188Y1342188D01*
X2663478Y1341326D01*
X2665000Y1341024D01*
X2666522Y1341326D01*
X2667812Y1342188D01*
X2668674Y1343478D01*
X2668976Y1345000D01*
X2668674Y1346522D01*
X2667812Y1347812D01*
X2666522Y1348674D01*
X2665000Y1348976D01*
X2663478Y1348674D01*
X2662188Y1347812D01*
X2662013Y1347549D01*
X2650540D01*
Y1350531D01*
X2666959D01*
X2667188Y1350188D01*
X2668478Y1349326D01*
X2670000Y1349024D01*
X2671522Y1349326D01*
X2672812Y1350188D01*
X2673674Y1351478D01*
X2673976Y1353000D01*
X2673674Y1354522D01*
X2672812Y1355812D01*
X2671522Y1356674D01*
X2670000Y1356976D01*
X2668478Y1356674D01*
X2667188Y1355812D01*
X2667066Y1355629D01*
X2645620D01*
Y1365540D01*
X2642549D01*
Y1367000D01*
X2642511Y1367190D01*
X2643442Y1368460D01*
X2647790D01*
Y1372451D01*
X2668960D01*
Y1367460D01*
X2685040D01*
Y1392540D01*
X2677469D01*
Y1394460D01*
X2690620D01*
Y1397451D01*
X2694300D01*
Y1394460D01*
X2715540D01*
Y1397451D01*
X2717013D01*
X2717188Y1397188D01*
X2718478Y1396326D01*
X2720000Y1396024D01*
X2721522Y1396326D01*
X2722812Y1397188D01*
X2723674Y1398478D01*
X2723976Y1400000D01*
X2723822Y1400777D01*
X2724992Y1401403D01*
X2727251Y1399144D01*
X2727188Y1397812D01*
X2726326Y1396522D01*
X2726024Y1395000D01*
X2726326Y1393478D01*
X2727188Y1392188D01*
X2728478Y1391326D01*
X2730000Y1391024D01*
X2731181Y1391259D01*
X2732451Y1390536D01*
Y1377987D01*
X2732188Y1377812D01*
X2731326Y1376522D01*
X2731024Y1375000D01*
X2731326Y1373478D01*
X2732188Y1372188D01*
X2733478Y1371326D01*
X2735000Y1371024D01*
X2736522Y1371326D01*
X2737812Y1372188D01*
X2738674Y1373478D01*
X2738976Y1375000D01*
X2738674Y1376522D01*
X2737812Y1377812D01*
X2737549Y1377987D01*
Y1400944D01*
X2738537Y1401932D01*
X2739710Y1401446D01*
Y1391960D01*
X2750290D01*
Y1397451D01*
X2760000D01*
X2760976Y1397645D01*
X2761802Y1398198D01*
X2775008Y1411403D01*
X2776178Y1410777D01*
X2776024Y1410000D01*
X2776326Y1408478D01*
X2777188Y1407188D01*
X2778478Y1406326D01*
X2780000Y1406024D01*
X2781522Y1406326D01*
X2782812Y1407188D01*
X2782987Y1407451D01*
X2790536D01*
X2791259Y1406181D01*
X2791024Y1405000D01*
X2791326Y1403478D01*
X2792188Y1402188D01*
X2792451Y1402013D01*
Y1387987D01*
X2792188Y1387812D01*
X2791326Y1386522D01*
X2791024Y1385000D01*
X2791326Y1383478D01*
X2792188Y1382188D01*
X2793478Y1381326D01*
X2795000Y1381024D01*
X2796522Y1381326D01*
X2797812Y1382188D01*
X2798674Y1383478D01*
X2798976Y1385000D01*
X2798674Y1386522D01*
X2797812Y1387812D01*
X2797549Y1387987D01*
Y1402013D01*
X2797812Y1402188D01*
X2798674Y1403478D01*
X2798976Y1405000D01*
X2798741Y1406181D01*
X2799464Y1407451D01*
X2807013D01*
X2807188Y1407188D01*
X2808478Y1406326D01*
X2810000Y1406024D01*
X2811522Y1406326D01*
X2812812Y1407188D01*
X2813674Y1408478D01*
X2813976Y1410000D01*
X2813674Y1411522D01*
X2812812Y1412812D01*
X2811522Y1413674D01*
X2810000Y1413976D01*
X2808478Y1413674D01*
X2807188Y1412812D01*
X2807013Y1412549D01*
X2794464D01*
X2793741Y1413819D01*
X2793976Y1415000D01*
X2793741Y1416181D01*
X2794464Y1417451D01*
X2842013D01*
X2842188Y1417188D01*
X2843478Y1416326D01*
X2845000Y1416024D01*
X2846522Y1416326D01*
X2847812Y1417188D01*
X2848674Y1418478D01*
X2848976Y1420000D01*
X2848674Y1421522D01*
X2847812Y1422812D01*
X2846522Y1423674D01*
X2845065Y1423963D01*
X2844705Y1424084D01*
X2844084Y1424705D01*
X2843964Y1425065D01*
X2843674Y1426522D01*
X2842812Y1427812D01*
X2841522Y1428674D01*
X2840000Y1428976D01*
X2838478Y1428674D01*
X2837188Y1427812D01*
X2837013Y1427549D01*
X2804464D01*
X2803741Y1428819D01*
X2803976Y1430000D01*
X2803741Y1431181D01*
X2804464Y1432451D01*
X2812013D01*
X2812188Y1432188D01*
X2813478Y1431326D01*
X2815000Y1431024D01*
X2816522Y1431326D01*
X2817812Y1432188D01*
X2818674Y1433478D01*
X2818976Y1435000D01*
X2818674Y1436522D01*
X2817812Y1437812D01*
X2816522Y1438674D01*
X2815000Y1438976D01*
X2813478Y1438674D01*
X2812188Y1437812D01*
X2812013Y1437549D01*
X2772987D01*
X2772812Y1437812D01*
X2771522Y1438674D01*
X2770000Y1438976D01*
X2768478Y1438674D01*
X2767188Y1437812D01*
X2766326Y1436522D01*
X2766024Y1435000D01*
X2766326Y1433478D01*
X2767188Y1432188D01*
X2768478Y1431326D01*
X2769935Y1431037D01*
X2770184Y1430954D01*
X2770774Y1429774D01*
X2770265Y1429074D01*
X2769935Y1428963D01*
X2768478Y1428674D01*
X2767188Y1427812D01*
X2766326Y1426522D01*
X2766024Y1425000D01*
X2766326Y1423478D01*
X2767188Y1422188D01*
X2768478Y1421326D01*
X2769935Y1421037D01*
X2770295Y1420916D01*
X2770916Y1420295D01*
X2771037Y1419935D01*
X2771326Y1418478D01*
X2772188Y1417188D01*
X2772192Y1417186D01*
X2772317Y1415922D01*
X2758944Y1402549D01*
X2750290D01*
Y1405040D01*
X2743304D01*
X2742818Y1406213D01*
X2751565Y1414960D01*
X2759790D01*
Y1428040D01*
X2757549D01*
Y1430000D01*
X2757355Y1430975D01*
X2756802Y1431802D01*
X2755620Y1432985D01*
Y1435000D01*
Y1440540D01*
X2741190D01*
Y1435000D01*
Y1429460D01*
X2750775D01*
X2750876Y1429310D01*
X2750200Y1428040D01*
X2749210D01*
Y1419815D01*
X2733198Y1403802D01*
X2732645Y1402975D01*
X2732609Y1402792D01*
X2731230Y1402374D01*
X2721802Y1411802D01*
X2720976Y1412355D01*
X2720000Y1412549D01*
X2715620D01*
Y1415540D01*
X2694380D01*
Y1412549D01*
X2690620D01*
Y1415540D01*
X2677469D01*
Y1417460D01*
X2685040D01*
Y1435000D01*
Y1442540D01*
X2668960D01*
Y1436549D01*
X2647790D01*
Y1441540D01*
X2638210D01*
Y1435000D01*
Y1426460D01*
X2647790D01*
Y1431451D01*
X2653534D01*
X2654460Y1430620D01*
Y1419540D01*
Y1416190D01*
X2660000D01*
X2665540D01*
Y1422451D01*
X2668960D01*
Y1417460D01*
X2672371D01*
Y1415540D01*
X2669380D01*
Y1402549D01*
X2665000D01*
X2664025Y1402355D01*
X2663198Y1401802D01*
X2662015Y1400620D01*
X2654460D01*
Y1389540D01*
Y1386190D01*
X2660000D01*
X2665540D01*
Y1389540D01*
Y1396935D01*
X2666056Y1397451D01*
X2669380D01*
Y1394460D01*
X2672371D01*
Y1392540D01*
X2668960D01*
Y1377549D01*
X2647790D01*
Y1383540D01*
X2638210D01*
Y1377549D01*
X2633040D01*
Y1380790D01*
X2619960D01*
Y1376565D01*
X2618690Y1376440D01*
X2618674Y1376522D01*
X2617812Y1377812D01*
X2616522Y1378674D01*
X2615000Y1378976D01*
X2614690Y1378915D01*
X2610040Y1383565D01*
Y1390290D01*
X2606049D01*
Y1401500D01*
X2605855Y1402475D01*
X2605302Y1403302D01*
X2599568Y1409037D01*
X2600054Y1410210D01*
X2601040D01*
Y1419710D01*
X2602451D01*
Y1410000D01*
X2602645Y1409025D01*
X2603198Y1408198D01*
X2618198Y1393198D01*
X2619025Y1392645D01*
X2619960Y1392459D01*
Y1389210D01*
X2633040D01*
Y1399790D01*
X2619960D01*
Y1399790D01*
X2619150Y1399455D01*
X2607549Y1411056D01*
Y1419710D01*
X2610040D01*
Y1430290D01*
X2607549D01*
Y1435000D01*
Y1435000D01*
X2607355Y1435975D01*
X2606802Y1436802D01*
X2605976Y1437355D01*
X2605000Y1437549D01*
X2601040D01*
Y1439790D01*
X2587960D01*
Y1435000D01*
Y1429210D01*
X2596960D01*
Y1420790D01*
X2587960D01*
Y1410210D01*
X2592451D01*
Y1410000D01*
X2592645Y1409025D01*
X2593198Y1408198D01*
X2600335Y1401060D01*
X2599809Y1399790D01*
X2595770D01*
Y1394500D01*
X2594500D01*
Y1393230D01*
X2587960D01*
Y1389240D01*
X2587061Y1388313D01*
X2586522Y1388674D01*
X2585000Y1388976D01*
X2583478Y1388674D01*
X2582188Y1387812D01*
X2582013Y1387549D01*
X2578040D01*
Y1390290D01*
X2565540D01*
Y1395620D01*
X2561270D01*
Y1390080D01*
X2560000D01*
Y1388810D01*
X2554460D01*
Y1384540D01*
Y1374380D01*
X2562015D01*
X2562697Y1373698D01*
X2563524Y1373145D01*
X2564500Y1372951D01*
X2587960D01*
Y1370210D01*
X2601040D01*
Y1372951D01*
X2603444D01*
X2607451Y1368944D01*
Y1365540D01*
X2594380D01*
Y1357549D01*
X2590540D01*
Y1360620D01*
X2587549D01*
Y1362013D01*
X2587812Y1362188D01*
X2588674Y1363478D01*
X2588976Y1365000D01*
X2588674Y1366522D01*
X2587812Y1367812D01*
X2586522Y1368674D01*
X2585000Y1368976D01*
X2583478Y1368674D01*
X2582188Y1367812D01*
X2581326Y1366522D01*
X2581024Y1365000D01*
X2581326Y1363478D01*
X2582188Y1362188D01*
X2582451Y1362013D01*
Y1360620D01*
X2579460D01*
Y1347549D01*
X2578000D01*
X2577025Y1347355D01*
X2576198Y1346802D01*
X2575645Y1345975D01*
X2575451Y1345000D01*
Y1320000D01*
X2575645Y1319025D01*
X2576198Y1318198D01*
X2577025Y1317645D01*
X2578000Y1317451D01*
X2579460D01*
Y1315540D01*
X2579380D01*
Y1304460D01*
X2582559D01*
X2582645Y1304025D01*
X2583198Y1303198D01*
X2585210Y1301185D01*
Y1282710D01*
X2585210D01*
X2586111Y1281440D01*
X2586024Y1281000D01*
X2586326Y1279478D01*
X2586767Y1278819D01*
X2586088Y1277549D01*
X2570056D01*
X2569803Y1277802D01*
X2568976Y1278355D01*
X2568000Y1278549D01*
X2549000D01*
X2548024Y1278355D01*
X2547198Y1277802D01*
X2547144Y1277749D01*
X2546000Y1277976D01*
X2544478Y1277674D01*
X2543188Y1276812D01*
X2542326Y1275522D01*
X2542024Y1274000D01*
X2542326Y1272478D01*
X2543188Y1271188D01*
X2543827Y1270761D01*
X2543856Y1270003D01*
X2543000Y1268976D01*
X2541478Y1268674D01*
X2541310Y1268561D01*
X2541092Y1268587D01*
X2540040Y1269240D01*
Y1273710D01*
Y1276291D01*
X2534000D01*
Y1278770D01*
X2540040D01*
Y1281230D01*
X2534000D01*
Y1283770D01*
X2540040D01*
Y1286230D01*
X2534000D01*
Y1288710D01*
X2540040D01*
Y1294818D01*
X2541258Y1295157D01*
X2542025Y1294645D01*
X2543000Y1294451D01*
X2544380D01*
Y1289460D01*
X2564460D01*
Y1289380D01*
X2568730D01*
Y1294920D01*
X2570000D01*
Y1296190D01*
X2575540D01*
Y1299540D01*
Y1310620D01*
X2564460D01*
Y1310540D01*
X2561350D01*
Y1305000D01*
X2558810D01*
Y1310540D01*
X2544380D01*
Y1310540D01*
X2543110Y1310365D01*
X2542812Y1310812D01*
X2541853Y1311452D01*
X2541483Y1312878D01*
X2548056Y1319451D01*
X2552000D01*
X2552975Y1319645D01*
X2553802Y1320198D01*
X2556802Y1323198D01*
X2557355Y1324025D01*
X2557426Y1324380D01*
X2560540D01*
Y1334540D01*
Y1345620D01*
X2557549D01*
Y1355000D01*
X2557355Y1355975D01*
X2556802Y1356802D01*
X2555975Y1357355D01*
X2555000Y1357549D01*
X2552987D01*
X2552812Y1357812D01*
X2551522Y1358674D01*
X2550000Y1358976D01*
X2548819Y1358741D01*
X2547708Y1359373D01*
Y1360627D01*
X2548819Y1361259D01*
X2550000Y1361024D01*
X2551522Y1361326D01*
X2552812Y1362188D01*
X2552987Y1362451D01*
X2569013D01*
X2569188Y1362188D01*
X2570478Y1361326D01*
X2572000Y1361024D01*
X2573522Y1361326D01*
X2574812Y1362188D01*
X2575674Y1363478D01*
X2575976Y1365000D01*
X2575674Y1366522D01*
X2574812Y1367812D01*
X2573522Y1368674D01*
X2572000Y1368976D01*
X2570478Y1368674D01*
X2569188Y1367812D01*
X2569013Y1367549D01*
X2552987D01*
X2552812Y1367812D01*
X2551522Y1368674D01*
X2550000Y1368976D01*
X2548819Y1368741D01*
X2547549Y1369464D01*
Y1389460D01*
X2550620D01*
Y1400110D01*
X2552440D01*
Y1414490D01*
X2552440D01*
Y1415510D01*
X2552440D01*
Y1421430D01*
X2545000D01*
Y1422700D01*
X2543730D01*
Y1429890D01*
X2539639D01*
X2539549Y1430000D01*
Y1445000D01*
X2540000Y1445000D01*
Y1500000D01*
X3200000D01*
Y1445000D01*
D02*
G37*
G36*
X2332410Y1445000D02*
Y1443542D01*
X2329994D01*
Y1426462D01*
X2350074D01*
Y1443542D01*
X2347590D01*
Y1445000D01*
X2357410D01*
Y1443494D01*
X2354960D01*
Y1426414D01*
X2375040D01*
Y1443494D01*
X2372590D01*
Y1445000D01*
X2382410D01*
Y1443494D01*
X2379960D01*
Y1426414D01*
X2400040D01*
Y1443494D01*
X2397590D01*
Y1445000D01*
X2407410D01*
Y1443494D01*
X2404960D01*
Y1426414D01*
X2425040D01*
Y1443494D01*
X2422590D01*
Y1445000D01*
X2432410D01*
Y1443494D01*
X2429960D01*
Y1426414D01*
X2450040D01*
Y1443494D01*
X2447590D01*
Y1445000D01*
X2457410D01*
Y1443494D01*
X2454960D01*
Y1426414D01*
X2475040D01*
Y1443494D01*
X2472590D01*
Y1445000D01*
X2497451D01*
X2497451Y1445000D01*
Y1430788D01*
X2496553Y1429890D01*
X2492560Y1429890D01*
X2491290Y1429890D01*
X2487549D01*
Y1432013D01*
X2487812Y1432188D01*
X2488674Y1433478D01*
X2488976Y1435000D01*
X2488674Y1436522D01*
X2487812Y1437812D01*
X2486522Y1438674D01*
X2485000Y1438976D01*
X2483478Y1438674D01*
X2482188Y1437812D01*
X2481326Y1436522D01*
X2481024Y1435000D01*
X2481326Y1433478D01*
X2482188Y1432188D01*
X2482451Y1432013D01*
Y1429890D01*
X2477560D01*
Y1415760D01*
X2477560Y1415510D01*
Y1414490D01*
X2477560Y1414240D01*
Y1400110D01*
X2482451D01*
Y1386056D01*
X2475698Y1379302D01*
X2475145Y1378475D01*
X2474951Y1377500D01*
Y1364000D01*
X2455000D01*
Y1345620D01*
X2454460D01*
Y1332631D01*
X2453190Y1332246D01*
X2452812Y1332812D01*
X2451522Y1333674D01*
X2450000Y1333976D01*
X2448819Y1333741D01*
X2447549Y1334464D01*
Y1344380D01*
X2450540D01*
Y1354540D01*
Y1358810D01*
X2445000D01*
Y1360080D01*
X2443730D01*
Y1365620D01*
X2436270D01*
Y1360080D01*
X2433730D01*
Y1365620D01*
X2426270D01*
Y1360080D01*
X2425000D01*
Y1358810D01*
X2419460D01*
Y1354540D01*
Y1345620D01*
X2416270D01*
Y1340080D01*
X2413730D01*
Y1345620D01*
X2410540D01*
Y1354540D01*
Y1358810D01*
X2405000D01*
X2399460D01*
Y1352549D01*
X2397000D01*
X2396310Y1352412D01*
X2395387Y1352918D01*
X2395040Y1353224D01*
Y1359230D01*
X2374960D01*
Y1351460D01*
X2374960Y1351460D01*
Y1350540D01*
X2374960D01*
X2374960Y1350190D01*
Y1332460D01*
X2373698Y1332440D01*
X2365110D01*
X2364059Y1332969D01*
Y1363000D01*
X2363826Y1364171D01*
X2363163Y1365163D01*
X2362171Y1365826D01*
X2361000Y1366059D01*
X2354790D01*
Y1371540D01*
X2353059D01*
Y1380000D01*
X2352826Y1381171D01*
X2352163Y1382163D01*
X2351171Y1382826D01*
X2350000Y1383059D01*
X2323059D01*
Y1443000D01*
X2322914Y1443730D01*
X2323683Y1445000D01*
X2332410D01*
D02*
G37*
G36*
X2527451Y1400000D02*
X2527645Y1399025D01*
X2528198Y1398198D01*
X2529380Y1397015D01*
Y1389460D01*
X2542451D01*
Y1362629D01*
X2540540D01*
Y1365620D01*
X2516270D01*
Y1360080D01*
X2515000D01*
Y1358810D01*
X2509460D01*
Y1352618D01*
X2508738Y1352253D01*
X2507549Y1353030D01*
Y1359000D01*
X2507355Y1359975D01*
X2506802Y1360802D01*
X2505975Y1361355D01*
X2505000Y1361549D01*
X2500540D01*
Y1365620D01*
X2490540D01*
Y1368810D01*
X2485000D01*
Y1370080D01*
X2483730D01*
Y1375620D01*
X2481021D01*
X2480495Y1376890D01*
X2486802Y1383198D01*
X2487355Y1384025D01*
X2487549Y1385000D01*
Y1399212D01*
X2488447Y1400110D01*
X2492440Y1400110D01*
X2493710Y1400110D01*
X2497451D01*
Y1397987D01*
X2497188Y1397812D01*
X2496326Y1396522D01*
X2496024Y1395000D01*
X2496326Y1393478D01*
X2497188Y1392188D01*
X2498478Y1391326D01*
X2500000Y1391024D01*
X2501522Y1391326D01*
X2502812Y1392188D01*
X2503674Y1393478D01*
X2503976Y1395000D01*
X2503674Y1396522D01*
X2502812Y1397812D01*
X2502549Y1397987D01*
Y1399212D01*
X2503447Y1400110D01*
X2507440Y1400110D01*
X2508710Y1400110D01*
X2512451D01*
Y1397987D01*
X2512188Y1397812D01*
X2511326Y1396522D01*
X2511024Y1395000D01*
X2511326Y1393478D01*
X2512188Y1392188D01*
X2513478Y1391326D01*
X2515000Y1391024D01*
X2516522Y1391326D01*
X2517812Y1392188D01*
X2518674Y1393478D01*
X2518976Y1395000D01*
X2518674Y1396522D01*
X2517812Y1397812D01*
X2517549Y1397987D01*
Y1399212D01*
X2518447Y1400110D01*
X2522440Y1400110D01*
X2523710Y1400110D01*
X2527451D01*
Y1400000D01*
D02*
G37*
G36*
X2473710Y1283290D02*
X2471400D01*
Y1279000D01*
X2433049D01*
Y1283290D01*
X2432040D01*
Y1292960D01*
X2458208D01*
X2459161Y1291690D01*
X2459024Y1291000D01*
X2459326Y1289478D01*
X2460188Y1288188D01*
X2461478Y1287326D01*
X2463000Y1287024D01*
X2464522Y1287326D01*
X2465812Y1288188D01*
X2466674Y1289478D01*
X2466976Y1291000D01*
X2466839Y1291690D01*
X2467792Y1292960D01*
X2473710D01*
Y1283290D01*
D02*
G37*
G36*
X2649020Y1282710D02*
X2651451D01*
Y1281000D01*
X2651645Y1280025D01*
X2652198Y1279198D01*
X2652576Y1278819D01*
X2652050Y1277549D01*
X2593912D01*
X2593233Y1278819D01*
X2593674Y1279478D01*
X2593976Y1281000D01*
X2593889Y1281440D01*
X2594931Y1282710D01*
X2646480D01*
Y1292500D01*
X2649020D01*
Y1282710D01*
D02*
G37*
G36*
X2567000Y1267451D02*
X2592050D01*
X2592576Y1266181D01*
X2578944Y1252549D01*
X2576987D01*
X2576812Y1252812D01*
X2575522Y1253674D01*
X2574000Y1253976D01*
X2572478Y1253674D01*
X2571293Y1252881D01*
X2570890Y1252732D01*
X2570110D01*
X2569707Y1252881D01*
X2568522Y1253674D01*
X2567000Y1253976D01*
X2566770Y1253931D01*
X2566476Y1255145D01*
X2567303Y1255698D01*
X2567303Y1255698D01*
X2569056Y1257451D01*
X2572013D01*
X2572188Y1257188D01*
X2573478Y1256326D01*
X2575000Y1256024D01*
X2576522Y1256326D01*
X2577812Y1257188D01*
X2578674Y1258478D01*
X2578976Y1260000D01*
X2578674Y1261522D01*
X2577812Y1262812D01*
X2576522Y1263674D01*
X2575000Y1263976D01*
X2573478Y1263674D01*
X2572188Y1262812D01*
X2572013Y1262549D01*
X2568000D01*
X2567025Y1262355D01*
X2566890Y1262265D01*
X2565620Y1262944D01*
Y1263730D01*
X2560080D01*
Y1266270D01*
X2565620D01*
Y1266504D01*
X2565681Y1266623D01*
X2566890Y1267473D01*
X2567000Y1267451D01*
D02*
G37*
G36*
X2467188Y1242188D02*
X2468478Y1241326D01*
X2470000Y1241024D01*
X2471522Y1241326D01*
X2472440Y1241940D01*
X2473622Y1241457D01*
X2473710Y1241377D01*
Y1237040D01*
X2463710D01*
Y1224960D01*
X2465066D01*
Y1216672D01*
X2463198Y1214803D01*
X2462645Y1213976D01*
X2462451Y1213001D01*
Y1210620D01*
X2459460D01*
Y1207506D01*
X2459105Y1207435D01*
X2458278Y1206882D01*
X2458198Y1206802D01*
X2458198Y1206802D01*
X2455310Y1203915D01*
X2455000Y1203976D01*
X2453478Y1203674D01*
X2452188Y1202812D01*
X2451326Y1201522D01*
X2451024Y1200000D01*
X2451326Y1198478D01*
X2452188Y1197188D01*
X2453129Y1196560D01*
X2452744Y1195290D01*
X2448315D01*
X2447549Y1196056D01*
Y1203944D01*
X2454690Y1211085D01*
X2455000Y1211024D01*
X2456522Y1211326D01*
X2457812Y1212188D01*
X2458674Y1213478D01*
X2458976Y1215000D01*
X2458674Y1216522D01*
X2457812Y1217812D01*
X2456522Y1218674D01*
X2455065Y1218963D01*
X2454705Y1219083D01*
X2454084Y1219705D01*
X2453963Y1220065D01*
X2453674Y1221522D01*
X2452812Y1222812D01*
X2451522Y1223674D01*
X2451440Y1223690D01*
X2451565Y1224960D01*
X2461290D01*
Y1237040D01*
X2438710D01*
Y1224960D01*
X2448435D01*
X2448560Y1223690D01*
X2448478Y1223674D01*
X2447188Y1222812D01*
X2446326Y1221522D01*
X2446024Y1220000D01*
X2446085Y1219690D01*
X2440310Y1213915D01*
X2440000Y1213976D01*
X2438478Y1213674D01*
X2437188Y1212812D01*
X2436326Y1211522D01*
X2436024Y1210000D01*
X2436326Y1208478D01*
X2437188Y1207188D01*
X2438478Y1206326D01*
X2440000Y1206024D01*
X2441460Y1206314D01*
X2441780Y1206114D01*
X2442547Y1205484D01*
X2442451Y1205000D01*
Y1195000D01*
X2442645Y1194025D01*
X2443198Y1193198D01*
X2444960Y1191435D01*
Y1184710D01*
X2444098Y1183797D01*
X2443478Y1183674D01*
X2442188Y1182812D01*
X2441326Y1181522D01*
X2441024Y1180000D01*
X2441326Y1178478D01*
X2442188Y1177188D01*
X2443478Y1176326D01*
X2445000Y1176024D01*
X2445310Y1176085D01*
X2447451Y1173944D01*
Y1170040D01*
X2440414D01*
Y1149960D01*
X2439314Y1149549D01*
X2430686D01*
X2429586Y1149960D01*
X2429586Y1150819D01*
Y1158730D01*
X2412506D01*
Y1150819D01*
X2412506Y1149960D01*
X2411406Y1149549D01*
X2338644D01*
X2338259Y1150819D01*
X2338812Y1151188D01*
X2339655Y1152451D01*
X2382013D01*
X2382188Y1152188D01*
X2383478Y1151326D01*
X2385000Y1151024D01*
X2386522Y1151326D01*
X2387812Y1152188D01*
X2388674Y1153478D01*
X2388976Y1155000D01*
X2388674Y1156522D01*
X2387812Y1157812D01*
X2386522Y1158674D01*
X2385000Y1158976D01*
X2383478Y1158674D01*
X2382188Y1157812D01*
X2382013Y1157549D01*
X2354790D01*
Y1171540D01*
X2345210D01*
X2345059Y1172747D01*
Y1177253D01*
X2345210Y1178460D01*
X2354790D01*
Y1182451D01*
X2360000D01*
X2360975Y1182645D01*
X2361802Y1183198D01*
X2362355Y1184025D01*
X2362549Y1185000D01*
Y1217451D01*
X2387000D01*
X2388210Y1216397D01*
Y1203460D01*
X2397790D01*
Y1207451D01*
X2402560D01*
Y1200110D01*
X2414846D01*
X2415332Y1198937D01*
X2412015Y1195620D01*
X2404460D01*
Y1192629D01*
X2400080D01*
X2399104Y1192435D01*
X2398278Y1191882D01*
X2398198Y1191802D01*
X2397645Y1190975D01*
X2397451Y1190000D01*
Y1172987D01*
X2397188Y1172812D01*
X2396326Y1171522D01*
X2396024Y1170000D01*
X2396326Y1168478D01*
X2397188Y1167188D01*
X2398478Y1166326D01*
X2400000Y1166024D01*
X2401522Y1166326D01*
X2402812Y1167188D01*
X2403674Y1168478D01*
X2403976Y1170000D01*
X2403674Y1171522D01*
X2402812Y1172812D01*
X2402549Y1172987D01*
Y1187531D01*
X2404460D01*
Y1181190D01*
X2415540D01*
Y1184540D01*
Y1191935D01*
X2420690Y1197085D01*
X2421960Y1196568D01*
Y1194210D01*
X2435040D01*
Y1204790D01*
X2421960D01*
Y1202549D01*
X2420000D01*
X2419025Y1202355D01*
X2418710Y1202145D01*
X2417440Y1202780D01*
Y1207451D01*
X2420000D01*
X2420975Y1207645D01*
X2421802Y1208198D01*
X2434302Y1220698D01*
X2434855Y1221525D01*
X2435049Y1222500D01*
Y1224960D01*
X2436290D01*
Y1237040D01*
X2432040D01*
Y1240760D01*
X2433310Y1241439D01*
X2433478Y1241326D01*
X2435000Y1241024D01*
X2436522Y1241326D01*
X2437812Y1242188D01*
X2437987Y1242451D01*
X2467013D01*
X2467188Y1242188D01*
D02*
G37*
G36*
X2481270Y1246710D02*
X2503710D01*
Y1224960D01*
X2503710D01*
X2504460Y1224046D01*
X2504451Y1224000D01*
Y1216056D01*
X2501198Y1212802D01*
X2500645Y1211975D01*
X2500451Y1211000D01*
Y1210620D01*
X2497694D01*
X2497646Y1210656D01*
X2497555Y1210839D01*
X2498263Y1212275D01*
X2498522Y1212326D01*
X2499812Y1213188D01*
X2500674Y1214478D01*
X2500976Y1216000D01*
X2500674Y1217522D01*
X2500503Y1217777D01*
X2500338Y1224050D01*
X2501224Y1224960D01*
X2501290D01*
Y1245040D01*
X2483710D01*
Y1224960D01*
X2483710D01*
X2484460Y1224046D01*
X2484451Y1224000D01*
Y1217987D01*
X2484188Y1217812D01*
X2483326Y1216522D01*
X2483024Y1215000D01*
X2483326Y1213478D01*
X2484188Y1212188D01*
X2483868Y1210932D01*
X2483690Y1210763D01*
X2483232Y1210620D01*
X2480049D01*
Y1224960D01*
X2481290D01*
Y1245040D01*
X2475204D01*
X2475014Y1245440D01*
X2475819Y1246710D01*
X2478730D01*
Y1265000D01*
X2481270D01*
Y1246710D01*
D02*
G37*
G36*
X2733198Y1243198D02*
X2734025Y1242645D01*
X2735000Y1242451D01*
X2770210D01*
Y1237770D01*
X2775500D01*
X2780790D01*
Y1242451D01*
X2789210D01*
Y1229960D01*
X2799790D01*
Y1242451D01*
X2800000D01*
X2800976Y1242645D01*
X2801802Y1243198D01*
X2803190Y1244585D01*
X2804460Y1244059D01*
Y1234540D01*
Y1224380D01*
X2811996D01*
X2812451Y1223932D01*
Y1209464D01*
X2811181Y1208742D01*
X2810065Y1208963D01*
X2809705Y1209083D01*
X2809084Y1209705D01*
X2808963Y1210065D01*
X2808674Y1211522D01*
X2807812Y1212812D01*
X2806522Y1213674D01*
X2805000Y1213976D01*
X2803478Y1213674D01*
X2802188Y1212812D01*
X2802066Y1212629D01*
X2800540D01*
Y1215620D01*
X2790290D01*
Y1220040D01*
X2779710D01*
Y1217491D01*
X2779024Y1217355D01*
X2778198Y1216802D01*
X2777015Y1215620D01*
X2769460D01*
Y1205941D01*
X2768190Y1205415D01*
X2762549Y1211056D01*
Y1219960D01*
X2767540D01*
Y1236040D01*
X2742460D01*
Y1219960D01*
X2757451D01*
Y1210000D01*
X2757645Y1209025D01*
X2758198Y1208198D01*
X2765182Y1201213D01*
X2764696Y1200040D01*
X2742460D01*
Y1183960D01*
X2757451D01*
Y1180000D01*
X2757645Y1179025D01*
X2758198Y1178198D01*
X2759025Y1177645D01*
X2760000Y1177451D01*
X2772371D01*
Y1175000D01*
Y1155540D01*
X2769380D01*
Y1143059D01*
X2742590D01*
Y1155000D01*
X2742393Y1155991D01*
X2741831Y1156831D01*
X2740991Y1157393D01*
X2740000Y1157590D01*
X2723569D01*
Y1159460D01*
X2727040D01*
Y1181540D01*
X2722549D01*
Y1183944D01*
X2726802Y1188198D01*
X2727355Y1189025D01*
X2727442Y1189460D01*
X2733810D01*
Y1195000D01*
Y1200540D01*
X2727469D01*
Y1209460D01*
X2733810D01*
Y1215000D01*
Y1220540D01*
X2727469D01*
Y1224598D01*
X2727549Y1225000D01*
X2727469Y1225402D01*
Y1229460D01*
X2733810D01*
Y1235000D01*
X2735080D01*
D01*
X2733810D01*
Y1240540D01*
X2719380D01*
Y1229460D01*
X2722371D01*
Y1227549D01*
X2712629D01*
Y1229460D01*
X2715620D01*
Y1240540D01*
X2712629D01*
Y1244920D01*
X2712435Y1245895D01*
X2711882Y1246722D01*
X2711802Y1246802D01*
X2710976Y1247355D01*
X2710000Y1247549D01*
X2707987D01*
X2707812Y1247812D01*
X2706522Y1248674D01*
X2705000Y1248976D01*
X2703478Y1248674D01*
X2702188Y1247812D01*
X2701326Y1246522D01*
X2701024Y1245000D01*
X2701326Y1243478D01*
X2702188Y1242188D01*
X2702755Y1241810D01*
X2702369Y1240540D01*
X2701190D01*
Y1235000D01*
Y1229460D01*
X2707531D01*
Y1220540D01*
X2701190D01*
Y1215000D01*
Y1209460D01*
X2707531D01*
Y1205402D01*
X2707451Y1205000D01*
X2707531Y1204598D01*
Y1200540D01*
X2701190D01*
Y1195000D01*
X2699920D01*
Y1193730D01*
X2694380D01*
Y1190049D01*
X2694380Y1189460D01*
X2693445Y1188651D01*
X2692188Y1187812D01*
X2691326Y1186522D01*
X2691024Y1185000D01*
X2691326Y1183478D01*
X2691773Y1182810D01*
X2691094Y1181540D01*
X2689960D01*
Y1159460D01*
X2700130D01*
X2700475Y1158860D01*
X2700209Y1158149D01*
X2699774Y1157545D01*
X2699009Y1157393D01*
X2698169Y1156831D01*
X2697607Y1155991D01*
X2697410Y1155000D01*
Y1100000D01*
X2697607Y1099009D01*
X2697734Y1098819D01*
X2697055Y1097549D01*
X2612987D01*
X2612812Y1097812D01*
X2611522Y1098674D01*
X2610000Y1098976D01*
X2608478Y1098674D01*
X2607188Y1097812D01*
X2606326Y1096522D01*
X2606024Y1095000D01*
X2606259Y1093819D01*
X2605536Y1092549D01*
X2547549D01*
Y1095110D01*
X2552440D01*
Y1107216D01*
X2553613Y1107702D01*
X2554460Y1106855D01*
Y1099380D01*
X2568730D01*
Y1104920D01*
X2571270D01*
Y1099380D01*
X2578730D01*
Y1104920D01*
X2580000D01*
Y1106190D01*
X2585540D01*
Y1109540D01*
Y1120620D01*
X2582426D01*
X2582355Y1120975D01*
X2581802Y1121802D01*
X2579435Y1124170D01*
X2579504Y1125716D01*
X2579705Y1125917D01*
X2580065Y1126037D01*
X2581522Y1126326D01*
X2582812Y1127188D01*
X2583674Y1128478D01*
X2583976Y1130000D01*
X2583864Y1130568D01*
X2584049Y1131500D01*
Y1132460D01*
X2598540D01*
Y1154040D01*
X2597549D01*
Y1169999D01*
X2597549Y1170000D01*
Y1173944D01*
X2605008Y1181403D01*
X2606178Y1180777D01*
X2606024Y1180000D01*
X2606326Y1178478D01*
X2607188Y1177188D01*
X2608478Y1176326D01*
X2610000Y1176024D01*
X2610310Y1176085D01*
X2616403Y1169992D01*
X2615777Y1168822D01*
X2615000Y1168976D01*
X2613478Y1168674D01*
X2612188Y1167812D01*
X2611326Y1166522D01*
X2611037Y1165065D01*
X2610916Y1164705D01*
X2610295Y1164083D01*
X2609935Y1163963D01*
X2608478Y1163674D01*
X2607188Y1162812D01*
X2606326Y1161522D01*
X2606024Y1160000D01*
X2606326Y1158478D01*
X2607188Y1157188D01*
X2607451Y1157013D01*
Y1122987D01*
X2607188Y1122812D01*
X2606326Y1121522D01*
X2606024Y1120000D01*
X2606326Y1118478D01*
X2607188Y1117188D01*
X2608478Y1116326D01*
X2610000Y1116024D01*
X2611522Y1116326D01*
X2612812Y1117188D01*
X2613674Y1118478D01*
X2613976Y1120000D01*
X2613674Y1121522D01*
X2612812Y1122812D01*
X2612549Y1122987D01*
Y1125536D01*
X2613819Y1126258D01*
X2615000Y1126024D01*
X2616522Y1126326D01*
X2617812Y1127188D01*
X2618674Y1128478D01*
X2618976Y1130000D01*
X2618674Y1131522D01*
X2617812Y1132812D01*
X2617549Y1132987D01*
Y1162013D01*
X2617812Y1162188D01*
X2618674Y1163478D01*
X2618976Y1165000D01*
X2618686Y1166460D01*
X2618812Y1166750D01*
X2619516Y1167547D01*
X2620000Y1167451D01*
X2625444D01*
X2634710Y1158185D01*
Y1149960D01*
X2645290D01*
Y1163040D01*
X2637065D01*
X2628303Y1171802D01*
X2627476Y1172355D01*
X2626500Y1172549D01*
X2621400D01*
X2620963Y1173110D01*
X2621584Y1174380D01*
X2627540D01*
Y1177451D01*
X2629460D01*
Y1174380D01*
X2639915D01*
X2640540Y1174380D01*
Y1174380D01*
X2641110Y1174560D01*
X2641110Y1174560D01*
X2655240D01*
X2655490Y1174560D01*
X2656510D01*
X2656760Y1174560D01*
X2662519D01*
X2662904Y1173290D01*
X2662188Y1172812D01*
X2661326Y1171522D01*
X2661024Y1170000D01*
X2661326Y1168478D01*
X2662188Y1167188D01*
X2662451Y1167013D01*
Y1127987D01*
X2662188Y1127812D01*
X2661326Y1126522D01*
X2661024Y1125000D01*
X2661326Y1123478D01*
X2662188Y1122188D01*
X2663478Y1121326D01*
X2665000Y1121024D01*
X2666522Y1121326D01*
X2667812Y1122188D01*
X2668674Y1123478D01*
X2668976Y1125000D01*
X2668674Y1126522D01*
X2667812Y1127812D01*
X2667549Y1127987D01*
Y1167013D01*
X2667812Y1167188D01*
X2668674Y1168478D01*
X2668976Y1170000D01*
X2668674Y1171522D01*
X2667812Y1172812D01*
X2667096Y1173290D01*
X2667481Y1174560D01*
X2670890D01*
Y1186285D01*
X2672296Y1187691D01*
X2673198Y1186802D01*
X2672645Y1185975D01*
X2672451Y1185000D01*
Y1132987D01*
X2672188Y1132812D01*
X2671326Y1131522D01*
X2671024Y1130000D01*
X2671326Y1128478D01*
X2672188Y1127188D01*
X2673478Y1126326D01*
X2675000Y1126024D01*
X2676522Y1126326D01*
X2677812Y1127188D01*
X2678674Y1128478D01*
X2678976Y1130000D01*
X2678674Y1131522D01*
X2677812Y1132812D01*
X2677549Y1132987D01*
Y1183944D01*
X2680008Y1186403D01*
X2681178Y1185777D01*
X2681024Y1185000D01*
X2681326Y1183478D01*
X2682188Y1182188D01*
X2682451Y1182013D01*
Y1127987D01*
X2682188Y1127812D01*
X2681326Y1126522D01*
X2681024Y1125000D01*
X2681326Y1123478D01*
X2682188Y1122188D01*
X2683478Y1121326D01*
X2685000Y1121024D01*
X2686522Y1121326D01*
X2687812Y1122188D01*
X2688674Y1123478D01*
X2688976Y1125000D01*
X2688674Y1126522D01*
X2687812Y1127812D01*
X2687549Y1127987D01*
Y1182013D01*
X2687812Y1182188D01*
X2688674Y1183478D01*
X2688976Y1185000D01*
X2688674Y1186522D01*
X2687812Y1187812D01*
X2686522Y1188674D01*
X2685000Y1188976D01*
X2684223Y1188822D01*
X2683597Y1189992D01*
X2684690Y1191085D01*
X2685000Y1191024D01*
X2686522Y1191326D01*
X2687812Y1192188D01*
X2688674Y1193478D01*
X2688976Y1195000D01*
X2688674Y1196522D01*
X2687812Y1197812D01*
X2686522Y1198674D01*
X2685000Y1198976D01*
X2683478Y1198674D01*
X2682188Y1197812D01*
X2681326Y1196522D01*
X2681024Y1195000D01*
X2681085Y1194690D01*
X2677704Y1191309D01*
X2676802Y1192198D01*
X2677355Y1193025D01*
X2677549Y1194000D01*
Y1202013D01*
X2677812Y1202188D01*
X2678674Y1203478D01*
X2678976Y1205000D01*
X2678674Y1206522D01*
X2677812Y1207812D01*
X2676522Y1208674D01*
X2675000Y1208976D01*
X2673478Y1208674D01*
X2672188Y1207812D01*
X2671810Y1207246D01*
X2670540Y1207631D01*
Y1213810D01*
X2665000D01*
X2659460D01*
Y1209540D01*
Y1199380D01*
X2662451D01*
Y1197987D01*
X2662188Y1197812D01*
X2662013Y1197549D01*
X2646400D01*
X2645963Y1198110D01*
X2646540Y1199380D01*
X2646540D01*
Y1211094D01*
X2647810Y1211773D01*
X2648478Y1211326D01*
X2650000Y1211024D01*
X2651522Y1211326D01*
X2652812Y1212188D01*
X2653674Y1213478D01*
X2653963Y1214935D01*
X2654084Y1215295D01*
X2654705Y1215917D01*
X2655065Y1216037D01*
X2656522Y1216326D01*
X2657812Y1217188D01*
X2658190Y1217754D01*
X2659460Y1217369D01*
Y1216350D01*
X2663730D01*
Y1220620D01*
X2660049D01*
X2659460Y1220620D01*
X2658651Y1221555D01*
X2657812Y1222812D01*
X2656749Y1223522D01*
Y1228210D01*
X2659430D01*
Y1238000D01*
Y1247790D01*
X2604625D01*
X2603789Y1249060D01*
X2603976Y1250000D01*
X2603915Y1250310D01*
X2606056Y1252451D01*
X2723944D01*
X2733198Y1243198D01*
D02*
G37*
G36*
X2576270Y1185960D02*
X2578951D01*
Y1183768D01*
X2578478Y1183674D01*
X2577188Y1182812D01*
X2576326Y1181522D01*
X2576024Y1180000D01*
X2576259Y1178819D01*
X2575536Y1177549D01*
X2562000D01*
X2561024Y1177355D01*
X2560197Y1176802D01*
X2559645Y1175975D01*
X2559451Y1175000D01*
Y1160049D01*
X2555500D01*
X2554525Y1159855D01*
X2553698Y1159302D01*
X2553145Y1158475D01*
X2552951Y1157500D01*
Y1154040D01*
X2551460D01*
Y1132549D01*
X2549464D01*
X2548741Y1133819D01*
X2548976Y1135000D01*
X2548674Y1136522D01*
X2547812Y1137812D01*
X2546522Y1138674D01*
X2545000Y1138976D01*
X2544690Y1138915D01*
X2542683Y1140922D01*
X2542808Y1142186D01*
X2542812Y1142188D01*
X2543674Y1143478D01*
X2543963Y1144935D01*
X2544084Y1145295D01*
X2544705Y1145917D01*
X2545065Y1146037D01*
X2546522Y1146326D01*
X2547812Y1147188D01*
X2548674Y1148478D01*
X2548976Y1150000D01*
X2548674Y1151522D01*
X2547812Y1152812D01*
X2546522Y1153674D01*
X2545065Y1153963D01*
X2544705Y1154084D01*
X2543945Y1154843D01*
X2543976Y1155000D01*
X2543945Y1155157D01*
X2544705Y1155916D01*
X2545065Y1156037D01*
X2546522Y1156326D01*
X2547812Y1157188D01*
X2548674Y1158478D01*
X2548976Y1160000D01*
X2548674Y1161522D01*
X2547812Y1162812D01*
X2546522Y1163674D01*
X2545065Y1163963D01*
X2544705Y1164083D01*
X2544084Y1164705D01*
X2543963Y1165065D01*
X2543674Y1166522D01*
X2542812Y1167812D01*
X2541522Y1168674D01*
X2540000Y1168976D01*
X2538478Y1168674D01*
X2537188Y1167812D01*
X2535856Y1167749D01*
X2532549Y1171056D01*
Y1180000D01*
X2532355Y1180975D01*
X2531802Y1181802D01*
X2525398Y1188207D01*
X2525884Y1189380D01*
X2528730D01*
Y1194920D01*
X2531270D01*
Y1189380D01*
X2534951D01*
X2535540Y1189380D01*
X2536349Y1188445D01*
X2537188Y1187188D01*
X2537451Y1187013D01*
Y1180000D01*
X2537645Y1179025D01*
X2538198Y1178198D01*
X2541085Y1175310D01*
X2541024Y1175000D01*
X2541326Y1173478D01*
X2542188Y1172188D01*
X2543478Y1171326D01*
X2545000Y1171024D01*
X2546522Y1171326D01*
X2547812Y1172188D01*
X2548674Y1173478D01*
X2548976Y1175000D01*
X2548674Y1176522D01*
X2547812Y1177812D01*
X2546522Y1178674D01*
X2545000Y1178976D01*
X2544690Y1178915D01*
X2542549Y1181056D01*
Y1182521D01*
X2543819Y1182764D01*
X2544198Y1182198D01*
X2545025Y1181645D01*
X2546000Y1181451D01*
X2569000D01*
X2569976Y1181645D01*
X2570802Y1182198D01*
X2571355Y1183025D01*
X2571549Y1184000D01*
Y1185960D01*
X2573730D01*
Y1196750D01*
X2576270D01*
Y1185960D01*
D02*
G37*
G36*
X2619151Y1217515D02*
Y1195620D01*
X2616460D01*
Y1184540D01*
Y1178804D01*
X2615287Y1178318D01*
X2613915Y1179690D01*
X2613976Y1180000D01*
X2613674Y1181522D01*
X2612812Y1182812D01*
X2611522Y1183674D01*
X2610000Y1183976D01*
X2608540Y1183686D01*
X2608220Y1183885D01*
X2607453Y1184516D01*
X2607549Y1185000D01*
Y1203944D01*
X2616802Y1213198D01*
X2617355Y1214025D01*
X2617549Y1215000D01*
Y1217195D01*
X2618819Y1217791D01*
X2619151Y1217515D01*
D02*
G37*
G36*
X2503000Y1195024D02*
X2503478Y1195119D01*
X2504460Y1194313D01*
Y1189380D01*
X2508730D01*
Y1194920D01*
X2511270D01*
Y1189380D01*
X2515297D01*
X2516103Y1188398D01*
X2516024Y1188000D01*
X2516326Y1186478D01*
X2517188Y1185188D01*
X2518478Y1184326D01*
X2520000Y1184024D01*
X2521522Y1184326D01*
X2521850Y1184546D01*
X2527451Y1178944D01*
Y1170000D01*
X2527547Y1169516D01*
X2526780Y1168885D01*
X2526460Y1168686D01*
X2525000Y1168976D01*
X2523478Y1168674D01*
X2522188Y1167812D01*
X2522013Y1167549D01*
X2481056D01*
X2478597Y1170008D01*
X2479223Y1171178D01*
X2480000Y1171024D01*
X2481522Y1171326D01*
X2482812Y1172188D01*
X2483674Y1173478D01*
X2483976Y1175000D01*
X2483686Y1176460D01*
X2483886Y1176780D01*
X2484516Y1177547D01*
X2485000Y1177451D01*
X2512013D01*
X2512188Y1177188D01*
X2513478Y1176326D01*
X2515000Y1176024D01*
X2516522Y1176326D01*
X2517812Y1177188D01*
X2518674Y1178478D01*
X2518976Y1180000D01*
X2518674Y1181522D01*
X2517812Y1182812D01*
X2516522Y1183674D01*
X2515000Y1183976D01*
X2513478Y1183674D01*
X2512188Y1182812D01*
X2512013Y1182549D01*
X2504464D01*
X2503741Y1183819D01*
X2503976Y1185000D01*
X2503674Y1186522D01*
X2502812Y1187812D01*
X2501522Y1188674D01*
X2501518Y1188674D01*
X2500540Y1189380D01*
X2500540Y1190065D01*
Y1194542D01*
X2501810Y1195260D01*
X2503000Y1195024D01*
D02*
G37*
G36*
X2478198Y1133198D02*
X2479025Y1132645D01*
X2480000Y1132451D01*
X2495536D01*
X2496259Y1131181D01*
X2496024Y1130000D01*
X2496326Y1128478D01*
X2497188Y1127188D01*
X2497451Y1127013D01*
Y1124890D01*
X2492560D01*
Y1110510D01*
X2492560D01*
Y1109490D01*
X2492560D01*
Y1095110D01*
X2497451D01*
Y1092549D01*
X2487987D01*
X2487812Y1092812D01*
X2486522Y1093674D01*
X2485000Y1093976D01*
X2483478Y1093674D01*
X2482188Y1092812D01*
X2481326Y1091522D01*
X2481024Y1090000D01*
X2475040D01*
Y1099586D01*
X2454960D01*
Y1090000D01*
X2450007D01*
Y1099538D01*
X2429927D01*
Y1090000D01*
X2425007D01*
Y1099538D01*
X2404927D01*
Y1090000D01*
X2400007D01*
Y1099538D01*
X2379928D01*
Y1090000D01*
X2375008D01*
Y1099538D01*
X2354928D01*
Y1090000D01*
X2350008D01*
Y1099538D01*
X2329928D01*
Y1090000D01*
X2317590D01*
Y1116000D01*
X2317393Y1116991D01*
X2316831Y1117831D01*
X2315991Y1118393D01*
X2315000Y1118590D01*
X2308854D01*
X2308368Y1119763D01*
X2329056Y1140451D01*
X2470944D01*
X2478198Y1133198D01*
D02*
G37*
%LPC*%
G36*
X2893540Y1450540D02*
X2872300D01*
Y1448569D01*
X2851679D01*
X2851522Y1448674D01*
X2850000Y1448976D01*
X2848478Y1448674D01*
X2848321Y1448569D01*
X2761679D01*
X2761522Y1448674D01*
X2760000Y1448976D01*
X2758478Y1448674D01*
X2757188Y1447812D01*
X2756326Y1446522D01*
X2756024Y1445000D01*
Y1445000D01*
X2756326Y1443478D01*
X2757188Y1442188D01*
X2758478Y1441326D01*
X2760000Y1441024D01*
X2761522Y1441326D01*
X2761679Y1441431D01*
X2848321D01*
X2848478Y1441326D01*
X2850000Y1441024D01*
X2851522Y1441326D01*
X2851679Y1441431D01*
X2856431D01*
Y1435000D01*
Y1405620D01*
X2854460D01*
Y1394540D01*
Y1384380D01*
X2856431D01*
Y1382700D01*
X2856703Y1381334D01*
X2857477Y1380177D01*
X2858634Y1379403D01*
X2860000Y1379131D01*
X2872560D01*
Y1375760D01*
X2872560Y1375510D01*
Y1374490D01*
X2872560Y1374240D01*
Y1368570D01*
X2880000D01*
Y1366030D01*
X2872560D01*
Y1361160D01*
X2872560Y1360110D01*
X2872560Y1358840D01*
Y1353970D01*
X2880000D01*
Y1351430D01*
X2872560D01*
Y1345760D01*
X2872560Y1345510D01*
Y1344490D01*
X2872560Y1344240D01*
Y1330110D01*
X2872560D01*
Y1329890D01*
X2872560D01*
Y1315760D01*
X2872560Y1315510D01*
Y1314490D01*
X2872560Y1314240D01*
Y1308570D01*
X2880000D01*
Y1306030D01*
X2872560D01*
Y1301160D01*
X2872560Y1300110D01*
X2872560Y1298840D01*
Y1293970D01*
X2880000D01*
Y1291430D01*
X2872560D01*
Y1285760D01*
X2872560Y1285510D01*
Y1284490D01*
X2872560Y1284240D01*
Y1270110D01*
X2872560D01*
Y1269890D01*
X2872560D01*
Y1255760D01*
X2872560Y1255510D01*
Y1254490D01*
X2872560Y1254240D01*
Y1248570D01*
X2880000D01*
Y1246030D01*
X2872560D01*
Y1241160D01*
X2872560Y1240110D01*
X2872560Y1238840D01*
Y1233970D01*
X2880000D01*
Y1231430D01*
X2872560D01*
Y1225760D01*
X2872560Y1225510D01*
Y1224490D01*
X2872560Y1224240D01*
Y1210110D01*
X2872560D01*
Y1209890D01*
X2872560D01*
Y1195760D01*
X2872560Y1195510D01*
Y1194490D01*
X2872560Y1194240D01*
Y1188570D01*
X2880000D01*
Y1186030D01*
X2872560D01*
Y1181160D01*
X2872560Y1180110D01*
X2872560Y1178840D01*
Y1173970D01*
X2880000D01*
Y1171430D01*
X2872560D01*
Y1165760D01*
X2872560Y1165510D01*
Y1164490D01*
X2872560Y1164240D01*
Y1150110D01*
X2872560D01*
Y1149890D01*
X2872560D01*
Y1135760D01*
X2872560Y1135510D01*
Y1134490D01*
X2872560Y1134240D01*
Y1128570D01*
X2880000D01*
Y1127300D01*
X2881270D01*
Y1120110D01*
X2886290D01*
X2887440Y1120110D01*
X2888710Y1120110D01*
X2893730D01*
Y1127300D01*
X2896270D01*
Y1120110D01*
X2901290D01*
X2902440Y1120110D01*
X2903710Y1120110D01*
X2908730D01*
Y1127300D01*
X2911270D01*
Y1120110D01*
X2916290D01*
X2917440Y1120110D01*
X2918710Y1120110D01*
X2923730D01*
Y1127300D01*
X2925000D01*
Y1128570D01*
X2932440D01*
Y1134240D01*
X2932440Y1134490D01*
Y1135510D01*
X2932440Y1135760D01*
Y1139131D01*
X2935000D01*
X2936366Y1139403D01*
X2937523Y1140177D01*
X2938297Y1141334D01*
X2938569Y1142700D01*
Y1157000D01*
X2938569Y1157000D01*
Y1238321D01*
X2938674Y1238478D01*
X2938868Y1239454D01*
X2940107Y1240055D01*
X2940185Y1240059D01*
X2940410Y1239891D01*
Y1125000D01*
X2940608Y1124009D01*
X2941169Y1123169D01*
X2942009Y1122607D01*
X2943000Y1122410D01*
X2978000D01*
X2978991Y1122607D01*
X2979831Y1123169D01*
X2980393Y1124009D01*
X2980590Y1125000D01*
Y1243000D01*
X2980393Y1243991D01*
X2980293Y1244140D01*
X2980972Y1245410D01*
X2995410D01*
Y1178000D01*
X2995608Y1177009D01*
X2996169Y1176169D01*
X2997009Y1175607D01*
X2998000Y1175410D01*
X3017410D01*
Y1132000D01*
X3017607Y1131009D01*
X3018169Y1130169D01*
X3019009Y1129607D01*
X3020000Y1129410D01*
X3073000D01*
X3073991Y1129607D01*
X3074832Y1130169D01*
X3075393Y1131009D01*
X3075590Y1132000D01*
Y1132294D01*
X3076860Y1132680D01*
X3077188Y1132188D01*
X3078478Y1131326D01*
X3080000Y1131024D01*
X3081522Y1131326D01*
X3082812Y1132188D01*
X3083674Y1133478D01*
X3083976Y1135000D01*
X3083674Y1136522D01*
X3082812Y1137812D01*
X3082549Y1137987D01*
Y1235536D01*
X3083819Y1236259D01*
X3085000Y1236024D01*
X3086522Y1236326D01*
X3087812Y1237188D01*
X3088674Y1238478D01*
X3088976Y1240000D01*
X3088674Y1241522D01*
X3087812Y1242812D01*
X3087549Y1242987D01*
Y1249460D01*
X3090620D01*
Y1260540D01*
X3087549D01*
Y1263944D01*
X3088815Y1265210D01*
X3098040D01*
Y1275790D01*
X3084960D01*
Y1268565D01*
X3083198Y1266802D01*
X3082645Y1265975D01*
X3082451Y1265000D01*
Y1260540D01*
X3076190D01*
Y1255000D01*
Y1249460D01*
X3077369D01*
X3077755Y1248190D01*
X3077188Y1247812D01*
X3076326Y1246522D01*
X3076024Y1245000D01*
X3076326Y1243478D01*
X3077188Y1242188D01*
X3077451Y1242013D01*
Y1138353D01*
X3076860Y1137851D01*
X3075590Y1138439D01*
Y1235000D01*
X3075393Y1235991D01*
X3074832Y1236831D01*
X3073991Y1237393D01*
X3073000Y1237590D01*
X3062924D01*
X3062245Y1238860D01*
X3062355Y1239025D01*
X3062549Y1240000D01*
Y1249460D01*
X3065620D01*
Y1260540D01*
X3044380D01*
Y1255549D01*
X3042890D01*
Y1260440D01*
X3040549D01*
Y1263460D01*
X3044540D01*
Y1302540D01*
X3029460D01*
Y1263460D01*
X3035451D01*
Y1260440D01*
X3028760D01*
X3028510Y1260440D01*
X3027490D01*
X3027240Y1260440D01*
X3021570D01*
Y1253000D01*
Y1245560D01*
X3027240D01*
X3027490Y1245560D01*
X3028510D01*
X3028760Y1245560D01*
X3042890D01*
Y1250451D01*
X3044380D01*
Y1249460D01*
X3057451D01*
Y1242549D01*
X3017987D01*
X3017812Y1242812D01*
X3016522Y1243674D01*
X3015000Y1243976D01*
X3013478Y1243674D01*
X3012188Y1242812D01*
X3011860Y1242320D01*
X3010590Y1242706D01*
Y1275000D01*
X3010540Y1275250D01*
Y1302540D01*
X2995460D01*
Y1275250D01*
X2995410Y1275000D01*
Y1260590D01*
X2969540D01*
Y1277540D01*
X2946569D01*
Y1288460D01*
X2956730D01*
Y1302000D01*
Y1315540D01*
X2946569D01*
Y1340460D01*
X2961540D01*
Y1361540D01*
X2938569D01*
Y1368460D01*
X2961540D01*
Y1389540D01*
X2938460D01*
Y1386269D01*
X2932440D01*
Y1389890D01*
X2917560D01*
Y1389890D01*
X2917440D01*
Y1389890D01*
X2902560D01*
Y1389890D01*
X2902440D01*
Y1389890D01*
X2887560D01*
Y1389890D01*
X2887440D01*
Y1389890D01*
X2872560D01*
Y1386269D01*
X2865540D01*
Y1394540D01*
Y1405620D01*
X2863569D01*
Y1435000D01*
Y1441431D01*
X2872300D01*
Y1439460D01*
X2893540D01*
Y1441431D01*
X3088321D01*
X3088478Y1441326D01*
X3090000Y1441024D01*
X3091522Y1441326D01*
X3092812Y1442188D01*
X3093674Y1443478D01*
X3093976Y1445000D01*
X3093674Y1446522D01*
X3092812Y1447812D01*
X3091522Y1448674D01*
X3090000Y1448976D01*
X3088478Y1448674D01*
X3088321Y1448569D01*
X2893540D01*
Y1450540D01*
D02*
G37*
G36*
X2738650Y1440540D02*
X2734380D01*
Y1436270D01*
X2738650D01*
Y1440540D01*
D02*
G37*
G36*
X2633040Y1439790D02*
X2627770D01*
Y1436270D01*
Y1435770D01*
X2633040D01*
Y1439790D01*
D02*
G37*
G36*
X2625230D02*
X2619960D01*
Y1435770D01*
X2625230D01*
Y1436270D01*
Y1439790D01*
D02*
G37*
G36*
X2958040Y1437494D02*
X2937960D01*
Y1435000D01*
Y1433764D01*
X2937000Y1432977D01*
X2936040Y1433764D01*
Y1435000D01*
Y1437494D01*
X2915960D01*
Y1435000D01*
Y1433764D01*
X2915000Y1432977D01*
X2914040Y1433764D01*
Y1435000D01*
Y1437494D01*
X2893960D01*
Y1435000D01*
Y1433764D01*
X2893000Y1432977D01*
X2892040Y1433764D01*
Y1435000D01*
Y1437494D01*
X2871960D01*
Y1435000D01*
Y1420414D01*
X2892040D01*
Y1424236D01*
X2893000Y1425024D01*
X2893960Y1424236D01*
Y1420414D01*
X2914040D01*
Y1424236D01*
X2915000Y1425024D01*
X2915960Y1424236D01*
Y1420414D01*
X2936040D01*
Y1424236D01*
X2937000Y1425024D01*
X2937960Y1424236D01*
Y1420414D01*
X2958040D01*
Y1435000D01*
Y1437494D01*
D02*
G37*
G36*
X2721040Y1442540D02*
X2714270D01*
Y1431326D01*
Y1431270D01*
X2721040D01*
Y1435000D01*
Y1442540D01*
D02*
G37*
G36*
X2711730D02*
X2704960D01*
Y1435000D01*
Y1431270D01*
X2711730D01*
Y1432188D01*
Y1442540D01*
D02*
G37*
G36*
X2738650Y1433730D02*
X2734380D01*
Y1429460D01*
X2738650D01*
Y1433730D01*
D02*
G37*
G36*
X2633040Y1433230D02*
X2627770D01*
Y1429210D01*
X2633040D01*
Y1433230D01*
D02*
G37*
G36*
X2625230D02*
X2619960D01*
Y1429210D01*
X2625230D01*
Y1433230D01*
D02*
G37*
G36*
X2552440Y1429890D02*
X2546270D01*
Y1423970D01*
X2552440D01*
Y1429890D01*
D02*
G37*
G36*
X2740790Y1428040D02*
X2736770D01*
Y1422770D01*
X2740790D01*
Y1428040D01*
D02*
G37*
G36*
X2734230D02*
X2730210D01*
Y1422770D01*
X2734230D01*
Y1428040D01*
D02*
G37*
G36*
X2721040Y1428730D02*
X2714270D01*
Y1417460D01*
X2721040D01*
Y1428730D01*
D02*
G37*
G36*
X2711730D02*
X2704960D01*
Y1417460D01*
X2711730D01*
Y1428730D01*
D02*
G37*
G36*
X2740790Y1420230D02*
X2736770D01*
Y1414960D01*
X2740790D01*
Y1420230D01*
D02*
G37*
G36*
X2734230D02*
X2730210D01*
Y1414960D01*
X2734230D01*
Y1420230D01*
D02*
G37*
G36*
X2578040Y1430290D02*
X2564960D01*
Y1419710D01*
X2567509D01*
X2567645Y1419025D01*
X2568198Y1418198D01*
X2571085Y1415310D01*
X2571024Y1415000D01*
X2571326Y1413478D01*
X2572188Y1412188D01*
X2573478Y1411326D01*
X2575000Y1411024D01*
X2576522Y1411326D01*
X2577812Y1412188D01*
X2578674Y1413478D01*
X2578976Y1415000D01*
X2578674Y1416522D01*
X2577812Y1417812D01*
X2576871Y1418440D01*
X2577256Y1419710D01*
X2578040D01*
Y1430290D01*
D02*
G37*
G36*
X2665540Y1413650D02*
X2661270D01*
Y1409380D01*
X2665540D01*
Y1413650D01*
D02*
G37*
G36*
X2658730D02*
X2654460D01*
Y1409380D01*
X2658730D01*
Y1413650D01*
D02*
G37*
G36*
X2936040Y1409586D02*
X2927270D01*
Y1402316D01*
X2936040D01*
Y1409586D01*
D02*
G37*
G36*
X2924730D02*
X2915960D01*
Y1402316D01*
X2924730D01*
Y1409586D01*
D02*
G37*
G36*
X2958040D02*
X2949270D01*
Y1402316D01*
X2958040D01*
Y1409586D01*
D02*
G37*
G36*
X2946730D02*
X2937960D01*
Y1402316D01*
X2946730D01*
Y1409586D01*
D02*
G37*
G36*
X2892040D02*
X2883270D01*
Y1402316D01*
X2892040D01*
Y1409586D01*
D02*
G37*
G36*
X2880730D02*
X2871960D01*
Y1402316D01*
X2880730D01*
Y1409586D01*
D02*
G37*
G36*
X2914040D02*
X2905270D01*
Y1402316D01*
X2914040D01*
Y1409586D01*
D02*
G37*
G36*
X2902730D02*
X2893960D01*
Y1402316D01*
X2902730D01*
Y1409586D01*
D02*
G37*
G36*
X2593230Y1399790D02*
X2587960D01*
Y1395770D01*
X2593230D01*
Y1399790D01*
D02*
G37*
G36*
X2820000Y1413976D02*
X2818478Y1413674D01*
X2817188Y1412812D01*
X2816326Y1411522D01*
X2816024Y1410000D01*
X2816326Y1408478D01*
X2817188Y1407188D01*
X2817451Y1407013D01*
Y1405620D01*
X2814460D01*
Y1392549D01*
X2812987D01*
X2812812Y1392812D01*
X2811522Y1393674D01*
X2810000Y1393976D01*
X2808478Y1393674D01*
X2807188Y1392812D01*
X2806326Y1391522D01*
X2806024Y1390000D01*
X2806326Y1388478D01*
X2807188Y1387188D01*
X2808478Y1386326D01*
X2810000Y1386024D01*
X2811522Y1386326D01*
X2812812Y1387188D01*
X2812987Y1387451D01*
X2814460D01*
Y1384380D01*
X2825540D01*
Y1394540D01*
Y1405620D01*
X2822549D01*
Y1407013D01*
X2822812Y1407188D01*
X2823674Y1408478D01*
X2823976Y1410000D01*
X2823674Y1411522D01*
X2822812Y1412812D01*
X2821522Y1413674D01*
X2820000Y1413976D01*
D02*
G37*
G36*
X2958040Y1399776D02*
X2949270D01*
Y1392506D01*
X2958040D01*
Y1399776D01*
D02*
G37*
G36*
X2946730D02*
X2937960D01*
Y1392506D01*
X2946730D01*
Y1399776D01*
D02*
G37*
G36*
X2936040Y1399776D02*
X2927270D01*
Y1392506D01*
X2936040D01*
Y1399776D01*
D02*
G37*
G36*
X2924730D02*
X2915960D01*
Y1392506D01*
X2924730D01*
Y1399776D01*
D02*
G37*
G36*
X2914040Y1399776D02*
X2905270D01*
Y1392506D01*
X2914040D01*
Y1399776D01*
D02*
G37*
G36*
X2902730D02*
X2893960D01*
Y1392506D01*
X2902730D01*
Y1399776D01*
D02*
G37*
G36*
X2892040Y1399776D02*
X2883270D01*
Y1392506D01*
X2892040D01*
Y1399776D01*
D02*
G37*
G36*
X2880730D02*
X2871960D01*
Y1392506D01*
X2880730D01*
Y1399776D01*
D02*
G37*
G36*
X2558730Y1395620D02*
X2554460D01*
Y1391350D01*
X2558730D01*
Y1395620D01*
D02*
G37*
G36*
X2633040Y1420790D02*
X2619960D01*
Y1410210D01*
X2633040D01*
Y1412951D01*
X2638210D01*
Y1404460D01*
Y1390460D01*
X2647790D01*
Y1404460D01*
Y1419540D01*
X2638210D01*
Y1418049D01*
X2633040D01*
Y1420790D01*
D02*
G37*
G36*
X3076040Y1434540D02*
X3021270D01*
Y1390270D01*
X3076040D01*
Y1434540D01*
D02*
G37*
G36*
X3018730D02*
X2963960D01*
Y1390270D01*
X3018730D01*
Y1434540D01*
D02*
G37*
G36*
X3150000Y1398372D02*
X3147833Y1398086D01*
X3145814Y1397250D01*
X3144081Y1395920D01*
X3142750Y1394186D01*
X3141914Y1392167D01*
X3141628Y1390000D01*
X3141914Y1387833D01*
X3142750Y1385814D01*
X3144081Y1384080D01*
X3145814Y1382750D01*
X3147833Y1381914D01*
X3150000Y1381628D01*
X3152167Y1381914D01*
X3154186Y1382750D01*
X3155919Y1384080D01*
X3157250Y1385814D01*
X3158087Y1387833D01*
X3158372Y1390000D01*
X3158087Y1392167D01*
X3157250Y1394186D01*
X3155919Y1395920D01*
X3154186Y1397250D01*
X3152167Y1398086D01*
X3150000Y1398372D01*
D02*
G37*
G36*
X2721040Y1392540D02*
X2714270D01*
Y1381270D01*
X2721040D01*
Y1392540D01*
D02*
G37*
G36*
X2711730D02*
X2704960D01*
Y1381270D01*
X2711730D01*
Y1392540D01*
D02*
G37*
G36*
X2665540Y1383650D02*
X2661270D01*
Y1379380D01*
X2665540D01*
Y1383650D01*
D02*
G37*
G36*
X2658730D02*
X2654460D01*
Y1379380D01*
X2658730D01*
Y1383650D01*
D02*
G37*
G36*
X2721040Y1378730D02*
X2714270D01*
Y1367460D01*
X2721040D01*
Y1378730D01*
D02*
G37*
G36*
X2711730D02*
X2704960D01*
Y1367460D01*
X2711730D01*
Y1378730D01*
D02*
G37*
G36*
X2700620Y1360540D02*
X2696350D01*
Y1356270D01*
X2700620D01*
Y1360540D01*
D02*
G37*
G36*
X3076040Y1387730D02*
X3021270D01*
Y1343460D01*
X3076040D01*
Y1387730D01*
D02*
G37*
G36*
X3018730D02*
X2963960D01*
Y1343460D01*
X3018730D01*
Y1387730D01*
D02*
G37*
G36*
X2985000Y1341556D02*
X2983303Y1341333D01*
X2981722Y1340678D01*
X2981607Y1340590D01*
X2981000D01*
X2980009Y1340393D01*
X2979169Y1339831D01*
X2978607Y1338991D01*
X2978410Y1338000D01*
Y1268000D01*
X2978460Y1267750D01*
Y1263460D01*
X2993540D01*
Y1267750D01*
X2993590Y1268000D01*
Y1307451D01*
X3007013D01*
X3007188Y1307188D01*
X3008478Y1306326D01*
X3010000Y1306024D01*
X3011522Y1306326D01*
X3012812Y1307188D01*
X3013674Y1308478D01*
X3013976Y1310000D01*
X3013674Y1311522D01*
X3012812Y1312812D01*
X3011522Y1313674D01*
X3010000Y1313976D01*
X3008478Y1313674D01*
X3007188Y1312812D01*
X3007013Y1312549D01*
X2993590D01*
Y1338000D01*
X2993393Y1338991D01*
X2992831Y1339831D01*
X2991991Y1340393D01*
X2991000Y1340590D01*
X2988393D01*
X2988278Y1340678D01*
X2986697Y1341333D01*
X2985000Y1341556D01*
D02*
G37*
G36*
X2969540Y1315540D02*
X2959270D01*
Y1303270D01*
X2969540D01*
Y1315540D01*
D02*
G37*
G36*
X2700620Y1303730D02*
X2696350D01*
Y1299460D01*
X2700620D01*
Y1303730D01*
D02*
G37*
G36*
X3098040Y1294790D02*
X3092770D01*
Y1290770D01*
X3098040D01*
Y1294790D01*
D02*
G37*
G36*
X3090230D02*
X3084960D01*
Y1290770D01*
X3090230D01*
Y1294790D01*
D02*
G37*
G36*
X2575540Y1293650D02*
X2571270D01*
Y1289380D01*
X2575540D01*
Y1293650D01*
D02*
G37*
G36*
X2969540Y1300730D02*
X2959270D01*
Y1288460D01*
X2969540D01*
Y1300730D01*
D02*
G37*
G36*
X3027540Y1302540D02*
X3021270D01*
Y1284270D01*
X3027540D01*
Y1302540D01*
D02*
G37*
G36*
X3018730D02*
X3012460D01*
Y1284270D01*
X3018730D01*
Y1302540D01*
D02*
G37*
G36*
X3098040Y1288230D02*
X3092770D01*
Y1284210D01*
X3098040D01*
Y1288230D01*
D02*
G37*
G36*
X3090230D02*
X3084960D01*
Y1284210D01*
X3090230D01*
Y1288230D01*
D02*
G37*
G36*
X3035000Y1313976D02*
X3033478Y1313674D01*
X3032188Y1312812D01*
X3031326Y1311522D01*
X3031024Y1310000D01*
X3031326Y1308478D01*
X3032188Y1307188D01*
X3033478Y1306326D01*
X3035000Y1306024D01*
X3036522Y1306326D01*
X3037812Y1307188D01*
X3037987Y1307451D01*
X3063864D01*
X3064380Y1306935D01*
Y1299460D01*
X3077451D01*
Y1282987D01*
X3077188Y1282812D01*
X3077013Y1282549D01*
X3075040D01*
Y1285290D01*
X3061960D01*
X3061540Y1286386D01*
Y1302540D01*
X3046460D01*
Y1263460D01*
X3061540D01*
Y1273614D01*
X3061960Y1274710D01*
X3075040D01*
Y1277451D01*
X3077013D01*
X3077188Y1277188D01*
X3078478Y1276326D01*
X3080000Y1276024D01*
X3081522Y1276326D01*
X3082812Y1277188D01*
X3083674Y1278478D01*
X3083976Y1280000D01*
X3083674Y1281522D01*
X3082812Y1282812D01*
X3082549Y1282987D01*
Y1299460D01*
X3085620D01*
Y1310540D01*
X3067985D01*
X3066722Y1311802D01*
X3065895Y1312355D01*
X3064920Y1312549D01*
X3037987D01*
X3037812Y1312812D01*
X3036522Y1313674D01*
X3035000Y1313976D01*
D02*
G37*
G36*
X3027540Y1281730D02*
X3021270D01*
Y1263460D01*
X3027540D01*
Y1281730D01*
D02*
G37*
G36*
X3018730D02*
X3012460D01*
Y1263460D01*
X3018730D01*
Y1281730D01*
D02*
G37*
G36*
X2793230Y1265040D02*
X2789210D01*
Y1259770D01*
X2793230D01*
Y1265040D01*
D02*
G37*
G36*
X3073650Y1260540D02*
X3069380D01*
Y1256270D01*
X3073650D01*
Y1260540D01*
D02*
G37*
G36*
X3019030Y1260440D02*
X3013110D01*
Y1254270D01*
X3019030D01*
Y1260440D01*
D02*
G37*
G36*
X2793230Y1257230D02*
X2789210D01*
Y1251960D01*
X2793230D01*
Y1257230D01*
D02*
G37*
G36*
X3073650Y1253730D02*
X3069380D01*
Y1249460D01*
X3073650D01*
Y1253730D01*
D02*
G37*
G36*
X3019030Y1251730D02*
X3013110D01*
Y1245560D01*
X3019030D01*
Y1251730D01*
D02*
G37*
G36*
X3150000Y1168372D02*
X3147833Y1168086D01*
X3145814Y1167250D01*
X3144081Y1165920D01*
X3142750Y1164186D01*
X3141914Y1162167D01*
X3141628Y1160000D01*
X3141914Y1157833D01*
X3142750Y1155814D01*
X3144081Y1154080D01*
X3145814Y1152750D01*
X3147833Y1151914D01*
X3150000Y1151628D01*
X3152167Y1151914D01*
X3154186Y1152750D01*
X3155919Y1154080D01*
X3157250Y1155814D01*
X3158087Y1157833D01*
X3158372Y1160000D01*
X3158087Y1162167D01*
X3157250Y1164186D01*
X3155919Y1165920D01*
X3154186Y1167250D01*
X3152167Y1168086D01*
X3150000Y1168372D01*
D02*
G37*
G36*
X3175000Y1138976D02*
X3173478Y1138674D01*
X3172188Y1137812D01*
X3172013Y1137549D01*
X3170000D01*
X3169025Y1137355D01*
X3168198Y1136802D01*
X3125310Y1093915D01*
X3125000Y1093976D01*
X3123761Y1093730D01*
X3123478Y1093674D01*
X3122188Y1092812D01*
X3121326Y1091522D01*
X3121024Y1090000D01*
X3121326Y1088478D01*
X3122188Y1087188D01*
X3123478Y1086326D01*
X3125000Y1086024D01*
X3126522Y1086326D01*
X3127812Y1087188D01*
X3128674Y1088478D01*
X3128976Y1090000D01*
X3128915Y1090310D01*
X3129875Y1091270D01*
D01*
X3170856Y1132251D01*
X3172188Y1132188D01*
X3173478Y1131326D01*
X3175000Y1131024D01*
X3176522Y1131326D01*
X3177812Y1132188D01*
X3178674Y1133478D01*
X3178976Y1135000D01*
X3178674Y1136522D01*
X3177812Y1137812D01*
X3176522Y1138674D01*
X3175000Y1138976D01*
D02*
G37*
G36*
X2932440Y1126030D02*
X2926270D01*
Y1120110D01*
X2932440D01*
Y1126030D01*
D02*
G37*
G36*
X2878730Y1126030D02*
X2872560D01*
Y1120110D01*
X2878730D01*
Y1126030D01*
D02*
G37*
G36*
X2350074Y1415634D02*
X2341304D01*
Y1408364D01*
X2350074D01*
Y1415634D01*
D02*
G37*
G36*
X2338764D02*
X2329994D01*
Y1408364D01*
X2338764D01*
Y1415634D01*
D02*
G37*
G36*
X2450040Y1415586D02*
X2441270D01*
Y1408316D01*
X2450040D01*
Y1415586D01*
D02*
G37*
G36*
X2400040D02*
X2391270D01*
Y1408316D01*
X2400040D01*
Y1415586D01*
D02*
G37*
G36*
X2438730D02*
X2429960D01*
Y1408316D01*
X2438730D01*
Y1415586D01*
D02*
G37*
G36*
X2388730D02*
X2379960D01*
Y1408316D01*
X2388730D01*
Y1415586D01*
D02*
G37*
G36*
X2475040D02*
X2466270D01*
Y1408316D01*
X2475040D01*
Y1415586D01*
D02*
G37*
G36*
X2425040D02*
X2416270D01*
Y1408316D01*
X2425040D01*
Y1415586D01*
D02*
G37*
G36*
X2375040D02*
X2366270D01*
Y1408316D01*
X2375040D01*
Y1415586D01*
D02*
G37*
G36*
X2463730D02*
X2454960D01*
Y1408316D01*
X2463730D01*
Y1415586D01*
D02*
G37*
G36*
X2413730D02*
X2404960D01*
Y1408316D01*
X2413730D01*
Y1415586D01*
D02*
G37*
G36*
X2363730D02*
X2354960D01*
Y1408316D01*
X2363730D01*
Y1415586D01*
D02*
G37*
G36*
X2350074Y1405824D02*
X2341304D01*
Y1398554D01*
X2350074D01*
Y1405824D01*
D02*
G37*
G36*
X2338764D02*
X2329994D01*
Y1398554D01*
X2338764D01*
Y1405824D01*
D02*
G37*
G36*
X2475040Y1405776D02*
X2466270D01*
Y1398506D01*
X2475040D01*
Y1405776D01*
D02*
G37*
G36*
X2463730D02*
X2454960D01*
Y1398506D01*
X2463730D01*
Y1405776D01*
D02*
G37*
G36*
X2450040Y1405776D02*
X2441270D01*
Y1398506D01*
X2450040D01*
Y1405776D01*
D02*
G37*
G36*
X2438730D02*
X2429960D01*
Y1398506D01*
X2438730D01*
Y1405776D01*
D02*
G37*
G36*
X2425040Y1405776D02*
X2416270D01*
Y1398506D01*
X2425040D01*
Y1405776D01*
D02*
G37*
G36*
X2413730D02*
X2404960D01*
Y1398506D01*
X2413730D01*
Y1405776D01*
D02*
G37*
G36*
X2400040Y1405776D02*
X2391270D01*
Y1398506D01*
X2400040D01*
Y1405776D01*
D02*
G37*
G36*
X2388730D02*
X2379960D01*
Y1398506D01*
X2388730D01*
Y1405776D01*
D02*
G37*
G36*
X2375040Y1405776D02*
X2366270D01*
Y1398506D01*
X2375040D01*
Y1405776D01*
D02*
G37*
G36*
X2363730D02*
X2354960D01*
Y1398506D01*
X2363730D01*
Y1405776D01*
D02*
G37*
G36*
X2395040Y1369540D02*
X2386270D01*
Y1361770D01*
X2395040D01*
Y1369540D01*
D02*
G37*
G36*
X2383730D02*
X2374960D01*
Y1361770D01*
X2383730D01*
Y1369540D01*
D02*
G37*
G36*
X2450540Y1365620D02*
X2446270D01*
Y1361350D01*
X2450540D01*
Y1365620D01*
D02*
G37*
G36*
X2410540D02*
X2406270D01*
Y1361350D01*
X2410540D01*
Y1365620D01*
D02*
G37*
G36*
X2423730D02*
X2419460D01*
Y1361350D01*
X2423730D01*
Y1365620D01*
D02*
G37*
G36*
X2403730D02*
X2399460D01*
Y1361350D01*
X2403730D01*
Y1365620D01*
D02*
G37*
G36*
X2490540Y1375620D02*
X2486270D01*
Y1371350D01*
X2490540D01*
Y1375620D01*
D02*
G37*
G36*
X2513730Y1365620D02*
X2509460D01*
Y1361350D01*
X2513730D01*
Y1365620D01*
D02*
G37*
G36*
X2435040Y1185790D02*
X2429770D01*
Y1181770D01*
X2435040D01*
Y1185790D01*
D02*
G37*
G36*
X2427230D02*
X2421960D01*
Y1181770D01*
X2427230D01*
Y1185790D01*
D02*
G37*
G36*
X2435040Y1179230D02*
X2429770D01*
Y1175210D01*
X2435040D01*
Y1179230D01*
D02*
G37*
G36*
X2427230D02*
X2421960D01*
Y1175210D01*
X2427230D01*
Y1179230D01*
D02*
G37*
G36*
X2415540Y1178650D02*
X2411270D01*
Y1174380D01*
X2415540D01*
Y1178650D01*
D02*
G37*
G36*
X2408730D02*
X2404460D01*
Y1174380D01*
X2408730D01*
Y1178650D01*
D02*
G37*
G36*
X2429586Y1170040D02*
X2422316D01*
Y1161270D01*
X2429586D01*
Y1170040D01*
D02*
G37*
G36*
X2419776D02*
X2412506D01*
Y1161270D01*
X2419776D01*
Y1170040D01*
D02*
G37*
G36*
X2664740Y1247790D02*
X2661970D01*
Y1239270D01*
X2664740D01*
Y1247790D01*
D02*
G37*
G36*
X2740620Y1240540D02*
X2736350D01*
Y1236270D01*
X2740620D01*
Y1240540D01*
D02*
G37*
G36*
X2698650D02*
X2694380D01*
Y1236270D01*
X2698650D01*
Y1240540D01*
D02*
G37*
G36*
X2780790Y1235230D02*
X2776770D01*
Y1229960D01*
X2780790D01*
Y1235230D01*
D02*
G37*
G36*
X2774230D02*
X2770210D01*
Y1229960D01*
X2774230D01*
Y1235230D01*
D02*
G37*
G36*
X2740620Y1233730D02*
X2736350D01*
Y1229460D01*
X2740620D01*
Y1233730D01*
D02*
G37*
G36*
X2698650Y1233730D02*
X2694380D01*
Y1229460D01*
X2698650D01*
Y1233730D01*
D02*
G37*
G36*
X2664740Y1236730D02*
X2661970D01*
Y1228210D01*
X2664740D01*
Y1236730D01*
D02*
G37*
G36*
X2666270Y1220620D02*
Y1216350D01*
X2670540D01*
Y1220620D01*
X2666270D01*
D02*
G37*
G36*
X2740620Y1220540D02*
X2736350D01*
Y1216270D01*
X2740620D01*
Y1220540D01*
D02*
G37*
G36*
X2698650Y1220540D02*
X2694380D01*
Y1216270D01*
X2698650D01*
Y1220540D01*
D02*
G37*
G36*
X2740620Y1213730D02*
X2736350D01*
Y1209460D01*
X2740620D01*
Y1213730D01*
D02*
G37*
G36*
X2698650Y1213730D02*
X2694380D01*
Y1209460D01*
X2698650D01*
Y1213730D01*
D02*
G37*
G36*
X2740620Y1200540D02*
X2736350D01*
Y1196270D01*
X2740620D01*
Y1200540D01*
D02*
G37*
G36*
X2698650Y1200540D02*
X2694380D01*
Y1196270D01*
X2698650D01*
Y1200540D01*
D02*
G37*
G36*
X2740620Y1193730D02*
X2736350D01*
Y1189460D01*
X2740620D01*
Y1193730D01*
D02*
G37*
G36*
X2750040Y1181540D02*
X2744270D01*
Y1171770D01*
X2750040D01*
Y1181540D01*
D02*
G37*
G36*
X2741730D02*
X2735960D01*
Y1171770D01*
X2741730D01*
Y1181540D01*
D02*
G37*
G36*
X2750040Y1169230D02*
X2744270D01*
Y1159460D01*
X2750040D01*
Y1169230D01*
D02*
G37*
G36*
X2741730D02*
X2735960D01*
Y1159460D01*
X2741730D01*
Y1169230D01*
D02*
G37*
G36*
X2654790Y1140040D02*
X2650770D01*
Y1134770D01*
X2654790D01*
Y1140040D01*
D02*
G37*
G36*
X2648230D02*
X2644210D01*
Y1134770D01*
X2648230D01*
Y1140040D01*
D02*
G37*
G36*
X2654790Y1132230D02*
X2650770D01*
Y1126960D01*
X2654790D01*
Y1132230D01*
D02*
G37*
G36*
X2648230D02*
X2644210D01*
Y1126960D01*
X2648230D01*
Y1132230D01*
D02*
G37*
G36*
X2650700Y1125540D02*
X2646430D01*
Y1121270D01*
X2650700D01*
Y1125540D01*
D02*
G37*
G36*
Y1118730D02*
X2646430D01*
Y1114460D01*
X2650700D01*
Y1118730D01*
D02*
G37*
G36*
X2635790Y1140040D02*
X2625210D01*
Y1126960D01*
X2627451D01*
Y1125000D01*
X2627645Y1124025D01*
X2628198Y1123198D01*
X2629460Y1121935D01*
Y1114460D01*
X2632291D01*
Y1112880D01*
X2632188Y1112812D01*
X2631326Y1111522D01*
X2631024Y1110000D01*
X2631326Y1108478D01*
X2632188Y1107188D01*
X2633478Y1106326D01*
X2635000Y1106024D01*
X2636522Y1106326D01*
X2637812Y1107188D01*
X2638674Y1108478D01*
X2638976Y1110000D01*
X2638674Y1111522D01*
X2637812Y1112812D01*
X2637389Y1113094D01*
Y1114460D01*
X2643890D01*
Y1120000D01*
Y1125540D01*
X2634225D01*
X2634124Y1125690D01*
X2634801Y1126960D01*
X2635790D01*
Y1140040D01*
D02*
G37*
G36*
X2585540Y1103650D02*
X2581270D01*
Y1099380D01*
X2585540D01*
Y1103650D01*
D02*
G37*
G36*
X2475040Y1127494D02*
X2466270D01*
Y1120224D01*
X2475040D01*
Y1127494D01*
D02*
G37*
G36*
X2463730D02*
X2454960D01*
Y1120224D01*
X2463730D01*
Y1127494D01*
D02*
G37*
G36*
X2375008Y1127446D02*
X2366238D01*
Y1120176D01*
X2375008D01*
Y1127446D01*
D02*
G37*
G36*
X2363698D02*
X2354928D01*
Y1120176D01*
X2363698D01*
Y1127446D01*
D02*
G37*
G36*
X2450007D02*
X2441237D01*
Y1120176D01*
X2450007D01*
Y1127446D01*
D02*
G37*
G36*
X2438697D02*
X2429927D01*
Y1120176D01*
X2438697D01*
Y1127446D01*
D02*
G37*
G36*
X2400007D02*
X2391237D01*
Y1120176D01*
X2400007D01*
Y1127446D01*
D02*
G37*
G36*
X2388698D02*
X2379928D01*
Y1120176D01*
X2388698D01*
Y1127446D01*
D02*
G37*
G36*
X2350008D02*
X2341238D01*
Y1120176D01*
X2350008D01*
Y1127446D01*
D02*
G37*
G36*
X2338698D02*
X2329928D01*
Y1120176D01*
X2338698D01*
Y1127446D01*
D02*
G37*
G36*
X2425007D02*
X2416237D01*
Y1120176D01*
X2425007D01*
Y1127446D01*
D02*
G37*
G36*
X2413697D02*
X2404927D01*
Y1120176D01*
X2413697D01*
Y1127446D01*
D02*
G37*
G36*
X2475040Y1117684D02*
X2466270D01*
Y1110414D01*
X2475040D01*
Y1117684D01*
D02*
G37*
G36*
X2463730D02*
X2454960D01*
Y1110414D01*
X2463730D01*
Y1117684D01*
D02*
G37*
G36*
X2450007Y1117636D02*
X2441237D01*
Y1110366D01*
X2450007D01*
Y1117636D01*
D02*
G37*
G36*
X2438697D02*
X2429927D01*
Y1110366D01*
X2438697D01*
Y1117636D01*
D02*
G37*
G36*
X2425007Y1117636D02*
X2416237D01*
Y1110366D01*
X2425007D01*
Y1117636D01*
D02*
G37*
G36*
X2413697D02*
X2404927D01*
Y1110366D01*
X2413697D01*
Y1117636D01*
D02*
G37*
G36*
X2400007Y1117636D02*
X2391237D01*
Y1110366D01*
X2400007D01*
Y1117636D01*
D02*
G37*
G36*
X2388698D02*
X2379928D01*
Y1110366D01*
X2388698D01*
Y1117636D01*
D02*
G37*
G36*
X2375008Y1117636D02*
X2366238D01*
Y1110366D01*
X2375008D01*
Y1117636D01*
D02*
G37*
G36*
X2363698D02*
X2354928D01*
Y1110366D01*
X2363698D01*
Y1117636D01*
D02*
G37*
G36*
X2350008Y1117636D02*
X2341238D01*
Y1110366D01*
X2350008D01*
Y1117636D01*
D02*
G37*
G36*
X2338698D02*
X2329928D01*
Y1110366D01*
X2338698D01*
Y1117636D01*
D02*
G37*
%LPD*%
D10*
X2635000Y1120000D02*
Y1120000D01*
X2630000Y1125000D02*
X2635000Y1120000D01*
X2630000Y1125000D02*
Y1135000D01*
X2634840Y1110000D02*
Y1119840D01*
X2635000Y1120000D01*
X3125000Y1090000D02*
X3170000Y1135000D01*
X3175000D01*
X2477500Y1293500D02*
Y1377500D01*
X2450000Y1185000D02*
Y1190000D01*
X2155000Y1030000D02*
Y1040000D01*
X165000Y1035000D02*
Y1255000D01*
Y1035000D02*
Y1035000D01*
Y1255000D02*
X285000D01*
X2621750Y1292500D02*
Y1315000D01*
X2608750Y1296500D02*
Y1314000D01*
X2602250Y1292500D02*
Y1305000D01*
X2614000Y1334000D02*
X2615000Y1333000D01*
Y1305000D02*
X2615250D01*
Y1292500D02*
Y1305000D01*
X165000Y1495000D02*
Y1495000D01*
Y1255000D02*
Y1495000D01*
X300000Y1345000D02*
X305000Y1340000D01*
X264920Y1295000D02*
Y1295000D01*
Y1265000D02*
Y1295000D01*
X305160Y1210160D02*
Y1265000D01*
Y1210000D02*
Y1210160D01*
X1060000Y1320000D02*
X1089000D01*
X1110000Y1275000D02*
Y1320000D01*
Y1215000D02*
Y1275000D01*
X995000Y1375000D02*
X1000000Y1370000D01*
X1065000Y1215000D02*
X1089000D01*
X1010000Y1290000D02*
X1070000D01*
X995000Y1375000D02*
X1000000D01*
X975000D02*
X995000D01*
X975000Y1235000D02*
X997000D01*
X2644000Y1307000D02*
Y1335000D01*
X2641201Y1304001D02*
X2641250Y1296500D01*
X2641200Y1304200D02*
X2641201Y1304001D01*
X2600000Y1334920D02*
Y1335000D01*
Y1327000D02*
Y1334920D01*
X2560000Y1380000D02*
X2564500Y1375500D01*
X2629840Y1360000D02*
X2629920Y1359920D01*
X2610000Y1360000D02*
Y1370000D01*
X2420000Y1200000D02*
X2430000D01*
X3080000Y1280000D02*
Y1305000D01*
X3085000Y1240000D02*
Y1265000D01*
X2820000Y1150000D02*
Y1235000D01*
X2814920Y1240080D02*
X2820000Y1235000D01*
X2810000Y1240080D02*
X2814920D01*
X2450000Y1185000D02*
X2455000Y1180000D01*
X2475000D01*
X2480000Y1175000D01*
X2480000D01*
X2445000Y1180000D02*
X2445000D01*
X2450000Y1175000D01*
X2560000Y1115000D02*
X2560080Y1115080D01*
X2485000Y1180000D02*
X2515000D01*
X2479000Y1186000D02*
X2485000Y1180000D01*
X2478000Y1187000D02*
X2479000Y1186000D01*
X2472000Y1195000D02*
X2479000D01*
Y1186000D02*
Y1195000D01*
X2478000Y1187000D02*
Y1194920D01*
X2477500Y1205000D02*
X2484000D01*
X2477500D02*
Y1235000D01*
X2490000Y1185000D02*
X2500000D01*
X2484000Y1191000D02*
X2490000Y1185000D01*
X2484000Y1191000D02*
Y1205000D01*
X2340000Y1084000D02*
Y1095046D01*
X2815000Y1080000D02*
Y1225000D01*
X2810000Y1229920D02*
X2815000Y1225000D01*
X2805000Y1265000D02*
X2810000D01*
X2503000Y1198000D02*
X2509500Y1204500D01*
X2803000Y1263000D02*
X2805000Y1265000D01*
X2803000Y1248000D02*
Y1263000D01*
X2800000Y1245000D02*
X2803000Y1248000D01*
X2794500Y1245000D02*
X2800000D01*
X2810000Y1240080D02*
Y1254920D01*
X2775500Y1335500D02*
X2780000Y1340000D01*
X2800000Y1270000D02*
X2805000Y1275000D01*
X2760000Y1270000D02*
X2800000D01*
X2805000Y1275000D02*
Y1289920D01*
X2810000Y1085000D02*
Y1205000D01*
X3074920Y1255000D02*
X3075000D01*
X3070000D02*
X3074920D01*
X3018000Y1253000D02*
Y1263000D01*
X2710000Y1435000D02*
X2715000D01*
X2625000Y1425000D02*
Y1435000D01*
X2712500Y1377500D02*
X2715000Y1380000D01*
X2655000Y1385000D02*
X2660000Y1385000D01*
X2735080Y1215080D02*
Y1235000D01*
X2735000Y1215000D02*
X2735080Y1215080D01*
X2735000Y1215000D02*
X2735080Y1214920D01*
Y1195000D02*
Y1214920D01*
X2699920Y1215080D02*
X2700000D01*
X2660700Y1238000D02*
Y1250700D01*
X2665000Y1215080D02*
X2699920D01*
Y1229920D01*
Y1195000D02*
Y1215000D01*
X2585000Y1395000D02*
X2595000D01*
X2585000Y1394500D02*
X2594500D01*
X2469000Y1403000D02*
X2470000Y1404000D01*
X2577000Y1295000D02*
Y1313000D01*
X2560000Y1305000D02*
Y1313000D01*
X2542500Y1287500D02*
X2545000Y1285000D01*
X2444920Y1360080D02*
X2445000Y1360000D01*
X2420000Y1360080D02*
X2439920D01*
X2415000Y1340000D02*
X2420000D01*
X2420080D02*
X2425000D01*
X2414920Y1340080D02*
X2415000Y1340000D01*
X2405025Y1360693D02*
X2410017Y1360486D01*
X2411000Y1340000D02*
X2415000D01*
X2570000Y1240000D02*
X2580000D01*
X2560000Y1240080D02*
X2569920D01*
X2570000Y1240000D01*
X2428500Y1179920D02*
X2429920D01*
X2420000D02*
X2428500D01*
X2420000Y1160000D02*
Y1179920D01*
X2360000Y1245000D02*
X2370000Y1255000D01*
X2410000Y1179920D02*
X2420000D01*
X3070000Y1245000D02*
Y1255000D01*
X2785080Y1159920D02*
Y1164920D01*
X2542700Y1102300D02*
X2545000Y1100000D01*
X2800000Y1090000D02*
Y1150000D01*
X2785080D02*
X2800000D01*
X2785000Y1140000D02*
X2785080D01*
X2810000Y1390000D02*
X2820000D01*
X2710000Y1190000D02*
Y1195000D01*
X2710080Y1195080D01*
X2578000Y1345000D02*
X2585000D01*
X2578000Y1320000D02*
X2585000D01*
Y1305000D02*
Y1319920D01*
X2665000Y1180000D02*
Y1184000D01*
X2590000Y1280000D02*
Y1295080D01*
X2589000Y1288000D02*
Y1295080D01*
X2795000Y1095000D02*
Y1130000D01*
X2610000Y1095000D02*
X2795000D01*
X2785080Y1150000D02*
Y1159920D01*
X2785000Y1160000D02*
X2785080Y1159920D01*
X2545000Y1090000D02*
X2800000D01*
X3080000Y1135000D02*
Y1245000D01*
X2650000Y1124840D02*
Y1130000D01*
X2645160Y1120000D02*
X2650000Y1124840D01*
X2605000Y1110000D02*
X2620000D01*
X2580000Y1180000D02*
X2581500Y1181500D01*
Y1196750D01*
X2610000Y1180000D02*
X2620000Y1170000D01*
X2626500D01*
X2640000Y1156500D01*
X2530000Y1434000D02*
X2533000Y1437000D01*
X2529000Y1434000D02*
X2530000D01*
X2505000Y1541000D02*
X2508000Y1544000D01*
X2497500Y1235000D02*
X2497999Y1216026D01*
X2498000Y1216000D01*
X2503000Y1206000D02*
Y1211000D01*
X2360000Y1220000D02*
X2387000D01*
X2350000D02*
X2360000D01*
Y1185000D02*
Y1220000D01*
X2351000Y1185000D02*
X2360000D01*
X2350000Y1186000D02*
X2351000Y1185000D01*
X1050000Y1550000D02*
Y1595000D01*
X1045000Y1545000D02*
X1050000Y1550000D01*
X1060000Y1253000D02*
Y1270000D01*
X1000000Y1300000D02*
X1010000Y1290000D01*
X285000Y1255000D02*
Y1265000D01*
X2695080Y1335000D02*
X2715000D01*
X2695080Y1325000D02*
X2710000D01*
X2695000D02*
X2695080D01*
X2675000D02*
Y1335000D01*
Y1300000D02*
Y1325000D01*
X2684920D01*
X2675000Y1300000D02*
X2680000Y1295000D01*
X2690000D01*
X2675000Y1335000D02*
X2684920D01*
X2548000Y1265000D02*
X2549000Y1266000D01*
X2541500Y1262500D02*
X2544000Y1265000D01*
X2695080Y1305000D02*
X2715000D01*
X2695000D02*
X2695080D01*
X2670000Y1295000D02*
X2675000Y1290000D01*
X2670000Y1295000D02*
Y1300000D01*
X2665000Y1305000D02*
X2670000Y1300000D01*
X2675000Y1290000D02*
X2700000D01*
X2705000Y1295000D01*
X2665000Y1285000D02*
X2690000D01*
X2660000Y1290000D02*
X2665000Y1285000D01*
X2684920Y1335000D02*
X2685000D01*
X2420000Y1179920D02*
Y1180000D01*
X2450000Y1165000D02*
Y1175000D01*
X2450000D01*
X2460000Y1155000D02*
X2470000D01*
X2634993Y1190080D02*
X2635000Y1189000D01*
X2634798Y1221999D02*
X2634993Y1190080D01*
X2634700Y1238000D02*
X2634798Y1221999D01*
X2337000Y1155000D02*
X2385000D01*
X2304000Y1145000D02*
X2313000Y1154000D01*
X2470000Y1155000D02*
X2480000Y1145000D01*
X2336000Y1154000D02*
X2337000Y1155000D01*
X2465000Y1170000D02*
X2470000D01*
X2460000Y1165000D02*
X2470000D01*
X2621700Y1192000D02*
Y1233000D01*
X2335000Y1304000D02*
X2391000D01*
X2628200Y1226000D02*
Y1238000D01*
Y1215000D02*
Y1226000D01*
X2280000Y1330000D02*
Y1345000D01*
X2465000Y1160000D02*
X2470000D01*
X2480000Y1150000D01*
X2595000Y1265000D02*
X2715000D01*
X2569000Y1275000D02*
X2710000D01*
X2705000Y1245000D02*
X2710000D01*
X2710080Y1244920D01*
X2794500Y1236500D02*
Y1245000D01*
X2735000D02*
X2794500D01*
X2760000Y1265000D02*
Y1270000D01*
Y1180000D02*
X2774920D01*
X2760000D02*
Y1190000D01*
X2795000Y1280000D02*
Y1289920D01*
X2785000Y1260000D02*
X2786500Y1258500D01*
X2794500D01*
X2804920Y1300080D02*
X2805000Y1300000D01*
X2795000Y1300080D02*
X2804920D01*
X2795000Y1320000D02*
Y1335080D01*
X2790080Y1340000D02*
X2795000Y1335080D01*
X2775500Y1326500D02*
Y1335500D01*
X2775000Y1250000D02*
Y1255000D01*
X2735000Y1250000D02*
X2775000D01*
X2725000Y1260000D02*
X2735000Y1250000D01*
X2760000Y1310000D02*
Y1315000D01*
X2771500Y1326500D01*
X2775500D01*
X2755000Y1280000D02*
X2760000Y1285000D01*
X2755000Y1262000D02*
Y1280000D01*
X2790000Y1315000D02*
X2795000Y1320000D01*
X2780000Y1315000D02*
X2790000D01*
X2775000Y1310000D02*
X2780000Y1315000D01*
X2775000Y1300080D02*
Y1310000D01*
X2785000Y1305000D02*
X2790080D01*
X2795000Y1300080D01*
X2780000Y1280000D02*
X2785000D01*
X2775000Y1285000D02*
X2780000Y1280000D01*
X2775000Y1285000D02*
Y1289920D01*
X2755000Y1300000D02*
X2755080Y1300080D01*
X2775000D01*
X2455000Y1200000D02*
X2460000Y1205000D01*
Y1205000D01*
X2435000Y1350000D02*
X2435080Y1349920D01*
X2445000Y1324000D02*
X2446000Y1325000D01*
X2445000Y1205000D02*
X2455000Y1215000D01*
X2445000Y1195000D02*
Y1205000D01*
Y1195000D02*
X2450000Y1190000D01*
X2465000Y1185000D02*
Y1194920D01*
X2460000Y1205000D02*
X2460080Y1205080D01*
X2465000D01*
X2455000Y1215000D02*
X2455000D01*
X2440000Y1210000D02*
X2450000Y1220000D01*
X2455000Y1215000D02*
Y1215000D01*
X2775000Y1225000D02*
X2775500Y1225500D01*
Y1236500D01*
X2725000Y1255000D02*
X2735000Y1245000D01*
X2760000Y1210000D02*
Y1225000D01*
Y1210000D02*
X2770000Y1200000D01*
X2774920D01*
X2775000Y1199920D01*
X2774920Y1180000D02*
Y1184920D01*
Y1175000D02*
Y1180000D01*
X2775000D01*
X2775000Y1185000D01*
X2774920Y1184920D02*
X2775000Y1180000D01*
X2775000Y1185000D01*
X2805000Y1085000D02*
Y1175000D01*
X2534000Y1085000D02*
X2805000D01*
Y1175000D02*
Y1210000D01*
X2774920Y1175000D02*
X2805000D01*
X2795000Y1185000D02*
Y1199920D01*
X2794920D02*
X2795000Y1200000D01*
X2775000Y1199920D02*
X2794920D01*
X2780000Y1215000D02*
X2785000D01*
X2775080Y1210080D02*
X2780000Y1215000D01*
X2775000Y1210080D02*
X2775080D01*
X2804920D02*
X2805000Y1210000D01*
X2795000Y1210080D02*
X2804920D01*
X2775500Y1186500D02*
X2776500D01*
X2534000Y1009000D02*
Y1085000D01*
X2530000Y1005000D02*
X2534000Y1009000D01*
X2530000Y965000D02*
Y1005000D01*
X2545000Y1090000D02*
Y1100000D01*
X2774920Y1150000D02*
Y1175000D01*
X2785000Y1165000D02*
X2785080Y1164920D01*
X2545000Y1100000D02*
Y1102300D01*
X2530000Y1102300D02*
X2542700D01*
X2505000Y994000D02*
X2505000Y994000D01*
Y1015000D01*
X2530000D01*
Y1087000D01*
X2518000Y1099000D02*
X2530000Y1087000D01*
X2574000Y1250000D02*
X2580000D01*
X2579920Y1229920D02*
X2580000Y1230000D01*
X2570000Y1229920D02*
X2579920D01*
X2565500Y1257500D02*
X2568000Y1260000D01*
X2565500Y1257500D02*
Y1257500D01*
X2534000Y1257500D02*
X2565500D01*
X2568000Y1260000D02*
X2575000D01*
X2480000Y1165000D02*
X2525000D01*
X2470000Y1175000D02*
X2480000Y1165000D01*
X2480000Y1160000D02*
X2545000D01*
X2470000Y1170000D02*
X2480000Y1160000D01*
X2480000Y1155000D02*
X2540000D01*
X2470000Y1165000D02*
X2480000Y1155000D01*
Y1150000D02*
X2545000D01*
X2605000Y1255000D02*
X2725000D01*
X2600000Y1250000D02*
X2605000Y1255000D01*
X2600000Y1260000D02*
X2725000D01*
X2590000Y1250000D02*
X2600000Y1260000D01*
X2660000Y1250000D02*
X2660700Y1250700D01*
X2580000Y1250000D02*
X2595000Y1265000D01*
X2540000Y1180000D02*
X2545000Y1175000D01*
X2549920Y1239920D02*
X2550000Y1240000D01*
X2570080Y1220000D02*
X2580000D01*
X2596000Y1216000D02*
Y1231000D01*
X2595000Y1215000D02*
X2596000Y1216000D01*
X2570000Y1215000D02*
X2595000D01*
X2590000Y1220000D02*
Y1226000D01*
X2535000Y1165000D02*
X2540000D01*
X2530000Y1170000D02*
X2535000Y1165000D01*
X2530000Y1170000D02*
Y1180000D01*
X2522000Y1188000D02*
X2530000Y1180000D01*
X2569000Y1164000D02*
X2570000Y1165000D01*
X2569000Y1143750D02*
Y1164000D01*
X2568500Y1143250D02*
X2569000Y1143750D01*
X2610000Y1120000D02*
Y1160000D01*
X2540000Y1180000D02*
Y1190000D01*
X2590000Y1175000D02*
X2600000Y1185000D01*
X2562000Y1175000D02*
X2590000D01*
X2562000Y1157000D02*
Y1175000D01*
X2695000Y1185000D02*
X2705000D01*
X2710000Y1180000D01*
X2710000D01*
Y1165000D02*
Y1180000D01*
X2705000Y1160000D02*
X2710000Y1165000D01*
X2665000Y1125000D02*
Y1170000D01*
X2922300Y1142700D02*
X2925000Y1140000D01*
X2743000Y1170500D02*
X2754500D01*
X2720000Y1175000D02*
Y1185000D01*
X2725000Y1190000D02*
Y1195000D01*
X2720000Y1185000D02*
X2725000Y1190000D01*
X2715000Y1185000D02*
X2720000D01*
X2710000Y1190000D02*
X2715000Y1185000D01*
X2685000Y1125000D02*
Y1185000D01*
X2675000Y1130000D02*
Y1185000D01*
X2685000Y1195000D01*
X2699920Y1215000D02*
Y1215080D01*
X2675000Y1194000D02*
Y1205000D01*
X2720000Y1110000D02*
X2725000Y1115000D01*
X2665000Y1184000D02*
X2675000Y1194000D01*
X2605000Y1110000D02*
Y1175000D01*
X2710080Y1235000D02*
Y1244920D01*
X2684920Y1314920D02*
X2685000Y1315000D01*
X2684920Y1305000D02*
Y1314920D01*
X2695000Y1315000D02*
X2695080Y1315080D01*
Y1325000D01*
X2695000Y1335000D02*
X2695080D01*
Y1344920D01*
Y1335000D02*
Y1335000D01*
X2695000Y1335000D02*
X2695000Y1335000D01*
X2695000Y1335000D02*
X2695080D01*
X2725000Y1365000D02*
Y1365000D01*
X2712500Y1377500D02*
X2725000Y1365000D01*
X2568000Y1276000D02*
X2569000Y1275000D01*
X2549000Y1276000D02*
X2568000D01*
X2590000Y1280000D02*
Y1281000D01*
Y1280000D02*
Y1280000D01*
Y1280000D02*
X2590000Y1280000D01*
X2547000Y1274000D02*
X2549000Y1276000D01*
X2546000Y1274000D02*
X2547000D01*
X2578000Y1287000D02*
X2580000Y1285000D01*
X2545000Y1287000D02*
X2578000D01*
X2545000Y1285000D02*
Y1287000D01*
X2432500Y1299000D02*
Y1310000D01*
X2560000Y1250000D02*
X2567000D01*
Y1270000D02*
X2695000D01*
X2565000Y1272000D02*
X2567000Y1270000D01*
X2553000Y1272000D02*
X2565000D01*
X2551000Y1266080D02*
Y1270000D01*
X2549920Y1265000D02*
X2551000Y1266080D01*
Y1270000D02*
X2553000Y1272000D01*
X2545000Y1283000D02*
Y1285000D01*
Y1282000D02*
Y1283000D01*
X2544500Y1282500D02*
X2545000Y1283000D01*
X2534000Y1282500D02*
X2544500D01*
X2544864Y1282006D02*
X2545000Y1282000D01*
Y1281000D02*
Y1282000D01*
X2541500Y1277500D02*
X2545000Y1281000D01*
X2534000Y1277500D02*
X2541500D01*
X2534000Y1287500D02*
X2542500D01*
X2560000Y1250000D02*
X2560000Y1250000D01*
X2647750Y1280250D02*
X2648000Y1280000D01*
X2647750Y1280250D02*
Y1292500D01*
X2642000Y1394000D02*
Y1413000D01*
X2626500Y1415500D02*
X2643000D01*
X2655000Y1280000D02*
X2685000D01*
X2654000Y1281000D02*
Y1289000D01*
Y1281000D02*
X2655000Y1280000D01*
X2544000Y1220000D02*
X2549920D01*
X2542000Y1222000D02*
X2544000Y1220000D01*
X2542000Y1222000D02*
Y1234000D01*
X2512000Y1406000D02*
X2515000Y1403000D01*
X2494000Y1205000D02*
Y1210000D01*
X2488000Y1195000D02*
X2495000D01*
X2503000Y1198000D02*
Y1199000D01*
X2415000Y1340080D02*
Y1350000D01*
Y1340000D02*
Y1340080D01*
X2550000Y1365000D02*
X2572000D01*
X2520000Y1205080D02*
Y1210000D01*
X2517500Y1212500D02*
X2520000Y1210000D01*
X2517500Y1212500D02*
Y1236500D01*
X2522500Y1222500D02*
X2523000Y1222000D01*
X2522500Y1222500D02*
Y1236500D01*
X2695080Y1355000D02*
X2705000D01*
X2685000Y1347000D02*
Y1355000D01*
X2683000Y1345000D02*
X2685000Y1347000D01*
X2695000Y1345000D02*
X2695080Y1344920D01*
X2636000Y1345000D02*
X2665000D01*
X2636000Y1325080D02*
Y1345000D01*
X2635000Y1180000D02*
X2645000D01*
X2628000D02*
X2635000D01*
X2665000Y1345000D02*
X2666000D01*
X2668000Y1353000D02*
X2670000D01*
X2667920Y1353080D02*
X2668000Y1353000D01*
X2629920Y1353080D02*
X2667920D01*
X2634750Y1314750D02*
X2635000Y1315000D01*
X2634750Y1292500D02*
Y1314750D01*
X2641201Y1304001D02*
Y1304001D01*
X2507000Y1224000D02*
X2507500Y1224500D01*
X2507000Y1215000D02*
Y1224000D01*
X2503000Y1211000D02*
X2507000Y1215000D01*
X2512000Y1222000D02*
X2512500Y1222500D01*
X2512000Y1207080D02*
Y1222000D01*
X2510000Y1205080D02*
X2512000Y1207080D01*
X2418000Y1272000D02*
X2426000D01*
X2320000Y1185000D02*
Y1202300D01*
X2330000Y1220000D02*
X2340000Y1230000D01*
X2383000D02*
Y1258000D01*
X2340000Y1230000D02*
X2383000D01*
X2350000Y1253000D02*
X2352000D01*
X2360000Y1245000D01*
X2345000Y1265000D02*
Y1275000D01*
X2375000D01*
X2460000Y1340000D02*
Y1355000D01*
X2309000Y1280000D02*
X2380000D01*
X2309000Y1255000D02*
Y1280000D01*
X2140000Y1004600D02*
Y1024920D01*
Y1000000D02*
Y1004600D01*
X2290000Y1285000D02*
X2387000D01*
X2285000Y1280000D02*
X2290000Y1285000D01*
X2124000Y1280000D02*
X2285000Y1280000D01*
X2581500Y1196750D02*
Y1208500D01*
X2560080Y1230000D02*
X2570080Y1220000D01*
X2550000Y1230000D02*
X2560000Y1220000D01*
X2549920Y1230000D02*
X2550000D01*
Y1240000D02*
X2560000Y1230000D01*
X2549920Y1240000D02*
X2550000D01*
X2580000Y1115080D02*
Y1120000D01*
Y1115000D02*
Y1115080D01*
X2581500Y1131500D02*
Y1143250D01*
X2580000Y1130000D02*
X2581500Y1131500D01*
X2560000Y1130000D02*
X2570000D01*
X2525000D02*
X2560000D01*
Y1115080D02*
Y1130000D01*
X2520000Y1188000D02*
X2522000D01*
X2540000Y1205000D02*
X2546000Y1199000D01*
Y1184000D02*
Y1199000D01*
Y1184000D02*
X2569000D01*
X2595000Y1170000D02*
Y1175000D01*
X2595000Y1170000D02*
X2595000Y1170000D01*
Y1175000D02*
X2600000Y1180000D01*
X2600000D01*
X2605000Y1185000D02*
Y1205000D01*
X2600000Y1180000D02*
X2605000Y1185000D01*
X2641000Y1199000D02*
X2645000Y1195000D01*
X2641000Y1199000D02*
Y1204000D01*
X2645000Y1195000D02*
X2645000Y1195000D01*
X2615000Y1130000D02*
Y1165000D01*
X2595000Y1157000D02*
Y1170000D01*
Y1149000D02*
Y1157000D01*
X2605000Y1205000D02*
X2615000Y1215000D01*
Y1235000D01*
X2594000Y1148000D02*
X2595000Y1149000D01*
X2588000Y1157000D02*
X2595000D01*
X2588000Y1143250D02*
Y1157000D01*
X2609000Y1216000D02*
Y1234000D01*
X2600000Y1207000D02*
X2609000Y1216000D01*
X2602000Y1217000D02*
Y1234000D01*
X2595000Y1210000D02*
X2602000Y1217000D01*
X2595000Y1295000D02*
X2595080Y1295080D01*
Y1310000D01*
X2600000Y1185000D02*
Y1207000D01*
X2562000Y1145000D02*
Y1157000D01*
X2561500Y1157500D02*
X2562000Y1157000D01*
X2555500Y1157500D02*
X2561500D01*
X2555500Y1143250D02*
Y1157500D01*
X2628000Y1180000D02*
Y1204920D01*
X2628000D01*
X2542000Y1213000D02*
X2550000Y1205000D01*
X2535000Y1213000D02*
X2542000D01*
X2569000Y1184000D02*
Y1194000D01*
X2540000Y1205000D02*
Y1205000D01*
X2530080D02*
X2540000D01*
X2530000Y1205080D02*
X2530080Y1205000D01*
X2555500Y1210000D02*
X2562000D01*
X2565000D01*
X2570000Y1215000D01*
X2562000Y1199000D02*
Y1210000D01*
X2555500Y1196750D02*
Y1210000D01*
X2549920Y1239920D02*
Y1240000D01*
X2540000Y1299000D02*
X2541000D01*
X2543000Y1297000D01*
X2549000D01*
X2534000Y1293000D02*
X2535000D01*
X2534000D02*
Y1309000D01*
X2547000Y1322000D01*
X2517500Y1307500D02*
X2521000Y1311000D01*
X2517500Y1293500D02*
Y1307500D01*
X2523000Y1286000D02*
X2526000D01*
X2552000Y1322000D02*
X2555000Y1325000D01*
X2547000Y1322000D02*
X2552000D01*
X2540000Y1308000D02*
X2543000Y1305000D01*
X2549920D01*
X2528000Y1297000D02*
Y1308000D01*
X2545000Y1325000D02*
Y1329920D01*
X2528000Y1308000D02*
X2545000Y1325000D01*
X2555000D02*
Y1329920D01*
X2549920Y1295000D02*
Y1296080D01*
X2549000Y1297000D02*
X2549920Y1296080D01*
X2560000Y1313000D02*
X2577000D01*
X2577000Y1313000D01*
Y1295000D02*
X2580000D01*
X2570000Y1294920D02*
X2579920D01*
X2560080Y1295080D02*
X2570000Y1305000D01*
X2560080Y1295000D02*
Y1295080D01*
X2550000Y1305000D02*
X2560000Y1295000D01*
X2549920Y1305000D02*
X2550000D01*
X2589200Y1226800D02*
X2590000Y1226000D01*
X2545000Y1360080D02*
Y1406000D01*
X2535000Y1360000D02*
X2545000D01*
X2655000Y1305000D02*
X2665000D01*
X2590000Y1280000D02*
X2590000Y1280000D01*
X2640000Y1360000D02*
Y1367000D01*
X2621000Y1325080D02*
Y1354000D01*
Y1325080D02*
X2623000Y1327080D01*
X2595000Y1385000D02*
X2605000D01*
X2560080Y1265000D02*
X2580000D01*
X2560040Y1264960D02*
X2560080Y1265000D01*
X2575000Y1125000D02*
X2580000Y1120000D01*
X2545000Y1119920D02*
X2560000Y1104920D01*
X2530000Y1120000D02*
X2532300Y1117700D01*
X2545000D01*
Y1119920D02*
Y1120000D01*
X2560080Y1115080D02*
X2570000D01*
X2570000Y1095000D02*
Y1104920D01*
X2570000Y1095000D02*
Y1104920D01*
X2534920Y1395000D02*
Y1395080D01*
X2530000Y1400000D02*
X2534920Y1395080D01*
X2530000Y1400000D02*
Y1405000D01*
X2535000Y1360080D02*
X2545000D01*
X2595000Y1210000D02*
Y1210000D01*
X2588000D02*
X2595000D01*
X2588000Y1196750D02*
Y1210000D01*
X2595000D02*
X2595000D01*
X2595000D02*
X2595000D01*
X2595000Y1210000D02*
X2595000Y1210000D01*
X2595000Y1202000D02*
Y1210000D01*
X2575000Y1125000D02*
Y1143250D01*
X2395000Y1210000D02*
X2420000D01*
X2393000Y1208000D02*
X2395000Y1210000D01*
X2392000Y1208000D02*
X2393000D01*
X2432500Y1222500D02*
Y1231000D01*
X2420000Y1210000D02*
X2432500Y1222500D01*
X2480000Y1140000D02*
X2540000D01*
Y1140000D02*
Y1140000D01*
Y1140000D02*
X2545000Y1135000D01*
X2480000D02*
X2535000D01*
X2400000Y1170000D02*
Y1190000D01*
X2400080Y1190080D01*
X2410000D01*
X2735000Y1375000D02*
Y1402000D01*
X2580000Y1095000D02*
Y1104920D01*
X2645000Y1180000D02*
Y1195000D01*
X2645000Y1195000D02*
X2665000D01*
X2650000Y1215000D02*
Y1225000D01*
X2654200Y1220800D02*
X2655000Y1220000D01*
X2654200Y1220800D02*
Y1238000D01*
X2655000Y1280000D02*
X2655000D01*
X2575000Y1196750D02*
Y1209000D01*
X2595000Y1202000D02*
X2595000Y1202000D01*
X2480000Y1145000D02*
X2540000D01*
X2473000Y1147000D02*
X2480000Y1140000D01*
X2322000Y1147000D02*
X2473000D01*
X2641000Y1226000D02*
Y1238000D01*
Y1214000D02*
Y1226000D01*
X2472000Y1143000D02*
X2480000Y1135000D01*
X2328000Y1143000D02*
X2472000D01*
X2410080Y1190080D02*
X2420000Y1200000D01*
X2410000Y1190080D02*
X2410080D01*
X2428500Y1179920D02*
Y1180500D01*
X2429920Y1179920D02*
X2430000Y1180000D01*
X2140000Y1473000D02*
Y1475000D01*
X2410000Y1222700D02*
Y1238000D01*
Y1220000D02*
Y1222700D01*
X2477500Y1377500D02*
X2485000Y1385000D01*
X2483000Y1320000D02*
X2485000Y1322000D01*
Y1329000D01*
X2493920Y1370080D02*
X2494000Y1370000D01*
X2485000Y1370080D02*
X2493920D01*
X2478000Y1360000D02*
X2478080Y1359920D01*
X2485000D01*
Y1385000D02*
Y1407300D01*
X2533000Y1437000D02*
Y1499000D01*
X2485000Y1422700D02*
Y1435000D01*
Y1420000D02*
Y1422700D01*
X2470000Y1329920D02*
Y1330000D01*
Y1310000D02*
Y1329920D01*
Y1310000D02*
X2472500Y1307500D01*
X2460000Y1319000D02*
Y1329000D01*
Y1319000D02*
X2461000Y1318000D01*
Y1313000D02*
Y1318000D01*
Y1313000D02*
X2467500Y1306500D01*
Y1299000D02*
Y1306500D01*
X2457500Y1300500D02*
Y1311500D01*
X2450000Y1325000D02*
X2451500Y1323500D01*
Y1317500D02*
X2457500Y1311500D01*
X2451500Y1317500D02*
Y1323500D01*
X2452000Y1309000D02*
X2452500Y1308500D01*
Y1299000D02*
Y1308500D01*
X2450000Y1325000D02*
Y1330000D01*
X2445000Y1324000D02*
X2447000Y1322000D01*
Y1307000D02*
Y1322000D01*
Y1307000D02*
X2447500Y1306500D01*
X2445000Y1325000D02*
Y1349000D01*
Y1325000D02*
X2446000D01*
X2435080Y1349920D02*
X2445000D01*
X2439920Y1360080D02*
X2444920D01*
X2439920D02*
X2440000Y1360000D01*
X2425000Y1350000D02*
X2434920Y1340080D01*
X2435000D01*
X2440000Y1320000D02*
X2442500Y1317500D01*
X2440000Y1320000D02*
X2440000D01*
X2430000D02*
X2440000D01*
X2425000Y1329920D02*
Y1330000D01*
Y1325000D02*
Y1329920D01*
Y1325000D02*
X2430000Y1320000D01*
X2425000Y1329920D02*
X2435000D01*
X2442500Y1299500D02*
Y1317500D01*
X2415000Y1325000D02*
Y1327420D01*
Y1325000D02*
X2425000Y1315000D01*
X2437500D01*
Y1299000D02*
Y1315000D01*
X2430000Y1310000D02*
X2432500D01*
X2420000D02*
X2430000D01*
X2405000Y1325000D02*
X2420000Y1310000D01*
X2405000Y1340080D02*
X2414920D01*
X2415000Y1350000D02*
Y1360000D01*
X2420000Y1360080D02*
X2420000D01*
X2422000Y1360000D01*
X2415269Y1360269D02*
X2420000Y1360080D01*
X2415269Y1360269D02*
X2420000Y1360080D01*
X2415008Y1360280D02*
X2415269Y1360269D01*
X2415269Y1360269D01*
X2415000Y1360000D02*
X2415269Y1360269D01*
X2405025Y1360693D02*
X2405025D01*
X2405000Y1360694D02*
X2405025Y1360693D01*
X2405000Y1329920D02*
Y1330000D01*
Y1325000D02*
Y1329920D01*
Y1360080D02*
X2410000D01*
X2388000D02*
X2405000D01*
Y1360694D02*
Y1370000D01*
X2397000Y1350000D02*
X2405000D01*
X2397000Y1328000D02*
Y1350000D01*
Y1328000D02*
X2415000Y1310000D01*
X2496000Y1359000D02*
Y1361000D01*
X2385000Y1336000D02*
X2389000D01*
X2419000Y1277500D02*
X2426000D01*
X2519000Y1319000D02*
X2520000Y1320000D01*
X2515000Y1315000D02*
X2519000Y1319000D01*
X2509500Y1204500D02*
X2510000Y1204000D01*
X2507500Y1224500D02*
Y1236500D01*
X2535000Y1360000D02*
Y1360080D01*
X2410017Y1360486D02*
X2415008Y1360280D01*
X2515000Y1311000D02*
Y1315000D01*
X2512500Y1308500D02*
X2515000Y1311000D01*
X2512500Y1293500D02*
Y1308500D01*
X2511000Y1313000D02*
Y1317000D01*
X2507500Y1309500D02*
X2511000Y1313000D01*
X2507500Y1293500D02*
Y1309500D01*
X2515000Y1350000D02*
X2515080Y1349920D01*
X2514000Y1349000D02*
X2515000D01*
X2514000D02*
X2515000Y1350000D01*
X2507000Y1315000D02*
Y1319000D01*
X2502500Y1310500D02*
X2507000Y1315000D01*
X2502500Y1293500D02*
Y1310500D01*
X2503000Y1318000D02*
Y1322000D01*
X2498000Y1313000D02*
X2503000Y1318000D01*
X2497500Y1293500D02*
X2498000Y1313000D01*
X2505000Y1324000D02*
Y1359000D01*
X2496000D02*
X2505000D01*
X2496000Y1351000D02*
X2497000Y1350000D01*
X2493000Y1321000D02*
Y1330000D01*
X2500840Y1350000D02*
X2500920Y1349920D01*
X2497000Y1350000D02*
X2500840D01*
X2500920Y1329920D02*
Y1349920D01*
X2495000Y1329920D02*
X2500920D01*
X2503000Y1322000D02*
X2505000Y1324000D01*
X2507000Y1319000D02*
X2509000Y1321000D01*
X2511000Y1317000D02*
X2514000Y1320000D01*
X2509000Y1349000D02*
X2514000D01*
X2509000Y1321000D02*
Y1349000D01*
X2514000Y1320000D02*
Y1329000D01*
X2525000Y1323000D02*
Y1329920D01*
X2545000Y1340080D02*
Y1350000D01*
Y1360000D01*
X2550000Y1355000D02*
X2555000D01*
X2545000Y1339000D02*
Y1340080D01*
X2555000D02*
Y1355000D01*
X2600000D02*
Y1360000D01*
X2585000Y1355000D02*
X2600000D01*
X2615000Y1345000D02*
X2616000D01*
X2600000D02*
X2615000D01*
X2735000Y1402000D02*
X2754500Y1421500D01*
X2715000Y1435000D02*
X2739920D01*
X2674920Y1430080D02*
X2680000Y1425000D01*
X2675000D02*
X2680000D01*
X2660000D02*
X2675000D01*
X2720000Y1410000D02*
X2730000Y1400000D01*
X2710080Y1410000D02*
X2720000D01*
X2730000Y1395000D02*
Y1400000D01*
X2585000Y1355080D02*
Y1365000D01*
Y1355000D02*
Y1355080D01*
X2535000Y1323000D02*
Y1329920D01*
X2525000Y1339000D02*
X2526080Y1340080D01*
X2535000D01*
X2589200Y1226800D02*
Y1238000D01*
X2710080Y1215000D02*
Y1225000D01*
Y1235000D01*
X2724920Y1215000D02*
Y1225000D01*
Y1235000D01*
X2710080Y1225000D02*
X2724920D01*
X2725000D01*
X2710080Y1195080D02*
Y1205000D01*
Y1215000D01*
X2724920Y1195000D02*
Y1205000D01*
Y1215000D01*
X2710000Y1205000D02*
X2710080D01*
X2724920D01*
X2699920Y1229920D02*
Y1235000D01*
Y1229920D02*
X2700000Y1230000D01*
X2630000Y1345000D02*
X2636000D01*
X2659920Y1325080D02*
X2660000Y1325000D01*
X2650000Y1325080D02*
X2659920D01*
X2629920Y1353080D02*
Y1359920D01*
X2610080Y1360000D02*
X2629840D01*
X2610000D02*
X2610080D01*
X2629920Y1359920D02*
Y1360000D01*
X2600000Y1345080D02*
Y1355000D01*
X2615000Y1375000D02*
X2615000D01*
X2623000Y1367000D01*
X2640000D01*
X2585000Y1330080D02*
Y1337000D01*
X2578000Y1320000D02*
Y1345000D01*
X2620000Y1355000D02*
X2621000Y1354000D01*
X2595000Y1320000D02*
X2595080Y1319920D01*
Y1310000D02*
Y1319920D01*
X2585000Y1319920D02*
Y1320000D01*
Y1305000D02*
X2589250Y1300750D01*
Y1292500D02*
Y1300750D01*
X2628250Y1334250D02*
X2630000Y1336000D01*
X2628250Y1292500D02*
Y1334250D01*
X1690000Y1255000D02*
X1700000D01*
X2630000Y1336000D02*
Y1336000D01*
X2641200Y1304200D02*
X2644000Y1307000D01*
X2641000Y1304000D02*
X2641200Y1304200D01*
X2795000Y1385000D02*
Y1405000D01*
X2605000Y1385000D02*
X2615000Y1375000D01*
X2605000Y1385000D02*
Y1385000D01*
X2604500Y1375500D02*
X2610000Y1370000D01*
X2594500Y1375500D02*
X2604500D01*
X2655000Y1375000D02*
X2675000D01*
X2643000D02*
X2655000D01*
X2625000D02*
X2643000D01*
X2595000Y1321000D02*
X2603920D01*
X2608000Y1325080D01*
X2710000Y1400000D02*
X2720000D01*
X2564500Y1375500D02*
X2594500D01*
X2565000Y1395000D02*
X2585000D01*
X2560080Y1390080D02*
X2565000Y1395000D01*
X2560000Y1390080D02*
X2560080D01*
X2716500Y1421500D02*
X2735500D01*
X2755000Y1425000D02*
Y1430000D01*
X2750080Y1434920D02*
X2755000Y1430000D01*
X2750080Y1434920D02*
Y1435000D01*
X2760000Y1400000D02*
X2775000Y1415000D01*
X2745000Y1400000D02*
X2760000D01*
X2820000Y1400080D02*
Y1410000D01*
Y1400000D02*
Y1400080D01*
X2715000Y1435000D02*
X2716500Y1436500D01*
X2775000Y1415000D02*
X2790000D01*
X2483000Y1305000D02*
Y1320000D01*
X2482500Y1304500D02*
X2483000Y1305000D01*
X2482500Y1298500D02*
Y1304500D01*
X3085000Y1265000D02*
X3090000Y1270000D01*
X2880000Y1127300D02*
Y1130000D01*
Y1125000D02*
Y1127300D01*
X2625500Y1415500D02*
X2626500D01*
X2650000Y1314920D02*
Y1315000D01*
Y1307000D02*
Y1314920D01*
X2647750Y1304750D02*
X2650000Y1307000D01*
X2647750Y1292500D02*
Y1304750D01*
X2585000Y1385000D02*
X2585000Y1385000D01*
X2571500Y1385000D02*
X2585000D01*
X2570000Y1420000D02*
Y1425000D01*
Y1420000D02*
X2575000Y1415000D01*
X2710000Y1410000D02*
X2710080D01*
X2685000D02*
X2699920D01*
X2699840Y1400000D02*
X2700000D01*
X2685080D02*
X2699840D01*
X2660000Y1395080D02*
X2660080D01*
X2665000Y1400000D01*
X2674920D01*
X2674000Y1434000D02*
X2675000Y1435000D01*
X2643000Y1434000D02*
X2674000D01*
X2650000Y1415000D02*
X2657840D01*
X2650000D02*
Y1425000D01*
X2674920Y1424920D02*
X2675000Y1425000D01*
X2674920Y1410000D02*
Y1424920D01*
X2675000Y1385000D02*
Y1385000D01*
Y1380000D02*
Y1385000D01*
X2674920Y1385080D02*
X2675000Y1385000D01*
X2674920Y1385080D02*
Y1400000D01*
X2675000D01*
Y1375000D02*
Y1380000D01*
X2635000Y1385000D02*
X2655000D01*
X2625000Y1425000D02*
X2650000D01*
X2625000Y1425000D02*
X2625000Y1425000D01*
X2615000Y1385000D02*
X2635000D01*
Y1405000D01*
X2620000D02*
X2635000D01*
X2615000Y1410000D02*
X2620000Y1405000D01*
X2615000Y1410000D02*
Y1425000D01*
X2625000D01*
X2775000Y1420000D02*
X2845000D01*
X2780000Y1410000D02*
X2810000D01*
X2770000Y1425000D02*
X2840000D01*
X2770000Y1435000D02*
X2815000D01*
X2775000Y1430000D02*
X2800000D01*
X2524500Y1277500D02*
X2534000D01*
X2530000Y960000D02*
X2535000D01*
X2545700Y1407300D02*
X2546000Y1407000D01*
X2545000Y1435000D02*
X2545000Y1435000D01*
X2537000Y1430000D02*
Y1500000D01*
X2533000Y1426000D02*
X2537000Y1430000D01*
X2533000Y1425000D02*
Y1426000D01*
X2529000Y1441000D02*
X2529000Y1441000D01*
X2515000Y1441000D02*
X2529000D01*
X2515000Y1425000D02*
Y1441000D01*
X2500000Y1425000D02*
Y1445000D01*
X2525000Y1445000D02*
Y1452000D01*
X2525000Y1445000D02*
X2525000Y1445000D01*
X2500000Y1445000D02*
X2525000D01*
X2500000Y1090000D02*
X2520000D01*
X2485000D02*
X2500000D01*
X2544000Y1240000D02*
X2549920D01*
X2541500Y1242500D02*
X2544000Y1240000D01*
X2534000Y1242500D02*
X2541500D01*
X2395000Y1287000D02*
X2405000D01*
X2392000Y1290000D02*
X2395000Y1287000D01*
X2393000Y1232000D02*
X2399000D01*
X2472500Y1301500D02*
Y1307500D01*
X2467500Y1298500D02*
Y1299000D01*
X2487500Y1293500D02*
Y1315500D01*
X2492500Y1293500D02*
Y1314500D01*
X2525000Y1251000D02*
X2528500Y1247500D01*
X2534000D01*
X2392000Y1321000D02*
X2408000Y1305000D01*
X2391700Y1321000D02*
X2392000D01*
X2415000Y1233000D02*
X2419500Y1237500D01*
X2340000Y1343000D02*
X2351000D01*
X2350000Y1310000D02*
X2395000Y1310000D01*
X2340000Y1310000D02*
X2350000D01*
X2395000Y1310000D02*
X2400000Y1305000D01*
X2418000Y1282000D02*
X2427000D01*
X2408000Y1292000D02*
X2418000Y1282000D01*
X2396000Y1292000D02*
X2408000D01*
X2388000Y1300000D02*
X2396000Y1292000D01*
X2290000Y1290000D02*
X2392000D01*
X2392000Y1283000D02*
X2402000D01*
X2390000Y1285000D02*
X2392000Y1283000D01*
X2399000Y1274000D02*
X2399000Y1274000D01*
X2393000Y1274000D02*
X2399000D01*
X2400000Y1243000D02*
Y1251000D01*
X2405000Y1272000D02*
X2418000D01*
X2400000Y1267000D02*
X2405000Y1272000D01*
X2400000Y1267000D02*
X2400000D01*
X2418000Y1272000D02*
X2418000Y1272000D01*
X2396000Y1263000D02*
X2400000Y1267000D01*
X2388000Y1263000D02*
X2396000D01*
X2394000Y1254000D02*
X2400000Y1260000D01*
X2407300D01*
X2411000Y1264000D02*
X2412000Y1263000D01*
X2393000Y1254000D02*
X2394000D01*
X2392000Y1253000D02*
X2393000Y1254000D01*
X2407300Y1260000D02*
X2410000Y1262700D01*
X2472500Y1211500D02*
Y1231000D01*
X2472000Y1211000D02*
X2472500Y1211500D01*
X2472000Y1195000D02*
Y1211000D01*
X2467615Y1215616D02*
Y1230267D01*
X2465000Y1213001D02*
X2467615Y1215616D01*
X2465000Y1205080D02*
Y1213001D01*
X2485000Y1075000D02*
Y1090000D01*
Y1340080D02*
Y1351000D01*
X2486000Y1341000D02*
X2486920Y1340080D01*
X2495000D01*
X2487500Y1315500D02*
X2493000Y1321000D01*
X2492500Y1314500D02*
X2498000Y1320000D01*
Y1321000D01*
X2488000Y1195000D02*
Y1210000D01*
X2549000Y1251000D02*
X2550000Y1252000D01*
X2544000Y1251000D02*
X2549000D01*
X2542500Y1252500D02*
X2544000Y1251000D01*
X2534000Y1252500D02*
X2542500D01*
X2520000Y1194920D02*
Y1195000D01*
Y1188000D02*
Y1194920D01*
X2530000Y1205080D02*
Y1215000D01*
Y1205000D02*
Y1205080D01*
Y1215000D02*
X2535000Y1220000D01*
X2530000Y1194920D02*
Y1195000D01*
Y1188000D02*
Y1194920D01*
X2510000Y1188000D02*
Y1194920D01*
X2520000Y1205000D02*
Y1205080D01*
X2512500Y1222500D02*
Y1236500D01*
X2510000Y1194920D02*
Y1195000D01*
X2487000Y1211000D02*
X2488000Y1210000D01*
X2492000Y1212000D02*
X2494000Y1210000D01*
X2492000Y1212000D02*
Y1220000D01*
X2487000Y1211000D02*
Y1215000D01*
X2525000Y1329920D02*
Y1330000D01*
X2523920Y1340080D02*
X2524000Y1340000D01*
X2515000Y1340080D02*
X2523920D01*
X2515000Y1360080D02*
Y1367000D01*
X2515080Y1349920D02*
X2525000D01*
X2544000Y1265000D02*
X2548000D01*
X2500000Y1395000D02*
Y1406000D01*
X2515000Y1395000D02*
Y1403000D01*
X2487000Y1215000D02*
Y1224000D01*
X2487500Y1224500D01*
X2535000Y1220000D02*
Y1237000D01*
X2534000Y1262500D02*
X2541500D01*
X2435000Y1245000D02*
X2470000D01*
X2447500Y1299000D02*
Y1306500D01*
X2387700Y1325000D02*
X2391700Y1321000D01*
X2525000Y1360000D02*
X2535000Y1350000D01*
X2524000Y1277000D02*
X2524500Y1277500D01*
X2462500Y1292500D02*
X2463000Y1292000D01*
X2462500Y1292500D02*
Y1299000D01*
X2375000Y1321000D02*
Y1325000D01*
X2380000Y1316000D02*
X2387000D01*
X2375000Y1321000D02*
X2380000Y1316000D01*
X2485000Y1340000D02*
Y1340080D01*
X2470000D02*
Y1360000D01*
X2426000Y1292500D02*
Y1298000D01*
X2415000Y1292000D02*
Y1310000D01*
X2385000Y1325000D02*
X2387700D01*
X2410017Y1360486D02*
X2410017D01*
X2389000Y1329000D02*
Y1336000D01*
X2389000Y1329000D02*
X2389000D01*
X2415000Y1292000D02*
X2419500Y1287500D01*
X2426000D01*
X2402000Y1283000D02*
X2405000Y1280000D01*
X2387000Y1285000D02*
X2390000D01*
X2419000Y1277000D02*
Y1277500D01*
X2521000Y1277000D02*
X2521500Y1277500D01*
X2523000Y1267000D02*
X2523500Y1267500D01*
X2534000D01*
X2487500Y1224500D02*
Y1235000D01*
X2492000Y1220000D02*
X2492500Y1235000D01*
X2348000Y1255000D02*
X2350000Y1253000D01*
X2296000Y1255000D02*
X2309000D01*
X2419500Y1237500D02*
X2426000D01*
X2416000Y1239000D02*
X2419500Y1242500D01*
X2426000D01*
X2411000Y1239000D02*
X2416000D01*
X2410000Y1238000D02*
X2411000Y1239000D01*
X2405000Y1234000D02*
Y1243000D01*
X2387000Y1285000D02*
X2387000Y1285000D01*
X2383000Y1258000D02*
X2388000Y1263000D01*
X2400000Y1251000D02*
X2404000Y1255000D01*
X2417000D01*
X2387000Y1243000D02*
X2400000D01*
X2387000Y1220000D02*
Y1243000D01*
X2405000Y1280000D02*
X2406000D01*
X2405000Y1243000D02*
X2407000Y1245000D01*
X2413000Y1250000D02*
X2418000D01*
X2420500Y1252500D01*
X2426000D01*
X2411000Y1262000D02*
Y1262500D01*
X2426000D01*
X2419500Y1257500D02*
X2426000D01*
X2417000Y1255000D02*
X2419500Y1257500D01*
X2280000Y1300000D02*
X2290000Y1290000D01*
X2310000Y1300000D02*
X2388000D01*
X2515000Y1512000D02*
X2524000Y1503000D01*
X2505000Y1512000D02*
X2515000D01*
X2505000Y1500000D02*
Y1512000D01*
X2533000Y1515000D02*
Y1558000D01*
Y1515000D02*
X2534091Y1510909D01*
X2537000Y1500000D01*
X2529000Y1513000D02*
Y1558000D01*
Y1513000D02*
X2530200Y1508800D01*
X2533000Y1499000D01*
X2513000Y1520000D02*
X2527000Y1506000D01*
X2529000Y1441000D02*
Y1499000D01*
X2527000Y1506000D02*
X2529000Y1499000D01*
X2525000Y1497000D02*
Y1499000D01*
Y1497000D02*
X2525000Y1497000D01*
Y1450000D02*
Y1497000D01*
X2524000Y1503000D02*
X2525000Y1499000D01*
X2533000Y1558000D02*
Y1564000D01*
X2534000Y1565000D01*
X2505000Y1520000D02*
X2513000D01*
X2536000Y1557000D02*
X2537000Y1556000D01*
X2530000Y1558000D02*
X2533000D01*
X2390000Y1305000D02*
X2391000Y1304000D01*
X2280000Y1305000D02*
X2290000Y1295000D01*
X2385000D01*
X2350000Y1217700D02*
Y1220000D01*
Y1215000D02*
Y1217700D01*
X2330000Y1185000D02*
Y1220000D01*
X2320000Y1185000D02*
X2330000D01*
X2545000Y1422700D02*
Y1435000D01*
X2340000Y1310000D02*
X2341000D01*
X2340000Y1310000D02*
X2340000Y1310000D01*
X2340000Y1310000D02*
Y1343000D01*
X2315000Y1374000D02*
X2335000D01*
Y1304000D02*
Y1374000D01*
X2310000Y1300000D02*
Y1340000D01*
X2320000Y1327700D02*
Y1340000D01*
X2605000Y1425000D02*
Y1435000D01*
X2605000Y1410000D02*
Y1422500D01*
Y1410000D02*
X2620000Y1395000D01*
X2625000D01*
X2595000Y1410000D02*
Y1415000D01*
Y1410000D02*
X2603500Y1401500D01*
Y1385000D02*
Y1401500D01*
X2525000Y1027000D02*
Y1085000D01*
X2500000Y1090000D02*
Y1100000D01*
X2520000Y1090000D02*
X2525000Y1085000D01*
X2505000Y1027000D02*
X2525000D01*
X965000Y1540000D02*
Y1575000D01*
X2188000Y1510000D02*
Y1524000D01*
X1690000Y1265080D02*
Y1295000D01*
X968000Y1050000D02*
X980000D01*
X962000Y1055000D02*
X995000D01*
X962000Y1012000D02*
Y1055000D01*
X960000Y1010000D02*
X962000Y1012000D01*
X280000Y1330000D02*
X295000Y1345000D01*
X280000Y1310080D02*
Y1330000D01*
X264920Y1295000D02*
X280000Y1310080D01*
X305000Y1455000D02*
Y1495000D01*
X290080D02*
X305000D01*
X1700000Y1255000D02*
Y1280000D01*
X960000Y1527080D02*
Y1535000D01*
X965000Y1540000D01*
X980000Y1525000D02*
X980000D01*
X970080D02*
X980000D01*
X980000Y1525000D01*
X968000Y1047000D02*
Y1050000D01*
Y1036000D02*
Y1047000D01*
X968000Y1047000D01*
Y1013000D02*
Y1047000D01*
X295000Y1345000D02*
X300000D01*
X305000Y1210000D02*
X305160Y1210160D01*
X275080Y1265000D02*
X285000D01*
X275000D02*
X275080D01*
X285000D02*
X295000D01*
X279920Y1495000D02*
X280000D01*
X165000D02*
X279920D01*
X290000Y1035000D02*
Y1096000D01*
X279920Y1035000D02*
X280000D01*
X165000D02*
X279920D01*
X290000Y1096000D02*
X305000D01*
X3068500Y1280000D02*
X3080000D01*
X968000Y1527080D02*
X970080Y1525000D01*
X2988000Y1310000D02*
X3008000D01*
X2988000Y1298000D02*
Y1310000D01*
X3035000D02*
X3064920D01*
X3069920Y1305000D01*
X3055000Y1280000D02*
X3055000Y1280000D01*
X3068500D01*
X3060000Y1240000D02*
Y1253000D01*
X3058080D02*
X3060000D01*
X3015000Y1240000D02*
X3060000D01*
X2925000Y1157000D02*
Y1157300D01*
X2594500Y1434500D02*
X2595000Y1435000D01*
X2605000D01*
X2948920Y1210000D02*
X2953920D01*
X2948920Y1200000D02*
X2953920D01*
X2948920Y1190000D02*
Y1200000D01*
Y1210000D01*
Y1220000D01*
X3038000Y1253000D02*
X3047920D01*
X3038000D02*
X3038020Y1253000D01*
X3038000Y1253000D02*
Y1253040D01*
X3038000Y1253000D02*
X3038000D01*
X3037960Y1253041D02*
X3038000Y1253040D01*
X3037960Y1253041D02*
X3038000Y1253000D01*
Y1253040D02*
Y1283000D01*
X2925000Y1140000D02*
Y1142700D01*
X3018000Y1273000D02*
X3018000Y1273000D01*
X3018000Y1263000D02*
Y1273000D01*
X3053000Y1283000D02*
X3053080Y1282920D01*
X2615000Y1345000D02*
Y1345080D01*
Y1334920D02*
Y1337000D01*
Y1333000D02*
Y1334920D01*
Y1305000D02*
Y1333000D01*
Y1304000D02*
Y1305000D01*
X2610000Y1325000D02*
X2610080Y1325080D01*
X2630000Y1344000D02*
X2630000Y1344000D01*
X305000Y1435000D02*
X305000Y1435000D01*
X1690000Y1265000D02*
Y1265080D01*
X2505000Y1520000D02*
Y1541000D01*
Y1543000D01*
X2515000Y1102300D02*
Y1105000D01*
X2665000Y1195000D02*
Y1204920D01*
X959920Y1525000D02*
X962000Y1527080D01*
X2534000Y1559000D02*
X2535000Y1558000D01*
X2534000Y1559000D02*
X2536000Y1561000D01*
X2515000Y1120000D02*
Y1130000D01*
X2515000Y1130000D01*
X2500000Y1120000D02*
X2500000Y1120000D01*
X2500000Y1120000D02*
Y1130000D01*
X968000Y1013000D02*
X970000Y1011000D01*
X2589920Y1295080D02*
X2590000D01*
X2154920Y1510000D02*
X2188000D01*
X2154920Y1500000D02*
Y1510000D01*
X2466000Y1389000D02*
Y1389300D01*
Y1494000D02*
Y1494300D01*
X2469000Y1513000D02*
X2470000Y1514000D01*
X2647700Y1227300D02*
X2650000Y1225000D01*
X2647700Y1227300D02*
Y1238000D01*
X2661000Y1229000D02*
X2665000Y1225000D01*
X2660700Y1229300D02*
X2661000Y1229000D01*
Y1234000D01*
X2660700Y1229300D02*
Y1238000D01*
X2665000Y1215080D02*
Y1225000D01*
X2622000Y1180000D02*
X2628000D01*
X2315000Y1140000D02*
X2322000Y1147000D01*
X2304000Y1119000D02*
X2328000Y1143000D01*
X2622000Y1179920D02*
Y1180000D01*
X2635000Y1179920D02*
Y1180000D01*
X2622000Y1179920D02*
Y1180000D01*
X2634000Y1189000D02*
X2634700D01*
X2641000Y1238000D02*
X2641200D01*
X2190000Y1438000D02*
X2315000D01*
Y1374000D02*
Y1438000D01*
X2312000Y1154000D02*
X2313000D01*
X2255000Y1145000D02*
X2304000D01*
X2255000D02*
Y1175000D01*
X2280000D01*
X2280080Y1175080D01*
Y1185000D01*
X2300000Y1125000D02*
X2315000Y1140000D01*
X2171000Y1125000D02*
X2300000D01*
X2315000Y1140000D02*
X2315000D01*
X2269920Y1185000D02*
X2270000D01*
X2250000D02*
X2269920D01*
X2250000Y1140000D02*
Y1185000D01*
X2180000Y1030000D02*
X2191000Y1041000D01*
Y1071000D01*
X2165080Y1030000D02*
X2180000D01*
X2155000Y1040000D02*
X2180000D01*
X2185000Y1045000D01*
X2140000Y1024920D02*
Y1025000D01*
X2220000Y1405000D02*
X2247000D01*
Y1345000D02*
Y1405000D01*
Y1345000D02*
X2269920D01*
X2255000Y1305000D02*
X2280000D01*
X2255000Y1330000D02*
X2280000D01*
X2255000Y1305000D02*
Y1330000D01*
X2165000Y1405000D02*
X2220000D01*
X2165000D02*
Y1438000D01*
X2186000D01*
Y1490000D01*
X2155000D02*
X2186000D01*
X2154920Y1490080D02*
X2155000Y1490000D01*
X2154920Y1490080D02*
Y1500000D01*
X2190000Y1438000D02*
Y1500000D01*
X2165080D02*
X2190000D01*
X2230000Y1300000D02*
X2280000D01*
X2175000Y1119000D02*
X2304000D01*
X2124000Y1270000D02*
Y1280000D01*
X2171000Y1084000D02*
Y1125000D01*
Y1084000D02*
X2185000Y1070000D01*
X2175000Y1087000D02*
Y1119000D01*
Y1087000D02*
X2191000Y1071000D01*
X2185000Y1045000D02*
Y1070000D01*
X3510000Y915000D02*
Y920000D01*
X2505000Y1500000D02*
X2508000Y1497000D01*
X2505000Y1046000D02*
Y1048000D01*
Y1027000D02*
Y1046000D01*
X2311000Y1342000D02*
X2320000D01*
X2310000D02*
X2311000D01*
X2310000Y1341000D02*
X2311000Y1342000D01*
X2310000Y1341000D02*
Y1342000D01*
X2466000Y1123000D02*
X2467000Y1122000D01*
X2519000Y1045000D02*
X2521000D01*
X2105000Y1264000D02*
X2146000D01*
X2145000Y1265000D02*
X2146000Y1264000D01*
X2295000Y1350080D02*
Y1365000D01*
X2294000Y1209000D02*
Y1210080D01*
X2295000Y1190080D02*
Y1210000D01*
Y1325000D02*
Y1339920D01*
Y1165000D02*
Y1179920D01*
X2140000Y1525000D02*
X2141000D01*
X2140000Y1505080D02*
Y1525000D01*
Y1475000D02*
Y1494920D01*
Y1473000D02*
X2141000D01*
X2140000Y1035080D02*
Y1055000D01*
X2165000Y1052000D02*
X2166000D01*
X2336000Y1080000D02*
X2340000Y1084000D01*
D16*
X482000Y1350000D02*
D03*
X418000D02*
D03*
X482000Y1265000D02*
D03*
X418000D02*
D03*
X482000Y1180000D02*
D03*
X418000D02*
D03*
D17*
X2810000Y1254920D02*
D03*
Y1265080D02*
D03*
Y1240080D02*
D03*
Y1229920D02*
D03*
X2805000Y1289920D02*
D03*
Y1300080D02*
D03*
X2775000D02*
D03*
Y1289920D02*
D03*
X2795000Y1300080D02*
D03*
Y1289920D02*
D03*
X2775000Y1199920D02*
D03*
Y1210080D02*
D03*
X2795000D02*
D03*
Y1199920D02*
D03*
X2570000Y1240080D02*
D03*
Y1229920D02*
D03*
Y1305080D02*
D03*
Y1294920D02*
D03*
X2560000Y1115080D02*
D03*
Y1104920D02*
D03*
X2570000Y1115080D02*
D03*
Y1104920D02*
D03*
X2580000Y1115080D02*
D03*
Y1104920D02*
D03*
X2410000Y1179920D02*
D03*
Y1190080D02*
D03*
X2485000Y1359920D02*
D03*
Y1370080D02*
D03*
X2495000Y1360080D02*
D03*
Y1349920D02*
D03*
X2545000Y1340080D02*
D03*
Y1329920D02*
D03*
X2535000D02*
D03*
Y1340080D02*
D03*
X2585000Y1319920D02*
D03*
Y1330080D02*
D03*
X2560000Y1390080D02*
D03*
Y1379920D02*
D03*
X2585000Y1344920D02*
D03*
Y1355080D02*
D03*
X2465000Y1205080D02*
D03*
Y1194920D02*
D03*
X2495000Y1329920D02*
D03*
Y1340080D02*
D03*
X2478000Y1205080D02*
D03*
Y1194920D02*
D03*
X2495000Y1205080D02*
D03*
Y1194920D02*
D03*
X2525000Y1329920D02*
D03*
Y1340080D02*
D03*
X2515000D02*
D03*
Y1329920D02*
D03*
X2510000Y1194920D02*
D03*
Y1205080D02*
D03*
X2405000Y1340080D02*
D03*
Y1329920D02*
D03*
X2425000Y1360080D02*
D03*
Y1349920D02*
D03*
X2435000Y1340080D02*
D03*
Y1329920D02*
D03*
X2425000Y1340080D02*
D03*
Y1329920D02*
D03*
X2405000Y1360080D02*
D03*
Y1349920D02*
D03*
X2535000Y1360080D02*
D03*
Y1349920D02*
D03*
X2525000Y1360080D02*
D03*
Y1349920D02*
D03*
X2515000Y1360080D02*
D03*
Y1349920D02*
D03*
X2415000Y1340080D02*
D03*
Y1329920D02*
D03*
X2520000Y1194920D02*
D03*
Y1205080D02*
D03*
X2435000Y1349920D02*
D03*
Y1360080D02*
D03*
X2445000Y1349920D02*
D03*
Y1360080D02*
D03*
X2555000Y1340080D02*
D03*
Y1329920D02*
D03*
X2485000D02*
D03*
Y1340080D02*
D03*
X2530000Y1205080D02*
D03*
Y1194920D02*
D03*
X2460000Y1329920D02*
D03*
Y1340080D02*
D03*
X2470000Y1329920D02*
D03*
Y1340080D02*
D03*
X2645000Y1334920D02*
D03*
Y1345080D02*
D03*
X2860000Y1400080D02*
D03*
Y1389920D02*
D03*
X2600000Y1334920D02*
D03*
Y1345080D02*
D03*
X2608000Y1314920D02*
D03*
Y1325080D02*
D03*
X2650000Y1314920D02*
D03*
Y1325080D02*
D03*
X2635000D02*
D03*
Y1314920D02*
D03*
X2629000Y1345080D02*
D03*
Y1334920D02*
D03*
X1690000Y1254920D02*
D03*
Y1265080D02*
D03*
X2820000Y1389920D02*
D03*
Y1400080D02*
D03*
X2622000Y1179920D02*
D03*
Y1190080D02*
D03*
X2628000Y1204920D02*
D03*
Y1215080D02*
D03*
X2635000Y1179920D02*
D03*
Y1190080D02*
D03*
X2641000Y1204920D02*
D03*
Y1215080D02*
D03*
X2665000Y1204920D02*
D03*
Y1215080D02*
D03*
X2140000Y1035080D02*
D03*
Y1024920D02*
D03*
Y1494920D02*
D03*
Y1505080D02*
D03*
X2295000Y1350080D02*
D03*
Y1339920D02*
D03*
Y1179920D02*
D03*
Y1190080D02*
D03*
X2660000Y1384920D02*
D03*
Y1395080D02*
D03*
Y1414920D02*
D03*
Y1425080D02*
D03*
X2615000Y1345080D02*
D03*
Y1334920D02*
D03*
X2621500Y1325080D02*
D03*
Y1314920D02*
D03*
D18*
X2774920Y1140000D02*
D03*
X2785080D02*
D03*
X2877840Y1445000D02*
D03*
X2888000D02*
D03*
X2645160Y1120000D02*
D03*
X2635000D02*
D03*
X2779920Y1340000D02*
D03*
X2790080D02*
D03*
X2774920Y1150000D02*
D03*
X2785080D02*
D03*
X2695080Y1325000D02*
D03*
X2684920D02*
D03*
X2695080Y1305000D02*
D03*
X2684920D02*
D03*
X2695080Y1355000D02*
D03*
X2684920D02*
D03*
X2695080Y1335000D02*
D03*
X2684920D02*
D03*
X2560080Y1230000D02*
D03*
X2549920D02*
D03*
Y1295000D02*
D03*
X2560080D02*
D03*
Y1305000D02*
D03*
X2549920D02*
D03*
X2545080Y1395000D02*
D03*
X2534920D02*
D03*
X2724920Y1235000D02*
D03*
X2735080D02*
D03*
X2710080D02*
D03*
X2699920D02*
D03*
X2710080Y1215000D02*
D03*
X2699920D02*
D03*
X2710080Y1195000D02*
D03*
X2699920D02*
D03*
X2724920Y1215000D02*
D03*
X2735080D02*
D03*
X2724920Y1195000D02*
D03*
X2735080D02*
D03*
X2599920Y1360000D02*
D03*
X2610080D02*
D03*
X2640080D02*
D03*
X2629920D02*
D03*
X2739920Y1435000D02*
D03*
X2750080D02*
D03*
X2584920Y1310000D02*
D03*
X2595080D02*
D03*
X2560080Y1240000D02*
D03*
X2549920D02*
D03*
X2560080Y1220000D02*
D03*
X2549920D02*
D03*
Y1265000D02*
D03*
X2560080D02*
D03*
Y1250000D02*
D03*
X2549920D02*
D03*
X2459920Y1320000D02*
D03*
X2470080D02*
D03*
X970080Y1010000D02*
D03*
X959920D02*
D03*
X3049920Y1255000D02*
D03*
X3060080D02*
D03*
X3069920Y1305000D02*
D03*
X3080080D02*
D03*
X3074920Y1255000D02*
D03*
X3085080D02*
D03*
X959920Y1525000D02*
D03*
X970080D02*
D03*
X2165080Y1500000D02*
D03*
X2154920D02*
D03*
X2280080Y1345000D02*
D03*
X2269920D02*
D03*
X2280080Y1185000D02*
D03*
X2269920D02*
D03*
X2165080Y1030000D02*
D03*
X2154920D02*
D03*
X2674920Y1410000D02*
D03*
X2685080D02*
D03*
X279920Y1495000D02*
D03*
X290080D02*
D03*
X275080Y1265000D02*
D03*
X264920D02*
D03*
X279920Y1035000D02*
D03*
X290080D02*
D03*
X295000Y1265000D02*
D03*
X305160D02*
D03*
X2710000Y1400000D02*
D03*
X2699840D02*
D03*
X2685080D02*
D03*
X2674920D02*
D03*
X2710080Y1410000D02*
D03*
X2699920D02*
D03*
D19*
X2630500Y1133500D02*
D03*
X2649500D02*
D03*
X2640000Y1156500D02*
D03*
X2794500Y1326500D02*
D03*
X2775500D02*
D03*
X2785000Y1303500D02*
D03*
X2794500Y1186500D02*
D03*
X2775500D02*
D03*
X2785000Y1163500D02*
D03*
X2775500Y1258500D02*
D03*
X2794500D02*
D03*
X2785000Y1281500D02*
D03*
X2794500Y1236500D02*
D03*
X2775500D02*
D03*
X2785000Y1213500D02*
D03*
X2745000Y1398500D02*
D03*
X2735500Y1421500D02*
D03*
X2754500D02*
D03*
D20*
X2350000Y1186000D02*
D03*
Y1164000D02*
D03*
X2393000Y1211000D02*
D03*
Y1233000D02*
D03*
Y1252000D02*
D03*
Y1274000D02*
D03*
X2350000Y1364000D02*
D03*
Y1342000D02*
D03*
X2320000Y1364000D02*
D03*
Y1342000D02*
D03*
X2320000Y1164000D02*
D03*
Y1186000D02*
D03*
X2643000Y1376000D02*
D03*
Y1398000D02*
D03*
Y1434000D02*
D03*
Y1412000D02*
D03*
D21*
X1060000Y1248000D02*
D03*
Y1212000D02*
D03*
Y1287000D02*
D03*
Y1323000D02*
D03*
X2755000Y1262000D02*
D03*
Y1298000D02*
D03*
Y1192000D02*
D03*
Y1228000D02*
D03*
D22*
X1111000Y1320000D02*
D03*
X1089000D02*
D03*
X1111000Y1215000D02*
D03*
X1089000D02*
D03*
D23*
X2448954Y1160000D02*
D03*
X2421046D02*
D03*
X2026046Y1175000D02*
D03*
X2053954D02*
D03*
X2026046Y1355000D02*
D03*
X2053954D02*
D03*
D24*
X2683000Y1315000D02*
D03*
X2697000D02*
D03*
X2683000Y1345000D02*
D03*
X2697000D02*
D03*
D25*
X2545000Y1102300D02*
D03*
Y1117700D02*
D03*
X2485000Y1422700D02*
D03*
Y1407300D02*
D03*
X2515000Y1102300D02*
D03*
Y1117700D02*
D03*
X2545000Y1407300D02*
D03*
Y1422700D02*
D03*
X2350000Y1327700D02*
D03*
Y1312300D02*
D03*
X2320000Y1312300D02*
D03*
Y1327700D02*
D03*
X2350000Y1217700D02*
D03*
Y1202300D02*
D03*
X2320000Y1202300D02*
D03*
Y1217700D02*
D03*
X2880000Y1172700D02*
D03*
Y1157300D02*
D03*
X2925000Y1142700D02*
D03*
Y1127300D02*
D03*
X2910000D02*
D03*
Y1142700D02*
D03*
X2895000Y1127300D02*
D03*
Y1142700D02*
D03*
X2880000D02*
D03*
Y1127300D02*
D03*
X2925000Y1157300D02*
D03*
Y1172700D02*
D03*
X2910000Y1157300D02*
D03*
Y1172700D02*
D03*
X2895000Y1157300D02*
D03*
Y1172700D02*
D03*
X2925000Y1202700D02*
D03*
Y1187300D02*
D03*
X2910000D02*
D03*
Y1202700D02*
D03*
X2895000Y1187300D02*
D03*
Y1202700D02*
D03*
X2880000Y1187300D02*
D03*
Y1202700D02*
D03*
X2925000Y1232700D02*
D03*
Y1217300D02*
D03*
X2910000Y1232700D02*
D03*
Y1217300D02*
D03*
X2895000Y1232700D02*
D03*
Y1217300D02*
D03*
X2880000Y1232700D02*
D03*
Y1217300D02*
D03*
X2925000Y1247300D02*
D03*
Y1262700D02*
D03*
X2910000Y1247300D02*
D03*
Y1262700D02*
D03*
X2895000D02*
D03*
Y1247300D02*
D03*
X2880000Y1262700D02*
D03*
Y1247300D02*
D03*
X2925000Y1277300D02*
D03*
Y1292700D02*
D03*
X2910000Y1277300D02*
D03*
Y1292700D02*
D03*
X2895000Y1277300D02*
D03*
Y1292700D02*
D03*
X2880000Y1277300D02*
D03*
Y1292700D02*
D03*
X2925000Y1307300D02*
D03*
Y1322700D02*
D03*
X2910000Y1307300D02*
D03*
Y1322700D02*
D03*
X2895000Y1307300D02*
D03*
Y1322700D02*
D03*
X2880000Y1307300D02*
D03*
Y1322700D02*
D03*
X2925000Y1352700D02*
D03*
Y1337300D02*
D03*
X2910000Y1352700D02*
D03*
Y1337300D02*
D03*
X2895000D02*
D03*
Y1352700D02*
D03*
X2880000Y1337300D02*
D03*
Y1352700D02*
D03*
X2925000Y1382700D02*
D03*
Y1367300D02*
D03*
X2910000Y1382700D02*
D03*
Y1367300D02*
D03*
X2895000Y1382700D02*
D03*
Y1367300D02*
D03*
X2880000Y1382700D02*
D03*
Y1367300D02*
D03*
X2410000Y1247300D02*
D03*
Y1262700D02*
D03*
Y1222700D02*
D03*
Y1207300D02*
D03*
X2530000Y1407300D02*
D03*
Y1422700D02*
D03*
X2530000Y1117700D02*
D03*
Y1102300D02*
D03*
X2515000Y1422700D02*
D03*
Y1407300D02*
D03*
X2500000Y1422700D02*
D03*
Y1407300D02*
D03*
X2500000Y1102300D02*
D03*
Y1117700D02*
D03*
D26*
X2555500Y1143250D02*
D03*
X2562000D02*
D03*
X2568500D02*
D03*
X2575000D02*
D03*
X2581500D02*
D03*
X2588000D02*
D03*
X2594500D02*
D03*
X2555500Y1196750D02*
D03*
X2562000D02*
D03*
X2568500D02*
D03*
X2575000D02*
D03*
X2581500D02*
D03*
X2588000D02*
D03*
X2594500D02*
D03*
D27*
X2428500Y1199500D02*
D03*
Y1180500D02*
D03*
X2451500Y1190000D02*
D03*
X2571500Y1385000D02*
D03*
X2594500Y1394500D02*
D03*
Y1375500D02*
D03*
X3068500Y1280000D02*
D03*
X3091500Y1289500D02*
D03*
Y1270500D02*
D03*
X2626500Y1415500D02*
D03*
Y1434500D02*
D03*
X2603500Y1425000D02*
D03*
Y1385000D02*
D03*
X2626500Y1394500D02*
D03*
Y1375500D02*
D03*
X2571500Y1425000D02*
D03*
X2594500Y1434500D02*
D03*
Y1415500D02*
D03*
D28*
X2250000Y1030000D02*
D03*
X2190000Y1185000D02*
D03*
Y1345000D02*
D03*
X2250000Y1500000D02*
D03*
D29*
X2158560Y1055400D02*
D03*
Y1004600D02*
D03*
X2281440Y1159600D02*
D03*
Y1210400D02*
D03*
Y1319600D02*
D03*
Y1370400D02*
D03*
X2158560Y1525400D02*
D03*
Y1474600D02*
D03*
D30*
X2385000Y1360500D02*
D03*
Y1341500D02*
D03*
D31*
X1288000Y1006000D02*
D03*
X1252000D02*
D03*
Y1046000D02*
D03*
X1288000D02*
D03*
Y1086000D02*
D03*
X1252000D02*
D03*
X1252000Y1126000D02*
D03*
X1288000D02*
D03*
X1288000Y1166000D02*
D03*
X1252000D02*
D03*
Y1206000D02*
D03*
X1288000D02*
D03*
Y1246000D02*
D03*
X1252000D02*
D03*
Y1286000D02*
D03*
X1288000D02*
D03*
Y1326000D02*
D03*
X1252000D02*
D03*
Y1366000D02*
D03*
X1288000D02*
D03*
X1288000Y1406000D02*
D03*
X1252000D02*
D03*
X1252000Y1446000D02*
D03*
X1288000D02*
D03*
X1288000Y1486000D02*
D03*
X1252000D02*
D03*
Y1526000D02*
D03*
X1288000D02*
D03*
X2677000Y1430000D02*
D03*
X2713000D02*
D03*
X2677000Y1380000D02*
D03*
X2713000D02*
D03*
D32*
X2743000Y1170500D02*
D03*
X2720000D02*
D03*
X2697000D02*
D03*
D33*
X2720000Y1109500D02*
D03*
D34*
X2372300Y1325000D02*
D03*
X2387700D02*
D03*
X3020300Y1253000D02*
D03*
X3035700D02*
D03*
X2648300Y1182000D02*
D03*
X2663700D02*
D03*
D35*
X2527500Y1299000D02*
D03*
X2472500D02*
D03*
X2467500D02*
D03*
X2462500D02*
D03*
X2457500D02*
D03*
X2452500D02*
D03*
X2447500D02*
D03*
X2442500D02*
D03*
X2437500D02*
D03*
X2432500D02*
D03*
Y1231000D02*
D03*
X2442500D02*
D03*
X2447500D02*
D03*
X2452500D02*
D03*
X2457500D02*
D03*
X2467500D02*
D03*
X2472500D02*
D03*
X2527500D02*
D03*
D36*
X2522500Y1293500D02*
D03*
X2517500D02*
D03*
X2512500D02*
D03*
X2507500D02*
D03*
X2502500D02*
D03*
X2497500D02*
D03*
X2492500D02*
D03*
X2487500D02*
D03*
X2482500D02*
D03*
X2477500D02*
D03*
X2507500Y1236500D02*
D03*
X2512500D02*
D03*
X2517500D02*
D03*
X2522500D02*
D03*
D37*
X2426000Y1292500D02*
D03*
Y1287500D02*
D03*
Y1282500D02*
D03*
Y1277500D02*
D03*
Y1272500D02*
D03*
Y1262500D02*
D03*
Y1257500D02*
D03*
Y1252500D02*
D03*
Y1242500D02*
D03*
Y1237500D02*
D03*
X2534000D02*
D03*
Y1242500D02*
D03*
Y1247500D02*
D03*
Y1252500D02*
D03*
Y1257500D02*
D03*
Y1262500D02*
D03*
Y1267500D02*
D03*
Y1272500D02*
D03*
Y1277500D02*
D03*
Y1282500D02*
D03*
Y1287500D02*
D03*
Y1292500D02*
D03*
D38*
X2477500Y1235000D02*
D03*
X2487500D02*
D03*
X2492500D02*
D03*
X2497500D02*
D03*
D39*
X2296000Y1255000D02*
D03*
X2348000D02*
D03*
D40*
X3058000Y1178000D02*
D03*
X2958000D02*
D03*
X1880000Y1425000D02*
D03*
X1980000D02*
D03*
Y1265000D02*
D03*
X1880000D02*
D03*
X1980000Y1105000D02*
D03*
X1880000D02*
D03*
X1720000Y1425000D02*
D03*
X1820000D02*
D03*
X1720000Y1265000D02*
D03*
X1820000D02*
D03*
X1720000Y1105000D02*
D03*
X1820000D02*
D03*
X1560000Y1425000D02*
D03*
X1660000D02*
D03*
X1560000Y1265000D02*
D03*
X1660000D02*
D03*
X1560000Y1105000D02*
D03*
X1660000D02*
D03*
X1500000Y1425000D02*
D03*
X1400000D02*
D03*
X1500000Y1265000D02*
D03*
X1400000D02*
D03*
X1500000Y1105000D02*
D03*
X1400000D02*
D03*
D41*
X2958000Y1302000D02*
D03*
Y1264000D02*
D03*
X2030000Y1424000D02*
D03*
Y1386000D02*
D03*
Y1106000D02*
D03*
Y1144000D02*
D03*
D42*
X2904000Y1401046D02*
D03*
Y1428954D02*
D03*
X2926000Y1401046D02*
D03*
Y1428954D02*
D03*
X2948000Y1401046D02*
D03*
Y1428954D02*
D03*
X2882000Y1401046D02*
D03*
Y1428954D02*
D03*
X3170000Y1516046D02*
D03*
Y1543954D02*
D03*
X3145000Y1516046D02*
D03*
Y1543954D02*
D03*
X3120000Y1516046D02*
D03*
Y1543954D02*
D03*
X3095000Y1516046D02*
D03*
Y1543954D02*
D03*
X3070000Y1516046D02*
D03*
Y1543954D02*
D03*
X3045000Y1516046D02*
D03*
Y1543954D02*
D03*
X3170000Y1018954D02*
D03*
Y991046D02*
D03*
X3145000Y1018954D02*
D03*
Y991046D02*
D03*
X3120000Y1018954D02*
D03*
Y991046D02*
D03*
X3095000Y1018954D02*
D03*
Y991046D02*
D03*
X3070000Y1018954D02*
D03*
Y991046D02*
D03*
X3045000Y1018954D02*
D03*
Y991046D02*
D03*
X2440000Y1516046D02*
D03*
Y1543954D02*
D03*
X3020000Y1018954D02*
D03*
Y991046D02*
D03*
X2995000Y1018954D02*
D03*
Y991046D02*
D03*
X2970000Y1018954D02*
D03*
Y991046D02*
D03*
X2945000Y1018954D02*
D03*
Y991046D02*
D03*
X2920000Y1018954D02*
D03*
Y991046D02*
D03*
X2895000Y1018954D02*
D03*
Y991046D02*
D03*
X3020000Y1516046D02*
D03*
Y1543954D02*
D03*
X2995000Y1516046D02*
D03*
Y1543954D02*
D03*
X2970000Y1516046D02*
D03*
Y1543954D02*
D03*
X2945000Y1516046D02*
D03*
Y1543954D02*
D03*
X2920000Y1516046D02*
D03*
Y1543954D02*
D03*
X2895000Y1516046D02*
D03*
Y1543954D02*
D03*
X2870000Y1018954D02*
D03*
Y991046D02*
D03*
X2845000Y1018954D02*
D03*
Y991046D02*
D03*
X2820000Y1018954D02*
D03*
Y991046D02*
D03*
X2795000Y1018954D02*
D03*
Y991046D02*
D03*
X2770000Y1018954D02*
D03*
Y991046D02*
D03*
X2745000Y1018954D02*
D03*
Y991046D02*
D03*
X2720000Y1018954D02*
D03*
Y991046D02*
D03*
X2695000Y1018954D02*
D03*
Y991046D02*
D03*
X2670000Y1018954D02*
D03*
Y991046D02*
D03*
X2645000Y1018954D02*
D03*
Y991046D02*
D03*
X2620000Y1018954D02*
D03*
Y991046D02*
D03*
X2595000Y1018954D02*
D03*
Y991046D02*
D03*
X2870000Y1516046D02*
D03*
Y1543954D02*
D03*
X2845000Y1516046D02*
D03*
Y1543954D02*
D03*
X2820000Y1516046D02*
D03*
Y1543954D02*
D03*
X2795000Y1516046D02*
D03*
Y1543954D02*
D03*
X2770000Y1516046D02*
D03*
Y1543954D02*
D03*
X2745000Y1516046D02*
D03*
Y1543954D02*
D03*
X2720000Y1516046D02*
D03*
Y1543954D02*
D03*
X2695000Y1516046D02*
D03*
Y1543954D02*
D03*
X2670000Y1516046D02*
D03*
Y1543954D02*
D03*
X2645000Y1516046D02*
D03*
Y1543954D02*
D03*
X2620000Y1516046D02*
D03*
Y1543954D02*
D03*
X2595000Y1516046D02*
D03*
Y1543954D02*
D03*
X2464966Y990998D02*
D03*
Y1018906D02*
D03*
X2340034Y1435002D02*
D03*
Y1407094D02*
D03*
X2365000Y1434954D02*
D03*
Y1407046D02*
D03*
X2390000Y1434954D02*
D03*
Y1407046D02*
D03*
X2415000Y1434954D02*
D03*
Y1407046D02*
D03*
X2440000Y1434954D02*
D03*
Y1407046D02*
D03*
X2465000Y1434954D02*
D03*
Y1407046D02*
D03*
X2340000Y1543954D02*
D03*
Y1516046D02*
D03*
X2365000Y1543954D02*
D03*
Y1516046D02*
D03*
X2390000Y1543954D02*
D03*
Y1516046D02*
D03*
X2439966Y990998D02*
D03*
Y1018906D02*
D03*
X2414966Y990998D02*
D03*
Y1018906D02*
D03*
X2389966Y990998D02*
D03*
Y1018906D02*
D03*
X2364967Y990998D02*
D03*
Y1018906D02*
D03*
X2340000Y991046D02*
D03*
Y1018954D02*
D03*
X2465000Y1091046D02*
D03*
Y1118954D02*
D03*
X2439967Y1090998D02*
D03*
Y1118906D02*
D03*
X2546000Y1543954D02*
D03*
Y1516046D02*
D03*
X2389967Y1090998D02*
D03*
Y1118906D02*
D03*
X2545000Y991046D02*
D03*
Y1018954D02*
D03*
X2570000Y991046D02*
D03*
Y1018954D02*
D03*
X2465000Y1543954D02*
D03*
Y1516046D02*
D03*
X2415000Y1543954D02*
D03*
Y1516046D02*
D03*
X2414967Y1090998D02*
D03*
Y1118906D02*
D03*
X2364968Y1090998D02*
D03*
Y1118906D02*
D03*
X2339968Y1090998D02*
D03*
Y1118906D02*
D03*
X2570000Y1543954D02*
D03*
Y1516046D02*
D03*
D45*
X2950000Y1351000D02*
D03*
Y1379000D02*
D03*
X2030000Y1301000D02*
D03*
Y1329000D02*
D03*
Y1229000D02*
D03*
Y1201000D02*
D03*
D46*
X2615250Y1292500D02*
D03*
X2621750D02*
D03*
X2628250D02*
D03*
X2634750D02*
D03*
X2641250D02*
D03*
X2647750D02*
D03*
X2660750D02*
D03*
X2654250D02*
D03*
X2654200Y1238000D02*
D03*
X2660700D02*
D03*
X2647700D02*
D03*
X2641200D02*
D03*
X2634700D02*
D03*
X2628200D02*
D03*
X2621700D02*
D03*
X2615200D02*
D03*
X2608700D02*
D03*
X2602200D02*
D03*
X2595700D02*
D03*
X2589200D02*
D03*
X2589250Y1292500D02*
D03*
X2595750D02*
D03*
X2602250D02*
D03*
X2608750D02*
D03*
D47*
X2189000Y1107000D02*
D03*
X2151000D02*
D03*
X2189000Y1580000D02*
D03*
X2151000D02*
D03*
X2146000Y1264000D02*
D03*
X2184000D02*
D03*
X2146000Y1425000D02*
D03*
X2184000D02*
D03*
X796000Y1035000D02*
D03*
X834000D02*
D03*
X984000Y1035000D02*
D03*
X946000D02*
D03*
X984000Y985000D02*
D03*
X946000D02*
D03*
X796000D02*
D03*
X834000D02*
D03*
X796000Y1550000D02*
D03*
X834000D02*
D03*
X796000Y1500000D02*
D03*
X834000D02*
D03*
X985000Y1500000D02*
D03*
X947000D02*
D03*
X984000Y1550000D02*
D03*
X946000D02*
D03*
X1144000Y1135000D02*
D03*
X1106000D02*
D03*
X1144000Y1085000D02*
D03*
X1106000D02*
D03*
X1144000Y1035000D02*
D03*
X1106000D02*
D03*
X1144000Y985000D02*
D03*
X1106000D02*
D03*
X1144000Y1550000D02*
D03*
X1106000D02*
D03*
X1144000Y1500000D02*
D03*
X1106000D02*
D03*
X1144000Y1450000D02*
D03*
X1106000D02*
D03*
X1144000Y1400000D02*
D03*
X1106000D02*
D03*
D48*
X2505000Y1491000D02*
D03*
Y1543000D02*
D03*
Y1046000D02*
D03*
Y994000D02*
D03*
D92*
X2480000Y1265000D02*
D03*
D93*
X3020000Y1389000D02*
D03*
D94*
X2986000Y1283000D02*
D03*
X3020000D02*
D03*
X3003000D02*
D03*
X3054000D02*
D03*
X3037000D02*
D03*
D95*
X2877840Y1445000D02*
X2878000D01*
X2860000D02*
X2877840D01*
X2925000Y1355000D02*
Y1367300D01*
Y1295000D02*
Y1307300D01*
X2910000Y1365000D02*
X2912300Y1367300D01*
X2910000Y1352700D02*
Y1365000D01*
X2907700Y1367300D02*
X2910000Y1365000D01*
X2882700Y1352700D02*
X2910000D01*
Y1305000D02*
X2912300Y1307300D01*
X2880000Y1247300D02*
X2925000D01*
X2910000Y1292700D02*
Y1305000D01*
X2907700Y1307300D02*
X2910000Y1305000D01*
X2882700Y1292700D02*
X2910000D01*
X2895000Y1355000D02*
Y1367300D01*
X2880000Y1352700D02*
Y1367300D01*
X2895000Y1295000D02*
Y1307300D01*
X2880000Y1292700D02*
Y1307300D01*
X2925000Y1235000D02*
Y1247300D01*
X2922700Y1187300D02*
X2925000Y1185000D01*
X2910000Y1232700D02*
Y1245000D01*
X2895000Y1232700D02*
Y1245000D01*
X2880000Y1172700D02*
X2925000D01*
X2880000Y1127300D02*
X2925000D01*
X2895000Y1175000D02*
Y1187300D01*
X2910000Y1175000D02*
Y1187300D01*
X2890000Y1445000D02*
X3090000D01*
X2860000Y1400080D02*
Y1445000D01*
X2942300Y1382700D02*
X2950000D01*
X2910000Y1335000D02*
X2912300Y1337300D01*
X2935000Y1157000D02*
Y1262700D01*
X2907700Y1337300D02*
X2910000Y1335000D01*
Y1275000D02*
X2912300Y1277300D01*
X2907700D02*
X2910000Y1275000D01*
X2882700Y1322700D02*
X2910000D01*
X2860000Y1389920D02*
Y1390000D01*
Y1382700D02*
Y1389920D01*
X2882700Y1262700D02*
X2910000D01*
X2895000Y1157300D02*
X2925000D01*
X2880000Y1202700D02*
X2910000D01*
X2895000Y1142700D02*
X2922300D01*
X2860000Y1382700D02*
X2880000D01*
X2860000Y1400000D02*
Y1400080D01*
X2850000Y1445000D02*
X2860000D01*
X2760000D02*
X2850000D01*
X2760000Y1445000D02*
X2760000Y1445000D01*
X2720000Y1115000D02*
Y1170000D01*
X2910000Y1127300D02*
X2925000D01*
X2895000D02*
X2910000D01*
X2880000D02*
X2895000D01*
X2935000Y1157000D02*
X2935000D01*
X2925000D02*
X2935000D01*
Y1160000D01*
Y1142700D02*
Y1157000D01*
X2925000Y1142700D02*
Y1157000D01*
Y1142700D02*
Y1142700D01*
X2935000D01*
X2925000D02*
X2925000D01*
X2877080Y1140080D02*
X2878000Y1141000D01*
X2946954Y1428954D02*
X2948000Y1430000D01*
X2926000Y1428954D02*
X2945954D01*
X2904000D02*
X2925000D01*
X2882000D02*
X2903000D01*
X2935000Y1382700D02*
X2942300D01*
X2925000D02*
X2935000D01*
X2910000D02*
X2925000D01*
X2895000D02*
X2910000D01*
X2880000D02*
X2895000D01*
X2942300D02*
X2945000Y1380000D01*
X2943000Y1243000D02*
Y1351000D01*
X2950000D01*
X2943000Y1243000D02*
X2949000Y1237000D01*
X2950000Y1380000D02*
Y1382700D01*
X2935000Y1382000D02*
Y1382700D01*
Y1337000D02*
Y1382000D01*
X2935000D01*
X2935000Y1277000D02*
Y1337000D01*
Y1262000D02*
Y1277000D01*
Y1337000D02*
X2935000D01*
X2925000D02*
X2935000D01*
X2925000D02*
Y1337300D01*
Y1325000D02*
Y1337000D01*
X2935000Y1277000D02*
X2935000D01*
X2925000D02*
X2935000D01*
X2925000D02*
Y1277300D01*
Y1265000D02*
Y1277000D01*
Y1262000D02*
X2935000D01*
X2925000Y1322300D02*
X2932700D01*
X2912300Y1367300D02*
X2925000D01*
X2910000Y1365000D02*
Y1367300D01*
X2895000D02*
X2907700D01*
X2880000D02*
X2895000D01*
X2910000Y1350000D02*
Y1352700D01*
X2925000D01*
X2880000Y1322700D02*
Y1337300D01*
X2895000Y1325000D02*
Y1337300D01*
X2912300D02*
X2925000D01*
X2910000Y1322700D02*
Y1335000D01*
Y1337300D01*
X2895000D02*
X2907700D01*
X2880000D02*
X2895000D01*
X2910000Y1320000D02*
Y1322700D01*
X2925000D01*
X2880000Y1262700D02*
Y1277300D01*
X2895000Y1265000D02*
Y1277300D01*
X2912300D02*
X2925000D01*
X2910000Y1262700D02*
Y1275000D01*
Y1277300D01*
X2895000D02*
X2907700D01*
X2880000D02*
X2895000D01*
X2910000Y1260000D02*
Y1262700D01*
X2925000D01*
X2912300Y1307300D02*
X2925000D01*
X2910000Y1305000D02*
Y1307300D01*
X2895000D02*
X2907700D01*
X2880000D02*
X2895000D01*
X2910000Y1290000D02*
Y1292700D01*
X2925000D01*
X2880000Y1142700D02*
X2895000D01*
X2922300D02*
X2925000D01*
X2880000Y1187300D02*
X2895000Y1187300D01*
X2910000D01*
X2895000Y1157300D02*
Y1160000D01*
X2880000Y1145000D02*
Y1155000D01*
X2895000Y1142700D02*
Y1155000D01*
X2910000Y1145000D02*
Y1155000D01*
Y1187300D02*
Y1188333D01*
X2925000Y1175000D02*
Y1180000D01*
X2910000Y1187300D02*
X2922700D01*
X2925000Y1185000D02*
Y1187300D01*
Y1180000D02*
Y1185000D01*
X2880000Y1217300D02*
X2895000D01*
X2910000D01*
X2925000D01*
X2880000Y1205000D02*
Y1217300D01*
X2895000D02*
Y1220000D01*
Y1205000D02*
Y1217300D01*
X2910000Y1205000D02*
Y1217300D01*
Y1200000D02*
Y1202700D01*
X2925000Y1217300D02*
Y1220000D01*
Y1205000D02*
Y1217300D01*
X2880000Y1157300D02*
X2895000D01*
X2925000Y1170000D02*
Y1172700D01*
X2910000Y1202700D02*
X2925000D01*
Y1217300D02*
X2932700D01*
X2925000Y1230000D02*
Y1232700D01*
X2880000D02*
X2895000D01*
X2910000D01*
X2925000D01*
X2880000Y1240000D02*
Y1247300D01*
Y1235000D02*
Y1240000D01*
Y1180000D02*
Y1187300D01*
Y1177700D02*
Y1180000D01*
X2778000Y1582000D02*
Y1608000D01*
X2528000Y1563000D02*
X2530000Y1561000D01*
X2506000Y979000D02*
Y987000D01*
X2121000Y1431000D02*
Y1435000D01*
X2115000D02*
X2121000D01*
D96*
X2883046Y1400000D02*
X2985000D01*
X2882000Y1401046D02*
X2883046Y1400000D01*
X1290000Y1481000D02*
Y1486000D01*
X1290000Y1481000D02*
X1290000Y1481000D01*
X1290000Y1446000D02*
X1290000Y1446000D01*
D97*
X2785080Y1140000D02*
X2795000D01*
X2735000D02*
X2774920D01*
X2350000Y1365000D02*
X2351000Y1364000D01*
Y1363000D02*
Y1364000D01*
X2195000Y1443000D02*
Y1531000D01*
X2159560D02*
X2195000D01*
X2158560Y1530000D02*
X2159560Y1531000D01*
X2342000Y1165000D02*
X2350000D01*
X2336000D02*
X2342000D01*
X2325000Y1154000D02*
X2336000Y1165000D01*
X2321000Y1154000D02*
X2325000D01*
X2297000Y1130000D02*
X2321000Y1154000D01*
X2320000Y1380000D02*
X2350000D01*
Y1365000D02*
Y1380000D01*
X2320000Y1360000D02*
X2320361Y1360033D01*
X2330000Y1360909D02*
Y1363000D01*
Y1353000D02*
Y1360909D01*
X2320000Y1363000D02*
X2330000D01*
X2302000Y1319600D02*
Y1322000D01*
X2300000Y1319600D02*
Y1320000D01*
Y1317000D02*
Y1319600D01*
X2305000Y1345000D02*
X2320000Y1360000D01*
X2323080Y1315000D02*
X2330000D01*
X2310000Y1220000D02*
X2320000D01*
X2310000Y1165000D02*
Y1212000D01*
Y1220000D01*
X2315000Y1165000D02*
X2320000D01*
X2310000D02*
X2315000D01*
X2300000Y1170000D02*
X2310000D01*
X2342000Y1200000D02*
X2349920D01*
X2342000Y1165000D02*
Y1200000D01*
X2351000Y1363000D02*
X2361000D01*
X2320000Y1380000D02*
Y1443000D01*
X2330000Y1353000D02*
X2330000Y1353000D01*
Y1315000D02*
Y1353000D01*
X2299600Y1319600D02*
X2300000D01*
X2281440D02*
X2299600D01*
X2302000Y1322000D02*
X2305000Y1325000D01*
X2299600Y1319600D02*
X2302000Y1322000D01*
X2305000Y1325000D02*
Y1345000D01*
X2300000Y1160000D02*
Y1170000D01*
Y1160000D02*
X2300000D01*
X2166000Y1130000D02*
X2297000D01*
X2195000Y1443000D02*
X2320000D01*
X2166000Y1056000D02*
Y1130000D01*
Y1056000D02*
X2170000Y1052000D01*
X2122000Y1544000D02*
Y1555000D01*
X2361000Y1328000D02*
X2361000D01*
X2351080D02*
X2361000D01*
Y1363000D02*
X2361000D01*
X2361000Y1328000D02*
Y1363000D01*
X2361000Y1328000D02*
Y1363000D01*
X2330000Y1363000D02*
Y1363000D01*
X2315000Y1165000D02*
Y1165000D01*
D98*
X2285000Y1370000D02*
Y1410000D01*
X2195000Y1421000D02*
X2285000D01*
X2184000Y1265000D02*
X2260000D01*
X2106000Y1106000D02*
X2151000D01*
X2140000Y1475000D02*
X2158560D01*
X2151000Y1580000D02*
X2152000D01*
X2128000D02*
X2151000D01*
X2202000D02*
X2204000Y1578000D01*
X2189000Y1580000D02*
X2202000D01*
X2140000Y1004600D02*
X2158560D01*
X2087000D02*
X2140000D01*
X2115000Y1426000D02*
X2141000D01*
X2115000Y1475000D02*
X2140000D01*
X2158560Y1474600D02*
Y1475000D01*
D99*
X1825000Y990000D02*
X1975000D01*
X1650000D02*
X1800000D01*
D100*
X517500Y1180000D02*
D03*
D101*
X532500Y1350000D02*
D03*
D102*
X512500Y1265000D02*
D03*
D103*
X417500Y1262500D02*
D03*
D104*
X617500Y1217500D02*
D03*
D105*
X1102500Y1357500D02*
D03*
D106*
X930000Y1315000D02*
D03*
D107*
X917500Y1367500D02*
D03*
D108*
X377500Y1302500D02*
D03*
D109*
X360000Y1130000D02*
D03*
D110*
X2307500Y957500D02*
D03*
D111*
X2600000Y940000D02*
D03*
D112*
X2290000Y920000D02*
D03*
D113*
X1242500Y1527000D02*
D03*
Y1447000D02*
D03*
Y1487000D02*
D03*
Y1367000D02*
D03*
Y1407000D02*
D03*
Y1287000D02*
D03*
Y1327000D02*
D03*
Y1207000D02*
D03*
Y1247000D02*
D03*
Y1127000D02*
D03*
Y1167000D02*
D03*
Y1047000D02*
D03*
Y1087000D02*
D03*
Y1007000D02*
D03*
X1297500Y1486000D02*
D03*
Y1526000D02*
D03*
Y1406000D02*
D03*
Y1446000D02*
D03*
Y1326000D02*
D03*
Y1366000D02*
D03*
Y1246000D02*
D03*
Y1286000D02*
D03*
Y1166000D02*
D03*
Y1206000D02*
D03*
Y1086000D02*
D03*
Y1126000D02*
D03*
Y1006000D02*
D03*
Y1046000D02*
D03*
D114*
X3630000Y930000D02*
D03*
D115*
X2720000Y1127500D02*
D03*
X850000Y1282500D02*
D03*
D116*
X2345000Y1255000D02*
D03*
D117*
X830000Y1302500D02*
D03*
D118*
X890000Y1340000D02*
D03*
D119*
X757500Y1322500D02*
D03*
D120*
X1027500Y1490000D02*
D03*
D121*
X895000Y1437500D02*
D03*
D122*
X1032500Y1047500D02*
D03*
D123*
X850000Y1252500D02*
D03*
D124*
X617500Y1405000D02*
D03*
D125*
X755000Y1267500D02*
D03*
D126*
X800000Y1247500D02*
D03*
D127*
X755000Y1215000D02*
D03*
X850000Y1175000D02*
D03*
D128*
X802500Y1200000D02*
D03*
D129*
X915000Y1100000D02*
D03*
D130*
X800000Y1142500D02*
D03*
D131*
X3003000Y1226500D02*
D03*
D132*
X3046500Y1183500D02*
D03*
D133*
X2960500Y1184000D02*
D03*
D134*
X2979000Y1253000D02*
D03*
D135*
X2986000Y1303000D02*
D03*
X2030000Y1170000D02*
D03*
Y1360000D02*
D03*
Y1265000D02*
D03*
D136*
X3021000Y1309000D02*
D03*
D137*
X2958000Y1304500D02*
D03*
D138*
X2961000Y1316000D02*
D03*
D139*
X3035500Y1380000D02*
D03*
D140*
X3021500Y1206500D02*
D03*
D141*
X3312500Y1542500D02*
D03*
D142*
X3237500Y985000D02*
D03*
D143*
X3045000Y1510000D02*
D03*
X3070000D02*
D03*
X3095000D02*
D03*
X3120000D02*
D03*
X3145000D02*
D03*
X3170000D02*
D03*
X3045000Y1555000D02*
D03*
X3070000D02*
D03*
X3095000D02*
D03*
X3120000D02*
D03*
X3145000D02*
D03*
X3170000D02*
D03*
X3020000Y1550000D02*
D03*
X2995000D02*
D03*
X2970000D02*
D03*
X2945000D02*
D03*
X2920000D02*
D03*
X2895000D02*
D03*
X2870000D02*
D03*
X2845000D02*
D03*
X2820000D02*
D03*
X2795000Y1550000D02*
D03*
X2770000Y1550000D02*
D03*
X2745000Y1550000D02*
D03*
X2720000Y1550000D02*
D03*
X2695000Y1550000D02*
D03*
X2670000Y1550000D02*
D03*
X2645000Y1550000D02*
D03*
X2595000D02*
D03*
X2620000Y1550000D02*
D03*
X2570000D02*
D03*
X2546000Y1550000D02*
D03*
X2340000Y1399000D02*
D03*
X2365000D02*
D03*
X2440000D02*
D03*
X2415000D02*
D03*
X2390000D02*
D03*
X2465000D02*
D03*
X2340000Y1509000D02*
D03*
X2365000D02*
D03*
X2440000D02*
D03*
X2415000D02*
D03*
X2390000D02*
D03*
X2465000Y1509000D02*
D03*
X3020000Y1505000D02*
D03*
X2995000D02*
D03*
X2970000D02*
D03*
X2945000D02*
D03*
X2920000D02*
D03*
X2895000D02*
D03*
X2870000Y1510000D02*
D03*
X2845000D02*
D03*
X2820000D02*
D03*
X2795000Y1510000D02*
D03*
X2770000Y1505000D02*
D03*
X2745000Y1505000D02*
D03*
X2720000Y1510000D02*
D03*
X2695000Y1510000D02*
D03*
X2670000Y1510000D02*
D03*
X2645000Y1510000D02*
D03*
X2620000Y1510000D02*
D03*
X2595000Y1510000D02*
D03*
X2570000D02*
D03*
X2546000D02*
D03*
X2545000Y984000D02*
D03*
X2340000Y1550000D02*
D03*
X2365000D02*
D03*
X2390000D02*
D03*
X2340000Y1444000D02*
D03*
X2365000D02*
D03*
X2390000D02*
D03*
X2415000D02*
D03*
X2440000D02*
D03*
X2465000D02*
D03*
X2465000Y1550000D02*
D03*
X2440000D02*
D03*
X2415000D02*
D03*
X2465000Y1127000D02*
D03*
X2440000D02*
D03*
X2415000D02*
D03*
X2390000D02*
D03*
X2365000D02*
D03*
X2340000D02*
D03*
X2390000Y984000D02*
D03*
X2415000D02*
D03*
X2440000D02*
D03*
X2465000D02*
D03*
X2340000Y1084000D02*
D03*
X2365000D02*
D03*
X2390000D02*
D03*
X2415000D02*
D03*
X2440000D02*
D03*
X2465000D02*
D03*
X2340000Y984000D02*
D03*
X2365000D02*
D03*
D144*
X3045000Y1029500D02*
D03*
X3070000D02*
D03*
X3095000D02*
D03*
X3120000D02*
D03*
X3145000D02*
D03*
X3170000D02*
D03*
X3045000Y984500D02*
D03*
X3070000D02*
D03*
X3095000D02*
D03*
X3120000D02*
D03*
X3145000D02*
D03*
X3170000D02*
D03*
X3020000Y1024500D02*
D03*
X2995000D02*
D03*
X2970000D02*
D03*
X2945000D02*
D03*
X2920000D02*
D03*
X2895000D02*
D03*
X3020000Y984500D02*
D03*
X2995000D02*
D03*
X2970000D02*
D03*
X2945000D02*
D03*
X2920000D02*
D03*
X2895000D02*
D03*
X2870000Y1029500D02*
D03*
X2845000D02*
D03*
X2820000D02*
D03*
X2795000D02*
D03*
X2770000D02*
D03*
X2745000D02*
D03*
X2720000D02*
D03*
X2870000Y984500D02*
D03*
X2845000D02*
D03*
X2820000D02*
D03*
X2795000D02*
D03*
X2770000D02*
D03*
X2745000D02*
D03*
X2720000D02*
D03*
X2695000Y1029500D02*
D03*
X2670000D02*
D03*
X2645000D02*
D03*
X2620000D02*
D03*
X2595000D02*
D03*
X2695000Y984500D02*
D03*
X2670000D02*
D03*
X2645000D02*
D03*
X2620000D02*
D03*
X2595000D02*
D03*
X2570000D02*
D03*
D145*
X2200000Y920000D02*
D03*
D146*
X3410000Y1272500D02*
D03*
D147*
X2982500Y1567500D02*
D03*
D148*
X1217500Y1541000D02*
D03*
D149*
X2607500Y1567500D02*
D03*
D150*
X2830000Y1582500D02*
D03*
D151*
X2505000Y1555000D02*
D03*
Y980000D02*
D03*
D152*
X1155000Y985000D02*
D03*
X1160000Y1550000D02*
D03*
Y1400000D02*
D03*
Y1450000D02*
D03*
Y1500000D02*
D03*
X1160000Y1035000D02*
D03*
Y1085000D02*
D03*
Y1135000D02*
D03*
X1095000Y985000D02*
D03*
X1090000Y1550000D02*
D03*
X785000Y1500000D02*
D03*
X780000Y1035000D02*
D03*
X850000Y1500000D02*
D03*
X845000Y1035000D02*
D03*
Y985000D02*
D03*
X935000D02*
D03*
Y1035000D02*
D03*
X1000000Y1550000D02*
D03*
X780000Y1550000D02*
D03*
X850000D02*
D03*
X930000Y1550000D02*
D03*
Y1500000D02*
D03*
X1000000Y1500000D02*
D03*
X1090000Y1500000D02*
D03*
Y1450000D02*
D03*
Y1400000D02*
D03*
X1090000Y1035000D02*
D03*
Y1135000D02*
D03*
Y1085000D02*
D03*
X1000000Y1035000D02*
D03*
Y985000D02*
D03*
X780000D02*
D03*
D153*
X1185000Y1275000D02*
D03*
D154*
X2030000Y1085000D02*
D03*
Y1445000D02*
D03*
D155*
X2400000Y1391500D02*
D03*
D156*
X2402500Y1497500D02*
D03*
D157*
X890000Y985000D02*
D03*
D158*
X1230000Y977500D02*
D03*
D159*
X1060000Y947500D02*
D03*
D160*
X1230000Y1465000D02*
D03*
Y1385000D02*
D03*
Y1225000D02*
D03*
Y1145000D02*
D03*
D161*
Y1303500D02*
D03*
D162*
Y1065000D02*
D03*
D163*
X2920000Y1480000D02*
D03*
D164*
X2857500Y1052500D02*
D03*
D165*
X2882500Y957500D02*
D03*
D166*
X2600000Y957500D02*
D03*
D167*
X2557500D02*
D03*
D168*
X2570000Y1027500D02*
D03*
X2545000D02*
D03*
D169*
X2239000Y1265500D02*
D03*
D170*
X2332500Y957500D02*
D03*
D171*
X750000Y1490000D02*
D03*
D172*
X2335000Y1582500D02*
D03*
D173*
X2491000Y1058500D02*
D03*
D174*
X2371000Y1466500D02*
D03*
D175*
X1487500Y1310000D02*
D03*
X1972500D02*
D03*
D176*
X1412500Y1227500D02*
D03*
X1897500Y1227500D02*
D03*
X1737500D02*
D03*
X1572500Y1227500D02*
D03*
D177*
X2030000Y1435000D02*
D03*
D178*
Y1095000D02*
D03*
D179*
X1645000Y1312500D02*
D03*
D180*
X1812500Y1310000D02*
D03*
D181*
X1335000Y1503000D02*
D03*
D182*
Y1425000D02*
D03*
Y1185000D02*
D03*
Y1025000D02*
D03*
D183*
Y1345000D02*
D03*
Y1265000D02*
D03*
Y1105000D02*
D03*
D184*
X247500Y1143500D02*
D03*
Y1388500D02*
D03*
D185*
X297500Y1142500D02*
D03*
D186*
X555000Y1055000D02*
D03*
D187*
X890000Y1525000D02*
D03*
D188*
X2396500Y1019000D02*
D03*
D189*
X2239000Y1424000D02*
D03*
D190*
X2279000Y1390000D02*
D03*
D191*
X2236500Y1260000D02*
D03*
D192*
X2279000Y1232500D02*
D03*
D193*
X2255000Y1038000D02*
D03*
D194*
X2090000Y1135000D02*
D03*
D195*
X300000Y1387500D02*
D03*
D196*
X1070000Y1060000D02*
D03*
D197*
X1070000Y1475000D02*
D03*
D198*
X2402500Y1134500D02*
D03*
D199*
X2350000Y1055000D02*
D03*
D200*
X2090000Y1427500D02*
D03*
D201*
X2146000Y1336000D02*
D03*
D202*
X2257000Y1516500D02*
D03*
D203*
X2158500Y1185500D02*
D03*
D204*
X1755000Y970000D02*
D03*
D205*
X1792500Y1575000D02*
D03*
D206*
X3550000Y920000D02*
D03*
X2770000D02*
D03*
X2790000D02*
D03*
X2750000D02*
D03*
X2730000D02*
D03*
X1870000D02*
D03*
X1890000D02*
D03*
X1950000D02*
D03*
X1930000D02*
D03*
X1910000D02*
D03*
X2090000D02*
D03*
X2110000D02*
D03*
X2070000D02*
D03*
X2050000D02*
D03*
X2030000D02*
D03*
X2010000D02*
D03*
X1990000D02*
D03*
X1970000D02*
D03*
X3290000D02*
D03*
X3110000D02*
D03*
X3130000D02*
D03*
X3150000D02*
D03*
X3170000D02*
D03*
X3190000D02*
D03*
X3210000D02*
D03*
X3230000D02*
D03*
X3250000D02*
D03*
X3270000D02*
D03*
X3570000D02*
D03*
X3630000D02*
D03*
X3490000Y920000D02*
D03*
X3450000Y920000D02*
D03*
X3470000Y920000D02*
D03*
X2810000Y920000D02*
D03*
X2830000D02*
D03*
X3530000D02*
D03*
X3510000D02*
D03*
X2130000D02*
D03*
X2150000D02*
D03*
X2170000D02*
D03*
X2190000D02*
D03*
X2210000D02*
D03*
X2230000D02*
D03*
X2250000D02*
D03*
X2430000D02*
D03*
X2410000D02*
D03*
X2390000D02*
D03*
X2370000D02*
D03*
X2350000D02*
D03*
X2330000D02*
D03*
X2310000D02*
D03*
X2290000D02*
D03*
X2270000D02*
D03*
X3430000D02*
D03*
X3590000D02*
D03*
X3610000D02*
D03*
X3410000D02*
D03*
X3390000D02*
D03*
X3370000D02*
D03*
X3330000D02*
D03*
X3350000D02*
D03*
X3090000D02*
D03*
X3070000D02*
D03*
X3050000D02*
D03*
X3030000D02*
D03*
X3010000D02*
D03*
X2990000D02*
D03*
X2970000D02*
D03*
X2950000D02*
D03*
X2930000D02*
D03*
X2910000D02*
D03*
X2890000D02*
D03*
X2870000D02*
D03*
X2850000D02*
D03*
X1830000D02*
D03*
X1810000D02*
D03*
X1790000D02*
D03*
X1770000D02*
D03*
D207*
X1000000Y1235000D02*
D03*
Y1375000D02*
D03*
D208*
Y1160000D02*
D03*
X800000D02*
D03*
X850000D02*
D03*
X750000D02*
D03*
Y1235000D02*
D03*
X850000D02*
D03*
X800000D02*
D03*
X1000000Y1300000D02*
D03*
X800000D02*
D03*
X850000D02*
D03*
X750000D02*
D03*
Y1375000D02*
D03*
X850000D02*
D03*
X800000D02*
D03*
D209*
X3150000Y1160000D02*
D03*
Y1390000D02*
D03*
X760000Y960000D02*
D03*
Y1575000D02*
D03*
D210*
X306100Y1094300D02*
D03*
Y1071400D02*
D03*
Y1185700D02*
D03*
Y1208600D02*
D03*
X257800Y1175600D02*
D03*
X240000Y1165400D02*
D03*
X257800Y1155200D02*
D03*
X240000Y1145000D02*
D03*
X257800Y1134800D02*
D03*
X240000Y1124600D02*
D03*
X257800Y1114400D02*
D03*
X306100Y1344300D02*
D03*
Y1321400D02*
D03*
Y1435700D02*
D03*
Y1458600D02*
D03*
X257800Y1425600D02*
D03*
X240000Y1415400D02*
D03*
X257800Y1405200D02*
D03*
X240000Y1395000D02*
D03*
X257800Y1384800D02*
D03*
X240000Y1374600D02*
D03*
X257800Y1364400D02*
D03*
D211*
X248900Y1058700D02*
D03*
Y1221300D02*
D03*
Y1308700D02*
D03*
Y1471300D02*
D03*
D212*
X214600Y1076500D02*
D03*
Y1203500D02*
D03*
Y1326500D02*
D03*
Y1453500D02*
D03*
D213*
X240000Y1104200D02*
D03*
Y1354200D02*
D03*
D214*
X3175000Y1135000D02*
D03*
X3125000Y1090000D02*
D03*
X2635000Y1110000D02*
D03*
X2460000Y1255000D02*
D03*
X2440000Y1270000D02*
D03*
X2460000Y1280000D02*
D03*
X1110000Y1275000D02*
D03*
X975000Y1235000D02*
D03*
Y1375000D02*
D03*
X3085000Y1240000D02*
D03*
X2820000Y1150000D02*
D03*
X2445000Y1180000D02*
D03*
X2480000Y1175000D02*
D03*
X2815000Y1080000D02*
D03*
X2805000Y1275000D02*
D03*
X2810000Y1205000D02*
D03*
X2795000Y1140000D02*
D03*
Y1130000D02*
D03*
X3080000Y1135000D02*
D03*
X2580000Y1180000D02*
D03*
X2610000D02*
D03*
X2720000Y1245000D02*
D03*
X2609000Y1250000D02*
D03*
X2643000D02*
D03*
X2502000Y1206000D02*
D03*
X2497000Y1216000D02*
D03*
X1050000Y1595000D02*
D03*
X1060000Y1270000D02*
D03*
X2690000Y1295000D02*
D03*
X2675000Y1290000D02*
D03*
X2690000Y1285000D02*
D03*
X2460000Y1155000D02*
D03*
X2385000D02*
D03*
X2400000Y1170000D02*
D03*
X2465000Y1160000D02*
D03*
X2460000Y1165000D02*
D03*
X2465000Y1170000D02*
D03*
X2470000Y1175000D02*
D03*
X2440000Y1210000D02*
D03*
X2715000Y1265000D02*
D03*
X2710000Y1275000D02*
D03*
X2705000Y1295000D02*
D03*
Y1245000D02*
D03*
X2805000Y1210000D02*
D03*
X2795000Y1280000D02*
D03*
X2785000Y1260000D02*
D03*
X2810000Y1085000D02*
D03*
X2760000Y1285000D02*
D03*
Y1310000D02*
D03*
X2455000Y1200000D02*
D03*
X2465000Y1185000D02*
D03*
X2455000Y1215000D02*
D03*
X2450000Y1220000D02*
D03*
X2775000Y1225000D02*
D03*
X2574000Y1250000D02*
D03*
X2580000Y1240000D02*
D03*
Y1230000D02*
D03*
X2525000Y1165000D02*
D03*
X2600000Y1250000D02*
D03*
X2660000D02*
D03*
X2575000Y1260000D02*
D03*
X2590000Y1250000D02*
D03*
X2545000Y1175000D02*
D03*
X2580000Y1220000D02*
D03*
X2590000D02*
D03*
X2540000Y1165000D02*
D03*
X2570000D02*
D03*
X2610000Y1160000D02*
D03*
X2545000D02*
D03*
X2540000Y1155000D02*
D03*
X2545000Y1150000D02*
D03*
X2610000Y1095000D02*
D03*
X2540000Y1190000D02*
D03*
X2695000Y1185000D02*
D03*
X2705000Y1160000D02*
D03*
X2665000Y1170000D02*
D03*
X2695000Y1175000D02*
D03*
X2760000Y1170000D02*
D03*
X2685000Y1125000D02*
D03*
Y1185000D02*
D03*
Y1195000D02*
D03*
X2675000Y1130000D02*
D03*
X2665000Y1125000D02*
D03*
X2675000Y1205000D02*
D03*
X2605000Y1110000D02*
D03*
X2710000Y1325000D02*
D03*
X2715000Y1335000D02*
D03*
X2590000Y1281000D02*
D03*
X2546000Y1274000D02*
D03*
X2545000Y1287000D02*
D03*
X2695000Y1270000D02*
D03*
X2685000Y1280000D02*
D03*
X2567000Y1250000D02*
D03*
X2648000Y1280000D02*
D03*
X2523000Y1222000D02*
D03*
X2503000Y1199000D02*
D03*
X2480000Y1255000D02*
D03*
Y1275000D02*
D03*
X2572000Y1365000D02*
D03*
X2542000Y1234000D02*
D03*
X2705000Y1355000D02*
D03*
X2665000Y1345000D02*
D03*
X2670000Y1353000D02*
D03*
X2375000Y1275000D02*
D03*
X2380000Y1280000D02*
D03*
X2582000Y1209000D02*
D03*
X2580000Y1130000D02*
D03*
X2570000D02*
D03*
X2605000Y1175000D02*
D03*
X2615000Y1165000D02*
D03*
X2622000Y1221000D02*
D03*
X2550000Y1205000D02*
D03*
X2540000Y1299000D02*
D03*
X2521000Y1311000D02*
D03*
X2526000Y1286000D02*
D03*
X2540000Y1308000D02*
D03*
X2580000Y1295000D02*
D03*
X2615000Y1130000D02*
D03*
X2610000Y1120000D02*
D03*
X2655000Y1305000D02*
D03*
X2580000Y1265000D02*
D03*
X2570000Y1095000D02*
D03*
X2850000Y1445000D02*
D03*
X2575000Y1125000D02*
D03*
X2525000Y1130000D02*
D03*
X2545000Y1135000D02*
D03*
X2535000D02*
D03*
X2735000Y1375000D02*
D03*
X2580000Y1095000D02*
D03*
X2650000Y1215000D02*
D03*
X2655000Y1220000D02*
D03*
X2575000Y1209000D02*
D03*
X2540000Y1145000D02*
D03*
X2420000Y1180000D02*
D03*
X2478000Y1315000D02*
D03*
X2485000Y1322000D02*
D03*
X2495000Y1370000D02*
D03*
X2485000Y1435000D02*
D03*
X2530000D02*
D03*
X2452000Y1309000D02*
D03*
X2460000Y1355000D02*
D03*
X2450000Y1330000D02*
D03*
X2445000Y1325000D02*
D03*
X2430000Y1310000D02*
D03*
X2415000Y1350000D02*
D03*
X2405000Y1370000D02*
D03*
X2535000Y1213000D02*
D03*
X2498000Y1313000D02*
D03*
X2525000Y1323000D02*
D03*
X2519000Y1319000D02*
D03*
X2550000Y1365000D02*
D03*
Y1355000D02*
D03*
X2545000Y1350000D02*
D03*
X2515000Y1180000D02*
D03*
X2500000Y1185000D02*
D03*
X2580000Y1285000D02*
D03*
X2535000Y1323000D02*
D03*
X3090000Y1445000D02*
D03*
X2735000Y1225000D02*
D03*
Y1205000D02*
D03*
X2700000D02*
D03*
Y1225000D02*
D03*
X2585000Y1365000D02*
D03*
Y1337000D02*
D03*
X2620000Y1355000D02*
D03*
X2660000Y1325000D02*
D03*
X2795000Y1385000D02*
D03*
X2615000Y1375000D02*
D03*
X2595000Y1321000D02*
D03*
X2600000Y1327000D02*
D03*
X2730000Y1395000D02*
D03*
X2720000Y1400000D02*
D03*
X2810000Y1390000D02*
D03*
X2790000Y1415000D02*
D03*
X3080000Y1245000D02*
D03*
X3070000D02*
D03*
X2795000Y1405000D02*
D03*
X2585000Y1385000D02*
D03*
X2575000Y1415000D02*
D03*
X2595000Y1385000D02*
D03*
X2585000Y1395000D02*
D03*
X2615000Y1410000D02*
D03*
Y1385000D02*
D03*
X2775000Y1420000D02*
D03*
X2845000D02*
D03*
X2820000Y1410000D02*
D03*
X2810000D02*
D03*
X2780000D02*
D03*
X2770000Y1425000D02*
D03*
X2840000D02*
D03*
X2770000Y1435000D02*
D03*
X2815000D02*
D03*
X2775000Y1430000D02*
D03*
X2800000D02*
D03*
X2520000Y1275000D02*
D03*
X2545000Y1435000D02*
D03*
X2760000Y1445000D02*
D03*
X2399000Y1274000D02*
D03*
X2485000Y1090000D02*
D03*
Y1351000D02*
D03*
X2498000Y1320000D02*
D03*
X2530000Y1188000D02*
D03*
X2520000D02*
D03*
X2510000D02*
D03*
X2515000Y1367000D02*
D03*
X2435000Y1285000D02*
D03*
X2520000Y1255000D02*
D03*
X2543000Y1265000D02*
D03*
X2500000Y1395000D02*
D03*
X2515000D02*
D03*
X2487000Y1215000D02*
D03*
X2535000Y1220000D02*
D03*
X2435000Y1245000D02*
D03*
X2470000D02*
D03*
X2463000Y1291000D02*
D03*
X2470000Y1360000D02*
D03*
X2426000Y1298000D02*
D03*
X2387000Y1316000D02*
D03*
X2408000Y1305000D02*
D03*
X2400000D02*
D03*
X2399000Y1232000D02*
D03*
X2492000Y1220000D02*
D03*
X2419000Y1277000D02*
D03*
X2415000Y1234000D02*
D03*
X2405000D02*
D03*
X2410000Y1238000D02*
D03*
X2405000Y1287000D02*
D03*
Y1280000D02*
D03*
X2390000Y1305000D02*
D03*
X2385000Y1295000D02*
D03*
X2336000Y1154000D02*
D03*
X965000Y1575000D02*
D03*
X2188000Y1525000D02*
D03*
X1690000Y1295000D02*
D03*
X980000Y1050000D02*
D03*
X995000Y1055000D02*
D03*
X2641000Y1304000D02*
D03*
X1700000Y1280000D02*
D03*
X980000Y1525000D02*
D03*
X285000Y1265000D02*
D03*
X3080000Y1280000D02*
D03*
X3010000Y1310000D02*
D03*
X3035000D02*
D03*
X2935000Y1240000D02*
D03*
X3015000Y1240000D02*
D03*
X2910000Y1180000D02*
D03*
X2895000D02*
D03*
X2895000Y1240000D02*
D03*
X2910000Y1240000D02*
D03*
X2925000D02*
D03*
Y1300000D02*
D03*
X2910000D02*
D03*
X2895000D02*
D03*
X2880000D02*
D03*
Y1360000D02*
D03*
X2925000D02*
D03*
X2910000D02*
D03*
X2895000D02*
D03*
X2893000Y1429000D02*
D03*
X2915000D02*
D03*
X2937000D02*
D03*
X3018000Y1263000D02*
D03*
X2925000Y1180000D02*
D03*
X2880000Y1240000D02*
D03*
Y1180000D02*
D03*
X2609000Y1308000D02*
D03*
X2602000Y1305000D02*
D03*
X2622000Y1308000D02*
D03*
X2615000Y1304000D02*
D03*
X2665000Y1195000D02*
D03*
X2515000Y1130000D02*
D03*
X2635000Y1308000D02*
D03*
X2628000Y1304000D02*
D03*
X2641000Y1226000D02*
D03*
X2635000Y1222000D02*
D03*
X2629000Y1226000D02*
D03*
X2312000Y1154000D02*
D03*
X2315000Y1140000D02*
D03*
X2250000D02*
D03*
X2220000Y1405000D02*
D03*
X2500000Y1130000D02*
D03*
D215*
X2705000Y940000D02*
D03*
X2695000Y955000D02*
D03*
X2705000Y970000D02*
D03*
X2685000D02*
D03*
Y940000D02*
D03*
X2675000Y955000D02*
D03*
X2665000Y940000D02*
D03*
Y970000D02*
D03*
X2655000Y955000D02*
D03*
X2645000Y970000D02*
D03*
Y940000D02*
D03*
X2625000D02*
D03*
Y970000D02*
D03*
X2615000Y955000D02*
D03*
X2605000Y970000D02*
D03*
Y940000D02*
D03*
X2635000Y955000D02*
D03*
X2595000D02*
D03*
X2555000Y955000D02*
D03*
X2585000Y940000D02*
D03*
X2565000D02*
D03*
X2585000Y970000D02*
D03*
X2565000D02*
D03*
X1025000Y1340000D02*
D03*
X1010000D02*
D03*
X995000D02*
D03*
X1025000Y1355000D02*
D03*
X1010000D02*
D03*
X995000D02*
D03*
X2545000Y940000D02*
D03*
Y970000D02*
D03*
X2575000Y955000D02*
D03*
X2620000Y1110000D02*
D03*
X1230000Y1560000D02*
D03*
Y1540000D02*
D03*
X1215000Y1520000D02*
D03*
Y1545000D02*
D03*
X905000Y975000D02*
D03*
X875000D02*
D03*
X905000Y1550000D02*
D03*
X875000D02*
D03*
X3065000Y1055000D02*
D03*
X2965000D02*
D03*
X2990000Y1070000D02*
D03*
X3040000D02*
D03*
X2990000Y1040000D02*
D03*
X3040000D02*
D03*
X3015000Y1055000D02*
D03*
X2725000Y1365000D02*
D03*
X2360000Y1255000D02*
D03*
X2320000Y1245000D02*
D03*
Y1265000D02*
D03*
X2325000Y1255000D02*
D03*
X2365000Y1265000D02*
D03*
X2370000Y1255000D02*
D03*
X2365000Y1245000D02*
D03*
X2330000D02*
D03*
Y1265000D02*
D03*
X2270000D02*
D03*
X2260000Y1255000D02*
D03*
X2280000D02*
D03*
X2270000Y1245000D02*
D03*
X2260000Y1235000D02*
D03*
Y1215000D02*
D03*
X2270000Y1225000D02*
D03*
X2280000Y1235000D02*
D03*
Y1215000D02*
D03*
X2300000D02*
D03*
X2290000Y1225000D02*
D03*
X920000Y1540000D02*
D03*
X925000Y1025000D02*
D03*
Y1005000D02*
D03*
Y985000D02*
D03*
X905000Y1035000D02*
D03*
Y1015000D02*
D03*
Y995000D02*
D03*
X855000Y985000D02*
D03*
Y1005000D02*
D03*
Y1025000D02*
D03*
X875000Y995000D02*
D03*
Y1015000D02*
D03*
Y1035000D02*
D03*
Y1530000D02*
D03*
Y1510000D02*
D03*
X855000Y1540000D02*
D03*
Y1520000D02*
D03*
Y1500000D02*
D03*
X1025000Y1325000D02*
D03*
X1010000D02*
D03*
X995000D02*
D03*
X2985000Y1320000D02*
D03*
Y1335000D02*
D03*
X2970000Y1320000D02*
D03*
X2955000D02*
D03*
X3058000Y1413000D02*
D03*
Y1388000D02*
D03*
Y1363000D02*
D03*
X3033000D02*
D03*
X3008000D02*
D03*
X2983000D02*
D03*
Y1388000D02*
D03*
X3008000D02*
D03*
X3033000D02*
D03*
X3008000Y1413000D02*
D03*
X3033000D02*
D03*
X2983000D02*
D03*
X2613000Y1201000D02*
D03*
X3115000Y1475000D02*
D03*
X3165000Y1474000D02*
D03*
X3140000Y1455000D02*
D03*
X3090000D02*
D03*
X3140000Y1495000D02*
D03*
X3090000D02*
D03*
X3065000Y1475000D02*
D03*
X3015000Y1475000D02*
D03*
X2890000Y1455000D02*
D03*
X2990000Y1455000D02*
D03*
X2940000D02*
D03*
X3040000D02*
D03*
X2990000Y1495000D02*
D03*
X3040000D02*
D03*
X2940000D02*
D03*
X2915000Y1476000D02*
D03*
X2965000Y1475000D02*
D03*
X2890000Y1495000D02*
D03*
X905000Y1510000D02*
D03*
X925000Y1500000D02*
D03*
Y1520000D02*
D03*
X905000Y1530000D02*
D03*
X2820000Y1054000D02*
D03*
X2915000Y1055000D02*
D03*
X2940000Y1040000D02*
D03*
X2840000D02*
D03*
X2890000D02*
D03*
X2840000Y1070000D02*
D03*
X2940000D02*
D03*
X2890000D02*
D03*
X2865000Y1055000D02*
D03*
X2790000Y1565000D02*
D03*
X2770000D02*
D03*
X2745000D02*
D03*
X2505000D02*
D03*
X2490000D02*
D03*
X2525000D02*
D03*
X2545000D02*
D03*
X2570000D02*
D03*
X2620000D02*
D03*
X2645000D02*
D03*
X2670000D02*
D03*
X2695000D02*
D03*
X2720000D02*
D03*
X1200000Y1560000D02*
D03*
X1170000D02*
D03*
X1200000Y1335000D02*
D03*
Y1310000D02*
D03*
X1185000Y1345000D02*
D03*
Y1320000D02*
D03*
X1170000Y1310000D02*
D03*
Y1335000D02*
D03*
X1200000Y1385000D02*
D03*
Y1360000D02*
D03*
X1185000Y1395000D02*
D03*
Y1370000D02*
D03*
X1170000Y1360000D02*
D03*
Y1385000D02*
D03*
X1185000Y1420000D02*
D03*
X1200000Y1410000D02*
D03*
Y1435000D02*
D03*
X1170000Y1410000D02*
D03*
X1185000Y1445000D02*
D03*
X1170000Y1435000D02*
D03*
Y1460000D02*
D03*
X1185000Y1470000D02*
D03*
X1200000Y1460000D02*
D03*
Y1485000D02*
D03*
X1185000Y1495000D02*
D03*
X1200000Y1510000D02*
D03*
X1185000Y1520000D02*
D03*
X1170000Y1485000D02*
D03*
Y1510000D02*
D03*
X1200000Y1535000D02*
D03*
X1185000Y1545000D02*
D03*
X1170000Y1535000D02*
D03*
X2595000Y1565000D02*
D03*
X2040000Y1085000D02*
D03*
X2020000D02*
D03*
X2040000Y1445000D02*
D03*
X2020000D02*
D03*
X2415000Y1390000D02*
D03*
X2440000D02*
D03*
X2465000D02*
D03*
X2365000D02*
D03*
X2390000D02*
D03*
X2340000D02*
D03*
X2415000Y1495000D02*
D03*
X2440000D02*
D03*
X2465000D02*
D03*
X2365000D02*
D03*
X2390000D02*
D03*
X2340000D02*
D03*
X2570000Y1055000D02*
D03*
X2620000D02*
D03*
X2745000Y1070000D02*
D03*
X2645000Y1070000D02*
D03*
X2695000D02*
D03*
X2595000D02*
D03*
X2545000D02*
D03*
X2645000Y1040000D02*
D03*
X2595000D02*
D03*
X2545000D02*
D03*
X2695000D02*
D03*
X2720000Y1054000D02*
D03*
X2670000Y1055000D02*
D03*
X2770000Y1054000D02*
D03*
X2795000Y1070000D02*
D03*
Y1040000D02*
D03*
X2745000D02*
D03*
X2595000Y1495000D02*
D03*
X2545000D02*
D03*
Y1455000D02*
D03*
X2570000Y1476000D02*
D03*
X2670000Y1475000D02*
D03*
X2620000Y1476000D02*
D03*
X2645000Y1495000D02*
D03*
X2745000D02*
D03*
X2695000D02*
D03*
X2745000Y1455000D02*
D03*
X2645000D02*
D03*
X2695000D02*
D03*
X2595000Y1455000D02*
D03*
X2720000Y1475000D02*
D03*
X1230000Y960000D02*
D03*
Y990000D02*
D03*
Y1005000D02*
D03*
Y975000D02*
D03*
X2270000Y1415000D02*
D03*
X2260000Y1410000D02*
D03*
X2280000D02*
D03*
X2300000D02*
D03*
X2290000Y1415000D02*
D03*
Y1400000D02*
D03*
X2270000D02*
D03*
Y1385000D02*
D03*
X2260000Y1380000D02*
D03*
X2280000D02*
D03*
X2300000D02*
D03*
X2290000Y1385000D02*
D03*
X2030000Y1255000D02*
D03*
Y1275000D02*
D03*
X2260000Y1395000D02*
D03*
X2280000D02*
D03*
X2300000D02*
D03*
X2327000Y1019000D02*
D03*
X2352000D02*
D03*
X2377000D02*
D03*
X2402000D02*
D03*
X2427000D02*
D03*
X2452000D02*
D03*
X2465000Y1135000D02*
D03*
X2440000D02*
D03*
X2415000D02*
D03*
X2390000D02*
D03*
X2365000D02*
D03*
X2340000D02*
D03*
M02*
