G04*
G04 #@! TF.GenerationSoftware,Altium Limited,Altium Designer,18.1.7 (191)*
G04*
G04 Layer_Color=8421504*
%FSLAX44Y44*%
%MOMM*%
G71*
G01*
G75*
%ADD16R,0.6000X0.6000*%
%ADD17R,0.6000X0.6000*%
%ADD18R,0.5500X0.8000*%
%ADD19R,0.4500X1.0000*%
%ADD20R,2.0000X1.1000*%
%ADD21R,1.2000X1.5000*%
%ADD22R,0.8000X0.8000*%
%ADD23R,0.9800X0.9300*%
%ADD24R,0.3000X1.6500*%
%ADD25R,0.8000X0.5500*%
%ADD26R,10.1600X9.5000*%
%ADD27R,4.5000X1.2500*%
%ADD28R,1.5000X1.3000*%
%ADD29R,1.1000X2.0000*%
%ADD30R,0.9000X1.7000*%
%ADD31R,3.2000X1.7000*%
%ADD32R,0.9300X0.9800*%
%ADD33R,0.2500X0.7000*%
%ADD34R,0.2500X1.8000*%
%ADD35R,0.7000X0.2500*%
%ADD36R,0.2500X1.5000*%
%ADD37R,1.8000X3.4000*%
%ADD38R,2.9000X5.4000*%
%ADD39R,1.8000X2.2000*%
%ADD40R,1.5000X1.2000*%
%ADD41R,10.6000X8.5000*%
%ADD42R,0.9000X3.3000*%
%ADD43R,1.8000X1.6000*%
%ADD44R,0.3000X1.4500*%
%ADD45R,2.2000X1.8000*%
%ADD46R,3.4000X1.8000*%
G36*
X2125700Y1257400D02*
X2106316D01*
Y1272605D01*
X2125700D01*
Y1257400D01*
D02*
G37*
G36*
X2101700D02*
X2082302D01*
Y1272606D01*
X2101700D01*
Y1257400D01*
D02*
G37*
G36*
X2070000Y1272611D02*
X2077700D01*
Y1257400D01*
X2058270D01*
Y1272611D01*
X2058274D01*
Y1275112D01*
X2070000D01*
Y1272611D01*
D02*
G37*
G36*
X2053700Y1257400D02*
X2034278D01*
Y1275105D01*
X2053700D01*
Y1257400D01*
D02*
G37*
D16*
X2410000Y1254920D02*
D03*
Y1265080D02*
D03*
Y1240080D02*
D03*
Y1229920D02*
D03*
X2405000Y1289920D02*
D03*
Y1300080D02*
D03*
X2375000D02*
D03*
Y1289920D02*
D03*
X2395000Y1300080D02*
D03*
Y1289920D02*
D03*
X2375000Y1199920D02*
D03*
Y1210080D02*
D03*
X2395000D02*
D03*
Y1199920D02*
D03*
X2170000Y1240080D02*
D03*
Y1229920D02*
D03*
Y1305080D02*
D03*
Y1294920D02*
D03*
X2160000Y1115080D02*
D03*
Y1104920D02*
D03*
X2170000Y1115080D02*
D03*
Y1104920D02*
D03*
X2180000Y1115080D02*
D03*
Y1104920D02*
D03*
X2010000Y1179920D02*
D03*
Y1190080D02*
D03*
X2085000Y1359920D02*
D03*
Y1370080D02*
D03*
X2095000Y1360080D02*
D03*
Y1349920D02*
D03*
X2145000Y1340080D02*
D03*
Y1329920D02*
D03*
X2135000D02*
D03*
Y1340080D02*
D03*
X2185000Y1319920D02*
D03*
Y1330080D02*
D03*
X2160000Y1390080D02*
D03*
Y1379920D02*
D03*
X2185000Y1344920D02*
D03*
Y1355080D02*
D03*
X2065000Y1205080D02*
D03*
Y1194920D02*
D03*
X2095000Y1329920D02*
D03*
Y1340080D02*
D03*
X2078000Y1205080D02*
D03*
Y1194920D02*
D03*
X2095000Y1205080D02*
D03*
Y1194920D02*
D03*
X2125000Y1329920D02*
D03*
Y1340080D02*
D03*
X2115000D02*
D03*
Y1329920D02*
D03*
X2110000Y1194920D02*
D03*
Y1205080D02*
D03*
X2005000Y1340080D02*
D03*
Y1329920D02*
D03*
X2025000Y1360080D02*
D03*
Y1349920D02*
D03*
X2035000Y1340080D02*
D03*
Y1329920D02*
D03*
X2025000Y1340080D02*
D03*
Y1329920D02*
D03*
X2005000Y1360080D02*
D03*
Y1349920D02*
D03*
X2135000Y1360080D02*
D03*
Y1349920D02*
D03*
X2125000Y1360080D02*
D03*
Y1349920D02*
D03*
X2115000Y1360080D02*
D03*
Y1349920D02*
D03*
X2015000Y1340080D02*
D03*
Y1329920D02*
D03*
X2120000Y1194920D02*
D03*
Y1205080D02*
D03*
X2035000Y1349920D02*
D03*
Y1360080D02*
D03*
X2045000Y1349920D02*
D03*
Y1360080D02*
D03*
X2155000Y1340080D02*
D03*
Y1329920D02*
D03*
X2085000D02*
D03*
Y1340080D02*
D03*
X2130000Y1205080D02*
D03*
Y1194920D02*
D03*
X2060000Y1329920D02*
D03*
Y1340080D02*
D03*
X2070000Y1329920D02*
D03*
Y1340080D02*
D03*
X2245000Y1334920D02*
D03*
Y1345080D02*
D03*
X2460000Y1400080D02*
D03*
Y1389920D02*
D03*
X2200000Y1334920D02*
D03*
Y1345080D02*
D03*
X2208000Y1314920D02*
D03*
Y1325080D02*
D03*
X2250000Y1314920D02*
D03*
Y1325080D02*
D03*
X2235000D02*
D03*
Y1314920D02*
D03*
X2229000Y1345080D02*
D03*
Y1334920D02*
D03*
X1290000Y1254920D02*
D03*
Y1265080D02*
D03*
X2420000Y1389920D02*
D03*
Y1400080D02*
D03*
X2222000Y1179920D02*
D03*
Y1190080D02*
D03*
X2228000Y1204920D02*
D03*
Y1215080D02*
D03*
X2235000Y1179920D02*
D03*
Y1190080D02*
D03*
X2241000Y1204920D02*
D03*
Y1215080D02*
D03*
X2265000Y1204920D02*
D03*
Y1215080D02*
D03*
X1740000Y1035080D02*
D03*
Y1024920D02*
D03*
Y1494920D02*
D03*
Y1505080D02*
D03*
X1895000Y1350080D02*
D03*
Y1339920D02*
D03*
Y1179920D02*
D03*
Y1190080D02*
D03*
X2260000Y1384920D02*
D03*
Y1395080D02*
D03*
Y1414920D02*
D03*
Y1425080D02*
D03*
X2215000Y1345080D02*
D03*
Y1334920D02*
D03*
X2221500Y1325080D02*
D03*
Y1314920D02*
D03*
D17*
X2374920Y1140000D02*
D03*
X2385080D02*
D03*
X2477840Y1445000D02*
D03*
X2488000D02*
D03*
X2234840Y1110000D02*
D03*
X2245000D02*
D03*
X2245160Y1120000D02*
D03*
X2235000D02*
D03*
X2379920Y1340000D02*
D03*
X2390080D02*
D03*
X2374920Y1150000D02*
D03*
X2385080D02*
D03*
X2295080Y1325000D02*
D03*
X2284920D02*
D03*
X2295080Y1305000D02*
D03*
X2284920D02*
D03*
X2295080Y1355000D02*
D03*
X2284920D02*
D03*
X2295080Y1335000D02*
D03*
X2284920D02*
D03*
X2160080Y1230000D02*
D03*
X2149920D02*
D03*
Y1295000D02*
D03*
X2160080D02*
D03*
Y1305000D02*
D03*
X2149920D02*
D03*
X2145080Y1395000D02*
D03*
X2134920D02*
D03*
X2324920Y1235000D02*
D03*
X2335080D02*
D03*
X2310080D02*
D03*
X2299920D02*
D03*
X2310080Y1215000D02*
D03*
X2299920D02*
D03*
X2310080Y1195000D02*
D03*
X2299920D02*
D03*
X2324920Y1215000D02*
D03*
X2335080D02*
D03*
X2324920Y1195000D02*
D03*
X2335080D02*
D03*
X2199920Y1360000D02*
D03*
X2210080D02*
D03*
X2240080D02*
D03*
X2229920D02*
D03*
X2339920Y1435000D02*
D03*
X2350080D02*
D03*
X2184920Y1310000D02*
D03*
X2195080D02*
D03*
X2160080Y1240000D02*
D03*
X2149920D02*
D03*
X2160080Y1220000D02*
D03*
X2149920D02*
D03*
Y1265000D02*
D03*
X2160080D02*
D03*
Y1250000D02*
D03*
X2149920D02*
D03*
X2059920Y1320000D02*
D03*
X2070080D02*
D03*
X570080Y1010000D02*
D03*
X559920D02*
D03*
X2649920Y1255000D02*
D03*
X2660080D02*
D03*
X2669920Y1305000D02*
D03*
X2680080D02*
D03*
X2674920Y1255000D02*
D03*
X2685080D02*
D03*
X559920Y1525000D02*
D03*
X570080D02*
D03*
X1765080Y1500000D02*
D03*
X1754920D02*
D03*
X1880080Y1345000D02*
D03*
X1869920D02*
D03*
X1880080Y1185000D02*
D03*
X1869920D02*
D03*
X1765080Y1030000D02*
D03*
X1754920D02*
D03*
X2274920Y1410000D02*
D03*
X2285080D02*
D03*
X284920Y1475000D02*
D03*
X295080D02*
D03*
X280080Y1265000D02*
D03*
X269920D02*
D03*
X284920Y1055000D02*
D03*
X295080D02*
D03*
X300000Y1265000D02*
D03*
X310160D02*
D03*
X2310000Y1400000D02*
D03*
X2299840D02*
D03*
X2285080D02*
D03*
X2274920D02*
D03*
X2310080Y1410000D02*
D03*
X2299920D02*
D03*
D18*
X2230500Y1133500D02*
D03*
X2249500D02*
D03*
X2240000Y1156500D02*
D03*
X2394500Y1326500D02*
D03*
X2375500D02*
D03*
X2385000Y1303500D02*
D03*
X2394500Y1186500D02*
D03*
X2375500D02*
D03*
X2385000Y1163500D02*
D03*
X2375500Y1258500D02*
D03*
X2394500D02*
D03*
X2385000Y1281500D02*
D03*
X2394500Y1236500D02*
D03*
X2375500D02*
D03*
X2385000Y1213500D02*
D03*
X2345000Y1398500D02*
D03*
X2335500Y1421500D02*
D03*
X2354500D02*
D03*
D19*
X1950000Y1186000D02*
D03*
Y1164000D02*
D03*
X675000Y1371000D02*
D03*
Y1349000D02*
D03*
X1993000Y1211000D02*
D03*
Y1233000D02*
D03*
Y1252000D02*
D03*
Y1274000D02*
D03*
X675000Y1164000D02*
D03*
Y1186000D02*
D03*
X1950000Y1364000D02*
D03*
Y1342000D02*
D03*
X1920000Y1364000D02*
D03*
Y1342000D02*
D03*
X1920000Y1164000D02*
D03*
Y1186000D02*
D03*
X2243000Y1376000D02*
D03*
Y1398000D02*
D03*
Y1434000D02*
D03*
Y1412000D02*
D03*
D20*
X675000Y1248000D02*
D03*
Y1212000D02*
D03*
Y1287000D02*
D03*
Y1323000D02*
D03*
X2355000Y1262000D02*
D03*
Y1298000D02*
D03*
Y1192000D02*
D03*
Y1228000D02*
D03*
D21*
X2048954Y1160000D02*
D03*
X2021046D02*
D03*
X1626046Y1175000D02*
D03*
X1653954D02*
D03*
X1626046Y1355000D02*
D03*
X1653954D02*
D03*
D22*
X2283000Y1315000D02*
D03*
X2297000D02*
D03*
X2283000Y1345000D02*
D03*
X2297000D02*
D03*
D23*
X2145000Y1102300D02*
D03*
Y1117700D02*
D03*
X2085000Y1422700D02*
D03*
Y1407300D02*
D03*
X2115000Y1102300D02*
D03*
Y1117700D02*
D03*
X2145000Y1407300D02*
D03*
Y1422700D02*
D03*
X1950000Y1327700D02*
D03*
Y1312300D02*
D03*
X1920000Y1312300D02*
D03*
Y1327700D02*
D03*
X1950000Y1217700D02*
D03*
Y1202300D02*
D03*
X1920000Y1202300D02*
D03*
Y1217700D02*
D03*
X2480000Y1172700D02*
D03*
Y1157300D02*
D03*
X2525000Y1142700D02*
D03*
Y1127300D02*
D03*
X2510000D02*
D03*
Y1142700D02*
D03*
X2495000Y1127300D02*
D03*
Y1142700D02*
D03*
X2480000D02*
D03*
Y1127300D02*
D03*
X2525000Y1157300D02*
D03*
Y1172700D02*
D03*
X2510000Y1157300D02*
D03*
Y1172700D02*
D03*
X2495000Y1157300D02*
D03*
Y1172700D02*
D03*
X2525000Y1202700D02*
D03*
Y1187300D02*
D03*
X2510000D02*
D03*
Y1202700D02*
D03*
X2495000Y1187300D02*
D03*
Y1202700D02*
D03*
X2480000Y1187300D02*
D03*
Y1202700D02*
D03*
X2525000Y1232700D02*
D03*
Y1217300D02*
D03*
X2510000Y1232700D02*
D03*
Y1217300D02*
D03*
X2495000Y1232700D02*
D03*
Y1217300D02*
D03*
X2480000Y1232700D02*
D03*
Y1217300D02*
D03*
X2525000Y1247300D02*
D03*
Y1262700D02*
D03*
X2510000Y1247300D02*
D03*
Y1262700D02*
D03*
X2495000D02*
D03*
Y1247300D02*
D03*
X2480000Y1262700D02*
D03*
Y1247300D02*
D03*
X2525000Y1277300D02*
D03*
Y1292700D02*
D03*
X2510000Y1277300D02*
D03*
Y1292700D02*
D03*
X2495000Y1277300D02*
D03*
Y1292700D02*
D03*
X2480000Y1277300D02*
D03*
Y1292700D02*
D03*
X2525000Y1307300D02*
D03*
Y1322700D02*
D03*
X2510000Y1307300D02*
D03*
Y1322700D02*
D03*
X2495000Y1307300D02*
D03*
Y1322700D02*
D03*
X2480000Y1307300D02*
D03*
Y1322700D02*
D03*
X2525000Y1352700D02*
D03*
Y1337300D02*
D03*
X2510000Y1352700D02*
D03*
Y1337300D02*
D03*
X2495000D02*
D03*
Y1352700D02*
D03*
X2480000Y1337300D02*
D03*
Y1352700D02*
D03*
X2525000Y1382700D02*
D03*
Y1367300D02*
D03*
X2510000Y1382700D02*
D03*
Y1367300D02*
D03*
X2495000Y1382700D02*
D03*
Y1367300D02*
D03*
X2480000Y1382700D02*
D03*
Y1367300D02*
D03*
X2010000Y1247300D02*
D03*
Y1262700D02*
D03*
Y1222700D02*
D03*
Y1207300D02*
D03*
X2130000Y1407300D02*
D03*
Y1422700D02*
D03*
X2130000Y1117700D02*
D03*
Y1102300D02*
D03*
X2115000Y1422700D02*
D03*
Y1407300D02*
D03*
X2100000Y1422700D02*
D03*
Y1407300D02*
D03*
X2100000Y1102300D02*
D03*
Y1117700D02*
D03*
D24*
X2155500Y1143250D02*
D03*
X2162000D02*
D03*
X2168500D02*
D03*
X2175000D02*
D03*
X2181500D02*
D03*
X2188000D02*
D03*
X2194500D02*
D03*
X2155500Y1196750D02*
D03*
X2162000D02*
D03*
X2168500D02*
D03*
X2175000D02*
D03*
X2181500D02*
D03*
X2188000D02*
D03*
X2194500D02*
D03*
D25*
X2028500Y1199500D02*
D03*
Y1180500D02*
D03*
X2051500Y1190000D02*
D03*
X2171500Y1385000D02*
D03*
X2194500Y1394500D02*
D03*
Y1375500D02*
D03*
X2668500Y1280000D02*
D03*
X2691500Y1289500D02*
D03*
Y1270500D02*
D03*
X2226500Y1415500D02*
D03*
Y1434500D02*
D03*
X2203500Y1425000D02*
D03*
Y1385000D02*
D03*
X2226500Y1394500D02*
D03*
Y1375500D02*
D03*
X2171500Y1425000D02*
D03*
X2194500Y1434500D02*
D03*
Y1415500D02*
D03*
D26*
X1850000Y1030000D02*
D03*
X1790000Y1185000D02*
D03*
Y1345000D02*
D03*
X1850000Y1500000D02*
D03*
D27*
X1758560Y1055400D02*
D03*
Y1004600D02*
D03*
X1881440Y1159600D02*
D03*
Y1210400D02*
D03*
Y1319600D02*
D03*
Y1370400D02*
D03*
X1758560Y1525400D02*
D03*
Y1474600D02*
D03*
D28*
X1985000Y1360500D02*
D03*
Y1341500D02*
D03*
D29*
X888000Y1006000D02*
D03*
X852000D02*
D03*
Y1046000D02*
D03*
X888000D02*
D03*
Y1086000D02*
D03*
X852000D02*
D03*
X852000Y1126000D02*
D03*
X888000D02*
D03*
X888000Y1166000D02*
D03*
X852000D02*
D03*
Y1206000D02*
D03*
X888000D02*
D03*
Y1246000D02*
D03*
X852000D02*
D03*
Y1286000D02*
D03*
X888000D02*
D03*
Y1326000D02*
D03*
X852000D02*
D03*
Y1366000D02*
D03*
X888000D02*
D03*
X888000Y1406000D02*
D03*
X852000D02*
D03*
X852000Y1446000D02*
D03*
X888000D02*
D03*
X888000Y1486000D02*
D03*
X852000D02*
D03*
Y1526000D02*
D03*
X888000D02*
D03*
X2277000Y1430000D02*
D03*
X2313000D02*
D03*
X2277000Y1380000D02*
D03*
X2313000D02*
D03*
D30*
X2343000Y1170500D02*
D03*
X2320000D02*
D03*
X2297000D02*
D03*
D31*
X2320000Y1109500D02*
D03*
D32*
X1972300Y1325000D02*
D03*
X1987700D02*
D03*
X2620300Y1253000D02*
D03*
X2635700D02*
D03*
X2248300Y1182000D02*
D03*
X2263700D02*
D03*
D33*
X2127500Y1299000D02*
D03*
X2072500D02*
D03*
X2067500D02*
D03*
X2062500D02*
D03*
X2057500D02*
D03*
X2052500D02*
D03*
X2047500D02*
D03*
X2042500D02*
D03*
X2037500D02*
D03*
X2032500D02*
D03*
Y1231000D02*
D03*
X2042500D02*
D03*
X2047500D02*
D03*
X2052500D02*
D03*
X2057500D02*
D03*
X2067500D02*
D03*
X2072500D02*
D03*
X2127500D02*
D03*
D34*
X2122500Y1293500D02*
D03*
X2117500D02*
D03*
X2112500D02*
D03*
X2107500D02*
D03*
X2102500D02*
D03*
X2097500D02*
D03*
X2092500D02*
D03*
X2087500D02*
D03*
X2082500D02*
D03*
X2077500D02*
D03*
X2107500Y1236500D02*
D03*
X2112500D02*
D03*
X2117500D02*
D03*
X2122500D02*
D03*
D35*
X2026000Y1292500D02*
D03*
Y1287500D02*
D03*
Y1282500D02*
D03*
Y1277500D02*
D03*
Y1272500D02*
D03*
Y1262500D02*
D03*
Y1257500D02*
D03*
Y1252500D02*
D03*
Y1242500D02*
D03*
Y1237500D02*
D03*
X2134000D02*
D03*
Y1242500D02*
D03*
Y1247500D02*
D03*
Y1252500D02*
D03*
Y1257500D02*
D03*
Y1262500D02*
D03*
Y1267500D02*
D03*
Y1272500D02*
D03*
Y1277500D02*
D03*
Y1282500D02*
D03*
Y1287500D02*
D03*
Y1292500D02*
D03*
D36*
X2077500Y1235000D02*
D03*
X2087500D02*
D03*
X2092500D02*
D03*
X2097500D02*
D03*
D37*
X1896000Y1255000D02*
D03*
X1948000D02*
D03*
D38*
X2658000Y1178000D02*
D03*
X2558000D02*
D03*
X1480000Y1425000D02*
D03*
X1580000D02*
D03*
Y1265000D02*
D03*
X1480000D02*
D03*
X1580000Y1105000D02*
D03*
X1480000D02*
D03*
X1320000Y1425000D02*
D03*
X1420000D02*
D03*
X1320000Y1265000D02*
D03*
X1420000D02*
D03*
X1320000Y1105000D02*
D03*
X1420000D02*
D03*
X1160000Y1425000D02*
D03*
X1260000D02*
D03*
X1160000Y1265000D02*
D03*
X1260000D02*
D03*
X1160000Y1105000D02*
D03*
X1260000D02*
D03*
X1100000Y1425000D02*
D03*
X1000000D02*
D03*
X1100000Y1265000D02*
D03*
X1000000D02*
D03*
X1100000Y1105000D02*
D03*
X1000000D02*
D03*
D39*
X2558000Y1302000D02*
D03*
Y1264000D02*
D03*
X1630000Y1424000D02*
D03*
Y1386000D02*
D03*
Y1106000D02*
D03*
Y1144000D02*
D03*
D40*
X2504000Y1401046D02*
D03*
Y1428954D02*
D03*
X2526000Y1401046D02*
D03*
Y1428954D02*
D03*
X2548000Y1401046D02*
D03*
Y1428954D02*
D03*
X2482000Y1401046D02*
D03*
Y1428954D02*
D03*
X2770000Y1516046D02*
D03*
Y1543954D02*
D03*
X2745000Y1516046D02*
D03*
Y1543954D02*
D03*
X2720000Y1516046D02*
D03*
Y1543954D02*
D03*
X2695000Y1516046D02*
D03*
Y1543954D02*
D03*
X2670000Y1516046D02*
D03*
Y1543954D02*
D03*
X2645000Y1516046D02*
D03*
Y1543954D02*
D03*
X2770000Y1018954D02*
D03*
Y991046D02*
D03*
X2745000Y1018954D02*
D03*
Y991046D02*
D03*
X2720000Y1018954D02*
D03*
Y991046D02*
D03*
X2695000Y1018954D02*
D03*
Y991046D02*
D03*
X2670000Y1018954D02*
D03*
Y991046D02*
D03*
X2645000Y1018954D02*
D03*
Y991046D02*
D03*
X2040000Y1516046D02*
D03*
Y1543954D02*
D03*
X2620000Y1018954D02*
D03*
Y991046D02*
D03*
X2595000Y1018954D02*
D03*
Y991046D02*
D03*
X2570000Y1018954D02*
D03*
Y991046D02*
D03*
X2545000Y1018954D02*
D03*
Y991046D02*
D03*
X2520000Y1018954D02*
D03*
Y991046D02*
D03*
X2495000Y1018954D02*
D03*
Y991046D02*
D03*
X2620000Y1516046D02*
D03*
Y1543954D02*
D03*
X2595000Y1516046D02*
D03*
Y1543954D02*
D03*
X2570000Y1516046D02*
D03*
Y1543954D02*
D03*
X2545000Y1516046D02*
D03*
Y1543954D02*
D03*
X2520000Y1516046D02*
D03*
Y1543954D02*
D03*
X2495000Y1516046D02*
D03*
Y1543954D02*
D03*
X2470000Y1018954D02*
D03*
Y991046D02*
D03*
X2445000Y1018954D02*
D03*
Y991046D02*
D03*
X2420000Y1018954D02*
D03*
Y991046D02*
D03*
X2395000Y1018954D02*
D03*
Y991046D02*
D03*
X2370000Y1018954D02*
D03*
Y991046D02*
D03*
X2345000Y1018954D02*
D03*
Y991046D02*
D03*
X2320000Y1018954D02*
D03*
Y991046D02*
D03*
X2295000Y1018954D02*
D03*
Y991046D02*
D03*
X2270000Y1018954D02*
D03*
Y991046D02*
D03*
X2245000Y1018954D02*
D03*
Y991046D02*
D03*
X2220000Y1018954D02*
D03*
Y991046D02*
D03*
X2195000Y1018954D02*
D03*
Y991046D02*
D03*
X2470000Y1516046D02*
D03*
Y1543954D02*
D03*
X2445000Y1516046D02*
D03*
Y1543954D02*
D03*
X2420000Y1516046D02*
D03*
Y1543954D02*
D03*
X2395000Y1516046D02*
D03*
Y1543954D02*
D03*
X2370000Y1516046D02*
D03*
Y1543954D02*
D03*
X2345000Y1516046D02*
D03*
Y1543954D02*
D03*
X2320000Y1516046D02*
D03*
Y1543954D02*
D03*
X2295000Y1516046D02*
D03*
Y1543954D02*
D03*
X2270000Y1516046D02*
D03*
Y1543954D02*
D03*
X2245000Y1516046D02*
D03*
Y1543954D02*
D03*
X2220000Y1516046D02*
D03*
Y1543954D02*
D03*
X2195000Y1516046D02*
D03*
Y1543954D02*
D03*
X2064966Y990998D02*
D03*
Y1018906D02*
D03*
X1940034Y1435002D02*
D03*
Y1407094D02*
D03*
X1965000Y1434954D02*
D03*
Y1407046D02*
D03*
X1990000Y1434954D02*
D03*
Y1407046D02*
D03*
X2015000Y1434954D02*
D03*
Y1407046D02*
D03*
X2040000Y1434954D02*
D03*
Y1407046D02*
D03*
X2065000Y1434954D02*
D03*
Y1407046D02*
D03*
X1940000Y1543954D02*
D03*
Y1516046D02*
D03*
X1965000Y1543954D02*
D03*
Y1516046D02*
D03*
X1990000Y1543954D02*
D03*
Y1516046D02*
D03*
X2039966Y990998D02*
D03*
Y1018906D02*
D03*
X2014966Y990998D02*
D03*
Y1018906D02*
D03*
X1989966Y990998D02*
D03*
Y1018906D02*
D03*
X1964967Y990998D02*
D03*
Y1018906D02*
D03*
X1940000Y991046D02*
D03*
Y1018954D02*
D03*
X2065000Y1091046D02*
D03*
Y1118954D02*
D03*
X2039967Y1090998D02*
D03*
Y1118906D02*
D03*
X2146000Y1543954D02*
D03*
Y1516046D02*
D03*
X1989967Y1090998D02*
D03*
Y1118906D02*
D03*
X2145000Y991046D02*
D03*
Y1018954D02*
D03*
X2170000Y991046D02*
D03*
Y1018954D02*
D03*
X2065000Y1543954D02*
D03*
Y1516046D02*
D03*
X2015000Y1543954D02*
D03*
Y1516046D02*
D03*
X2014967Y1090998D02*
D03*
Y1118906D02*
D03*
X1964968Y1090998D02*
D03*
Y1118906D02*
D03*
X1939968Y1090998D02*
D03*
Y1118906D02*
D03*
X2170000Y1543954D02*
D03*
Y1516046D02*
D03*
D41*
X2620000Y1389000D02*
D03*
D42*
X2586000Y1283000D02*
D03*
X2620000D02*
D03*
X2603000D02*
D03*
X2654000D02*
D03*
X2637000D02*
D03*
D43*
X2550000Y1351000D02*
D03*
Y1379000D02*
D03*
X1630000Y1301000D02*
D03*
Y1329000D02*
D03*
Y1229000D02*
D03*
Y1201000D02*
D03*
D44*
X2215250Y1292500D02*
D03*
X2221750D02*
D03*
X2228250D02*
D03*
X2234750D02*
D03*
X2241250D02*
D03*
X2247750D02*
D03*
X2260750D02*
D03*
X2254250D02*
D03*
X2254200Y1238000D02*
D03*
X2260700D02*
D03*
X2247700D02*
D03*
X2241200D02*
D03*
X2234700D02*
D03*
X2228200D02*
D03*
X2221700D02*
D03*
X2215200D02*
D03*
X2208700D02*
D03*
X2202200D02*
D03*
X2195700D02*
D03*
X2189200D02*
D03*
X2189250Y1292500D02*
D03*
X2195750D02*
D03*
X2202250D02*
D03*
X2208750D02*
D03*
D45*
X1789000Y1107000D02*
D03*
X1751000D02*
D03*
X1789000Y1580000D02*
D03*
X1751000D02*
D03*
X1746000Y1264000D02*
D03*
X1784000D02*
D03*
X1746000Y1425000D02*
D03*
X1784000D02*
D03*
X396000Y1035000D02*
D03*
X434000D02*
D03*
X584000Y1035000D02*
D03*
X546000D02*
D03*
X584000Y985000D02*
D03*
X546000D02*
D03*
X396000D02*
D03*
X434000D02*
D03*
X396000Y1550000D02*
D03*
X434000D02*
D03*
X396000Y1500000D02*
D03*
X434000D02*
D03*
X585000Y1500000D02*
D03*
X547000D02*
D03*
X584000Y1550000D02*
D03*
X546000D02*
D03*
X744000Y1135000D02*
D03*
X706000D02*
D03*
X744000Y1085000D02*
D03*
X706000D02*
D03*
X744000Y1035000D02*
D03*
X706000D02*
D03*
X744000Y985000D02*
D03*
X706000D02*
D03*
X744000Y1550000D02*
D03*
X706000D02*
D03*
X744000Y1500000D02*
D03*
X706000D02*
D03*
X744000Y1450000D02*
D03*
X706000D02*
D03*
X744000Y1400000D02*
D03*
X706000D02*
D03*
D46*
X2105000Y1491000D02*
D03*
Y1543000D02*
D03*
Y1046000D02*
D03*
Y994000D02*
D03*
M02*
