M48
;Layer_Color=9474304
;FILE_FORMAT=4:4
METRIC,LZ
;TYPE=PLATED
T1F00S00C0.2540
T2F00S00C0.5000
T3F00S00C0.6000
T4F00S00C0.7620
T5F00S00C0.8900
T6F00S00C1.3000
T7F00S00C1.5700
;TYPE=NON_PLATED
T8F00S00C0.7620
T9F00S00C1.1520
T10F00S00C3.2500
%
T01
X02775Y01135
X02725Y0109
X0268Y01135
X02685Y0124
X0268Y01245
X0267
X0268Y0128
X02635Y0131
X0261
X02618Y01263
X02615Y0124
X02535Y0124
X02525
X0251
X02495Y0124
X0248Y0124
Y0118
X02495Y0118
X0251
X02525Y0118
X02525Y013
X0251
X02495
X0248
Y0136
X02495
X0251
X02525
X02405Y01275
X02395Y0128
X02385Y0126
X02375Y01225
X02405Y0121
X0241Y01205
X0242Y0115
X02395Y0114
Y0113
X0241Y01085
X02415Y0108
X0236Y0117
X0236Y01285
Y0131
X0231Y01325
X02315Y01335
X02305Y01355
X0227Y01353
X02265Y01345
X0226Y01325
X02255Y01305
X02241Y01304
X02235Y01308
X02228Y01304
X02222Y01308
X02215Y01304
X02209Y01308
X02202Y01305
X02195Y01321
X022Y01327
X02185Y01337
Y01365
X02172
X0215
Y01355
X02145Y0135
X02135Y01323
X02125
X02119Y01319
X02121Y01311
X0214Y01308
Y01299
X02145Y01287
X0215Y01281
X02146Y01274
X02143Y01265
X02142Y01234
X02135Y0122
Y01213
X02123Y01222
X02097Y01216
X02092Y0122
X02087Y01215
X02102Y01206
X02103Y01199
X021Y01185
X0211Y01188
X0212
X0213
X0214Y0119
X02145Y01175
X0214Y01165
X02145Y0116
X0214Y01155
X02145Y0115
X0214Y01145
X02145Y01135
X02135
X02125Y0113
X02115Y0113
X021
X02085Y0109
X02065Y0116
X0206Y01155
Y01165
X02065Y0117
X0207Y01175
X0208
X02065Y01185
X02045Y0118
X0202
X02Y0117
X01985Y01155
X01999Y01232
X02005Y01234
X0201Y01238
X02015Y01234
X02035Y01245
X0207
X0208Y01255
Y01275
X02063Y01291
X02052Y01309
X02045Y01325
X0205Y0133
X0206Y01355
X0207Y0136
X02085Y01351
Y01322
X02078Y01315
X02098Y01313
Y0132
X02095Y0137
X02115Y01367
X02126Y01286
X0212Y01275
Y01255
X02167Y0125
X02174
X02175Y0126
X0218Y01265
Y01285
Y01295
X0219Y01281
Y0125
X022
X02209
X02243
X0226
X02255Y0122
X0225Y01215
X02241Y01226
X02235Y01222
X02229Y01226
X02222Y01221
X0219Y0122
X0218
Y0123
Y0124
X02182Y01209
X02175
X0215Y01205
X0218Y0118
X0217Y01165
Y0113
X02175Y01125
X0218Y0113
X02215
X0221Y0112
X02205Y0111
X0221Y01095
X0218
X0217
X02255Y0111
X02265Y01125
X02275Y0113
X02285Y01125
X02305Y0116
X02295Y01175
Y01185
X02285
Y01195
X02275Y01205
X02265Y01195
X02265Y0117
X02215Y01165
X0221Y0116
Y0118
X02205Y01175
X02125Y01165
X02115Y0118
X02055Y012
Y01215
X0205Y0122
X0204Y0121
X02035Y01285
X02026Y01298
X0203Y0131
X02008Y01305
X02
X0199
X01987Y01316
X01985Y01295
X0198Y0128
X01975Y01275
X01999Y01274
X02005Y0128
Y01287
X02019Y01277
X02015Y0135
X02005Y0137
X02215Y01375
X0222Y01355
X02248Y0128
X02275Y0129
X0229Y01295
Y01285
X02285Y0128
X02295Y0127
X0231Y01275
X02315Y01265
X0232Y01245
X02305
X023Y01225
Y01205
X02335
Y01225
X02305Y01295
X02335Y01375
X01936Y01154
X01912Y01154
X01915Y0114
X0185
X013Y0128
X0129Y01295
X00675Y0127
X00585Y01235
X0058Y01315
X0059
Y0105
X00595Y01055
X0029Y01265
X0058Y01525
X00565Y01575
X0065Y01595
X01788Y01525
X0182Y01405
X021Y01395
X02115
X0213Y01435
X02145
X02175Y01415
X02185Y01395
Y01385
X02195
X02215
Y0141
X0232Y014
X0233Y01395
X02085Y01435
X0237
X02375Y0143
Y0142
X0237Y01425
X0238Y0141
X0239Y01415
X02395Y01405
X0241Y0141
X0242
X02415Y01435
X024Y0143
X0244Y01425
X02445Y0142
X0245Y01445
X02493Y01429
X02515
X02537
X0241Y0139
X02395Y01385
X0236Y01445
X0269
T02
X02555Y0132
X0257
X02585
Y01335
X02583Y01363
X02608
X02633
X02658
Y01388
Y01413
X02633
Y01388
X02608
X02583
Y01413
X02608
T03
X00455Y00985
X00475Y00975
X00505
X00525Y00985
X0083Y00975
Y0096
X02345Y0104
X02345Y0107
X0237Y01054
X02395Y0104
Y0107
X0242Y01054
X0244Y0104
Y0107
X02465Y01055
X0249Y0104
Y0107
X02515Y01055
X0254Y0104
Y0107
X02565Y01055
X0259Y0104
Y0107
X02615Y01055
X0264Y0104
Y0107
X02665Y01055
X0232Y01054
X02295Y0104
Y0107
X0227Y01055
X02245Y0104
Y0107
X0222Y01055
X02195Y0104
Y0107
X0217Y01055
X02145Y0104
Y0107
X0222Y0111
X02213Y01201
X02065Y01135
X0204
X02015
X0199
X01965
X0194
X01952Y01019
X01977
X02002
X02027
X02052
X01965Y01245
X0196Y01255
X0197
X01965Y01265
X02325Y01365
X019Y0138
X0188
X0186
Y01255
X0187Y01265
X0188Y01255
X0187Y01245
X0188Y01235
Y01215
X0187Y01225
X0186Y01215
Y01235
X0189Y01225
X019Y01215
X0192Y01245
X0193
X01925Y01255
X0193Y01265
X0192
X01927Y01019
X0164Y01085
X0162
X0163Y01255
Y01275
X008Y0131
Y01335
X00785Y01345
Y0132
X0077Y0131
Y01335
Y0136
X00785Y0137
X008Y0136
X0083Y01005
Y0099
X00525Y01005
Y01025
X00505Y01035
Y01015
Y00995
X00475
Y01015
Y01035
X00455Y01025
Y01005
X00595Y01325
X00615
X00635
Y0135
X00625Y0134
X00615Y0135
X00595Y0135
X00605Y01335
X00525Y015
Y0152
X0052Y0154
X00505Y0155
X00505Y0153
Y0151
X00475
Y0153
Y0155
X00455Y0154
Y0152
Y015
X0077Y0151
X00785Y0152
Y01495
X0077Y01485
Y0146
Y01435
X00785Y01445
Y0147
X008Y0146
Y01435
Y0141
Y01385
X00785Y01395
X0077Y01385
Y0141
X00785Y0142
X008Y01485
Y0151
X00815Y0152
Y01545
X0083Y0154
Y0156
X008
Y01535
X00785Y01545
X0077Y01535
Y0156
X0162Y01445
X0164
X0186Y0141
X0187Y01415
X0188Y0141
X0189Y01415
X019Y0141
Y01395
X0189Y014
Y01385
X0187
Y014
X0186Y01395
X0188
X0194Y0139
X01965
X0199
X02015
X0204
X02065
Y01495
X0204
X02015
X0199
X01965
X0194
X02145
Y01455
X0217Y01476
X02195Y01495
X02195Y01455
X0222Y01476
X02245Y01495
Y01455
X0227Y01475
X02295Y01495
Y01455
X0232Y01475
X0232Y01565
X02295
X0227
X02245
X0222
X02195
X0217
X02145
X02125
X02105
X0209
X02345
X0237
X0239
X02345Y01495
Y01455
X0249Y01455
X0249Y01495
X02515Y01476
X0254Y01495
Y01455
X02565Y01475
X0259Y01495
Y01455
X02615Y01475
X0264Y01495
Y01455
X02665Y01475
X0269Y01455
Y01495
X02715Y01475
X0274Y01455
Y01495
X02765Y01474
T04
X0019Y0092
X0021
X0023
X0025
X0027
X0029
X0163
X0165
X0167
X0169
X0173
X0175
X0177
X0179
X0181
X0183
X0185
X0187
X0189
X0191
X0193
X0195
X0197
X0199
X0201
X0203
X0205
X0207
X0209
X0211
X0213
X0215
X0217
X0219
X0221
X0223
X0225
X0227
X0229
X0231
X0233
X0235
X0237
X0241
X0243
X0245
X0247
X0249
X0251
X0253
X0255
X0257
X0259
X0261
X0263
X0265
X0267
X0269
X0273
X0275
X0277
X0279
X0281
X0283
X0285
X0287Y0092
X0289
X0291Y0092
X0293
X0295
X0297
X0299
X0301
X0303
T05
X00245Y011242
Y011446
Y01165
Y011854
X002628Y011956
Y011752
Y011548
Y011344
X003111Y011143
Y010914
Y012057
Y012286
Y013014
Y013243
X002628Y013444
Y013648
X00245Y013546
Y01375
Y013342
Y013954
X002628Y014056
Y013852
X003111Y014157
Y014386
T06
X0038Y0116
X0043
X0048
Y01235
X0043
X0038
Y013
X0043
X0048
Y01375
X0043
X0038
X0063
Y013
Y01235
Y0116
T07
X002539Y010787
Y012413
Y012887
Y014513
T08
X0171Y0092
X0239
X0271
T09
X0036Y0096
X0275Y0116
X0036Y01575
X0275Y0139
T10
X002196Y010965
Y012235
Y013065
Y014335
M30
