G04*
G04 #@! TF.GenerationSoftware,Altium Limited,Altium Designer,18.1.7 (191)*
G04*
G04 Layer_Color=32896*
%FSLAX44Y44*%
%MOMM*%
G71*
G01*
G75*
%ADD10C,0.2000*%
%ADD15C,0.1800*%
G36*
X896985Y1511968D02*
X903430Y1511382D01*
X905774Y1510797D01*
X907532Y1510211D01*
X908704Y1509625D01*
X909290D01*
X916907Y1507281D01*
X923938Y1504937D01*
X930383Y1502008D01*
X936242Y1499664D01*
X940930Y1497320D01*
X944445Y1494976D01*
X946789Y1493805D01*
X947375Y1493219D01*
X959094Y1484430D01*
X964367Y1479742D01*
X969054Y1475641D01*
X972570Y1472125D01*
X975499Y1469196D01*
X977257Y1466852D01*
X977843Y1466266D01*
X984288Y1458063D01*
X990148Y1449274D01*
X994835Y1441071D01*
X998351Y1433454D01*
X1001280Y1427009D01*
X1003038Y1422321D01*
X1004210Y1418806D01*
X1004796Y1418220D01*
Y1417634D01*
X1007140Y1407673D01*
X1008897Y1398298D01*
X1009483Y1388924D01*
X1010069Y1380721D01*
Y1363143D01*
X1008897Y1354354D01*
X1007726Y1346737D01*
X1005968Y1339120D01*
X1004210Y1332675D01*
X1003038Y1327401D01*
X1001280Y1323300D01*
X1000694Y1320956D01*
X1000108Y1319784D01*
X996593Y1312167D01*
X992491Y1305136D01*
X987804Y1298691D01*
X983702Y1293418D01*
X979601Y1288730D01*
X976671Y1285215D01*
X974328Y1282871D01*
X973742Y1282285D01*
X971398Y1279941D01*
X969054Y1277597D01*
X967297Y1276426D01*
X966711Y1275840D01*
X964367Y1273496D01*
X962609Y1271738D01*
X961437Y1270566D01*
X960851Y1269980D01*
X961437Y1267637D01*
Y1266465D01*
X962023Y1265293D01*
X962609Y1264707D01*
X965539Y1262363D01*
X966125Y1261777D01*
X966711Y1261191D01*
X969640Y1258262D01*
X970226Y1257676D01*
X970812Y1257090D01*
X977257Y1250645D01*
X983117Y1243614D01*
X988390Y1237169D01*
X992491Y1230723D01*
X996007Y1225450D01*
X998351Y1221348D01*
X999523Y1219005D01*
X1000108Y1217833D01*
X1003624Y1209630D01*
X1005968Y1201427D01*
X1008311Y1193224D01*
X1009483Y1186193D01*
X1010069Y1179748D01*
X1010655Y1174474D01*
Y1158654D01*
X1009483Y1147522D01*
X1007726Y1137561D01*
X1005968Y1128772D01*
X1004210Y1121741D01*
X1003038Y1115882D01*
X1001866Y1112366D01*
X1001280Y1111780D01*
Y1111194D01*
X997179Y1101819D01*
X992491Y1092444D01*
X986632Y1084241D01*
X981359Y1076624D01*
X976671Y1070765D01*
X972570Y1066078D01*
X969640Y1063148D01*
X968468Y1061976D01*
X961437Y1055531D01*
X954406Y1049672D01*
X947375Y1044984D01*
X940344Y1040297D01*
X926868Y1032680D01*
X914563Y1027406D01*
X904016Y1023891D01*
X899329Y1022133D01*
X895813Y1021547D01*
X892298Y1020375D01*
X889954D01*
X888782Y1019790D01*
X888196D01*
X878236Y1018618D01*
X873548Y1018032D01*
X869447D01*
X865931Y1017446D01*
X863001D01*
X861244D01*
X860658D01*
X849525Y1018032D01*
X838393Y1019203D01*
X827846Y1020375D01*
X818471Y1022133D01*
X810268Y1023891D01*
X803823Y1025649D01*
X801479Y1026235D01*
X799721D01*
X799136Y1026821D01*
X798549D01*
X788589Y1030336D01*
X779800Y1034438D01*
X771011Y1037953D01*
X763394Y1042055D01*
X756949Y1044984D01*
X752261Y1047914D01*
X749332Y1049672D01*
X748160Y1050258D01*
X731754Y1061390D01*
X724137Y1066664D01*
X717106Y1071351D01*
X711246Y1076039D01*
X707145Y1078968D01*
X704215Y1081312D01*
X703043Y1081898D01*
X686637Y1094788D01*
X670817Y1107093D01*
X656169Y1119397D01*
X643279Y1129944D01*
X637420Y1135217D01*
X632146Y1139319D01*
X627459Y1143420D01*
X623357Y1146936D01*
X620428Y1149865D01*
X618084Y1151623D01*
X616912Y1152795D01*
X616326Y1153381D01*
X601092Y1167443D01*
X586444Y1181505D01*
X572968Y1194982D01*
X560663Y1207286D01*
X555390Y1212560D01*
X550702Y1217247D01*
X546601Y1221934D01*
X543085Y1225450D01*
X540156Y1228380D01*
X537812Y1230723D01*
X536640Y1231895D01*
X536054Y1232481D01*
X530195Y1238926D01*
X524921Y1244786D01*
X522578Y1246543D01*
X520820Y1248301D01*
X520234Y1249473D01*
X519648Y1250059D01*
X514375Y1257090D01*
X509687Y1262949D01*
X507930Y1265293D01*
X506172Y1267051D01*
X505586Y1268223D01*
X505000Y1268809D01*
X506758Y1271152D01*
X507344Y1272324D01*
X508516Y1274082D01*
X509101Y1274668D01*
X517890Y1284629D01*
X526679Y1294589D01*
X534882Y1303378D01*
X542499Y1310995D01*
X548945Y1317440D01*
X554218Y1322714D01*
X557147Y1325643D01*
X558319Y1326815D01*
X568280Y1336190D01*
X577655Y1344979D01*
X587030Y1353182D01*
X594647Y1360799D01*
X601678Y1366658D01*
X606951Y1371346D01*
X610467Y1374275D01*
X611639Y1375447D01*
X619842Y1382478D01*
X627459Y1388338D01*
X630388Y1390681D01*
X632732Y1392439D01*
X633904Y1393611D01*
X634490Y1394197D01*
X643279Y1400642D01*
X650896Y1405916D01*
X653826Y1407673D01*
X656169Y1409431D01*
X657927Y1410017D01*
X658513Y1410603D01*
X663200Y1413533D01*
X667302Y1415290D01*
X671403Y1416462D01*
X674333Y1417048D01*
X677263D01*
X679606D01*
X680778Y1416462D01*
X681364D01*
X685466Y1415290D01*
X689567Y1413533D01*
X696012Y1408845D01*
X698942Y1406501D01*
X700700Y1404158D01*
X701871Y1402986D01*
X702458Y1402400D01*
X706559Y1397713D01*
X709489Y1392439D01*
X711832Y1387752D01*
X713590Y1383064D01*
X714762Y1379549D01*
X715934Y1376619D01*
X716520Y1374275D01*
Y1373690D01*
X717692Y1361971D01*
X718278Y1356112D01*
X717692Y1351424D01*
Y1343807D01*
X717106Y1341463D01*
Y1340878D01*
X715934Y1335604D01*
X714176Y1331503D01*
X713004Y1328573D01*
X712418Y1327987D01*
Y1327401D01*
X708903Y1323300D01*
X704801Y1320370D01*
X701871Y1319198D01*
X701286Y1318612D01*
X700700D01*
X697184Y1317440D01*
X694255Y1316855D01*
X691911Y1316269D01*
X690739D01*
X687223Y1316855D01*
X683708Y1318026D01*
X681364Y1319198D01*
X680778Y1319784D01*
X677849Y1322128D01*
X676677Y1324472D01*
X676091Y1326815D01*
Y1334432D01*
X676677Y1336776D01*
Y1337362D01*
X677849Y1340292D01*
X678435Y1342635D01*
X679020Y1344393D01*
Y1344979D01*
X679606Y1347909D01*
X680192Y1350838D01*
Y1353182D01*
X679606Y1357870D01*
X677849Y1361385D01*
X676091Y1363143D01*
X675505Y1363729D01*
X671989Y1364901D01*
X667888D01*
X664958D01*
X664372Y1364315D01*
X663786D01*
X659685Y1361971D01*
X656169Y1359627D01*
X649724Y1353182D01*
X647380Y1349666D01*
X646208Y1347323D01*
X645037Y1345565D01*
X644451Y1344979D01*
X641521Y1339706D01*
X639763Y1334432D01*
X638591Y1329745D01*
X637420Y1326229D01*
Y1318026D01*
X638591Y1312753D01*
X639763Y1308066D01*
X641521Y1303964D01*
X643865Y1300449D01*
X645622Y1297519D01*
X646794Y1295175D01*
X647966Y1294003D01*
X648552Y1293418D01*
X652654Y1289902D01*
X656755Y1287558D01*
X660857Y1285215D01*
X664372Y1283457D01*
X667888Y1282285D01*
X670817Y1281699D01*
X672575Y1281113D01*
X673161D01*
X680778Y1280527D01*
X687809D01*
X694840D01*
X700700Y1281113D01*
X705387Y1281699D01*
X708903Y1282871D01*
X711832Y1283457D01*
X712418D01*
X719449Y1285800D01*
X725895Y1288144D01*
X731754Y1291074D01*
X737613Y1294003D01*
X741715Y1296347D01*
X745230Y1298691D01*
X747574Y1299863D01*
X748160Y1300449D01*
X751089Y1302792D01*
X752847Y1305136D01*
X754019Y1306894D01*
Y1307480D01*
X753433Y1310409D01*
X752261Y1313339D01*
X751089Y1315683D01*
X750503Y1316269D01*
X746402Y1323300D01*
X742886Y1329745D01*
X740543Y1336190D01*
X738785Y1342049D01*
X738199Y1346737D01*
X737613Y1350252D01*
X737027Y1353182D01*
Y1360799D01*
X738199Y1368416D01*
X739371Y1374861D01*
X740543Y1380721D01*
X742300Y1385994D01*
X743472Y1390096D01*
X744058Y1392439D01*
X744644Y1393611D01*
X748160Y1400056D01*
X751675Y1405330D01*
X754605Y1408845D01*
X755777Y1409431D01*
Y1410017D01*
X758707Y1412361D01*
X761636Y1414118D01*
X767495Y1416462D01*
X770425D01*
X772769Y1417048D01*
X773941D01*
X774527D01*
X778042D01*
X781558Y1415876D01*
X787417Y1414118D01*
X790932Y1411775D01*
X791518Y1411189D01*
X792104Y1410603D01*
X797378Y1405330D01*
X801479Y1400642D01*
X803823Y1396541D01*
X804995Y1395955D01*
Y1395369D01*
X805581Y1394783D01*
Y1394197D01*
X806167Y1393611D01*
Y1393025D01*
X810268Y1381893D01*
X811440Y1376619D01*
X812612Y1371932D01*
X813784Y1368416D01*
Y1365486D01*
X814370Y1363143D01*
Y1362557D01*
X814956Y1356698D01*
Y1346151D01*
X814370Y1340878D01*
X813784Y1336776D01*
X813198Y1333846D01*
X812612Y1331503D01*
Y1330917D01*
X812026Y1327401D01*
Y1320370D01*
X812612Y1318026D01*
Y1317440D01*
X813784Y1316269D01*
X814956Y1315097D01*
X819057Y1312753D01*
X823158Y1310995D01*
X824330Y1310409D01*
X824916D01*
X833119Y1308066D01*
X841322Y1306308D01*
X848939Y1304550D01*
X855385Y1303964D01*
X861244Y1303378D01*
X865931Y1302792D01*
X868275D01*
X869447D01*
X885853Y1303964D01*
X893470Y1304550D01*
X899915Y1305722D01*
X905774Y1306894D01*
X910462Y1307480D01*
X912805Y1308652D01*
X913977D01*
X925110Y1312167D01*
X929797Y1314511D01*
X933899Y1316855D01*
X937414Y1318612D01*
X939758Y1320370D01*
X941516Y1320956D01*
X942102Y1321542D01*
X946203Y1325058D01*
X950305Y1329159D01*
X956164Y1336776D01*
X958508Y1340292D01*
X960265Y1343221D01*
X960851Y1344979D01*
X961437Y1345565D01*
X963781Y1351424D01*
X965539Y1356698D01*
X967297Y1368416D01*
X967883Y1378963D01*
X967297Y1388924D01*
X965539Y1397713D01*
X963781Y1404158D01*
X963195Y1406501D01*
X962609Y1408259D01*
X962023Y1409431D01*
Y1410017D01*
X956750Y1422321D01*
X949719Y1432282D01*
X942688Y1441071D01*
X935657Y1447516D01*
X929211Y1452790D01*
X923938Y1456305D01*
X919837Y1458063D01*
X919250Y1458649D01*
X918665D01*
X913977Y1460407D01*
X909876Y1460993D01*
X902845Y1461579D01*
X899915Y1460993D01*
X897571D01*
X896399Y1460407D01*
X895813D01*
X892298Y1459235D01*
X888782Y1456891D01*
X883509Y1452790D01*
X880579Y1448688D01*
X879408Y1447516D01*
Y1446930D01*
X877650Y1442829D01*
X877064Y1439313D01*
X876478Y1432282D01*
Y1427595D01*
X877064Y1426423D01*
Y1425837D01*
X878822Y1422321D01*
X880579Y1418806D01*
X885853Y1412947D01*
X888196Y1411189D01*
X889954Y1409431D01*
X891126Y1408845D01*
X891712Y1408259D01*
X895228Y1405916D01*
X898743Y1404158D01*
X901087Y1402400D01*
X901673Y1401814D01*
X905188Y1399470D01*
X908118Y1397713D01*
X909876Y1395955D01*
X910462Y1395369D01*
X915149Y1391267D01*
X918665Y1387166D01*
X920422Y1383650D01*
X921008Y1383064D01*
Y1382478D01*
X922180Y1379549D01*
X922766Y1376619D01*
Y1371346D01*
X922180Y1369002D01*
Y1367244D01*
X921594Y1366073D01*
Y1365486D01*
X918665Y1359041D01*
X915149Y1353768D01*
X912219Y1350838D01*
X911634Y1349666D01*
X911048D01*
X905188Y1346151D01*
X898743Y1343807D01*
X896399Y1343221D01*
X894056D01*
X892884Y1342635D01*
X892298D01*
X885267D01*
X879408Y1343221D01*
X877064Y1343807D01*
X875306Y1344393D01*
X874134Y1344979D01*
X873548D01*
X867103Y1347909D01*
X861830Y1350838D01*
X858314Y1353768D01*
X857728Y1354940D01*
X857142D01*
X848939Y1362557D01*
X842494Y1370174D01*
X837221Y1377791D01*
X833119Y1384822D01*
X829604Y1391267D01*
X827846Y1395955D01*
X826674Y1398884D01*
X826088Y1400056D01*
X823744Y1409431D01*
X821987Y1419392D01*
X821401Y1428181D01*
Y1436970D01*
X821987Y1444001D01*
X822572Y1449860D01*
Y1451618D01*
X823158Y1453376D01*
Y1454547D01*
X826674Y1465680D01*
X830776Y1475055D01*
X836049Y1483258D01*
X841322Y1489703D01*
X846596Y1494976D01*
X850697Y1499078D01*
X853627Y1501422D01*
X854799Y1502008D01*
X861244Y1505523D01*
X867689Y1507867D01*
X873548Y1510211D01*
X878822Y1511382D01*
X883509Y1511968D01*
X887025Y1512554D01*
X889368D01*
X889954D01*
X896985Y1511968D01*
D02*
G37*
%LPC*%
G36*
X775112Y1385408D02*
X773355Y1384822D01*
X772769D01*
X769839Y1383064D01*
X768081Y1380721D01*
X766909Y1378963D01*
X766323Y1377791D01*
X765738Y1374275D01*
X765152Y1370174D01*
X766323Y1363143D01*
X766909Y1360213D01*
X767495Y1357870D01*
X768081Y1356112D01*
Y1355526D01*
X772183Y1346737D01*
X774527Y1343221D01*
X776870Y1340292D01*
X779214Y1337948D01*
X780386Y1336190D01*
X781558Y1335604D01*
X782144Y1335018D01*
X785073Y1338534D01*
X786831Y1342635D01*
X788003Y1346737D01*
X789175Y1350838D01*
X789761Y1353768D01*
Y1359041D01*
X789175Y1364315D01*
X788589Y1369002D01*
X786831Y1372518D01*
X785659Y1376033D01*
X783901Y1378377D01*
X782144Y1380135D01*
X781558Y1381307D01*
X780972Y1381893D01*
X779214Y1383650D01*
X778042Y1384236D01*
X775112Y1385408D01*
D02*
G37*
G36*
X594061Y1316269D02*
X587030Y1309238D01*
X581171Y1302792D01*
X578241Y1300449D01*
X576483Y1298105D01*
X575311Y1296933D01*
X574725Y1296347D01*
X567108Y1288730D01*
X560077Y1282285D01*
X557733Y1279941D01*
X555390Y1277597D01*
X554218Y1276426D01*
X553632Y1275840D01*
X551874Y1273496D01*
Y1269980D01*
X554218Y1266465D01*
X554804Y1265293D01*
X555390Y1264707D01*
X562421Y1257676D01*
X568866Y1251231D01*
X571210Y1248301D01*
X573554Y1246543D01*
X574725Y1245371D01*
X575311Y1244786D01*
X582928Y1236582D01*
X589959Y1229551D01*
X592889Y1226622D01*
X595233Y1224278D01*
X596405Y1222520D01*
X596991Y1221934D01*
X598162Y1227794D01*
X599920Y1233653D01*
X601092Y1238340D01*
X602850Y1241856D01*
X604022Y1245371D01*
X605194Y1247715D01*
X606365Y1248887D01*
Y1249473D01*
X611639Y1257090D01*
X617498Y1263535D01*
X619842Y1265879D01*
X622185Y1267637D01*
X623357Y1268223D01*
X623943Y1268809D01*
X618084Y1277597D01*
X613396Y1285215D01*
X611639Y1288144D01*
X609881Y1290488D01*
X609295Y1291660D01*
X608709Y1292246D01*
X603436Y1301035D01*
X598748Y1308652D01*
X596991Y1311581D01*
X595233Y1313925D01*
X594647Y1315683D01*
X594061Y1316269D01*
D02*
G37*
G36*
X790932Y1283457D02*
X789761D01*
X789175D01*
X787417D01*
X786245D01*
X785659Y1282871D01*
X785073D01*
X776870Y1278769D01*
X769839Y1275840D01*
X767495Y1274082D01*
X765152Y1273496D01*
X763980Y1272324D01*
X763394D01*
X755191Y1268223D01*
X747574Y1264121D01*
X744644Y1262949D01*
X742300Y1261777D01*
X741129Y1260606D01*
X740543D01*
X743472Y1258262D01*
X746402Y1256504D01*
X748160Y1255332D01*
X748746Y1254746D01*
X751675Y1252989D01*
X754605Y1251231D01*
X756363Y1250059D01*
X756949Y1249473D01*
X768081Y1240684D01*
X772769Y1236582D01*
X776870Y1232481D01*
X779800Y1228966D01*
X782144Y1226036D01*
X783901Y1224278D01*
X784487Y1223692D01*
X788589Y1217833D01*
X792104Y1211974D01*
X795034Y1206114D01*
X797378Y1200841D01*
X799136Y1196154D01*
X800307Y1192638D01*
X800893Y1190294D01*
Y1189122D01*
X802065Y1180333D01*
X802651Y1172717D01*
Y1169787D01*
X802065Y1167443D01*
Y1165685D01*
X801479Y1161584D01*
X800307Y1157482D01*
X796792Y1150451D01*
X795034Y1147522D01*
X793276Y1145178D01*
X792690Y1144006D01*
X792104Y1143420D01*
X785659Y1137561D01*
X779800Y1133459D01*
X776870Y1132288D01*
X775112Y1131116D01*
X773941Y1130530D01*
X773355D01*
X765738Y1128772D01*
X758707Y1128186D01*
X755777D01*
X753433Y1128772D01*
X751675D01*
X751089D01*
X746402Y1129944D01*
X742886Y1131702D01*
X739957Y1134045D01*
X737027Y1136389D01*
X735269Y1138147D01*
X734098Y1139905D01*
X732926Y1141076D01*
Y1141662D01*
X731168Y1145764D01*
X729996Y1149865D01*
X729410Y1153381D01*
Y1159826D01*
X729996Y1162170D01*
X730582Y1163928D01*
Y1164513D01*
X731168Y1167443D01*
X731754Y1168615D01*
X732926Y1170959D01*
X733512Y1172131D01*
X735855Y1177990D01*
X737027Y1184435D01*
X737613Y1190294D01*
X737027Y1196154D01*
X735855Y1200841D01*
X734684Y1204357D01*
X734098Y1207286D01*
X733512Y1207872D01*
X729996Y1214903D01*
X725895Y1220762D01*
X721793Y1225450D01*
X718278Y1229551D01*
X714762Y1231895D01*
X711832Y1234239D01*
X710074Y1234825D01*
X709489Y1235411D01*
X702458Y1238340D01*
X696598Y1240098D01*
X694255Y1240684D01*
X692497Y1241270D01*
X691325Y1241856D01*
X690739D01*
X683708Y1243028D01*
X677849D01*
X674919D01*
X673161D01*
X671989D01*
X671403D01*
X664372Y1241856D01*
X658513Y1239512D01*
X653240Y1236582D01*
X649138Y1233653D01*
X645622Y1230137D01*
X643279Y1227794D01*
X642107Y1225450D01*
X641521Y1224864D01*
X638591Y1218419D01*
X636834Y1212560D01*
X636248Y1206700D01*
X636834Y1201427D01*
X637420Y1196740D01*
X638005Y1192638D01*
X639177Y1190294D01*
Y1189708D01*
X641521Y1185607D01*
X643865Y1181505D01*
X645622Y1179162D01*
X646208Y1177990D01*
X649138Y1173888D01*
X651482Y1170373D01*
X653240Y1168029D01*
X653826Y1166857D01*
X665544Y1152795D01*
X677849Y1139905D01*
X690153Y1128772D01*
X700700Y1118811D01*
X710660Y1110608D01*
X714762Y1107679D01*
X718278Y1104749D01*
X720621Y1102991D01*
X722965Y1101233D01*
X724137Y1100647D01*
X724723Y1100061D01*
X739371Y1091273D01*
X754605Y1083655D01*
X769253Y1077210D01*
X783315Y1071937D01*
X789175Y1069593D01*
X795034Y1067835D01*
X800307Y1066664D01*
X804409Y1065492D01*
X807924Y1064320D01*
X810268Y1063734D01*
X812026Y1063148D01*
X812612D01*
X821987Y1061390D01*
X830776Y1060219D01*
X838979Y1059632D01*
X846010Y1059047D01*
X852455D01*
X857142Y1059632D01*
X860072D01*
X861244D01*
X870033Y1060804D01*
X878822Y1062562D01*
X886439Y1064906D01*
X893470Y1067250D01*
X899329Y1069593D01*
X904016Y1071937D01*
X906360Y1073109D01*
X907532Y1073695D01*
X915149Y1078382D01*
X922180Y1083070D01*
X928625Y1087171D01*
X933899Y1091859D01*
X938586Y1095374D01*
X941516Y1098304D01*
X943859Y1100061D01*
X944445Y1100647D01*
X950305Y1107093D01*
X954406Y1114124D01*
X958508Y1120569D01*
X961437Y1127014D01*
X963195Y1132873D01*
X964367Y1136975D01*
X965539Y1139905D01*
Y1141076D01*
X967883Y1153381D01*
X968468Y1164513D01*
X967883Y1174474D01*
X966711Y1182677D01*
X964953Y1189708D01*
X963195Y1194982D01*
X962023Y1198497D01*
X961437Y1199669D01*
X956750Y1208458D01*
X950891Y1216661D01*
X944445Y1224278D01*
X938586Y1230137D01*
X932727Y1235411D01*
X928039Y1238926D01*
X925110Y1241270D01*
X924524Y1241856D01*
X923938D01*
X919250Y1244200D01*
X914563Y1245957D01*
X910462Y1246543D01*
X906946Y1247129D01*
X903430D01*
X901087D01*
X899329Y1246543D01*
X898743D01*
X894642Y1245371D01*
X891126Y1243614D01*
X885267Y1238926D01*
X883509Y1236582D01*
X881751Y1234239D01*
X881165Y1233067D01*
X880579Y1232481D01*
X879408Y1228966D01*
X878236Y1225450D01*
X877650Y1219591D01*
Y1216661D01*
X878236Y1214903D01*
Y1213146D01*
X879408Y1209630D01*
X881165Y1206700D01*
X884681Y1201427D01*
X888196Y1197911D01*
X888782Y1197325D01*
X889368Y1196740D01*
X893470Y1194396D01*
X896985Y1192052D01*
X899329Y1190294D01*
X900501Y1189708D01*
X904602Y1186779D01*
X907532Y1184435D01*
X909876Y1182677D01*
X911048Y1182091D01*
X915735Y1177990D01*
X919250Y1173888D01*
X921594Y1170959D01*
X922180Y1170373D01*
Y1169787D01*
X923352Y1166857D01*
X923938Y1164513D01*
X924524Y1159240D01*
X923938Y1156896D01*
Y1155139D01*
X923352Y1153967D01*
Y1153381D01*
X920422Y1146350D01*
X917493Y1141076D01*
X914563Y1138147D01*
X913977Y1136975D01*
X913391D01*
X907532Y1132873D01*
X902259Y1130530D01*
X899329Y1129944D01*
X897571Y1129358D01*
X896399Y1128772D01*
X895813D01*
X889368Y1128186D01*
X883509D01*
X881751Y1128772D01*
X879993D01*
X878822Y1129358D01*
X878236D01*
X872376Y1131702D01*
X867103Y1134045D01*
X863587Y1136389D01*
X863001Y1136975D01*
X862416D01*
X853627Y1144006D01*
X846596Y1152209D01*
X840736Y1160412D01*
X835463Y1168029D01*
X831947Y1175646D01*
X829604Y1181505D01*
X828432Y1183849D01*
X827846Y1185607D01*
X827260Y1186193D01*
Y1186779D01*
X825502Y1193224D01*
X824330Y1199083D01*
X823744Y1210802D01*
X824916Y1221348D01*
X827260Y1230723D01*
X829604Y1238926D01*
X831947Y1244786D01*
X833119Y1247129D01*
X834291Y1248887D01*
X834877Y1249473D01*
Y1250059D01*
X837221Y1253574D01*
X837807Y1254746D01*
Y1255332D01*
X839564Y1258848D01*
X840736Y1260020D01*
Y1260606D01*
X831361Y1264707D01*
X827260Y1266465D01*
X823744Y1268223D01*
X820815Y1269980D01*
X818471Y1270566D01*
X817299Y1271738D01*
X816713D01*
X808510Y1275840D01*
X800893Y1279355D01*
X797964Y1280527D01*
X795620Y1281699D01*
X794448Y1282285D01*
X793862D01*
X790932Y1283457D01*
D02*
G37*
%LPD*%
D10*
X1645000Y940000D02*
X1675000D01*
X205000D02*
X275000D01*
X1745000D02*
X2355000Y940000D01*
X2425000Y940000D02*
X2680000D01*
D15*
X2952997Y935000D02*
X2945000D01*
Y938999D01*
X2946333Y940332D01*
X2951665D01*
X2952997Y938999D01*
Y935000D01*
X2951665Y948329D02*
X2952997Y946996D01*
Y944330D01*
X2951665Y942998D01*
X2946333D01*
X2945000Y944330D01*
Y946996D01*
X2946333Y948329D01*
X3032997Y935000D02*
X3027666D01*
X3025000Y937666D01*
X3027666Y940332D01*
X3032997D01*
X3031665Y948329D02*
X3032997Y946996D01*
Y944330D01*
X3031665Y942998D01*
X3030332D01*
X3028999Y944330D01*
Y946996D01*
X3027666Y948329D01*
X3026333D01*
X3025000Y946996D01*
Y944330D01*
X3026333Y942998D01*
X3031665Y956327D02*
X3032997Y954994D01*
Y952328D01*
X3031665Y950995D01*
X3030332D01*
X3028999Y952328D01*
Y954994D01*
X3027666Y956327D01*
X3026333D01*
X3025000Y954994D01*
Y952328D01*
X3026333Y950995D01*
X2412997Y935000D02*
X2407666D01*
X2405000Y937666D01*
X2407666Y940332D01*
X2412997D01*
X2411665Y948329D02*
X2412997Y946996D01*
Y944330D01*
X2411665Y942998D01*
X2410332D01*
X2408999Y944330D01*
Y946996D01*
X2407666Y948329D01*
X2406333D01*
X2405000Y946996D01*
Y944330D01*
X2406333Y942998D01*
X2411665Y956327D02*
X2412997Y954994D01*
Y952328D01*
X2411665Y950995D01*
X2410332D01*
X2408999Y952328D01*
Y954994D01*
X2407666Y956327D01*
X2406333D01*
X2405000Y954994D01*
Y952328D01*
X2406333Y950995D01*
X2832997Y940332D02*
Y935000D01*
X2825000D01*
Y940332D01*
X2828999Y935000D02*
Y937666D01*
X2825000Y942997D02*
X2832997D01*
X2825000Y948329D01*
X2832997D01*
X2932997Y938999D02*
Y936333D01*
X2931665Y935000D01*
X2926333D01*
X2925000Y936333D01*
Y938999D01*
X2926333Y940332D01*
X2931665D01*
X2932997Y938999D01*
X2925000Y942997D02*
X2932997D01*
X2925000Y948329D01*
X2932997D01*
X1632998Y935000D02*
X1627666D01*
X1625000Y937666D01*
X1627666Y940332D01*
X1632998D01*
X1631665Y948329D02*
X1632998Y946996D01*
Y944330D01*
X1631665Y942997D01*
X1630332D01*
X1628999Y944330D01*
Y946996D01*
X1627666Y948329D01*
X1626333D01*
X1625000Y946996D01*
Y944330D01*
X1626333Y942997D01*
X1631665Y956327D02*
X1632998Y954994D01*
Y952328D01*
X1631665Y950995D01*
X1630332D01*
X1628999Y952328D01*
Y954994D01*
X1627666Y956327D01*
X1626333D01*
X1625000Y954994D01*
Y952328D01*
X1626333Y950995D01*
X2732998Y935000D02*
X2731665D01*
X2728999Y937666D01*
X2731665Y940332D01*
X2732998D01*
X2728999Y937666D02*
X2725000D01*
X2745000Y935000D02*
X2750332D01*
X2752998Y937666D01*
X2750332Y940332D01*
X2745000D01*
X2748999D01*
Y935000D01*
X2745000Y948329D02*
Y942998D01*
X2750332Y948329D01*
X2751665D01*
X2752998Y946996D01*
Y944330D01*
X2751665Y942998D01*
X2765000Y935000D02*
X2770332D01*
X2772998Y937666D01*
X2770332Y940332D01*
X2765000D01*
X2768999D01*
Y935000D01*
X2771665Y942998D02*
X2772998Y944330D01*
Y946996D01*
X2771665Y948329D01*
X2770332D01*
X2768999Y946996D01*
Y945663D01*
Y946996D01*
X2767666Y948329D01*
X2766333D01*
X2765000Y946996D01*
Y944330D01*
X2766333Y942998D01*
X2785000Y935000D02*
X2790332D01*
X2792998Y937666D01*
X2790332Y940332D01*
X2785000D01*
X2788999D01*
Y935000D01*
X2791665Y942998D02*
X2792998Y944330D01*
Y946996D01*
X2791665Y948329D01*
X2786333D01*
X2785000Y946996D01*
Y944330D01*
X2786333Y942998D01*
X2791665D01*
X2805000Y935000D02*
X2810332D01*
X2812998Y937666D01*
X2810332Y940332D01*
X2805000D01*
X2808999D01*
Y935000D01*
X2805000Y942998D02*
Y945663D01*
Y944330D01*
X2812998D01*
X2811665Y942998D01*
X292997Y935000D02*
X287666D01*
X285000Y937666D01*
X287666Y940332D01*
X292997D01*
X291665Y948329D02*
X292997Y946996D01*
Y944330D01*
X291665Y942998D01*
X290332D01*
X288999Y944330D01*
Y946996D01*
X287666Y948329D01*
X286333D01*
X285000Y946996D01*
Y944330D01*
X286333Y942998D01*
X291665Y956327D02*
X292997Y954994D01*
Y952328D01*
X291665Y950995D01*
X290332D01*
X288999Y952328D01*
Y954994D01*
X287666Y956327D01*
X286333D01*
X285000Y954994D01*
Y952328D01*
X286333Y950995D01*
X192997Y935000D02*
X187666D01*
X185000Y937666D01*
X187666Y940332D01*
X192997D01*
X191665Y948329D02*
X192997Y946996D01*
Y944330D01*
X191665Y942998D01*
X190332D01*
X188999Y944330D01*
Y946996D01*
X187666Y948329D01*
X186333D01*
X185000Y946996D01*
Y944330D01*
X186333Y942998D01*
X191665Y956327D02*
X192997Y954994D01*
Y952328D01*
X191665Y950995D01*
X190332D01*
X188999Y952328D01*
Y954994D01*
X187666Y956327D01*
X186333D01*
X185000Y954994D01*
Y952328D01*
X186333Y950995D01*
X1692998Y935000D02*
X1687666D01*
X1685000Y937666D01*
X1687666Y940332D01*
X1692998D01*
X1691665Y948329D02*
X1692998Y946996D01*
Y944330D01*
X1691665Y942997D01*
X1690332D01*
X1688999Y944330D01*
Y946996D01*
X1687666Y948329D01*
X1686333D01*
X1685000Y946996D01*
Y944330D01*
X1686333Y942997D01*
X1691665Y956327D02*
X1692998Y954994D01*
Y952328D01*
X1691665Y950995D01*
X1690332D01*
X1688999Y952328D01*
Y954994D01*
X1687666Y956327D01*
X1686333D01*
X1685000Y954994D01*
Y952328D01*
X1686333Y950995D01*
X2372998Y935000D02*
X2365000D01*
Y938999D01*
X2366333Y940332D01*
X2367666D01*
X2368999Y938999D01*
Y935000D01*
Y938999D01*
X2370332Y940332D01*
X2371665D01*
X2372998Y938999D01*
Y935000D01*
X2368999Y942998D02*
Y948329D01*
X2371665Y945663D02*
X2366333D01*
X1732998Y935000D02*
X1725000D01*
Y938999D01*
X1726333Y940332D01*
X1727666D01*
X1728999Y938999D01*
Y935000D01*
Y938999D01*
X1730332Y940332D01*
X1731665D01*
X1732998Y938999D01*
Y935000D01*
X1728999Y942998D02*
Y948329D01*
X1731665Y945663D02*
X1726333D01*
X2692997Y935000D02*
X2687666D01*
X2685000Y937666D01*
X2687666Y940332D01*
X2692997D01*
X2691665Y948329D02*
X2692997Y946996D01*
Y944330D01*
X2691665Y942997D01*
X2690332D01*
X2688999Y944330D01*
Y946996D01*
X2687666Y948329D01*
X2686333D01*
X2685000Y946996D01*
Y944330D01*
X2686333Y942997D01*
X2691665Y956327D02*
X2692997Y954994D01*
Y952328D01*
X2691665Y950995D01*
X2690332D01*
X2688999Y952328D01*
Y954994D01*
X2687666Y956327D01*
X2686333D01*
X2685000Y954994D01*
Y952328D01*
X2686333Y950995D01*
X2911665Y940332D02*
X2912997Y938999D01*
Y936333D01*
X2911665Y935000D01*
X2910332D01*
X2908999Y936333D01*
Y938999D01*
X2907666Y940332D01*
X2906333D01*
X2905000Y938999D01*
Y936333D01*
X2906333Y935000D01*
X2912997Y942998D02*
X2905000D01*
Y946996D01*
X2906333Y948329D01*
X2911665D01*
X2912997Y946996D01*
Y942998D01*
X2905000Y950995D02*
X2910332D01*
X2912997Y953661D01*
X2910332Y956327D01*
X2905000D01*
X2908999D01*
Y950995D01*
X2968999Y935000D02*
Y940332D01*
X2971665Y937666D02*
X2966333D01*
X2971665Y942998D02*
X2972997Y944330D01*
Y946996D01*
X2971665Y948329D01*
X2970332D01*
X2968999Y946996D01*
Y945663D01*
Y946996D01*
X2967666Y948329D01*
X2966333D01*
X2965000Y946996D01*
Y944330D01*
X2966333Y942998D01*
X2972997Y950995D02*
X2967666D01*
X2965000Y953661D01*
X2967666Y956327D01*
X2972997D01*
X2971665Y958992D02*
X2972997Y960325D01*
Y962991D01*
X2971665Y964324D01*
X2970332D01*
X2968999Y962991D01*
Y961658D01*
Y962991D01*
X2967666Y964324D01*
X2966333D01*
X2965000Y962991D01*
Y960325D01*
X2966333Y958992D01*
X2988999Y935000D02*
Y940332D01*
X2991665Y937666D02*
X2986333D01*
X2985000Y942998D02*
Y945663D01*
Y944330D01*
X2992997D01*
X2991665Y942998D01*
X2985000Y954994D02*
Y949662D01*
X2990332Y954994D01*
X2991665D01*
X2992997Y953661D01*
Y950995D01*
X2991665Y949662D01*
X2992997Y957659D02*
X2987666D01*
X2985000Y960325D01*
X2987666Y962991D01*
X2992997D01*
X2891665Y940332D02*
X2892997Y938999D01*
Y936333D01*
X2891665Y935000D01*
X2890332D01*
X2888999Y936333D01*
Y938999D01*
X2887666Y940332D01*
X2886333D01*
X2885000Y938999D01*
Y936333D01*
X2886333Y935000D01*
X2891665Y948329D02*
X2892997Y946996D01*
Y944330D01*
X2891665Y942998D01*
X2886333D01*
X2885000Y944330D01*
Y946996D01*
X2886333Y948329D01*
X2892997Y950995D02*
X2885000D01*
Y956327D01*
X2865000Y935000D02*
X2870332D01*
Y938999D01*
X2868999Y940332D01*
X2865000D01*
Y942997D02*
X2872997D01*
Y946996D01*
X2871665Y948329D01*
X2868999D01*
X2867666Y946996D01*
Y942997D01*
Y945663D02*
X2865000Y948329D01*
X2871665Y956327D02*
X2872997Y954994D01*
Y952328D01*
X2871665Y950995D01*
X2870332D01*
X2868999Y952328D01*
Y954994D01*
X2867666Y956327D01*
X2866333D01*
X2865000Y954994D01*
Y952328D01*
X2866333Y950995D01*
X2872997Y958992D02*
Y964324D01*
Y961658D01*
X2865000D01*
X2845000Y935000D02*
X2852997D01*
Y938999D01*
X2851665Y940332D01*
X2848999D01*
X2847666Y938999D01*
Y935000D01*
X2852997Y946996D02*
Y944330D01*
X2851665Y942997D01*
X2846333D01*
X2845000Y944330D01*
Y946996D01*
X2846333Y948329D01*
X2851665D01*
X2852997Y946996D01*
Y950995D02*
X2845000D01*
Y956327D01*
X3008999Y935000D02*
Y940332D01*
X3011665Y937666D02*
X3006333D01*
X3012997Y948329D02*
Y942998D01*
X3008999D01*
X3010332Y945663D01*
Y946996D01*
X3008999Y948329D01*
X3006333D01*
X3005000Y946996D01*
Y944330D01*
X3006333Y942998D01*
X3012997Y950995D02*
X3007666D01*
X3005000Y953661D01*
X3007666Y956327D01*
X3012997D01*
M02*
