M48
;Layer_Color=9474304
;FILE_FORMAT=4:4
METRIC,LZ
;TYPE=PLATED
T1F00S00C0.2540
T2F00S00C0.5000
T3F00S00C0.6000
T4F00S00C0.7620
T5F00S00C0.8900
T6F00S00C1.3000
T7F00S00C1.5700
;TYPE=NON_PLATED
T8F00S00C0.7620
T9F00S00C1.1520
T10F00S00C3.2500
%
T01
X03175Y01135
X03125Y0109
X0308Y01135
X03085Y0124
X0308Y01245
X0307
X0308Y0128
X03035Y0131
X0301
X03018Y01263
X03015Y0124
X02935Y0124
X02925
X0291
X02895Y0124
X0288Y0124
Y0118
X02895Y0118
X0291
X02925Y0118
X02925Y013
X0291
X02895
X0288
Y0136
X02895
X0291
X02925
X02735Y01375
X0276Y0131
Y01285
X02795Y0128
X02805Y01275
X02785Y0126
X02775Y01225
X02735
Y01205
X0276Y0117
X02795Y0114
Y0113
X0282Y0115
X0281Y01205
X02805Y0121
X0281Y01085
X02815Y0108
X02685Y01125
X02675Y0113
X02665Y01125
Y0117
X02665Y01195
X02675Y01205
X02685Y01195
Y01185
X02695
Y01175
X02705Y0116
X027Y01205
Y01225
X02705Y01245
X0272
X02715Y01265
X0271Y01275
X02695Y0127
X0269Y01285
X02685Y0128
X0269Y01295
X02705
X02675Y0129
X02655Y01305
X02641Y01304
X02635Y01308
X02628Y01304
X02622Y01308
X02615Y01304
X02609Y01308
X02602Y01305
X02595Y01321
X026Y01327
X02585Y01337
Y01365
X02572
X0255
Y01355
X02545Y0135
X02535Y01323
X02525
X02519Y01319
X02521Y01311
X0254Y01308
Y01299
X02545Y01287
X02546Y01274
X02543Y01265
X02542Y01234
X02535Y0122
Y01213
X02523Y01222
X02497Y01216
X02492Y0122
X02487Y01215
X02502Y01206
X02503Y01199
X025Y01185
X0251Y01188
X0252
X0253
X0254Y0119
X02545Y01175
X0254Y01165
X02545Y0116
X0254Y01155
X02545Y0115
X0254Y01145
X02545Y01135
X02535
X02525Y0113
X02515Y0113
X025
X02485Y0109
X02465Y0116
X0246Y01155
Y01165
X02465Y0117
X0247Y01175
X0248
X02465Y01185
X02445Y0118
X0242
X024Y0117
X02385Y01155
X02399Y01232
X02405Y01234
X0241Y01238
X02415Y01234
X02435Y01245
X0244Y0127
X02435Y01285
X02426Y01298
X0243Y0131
X02452Y01309
X02445Y01325
X0245Y0133
X0246Y01355
X0247Y0136
X02485Y01351
Y01322
X02478Y01315
X02498Y01313
Y0132
X02495Y0137
X02515Y01367
X02526Y01286
X0252Y01275
Y01255
X0248
X0246
X0247Y01245
X0248Y01275
X0246Y0128
X02463Y01291
X02419Y01277
X02405Y0128
Y01287
X02399Y01274
X02375Y01275
X0238Y0128
X02385Y01295
X0239Y01305
X024
X02408
X02387Y01316
X02415Y0135
X02405Y0137
X0245Y0122
X02455Y01215
Y012
X0244Y0121
X02515Y0118
X02525Y01165
X0257
X0258Y0118
X0261
X02605Y01175
X02615Y01165
X0261Y0116
X02615Y0113
X0261Y0112
X02605Y0111
X0261Y01095
X0258
X0257
Y0113
X02575Y01125
X0258Y0113
X02635Y0111
X02635Y01222
X02629Y01226
X02622Y01221
X02641Y01226
X0265Y01215
X02655Y0122
X0266Y0125
X02643
X02609
X026
X0259
X02574
X02567
X02575Y0126
X0258Y01265
Y01285
Y01295
X0259Y01281
X0258Y0124
Y0123
Y0122
X0259
X02582Y01209
X02575
X0255Y01205
X02648Y0128
X0266Y01325
X02665Y01345
X0267Y01353
X02705Y01355
X02715Y01335
X0271Y01325
X0262Y01355
X02615Y01375
X02336Y01154
X02312Y01154
X02315Y0114
X0225
X017Y0128
X0169Y01295
X0111Y01275
X0106Y0127
X00975Y01235
Y01375
X0098Y0105
X00995Y01055
X00285Y01265
X0098Y01525
X00965Y01575
X0105Y01595
X02188Y01525
X0222Y01405
X025Y01395
X02515
X0253Y01435
X02545
X02575Y01415
X02585Y01395
Y01385
X02595
X02615
Y0141
X0272Y014
X0273Y01395
X02485Y01435
X0277
X02775Y0143
Y0142
X0277Y01425
X0278Y0141
X0279Y01415
X02795Y01405
X0281Y0141
X0282
X02815Y01435
X028Y0143
X0284Y01425
X02845Y0142
X0285Y01445
X02893Y01429
X02915
X02937
X0281Y0139
X02795Y01385
X0276Y01445
X0309
T02
X02955Y0132
X0297
X02985
Y01335
X02983Y01363
X03008
X03033
X03058
Y01388
Y01413
X03033
Y01388
X03008
X02983
Y01413
X03008
T03
X00855Y00985
X00875Y00975
X00905
X00925Y00985
X0123Y00975
Y0096
X02545Y0097
X02565
X02585
X02605Y0097
X02625
X02645
X02665
X02685
X02705
X02695Y00955
X02675
X02655
X02635
X02615
X02595
X02575Y00955
X02555Y00955
X02565Y0094
X02585
X02605Y0094
X02625
X02645
X02665
X02685
X02705
X02545Y0094
X02745Y0104
X02745Y0107
X0277Y01054
X02795Y0104
Y0107
X0282Y01054
X0284Y0104
Y0107
X02865Y01055
X0289Y0104
Y0107
X02915Y01055
X0294Y0104
Y0107
X02965Y01055
X0299Y0104
Y0107
X03015Y01055
X0304Y0104
Y0107
X03065Y01055
X0272Y01054
X02695Y0104
Y0107
X0267Y01055
X02645Y0104
Y0107
X0262Y01055
X02595Y0104
Y0107
X0257Y01055
X02545Y0104
Y0107
X0262Y0111
X02613Y01201
X02465Y01135
X0244
X02415
X0239
X02365
X0234
X02352Y01019
X02377
X02402
X02427
X02452
X02365Y01245
X0236Y01255
X0237
X02365Y01265
X02725Y01365
X023Y0138
X0228
X0226
Y01255
X0227Y01265
X0228Y01255
X0227Y01245
X0228Y01235
Y01215
X0227Y01225
X0226Y01215
Y01235
X0229Y01225
X023Y01215
X0232Y01245
X0233
X02325Y01255
X0233Y01265
X0232
X02327Y01019
X0204Y01085
X0202
X0203Y01255
Y01275
X012Y0131
Y01335
X01185Y01345
Y0132
X0117Y0131
Y01335
Y0136
X01185Y0137
X012Y0136
X0123Y01005
Y0099
X00925Y01005
Y01025
X00905Y01035
Y01015
Y00995
X00875
Y01015
Y01035
X00855Y01025
Y01005
X00995Y01325
X00995Y0134
Y01355
X0101
Y0134
X0101Y01325
X01025
X01025Y0134
Y01355
X00925Y015
Y0152
X0092Y0154
X00905Y0155
X00905Y0153
Y0151
X00875
Y0153
Y0155
X00855Y0154
Y0152
Y015
X0117Y0151
X01185Y0152
Y01495
X0117Y01485
Y0146
Y01435
X01185Y01445
Y0147
X012Y0146
Y01435
Y0141
Y01385
X01185Y01395
X0117Y01385
Y0141
X01185Y0142
X012Y01485
Y0151
X01215Y0152
Y01545
X0123Y0154
Y0156
X012
Y01535
X01185Y01545
X0117Y01535
Y0156
X0202Y01445
X0204
X0226Y0141
X0227Y01415
X0228Y0141
X0229Y01415
X023Y0141
Y01395
X0229Y014
Y01385
X0227
Y014
X0226Y01395
X0228
X0234Y0139
X02365
X0239
X02415
X0244
X02465
Y01495
X0244
X02415
X0239
X02365
X0234
X02545
Y01455
X0257Y01476
X02595Y01495
X02595Y01455
X0262Y01476
X02645Y01495
Y01455
X0267Y01475
X02695Y01495
Y01455
X0272Y01475
X0272Y01565
X02695
X0267
X02645
X0262
X02595
X0257
X02545
X02525
X02505
X0249
X02745
X0277
X0279
X02745Y01495
Y01455
X0289Y01455
X0289Y01495
X02915Y01476
X0294Y01495
Y01455
X02965Y01475
X0299Y01495
Y01455
X03015Y01475
X0304Y01495
Y01455
X03065Y01475
X0309Y01455
Y01495
X03115Y01475
X0314Y01455
Y01495
X03165Y01474
T04
X0177Y0092
X0179
X0181
X0183
X0187
X0189
X0191
X0193
X0195
X0197
X0199
X0201
X0203
X0205
X0207
X0209
X0211
X0213
X0215
X0217
X0219
X0221
X0223
X0225
X0227
X0229
X0231
X0233
X0235
X0237
X0239
X0241
X0243
X0273
X0275
X0277
X0279
X0281
X0283
X0285
X0287
X0289
X0291
X0293
X0295
X0297
X0299
X0301
X0303
X0305
X0307
X0309
X0311
X0313
X0315
X0317
X0319
X0321
X0323
X0325
X0327
X0329
X0333
X0335
X0337
X0339
X0341
X0343
X0345
X0347Y0092
X0349
X0351Y0092
X0353
X0355
X0357
X0359
X0361
X0363
T05
X0024Y011042
Y011246
Y01145
Y011654
X002578Y011756
Y011552
Y011348
Y011144
X003061Y010943
Y010714
Y011857
Y012086
Y013214
Y013443
X002578Y013644
X0024Y013746
Y013542
Y01395
Y014154
X002578Y014256
Y014052
Y013848
X003061Y014357
Y014586
T06
X0075Y0116
X008
X0085
Y01235
X008
X0075
Y013
X008
X0085
Y01375
X008
X0075
X01
Y013
Y01235
Y0116
T07
X002489Y010587
Y012213
Y013087
Y014713
T08
X0185Y0092
X0331
T09
X0076Y0096
X0315Y0116
X0076Y01575
X0315Y0139
T10
X002146Y010765
Y012035
Y013265
Y014535
M30
