G04*
G04 #@! TF.GenerationSoftware,Altium Limited,Altium Designer,18.1.7 (191)*
G04*
G04 Layer_Color=16711935*
%FSLAX44Y44*%
%MOMM*%
G71*
G01*
G75*
%ADD83R,1.6016X1.6016*%
%ADD84R,0.1016X0.1016*%
%ADD85R,2.0516X2.0516*%
%ADD86C,2.0516*%
%ADD87C,1.2536*%
%ADD88C,1.4996*%
%ADD89C,2.4566*%
%ADD90C,3.3516*%
%ADD91R,1.4996X1.4996*%
D83*
X3550000Y920000D02*
D03*
X2770000D02*
D03*
X2790000D02*
D03*
X2750000D02*
D03*
X2730000D02*
D03*
X1870000D02*
D03*
X1890000D02*
D03*
X1950000D02*
D03*
X1930000D02*
D03*
X1910000D02*
D03*
X2090000D02*
D03*
X2110000D02*
D03*
X2070000D02*
D03*
X2050000D02*
D03*
X2030000D02*
D03*
X2010000D02*
D03*
X1990000D02*
D03*
X1970000D02*
D03*
X3290000D02*
D03*
X3110000D02*
D03*
X3130000D02*
D03*
X3150000D02*
D03*
X3170000D02*
D03*
X3190000D02*
D03*
X3210000D02*
D03*
X3230000D02*
D03*
X3250000D02*
D03*
X3270000D02*
D03*
X3570000D02*
D03*
X3630000D02*
D03*
X3490000Y920000D02*
D03*
X3450000Y920000D02*
D03*
X3470000Y920000D02*
D03*
X2810000Y920000D02*
D03*
X2830000D02*
D03*
X3530000D02*
D03*
X3510000D02*
D03*
X2130000D02*
D03*
X2150000D02*
D03*
X2170000D02*
D03*
X2190000D02*
D03*
X2210000D02*
D03*
X2230000D02*
D03*
X2250000D02*
D03*
X2430000D02*
D03*
X2410000D02*
D03*
X2390000D02*
D03*
X2370000D02*
D03*
X2350000D02*
D03*
X2330000D02*
D03*
X2310000D02*
D03*
X2290000D02*
D03*
X2270000D02*
D03*
X3430000D02*
D03*
X3590000D02*
D03*
X3610000D02*
D03*
X3410000D02*
D03*
X3390000D02*
D03*
X3370000D02*
D03*
X3330000D02*
D03*
X3350000D02*
D03*
X3090000D02*
D03*
X3070000D02*
D03*
X3050000D02*
D03*
X3030000D02*
D03*
X3010000D02*
D03*
X2990000D02*
D03*
X2970000D02*
D03*
X2950000D02*
D03*
X2930000D02*
D03*
X2910000D02*
D03*
X2890000D02*
D03*
X2870000D02*
D03*
X2850000D02*
D03*
X1830000D02*
D03*
X1810000D02*
D03*
X1790000D02*
D03*
X1770000D02*
D03*
D84*
X3310000D02*
D03*
X1850000D02*
D03*
D85*
X1000000Y1235000D02*
D03*
Y1375000D02*
D03*
D86*
Y1160000D02*
D03*
X800000D02*
D03*
X850000D02*
D03*
X750000D02*
D03*
Y1235000D02*
D03*
X850000D02*
D03*
X800000D02*
D03*
X1000000Y1300000D02*
D03*
X800000D02*
D03*
X850000D02*
D03*
X750000D02*
D03*
Y1375000D02*
D03*
X850000D02*
D03*
X800000D02*
D03*
D87*
X3150000Y1160000D02*
D03*
Y1390000D02*
D03*
X760000Y960000D02*
D03*
Y1575000D02*
D03*
D88*
X306100Y1094300D02*
D03*
Y1071400D02*
D03*
Y1185700D02*
D03*
Y1208600D02*
D03*
X257800Y1175600D02*
D03*
X240000Y1165400D02*
D03*
X257800Y1155200D02*
D03*
X240000Y1145000D02*
D03*
X257800Y1134800D02*
D03*
X240000Y1124600D02*
D03*
X257800Y1114400D02*
D03*
X306100Y1344300D02*
D03*
Y1321400D02*
D03*
Y1435700D02*
D03*
Y1458600D02*
D03*
X257800Y1425600D02*
D03*
X240000Y1415400D02*
D03*
X257800Y1405200D02*
D03*
X240000Y1395000D02*
D03*
X257800Y1384800D02*
D03*
X240000Y1374600D02*
D03*
X257800Y1364400D02*
D03*
D89*
X248900Y1058700D02*
D03*
Y1221300D02*
D03*
Y1308700D02*
D03*
Y1471300D02*
D03*
D90*
X214600Y1076500D02*
D03*
Y1203500D02*
D03*
Y1326500D02*
D03*
Y1453500D02*
D03*
D91*
X240000Y1104200D02*
D03*
Y1354200D02*
D03*
M02*
