G04*
G04 #@! TF.GenerationSoftware,Altium Limited,Altium Designer,18.1.7 (191)*
G04*
G04 Layer_Physical_Order=2*
G04 Layer_Color=16711680*
%FSLAX44Y44*%
%MOMM*%
G71*
G01*
G75*
%ADD10C,0.2000*%
%ADD92C,0.4000*%
%ADD93C,0.3000*%
%ADD94C,1.0000*%
%ADD194R,1.5000X1.5000*%
%ADD195R,1.9500X1.9500*%
%ADD196C,1.9500*%
%ADD197C,1.1520*%
%ADD198C,1.3980*%
%ADD199C,2.3550*%
%ADD200C,3.2500*%
%ADD201R,1.3980X1.3980*%
%ADD202C,0.4800*%
%ADD203C,1.0000*%
%ADD204R,1.7000X4.7000*%
%ADD205R,8.0000X10.5000*%
%ADD206R,10.0000X4.0000*%
%ADD207R,1.0000X2.0000*%
%ADD208R,2.0000X8.5000*%
%ADD209R,5.0000X11.0000*%
%ADD210R,3.3000X14.5000*%
%ADD211R,84.0000X28.3000*%
%ADD212R,60.0000X5.6000*%
%ADD213R,2.9000X5.2000*%
%ADD214R,5.5000X6.5000*%
%ADD215R,2.0000X10.0000*%
%ADD216R,7.0000X3.0000*%
%ADD217R,14.5000X5.5000*%
%ADD218R,21.5000X3.5000*%
%ADD219R,7.5000X52.0000*%
%ADD220R,18.0000X16.0000*%
%ADD221R,3.5000X19.0000*%
%ADD222R,5.0000X3.0000*%
%ADD223R,4.5000X5.5000*%
%ADD224R,4.0000X6.0000*%
%ADD225R,12.5000X4.0000*%
%ADD226R,4.0000X7.0000*%
%ADD227R,24.0000X11.5000*%
%ADD228R,33.0000X5.5000*%
%ADD229R,3.3000X2.5000*%
%ADD230R,64.5000X1.0000*%
%ADD231R,141.0000X2.5000*%
%ADD232R,28.0000X1.0000*%
%ADD233R,99.0000X5.6000*%
%ADD234R,20.0000X29.5000*%
%ADD235R,27.5000X7.5000*%
%ADD236R,29.0000X14.5000*%
%ADD237R,15.0000X2.0000*%
%ADD238R,15.0000X2.0000*%
%ADD239R,29.0000X5.0000*%
%ADD240R,9.0000X9.0000*%
%ADD241R,156.0000X6.5000*%
%ADD242R,34.5000X14.0000*%
%ADD243R,33.0000X33.0000*%
%ADD244R,15.0000X13.5000*%
%ADD245R,8.1000X22.5000*%
%ADD246R,14.5000X15.5000*%
%ADD247R,16.0000X11.5000*%
%ADD248R,97.5000X28.0000*%
G36*
X1640000Y1525000D02*
X1580000Y1465000D01*
X1570000D01*
Y1530000D01*
X1640000D01*
Y1525000D01*
D02*
G37*
G36*
X2785000Y1455000D02*
Y1448569D01*
X2691679D01*
X2691522Y1448674D01*
X2690000Y1448976D01*
X2688478Y1448674D01*
X2687188Y1447812D01*
X2686326Y1446522D01*
X2686024Y1445000D01*
X2686326Y1443478D01*
X2687188Y1442188D01*
X2688478Y1441326D01*
X2690000Y1441024D01*
X2691522Y1441326D01*
X2691679Y1441431D01*
X2785000D01*
X2785000Y1143059D01*
X2688237D01*
X2687940Y1143384D01*
X2687415Y1144329D01*
X2687549Y1145000D01*
Y1237013D01*
X2687812Y1237188D01*
X2688674Y1238478D01*
X2688976Y1240000D01*
X2688674Y1241522D01*
X2687812Y1242812D01*
X2686522Y1243674D01*
X2685065Y1243963D01*
X2684705Y1244084D01*
X2684084Y1244705D01*
X2683963Y1245065D01*
X2683674Y1246522D01*
X2682812Y1247812D01*
X2682549Y1247987D01*
Y1277013D01*
X2682812Y1277188D01*
X2683674Y1278478D01*
X2683976Y1280000D01*
X2683674Y1281522D01*
X2682812Y1282812D01*
X2681522Y1283674D01*
X2680000Y1283976D01*
X2678478Y1283674D01*
X2677188Y1282812D01*
X2676326Y1281522D01*
X2676024Y1280000D01*
X2676326Y1278478D01*
X2677188Y1277188D01*
X2677451Y1277013D01*
Y1247987D01*
X2677188Y1247812D01*
X2676326Y1246522D01*
X2676024Y1245000D01*
X2676326Y1243478D01*
X2677188Y1242188D01*
X2678478Y1241326D01*
X2679935Y1241037D01*
X2680295Y1240916D01*
X2680916Y1240295D01*
X2681036Y1239935D01*
X2681326Y1238478D01*
X2682188Y1237188D01*
X2682451Y1237013D01*
Y1147549D01*
X2426056D01*
X2423915Y1149690D01*
X2423976Y1150000D01*
X2423674Y1151522D01*
X2422812Y1152812D01*
X2421522Y1153674D01*
X2420000Y1153976D01*
X2418478Y1153674D01*
X2417188Y1152812D01*
X2416326Y1151522D01*
X2416024Y1150000D01*
X2416326Y1148478D01*
X2417188Y1147188D01*
X2418478Y1146326D01*
X2420000Y1146024D01*
X2420310Y1146085D01*
X2422066Y1144329D01*
X2421540Y1143059D01*
X2397442D01*
X2396522Y1143674D01*
X2395000Y1143976D01*
X2393478Y1143674D01*
X2392188Y1142812D01*
X2391326Y1141522D01*
X2391024Y1140000D01*
X2391326Y1138478D01*
X2392188Y1137188D01*
X2393478Y1136326D01*
X2395000Y1136024D01*
X2396522Y1136326D01*
X2397442Y1136941D01*
X2675196Y1136941D01*
X2676157Y1135671D01*
X2676024Y1135000D01*
X2676259Y1133819D01*
X2675536Y1132549D01*
X2397987D01*
X2397812Y1132812D01*
X2396522Y1133674D01*
X2395000Y1133976D01*
X2393478Y1133674D01*
X2392188Y1132812D01*
X2391326Y1131522D01*
X2391024Y1130000D01*
X2391259Y1128819D01*
X2390536Y1127549D01*
X2312549D01*
Y1165000D01*
X2312355Y1165975D01*
X2311802Y1166802D01*
X2310975Y1167355D01*
X2310000Y1167549D01*
X2269464D01*
X2268741Y1168819D01*
X2268976Y1170000D01*
X2268915Y1170310D01*
X2271056Y1172451D01*
X2292013D01*
X2292188Y1172188D01*
X2293478Y1171326D01*
X2295000Y1171024D01*
X2296522Y1171326D01*
X2297812Y1172188D01*
X2298674Y1173478D01*
X2298976Y1175000D01*
X2298674Y1176522D01*
X2297812Y1177812D01*
X2296522Y1178674D01*
X2295000Y1178976D01*
X2293478Y1178674D01*
X2292188Y1177812D01*
X2292013Y1177549D01*
X2282549D01*
Y1180536D01*
X2283819Y1181258D01*
X2285000Y1181024D01*
X2286522Y1181326D01*
X2287812Y1182188D01*
X2288674Y1183478D01*
X2288976Y1185000D01*
X2288915Y1185310D01*
X2290008Y1186403D01*
X2291178Y1185777D01*
X2291024Y1185000D01*
X2291326Y1183478D01*
X2292188Y1182188D01*
X2293478Y1181326D01*
X2295000Y1181024D01*
X2296522Y1181326D01*
X2297812Y1182188D01*
X2298674Y1183478D01*
X2298976Y1185000D01*
X2298674Y1186522D01*
X2297812Y1187812D01*
X2297549Y1187987D01*
Y1258944D01*
X2301181Y1262576D01*
X2302451Y1262050D01*
Y1247987D01*
X2302188Y1247812D01*
X2301326Y1246522D01*
X2301024Y1245000D01*
X2301326Y1243478D01*
X2302188Y1242188D01*
X2303478Y1241326D01*
X2305000Y1241024D01*
X2306522Y1241326D01*
X2307812Y1242188D01*
X2308674Y1243478D01*
X2308976Y1245000D01*
X2308674Y1246522D01*
X2307812Y1247812D01*
X2307549Y1247987D01*
Y1270536D01*
X2308819Y1271258D01*
X2310000Y1271024D01*
X2311181Y1271258D01*
X2312451Y1270536D01*
Y1267987D01*
X2312188Y1267812D01*
X2311326Y1266522D01*
X2311024Y1265000D01*
X2311326Y1263478D01*
X2312188Y1262188D01*
X2313478Y1261326D01*
X2315000Y1261024D01*
X2316522Y1261326D01*
X2317812Y1262188D01*
X2318674Y1263478D01*
X2318976Y1265000D01*
X2318674Y1266522D01*
X2317812Y1267812D01*
X2317549Y1267987D01*
Y1332013D01*
X2317812Y1332188D01*
X2318674Y1333478D01*
X2318976Y1335000D01*
X2318674Y1336522D01*
X2317812Y1337812D01*
X2316522Y1338674D01*
X2315000Y1338976D01*
X2313478Y1338674D01*
X2312188Y1337812D01*
X2311326Y1336522D01*
X2311024Y1335000D01*
X2311326Y1333478D01*
X2312188Y1332188D01*
X2312451Y1332013D01*
Y1329464D01*
X2311181Y1328741D01*
X2310000Y1328976D01*
X2308478Y1328674D01*
X2307188Y1327812D01*
X2306326Y1326522D01*
X2306024Y1325000D01*
X2306326Y1323478D01*
X2307188Y1322188D01*
X2307451Y1322013D01*
Y1299464D01*
X2306181Y1298741D01*
X2305000Y1298976D01*
X2303819Y1298741D01*
X2302549Y1299464D01*
Y1372451D01*
X2332013D01*
X2332188Y1372188D01*
X2333478Y1371326D01*
X2335000Y1371024D01*
X2336522Y1371326D01*
X2337812Y1372188D01*
X2338674Y1373478D01*
X2338976Y1375000D01*
X2338741Y1376181D01*
X2339464Y1377451D01*
X2450000D01*
X2450975Y1377645D01*
X2451802Y1378198D01*
X2452355Y1379025D01*
X2452549Y1380000D01*
Y1442013D01*
X2452812Y1442188D01*
X2453674Y1443478D01*
X2453976Y1445000D01*
X2453674Y1446522D01*
X2452812Y1447812D01*
X2451522Y1448674D01*
X2450000Y1448976D01*
X2448819Y1448741D01*
X2447549Y1449464D01*
Y1455000D01*
X2785000Y1455000D01*
D02*
G37*
G36*
X1675000Y1445000D02*
X1615000D01*
X1615000Y1455000D01*
X1660000Y1500000D01*
X1675000Y1500000D01*
Y1445000D01*
D02*
G37*
G36*
X2217782Y1421181D02*
X2217645Y1420975D01*
X2217451Y1420000D01*
Y1379464D01*
X2216181Y1378741D01*
X2215000Y1378976D01*
X2213819Y1378741D01*
X2212549Y1379464D01*
Y1422451D01*
X2217104D01*
X2217782Y1421181D01*
D02*
G37*
G36*
X2155451Y1365208D02*
Y1269056D01*
X2133944Y1247549D01*
X2110000D01*
X2109025Y1247355D01*
X2108198Y1246802D01*
X2086059Y1224664D01*
X2084844Y1225135D01*
X2084728Y1226123D01*
X2110802Y1252198D01*
X2111355Y1253025D01*
X2111549Y1254000D01*
Y1268521D01*
X2112819Y1268764D01*
X2113198Y1268198D01*
X2118198Y1263198D01*
X2119025Y1262645D01*
X2120000Y1262451D01*
X2140013D01*
X2140188Y1262188D01*
X2141478Y1261326D01*
X2143000Y1261024D01*
X2144522Y1261326D01*
X2145812Y1262188D01*
X2146674Y1263478D01*
X2146976Y1265000D01*
X2146674Y1266522D01*
X2145812Y1267812D01*
X2144522Y1268674D01*
X2143000Y1268976D01*
X2141478Y1268674D01*
X2140188Y1267812D01*
X2140013Y1267549D01*
X2121056D01*
X2117549Y1271056D01*
Y1289451D01*
X2122088D01*
X2122767Y1288181D01*
X2122326Y1287522D01*
X2122024Y1286000D01*
X2122326Y1284478D01*
X2123188Y1283188D01*
X2123451Y1283013D01*
Y1279000D01*
X2123645Y1278025D01*
X2124198Y1277198D01*
X2129198Y1272198D01*
X2130025Y1271645D01*
X2131000Y1271451D01*
X2143013D01*
X2143188Y1271188D01*
X2144478Y1270326D01*
X2146000Y1270024D01*
X2147522Y1270326D01*
X2148812Y1271188D01*
X2149674Y1272478D01*
X2149976Y1274000D01*
X2149674Y1275522D01*
X2149464Y1275835D01*
X2149738Y1276442D01*
X2150174Y1277058D01*
X2151522Y1277326D01*
X2152812Y1278188D01*
X2153674Y1279478D01*
X2153976Y1281000D01*
X2153674Y1282522D01*
X2152812Y1283812D01*
X2152549Y1283987D01*
Y1315000D01*
X2152355Y1315975D01*
X2151802Y1316802D01*
X2147549Y1321056D01*
Y1338000D01*
Y1347013D01*
X2147812Y1347188D01*
X2148674Y1348478D01*
X2148963Y1349935D01*
X2149084Y1350295D01*
X2149705Y1350916D01*
X2150065Y1351037D01*
X2151522Y1351326D01*
X2152812Y1352188D01*
X2153674Y1353478D01*
X2153976Y1355000D01*
X2153674Y1356522D01*
X2152812Y1357812D01*
X2151522Y1358674D01*
X2150000Y1358976D01*
X2148478Y1358674D01*
X2147188Y1357812D01*
X2147013Y1357549D01*
X2140950D01*
X2140424Y1358819D01*
X2144056Y1362451D01*
X2147013D01*
X2147188Y1362188D01*
X2148478Y1361326D01*
X2150000Y1361024D01*
X2151522Y1361326D01*
X2152812Y1362188D01*
X2153674Y1363478D01*
X2153909Y1364662D01*
X2154801Y1365244D01*
X2155199Y1365362D01*
X2155451Y1365208D01*
D02*
G37*
G36*
X760000Y1345000D02*
X650000D01*
Y1493000D01*
X740000Y1583000D01*
X760000D01*
Y1345000D01*
D02*
G37*
G36*
X2142451Y1320000D02*
X2142645Y1319025D01*
X2143198Y1318198D01*
X2147451Y1313944D01*
Y1283987D01*
X2147188Y1283812D01*
X2146326Y1282522D01*
X2146024Y1281000D01*
X2146326Y1279478D01*
X2146536Y1279165D01*
X2146262Y1278558D01*
X2145826Y1277942D01*
X2144478Y1277674D01*
X2143188Y1276812D01*
X2143151Y1276756D01*
X2142944Y1276549D01*
X2132056D01*
X2128549Y1280056D01*
Y1283013D01*
X2128812Y1283188D01*
X2129674Y1284478D01*
X2129976Y1286000D01*
X2129674Y1287522D01*
X2129233Y1288181D01*
X2129912Y1289451D01*
X2132000D01*
X2132975Y1289645D01*
X2133802Y1290198D01*
X2138856Y1295251D01*
X2140000Y1295024D01*
X2141522Y1295326D01*
X2142812Y1296188D01*
X2143674Y1297478D01*
X2143976Y1299000D01*
X2143674Y1300522D01*
X2142812Y1301812D01*
X2141522Y1302674D01*
X2140623Y1302853D01*
Y1304147D01*
X2141522Y1304326D01*
X2142812Y1305188D01*
X2143674Y1306478D01*
X2143976Y1308000D01*
X2143674Y1309522D01*
X2142812Y1310812D01*
X2141522Y1311674D01*
X2140000Y1311976D01*
X2138478Y1311674D01*
X2137188Y1310812D01*
X2137013Y1310549D01*
X2126182D01*
X2124976Y1311000D01*
X2124674Y1312522D01*
X2123812Y1313812D01*
X2122522Y1314674D01*
X2121989Y1314780D01*
X2121721Y1316128D01*
X2121812Y1316188D01*
X2122674Y1317478D01*
X2122829Y1318259D01*
X2123310Y1319049D01*
X2124209Y1319181D01*
X2125000Y1319024D01*
X2126522Y1319326D01*
X2127812Y1320188D01*
X2128674Y1321478D01*
X2128976Y1323000D01*
X2128674Y1324522D01*
X2127812Y1325812D01*
X2126522Y1326674D01*
X2125784Y1326820D01*
X2118327Y1334278D01*
X2118813Y1335451D01*
X2142451D01*
Y1320000D01*
D02*
G37*
G36*
X2084559Y1326181D02*
X2084341Y1325845D01*
X2083478Y1325674D01*
X2082188Y1324812D01*
X2081326Y1323522D01*
X2081024Y1322000D01*
X2081326Y1320478D01*
X2082188Y1319188D01*
X2083478Y1318326D01*
X2085000Y1318024D01*
X2086522Y1318326D01*
X2087812Y1319188D01*
X2088674Y1320478D01*
X2088976Y1322000D01*
X2090182Y1322451D01*
X2093536D01*
X2094259Y1321181D01*
X2094024Y1320000D01*
X2094326Y1318478D01*
X2095119Y1317293D01*
X2095268Y1316889D01*
Y1316111D01*
X2095119Y1315707D01*
X2094326Y1314522D01*
X2094024Y1313000D01*
X2094326Y1311478D01*
X2095188Y1310188D01*
X2095451Y1310013D01*
Y1264056D01*
X2078944Y1247549D01*
X2072987D01*
X2072812Y1247812D01*
X2071522Y1248674D01*
X2070000Y1248976D01*
X2068478Y1248674D01*
X2067188Y1247812D01*
X2066326Y1246522D01*
X2066024Y1245000D01*
X2066326Y1243478D01*
X2067188Y1242188D01*
X2068478Y1241326D01*
X2070000Y1241024D01*
X2071522Y1241326D01*
X2072812Y1242188D01*
X2072987Y1242451D01*
X2080000D01*
X2080975Y1242645D01*
X2081802Y1243198D01*
X2099802Y1261198D01*
X2100181Y1261764D01*
X2101451Y1261521D01*
Y1260056D01*
X2075198Y1233802D01*
X2074645Y1232975D01*
X2074451Y1232000D01*
Y1210950D01*
X2073181Y1210424D01*
X2071802Y1211802D01*
X2070975Y1212355D01*
X2070000Y1212549D01*
X2059464D01*
X2058741Y1213819D01*
X2058976Y1215000D01*
X2058674Y1216522D01*
X2057812Y1217812D01*
X2057549Y1217987D01*
Y1263944D01*
X2071802Y1278198D01*
X2072355Y1279025D01*
X2072549Y1280000D01*
Y1308944D01*
X2075551Y1311946D01*
X2076478Y1311326D01*
X2078000Y1311024D01*
X2079522Y1311326D01*
X2080812Y1312188D01*
X2081674Y1313478D01*
X2081976Y1315000D01*
X2081674Y1316522D01*
X2080812Y1317812D01*
X2079522Y1318674D01*
X2078000Y1318976D01*
X2076478Y1318674D01*
X2075188Y1317812D01*
X2075013Y1317549D01*
X2075000D01*
X2074025Y1317355D01*
X2073198Y1316802D01*
X2068198Y1311802D01*
X2067645Y1310975D01*
X2067451Y1310000D01*
Y1294229D01*
X2066181Y1293710D01*
X2065549Y1294258D01*
Y1311944D01*
X2081056Y1327451D01*
X2083870D01*
X2084559Y1326181D01*
D02*
G37*
G36*
X675000Y1300000D02*
X665000D01*
X640000Y1325000D01*
X675000D01*
Y1300000D01*
D02*
G37*
G36*
X2352451Y1455000D02*
Y1442549D01*
X2195000D01*
X2194025Y1442355D01*
X2193198Y1441802D01*
X2192645Y1440975D01*
X2192451Y1440000D01*
Y1396056D01*
X2185310Y1388915D01*
X2185000Y1388976D01*
X2183478Y1388674D01*
X2182188Y1387812D01*
X2181326Y1386522D01*
X2181024Y1385000D01*
X2181326Y1383478D01*
X2182188Y1382188D01*
X2183478Y1381326D01*
X2185000Y1381024D01*
X2186522Y1381326D01*
X2187812Y1382188D01*
X2188674Y1383478D01*
X2188976Y1385000D01*
X2188915Y1385310D01*
X2190008Y1386403D01*
X2191178Y1385777D01*
X2191024Y1385000D01*
X2191326Y1383478D01*
X2192188Y1382188D01*
X2192451Y1382013D01*
Y1323987D01*
X2192188Y1323812D01*
X2191326Y1322522D01*
X2191024Y1321000D01*
X2191326Y1319478D01*
X2192188Y1318188D01*
X2193478Y1317326D01*
X2195000Y1317024D01*
X2196181Y1317258D01*
X2197451Y1316536D01*
Y1305000D01*
X2197645Y1304025D01*
X2198198Y1303198D01*
X2198769Y1302816D01*
X2199188Y1302188D01*
X2200478Y1301326D01*
X2202000Y1301024D01*
X2203522Y1301326D01*
X2204812Y1302188D01*
X2205674Y1303478D01*
X2205766Y1303943D01*
X2207177Y1304527D01*
X2207478Y1304326D01*
X2209000Y1304024D01*
X2209791Y1304181D01*
X2210690Y1304049D01*
X2211171Y1303259D01*
X2211326Y1302478D01*
X2212188Y1301188D01*
X2213478Y1300326D01*
X2215000Y1300024D01*
X2216522Y1300326D01*
X2217812Y1301188D01*
X2218674Y1302478D01*
X2218942Y1303826D01*
X2219557Y1304262D01*
X2220165Y1304536D01*
X2220478Y1304326D01*
X2222000Y1304024D01*
X2222791Y1304181D01*
X2223690Y1304049D01*
X2224171Y1303259D01*
X2224326Y1302478D01*
X2225188Y1301188D01*
X2226478Y1300326D01*
X2228000Y1300024D01*
X2229522Y1300326D01*
X2230812Y1301188D01*
X2231674Y1302478D01*
X2231942Y1303826D01*
X2232558Y1304262D01*
X2233165Y1304536D01*
X2233478Y1304326D01*
X2235000Y1304024D01*
X2235791Y1304181D01*
X2236690Y1304049D01*
X2237171Y1303259D01*
X2237326Y1302478D01*
X2238188Y1301188D01*
X2239478Y1300326D01*
X2241000Y1300024D01*
X2242522Y1300326D01*
X2243812Y1301188D01*
X2244674Y1302478D01*
X2244976Y1304000D01*
X2244674Y1305522D01*
X2243812Y1306812D01*
X2242549Y1307655D01*
Y1402451D01*
X2315536D01*
X2316259Y1401181D01*
X2316024Y1400000D01*
X2316326Y1398478D01*
X2317188Y1397188D01*
X2318478Y1396326D01*
X2320000Y1396024D01*
X2321522Y1396326D01*
X2322812Y1397188D01*
X2322987Y1397451D01*
X2325536D01*
X2326259Y1396181D01*
X2326024Y1395000D01*
X2326259Y1393819D01*
X2325536Y1392549D01*
X2255000D01*
X2254025Y1392355D01*
X2253198Y1391802D01*
X2252645Y1390975D01*
X2252451Y1390000D01*
Y1307987D01*
X2252188Y1307812D01*
X2251326Y1306522D01*
X2251024Y1305000D01*
X2251326Y1303478D01*
X2252188Y1302188D01*
X2252451Y1302013D01*
Y1277549D01*
X2197056D01*
X2193915Y1280690D01*
X2193976Y1281000D01*
X2193674Y1282522D01*
X2192812Y1283812D01*
X2191522Y1284674D01*
X2190000Y1284976D01*
X2188478Y1284674D01*
X2187188Y1283812D01*
X2186326Y1282522D01*
X2186024Y1281000D01*
X2186326Y1279478D01*
X2187188Y1278188D01*
X2188478Y1277326D01*
X2190000Y1277024D01*
X2190310Y1277085D01*
X2194198Y1273198D01*
X2195025Y1272645D01*
X2196000Y1272451D01*
X2252187D01*
X2252673Y1271278D01*
X2248198Y1266802D01*
X2248198Y1266802D01*
X2247645Y1265975D01*
X2247451Y1265000D01*
Y1225056D01*
X2244785Y1222390D01*
X2243463Y1222864D01*
X2243454Y1222949D01*
X2243812Y1223188D01*
X2244674Y1224478D01*
X2244976Y1226000D01*
X2244674Y1227522D01*
X2243812Y1228812D01*
X2242522Y1229674D01*
X2241000Y1229976D01*
X2239478Y1229674D01*
X2238188Y1228812D01*
X2237326Y1227522D01*
X2237171Y1226741D01*
X2236690Y1225951D01*
X2235791Y1225819D01*
X2235000Y1225976D01*
X2234209Y1225819D01*
X2233310Y1225951D01*
X2232829Y1226741D01*
X2232674Y1227522D01*
X2231812Y1228812D01*
X2230522Y1229674D01*
X2229000Y1229976D01*
X2227478Y1229674D01*
X2226188Y1228812D01*
X2225326Y1227522D01*
X2225024Y1226000D01*
X2225208Y1225075D01*
X2224065Y1224311D01*
X2223522Y1224674D01*
X2222000Y1224976D01*
X2220478Y1224674D01*
X2219188Y1223812D01*
X2218326Y1222522D01*
X2218024Y1221000D01*
X2218326Y1219478D01*
X2219188Y1218188D01*
X2219451Y1218013D01*
Y1168229D01*
X2218181Y1167710D01*
X2217549Y1168258D01*
Y1185000D01*
X2217355Y1185975D01*
X2216802Y1186802D01*
X2192549Y1211056D01*
Y1217013D01*
X2192812Y1217188D01*
X2193674Y1218478D01*
X2193976Y1220000D01*
X2193674Y1221522D01*
X2192812Y1222812D01*
X2191522Y1223674D01*
X2190000Y1223976D01*
X2189223Y1223822D01*
X2188597Y1224992D01*
X2201802Y1238198D01*
X2202355Y1239025D01*
X2202549Y1240000D01*
Y1247013D01*
X2202812Y1247188D01*
X2203674Y1248478D01*
X2203976Y1250000D01*
X2203674Y1251522D01*
X2202812Y1252812D01*
X2201522Y1253674D01*
X2200000Y1253976D01*
X2198478Y1253674D01*
X2197188Y1252812D01*
X2196326Y1251522D01*
X2196024Y1250000D01*
X2196326Y1248478D01*
X2197188Y1247188D01*
X2197451Y1247013D01*
Y1241056D01*
X2193722Y1237327D01*
X2192549Y1237813D01*
Y1247013D01*
X2192812Y1247188D01*
X2193674Y1248478D01*
X2193976Y1250000D01*
X2193674Y1251522D01*
X2192812Y1252812D01*
X2191522Y1253674D01*
X2190000Y1253976D01*
X2188478Y1253674D01*
X2187188Y1252812D01*
X2186326Y1251522D01*
X2186024Y1250000D01*
X2186326Y1248478D01*
X2187188Y1247188D01*
X2187451Y1247013D01*
Y1236056D01*
X2184144Y1232749D01*
X2182812Y1232812D01*
X2181522Y1233674D01*
X2180000Y1233976D01*
X2178478Y1233674D01*
X2177188Y1232812D01*
X2177013Y1232549D01*
X2175000D01*
X2174025Y1232355D01*
X2173198Y1231802D01*
X2150310Y1208915D01*
X2150000Y1208976D01*
X2148819Y1208742D01*
X2147549Y1209464D01*
Y1211944D01*
X2181802Y1246198D01*
X2182355Y1247025D01*
X2182549Y1248000D01*
Y1255000D01*
X2182355Y1255975D01*
X2181802Y1256802D01*
X2178915Y1259690D01*
X2178976Y1260000D01*
X2178674Y1261522D01*
X2177812Y1262812D01*
X2176522Y1263674D01*
X2175000Y1263976D01*
X2173791Y1263736D01*
X2173618Y1263773D01*
X2172903Y1264235D01*
X2172549Y1264580D01*
Y1361133D01*
X2173522Y1361326D01*
X2174812Y1362188D01*
X2175674Y1363478D01*
X2175976Y1365000D01*
X2175674Y1366522D01*
X2174812Y1367812D01*
X2173522Y1368674D01*
X2172000Y1368976D01*
X2170478Y1368674D01*
X2169819Y1368233D01*
X2168549Y1368912D01*
Y1369000D01*
X2168355Y1369975D01*
X2167802Y1370802D01*
X2156802Y1381802D01*
X2132549Y1406056D01*
Y1432013D01*
X2132812Y1432188D01*
X2133674Y1433478D01*
X2133976Y1435000D01*
X2133674Y1436522D01*
X2132812Y1437812D01*
X2131522Y1438674D01*
X2130000Y1438976D01*
X2128478Y1438674D01*
X2127188Y1437812D01*
X2127013Y1437549D01*
X2087987D01*
X2087812Y1437812D01*
X2086522Y1438674D01*
X2085000Y1438976D01*
X2083478Y1438674D01*
X2082188Y1437812D01*
X2081326Y1436522D01*
X2081024Y1435000D01*
X2081326Y1433478D01*
X2082188Y1432188D01*
X2083478Y1431326D01*
X2085000Y1431024D01*
X2086522Y1431326D01*
X2087812Y1432188D01*
X2087987Y1432451D01*
X2127013D01*
X2127188Y1432188D01*
X2127451Y1432013D01*
Y1405000D01*
X2127645Y1404025D01*
X2128198Y1403198D01*
X2132673Y1398722D01*
X2132187Y1397549D01*
X2117987D01*
X2117812Y1397812D01*
X2116522Y1398674D01*
X2115000Y1398976D01*
X2113478Y1398674D01*
X2112188Y1397812D01*
X2111326Y1396522D01*
X2111024Y1395000D01*
X2111326Y1393478D01*
X2111767Y1392819D01*
X2111088Y1391549D01*
X2107056D01*
X2103915Y1394690D01*
X2103976Y1395000D01*
X2103674Y1396522D01*
X2102812Y1397812D01*
X2101522Y1398674D01*
X2100000Y1398976D01*
X2098478Y1398674D01*
X2097188Y1397812D01*
X2096326Y1396522D01*
X2096024Y1395000D01*
X2096326Y1393478D01*
X2097188Y1392188D01*
X2098478Y1391326D01*
X2100000Y1391024D01*
X2100310Y1391085D01*
X2104198Y1387198D01*
X2104198Y1387198D01*
X2105025Y1386645D01*
X2106000Y1386451D01*
X2134944D01*
X2151403Y1369992D01*
X2150777Y1368822D01*
X2150000Y1368976D01*
X2148478Y1368674D01*
X2147188Y1367812D01*
X2147013Y1367549D01*
X2143000D01*
X2142025Y1367355D01*
X2141198Y1366802D01*
X2129198Y1354802D01*
X2129198Y1354802D01*
X2122944Y1348549D01*
X2046000D01*
X2045025Y1348355D01*
X2044198Y1347802D01*
X2028198Y1331802D01*
X2027645Y1330975D01*
X2027451Y1330000D01*
Y1312987D01*
X2027188Y1312812D01*
X2026326Y1311522D01*
X2026024Y1310000D01*
X2026326Y1308478D01*
X2027188Y1307188D01*
X2028478Y1306326D01*
X2030000Y1306024D01*
X2031522Y1306326D01*
X2032812Y1307188D01*
X2033674Y1308478D01*
X2033976Y1310000D01*
X2033674Y1311522D01*
X2032812Y1312812D01*
X2032549Y1312987D01*
Y1328944D01*
X2047014Y1343409D01*
X2048078Y1343301D01*
X2048538Y1342143D01*
X2043198Y1336802D01*
X2042645Y1335975D01*
X2042451Y1335000D01*
Y1327987D01*
X2042188Y1327812D01*
X2041326Y1326522D01*
X2041024Y1325000D01*
X2041326Y1323478D01*
X2042188Y1322188D01*
X2042451Y1322013D01*
Y1215000D01*
X2042547Y1214516D01*
X2041780Y1213886D01*
X2041460Y1213686D01*
X2040000Y1213976D01*
X2038478Y1213674D01*
X2037188Y1212812D01*
X2036326Y1211522D01*
X2036024Y1210000D01*
X2036326Y1208478D01*
X2037188Y1207188D01*
X2037451Y1207013D01*
Y1175000D01*
X2037645Y1174025D01*
X2037782Y1173819D01*
X2037104Y1172549D01*
X2002987D01*
X2002812Y1172812D01*
X2001522Y1173674D01*
X2000000Y1173976D01*
X1998478Y1173674D01*
X1997188Y1172812D01*
X1996326Y1171522D01*
X1996024Y1170000D01*
X1996259Y1168819D01*
X1995536Y1167549D01*
X1992549D01*
Y1200000D01*
Y1294050D01*
X1993819Y1294576D01*
X1996451Y1291944D01*
Y1276987D01*
X1996188Y1276812D01*
X1995326Y1275522D01*
X1995024Y1274000D01*
X1995326Y1272478D01*
X1996188Y1271188D01*
X1996451Y1271013D01*
Y1234987D01*
X1996188Y1234812D01*
X1995326Y1233522D01*
X1995024Y1232000D01*
X1995326Y1230478D01*
X1996188Y1229188D01*
X1997478Y1228326D01*
X1999000Y1228024D01*
X2000522Y1228326D01*
X2001812Y1229188D01*
X2002146Y1229689D01*
X2003478Y1230326D01*
X2005000Y1230024D01*
X2006522Y1230326D01*
X2007812Y1231188D01*
X2008674Y1232478D01*
X2008772Y1232973D01*
X2010000Y1234024D01*
X2011228Y1232973D01*
X2011326Y1232478D01*
X2012188Y1231188D01*
X2013478Y1230326D01*
X2015000Y1230024D01*
X2016522Y1230326D01*
X2017812Y1231188D01*
X2018674Y1232478D01*
X2018976Y1234000D01*
X2018674Y1235522D01*
X2017812Y1236812D01*
X2017549Y1236987D01*
Y1264000D01*
X2017355Y1264975D01*
X2016802Y1265802D01*
X2016549Y1266056D01*
Y1272536D01*
X2017819Y1273259D01*
X2018216Y1273180D01*
X2032451Y1258944D01*
Y1247987D01*
X2032188Y1247812D01*
X2031326Y1246522D01*
X2031024Y1245000D01*
X2031326Y1243478D01*
X2032188Y1242188D01*
X2033478Y1241326D01*
X2035000Y1241024D01*
X2036522Y1241326D01*
X2037812Y1242188D01*
X2038674Y1243478D01*
X2038976Y1245000D01*
X2038674Y1246522D01*
X2037812Y1247812D01*
X2037549Y1247987D01*
Y1260000D01*
X2037355Y1260975D01*
X2036802Y1261802D01*
X2022749Y1275856D01*
X2022976Y1277000D01*
X2022674Y1278522D01*
X2021812Y1279812D01*
X2021549Y1279987D01*
Y1293000D01*
X2021355Y1293976D01*
X2020802Y1294802D01*
X2011749Y1303856D01*
X2011976Y1305000D01*
X2011674Y1306522D01*
X2010812Y1307812D01*
X2009522Y1308674D01*
X2008000Y1308976D01*
X2006478Y1308674D01*
X2005188Y1307812D01*
X2004745Y1307149D01*
X2003255D01*
X2002812Y1307812D01*
X2001522Y1308674D01*
X2000000Y1308976D01*
X1998701Y1308718D01*
X1997355Y1308976D01*
X1996802Y1309802D01*
X1990915Y1315690D01*
X1990976Y1316000D01*
X1990674Y1317522D01*
X1989812Y1318812D01*
X1988522Y1319674D01*
X1987644Y1319848D01*
X1987216Y1321216D01*
X2017000Y1351000D01*
X2075000D01*
Y1364000D01*
X2009000D01*
X1970000Y1325000D01*
X1970000Y1230000D01*
X1982451D01*
Y1195000D01*
Y1160000D01*
X1982645Y1159025D01*
X1983064Y1158397D01*
X1982188Y1157812D01*
X1981326Y1156522D01*
X1981024Y1155000D01*
X1981326Y1153478D01*
X1982188Y1152188D01*
X1983478Y1151326D01*
X1985000Y1151024D01*
X1986522Y1151326D01*
X1987812Y1152188D01*
X1987987Y1152451D01*
X2057013D01*
X2057188Y1152188D01*
X2058478Y1151326D01*
X2060000Y1151024D01*
X2061522Y1151326D01*
X2062812Y1152188D01*
X2063674Y1153478D01*
X2063963Y1154935D01*
X2064084Y1155295D01*
X2064705Y1155917D01*
X2065065Y1156037D01*
X2066522Y1156326D01*
X2067812Y1157188D01*
X2068674Y1158478D01*
X2068976Y1160000D01*
X2068674Y1161522D01*
X2067812Y1162812D01*
X2066522Y1163674D01*
X2065065Y1163963D01*
X2064705Y1164083D01*
X2063945Y1164843D01*
X2063976Y1165000D01*
X2063945Y1165157D01*
X2064705Y1165917D01*
X2065065Y1166037D01*
X2066522Y1166326D01*
X2067812Y1167188D01*
X2068674Y1168478D01*
X2068963Y1169935D01*
X2069084Y1170295D01*
X2069705Y1170917D01*
X2070065Y1171037D01*
X2071460Y1171314D01*
X2071780Y1171115D01*
X2072547Y1170484D01*
X2072451Y1170000D01*
Y1085000D01*
X2072645Y1084025D01*
X2073198Y1083198D01*
X2078198Y1078198D01*
X2079025Y1077645D01*
X2080000Y1077451D01*
X2412013D01*
X2412188Y1077188D01*
X2413478Y1076326D01*
X2415000Y1076024D01*
X2416522Y1076326D01*
X2417812Y1077188D01*
X2418674Y1078478D01*
X2418976Y1080000D01*
X2418674Y1081522D01*
X2417812Y1082812D01*
X2416522Y1083674D01*
X2415065Y1083963D01*
X2414705Y1084084D01*
X2414084Y1084705D01*
X2413963Y1085065D01*
X2413741Y1086181D01*
X2414464Y1087451D01*
X2722013D01*
X2722188Y1087188D01*
X2723478Y1086326D01*
X2725000Y1086024D01*
X2726181Y1086258D01*
X2727451Y1085536D01*
Y930040D01*
X2719960D01*
Y930000D01*
X2700000D01*
X2400000Y930000D01*
Y930000D01*
X2380040D01*
Y930040D01*
X1950000D01*
X1950000Y1125000D01*
X1775000Y1125000D01*
X1775000Y1450000D01*
X1950000Y1450000D01*
Y1455000D01*
X2352451Y1455000D01*
D02*
G37*
G36*
X2186299Y1221386D02*
X2186024Y1220000D01*
X2186326Y1218478D01*
X2187188Y1217188D01*
X2187451Y1217013D01*
Y1210000D01*
X2187645Y1209025D01*
X2188198Y1208198D01*
X2211403Y1184992D01*
X2210777Y1183822D01*
X2210000Y1183976D01*
X2208478Y1183674D01*
X2207188Y1182812D01*
X2207013Y1182549D01*
X2182987D01*
X2182812Y1182812D01*
X2181522Y1183674D01*
X2180000Y1183976D01*
X2178478Y1183674D01*
X2177188Y1182812D01*
X2176326Y1181522D01*
X2176024Y1180000D01*
X2176326Y1178478D01*
X2177188Y1177188D01*
X2178478Y1176326D01*
X2180000Y1176024D01*
X2181522Y1176326D01*
X2182812Y1177188D01*
X2182987Y1177451D01*
X2207013D01*
X2207188Y1177188D01*
X2208478Y1176326D01*
X2210000Y1176024D01*
X2211181Y1176258D01*
X2212451Y1175536D01*
Y1167987D01*
X2212188Y1167812D01*
X2211326Y1166522D01*
X2211037Y1165065D01*
X2210916Y1164705D01*
X2210295Y1164083D01*
X2209935Y1163963D01*
X2208478Y1163674D01*
X2207188Y1162812D01*
X2207013Y1162549D01*
X2174464D01*
X2173741Y1163819D01*
X2173976Y1165000D01*
X2173674Y1166522D01*
X2172812Y1167812D01*
X2171522Y1168674D01*
X2170000Y1168976D01*
X2168478Y1168674D01*
X2167188Y1167812D01*
X2167013Y1167549D01*
X2142987D01*
X2142812Y1167812D01*
X2141522Y1168674D01*
X2140000Y1168976D01*
X2138478Y1168674D01*
X2137188Y1167812D01*
X2136326Y1166522D01*
X2136024Y1165000D01*
X2136326Y1163478D01*
X2137188Y1162188D01*
X2138478Y1161326D01*
X2139935Y1161037D01*
X2140265Y1160926D01*
X2140774Y1160226D01*
X2140184Y1159046D01*
X2139935Y1158963D01*
X2138478Y1158674D01*
X2137188Y1157812D01*
X2136326Y1156522D01*
X2136024Y1155000D01*
X2136326Y1153478D01*
X2137188Y1152188D01*
X2138478Y1151326D01*
X2139935Y1151037D01*
X2140184Y1150954D01*
X2140774Y1149774D01*
X2140265Y1149074D01*
X2139935Y1148963D01*
X2138478Y1148674D01*
X2137188Y1147812D01*
X2136326Y1146522D01*
X2136024Y1145000D01*
X2136326Y1143478D01*
X2137188Y1142188D01*
X2137192Y1142186D01*
X2137317Y1140922D01*
X2135310Y1138915D01*
X2135000Y1138976D01*
X2133478Y1138674D01*
X2132188Y1137812D01*
X2131326Y1136522D01*
X2131024Y1135000D01*
X2131326Y1133478D01*
X2132188Y1132188D01*
X2133478Y1131326D01*
X2135000Y1131024D01*
X2136522Y1131326D01*
X2137812Y1132188D01*
X2138674Y1133478D01*
X2138976Y1135000D01*
X2138915Y1135310D01*
X2140008Y1136403D01*
X2141178Y1135777D01*
X2141024Y1135000D01*
X2141326Y1133478D01*
X2142188Y1132188D01*
X2143478Y1131326D01*
X2145000Y1131024D01*
X2146522Y1131326D01*
X2147812Y1132188D01*
X2147987Y1132451D01*
X2165536D01*
X2166259Y1131181D01*
X2166024Y1130000D01*
X2166326Y1128478D01*
X2167188Y1127188D01*
X2168478Y1126326D01*
X2169935Y1126037D01*
X2170295Y1125916D01*
X2170916Y1125295D01*
X2171037Y1124935D01*
X2171326Y1123478D01*
X2172188Y1122188D01*
X2173478Y1121326D01*
X2175000Y1121024D01*
X2176522Y1121326D01*
X2177812Y1122188D01*
X2177987Y1122451D01*
X2205536D01*
X2206259Y1121181D01*
X2206024Y1120000D01*
X2206326Y1118478D01*
X2207188Y1117188D01*
X2207451Y1117013D01*
Y1097987D01*
X2207188Y1097812D01*
X2206326Y1096522D01*
X2206024Y1095000D01*
X2206326Y1093478D01*
X2207188Y1092188D01*
X2208478Y1091326D01*
X2210000Y1091024D01*
X2211522Y1091326D01*
X2212812Y1092188D01*
X2213674Y1093478D01*
X2213976Y1095000D01*
X2213674Y1096522D01*
X2212812Y1097812D01*
X2212549Y1097987D01*
Y1117013D01*
X2212812Y1117188D01*
X2213674Y1118478D01*
X2213976Y1120000D01*
X2213741Y1121181D01*
X2214464Y1122451D01*
X2262013D01*
X2262188Y1122188D01*
X2263478Y1121326D01*
X2265000Y1121024D01*
X2266181Y1121258D01*
X2267451Y1120536D01*
Y1095000D01*
X2267645Y1094025D01*
X2267782Y1093819D01*
X2267104Y1092549D01*
X2257549D01*
Y1107013D01*
X2257812Y1107188D01*
X2258674Y1108478D01*
X2258976Y1110000D01*
X2258674Y1111522D01*
X2257812Y1112812D01*
X2256522Y1113674D01*
X2255000Y1113976D01*
X2253478Y1113674D01*
X2252188Y1112812D01*
X2251326Y1111522D01*
X2251024Y1110000D01*
X2251326Y1108478D01*
X2252188Y1107188D01*
X2252451Y1107013D01*
Y1090000D01*
X2252645Y1089025D01*
X2252782Y1088819D01*
X2252104Y1087549D01*
X2106056D01*
X2092549Y1101056D01*
Y1185000D01*
X2092355Y1185975D01*
X2091802Y1186802D01*
X2088327Y1190278D01*
X2088813Y1191451D01*
X2114944D01*
X2116546Y1189850D01*
X2116326Y1189522D01*
X2116024Y1188000D01*
X2116326Y1186478D01*
X2117188Y1185188D01*
X2118478Y1184326D01*
X2120000Y1184024D01*
X2121522Y1184326D01*
X2122812Y1185188D01*
X2123674Y1186478D01*
X2123976Y1188000D01*
X2123674Y1189522D01*
X2122812Y1190812D01*
X2122184Y1191231D01*
X2121802Y1191802D01*
X2118424Y1195181D01*
X2118950Y1196451D01*
X2129944D01*
X2136085Y1190310D01*
X2136024Y1190000D01*
X2136326Y1188478D01*
X2137188Y1187188D01*
X2138478Y1186326D01*
X2140000Y1186024D01*
X2140777Y1186178D01*
X2141403Y1185008D01*
X2138944Y1182549D01*
X2130000D01*
X2129025Y1182355D01*
X2128198Y1181802D01*
X2123198Y1176802D01*
X2122645Y1175975D01*
X2122451Y1175000D01*
Y1167987D01*
X2122188Y1167812D01*
X2121326Y1166522D01*
X2121024Y1165000D01*
X2121326Y1163478D01*
X2122188Y1162188D01*
X2122451Y1162013D01*
Y1132987D01*
X2122188Y1132812D01*
X2121326Y1131522D01*
X2121024Y1130000D01*
X2121326Y1128478D01*
X2122188Y1127188D01*
X2123478Y1126326D01*
X2125000Y1126024D01*
X2126522Y1126326D01*
X2127812Y1127188D01*
X2128674Y1128478D01*
X2128976Y1130000D01*
X2128674Y1131522D01*
X2127812Y1132812D01*
X2127549Y1132987D01*
Y1162013D01*
X2127812Y1162188D01*
X2128674Y1163478D01*
X2128976Y1165000D01*
X2128674Y1166522D01*
X2127812Y1167812D01*
X2127549Y1167987D01*
Y1173944D01*
X2131056Y1177451D01*
X2140000D01*
X2140484Y1177547D01*
X2141114Y1176780D01*
X2141314Y1176460D01*
X2141024Y1175000D01*
X2141326Y1173478D01*
X2142188Y1172188D01*
X2143478Y1171326D01*
X2145000Y1171024D01*
X2146522Y1171326D01*
X2147812Y1172188D01*
X2148674Y1173478D01*
X2148976Y1175000D01*
X2148915Y1175310D01*
X2156802Y1183198D01*
X2157355Y1184025D01*
X2157549Y1185000D01*
Y1203944D01*
X2175008Y1221403D01*
X2176178Y1220777D01*
X2176024Y1220000D01*
X2176326Y1218478D01*
X2177188Y1217188D01*
X2178478Y1216326D01*
X2179451Y1216133D01*
Y1211987D01*
X2179188Y1211812D01*
X2178326Y1210522D01*
X2178024Y1209000D01*
X2178326Y1207478D01*
X2179188Y1206188D01*
X2180478Y1205326D01*
X2182000Y1205024D01*
X2183522Y1205326D01*
X2184812Y1206188D01*
X2185674Y1207478D01*
X2185976Y1209000D01*
X2185674Y1210522D01*
X2184812Y1211812D01*
X2184549Y1211987D01*
Y1218000D01*
X2184355Y1218975D01*
X2183906Y1219647D01*
X2183976Y1220000D01*
X2183741Y1221181D01*
X2184349Y1222249D01*
X2185498Y1222351D01*
X2186299Y1221386D01*
D02*
G37*
G36*
X2262451Y1272050D02*
Y1215000D01*
X2262451Y1215000D01*
Y1197987D01*
X2262188Y1197812D01*
X2261326Y1196522D01*
X2261024Y1195000D01*
X2261326Y1193478D01*
X2262188Y1192188D01*
X2263478Y1191326D01*
X2265000Y1191024D01*
X2265777Y1191178D01*
X2266403Y1190008D01*
X2258819Y1182424D01*
X2257549Y1182950D01*
Y1217013D01*
X2257812Y1217188D01*
X2258674Y1218478D01*
X2258976Y1220000D01*
X2258674Y1221522D01*
X2257812Y1222812D01*
X2256522Y1223674D01*
X2255000Y1223976D01*
X2253791Y1223736D01*
X2253618Y1223773D01*
X2252903Y1224235D01*
X2252549Y1224580D01*
Y1263944D01*
X2261181Y1272576D01*
X2262451Y1272050D01*
D02*
G37*
%LPC*%
G36*
X2750000Y1398372D02*
X2747833Y1398086D01*
X2745814Y1397250D01*
X2744081Y1395920D01*
X2742750Y1394186D01*
X2741914Y1392167D01*
X2741628Y1390000D01*
X2741914Y1387833D01*
X2742750Y1385814D01*
X2744081Y1384080D01*
X2745814Y1382750D01*
X2747833Y1381914D01*
X2750000Y1381628D01*
X2752167Y1381914D01*
X2754186Y1382750D01*
X2755919Y1384080D01*
X2757250Y1385814D01*
X2758087Y1387833D01*
X2758372Y1390000D01*
X2758087Y1392167D01*
X2757250Y1394186D01*
X2755919Y1395920D01*
X2754186Y1397250D01*
X2752167Y1398086D01*
X2750000Y1398372D01*
D02*
G37*
G36*
X2537000Y1435556D02*
X2493000D01*
X2491303Y1435333D01*
X2489722Y1434678D01*
X2488364Y1433636D01*
Y1433636D01*
X2487322Y1432278D01*
X2486667Y1430697D01*
X2486444Y1429000D01*
X2486667Y1427303D01*
X2487322Y1425722D01*
X2488364Y1424364D01*
X2489722Y1423322D01*
X2491303Y1422667D01*
X2493000Y1422444D01*
X2530444D01*
Y1383000D01*
X2530667Y1381303D01*
X2531322Y1379722D01*
X2532364Y1378364D01*
X2578444Y1332284D01*
Y1320000D01*
X2578667Y1318303D01*
X2579322Y1316722D01*
X2580364Y1315364D01*
X2581722Y1314322D01*
X2583303Y1313667D01*
X2585000Y1313444D01*
X2586697Y1313667D01*
X2588278Y1314322D01*
X2589636Y1315364D01*
X2590678Y1316722D01*
X2591333Y1318303D01*
X2591556Y1320000D01*
Y1330563D01*
X2591678Y1330722D01*
X2592333Y1332303D01*
X2592556Y1334000D01*
X2592333Y1335697D01*
X2591678Y1337278D01*
X2590636Y1338636D01*
X2590070Y1339070D01*
X2589636Y1339636D01*
X2543556Y1385716D01*
Y1428999D01*
X2543556Y1429000D01*
X2543333Y1430697D01*
X2542678Y1432278D01*
X2541636Y1433636D01*
X2540278Y1434678D01*
X2538697Y1435333D01*
X2537000Y1435556D01*
D02*
G37*
G36*
X2635000Y1313976D02*
X2633478Y1313674D01*
X2632188Y1312812D01*
X2632013Y1312549D01*
X2612987D01*
X2612812Y1312812D01*
X2611522Y1313674D01*
X2610000Y1313976D01*
X2608478Y1313674D01*
X2607188Y1312812D01*
X2606326Y1311522D01*
X2606024Y1310000D01*
X2606326Y1308478D01*
X2607188Y1307188D01*
X2608478Y1306326D01*
X2610000Y1306024D01*
X2611522Y1306326D01*
X2612812Y1307188D01*
X2612987Y1307451D01*
X2632013D01*
X2632188Y1307188D01*
X2633478Y1306326D01*
X2635000Y1306024D01*
X2636522Y1306326D01*
X2637812Y1307188D01*
X2638674Y1308478D01*
X2638976Y1310000D01*
X2638674Y1311522D01*
X2637812Y1312812D01*
X2636522Y1313674D01*
X2635000Y1313976D01*
D02*
G37*
G36*
X2360000D02*
X2358478Y1313674D01*
X2357188Y1312812D01*
X2356326Y1311522D01*
X2356024Y1310000D01*
X2356326Y1308478D01*
X2357188Y1307188D01*
X2357451Y1307013D01*
Y1287987D01*
X2357188Y1287812D01*
X2356326Y1286522D01*
X2356024Y1285000D01*
X2356326Y1283478D01*
X2357188Y1282188D01*
X2358478Y1281326D01*
X2360000Y1281024D01*
X2361522Y1281326D01*
X2362812Y1282188D01*
X2363674Y1283478D01*
X2363976Y1285000D01*
X2363674Y1286522D01*
X2362812Y1287812D01*
X2362549Y1287987D01*
Y1307013D01*
X2362812Y1307188D01*
X2363674Y1308478D01*
X2363976Y1310000D01*
X2363674Y1311522D01*
X2362812Y1312812D01*
X2361522Y1313674D01*
X2360000Y1313976D01*
D02*
G37*
G36*
X2535000Y1243976D02*
X2533478Y1243674D01*
X2532188Y1242812D01*
X2531326Y1241522D01*
X2531024Y1240000D01*
X2531326Y1238478D01*
X2532188Y1237188D01*
X2533478Y1236326D01*
X2535000Y1236024D01*
X2536522Y1236326D01*
X2537812Y1237188D01*
X2537987Y1237451D01*
X2612013D01*
X2612188Y1237188D01*
X2613478Y1236326D01*
X2615000Y1236024D01*
X2616522Y1236326D01*
X2617812Y1237188D01*
X2618674Y1238478D01*
X2618976Y1240000D01*
X2618674Y1241522D01*
X2617812Y1242812D01*
X2616522Y1243674D01*
X2615000Y1243976D01*
X2613478Y1243674D01*
X2612188Y1242812D01*
X2612013Y1242549D01*
X2537987D01*
X2537812Y1242812D01*
X2536522Y1243674D01*
X2535000Y1243976D01*
D02*
G37*
G36*
X2395000Y1283976D02*
X2393478Y1283674D01*
X2392188Y1282812D01*
X2391326Y1281522D01*
X2391024Y1280000D01*
X2391326Y1278478D01*
X2392188Y1277188D01*
X2393478Y1276326D01*
X2395000Y1276024D01*
X2396522Y1276326D01*
X2397812Y1277188D01*
X2397987Y1277451D01*
X2400536D01*
X2401259Y1276181D01*
X2401024Y1275000D01*
X2401326Y1273478D01*
X2402188Y1272188D01*
X2402451Y1272013D01*
Y1212987D01*
X2402188Y1212812D01*
X2401326Y1211522D01*
X2401024Y1210000D01*
X2401326Y1208478D01*
X2402188Y1207188D01*
X2403478Y1206326D01*
X2404935Y1206037D01*
X2405295Y1205917D01*
X2405916Y1205295D01*
X2406037Y1204935D01*
X2406326Y1203478D01*
X2407188Y1202188D01*
X2408478Y1201326D01*
X2410000Y1201024D01*
X2411522Y1201326D01*
X2412812Y1202188D01*
X2413674Y1203478D01*
X2413976Y1205000D01*
X2413674Y1206522D01*
X2412812Y1207812D01*
X2412549Y1207987D01*
Y1280000D01*
X2412355Y1280975D01*
X2411802Y1281802D01*
X2410975Y1282355D01*
X2410000Y1282549D01*
X2397987D01*
X2397812Y1282812D01*
X2396522Y1283674D01*
X2395000Y1283976D01*
D02*
G37*
G36*
X2750000Y1168372D02*
X2747833Y1168086D01*
X2745814Y1167250D01*
X2744081Y1165920D01*
X2742750Y1164186D01*
X2741914Y1162167D01*
X2741628Y1160000D01*
X2741914Y1157833D01*
X2742750Y1155814D01*
X2744081Y1154080D01*
X2745814Y1152750D01*
X2747833Y1151914D01*
X2750000Y1151628D01*
X2752167Y1151914D01*
X2754186Y1152750D01*
X2755919Y1154080D01*
X2757250Y1155814D01*
X2758087Y1157833D01*
X2758372Y1160000D01*
X2758087Y1162167D01*
X2757250Y1164186D01*
X2755919Y1165920D01*
X2754186Y1167250D01*
X2752167Y1168086D01*
X2750000Y1168372D01*
D02*
G37*
G36*
X1905000Y1422590D02*
X1824000D01*
X1823009Y1422393D01*
X1822169Y1421831D01*
X1821607Y1420991D01*
X1821410Y1420000D01*
Y1409697D01*
X1820428Y1408891D01*
X1820000Y1408976D01*
X1818478Y1408674D01*
X1817188Y1407812D01*
X1816326Y1406522D01*
X1816024Y1405000D01*
X1816326Y1403478D01*
X1817188Y1402188D01*
X1817451Y1402013D01*
Y1140000D01*
X1817645Y1139025D01*
X1818198Y1138198D01*
X1819025Y1137645D01*
X1820000Y1137451D01*
X1847013D01*
X1847188Y1137188D01*
X1848478Y1136326D01*
X1850000Y1136024D01*
X1851522Y1136326D01*
X1852812Y1137188D01*
X1852987Y1137451D01*
X1912013D01*
X1912188Y1137188D01*
X1913478Y1136326D01*
X1915000Y1136024D01*
X1916522Y1136326D01*
X1917812Y1137188D01*
X1918674Y1138478D01*
X1918976Y1140000D01*
X1918674Y1141522D01*
X1917812Y1142812D01*
X1916522Y1143674D01*
X1915000Y1143976D01*
X1913478Y1143674D01*
X1912188Y1142812D01*
X1912013Y1142549D01*
X1852987D01*
X1852812Y1142812D01*
X1851522Y1143674D01*
X1850000Y1143976D01*
X1848478Y1143674D01*
X1847188Y1142812D01*
X1847013Y1142549D01*
X1822549D01*
Y1191504D01*
X1823819Y1192446D01*
X1824000Y1192410D01*
X1905000D01*
X1905991Y1192607D01*
X1906831Y1193169D01*
X1907393Y1194009D01*
X1907590Y1195000D01*
Y1420000D01*
X1907393Y1420991D01*
X1906831Y1421831D01*
X1905991Y1422393D01*
X1905000Y1422590D01*
D02*
G37*
G36*
X2175000Y1418976D02*
X2173478Y1418674D01*
X2172188Y1417812D01*
X2171326Y1416522D01*
X2171024Y1415000D01*
X2171326Y1413478D01*
X2172188Y1412188D01*
X2172451Y1412013D01*
Y1375000D01*
X2172645Y1374025D01*
X2173198Y1373198D01*
X2181085Y1365310D01*
X2181024Y1365000D01*
X2181326Y1363478D01*
X2182188Y1362188D01*
X2183478Y1361326D01*
X2185000Y1361024D01*
X2186522Y1361326D01*
X2187812Y1362188D01*
X2188674Y1363478D01*
X2188976Y1365000D01*
X2188674Y1366522D01*
X2187812Y1367812D01*
X2186522Y1368674D01*
X2185000Y1368976D01*
X2184690Y1368915D01*
X2177549Y1376056D01*
Y1412013D01*
X2177812Y1412188D01*
X2178674Y1413478D01*
X2178976Y1415000D01*
X2178674Y1416522D01*
X2177812Y1417812D01*
X2176522Y1418674D01*
X2175000Y1418976D01*
D02*
G37*
G36*
X1912000Y1157976D02*
X1910478Y1157674D01*
X1909188Y1156812D01*
X1908326Y1155522D01*
X1908024Y1154000D01*
X1908326Y1152478D01*
X1909188Y1151188D01*
X1910478Y1150326D01*
X1912000Y1150024D01*
X1913522Y1150326D01*
X1914812Y1151188D01*
X1914987Y1151451D01*
X1933013D01*
X1933188Y1151188D01*
X1934478Y1150326D01*
X1936000Y1150024D01*
X1937522Y1150326D01*
X1938812Y1151188D01*
X1939674Y1152478D01*
X1939976Y1154000D01*
X1939674Y1155522D01*
X1938812Y1156812D01*
X1937522Y1157674D01*
X1936000Y1157976D01*
X1934478Y1157674D01*
X1933188Y1156812D01*
X1933013Y1156549D01*
X1914987D01*
X1914812Y1156812D01*
X1913522Y1157674D01*
X1912000Y1157976D01*
D02*
G37*
G36*
X2115000Y1183976D02*
X2113478Y1183674D01*
X2112188Y1182812D01*
X2111326Y1181522D01*
X2111024Y1180000D01*
X2111326Y1178478D01*
X2112188Y1177188D01*
X2112451Y1177013D01*
Y1132987D01*
X2112188Y1132812D01*
X2111326Y1131522D01*
X2111024Y1130000D01*
X2111326Y1128478D01*
X2112188Y1127188D01*
X2113478Y1126326D01*
X2115000Y1126024D01*
X2116522Y1126326D01*
X2117812Y1127188D01*
X2118674Y1128478D01*
X2118976Y1130000D01*
X2118674Y1131522D01*
X2117812Y1132812D01*
X2117549Y1132987D01*
Y1177013D01*
X2117812Y1177188D01*
X2118674Y1178478D01*
X2118976Y1180000D01*
X2118674Y1181522D01*
X2117812Y1182812D01*
X2116522Y1183674D01*
X2115000Y1183976D01*
D02*
G37*
G36*
X2100000Y1188976D02*
X2098478Y1188674D01*
X2097188Y1187812D01*
X2096326Y1186522D01*
X2096024Y1185000D01*
X2096326Y1183478D01*
X2097188Y1182188D01*
X2097451Y1182013D01*
Y1132987D01*
X2097188Y1132812D01*
X2096326Y1131522D01*
X2096024Y1130000D01*
X2096326Y1128478D01*
X2097188Y1127188D01*
X2098478Y1126326D01*
X2100000Y1126024D01*
X2101522Y1126326D01*
X2102812Y1127188D01*
X2103674Y1128478D01*
X2103976Y1130000D01*
X2103674Y1131522D01*
X2102812Y1132812D01*
X2102549Y1132987D01*
Y1182013D01*
X2102812Y1182188D01*
X2103674Y1183478D01*
X2103976Y1185000D01*
X2103674Y1186522D01*
X2102812Y1187812D01*
X2101522Y1188674D01*
X2100000Y1188976D01*
D02*
G37*
%LPD*%
D10*
X2685000Y1145000D02*
Y1240000D01*
X2425000Y1145000D02*
X2685000D01*
X2420000Y1150000D02*
X2425000Y1145000D01*
X2420000Y1150000D02*
Y1150000D01*
X2045000Y1180000D02*
Y1190000D01*
X2055000Y1200000D01*
X2050000Y1310000D02*
X2050500Y1310500D01*
X2050000Y1220000D02*
Y1310000D01*
X2040000Y1175000D02*
X2070000D01*
X2040000D02*
Y1210000D01*
X2075000Y1170000D02*
X2080000Y1175000D01*
X2085000Y1090000D02*
Y1180000D01*
X2080000Y1185000D02*
X2085000Y1180000D01*
X2065000Y1185000D02*
X2080000D01*
X2090000Y1100000D02*
Y1185000D01*
X2075000Y1200000D02*
X2090000Y1185000D01*
X2055000Y1200000D02*
X2075000D01*
X2075000Y1085000D02*
Y1170000D01*
Y1085000D02*
X2080000Y1080000D01*
X2415000D01*
X2405000Y1210000D02*
Y1275000D01*
X2410000Y1205000D02*
Y1280000D01*
X2395000D02*
X2410000D01*
X2175000Y1175000D02*
Y1210000D01*
X2255000Y1275000D02*
Y1390000D01*
X2395000Y1130000D02*
X2765000D01*
X2765000Y1130000D01*
X265000Y1195000D02*
Y1220000D01*
X335000Y1600000D02*
X335000Y1295000D01*
X280000Y1270000D02*
X285000Y1275000D01*
X280000Y1235000D02*
Y1270000D01*
X285000Y1275000D02*
X325000D01*
X2950000Y920000D02*
Y1135000D01*
X2775000D02*
X2950000D01*
X2930000Y920000D02*
Y1125000D01*
X2770000D02*
X2930000D01*
X2680000Y1135000D02*
X2770000D01*
Y1125000D02*
Y1135000D01*
X2765000Y1120000D02*
X2870000D01*
X2765000D02*
Y1130000D01*
X2850000Y920000D02*
Y1115000D01*
X2310000Y1125000D02*
X2760000D01*
Y1115000D02*
X2850000D01*
X2760000D02*
Y1125000D01*
X2305000Y1120000D02*
X2755000D01*
Y1110000D02*
X2830000D01*
X2755000D02*
Y1120000D01*
X2645000Y1115000D02*
X2750000Y1115000D01*
Y1105000D02*
X2810000D01*
X2750000D02*
Y1115000D01*
X2295000Y1110000D02*
X2745000D01*
Y1100000D02*
X2790000D01*
X2745000D02*
Y1110000D01*
X2285000Y1105000D02*
X2740000D01*
Y1095000D02*
X2770000D01*
X2740000D02*
Y1105000D01*
X2275000Y1100000D02*
X2735000D01*
Y1090000D02*
X2750000D01*
X2735000D02*
Y1100000D01*
X2255000Y1090000D02*
X2725000D01*
X2255000D02*
Y1110000D01*
X2770000Y920000D02*
Y1095000D01*
X2790000Y920000D02*
Y1100000D01*
X2810000Y920000D02*
Y1105000D01*
X2645000Y1115000D02*
X2645000Y1115000D01*
X2730000Y920000D02*
Y1095000D01*
X2270000Y1095000D02*
X2730000Y1095000D01*
X2270000Y1095000D02*
Y1130000D01*
X2275000Y1100000D02*
Y1130000D01*
X2285000Y1105000D02*
Y1125000D01*
X2295000Y1110000D02*
Y1135000D01*
X2300000Y1115000D02*
X2645000D01*
X2300000D02*
Y1140000D01*
X2830000Y920000D02*
Y1110000D01*
X2305000Y1120000D02*
Y1160000D01*
X2310000Y1125000D02*
Y1165000D01*
X2870000Y920000D02*
Y1120000D01*
X2180000Y1180000D02*
X2210000D01*
X2250000Y1265000D02*
X2260000Y1275000D01*
X2250000Y1265000D02*
Y1265000D01*
Y1224000D02*
Y1265000D01*
X2245000Y1135000D02*
Y1219000D01*
X2250000Y1224000D01*
X2088000Y1199000D02*
X2103000D01*
X2077000Y1210000D02*
X2088000Y1199000D01*
X2077000Y1210000D02*
Y1232000D01*
X2130000Y1434000D02*
X2131000Y1435000D01*
X2141500Y1234500D02*
X2142000Y1235000D01*
X2140000D02*
X2142000D01*
X2097000Y1216000D02*
X2116000Y1235000D01*
X2097000Y1216000D02*
X2097000D01*
X2128000Y1206000D02*
X2135000Y1213000D01*
X2128000Y1206000D02*
Y1206000D01*
X2102000Y1206000D02*
X2128000D01*
X2105000Y1216000D02*
X2131000D01*
X2099000Y1210000D02*
X2105000Y1216000D01*
X2084000Y1210000D02*
X2099000D01*
X2097000Y1215000D02*
Y1216000D01*
X2131000D02*
X2135000Y1220000D01*
X695000Y1615000D02*
X2445000D01*
X690000Y1610000D02*
X695000Y1615000D01*
X325000Y1430000D02*
Y1610000D01*
X690000D01*
X700000Y1610000D02*
X720000D01*
X330000Y1301000D02*
Y1605000D01*
X695000D02*
X700000Y1610000D01*
X330000Y1605000D02*
X695000D01*
X706000Y1606000D02*
X775000D01*
X700000Y1600000D02*
X706000Y1606000D01*
X335000Y1600000D02*
X700000D01*
X712000Y1602000D02*
X2430000D01*
X650000Y1595000D02*
X685000D01*
X705000D02*
X712000Y1602000D01*
X685000Y1595000D02*
X705000D01*
X264000Y1344000D02*
Y1385000D01*
X645000Y1275000D02*
X1605000D01*
X630000Y1260000D02*
X645000Y1275000D01*
X2144000Y1274000D02*
X2145000Y1275000D01*
X2290000Y1295000D02*
X2295000Y1290000D01*
Y1270000D02*
Y1290000D01*
X2280000Y1175000D02*
Y1295000D01*
X2275000Y1300000D02*
X2280000Y1295000D01*
X2275000Y1300000D02*
Y1380000D01*
Y1205000D02*
Y1290000D01*
X2290000Y1190000D02*
Y1285000D01*
X1985000Y1155000D02*
X2060000D01*
X2000000Y1170000D02*
X2065000D01*
X1985000Y1160000D02*
X2065000D01*
X1985000D02*
Y1195000D01*
X1990000Y1165000D02*
X2060000D01*
X1990000D02*
Y1200000D01*
X2315000Y1265000D02*
Y1335000D01*
X2310000Y1275000D02*
Y1325000D01*
X2305000Y1245000D02*
Y1295000D01*
X2105000Y1085000D02*
X2410000D01*
X2360000Y1285000D02*
Y1310000D01*
X2090000Y1100000D02*
X2105000Y1085000D01*
X2070000Y1210000D02*
X2086000Y1194000D01*
X2116000D01*
X2045000Y1215000D02*
Y1325000D01*
X2050000Y1210000D02*
X2070000D01*
X2045000Y1215000D02*
X2050000Y1210000D01*
X2045000Y1215000D02*
Y1215000D01*
X2116000Y1194000D02*
X2120000Y1190000D01*
X2050500Y1310500D02*
X2052000Y1309000D01*
X2055000Y1265000D02*
X2070000Y1280000D01*
X2055000Y1215000D02*
Y1265000D01*
X2152000Y1228000D02*
X2174000Y1250000D01*
X2129000Y1228000D02*
X2152000D01*
X2185000Y1245000D02*
Y1260000D01*
X2180000Y1240000D02*
X2185000Y1245000D01*
X2180000Y1248000D02*
Y1255000D01*
X2145000Y1213000D02*
X2180000Y1248000D01*
X2145000Y1185000D02*
Y1213000D01*
X2180000Y1230000D02*
X2185000D01*
X2175000D02*
X2180000D01*
X2125000Y1175000D02*
Y1175000D01*
Y1165000D02*
Y1175000D01*
X2130000Y1180000D01*
X2125000Y1175000D02*
X2130000Y1180000D01*
X2125000Y1130000D02*
Y1165000D01*
X2185000Y1225000D02*
X2200000Y1240000D01*
Y1250000D01*
X2175000Y1260000D02*
X2180000Y1255000D01*
X2175000Y1225000D02*
X2185000D01*
X2155000Y1205000D02*
X2175000Y1225000D01*
X2155000Y1185000D02*
Y1205000D01*
X2145000Y1175000D02*
X2155000Y1185000D01*
X2180000Y1220000D02*
X2182000Y1218000D01*
X2190000Y1210000D02*
Y1220000D01*
Y1235000D02*
Y1250000D01*
X2185000Y1230000D02*
X2190000Y1235000D01*
X2150000Y1205000D02*
X2175000Y1230000D01*
X2222000Y1155000D02*
Y1219000D01*
X2140000Y1155000D02*
X2222000D01*
X2140000Y1165000D02*
X2170000D01*
X2145000Y1160000D02*
X2210000D01*
X2145000Y1150000D02*
X2225000D01*
X2230000Y1155000D01*
X2210000Y1095000D02*
Y1120000D01*
X2175000Y1175000D02*
X2205000D01*
X2215000Y1165000D02*
Y1185000D01*
X2190000Y1210000D02*
X2215000Y1185000D01*
X2131000Y1199000D02*
X2140000Y1190000D01*
X2130000Y1180000D02*
X2140000D01*
X2130000D02*
X2130000D01*
X2140000D02*
X2145000Y1185000D01*
X2103000Y1199000D02*
X2131000D01*
X2300000Y1375000D02*
X2335000D01*
X2300000Y1265000D02*
Y1375000D01*
X2295000Y1260000D02*
X2300000Y1265000D01*
X2295000Y1185000D02*
Y1260000D01*
X2260000Y1165000D02*
X2310000D01*
X2260000D02*
Y1180000D01*
X2270000Y1175000D02*
X2280000D01*
X2265000Y1170000D02*
X2270000Y1175000D01*
X2280000D02*
X2295000D01*
X2450000Y1380000D02*
Y1445000D01*
X2275000Y1380000D02*
X2450000D01*
X2285000Y1185000D02*
X2290000Y1190000D01*
X2285000Y1195000D02*
Y1280000D01*
X2215000Y1130000D02*
X2270000D01*
X2175000Y1125000D02*
X2265000D01*
X2270000Y1190000D02*
Y1353000D01*
X2260000Y1180000D02*
X2270000Y1190000D01*
X1649000Y1524000D02*
X2395000D01*
X2260000Y1275000D02*
Y1325000D01*
X2196000Y1275000D02*
X2255000D01*
X2190000Y1281000D02*
X2196000Y1275000D01*
X2131000Y1274000D02*
X2144000D01*
X2126000Y1279000D02*
X2131000Y1274000D01*
X2170000Y1264000D02*
Y1363000D01*
X2167000Y1261000D02*
X2170000Y1264000D01*
Y1363000D02*
X2172000Y1365000D01*
X2126000Y1279000D02*
Y1286000D01*
X2167000Y1250000D02*
Y1261000D01*
X2123000Y1222000D02*
X2129000Y1228000D01*
X2142000Y1242000D02*
X2166000Y1266000D01*
X2142000Y1235000D02*
Y1242000D01*
Y1234000D02*
Y1235000D01*
X2116000D02*
X2140000D01*
X2166000Y1266000D02*
Y1369000D01*
X2162000Y1267000D02*
Y1368000D01*
X2136000Y1241000D02*
X2162000Y1267000D01*
X2113000Y1241000D02*
X2136000D01*
X2158000Y1268000D02*
Y1367000D01*
X2135000Y1245000D02*
X2158000Y1268000D01*
X2110000Y1245000D02*
X2135000D01*
X2070000Y1280000D02*
Y1310000D01*
X2136000Y1389000D02*
X2158000Y1367000D01*
X2135000Y1395000D02*
X2162000Y1368000D01*
X2151000Y1384000D02*
X2166000Y1369000D01*
X2141000Y1234000D02*
X2141500Y1234500D01*
X2141000Y1234000D02*
X2141000Y1234000D01*
X2141000Y1234000D02*
X2141000D01*
X2141000Y1234000D02*
X2141000Y1234000D01*
X2140000Y1235000D02*
X2141000Y1234000D01*
X2141000Y1234000D02*
X2142000D01*
X2092000Y1220000D02*
X2113000Y1241000D01*
X2087000Y1222000D02*
X2110000Y1245000D01*
X2265000Y1215000D02*
Y1345000D01*
X580000Y1315000D02*
Y1525000D01*
X595000Y1055000D02*
Y1240000D01*
X640000Y1285000D01*
X1975000Y1275000D02*
Y1325000D01*
X1980000Y1280000D02*
Y1325000D01*
X2182000Y1209000D02*
Y1218000D01*
X2170000Y1130000D02*
X2180000D01*
X2230000Y1155000D02*
Y1225000D01*
X2135000Y1213000D02*
X2136000Y1214000D01*
X2139000Y1299000D02*
X2140000D01*
X2132000Y1292000D02*
X2139000Y1299000D01*
X2121000Y1311000D02*
X2124000Y1308000D01*
X2140000D01*
X2115000Y1292000D02*
Y1319000D01*
Y1270000D02*
Y1292000D01*
X2132000D01*
X2180000Y1295000D02*
Y1332000D01*
Y1285000D02*
Y1295000D01*
X2185000Y1260000D02*
X2185000D01*
X2180000Y1265000D02*
X2185000Y1260000D01*
X2150000Y1280000D02*
Y1315000D01*
X2145000Y1320000D02*
X2150000Y1315000D01*
X2145000Y1320000D02*
Y1338000D01*
X2180000Y1265000D02*
Y1285000D01*
X2145000Y1338000D02*
Y1350000D01*
X2058000Y1338000D02*
X2145000D01*
Y1135000D02*
X2245000D01*
X2135000D02*
X2140000Y1140000D01*
X2255000D02*
X2300000D01*
X2255000Y1140000D02*
X2255000Y1140000D01*
X2255000Y1140000D02*
Y1145000D01*
X2250000Y1135000D02*
X2295000D01*
X2250000D02*
Y1215000D01*
X2250000Y1215000D01*
X2255000Y1145000D02*
Y1220000D01*
X2140000Y1145000D02*
X2235000D01*
Y1222000D01*
X2240000Y1140000D02*
Y1225000D01*
X2140000Y1140000D02*
X2240000D01*
X2030000Y1310000D02*
Y1330000D01*
X2046000Y1346000D02*
X2124000D01*
X2030000Y1330000D02*
X2046000Y1346000D01*
X2074000Y1334000D02*
X2115000D01*
X2052000Y1312000D02*
X2074000Y1334000D01*
X2052000Y1309000D02*
Y1312000D01*
X2070000Y1310000D02*
X2075000Y1315000D01*
X2078000D01*
X2085000Y1322000D02*
X2088000Y1325000D01*
X2131000Y1435000D02*
X2131000D01*
X2130000D02*
X2131000D01*
X2085000D02*
X2130000D01*
X2010000Y1355000D02*
X2060000D01*
X2055000Y1335000D02*
X2058000Y1338000D01*
X2053500Y1333500D02*
X2055000Y1335000D01*
X2050000Y1330000D02*
X2055000Y1335000D01*
Y1335000D01*
X2052000Y1342000D02*
X2127000D01*
X2045000Y1335000D02*
X2052000Y1342000D01*
X2045000Y1325000D02*
Y1335000D01*
X2015000Y1350000D02*
X2084000D01*
X2014000Y1349000D02*
X2015000Y1350000D01*
X1980000Y1325000D02*
X2010000Y1355000D01*
X2098000Y1263000D02*
Y1313000D01*
X2080000Y1245000D02*
X2098000Y1263000D01*
X2070000Y1245000D02*
X2080000D01*
X2104000Y1259000D02*
Y1315000D01*
X2077000Y1232000D02*
X2104000Y1259000D01*
X2109000Y1254000D02*
Y1317000D01*
X2082000Y1227000D02*
X2109000Y1254000D01*
X2082000Y1212000D02*
Y1227000D01*
X2114000Y1319000D02*
X2115000D01*
X2119000D01*
X2103000Y1330000D02*
X2114000Y1319000D01*
X2115000Y1270000D02*
X2120000Y1265000D01*
X2143000D01*
X2120000Y1188000D02*
Y1190000D01*
X2131000Y1353000D02*
X2143000Y1365000D01*
X2150000D01*
X2115000Y1395000D02*
X2135000D01*
X2106000Y1389000D02*
X2136000D01*
X2130000Y1405000D02*
X2155000Y1380000D01*
X2130000Y1405000D02*
Y1434000D01*
X2140000Y1355000D02*
X2150000D01*
X2127000Y1342000D02*
X2140000Y1355000D01*
X2175000Y1375000D02*
X2185000Y1365000D01*
X2175000Y1375000D02*
Y1415000D01*
X2100000Y1130000D02*
Y1185000D01*
Y1130000D02*
X2100000Y1130000D01*
X2185000Y1365000D02*
Y1365000D01*
X2185000Y1365000D02*
X2185000Y1365000D01*
X2180000Y1332000D02*
X2184000Y1336000D01*
X2106000Y1389000D02*
Y1389000D01*
X2100000Y1395000D02*
X2106000Y1389000D01*
X2145000Y1287000D02*
Y1313000D01*
X2135000Y1323000D02*
X2145000Y1313000D01*
X2265000Y1215000D02*
X2265000Y1215000D01*
X2185000Y1365000D02*
X2185000D01*
X2220000Y1355000D02*
Y1370000D01*
X2195000Y1321000D02*
Y1385000D01*
X2215000Y1375000D02*
X2220000Y1370000D01*
X310000Y1415000D02*
X325000Y1430000D01*
X2225000Y1311000D02*
Y1370000D01*
X2220000Y1375000D02*
X2225000Y1370000D01*
X2220000Y1375000D02*
X2220000D01*
X2260000Y1385000D02*
X2395000D01*
X2260000Y1325000D02*
Y1385000D01*
X2255000Y1390000D02*
X2410000D01*
X2200000Y1327000D02*
Y1435000D01*
X310000Y1301000D02*
X330000D01*
X2215000Y1304000D02*
Y1315000D01*
X2210000Y1320000D02*
X2215000Y1315000D01*
X2210000Y1320000D02*
Y1425000D01*
X2222000Y1308000D02*
X2225000Y1311000D01*
X2330000Y1395000D02*
X2435000D01*
X2320000Y1400000D02*
X2320000Y1400000D01*
X2430000D01*
X2395000Y1405000D02*
Y1524000D01*
X2185000Y1385000D02*
X2195000Y1395000D01*
Y1440000D01*
X2355000D01*
X2215000Y1385000D02*
Y1410000D01*
X2435000Y1395000D02*
Y1606000D01*
X2445000Y1420000D02*
Y1615000D01*
X2420000Y1410000D02*
Y1598000D01*
X2410000Y1410000D02*
Y1590000D01*
X2235000Y1410000D02*
X2380000D01*
X2220000Y1420000D02*
X2375000D01*
X2220000Y1375000D02*
Y1420000D01*
X2440000Y1425000D02*
Y1610000D01*
X2210000Y1425000D02*
X2370000D01*
X2380000Y1415000D02*
Y1512000D01*
X2230000Y1415000D02*
X2380000D01*
X2230000Y1306000D02*
Y1415000D01*
X2235000Y1310000D02*
Y1410000D01*
X2385000Y1405000D02*
Y1516000D01*
X2240000Y1405000D02*
X2385000D01*
X2240000Y1305000D02*
Y1405000D01*
X310000Y1205000D02*
X345000Y1240000D01*
X2415000Y1435000D02*
Y1594000D01*
X2200000Y1435000D02*
X2370000D01*
X2205000Y1430000D02*
X2375000D01*
X310000Y1095000D02*
X315000Y1090000D01*
Y1095000D01*
X2205000Y1312000D02*
Y1430000D01*
X2400000D02*
Y1586000D01*
X2220000Y1375000D02*
X2220000Y1375000D01*
X2411000Y1598000D02*
X2420000D01*
X2420000Y1598000D01*
X2200000Y1305000D02*
Y1327000D01*
X2405000Y1594000D02*
X2415000D01*
X2235000Y1310000D02*
X2235000Y1310000D01*
X2205000Y1312000D02*
X2205000Y1312000D01*
X736000Y1586000D02*
X2400000D01*
X2360000Y1445000D02*
Y1508000D01*
X1653000D02*
X2360000D01*
X1653000Y1503000D02*
X2355000D01*
Y1440000D02*
Y1503000D01*
X2228000Y1304000D02*
X2230000Y1306000D01*
X1999000Y1274000D02*
Y1293000D01*
Y1232000D02*
Y1274000D01*
X1995000Y1297000D02*
Y1308000D01*
Y1297000D02*
X1999000Y1293000D01*
X2000000Y1305000D02*
X2014000Y1291000D01*
X2000000Y1305000D02*
X2000000D01*
X2014000Y1265000D02*
Y1291000D01*
X1987000Y1316000D02*
X1995000Y1308000D01*
X2084000Y1350000D02*
X2085000Y1351000D01*
X2098000Y1320000D02*
X2099000D01*
X2082000Y1212000D02*
X2084000Y1210000D01*
X2131000Y1353000D02*
Y1353000D01*
X2124000Y1346000D02*
X2131000Y1353000D01*
X2115000Y1334000D02*
X2125000Y1324000D01*
X2026000Y1294000D02*
X2035000Y1285000D01*
X2026000Y1294000D02*
Y1298000D01*
X2087000Y1215000D02*
Y1222000D01*
X2020000Y1275000D02*
X2035000Y1260000D01*
Y1245000D02*
Y1260000D01*
X2099000Y1320000D02*
X2104000Y1315000D01*
X2101000Y1325000D02*
X2109000Y1317000D01*
X2088000Y1325000D02*
X2101000D01*
X2080000Y1330000D02*
X2103000D01*
X2063000Y1313000D02*
X2080000Y1330000D01*
X2063000Y1291000D02*
Y1313000D01*
X2010000Y1360000D02*
X2070000D01*
X1975000Y1325000D02*
X2010000Y1360000D01*
X2008000Y1304000D02*
X2019000Y1293000D01*
Y1277000D02*
Y1293000D01*
X2008000Y1304000D02*
Y1305000D01*
X2015000Y1234000D02*
Y1264000D01*
X2005000Y1234000D02*
Y1280000D01*
X2010000Y1238000D02*
Y1282000D01*
X2005000Y1287000D02*
X2010000Y1282000D01*
X2014000Y1265000D02*
X2015000Y1264000D01*
X1990000Y1200000D02*
Y1305000D01*
X1985000Y1195000D02*
Y1295000D01*
X1912000Y1154000D02*
X1936000D01*
X1912000Y1154000D02*
X1912000Y1154000D01*
X2220000Y1375000D02*
X2220000Y1375000D01*
X2390000Y1415000D02*
Y1520000D01*
X730000Y1590000D02*
X2410000D01*
X715000Y1565000D02*
X736000Y1586000D01*
X720000Y1610000D02*
X2440000Y1610000D01*
X775000Y1606000D02*
X2435000D01*
X655000Y1270000D02*
X1610000D01*
X645000Y1260000D02*
X655000Y1270000D01*
X645000Y1215000D02*
Y1260000D01*
X630000Y1235000D02*
Y1260000D01*
X640000Y1285000D02*
X1595000D01*
X565000Y1575000D02*
X715000D01*
X718000Y1598000D02*
X781000D01*
X710000Y1590000D02*
X718000Y1598000D01*
X340000Y1590000D02*
X710000D01*
X724000Y1594000D02*
X771000D01*
X715000Y1585000D02*
X724000Y1594000D01*
X345000Y1585000D02*
X715000D01*
X715000Y1575000D02*
X730000Y1590000D01*
X495000Y1565000D02*
X715000Y1565000D01*
X630000Y1200000D02*
X645000Y1215000D01*
X630000Y1160000D02*
Y1200000D01*
X660000Y1295000D02*
X1290000D01*
X640000Y1315000D02*
X660000Y1295000D01*
X590000Y1315000D02*
X640000D01*
Y1290000D02*
X1590000D01*
X630000Y1300000D02*
X640000Y1290000D01*
X590000Y1050000D02*
Y1315000D01*
X1651000Y1516000D02*
X2385000D01*
X1595000Y1460000D02*
X1651000Y1516000D01*
X1650000Y1520000D02*
X2390000D01*
X1590000Y1460000D02*
X1650000Y1520000D01*
X1585000Y1460000D02*
X1649000Y1524000D01*
X1590000Y1290000D02*
Y1460000D01*
X1585000Y1295000D02*
Y1460000D01*
X1595000Y1285000D02*
Y1460000D01*
X1290000Y1295000D02*
X1585000Y1295000D01*
X585000Y1370000D02*
X590000Y1375000D01*
X585000Y1235000D02*
Y1370000D01*
X590000Y1375000D02*
X630000D01*
X1610000Y1460000D02*
X1653000Y1503000D01*
X1610000Y1270000D02*
Y1460000D01*
X1672000Y1512000D02*
X2380000Y1512000D01*
X2380000Y1512000D02*
X2380000Y1512000D01*
X1605000Y1460000D02*
X1653000Y1508000D01*
X1672000Y1512000D02*
X1672000Y1512000D01*
X1652000Y1512000D02*
X1672000D01*
X1600000Y1460000D02*
X1652000Y1512000D01*
X1605000Y1275000D02*
Y1460000D01*
X1600000Y1280000D02*
Y1460000D01*
X1300000Y1280000D02*
X1600000D01*
X2405000Y1594000D02*
X2405000Y1594000D01*
X2411000Y1598000D02*
X2411000Y1598000D01*
X2430000Y1596000D02*
Y1602000D01*
X2430000Y1602000D02*
X2430000Y1602000D01*
X771000Y1594000D02*
X2405000Y1594000D01*
X781000Y1598000D02*
X2411000Y1598000D01*
X2240000Y1305000D02*
X2241000Y1304000D01*
X630000Y1375000D02*
X635000D01*
X625000Y1240000D02*
X630000Y1235000D01*
X340000Y1590000D02*
X340000Y1280000D01*
X325000Y1265000D02*
X340000Y1280000D01*
X290000Y1265000D02*
X325000D01*
X335000Y1285000D02*
Y1295000D01*
X325000Y1275000D02*
X335000Y1285000D01*
X265000Y1220000D02*
X280000Y1235000D01*
X460000Y1565000D02*
X495000D01*
X2680000Y1280000D02*
X2680000Y1280000D01*
Y1245000D02*
Y1280000D01*
X2610000Y1310000D02*
X2635000D01*
X2535000Y1240000D02*
X2615000D01*
X2750000Y925000D02*
Y1090000D01*
X2265000Y1195000D02*
Y1215000D01*
X2235000Y1310000D02*
X2235000Y1310000D01*
X2205000Y1312000D02*
X2209000Y1308000D01*
X350000Y1565000D02*
X350000Y1130000D01*
X315000Y1095000D02*
X350000Y1130000D01*
X335000Y1295000D02*
X335000D01*
X345000Y1240000D02*
X345000Y1585000D01*
X350000Y1565000D02*
X460000D01*
X350000D02*
X350000Y1565000D01*
X2115000Y1130000D02*
Y1180000D01*
X2430000Y1400000D02*
Y1598000D01*
X2040000Y1389000D02*
Y1390000D01*
X2065000D01*
X2040000Y1494000D02*
Y1495000D01*
X2065000D01*
X1850000Y1140000D02*
X1915000D01*
X1820000D02*
X1850000D01*
X1820000D02*
Y1405000D01*
X2050000Y1128000D02*
X2053000D01*
D92*
X2990000Y1445000D02*
X2990000Y920000D01*
X2690000Y1445000D02*
X2990000D01*
D93*
X2395000Y1140000D02*
X2970000Y1140000D01*
Y920000D02*
Y1140000D01*
D94*
X2585000Y1333000D02*
X2586000Y1334000D01*
X2515000Y1429000D02*
X2537000D01*
X2493000D02*
X2515000D01*
X2493000Y1429000D02*
X2493000Y1429000D01*
X2537000Y1383000D02*
Y1429000D01*
Y1383000D02*
X2585000Y1335000D01*
Y1320000D02*
Y1333000D01*
D194*
X2970000Y920000D02*
D03*
X2950000D02*
D03*
X3030000D02*
D03*
X2890000Y920000D02*
D03*
X2850000Y920000D02*
D03*
X2870000Y920000D02*
D03*
X2410000Y920000D02*
D03*
X2430000D02*
D03*
X2930000D02*
D03*
X2910000D02*
D03*
X1730000D02*
D03*
X1750000D02*
D03*
X1770000D02*
D03*
X1790000D02*
D03*
X1810000D02*
D03*
X1830000D02*
D03*
X1850000D02*
D03*
X2110000D02*
D03*
X2070000D02*
D03*
X2050000D02*
D03*
X2030000D02*
D03*
X2010000D02*
D03*
X1990000D02*
D03*
X1970000D02*
D03*
X1950000D02*
D03*
X1930000D02*
D03*
X1910000D02*
D03*
X1890000D02*
D03*
X1870000D02*
D03*
X2090000D02*
D03*
X2150000D02*
D03*
X2830000D02*
D03*
X2990000D02*
D03*
X3010000D02*
D03*
X2810000D02*
D03*
X2790000D02*
D03*
X2770000D02*
D03*
X2730000D02*
D03*
X2750000D02*
D03*
X2690000D02*
D03*
X2670000D02*
D03*
X2650000D02*
D03*
X2630000D02*
D03*
X2610000D02*
D03*
X2590000D02*
D03*
X2570000D02*
D03*
X2550000D02*
D03*
X2530000D02*
D03*
X2510000D02*
D03*
X2490000D02*
D03*
X2470000D02*
D03*
X2450000D02*
D03*
X2370000D02*
D03*
X2350000D02*
D03*
X2330000D02*
D03*
X2310000D02*
D03*
X2290000D02*
D03*
X2270000D02*
D03*
X2250000D02*
D03*
X2230000D02*
D03*
X2210000D02*
D03*
X2190000D02*
D03*
X2170000D02*
D03*
X2130000D02*
D03*
X1690000D02*
D03*
X1670000D02*
D03*
X1650000D02*
D03*
X1630000D02*
D03*
X290000D02*
D03*
X270000D02*
D03*
X250000D02*
D03*
X230000D02*
D03*
X210000D02*
D03*
X190000D02*
D03*
D195*
X630000Y1235000D02*
D03*
Y1375000D02*
D03*
D196*
Y1160000D02*
D03*
X430000D02*
D03*
X480000D02*
D03*
X380000D02*
D03*
Y1235000D02*
D03*
X480000D02*
D03*
X430000D02*
D03*
X630000Y1300000D02*
D03*
X430000D02*
D03*
X480000D02*
D03*
X380000D02*
D03*
Y1375000D02*
D03*
X480000D02*
D03*
X430000D02*
D03*
D197*
X2750000Y1160000D02*
D03*
Y1390000D02*
D03*
X360000Y960000D02*
D03*
Y1575000D02*
D03*
D198*
X311100Y1114300D02*
D03*
Y1091400D02*
D03*
Y1205700D02*
D03*
Y1228600D02*
D03*
X262800Y1195600D02*
D03*
X245000Y1185400D02*
D03*
X262800Y1175200D02*
D03*
X245000Y1165000D02*
D03*
X262800Y1154800D02*
D03*
X245000Y1144600D02*
D03*
X262800Y1134400D02*
D03*
X311100Y1324300D02*
D03*
Y1301400D02*
D03*
Y1415700D02*
D03*
Y1438600D02*
D03*
X262800Y1405600D02*
D03*
X245000Y1395400D02*
D03*
X262800Y1385200D02*
D03*
X245000Y1375000D02*
D03*
X262800Y1364800D02*
D03*
X245000Y1354600D02*
D03*
X262800Y1344400D02*
D03*
D199*
X253900Y1078700D02*
D03*
Y1241300D02*
D03*
Y1288700D02*
D03*
Y1451300D02*
D03*
D200*
X219600Y1096500D02*
D03*
Y1223500D02*
D03*
Y1306500D02*
D03*
Y1433500D02*
D03*
D201*
X245000Y1124200D02*
D03*
Y1334200D02*
D03*
D202*
X2685000Y1240000D02*
D03*
X2420000Y1150000D02*
D03*
X2045000Y1180000D02*
D03*
X2080000Y1175000D02*
D03*
X2415000Y1080000D02*
D03*
X2405000Y1275000D02*
D03*
X2410000Y1205000D02*
D03*
X2395000Y1140000D02*
D03*
Y1130000D02*
D03*
X2775000Y1135000D02*
D03*
X2725000Y1090000D02*
D03*
X2255000Y1110000D02*
D03*
X2680000Y1135000D02*
D03*
X2180000Y1180000D02*
D03*
X2210000D02*
D03*
X2320000Y1245000D02*
D03*
X2209000Y1250000D02*
D03*
X2243000D02*
D03*
X2102000Y1206000D02*
D03*
X2097000Y1216000D02*
D03*
X650000Y1595000D02*
D03*
X675000Y1270000D02*
D03*
X2290000Y1295000D02*
D03*
X2275000Y1290000D02*
D03*
X2290000Y1285000D02*
D03*
X2060000Y1155000D02*
D03*
X1985000D02*
D03*
X2000000Y1170000D02*
D03*
X2065000Y1160000D02*
D03*
X2060000Y1165000D02*
D03*
X2065000Y1170000D02*
D03*
X2070000Y1175000D02*
D03*
X2040000Y1210000D02*
D03*
X2315000Y1265000D02*
D03*
X2310000Y1275000D02*
D03*
X2305000Y1295000D02*
D03*
Y1245000D02*
D03*
X2405000Y1210000D02*
D03*
X2395000Y1280000D02*
D03*
X2385000Y1260000D02*
D03*
X2410000Y1085000D02*
D03*
X2360000Y1285000D02*
D03*
Y1310000D02*
D03*
X2055000Y1200000D02*
D03*
X2065000Y1185000D02*
D03*
X2055000Y1215000D02*
D03*
X2050000Y1220000D02*
D03*
X2375000Y1225000D02*
D03*
X2174000Y1250000D02*
D03*
X2180000Y1240000D02*
D03*
Y1230000D02*
D03*
X2125000Y1165000D02*
D03*
X2200000Y1250000D02*
D03*
X2260000D02*
D03*
X2175000Y1260000D02*
D03*
X2190000Y1250000D02*
D03*
X2145000Y1175000D02*
D03*
X2180000Y1220000D02*
D03*
X2190000D02*
D03*
X2140000Y1165000D02*
D03*
X2170000D02*
D03*
X2210000Y1160000D02*
D03*
X2145000D02*
D03*
X2140000Y1155000D02*
D03*
X2145000Y1150000D02*
D03*
X2210000Y1095000D02*
D03*
X2140000Y1190000D02*
D03*
X2295000Y1185000D02*
D03*
X2305000Y1160000D02*
D03*
X2265000Y1170000D02*
D03*
X2295000Y1175000D02*
D03*
X2360000Y1170000D02*
D03*
X2285000Y1125000D02*
D03*
Y1185000D02*
D03*
Y1195000D02*
D03*
X2275000Y1130000D02*
D03*
X2265000Y1125000D02*
D03*
X2275000Y1205000D02*
D03*
X2205000Y1110000D02*
D03*
X2310000Y1325000D02*
D03*
X2315000Y1335000D02*
D03*
X2190000Y1281000D02*
D03*
X2150000D02*
D03*
X2146000Y1274000D02*
D03*
X2145000Y1287000D02*
D03*
X2295000Y1270000D02*
D03*
X2285000Y1280000D02*
D03*
X2167000Y1250000D02*
D03*
X2248000Y1280000D02*
D03*
X2123000Y1222000D02*
D03*
X2103000Y1199000D02*
D03*
X2080000Y1255000D02*
D03*
Y1275000D02*
D03*
X2172000Y1365000D02*
D03*
X2142000Y1234000D02*
D03*
X2305000Y1355000D02*
D03*
X2265000Y1345000D02*
D03*
X2270000Y1353000D02*
D03*
X1975000Y1275000D02*
D03*
X1980000Y1280000D02*
D03*
X2182000Y1209000D02*
D03*
X2180000Y1130000D02*
D03*
X2170000D02*
D03*
X2205000Y1175000D02*
D03*
X2215000Y1165000D02*
D03*
X2222000Y1221000D02*
D03*
X2150000Y1205000D02*
D03*
X2140000Y1299000D02*
D03*
X2121000Y1311000D02*
D03*
X2126000Y1286000D02*
D03*
X2140000Y1308000D02*
D03*
X2180000Y1295000D02*
D03*
X2215000Y1130000D02*
D03*
X2210000Y1120000D02*
D03*
X2255000Y1305000D02*
D03*
X2180000Y1265000D02*
D03*
X2170000Y1095000D02*
D03*
X2450000Y1445000D02*
D03*
X2175000Y1125000D02*
D03*
X2125000Y1130000D02*
D03*
X2145000Y1135000D02*
D03*
X2135000D02*
D03*
X2335000Y1375000D02*
D03*
X2180000Y1095000D02*
D03*
X2250000Y1215000D02*
D03*
X2255000Y1220000D02*
D03*
X2175000Y1209000D02*
D03*
X2140000Y1145000D02*
D03*
X2020000Y1180000D02*
D03*
X2078000Y1315000D02*
D03*
X2085000Y1322000D02*
D03*
X2095000Y1370000D02*
D03*
X2085000Y1435000D02*
D03*
X2130000D02*
D03*
X2052000Y1309000D02*
D03*
X2060000Y1355000D02*
D03*
X2050000Y1330000D02*
D03*
X2045000Y1325000D02*
D03*
X2030000Y1310000D02*
D03*
X2015000Y1350000D02*
D03*
X2005000Y1370000D02*
D03*
X2135000Y1213000D02*
D03*
X2098000Y1313000D02*
D03*
X2125000Y1323000D02*
D03*
X2119000Y1319000D02*
D03*
X2150000Y1365000D02*
D03*
Y1355000D02*
D03*
X2145000Y1350000D02*
D03*
X2115000Y1180000D02*
D03*
X2100000Y1185000D02*
D03*
X2180000Y1285000D02*
D03*
X2135000Y1323000D02*
D03*
X2690000Y1445000D02*
D03*
X2335000Y1225000D02*
D03*
Y1205000D02*
D03*
X2300000D02*
D03*
Y1225000D02*
D03*
X2185000Y1365000D02*
D03*
Y1337000D02*
D03*
X2220000Y1355000D02*
D03*
X2260000Y1325000D02*
D03*
X2395000Y1385000D02*
D03*
X2215000Y1375000D02*
D03*
X2195000Y1321000D02*
D03*
X2200000Y1327000D02*
D03*
X2330000Y1395000D02*
D03*
X2320000Y1400000D02*
D03*
X2410000Y1390000D02*
D03*
X2390000Y1415000D02*
D03*
X2680000Y1245000D02*
D03*
X2670000D02*
D03*
X2395000Y1405000D02*
D03*
X2185000Y1385000D02*
D03*
X2175000Y1415000D02*
D03*
X2195000Y1385000D02*
D03*
X2185000Y1395000D02*
D03*
X2215000Y1410000D02*
D03*
Y1385000D02*
D03*
X2375000Y1420000D02*
D03*
X2445000D02*
D03*
X2420000Y1410000D02*
D03*
X2410000D02*
D03*
X2380000D02*
D03*
X2370000Y1425000D02*
D03*
X2440000D02*
D03*
X2370000Y1435000D02*
D03*
X2415000D02*
D03*
X2375000Y1430000D02*
D03*
X2400000D02*
D03*
X2120000Y1275000D02*
D03*
X2145000Y1435000D02*
D03*
X2360000Y1445000D02*
D03*
X1999000Y1274000D02*
D03*
X2085000Y1090000D02*
D03*
Y1351000D02*
D03*
X2098000Y1320000D02*
D03*
X2130000Y1188000D02*
D03*
X2120000D02*
D03*
X2110000D02*
D03*
X2115000Y1367000D02*
D03*
X2035000Y1285000D02*
D03*
X2120000Y1255000D02*
D03*
X2143000Y1265000D02*
D03*
X2100000Y1395000D02*
D03*
X2115000D02*
D03*
X2087000Y1215000D02*
D03*
X2135000Y1220000D02*
D03*
X2035000Y1245000D02*
D03*
X2070000D02*
D03*
X2063000Y1291000D02*
D03*
X2070000Y1360000D02*
D03*
X2026000Y1298000D02*
D03*
X1987000Y1316000D02*
D03*
X2008000Y1305000D02*
D03*
X2000000D02*
D03*
X1999000Y1232000D02*
D03*
X2092000Y1220000D02*
D03*
X2019000Y1277000D02*
D03*
X2015000Y1234000D02*
D03*
X2005000D02*
D03*
X2010000Y1238000D02*
D03*
X2005000Y1287000D02*
D03*
Y1280000D02*
D03*
X1990000Y1305000D02*
D03*
X1985000Y1295000D02*
D03*
X1936000Y1154000D02*
D03*
X565000Y1575000D02*
D03*
X580000Y1315000D02*
D03*
X590000D02*
D03*
X1788000Y1525000D02*
D03*
X1290000Y1295000D02*
D03*
X590000Y1050000D02*
D03*
X595000Y1055000D02*
D03*
X2241000Y1304000D02*
D03*
X585000Y1235000D02*
D03*
X1300000Y1280000D02*
D03*
X580000Y1525000D02*
D03*
X290000Y1265000D02*
D03*
X2680000Y1280000D02*
D03*
X2610000Y1310000D02*
D03*
X2635000D02*
D03*
X2535000Y1240000D02*
D03*
X2615000Y1240000D02*
D03*
X2510000Y1180000D02*
D03*
X2495000D02*
D03*
X2495000Y1240000D02*
D03*
X2510000Y1240000D02*
D03*
X2525000D02*
D03*
Y1300000D02*
D03*
X2510000D02*
D03*
X2495000D02*
D03*
X2480000D02*
D03*
Y1360000D02*
D03*
X2525000D02*
D03*
X2510000D02*
D03*
X2495000D02*
D03*
X2493000Y1429000D02*
D03*
X2515000D02*
D03*
X2537000D02*
D03*
X2618000Y1263000D02*
D03*
X2525000Y1180000D02*
D03*
X2480000Y1240000D02*
D03*
Y1180000D02*
D03*
X2209000Y1308000D02*
D03*
X2202000Y1305000D02*
D03*
X2222000Y1308000D02*
D03*
X2215000Y1304000D02*
D03*
X2265000Y1195000D02*
D03*
X2115000Y1130000D02*
D03*
X2235000Y1308000D02*
D03*
X2228000Y1304000D02*
D03*
X2241000Y1226000D02*
D03*
X2235000Y1222000D02*
D03*
X2229000Y1226000D02*
D03*
X1912000Y1154000D02*
D03*
X1915000Y1140000D02*
D03*
X1850000D02*
D03*
X1820000Y1405000D02*
D03*
X2100000Y1130000D02*
D03*
D203*
X2220000Y1110000D02*
D03*
X830000Y1560000D02*
D03*
Y1540000D02*
D03*
X815000Y1520000D02*
D03*
Y1545000D02*
D03*
X505000Y975000D02*
D03*
X475000D02*
D03*
X505000Y1550000D02*
D03*
X475000D02*
D03*
X2665000Y1055000D02*
D03*
X2565000D02*
D03*
X2590000Y1070000D02*
D03*
X2640000D02*
D03*
X2590000Y1040000D02*
D03*
X2640000D02*
D03*
X2615000Y1055000D02*
D03*
X2325000Y1365000D02*
D03*
X1960000Y1255000D02*
D03*
X1920000Y1245000D02*
D03*
Y1265000D02*
D03*
X1925000Y1255000D02*
D03*
X1965000Y1265000D02*
D03*
X1970000Y1255000D02*
D03*
X1965000Y1245000D02*
D03*
X1930000D02*
D03*
Y1265000D02*
D03*
X1870000D02*
D03*
X1860000Y1255000D02*
D03*
X1880000D02*
D03*
X1870000Y1245000D02*
D03*
X1860000Y1235000D02*
D03*
Y1215000D02*
D03*
X1870000Y1225000D02*
D03*
X1880000Y1235000D02*
D03*
Y1215000D02*
D03*
X1900000D02*
D03*
X1890000Y1225000D02*
D03*
X520000Y1540000D02*
D03*
X525000Y1025000D02*
D03*
Y1005000D02*
D03*
Y985000D02*
D03*
X505000Y1035000D02*
D03*
Y1015000D02*
D03*
Y995000D02*
D03*
X455000Y985000D02*
D03*
Y1005000D02*
D03*
Y1025000D02*
D03*
X475000Y995000D02*
D03*
Y1015000D02*
D03*
Y1035000D02*
D03*
Y1530000D02*
D03*
Y1510000D02*
D03*
X455000Y1540000D02*
D03*
Y1520000D02*
D03*
Y1500000D02*
D03*
X595000Y1350000D02*
D03*
X635000Y1325000D02*
D03*
Y1350000D02*
D03*
X625000Y1340000D02*
D03*
X615000Y1325000D02*
D03*
X595000D02*
D03*
X615000Y1350000D02*
D03*
X605000Y1335000D02*
D03*
X2585000Y1320000D02*
D03*
Y1335000D02*
D03*
X2570000Y1320000D02*
D03*
X2555000D02*
D03*
X2658000Y1413000D02*
D03*
Y1388000D02*
D03*
Y1363000D02*
D03*
X2633000D02*
D03*
X2608000D02*
D03*
X2583000D02*
D03*
Y1388000D02*
D03*
X2608000D02*
D03*
X2633000D02*
D03*
X2608000Y1413000D02*
D03*
X2633000D02*
D03*
X2583000D02*
D03*
X2213000Y1201000D02*
D03*
X2715000Y1475000D02*
D03*
X2765000Y1474000D02*
D03*
X2740000Y1455000D02*
D03*
X2690000D02*
D03*
X2740000Y1495000D02*
D03*
X2690000D02*
D03*
X2665000Y1475000D02*
D03*
X2615000Y1475000D02*
D03*
X2490000Y1455000D02*
D03*
X2590000Y1455000D02*
D03*
X2540000D02*
D03*
X2640000D02*
D03*
X2590000Y1495000D02*
D03*
X2640000D02*
D03*
X2540000D02*
D03*
X2515000Y1476000D02*
D03*
X2565000Y1475000D02*
D03*
X2490000Y1495000D02*
D03*
X505000Y1510000D02*
D03*
X525000Y1500000D02*
D03*
Y1520000D02*
D03*
X505000Y1530000D02*
D03*
X2420000Y1054000D02*
D03*
X2515000Y1055000D02*
D03*
X2540000Y1040000D02*
D03*
X2440000D02*
D03*
X2490000D02*
D03*
X2440000Y1070000D02*
D03*
X2540000D02*
D03*
X2490000D02*
D03*
X2465000Y1055000D02*
D03*
X2390000Y1565000D02*
D03*
X2370000D02*
D03*
X2345000D02*
D03*
X2105000D02*
D03*
X2090000D02*
D03*
X2125000D02*
D03*
X2145000D02*
D03*
X2170000D02*
D03*
X2220000D02*
D03*
X2245000D02*
D03*
X2270000D02*
D03*
X2295000D02*
D03*
X2320000D02*
D03*
X800000Y1560000D02*
D03*
X770000D02*
D03*
X800000Y1335000D02*
D03*
Y1310000D02*
D03*
X785000Y1345000D02*
D03*
Y1320000D02*
D03*
X770000Y1310000D02*
D03*
Y1335000D02*
D03*
X800000Y1385000D02*
D03*
Y1360000D02*
D03*
X785000Y1395000D02*
D03*
Y1370000D02*
D03*
X770000Y1360000D02*
D03*
Y1385000D02*
D03*
X785000Y1420000D02*
D03*
X800000Y1410000D02*
D03*
Y1435000D02*
D03*
X770000Y1410000D02*
D03*
X785000Y1445000D02*
D03*
X770000Y1435000D02*
D03*
Y1460000D02*
D03*
X785000Y1470000D02*
D03*
X800000Y1460000D02*
D03*
Y1485000D02*
D03*
X785000Y1495000D02*
D03*
X800000Y1510000D02*
D03*
X785000Y1520000D02*
D03*
X770000Y1485000D02*
D03*
Y1510000D02*
D03*
X800000Y1535000D02*
D03*
X785000Y1545000D02*
D03*
X770000Y1535000D02*
D03*
X2195000Y1565000D02*
D03*
X1640000Y1085000D02*
D03*
X1620000D02*
D03*
X1640000Y1445000D02*
D03*
X1620000D02*
D03*
X2015000Y1390000D02*
D03*
X2040000D02*
D03*
X2065000D02*
D03*
X1965000D02*
D03*
X1990000D02*
D03*
X1940000D02*
D03*
X2015000Y1495000D02*
D03*
X2040000D02*
D03*
X2065000D02*
D03*
X1965000D02*
D03*
X1990000D02*
D03*
X1940000D02*
D03*
X2170000Y1055000D02*
D03*
X2220000D02*
D03*
X2345000Y1070000D02*
D03*
X2245000Y1070000D02*
D03*
X2295000D02*
D03*
X2195000D02*
D03*
X2145000D02*
D03*
X2245000Y1040000D02*
D03*
X2195000D02*
D03*
X2145000D02*
D03*
X2295000D02*
D03*
X2320000Y1054000D02*
D03*
X2270000Y1055000D02*
D03*
X2370000Y1054000D02*
D03*
X2395000Y1070000D02*
D03*
Y1040000D02*
D03*
X2345000D02*
D03*
X2195000Y1495000D02*
D03*
X2145000D02*
D03*
Y1455000D02*
D03*
X2170000Y1476000D02*
D03*
X2270000Y1475000D02*
D03*
X2220000Y1476000D02*
D03*
X2245000Y1495000D02*
D03*
X2345000D02*
D03*
X2295000D02*
D03*
X2345000Y1455000D02*
D03*
X2245000D02*
D03*
X2295000D02*
D03*
X2195000Y1455000D02*
D03*
X2320000Y1475000D02*
D03*
X830000Y960000D02*
D03*
Y990000D02*
D03*
Y1005000D02*
D03*
Y975000D02*
D03*
X1870000Y1415000D02*
D03*
X1860000Y1410000D02*
D03*
X1880000D02*
D03*
X1900000D02*
D03*
X1890000Y1415000D02*
D03*
Y1400000D02*
D03*
X1870000D02*
D03*
Y1385000D02*
D03*
X1860000Y1380000D02*
D03*
X1880000D02*
D03*
X1900000D02*
D03*
X1890000Y1385000D02*
D03*
X1630000Y1255000D02*
D03*
Y1275000D02*
D03*
X1860000Y1395000D02*
D03*
X1880000D02*
D03*
X1900000D02*
D03*
X1927000Y1019000D02*
D03*
X1952000D02*
D03*
X1977000D02*
D03*
X2002000D02*
D03*
X2027000D02*
D03*
X2052000D02*
D03*
X2065000Y1135000D02*
D03*
X2040000D02*
D03*
X2015000D02*
D03*
X1990000D02*
D03*
X1965000D02*
D03*
X1940000D02*
D03*
D204*
X1973500Y1246500D02*
D03*
D205*
X490000Y1087500D02*
D03*
D206*
X1640000Y935000D02*
D03*
D207*
X2410000Y925000D02*
D03*
X2430000D02*
D03*
X2690000D02*
D03*
X2670000D02*
D03*
X2650000D02*
D03*
X2630000D02*
D03*
X2610000D02*
D03*
X2590000D02*
D03*
X2570000D02*
D03*
X2550000D02*
D03*
X2530000D02*
D03*
X2510000D02*
D03*
X2490000D02*
D03*
X2470000D02*
D03*
X2450000D02*
D03*
D208*
X1955000Y1142500D02*
D03*
D209*
X1940000Y1215000D02*
D03*
D210*
X1948500Y1322500D02*
D03*
D211*
X1160000Y1441500D02*
D03*
D212*
X2095000Y1555000D02*
D03*
D213*
X1789500Y1557000D02*
D03*
D214*
X437500Y1352500D02*
D03*
D215*
X455000Y1305000D02*
D03*
X405000D02*
D03*
D216*
X430000Y1270000D02*
D03*
D217*
X737500Y1327500D02*
D03*
D218*
X697500Y1337500D02*
D03*
D219*
X537500Y1295000D02*
D03*
D220*
X455000Y1475000D02*
D03*
D221*
X382500Y1460000D02*
D03*
D222*
X390000Y1270000D02*
D03*
D223*
X387500Y1252500D02*
D03*
D224*
X470000Y1215000D02*
D03*
D225*
X427500Y1200000D02*
D03*
D226*
X385000Y1180000D02*
D03*
D227*
X570000Y987500D02*
D03*
D228*
X2620000Y1477500D02*
D03*
D229*
X1958500Y1252500D02*
D03*
D230*
X2052500Y920000D02*
D03*
D231*
X890000Y927500D02*
D03*
D232*
X2550000Y920000D02*
D03*
D233*
X1285000Y1555000D02*
D03*
D234*
X1715000Y1302500D02*
D03*
D235*
X1807500Y1462500D02*
D03*
D236*
X2550000Y1002500D02*
D03*
D237*
X1995000Y1395000D02*
D03*
D238*
Y1130000D02*
D03*
D239*
X2205000Y1475000D02*
D03*
D240*
X2105000Y1030000D02*
D03*
D241*
X1630000Y967500D02*
D03*
D242*
X2312500Y1005000D02*
D03*
D243*
X825000Y1100000D02*
D03*
D244*
X1875000Y1062500D02*
D03*
D245*
X1864500Y1307500D02*
D03*
D246*
X1997500Y1062500D02*
D03*
D247*
X1995000Y1442500D02*
D03*
D248*
X1327500Y1125000D02*
D03*
M02*
