G04*
G04 #@! TF.GenerationSoftware,Altium Limited,Altium Designer,18.1.7 (191)*
G04*
G04 Layer_Color=255*
%FSLAX44Y44*%
%MOMM*%
G71*
G01*
G75*
%ADD151O,3.0000X2.0000*%
%ADD152R,4.0000X4.0000*%
%ADD153R,2.0000X1.8000*%
%ADD154C,1.3980*%
%ADD155C,2.3550*%
%ADD156C,3.2500*%
%ADD157R,1.3980X1.3980*%
%ADD160R,0.6000X0.2000*%
%ADD161R,0.2000X0.6000*%
D151*
X2240000Y317500D02*
D03*
Y182500D02*
D03*
X420000D02*
D03*
Y317500D02*
D03*
D152*
X2180000Y286000D02*
D03*
Y214000D02*
D03*
X480000D02*
D03*
Y286000D02*
D03*
D153*
X2315200Y465600D02*
D03*
X2239000D02*
D03*
X2315200Y389400D02*
D03*
Y414800D02*
D03*
Y440200D02*
D03*
X2239000D02*
D03*
Y414800D02*
D03*
Y389400D02*
D03*
D154*
X459148Y642067D02*
D03*
Y619167D02*
D03*
Y733467D02*
D03*
Y756367D02*
D03*
X410848Y723367D02*
D03*
X393048Y713167D02*
D03*
X410848Y702967D02*
D03*
X393048Y692767D02*
D03*
X410848Y682567D02*
D03*
X393048Y672367D02*
D03*
X410848Y662167D02*
D03*
X459148Y437067D02*
D03*
Y414168D02*
D03*
Y528467D02*
D03*
Y551367D02*
D03*
X410848Y518368D02*
D03*
X393048Y508167D02*
D03*
X410848Y497967D02*
D03*
X393048Y487767D02*
D03*
X410848Y477567D02*
D03*
X393048Y467368D02*
D03*
X410848Y457168D02*
D03*
D155*
X401948Y606467D02*
D03*
Y769067D02*
D03*
Y401468D02*
D03*
Y564067D02*
D03*
D156*
X367648Y624267D02*
D03*
Y751267D02*
D03*
Y419268D02*
D03*
Y546268D02*
D03*
D157*
X393048Y651967D02*
D03*
Y446968D02*
D03*
D160*
X2195000Y635000D02*
D03*
Y639000D02*
D03*
D161*
X1730000Y542000D02*
D03*
X1734000D02*
D03*
M02*
