G04*
G04 #@! TF.GenerationSoftware,Altium Limited,Altium Designer,18.1.7 (191)*
G04*
G04 Layer_Color=32896*
%FSLAX44Y44*%
%MOMM*%
G71*
G01*
G75*
G36*
X2040475Y801968D02*
X2051607Y800796D01*
X2062154Y799625D01*
X2071529Y797867D01*
X2079732Y796109D01*
X2086177Y794351D01*
X2088521Y793765D01*
X2090279D01*
X2090865Y793179D01*
X2091451D01*
X2101411Y789664D01*
X2110200Y785562D01*
X2118989Y782047D01*
X2126606Y777945D01*
X2133051Y775016D01*
X2137739Y772086D01*
X2140668Y770328D01*
X2141840Y769742D01*
X2158246Y758610D01*
X2165863Y753336D01*
X2172894Y748649D01*
X2178754Y743961D01*
X2182855Y741032D01*
X2185785Y738688D01*
X2186957Y738102D01*
X2203363Y725212D01*
X2219183Y712907D01*
X2233831Y700603D01*
X2246721Y690056D01*
X2252581Y684783D01*
X2257854Y680681D01*
X2262541Y676580D01*
X2266643Y673064D01*
X2269572Y670135D01*
X2271916Y668377D01*
X2273088Y667205D01*
X2273674Y666619D01*
X2288908Y652557D01*
X2303556Y638495D01*
X2317032Y625018D01*
X2329337Y612714D01*
X2334610Y607440D01*
X2339298Y602753D01*
X2343399Y598066D01*
X2346915Y594550D01*
X2349844Y591620D01*
X2352188Y589277D01*
X2353360Y588105D01*
X2353946Y587519D01*
X2359805Y581074D01*
X2365078Y575215D01*
X2367422Y573457D01*
X2369180Y571699D01*
X2369766Y570527D01*
X2370352Y569941D01*
X2375625Y562910D01*
X2380313Y557051D01*
X2382070Y554707D01*
X2383828Y552949D01*
X2384414Y551777D01*
X2385000Y551191D01*
X2383242Y548848D01*
X2382656Y547676D01*
X2381484Y545918D01*
X2380898Y545332D01*
X2372110Y535371D01*
X2363321Y525411D01*
X2355118Y516622D01*
X2347501Y509005D01*
X2341055Y502560D01*
X2335782Y497286D01*
X2332852Y494356D01*
X2331681Y493185D01*
X2321720Y483810D01*
X2312345Y475021D01*
X2302970Y466818D01*
X2295353Y459201D01*
X2288322Y453342D01*
X2283049Y448654D01*
X2279533Y445725D01*
X2278361Y444553D01*
X2270158Y437522D01*
X2262541Y431662D01*
X2259612Y429319D01*
X2257268Y427561D01*
X2256096Y426389D01*
X2255510Y425803D01*
X2246721Y419358D01*
X2239104Y414085D01*
X2236174Y412327D01*
X2233831Y410569D01*
X2232073Y409983D01*
X2231487Y409397D01*
X2226800Y406468D01*
X2222698Y404710D01*
X2218597Y403538D01*
X2215667Y402952D01*
X2212737D01*
X2210394D01*
X2209222Y403538D01*
X2208636D01*
X2204534Y404710D01*
X2200433Y406468D01*
X2193988Y411155D01*
X2191058Y413499D01*
X2189300Y415842D01*
X2188129Y417014D01*
X2187543Y417600D01*
X2183441Y422287D01*
X2180511Y427561D01*
X2178168Y432248D01*
X2176410Y436936D01*
X2175238Y440451D01*
X2174066Y443381D01*
X2173480Y445725D01*
Y446311D01*
X2172309Y458029D01*
X2171723Y463888D01*
X2172309Y468576D01*
Y476193D01*
X2172894Y478536D01*
Y479122D01*
X2174066Y484396D01*
X2175824Y488497D01*
X2176996Y491427D01*
X2177582Y492013D01*
Y492599D01*
X2181097Y496700D01*
X2185199Y499630D01*
X2188129Y500802D01*
X2188714Y501388D01*
X2189300D01*
X2192816Y502560D01*
X2195746Y503145D01*
X2198089Y503731D01*
X2199261D01*
X2202777Y503145D01*
X2206292Y501974D01*
X2208636Y500802D01*
X2209222Y500216D01*
X2212151Y497872D01*
X2213323Y495528D01*
X2213909Y493185D01*
Y485568D01*
X2213323Y483224D01*
Y482638D01*
X2212151Y479708D01*
X2211566Y477365D01*
X2210980Y475607D01*
Y475021D01*
X2210394Y472091D01*
X2209808Y469162D01*
Y466818D01*
X2210394Y462131D01*
X2212151Y458615D01*
X2213909Y456857D01*
X2214495Y456271D01*
X2218011Y455099D01*
X2222112D01*
X2225042D01*
X2225628Y455685D01*
X2226214D01*
X2230315Y458029D01*
X2233831Y460373D01*
X2240276Y466818D01*
X2242620Y470334D01*
X2243792Y472677D01*
X2244963Y474435D01*
X2245549Y475021D01*
X2248479Y480294D01*
X2250237Y485568D01*
X2251409Y490255D01*
X2252581Y493771D01*
Y501974D01*
X2251409Y507247D01*
X2250237Y511934D01*
X2248479Y516036D01*
X2246135Y519551D01*
X2244377Y522481D01*
X2243206Y524825D01*
X2242034Y525997D01*
X2241448Y526582D01*
X2237346Y530098D01*
X2233245Y532442D01*
X2229143Y534785D01*
X2225628Y536543D01*
X2222112Y537715D01*
X2219183Y538301D01*
X2217425Y538887D01*
X2216839D01*
X2209222Y539473D01*
X2202191D01*
X2195160D01*
X2189300Y538887D01*
X2184613Y538301D01*
X2181097Y537129D01*
X2178168Y536543D01*
X2177582D01*
X2170551Y534200D01*
X2164106Y531856D01*
X2158246Y528926D01*
X2152387Y525997D01*
X2148285Y523653D01*
X2144770Y521309D01*
X2142426Y520137D01*
X2141840Y519551D01*
X2138911Y517208D01*
X2137153Y514864D01*
X2135981Y513106D01*
X2135981Y512520D01*
X2136567Y509591D01*
X2137739Y506661D01*
X2138911Y504317D01*
X2139496Y503731D01*
X2143598Y496700D01*
X2147114Y490255D01*
X2149457Y483810D01*
X2151215Y477951D01*
X2151801Y473263D01*
X2152387Y469748D01*
X2152973Y466818D01*
Y459201D01*
X2151801Y451584D01*
X2150629Y445139D01*
X2149457Y439279D01*
X2147699Y434006D01*
X2146528Y429905D01*
X2145942Y427561D01*
X2145356Y426389D01*
X2141840Y419944D01*
X2138325Y414670D01*
X2135395Y411155D01*
X2134223Y410569D01*
Y409983D01*
X2131294Y407639D01*
X2128364Y405882D01*
X2122505Y403538D01*
X2119575D01*
X2117231Y402952D01*
X2116059D01*
X2115473D01*
X2111958D01*
X2108442Y404124D01*
X2102583Y405882D01*
X2099068Y408225D01*
X2098482Y408811D01*
X2097896Y409397D01*
X2092622Y414670D01*
X2088521Y419358D01*
X2086177Y423459D01*
X2085005Y424045D01*
Y424631D01*
X2084419Y425217D01*
Y425803D01*
X2083833Y426389D01*
Y426975D01*
X2079732Y438107D01*
X2078560Y443381D01*
X2077388Y448068D01*
X2076216Y451584D01*
Y454514D01*
X2075630Y456857D01*
Y457443D01*
X2075045Y463302D01*
Y473849D01*
X2075630Y479122D01*
X2076216Y483224D01*
X2076802Y486153D01*
X2077388Y488497D01*
Y489083D01*
X2077974Y492599D01*
Y499630D01*
X2077388Y501974D01*
Y502560D01*
X2076216Y503731D01*
X2075045Y504903D01*
X2070943Y507247D01*
X2066842Y509005D01*
X2065670Y509591D01*
X2065084D01*
X2056881Y511934D01*
X2048678Y513692D01*
X2041061Y515450D01*
X2034615Y516036D01*
X2028756Y516622D01*
X2024069Y517208D01*
X2021725D01*
X2020553D01*
X2004147Y516036D01*
X1996530Y515450D01*
X1990085Y514278D01*
X1984226Y513106D01*
X1979538Y512520D01*
X1977195Y511348D01*
X1976023D01*
X1964890Y507833D01*
X1960203Y505489D01*
X1956101Y503145D01*
X1952586Y501388D01*
X1950242Y499630D01*
X1948484Y499044D01*
X1947898Y498458D01*
X1943797Y494942D01*
X1939695Y490841D01*
X1933836Y483224D01*
X1931492Y479708D01*
X1929735Y476779D01*
X1929149Y475021D01*
X1928563Y474435D01*
X1926219Y468576D01*
X1924461Y463302D01*
X1922704Y451584D01*
X1922117Y441037D01*
X1922704Y431076D01*
X1924461Y422287D01*
X1926219Y415842D01*
X1926805Y413499D01*
X1927391Y411741D01*
X1927977Y410569D01*
Y409983D01*
X1933250Y397678D01*
X1940281Y387718D01*
X1947312Y378929D01*
X1954344Y372484D01*
X1960789Y367210D01*
X1966062Y363695D01*
X1970164Y361937D01*
X1970750Y361351D01*
X1971335D01*
X1976023Y359593D01*
X1980124Y359007D01*
X1987155Y358421D01*
X1990085Y359007D01*
X1992429D01*
X1993601Y359593D01*
X1994187D01*
X1997702Y360765D01*
X2001218Y363109D01*
X2006491Y367210D01*
X2009421Y371312D01*
X2010592Y372484D01*
Y373070D01*
X2012350Y377171D01*
X2012936Y380687D01*
X2013522Y387718D01*
Y392405D01*
X2012936Y393577D01*
Y394163D01*
X2011178Y397678D01*
X2009421Y401194D01*
X2004147Y407053D01*
X2001804Y408811D01*
X2000046Y410569D01*
X1998874Y411155D01*
X1998288Y411741D01*
X1994772Y414085D01*
X1991257Y415842D01*
X1988913Y417600D01*
X1988327Y418186D01*
X1984812Y420530D01*
X1981882Y422287D01*
X1980124Y424045D01*
X1979538Y424631D01*
X1974851Y428733D01*
X1971335Y432834D01*
X1969578Y436350D01*
X1968992Y436936D01*
Y437522D01*
X1967820Y440451D01*
X1967234Y443381D01*
Y448654D01*
X1967820Y450998D01*
Y452756D01*
X1968406Y453927D01*
Y454514D01*
X1971335Y460959D01*
X1974851Y466232D01*
X1977781Y469162D01*
X1978367Y470334D01*
X1978952D01*
X1984812Y473849D01*
X1991257Y476193D01*
X1993601Y476779D01*
X1995944D01*
X1997116Y477365D01*
X1997702D01*
X2004733D01*
X2010592Y476779D01*
X2012936Y476193D01*
X2014694Y475607D01*
X2015866Y475021D01*
X2016452D01*
X2022897Y472091D01*
X2028170Y469162D01*
X2031686Y466232D01*
X2032272Y465060D01*
X2032858D01*
X2041061Y457443D01*
X2047506Y449826D01*
X2052779Y442209D01*
X2056881Y435178D01*
X2060396Y428733D01*
X2062154Y424045D01*
X2063326Y421116D01*
X2063912Y419944D01*
X2066256Y410569D01*
X2068013Y400608D01*
X2068599Y391819D01*
Y383030D01*
X2068013Y375999D01*
X2067428Y370140D01*
Y368382D01*
X2066842Y366624D01*
Y365452D01*
X2063326Y354320D01*
X2059225Y344945D01*
X2053951Y336742D01*
X2048678Y330297D01*
X2043405Y325024D01*
X2039303Y320922D01*
X2036373Y318578D01*
X2035202Y317992D01*
X2028756Y314477D01*
X2022311Y312133D01*
X2016452Y309789D01*
X2011178Y308618D01*
X2006491Y308032D01*
X2002975Y307446D01*
X2000632D01*
X2000046D01*
X1993015Y308032D01*
X1986570Y308618D01*
X1984226Y309203D01*
X1982468Y309789D01*
X1981296Y310375D01*
X1980710D01*
X1973093Y312719D01*
X1966062Y315063D01*
X1959617Y317992D01*
X1953758Y320336D01*
X1949070Y322680D01*
X1945555Y325024D01*
X1943211Y326195D01*
X1942625Y326781D01*
X1930907Y335570D01*
X1925633Y340258D01*
X1920946Y344359D01*
X1917430Y347875D01*
X1914500Y350804D01*
X1912743Y353148D01*
X1912157Y353734D01*
X1905712Y361937D01*
X1899852Y370726D01*
X1895165Y378929D01*
X1891649Y386546D01*
X1888720Y392991D01*
X1886962Y397678D01*
X1885790Y401194D01*
X1885204Y401780D01*
Y402366D01*
X1882860Y412327D01*
X1881103Y421702D01*
X1880517Y431076D01*
X1879931Y439279D01*
Y456857D01*
X1881103Y465646D01*
X1882274Y473263D01*
X1884032Y480880D01*
X1885790Y487325D01*
X1886962Y492599D01*
X1888720Y496700D01*
X1889306Y499044D01*
X1889892Y500216D01*
X1893407Y507833D01*
X1897509Y514864D01*
X1902196Y521309D01*
X1906297Y526582D01*
X1910399Y531270D01*
X1913329Y534785D01*
X1915672Y537129D01*
X1916258Y537715D01*
X1918602Y540059D01*
X1920946Y542402D01*
X1922703Y543574D01*
X1923289Y544160D01*
X1925633Y546504D01*
X1927391Y548262D01*
X1928563Y549434D01*
X1929149Y550020D01*
X1928563Y552363D01*
Y553535D01*
X1927977Y554707D01*
X1927391Y555293D01*
X1924461Y557637D01*
X1923875Y558223D01*
X1923289Y558809D01*
X1920360Y561738D01*
X1919774Y562324D01*
X1919188Y562910D01*
X1912743Y569355D01*
X1906883Y576386D01*
X1901610Y582831D01*
X1897509Y589277D01*
X1893993Y594550D01*
X1891649Y598652D01*
X1890477Y600995D01*
X1889892Y602167D01*
X1886376Y610370D01*
X1884032Y618573D01*
X1881689Y626776D01*
X1880517Y633807D01*
X1879931Y640252D01*
X1879345Y645526D01*
Y661346D01*
X1880517Y672478D01*
X1882274Y682439D01*
X1884032Y691228D01*
X1885790Y698259D01*
X1886962Y704118D01*
X1888134Y707634D01*
X1888720Y708220D01*
Y708806D01*
X1892821Y718181D01*
X1897509Y727555D01*
X1903368Y735759D01*
X1908641Y743376D01*
X1913329Y749235D01*
X1917430Y753922D01*
X1920360Y756852D01*
X1921532Y758024D01*
X1928563Y764469D01*
X1935594Y770328D01*
X1942625Y775016D01*
X1949656Y779703D01*
X1963132Y787320D01*
X1975437Y792594D01*
X1985984Y796109D01*
X1990671Y797867D01*
X1994187Y798453D01*
X1997702Y799625D01*
X2000046D01*
X2001218Y800210D01*
X2001804D01*
X2011764Y801382D01*
X2016452Y801968D01*
X2020553D01*
X2024069Y802554D01*
X2026998D01*
X2028756D01*
X2029342D01*
X2040475Y801968D01*
D02*
G37*
%LPC*%
G36*
X2043990Y760953D02*
X2037545D01*
X2032858Y760368D01*
X2029928D01*
X2028756D01*
X2019967Y759196D01*
X2011178Y757438D01*
X2003561Y755094D01*
X1996530Y752750D01*
X1990671Y750407D01*
X1985984Y748063D01*
X1983640Y746891D01*
X1982468Y746305D01*
X1974851Y741618D01*
X1967820Y736930D01*
X1961375Y732829D01*
X1956101Y728141D01*
X1951414Y724626D01*
X1948484Y721696D01*
X1946140Y719939D01*
X1945555Y719353D01*
X1939695Y712907D01*
X1935594Y705876D01*
X1931492Y699431D01*
X1928563Y692986D01*
X1926805Y687127D01*
X1925633Y683025D01*
X1924461Y680095D01*
Y678924D01*
X1922117Y666619D01*
X1921532Y655487D01*
X1922117Y645526D01*
X1923289Y637323D01*
X1925047Y630292D01*
X1926805Y625018D01*
X1927977Y621503D01*
X1928563Y620331D01*
X1933250Y611542D01*
X1939109Y603339D01*
X1945555Y595722D01*
X1951414Y589863D01*
X1957273Y584589D01*
X1961961Y581074D01*
X1964890Y578730D01*
X1965476Y578144D01*
X1966062D01*
X1970750Y575800D01*
X1975437Y574043D01*
X1979538Y573457D01*
X1983054Y572871D01*
X1986570D01*
X1988913D01*
X1990671Y573457D01*
X1991257D01*
X1995358Y574628D01*
X1998874Y576386D01*
X2004733Y581074D01*
X2006491Y583418D01*
X2008249Y585761D01*
X2008835Y586933D01*
X2009421Y587519D01*
X2010592Y591035D01*
X2011764Y594550D01*
X2012350Y600409D01*
Y603339D01*
X2011764Y605097D01*
Y606855D01*
X2010592Y610370D01*
X2008835Y613300D01*
X2005319Y618573D01*
X2001804Y622089D01*
X2001218Y622675D01*
X2000632Y623260D01*
X1996530Y625604D01*
X1993015Y627948D01*
X1990671Y629706D01*
X1989499Y630292D01*
X1985398Y633221D01*
X1982468Y635565D01*
X1980124Y637323D01*
X1978952Y637909D01*
X1974265Y642010D01*
X1970750Y646112D01*
X1968406Y649041D01*
X1967820Y649627D01*
Y650213D01*
X1966648Y653143D01*
X1966062Y655487D01*
X1965476Y660760D01*
X1966062Y663104D01*
Y664861D01*
X1966648Y666033D01*
Y666619D01*
X1969578Y673650D01*
X1972507Y678924D01*
X1975437Y681853D01*
X1976023Y683025D01*
X1976609D01*
X1982468Y687127D01*
X1987741Y689470D01*
X1990671Y690056D01*
X1992429Y690642D01*
X1993601Y691228D01*
X1994187D01*
X2000632Y691814D01*
X2006491D01*
X2008249Y691228D01*
X2010007D01*
X2011178Y690642D01*
X2011764D01*
X2017624Y688298D01*
X2022897Y685955D01*
X2026413Y683611D01*
X2026998Y683025D01*
X2027584D01*
X2036373Y675994D01*
X2043404Y667791D01*
X2049264Y659588D01*
X2054537Y651971D01*
X2058053Y644354D01*
X2060396Y638495D01*
X2061568Y636151D01*
X2062154Y634393D01*
X2062740Y633807D01*
Y633221D01*
X2064498Y626776D01*
X2065670Y620917D01*
X2066256Y609198D01*
X2065084Y598652D01*
X2062740Y589277D01*
X2060396Y581074D01*
X2058053Y575215D01*
X2056881Y572871D01*
X2055709Y571113D01*
X2055123Y570527D01*
Y569941D01*
X2052779Y566426D01*
X2052193Y565254D01*
Y564668D01*
X2050436Y561152D01*
X2049264Y559980D01*
Y559394D01*
X2058639Y555293D01*
X2062740Y553535D01*
X2066256Y551777D01*
X2069185Y550020D01*
X2071529Y549434D01*
X2072701Y548262D01*
X2073287D01*
X2081490Y544160D01*
X2089107Y540645D01*
X2092036Y539473D01*
X2094380Y538301D01*
X2095552Y537715D01*
X2096138D01*
X2099068Y536543D01*
X2100239D01*
X2100825D01*
X2102583D01*
X2103755D01*
X2104341Y537129D01*
X2104927D01*
X2113130Y541231D01*
X2120161Y544160D01*
X2122505Y545918D01*
X2124848Y546504D01*
X2126020Y547676D01*
X2126606D01*
X2134809Y551777D01*
X2142426Y555879D01*
X2145356Y557051D01*
X2147699Y558223D01*
X2148871Y559394D01*
X2149457D01*
X2146528Y561738D01*
X2143598Y563496D01*
X2141840Y564668D01*
X2141254Y565254D01*
X2138325Y567011D01*
X2135395Y568769D01*
X2133637Y569941D01*
X2133051Y570527D01*
X2121919Y579316D01*
X2117231Y583418D01*
X2113130Y587519D01*
X2110200Y591035D01*
X2107856Y593964D01*
X2106099Y595722D01*
X2105513Y596308D01*
X2101411Y602167D01*
X2097896Y608026D01*
X2094966Y613886D01*
X2092622Y619159D01*
X2090865Y623847D01*
X2089693Y627362D01*
X2089107Y629706D01*
Y630878D01*
X2087935Y639666D01*
X2087349Y647283D01*
Y650213D01*
X2087935Y652557D01*
Y654315D01*
X2088521Y658416D01*
X2089693Y662518D01*
X2093208Y669549D01*
X2094966Y672478D01*
X2096724Y674822D01*
X2097310Y675994D01*
X2097896Y676580D01*
X2104341Y682439D01*
X2110200Y686541D01*
X2113130Y687712D01*
X2114888Y688884D01*
X2116059Y689470D01*
X2116645D01*
X2124262Y691228D01*
X2131293Y691814D01*
X2134223D01*
X2136567Y691228D01*
X2138325D01*
X2138911D01*
X2143598Y690056D01*
X2147114Y688298D01*
X2150043Y685955D01*
X2152973Y683611D01*
X2154731Y681853D01*
X2155903Y680096D01*
X2157074Y678924D01*
Y678338D01*
X2158832Y674236D01*
X2160004Y670135D01*
X2160590Y666619D01*
Y660174D01*
X2160004Y657830D01*
X2159418Y656072D01*
Y655487D01*
X2158832Y652557D01*
X2158246Y651385D01*
X2157074Y649041D01*
X2156488Y647869D01*
X2154145Y642010D01*
X2152973Y635565D01*
X2152387Y629706D01*
X2152973Y623847D01*
X2154145Y619159D01*
X2155316Y615644D01*
X2155903Y612714D01*
X2156488Y612128D01*
X2160004Y605097D01*
X2164106Y599238D01*
X2168207Y594550D01*
X2171723Y590449D01*
X2175238Y588105D01*
X2178168Y585761D01*
X2179926Y585175D01*
X2180511Y584589D01*
X2187543Y581660D01*
X2193402Y579902D01*
X2195746Y579316D01*
X2197503Y578730D01*
X2198675Y578144D01*
X2199261D01*
X2206292Y576972D01*
X2212151D01*
X2215081D01*
X2216839D01*
X2218011D01*
X2218597D01*
X2225628Y578144D01*
X2231487Y580488D01*
X2236760Y583418D01*
X2240862Y586347D01*
X2244377Y589863D01*
X2246721Y592206D01*
X2247893Y594550D01*
X2248479Y595136D01*
X2251409Y601581D01*
X2253166Y607440D01*
X2253752Y613300D01*
X2253166Y618573D01*
X2252581Y623260D01*
X2251994Y627362D01*
X2250823Y629706D01*
Y630292D01*
X2248479Y634393D01*
X2246135Y638495D01*
X2244377Y640838D01*
X2243792Y642010D01*
X2240862Y646112D01*
X2238518Y649627D01*
X2236760Y651971D01*
X2236174Y653143D01*
X2224456Y667205D01*
X2212151Y680096D01*
X2199847Y691228D01*
X2189300Y701189D01*
X2179340Y709392D01*
X2175238Y712321D01*
X2171723Y715251D01*
X2169379Y717009D01*
X2167035Y718767D01*
X2165863Y719353D01*
X2165277Y719939D01*
X2150629Y728727D01*
X2135395Y736345D01*
X2120747Y742790D01*
X2106685Y748063D01*
X2100825Y750407D01*
X2094966Y752165D01*
X2089693Y753336D01*
X2085591Y754508D01*
X2082076Y755680D01*
X2079732Y756266D01*
X2077974Y756852D01*
X2077388D01*
X2068013Y758610D01*
X2059225Y759781D01*
X2051022Y760368D01*
X2043990Y760953D01*
D02*
G37*
G36*
X2293009Y598066D02*
X2291838Y592206D01*
X2290080Y586347D01*
X2288908Y581660D01*
X2287150Y578144D01*
X2285978Y574629D01*
X2284807Y572285D01*
X2283635Y571113D01*
Y570527D01*
X2278361Y562910D01*
X2272502Y556465D01*
X2270158Y554121D01*
X2267815Y552363D01*
X2266643Y551777D01*
X2266057Y551191D01*
X2271916Y542403D01*
X2276604Y534785D01*
X2278361Y531856D01*
X2280119Y529512D01*
X2280705Y528340D01*
X2281291Y527754D01*
X2286564Y518965D01*
X2291252Y511348D01*
X2293009Y508419D01*
X2294767Y506075D01*
X2295353Y504317D01*
X2295939Y503731D01*
X2302970Y510762D01*
X2308829Y517208D01*
X2311759Y519551D01*
X2313517Y521895D01*
X2314689Y523067D01*
X2315275Y523653D01*
X2322892Y531270D01*
X2329923Y537715D01*
X2332267Y540059D01*
X2334610Y542403D01*
X2335782Y543574D01*
X2336368Y544160D01*
X2338126Y546504D01*
Y550020D01*
X2335782Y553535D01*
X2335196Y554707D01*
X2334610Y555293D01*
X2327579Y562324D01*
X2321134Y568769D01*
X2318790Y571699D01*
X2316447Y573457D01*
X2315275Y574629D01*
X2314689Y575215D01*
X2307072Y583418D01*
X2300041Y590449D01*
X2297111Y593378D01*
X2294767Y595722D01*
X2293595Y597480D01*
X2293009Y598066D01*
D02*
G37*
G36*
X2107856Y484982D02*
X2104927Y481466D01*
X2103169Y477365D01*
X2101997Y473263D01*
X2100825Y469162D01*
X2100239Y466232D01*
Y460959D01*
X2100825Y455685D01*
X2101411Y450998D01*
X2103169Y447482D01*
X2104341Y443967D01*
X2106099Y441623D01*
X2107856Y439865D01*
X2108442Y438694D01*
X2109028Y438107D01*
X2110786Y436350D01*
X2111958Y435764D01*
X2114888Y434592D01*
X2116645Y435178D01*
X2117231D01*
X2120161Y436936D01*
X2121919Y439279D01*
X2123091Y441037D01*
X2123676Y442209D01*
X2124262Y445725D01*
X2124848Y449826D01*
X2123676Y456857D01*
X2123091Y459787D01*
X2122505Y462131D01*
X2121919Y463888D01*
Y464474D01*
X2117817Y473263D01*
X2115473Y476779D01*
X2113130Y479708D01*
X2110786Y482052D01*
X2109614Y483810D01*
X2108442Y484396D01*
X2107856Y484982D01*
D02*
G37*
%LPD*%
M02*
