G04*
G04 #@! TF.GenerationSoftware,Altium Limited,Altium Designer,18.1.7 (191)*
G04*
G04 Layer_Color=65535*
%FSLAX44Y44*%
%MOMM*%
G71*
G01*
G75*
%ADD10C,0.2000*%
%ADD11C,0.2500*%
%ADD12C,0.6000*%
%ADD13C,0.2032*%
%ADD14C,0.1500*%
%ADD15C,0.2540*%
%ADD16C,0.1270*%
%ADD17C,0.3000*%
%ADD18C,0.1800*%
G36*
X1214891Y872250D02*
X1215282Y872094D01*
X1215828Y871703D01*
X1215907D01*
X1215985Y871625D01*
X1216219Y871312D01*
X1216297Y871156D01*
X1216531Y870844D01*
X1216453Y870688D01*
X1216297Y870375D01*
Y870297D01*
X1216219Y870219D01*
X1216141Y870063D01*
X1215985Y869985D01*
X1215907D01*
X1215828Y869907D01*
X1215438Y869672D01*
X1214813Y869360D01*
X1214188Y868969D01*
X1214110D01*
X1214032Y868891D01*
X1213642Y868657D01*
X1213095Y868344D01*
X1212470Y868032D01*
X1211845D01*
X1211689Y868110D01*
X1211533Y868266D01*
X1211455Y868423D01*
Y868501D01*
X1211376Y868813D01*
X1211455Y869360D01*
X1211533Y869672D01*
X1211689Y870063D01*
Y870141D01*
X1211767Y870297D01*
X1212079Y870766D01*
X1212548Y871312D01*
X1213095Y871859D01*
X1213173Y871937D01*
X1213485Y872094D01*
X1213954Y872250D01*
X1214423Y872328D01*
X1214579D01*
X1214891Y872250D01*
D02*
G37*
G36*
X1197864Y875843D02*
X1198099D01*
X1198411Y875764D01*
X1198724D01*
X1199583Y875686D01*
X1200598Y875530D01*
X1200676D01*
X1200832Y875452D01*
X1201379Y875296D01*
X1202004Y874905D01*
X1202551Y874280D01*
Y874202D01*
X1202629Y874124D01*
X1202863Y873656D01*
X1203019Y872953D01*
Y872562D01*
X1202941Y872094D01*
Y872015D01*
X1202863Y871781D01*
X1202707Y871312D01*
X1202473Y870766D01*
X1202160Y870141D01*
X1201691Y869438D01*
X1201145Y868657D01*
X1200442Y867798D01*
X1200364Y867720D01*
X1200051Y867485D01*
X1199661Y867095D01*
X1199036Y866704D01*
X1198255Y866236D01*
X1197396Y865923D01*
X1196380Y865689D01*
X1195287Y865611D01*
X1195131D01*
X1194584Y865689D01*
X1193959Y865845D01*
X1193334Y866158D01*
X1193178Y866236D01*
X1192866Y866548D01*
X1192475Y867017D01*
X1192006Y867642D01*
X1191928Y867720D01*
Y868032D01*
X1191850Y868423D01*
X1192006Y868891D01*
X1192085Y868969D01*
X1192241Y869204D01*
X1192553Y869516D01*
X1192944Y869672D01*
X1193022D01*
X1193256Y869750D01*
X1194115D01*
X1194350Y869672D01*
X1194506Y869360D01*
X1194584Y869204D01*
X1194662Y868891D01*
Y868735D01*
X1194740Y868423D01*
X1194896Y868110D01*
X1195209Y867954D01*
X1196302D01*
X1196458Y868032D01*
X1196693Y868110D01*
X1197005Y868266D01*
X1197396Y868423D01*
X1197786Y868735D01*
X1198177Y869126D01*
X1198567Y869594D01*
X1198645Y869672D01*
X1198724Y869828D01*
X1198880Y870063D01*
X1199114Y870453D01*
X1199426Y871312D01*
X1199504Y871781D01*
Y872250D01*
Y872328D01*
Y872406D01*
X1199426Y872718D01*
X1199270Y873109D01*
X1198958Y873499D01*
X1198880Y873577D01*
X1198645Y873734D01*
X1198255Y873812D01*
X1197786Y873890D01*
X1197318D01*
X1196927Y873812D01*
X1196380Y873734D01*
X1196302D01*
X1195990Y873656D01*
X1195521Y873577D01*
X1195052Y873421D01*
X1194974D01*
X1194662Y873265D01*
X1194271Y873109D01*
X1193725Y872796D01*
X1193022Y872484D01*
X1192319Y872094D01*
X1190913Y871156D01*
X1190835Y871078D01*
X1190601Y870922D01*
X1190210Y870610D01*
X1189741Y870219D01*
X1189195Y869750D01*
X1188648Y869204D01*
X1187398Y867954D01*
X1187320Y867876D01*
X1187086Y867563D01*
X1186695Y867173D01*
X1186149Y866626D01*
X1185602Y865923D01*
X1184977Y865142D01*
X1183727Y863424D01*
X1183649Y863346D01*
X1183493Y863033D01*
X1183181Y862487D01*
X1182790Y861862D01*
X1182321Y861159D01*
X1181853Y860300D01*
X1180837Y858425D01*
Y858347D01*
X1180759Y858191D01*
X1180603Y857956D01*
X1180447Y857566D01*
X1180135Y856707D01*
X1179822Y855692D01*
Y855613D01*
X1179744Y855457D01*
Y855145D01*
X1179666Y854832D01*
X1179588Y853817D01*
Y852723D01*
Y852645D01*
Y852489D01*
X1179666Y852177D01*
X1179744Y851786D01*
X1180056Y850927D01*
X1180525Y849990D01*
X1180603Y849912D01*
X1180681Y849834D01*
X1181150Y849443D01*
X1181853Y848974D01*
X1182868Y848506D01*
X1182946D01*
X1183259Y848428D01*
X1183649Y848350D01*
X1184274Y848271D01*
X1184899D01*
X1185680Y848350D01*
X1186539Y848506D01*
X1187476Y848818D01*
X1187554Y848896D01*
X1187867Y848974D01*
X1188335Y849209D01*
X1188882Y849521D01*
X1189507Y849912D01*
X1190132Y850458D01*
X1190679Y851005D01*
X1191147Y851708D01*
Y851786D01*
X1191225Y851942D01*
X1191460Y852411D01*
Y852489D01*
X1191538Y852645D01*
X1191616Y853114D01*
Y853192D01*
Y853270D01*
Y853504D01*
X1191538Y853739D01*
Y853817D01*
X1191460Y853895D01*
X1191303Y854051D01*
X1191147Y854129D01*
X1190991Y854208D01*
X1190835D01*
X1190601Y854129D01*
X1190522D01*
X1190366Y854051D01*
X1190210Y853973D01*
X1190054Y853817D01*
Y853739D01*
X1189898Y853661D01*
X1189741Y853192D01*
Y853114D01*
X1189663Y852958D01*
X1189429Y852489D01*
X1189351Y852333D01*
X1189195Y852020D01*
X1188882Y851630D01*
X1188492Y851318D01*
X1188414Y851239D01*
X1188101Y851161D01*
X1187633D01*
X1187008Y851239D01*
X1186852D01*
X1186539Y851396D01*
X1186149Y851630D01*
X1185836Y852020D01*
X1185758Y852099D01*
X1185680Y852411D01*
X1185602Y852880D01*
Y853583D01*
Y853661D01*
X1185680Y853817D01*
Y854051D01*
X1185758Y854364D01*
X1186070Y855067D01*
X1186617Y855692D01*
X1186695D01*
X1186773Y855848D01*
X1187242Y856082D01*
X1187867Y856472D01*
X1188726Y856863D01*
X1188804D01*
X1188960Y856941D01*
X1189195Y857019D01*
X1189507D01*
X1190288Y857176D01*
X1191382D01*
X1191850Y856941D01*
X1192553Y856629D01*
X1192866Y856316D01*
X1193256Y856004D01*
X1193334D01*
X1193412Y855848D01*
X1193803Y855457D01*
X1194115Y854832D01*
X1194271Y854442D01*
X1194350Y854051D01*
Y853973D01*
Y853895D01*
Y853661D01*
Y853348D01*
Y852645D01*
X1194115Y851786D01*
Y851708D01*
X1193959Y851396D01*
X1193803Y851005D01*
X1193490Y850536D01*
X1193178Y849990D01*
X1192787Y849521D01*
X1192241Y848974D01*
X1191694Y848506D01*
X1191616Y848428D01*
X1191382Y848350D01*
X1190991Y848115D01*
X1190522Y847881D01*
X1189976Y847569D01*
X1189351Y847256D01*
X1187867Y846709D01*
X1187711Y846631D01*
X1187320Y846553D01*
X1186695Y846397D01*
X1185992Y846319D01*
X1185836D01*
X1185368Y846241D01*
X1184743Y846163D01*
X1184040Y846085D01*
X1183415D01*
X1183024Y846163D01*
X1182556Y846241D01*
X1181931Y846319D01*
X1180603Y846631D01*
X1179197Y847100D01*
X1177713Y847803D01*
X1176385Y848740D01*
X1175839Y849287D01*
X1175292Y849990D01*
Y850068D01*
X1175214Y850146D01*
X1175058Y850380D01*
X1174979Y850693D01*
X1174823Y851083D01*
X1174667Y851474D01*
X1174433Y852645D01*
X1174355Y854051D01*
X1174433Y855692D01*
X1174589Y856551D01*
X1174745Y857566D01*
X1175136Y858503D01*
X1175526Y859597D01*
Y859675D01*
X1175683Y859909D01*
X1175839Y860221D01*
X1176073Y860612D01*
X1176385Y861159D01*
X1176698Y861784D01*
X1177635Y863268D01*
X1178807Y864908D01*
X1180135Y866548D01*
X1181697Y868266D01*
X1183493Y869828D01*
X1183571Y869907D01*
X1183727Y869985D01*
X1184040Y870219D01*
X1184430Y870453D01*
X1184899Y870844D01*
X1185446Y871156D01*
X1186149Y871625D01*
X1186852Y872094D01*
X1188570Y873031D01*
X1190601Y873968D01*
X1192787Y874905D01*
X1195209Y875686D01*
X1195287D01*
X1195443Y875764D01*
X1195677D01*
X1195990Y875843D01*
X1196849Y875921D01*
X1197864Y875843D01*
D02*
G37*
G36*
X1262145Y871703D02*
X1262691Y871625D01*
X1262848Y871547D01*
X1263082Y871391D01*
X1263394Y871156D01*
X1263707Y870766D01*
Y870688D01*
X1263785Y870610D01*
Y870141D01*
Y870063D01*
Y869907D01*
X1263707Y869750D01*
X1263629Y869672D01*
X1263551D01*
X1263473Y869516D01*
X1263004Y869204D01*
X1262379Y868813D01*
X1261598Y868266D01*
X1261520D01*
X1261442Y868188D01*
X1261208Y868032D01*
X1260895Y867954D01*
X1260114Y867642D01*
X1259177Y867329D01*
Y867407D01*
Y867563D01*
X1259099Y867876D01*
Y868266D01*
X1259177Y869126D01*
X1259333Y869594D01*
X1259489Y870063D01*
Y870141D01*
X1259567Y870297D01*
X1259958Y870766D01*
X1260505Y871312D01*
X1260895Y871547D01*
X1261364Y871703D01*
X1261442D01*
X1261754Y871781D01*
X1262145Y871703D01*
D02*
G37*
G36*
X1116635Y876389D02*
X1117494Y876233D01*
X1118510Y876077D01*
X1119603Y875843D01*
X1120697Y875452D01*
X1121790Y874983D01*
X1121946Y874905D01*
X1122259Y874749D01*
X1122805Y874437D01*
X1123508Y873968D01*
X1124289Y873421D01*
X1125148Y872796D01*
X1126086Y872015D01*
X1127023Y871078D01*
X1127101D01*
X1127179Y870922D01*
X1127570Y870531D01*
X1127648D01*
X1127726Y870375D01*
X1128038Y869985D01*
X1128117D01*
X1128273Y869907D01*
X1128429Y869828D01*
X1128741Y869672D01*
X1128820Y869750D01*
X1128976Y869985D01*
X1129210Y870297D01*
X1129522Y870610D01*
X1129601Y870688D01*
X1129757Y870922D01*
X1130069Y871234D01*
X1130382Y871547D01*
X1130460Y871625D01*
X1130772Y871937D01*
X1131241Y872328D01*
X1131787Y872796D01*
X1132569Y873421D01*
X1133350Y873968D01*
X1134287Y874515D01*
X1135302Y874983D01*
X1135458Y875061D01*
X1135771Y875140D01*
X1136318Y875374D01*
X1137099Y875608D01*
X1137958Y875843D01*
X1138895Y876077D01*
X1139988Y876233D01*
X1141160Y876311D01*
X1143503D01*
X1144597Y876233D01*
X1145846Y876155D01*
X1147096Y875921D01*
X1148424Y875608D01*
X1148502D01*
X1148580Y875530D01*
X1149049Y875452D01*
X1149673Y875140D01*
X1150533Y874827D01*
X1151548Y874280D01*
X1152642Y873734D01*
X1153735Y872953D01*
X1154828Y872094D01*
X1154907Y872015D01*
X1155219Y871781D01*
X1155610Y871391D01*
X1156078Y870844D01*
X1156703Y870297D01*
X1157328Y869594D01*
X1158499Y867954D01*
X1158577Y867876D01*
X1158734Y867563D01*
X1159046Y867095D01*
X1159359Y866470D01*
X1159671Y865767D01*
X1160061Y864908D01*
X1160374Y863971D01*
X1160686Y862955D01*
Y862877D01*
X1160764Y862799D01*
Y862565D01*
X1160843Y862330D01*
X1160921Y861549D01*
X1160999Y860612D01*
X1160921Y859441D01*
X1160686Y858191D01*
X1160296Y856941D01*
X1159671Y855613D01*
X1159593Y855457D01*
X1159280Y855067D01*
X1158734Y854520D01*
X1158031Y853817D01*
X1157172Y853114D01*
X1156078Y852489D01*
X1154828Y851864D01*
X1153344Y851474D01*
X1153188D01*
X1152954Y851396D01*
X1152720D01*
X1151939Y851318D01*
X1151001Y851239D01*
X1149830D01*
X1148658Y851318D01*
X1147330Y851474D01*
X1146081Y851786D01*
X1145925Y851864D01*
X1145534Y852020D01*
X1144909Y852333D01*
X1144050Y852723D01*
X1143113Y853270D01*
X1142097Y853973D01*
X1141082Y854910D01*
X1140067Y855926D01*
Y856004D01*
X1139910Y856082D01*
X1139520Y856629D01*
X1139129Y857332D01*
X1138739Y858191D01*
Y858269D01*
X1138661Y858425D01*
X1138583Y858659D01*
X1138504Y858972D01*
X1138426Y859753D01*
Y860690D01*
Y860768D01*
X1138504Y860925D01*
Y861237D01*
X1138583Y861549D01*
X1138895Y862330D01*
X1139364Y863111D01*
Y863189D01*
X1139520Y863268D01*
X1139910Y863658D01*
X1140613Y864127D01*
X1141472Y864517D01*
X1141551D01*
X1141707Y864595D01*
X1141941D01*
X1142253Y864673D01*
X1142956D01*
X1143659Y864517D01*
X1143737D01*
X1143816Y864439D01*
X1144284Y864205D01*
X1144831Y863736D01*
X1145456Y863111D01*
X1145534Y863033D01*
X1145768Y862721D01*
X1146003Y862330D01*
X1146315Y861862D01*
X1146393Y861784D01*
X1146627Y861471D01*
X1146862Y861003D01*
X1147174Y860534D01*
X1147252Y860456D01*
X1147330Y860300D01*
X1147799Y859753D01*
X1148580Y859128D01*
X1149049Y858894D01*
X1149517Y858659D01*
X1149595D01*
X1149752Y858581D01*
X1150064D01*
X1150377Y858503D01*
X1151314Y858581D01*
X1151782Y858738D01*
X1152329Y858972D01*
X1152407D01*
X1152563Y859128D01*
X1153032Y859519D01*
X1153579Y860143D01*
X1153891Y860612D01*
X1154047Y861081D01*
Y861159D01*
X1154126Y861315D01*
Y861627D01*
X1154204Y862018D01*
X1154126Y863033D01*
X1154047Y863580D01*
X1153813Y864127D01*
Y864205D01*
X1153735Y864283D01*
X1153501Y864830D01*
X1153032Y865533D01*
X1152407Y866392D01*
X1151470Y867329D01*
X1150377Y868266D01*
X1149049Y869204D01*
X1147409Y869907D01*
X1147330D01*
X1147174Y869985D01*
X1146940Y870063D01*
X1146627Y870141D01*
X1145768Y870375D01*
X1144597Y870610D01*
X1143269Y870688D01*
X1141863Y870610D01*
X1140301Y870375D01*
X1139598Y870141D01*
X1138817Y869828D01*
X1138739D01*
X1138504Y869672D01*
X1138114Y869438D01*
X1137645Y869204D01*
X1137177Y868813D01*
X1136630Y868344D01*
X1136083Y867876D01*
X1135615Y867251D01*
X1135536Y867173D01*
X1135380Y866939D01*
X1135224Y866626D01*
X1134912Y866158D01*
X1134599Y865611D01*
X1134365Y864986D01*
X1133818Y863580D01*
Y863424D01*
X1133740Y863111D01*
X1133584Y862487D01*
X1133506Y861705D01*
X1133350Y860846D01*
X1133193Y859831D01*
X1133115Y857644D01*
Y857488D01*
Y857097D01*
X1133193Y856551D01*
X1133271Y855770D01*
X1133350Y854832D01*
X1133506Y853817D01*
X1133740Y852723D01*
X1134053Y851630D01*
Y851552D01*
X1134131Y851396D01*
X1134365Y850849D01*
X1134677Y850302D01*
X1134834Y850068D01*
X1134990Y849912D01*
X1135927D01*
X1136396Y849990D01*
X1136864Y850068D01*
X1136942D01*
X1137255Y850146D01*
X1137645Y850224D01*
X1138192Y850302D01*
X1138817D01*
X1139520Y850380D01*
X1141082Y850302D01*
X1141160D01*
X1141394Y850224D01*
X1141863Y850146D01*
X1142332Y850068D01*
X1142956Y849912D01*
X1143659Y849677D01*
X1145065Y849131D01*
X1145143D01*
X1145221Y849053D01*
X1145300D01*
X1145456Y848974D01*
X1145534D01*
X1145612Y848818D01*
X1146159Y848506D01*
X1146784Y847959D01*
X1147487Y847334D01*
X1147565Y847256D01*
X1147643Y847178D01*
X1147799Y846944D01*
X1147955Y846709D01*
X1148189Y845928D01*
X1148346Y845460D01*
Y844913D01*
Y844835D01*
Y844679D01*
X1148268Y844366D01*
Y844054D01*
X1147955Y843195D01*
X1147721Y842804D01*
X1147409Y842414D01*
X1147330D01*
X1147252Y842257D01*
X1146784Y841867D01*
X1146003Y841398D01*
X1145143Y840930D01*
X1145065Y840852D01*
X1144675Y840773D01*
X1144206Y840617D01*
X1143503Y840383D01*
X1142722Y840227D01*
X1141785Y840070D01*
X1140848Y839914D01*
X1139832D01*
X1139442Y839992D01*
X1138973Y840070D01*
X1138270Y840149D01*
X1137489Y840383D01*
X1136630Y840695D01*
X1135771Y841164D01*
X1134834Y841711D01*
X1134755Y841789D01*
X1134443Y841945D01*
X1134053Y842179D01*
X1133662D01*
X1133428Y842023D01*
X1133115Y841789D01*
X1132803Y841398D01*
X1132725Y841320D01*
X1132569Y841008D01*
X1132256Y840539D01*
X1131944Y839992D01*
X1131553Y839289D01*
X1131163Y838508D01*
X1130850Y837649D01*
X1130538Y836712D01*
Y836634D01*
X1130460Y836243D01*
X1130303Y835775D01*
X1130225Y835150D01*
X1130147Y834291D01*
Y833431D01*
Y832416D01*
X1130225Y831401D01*
Y831323D01*
X1130303Y831088D01*
X1130382Y830776D01*
X1130538Y830307D01*
X1130772Y829761D01*
X1131085Y829292D01*
X1131397Y828745D01*
X1131866Y828198D01*
X1131944Y828120D01*
X1132100Y827964D01*
X1132412Y827730D01*
X1132803Y827496D01*
X1133271Y827261D01*
X1133818Y826949D01*
X1134365Y826793D01*
X1135068Y826636D01*
X1135693D01*
X1136161Y826714D01*
X1136708Y826793D01*
X1137333Y826949D01*
X1138036Y827183D01*
X1138739Y827574D01*
X1138817Y827652D01*
X1139051Y827808D01*
X1139364Y828042D01*
X1139832Y828355D01*
X1140691Y829214D01*
X1141004Y829682D01*
X1141316Y830229D01*
Y830307D01*
X1141394Y830385D01*
Y830776D01*
Y831245D01*
X1141238Y831791D01*
X1141160Y831869D01*
X1140926Y832104D01*
X1140457Y832338D01*
X1139832Y832416D01*
X1139754D01*
X1139520Y832338D01*
X1139129Y832260D01*
X1138739Y832182D01*
X1138661D01*
X1138426Y832104D01*
X1138114Y832026D01*
X1137723Y831947D01*
X1137645D01*
X1137333Y831869D01*
X1136864Y831791D01*
X1136318D01*
X1136005Y831869D01*
X1135693Y832026D01*
X1135302Y832416D01*
X1135224Y832494D01*
X1135068Y832807D01*
X1134912Y833275D01*
X1134834Y833744D01*
Y833900D01*
X1134912Y834213D01*
X1134990Y834603D01*
X1135146Y835150D01*
Y835228D01*
X1135224Y835306D01*
X1135458Y835697D01*
X1135849Y836243D01*
X1136396Y836634D01*
X1136474D01*
X1136552Y836712D01*
X1136942Y836868D01*
X1137489Y837103D01*
X1138192Y837259D01*
X1138270D01*
X1138583Y837337D01*
X1139598D01*
X1140223Y837415D01*
X1141004Y837337D01*
X1142566Y837181D01*
X1142644D01*
X1142878Y837103D01*
X1143269Y836946D01*
X1143816Y836790D01*
X1144362Y836556D01*
X1145065Y836243D01*
X1145690Y835853D01*
X1146393Y835306D01*
X1146471Y835228D01*
X1146627Y835072D01*
X1146940Y834837D01*
X1147252Y834525D01*
X1147877Y833666D01*
X1148111Y833119D01*
X1148268Y832572D01*
Y832494D01*
X1148346Y832338D01*
Y832026D01*
Y831635D01*
X1148268Y831167D01*
X1148111Y830620D01*
X1147877Y830073D01*
X1147487Y829448D01*
X1147409Y829370D01*
X1147330Y829136D01*
X1147096Y828823D01*
X1146862Y828433D01*
X1146081Y827417D01*
X1145221Y826246D01*
X1145143Y826168D01*
X1144987Y826012D01*
X1144753Y825699D01*
X1144441Y825309D01*
X1143659Y824371D01*
X1142800Y823278D01*
Y823200D01*
X1142644Y823122D01*
X1142253Y822653D01*
X1141629Y821950D01*
X1140848Y821013D01*
X1139832Y819919D01*
X1138739Y818748D01*
X1137567Y817498D01*
X1136318Y816170D01*
X1136161Y816014D01*
X1135771Y815546D01*
X1135068Y814921D01*
X1134209Y814062D01*
X1133193Y813046D01*
X1132022Y811953D01*
X1130694Y810781D01*
X1129366Y809610D01*
X1129288Y809531D01*
X1129054Y809297D01*
X1128898Y809219D01*
X1128585Y809063D01*
X1128507Y809141D01*
X1128351Y809219D01*
X1128117Y809453D01*
X1127804Y809688D01*
X1127023Y810312D01*
X1126086Y811015D01*
X1126008Y811094D01*
X1125852Y811172D01*
X1125617Y811406D01*
X1125305Y811640D01*
X1124602Y812343D01*
X1123743Y813124D01*
X1123665Y813202D01*
X1123508Y813359D01*
X1123196Y813671D01*
X1122805Y814062D01*
X1122337Y814530D01*
X1121712Y815077D01*
X1121087Y815702D01*
X1120384Y816405D01*
X1118744Y818045D01*
X1116947Y819919D01*
X1115073Y821872D01*
X1113198Y823903D01*
X1113120Y823981D01*
X1112964Y824137D01*
X1112730Y824449D01*
X1112339Y824840D01*
X1111871Y825387D01*
X1111324Y826012D01*
X1110777Y826636D01*
X1110074Y827417D01*
X1108590Y829136D01*
X1107028Y831088D01*
X1105310Y833275D01*
X1103592Y835462D01*
X1103513Y835619D01*
X1103201Y836009D01*
X1102811Y836556D01*
X1102186Y837337D01*
X1101561Y838274D01*
X1100858Y839289D01*
X1099374Y841476D01*
X1099296Y841633D01*
X1099062Y842023D01*
X1098671Y842648D01*
X1098280Y843507D01*
X1097734Y844522D01*
X1097265Y845616D01*
X1096718Y846866D01*
X1096250Y848193D01*
Y848271D01*
X1096172Y848350D01*
X1096094Y848584D01*
X1096015Y848896D01*
X1095859Y849755D01*
X1095625Y850771D01*
X1095312Y852020D01*
X1095156Y853426D01*
X1095000Y854910D01*
X1094922Y856394D01*
Y856472D01*
Y856707D01*
Y857097D01*
X1095000Y857566D01*
Y858191D01*
X1095078Y858816D01*
X1095234Y860143D01*
Y860221D01*
X1095312Y860378D01*
X1095390Y860690D01*
X1095469Y861081D01*
X1095625Y861627D01*
X1095781Y862174D01*
X1096328Y863580D01*
X1097031Y865220D01*
X1098046Y867017D01*
X1098671Y867954D01*
X1099296Y868891D01*
X1100077Y869828D01*
X1100936Y870766D01*
X1101092Y870922D01*
X1101483Y871312D01*
X1102029Y871859D01*
X1102889Y872484D01*
X1103826Y873187D01*
X1104997Y873968D01*
X1106169Y874593D01*
X1107497Y875140D01*
X1107575D01*
X1107653Y875218D01*
X1108122Y875374D01*
X1108903Y875530D01*
X1109840Y875843D01*
X1111012Y876077D01*
X1112339Y876233D01*
X1113823Y876389D01*
X1115385Y876467D01*
X1116010D01*
X1116635Y876389D01*
D02*
G37*
G36*
X1231918Y866079D02*
X1232152Y865923D01*
X1232231D01*
X1232309Y865767D01*
X1232387Y865533D01*
X1232465Y865220D01*
Y865142D01*
Y864986D01*
Y864439D01*
Y864361D01*
X1232309Y864127D01*
X1232152Y863658D01*
X1231918Y863189D01*
X1231684Y862565D01*
X1231371Y861862D01*
X1230668Y860378D01*
X1230590Y860300D01*
X1230512Y860065D01*
X1230356Y859675D01*
X1230122Y859128D01*
X1229809Y858581D01*
X1229497Y857878D01*
X1228794Y856394D01*
Y856316D01*
X1228716Y856160D01*
X1228560Y855926D01*
X1228403Y855535D01*
X1228013Y854676D01*
X1227622Y853661D01*
Y853583D01*
X1227544Y853426D01*
X1227388Y853192D01*
X1227310Y852802D01*
X1226919Y852020D01*
X1226529Y851005D01*
Y850927D01*
X1226451Y850771D01*
X1226373Y850224D01*
Y850146D01*
Y849990D01*
X1226294Y849599D01*
Y849443D01*
Y849131D01*
X1226451Y848740D01*
X1226763Y848428D01*
X1226841Y848350D01*
X1227076Y848271D01*
X1227466Y848193D01*
X1227935Y848271D01*
X1228013Y848350D01*
X1228091D01*
X1228169Y848428D01*
X1228247Y848506D01*
X1228560Y848662D01*
X1228950Y848974D01*
X1229419Y849365D01*
X1230044Y849755D01*
X1230747Y850302D01*
X1232231Y851396D01*
X1232309Y851474D01*
X1232543Y851708D01*
X1232933Y852020D01*
X1233402Y852411D01*
X1233949Y852958D01*
X1234574Y853583D01*
X1235745Y854988D01*
X1235823Y855067D01*
X1235980Y855379D01*
X1236136Y855770D01*
X1236214Y856160D01*
Y856238D01*
Y856551D01*
X1236136Y857019D01*
X1236058Y857488D01*
Y857566D01*
X1235980Y857878D01*
X1235901Y858269D01*
X1235823Y858816D01*
Y859441D01*
Y860143D01*
Y860846D01*
X1235980Y861549D01*
Y861627D01*
X1236058Y861862D01*
X1236214Y862252D01*
X1236448Y862721D01*
X1236761Y863268D01*
X1237229Y863814D01*
X1237776Y864439D01*
X1238401Y864986D01*
X1238479Y865064D01*
X1238791Y865298D01*
X1239182Y865533D01*
X1239650Y865767D01*
X1239807Y865845D01*
X1240119Y865923D01*
X1240588D01*
X1241134Y865767D01*
X1241213D01*
X1241291Y865689D01*
X1241603Y865455D01*
X1241994Y865064D01*
X1242306Y864595D01*
Y864439D01*
X1242384Y864127D01*
X1242462Y863580D01*
Y862955D01*
Y862799D01*
Y862409D01*
X1242384Y861862D01*
X1242306Y861237D01*
Y861081D01*
X1242228Y860690D01*
X1242072Y860221D01*
X1241916Y859597D01*
Y859441D01*
X1241759Y859050D01*
X1241603Y858581D01*
X1241369Y857956D01*
X1241291Y857800D01*
X1241213Y857410D01*
X1240978Y856863D01*
X1240744Y856238D01*
X1240822D01*
X1240900Y856082D01*
X1241369Y855848D01*
X1241994Y855692D01*
X1242384D01*
X1242775Y855770D01*
X1242853D01*
X1242931Y855848D01*
X1243400Y855926D01*
X1244102D01*
X1244883Y855770D01*
X1244805Y855692D01*
X1244727Y855535D01*
X1244259Y855067D01*
X1243634Y854520D01*
X1242775Y853973D01*
X1242697D01*
X1242540Y853895D01*
X1242306Y853817D01*
X1241994Y853739D01*
X1241213Y853661D01*
X1240744D01*
X1240197Y853739D01*
X1240041D01*
X1239729Y853817D01*
X1239260Y853739D01*
X1238791Y853661D01*
X1238713Y853583D01*
X1238479Y853504D01*
X1238167Y853270D01*
X1237776Y852880D01*
Y852802D01*
X1237620Y852723D01*
X1237229Y852255D01*
X1236683Y851630D01*
X1236058Y850927D01*
X1235980Y850849D01*
X1235901Y850771D01*
X1235511Y850302D01*
X1234886Y849755D01*
X1234183Y849209D01*
X1234105Y849131D01*
X1233871Y848896D01*
X1233402Y848584D01*
X1232933Y848193D01*
X1232231Y847803D01*
X1231528Y847412D01*
X1230668Y847022D01*
X1229809Y846709D01*
X1229731D01*
X1229419Y846631D01*
X1228950Y846475D01*
X1228325Y846397D01*
X1227544Y846319D01*
X1226685D01*
X1225748Y846397D01*
X1224732Y846553D01*
X1224654D01*
X1224498Y846631D01*
X1223951Y846787D01*
X1223326Y847100D01*
X1223092Y847334D01*
X1222858Y847569D01*
X1222780Y847725D01*
X1222545Y848115D01*
X1222311Y848818D01*
X1222155Y849755D01*
Y849834D01*
Y849912D01*
X1222077Y850458D01*
X1222155Y851161D01*
X1222233Y851942D01*
Y852020D01*
X1222311Y852099D01*
X1222467Y852645D01*
X1222702Y853270D01*
X1223014Y854051D01*
Y854129D01*
X1223092Y854286D01*
X1223248Y854598D01*
X1223405Y854910D01*
X1223873Y855770D01*
X1224342Y856785D01*
Y856863D01*
X1224420Y857019D01*
X1224576Y857254D01*
X1224732Y857644D01*
X1225201Y858503D01*
X1225670Y859519D01*
X1225748Y859597D01*
X1225826Y859753D01*
X1226060Y860221D01*
X1226138Y860300D01*
X1226216Y860456D01*
X1226373Y860768D01*
X1226529Y861159D01*
X1226060D01*
X1225592Y861081D01*
X1225045D01*
X1224732Y861003D01*
X1224342D01*
X1223951Y860925D01*
Y861003D01*
Y861081D01*
Y861315D01*
Y861393D01*
Y861471D01*
X1224029Y861549D01*
X1224264Y861705D01*
X1224576Y861940D01*
X1224967Y862174D01*
X1226060Y862955D01*
X1227232Y863736D01*
X1227310Y863814D01*
X1227544Y863971D01*
X1227857Y864205D01*
X1228325Y864439D01*
X1229341Y865220D01*
X1230590Y866001D01*
X1230668D01*
X1230825Y866079D01*
X1231059Y866158D01*
X1231684D01*
X1231918Y866079D01*
D02*
G37*
G36*
X1215204Y866392D02*
X1215126Y866158D01*
X1214969Y865767D01*
X1214735Y865298D01*
X1214110Y864205D01*
X1213485Y862955D01*
Y862877D01*
X1213329Y862643D01*
X1213251Y862330D01*
X1213017Y861940D01*
X1212548Y860846D01*
X1211923Y859675D01*
Y859597D01*
X1211767Y859441D01*
X1211689Y859128D01*
X1211455Y858816D01*
X1210986Y857878D01*
X1210439Y856863D01*
Y856785D01*
X1210283Y856629D01*
X1210127Y856316D01*
X1209971Y856004D01*
X1209424Y855067D01*
X1208877Y853973D01*
X1208799Y853895D01*
X1208721Y853661D01*
X1208487Y853270D01*
X1208330Y852802D01*
X1208252Y852723D01*
X1208174Y852489D01*
X1207940Y852099D01*
X1207784Y851630D01*
Y851552D01*
X1207706Y851474D01*
X1207549Y851005D01*
X1207393Y850380D01*
X1207315Y849755D01*
Y849677D01*
X1207393Y849365D01*
X1207549Y848974D01*
X1207862Y848662D01*
X1207940D01*
X1208018Y848584D01*
X1208409Y848506D01*
X1208877Y848428D01*
X1209190Y848506D01*
X1209424Y848584D01*
X1209502Y848662D01*
X1209814Y848818D01*
X1210205Y849053D01*
X1210674Y849365D01*
X1210752D01*
X1210830Y849521D01*
X1211298Y849912D01*
X1211923Y850458D01*
X1212704Y851083D01*
X1212782Y851161D01*
X1212860Y851239D01*
X1213329Y851630D01*
X1213954Y852255D01*
X1214657Y852880D01*
X1214735Y852958D01*
X1214891Y853114D01*
X1215438Y853583D01*
X1215516Y853661D01*
X1215672Y853817D01*
X1216219Y854286D01*
X1216297Y854208D01*
X1216531Y853973D01*
X1216688Y853661D01*
X1216766Y853348D01*
Y853270D01*
X1216688Y853114D01*
X1216453Y852645D01*
X1216375Y852567D01*
X1216219Y852333D01*
X1215985Y851942D01*
X1215594Y851552D01*
X1214657Y850458D01*
X1213485Y849287D01*
X1213407Y849209D01*
X1213251Y849053D01*
X1212939Y848740D01*
X1212470Y848428D01*
X1211923Y848037D01*
X1211376Y847647D01*
X1210674Y847178D01*
X1209893Y846787D01*
X1209814D01*
X1209736Y846709D01*
X1209502Y846631D01*
X1209190Y846553D01*
X1208487Y846397D01*
X1207627Y846319D01*
X1207159D01*
X1206846Y846397D01*
X1206143Y846553D01*
X1205284Y846787D01*
X1205206D01*
X1205128Y846866D01*
X1204659Y847178D01*
X1204113Y847647D01*
X1203566Y848350D01*
Y848428D01*
X1203488Y848584D01*
X1203410Y848818D01*
X1203332Y849131D01*
X1203253Y849912D01*
Y850927D01*
Y851005D01*
Y851083D01*
X1203410Y851552D01*
X1203566Y852177D01*
X1203800Y852880D01*
Y852958D01*
X1203878Y853036D01*
X1204035Y853504D01*
X1204269Y854129D01*
X1204503Y854832D01*
Y854910D01*
X1204581Y854988D01*
X1204816Y855457D01*
X1205128Y856082D01*
X1205519Y856863D01*
Y856941D01*
X1205597Y857019D01*
X1205909Y857488D01*
X1206221Y858191D01*
X1206690Y859050D01*
X1204816D01*
X1204503Y859128D01*
X1204425D01*
X1204191Y859206D01*
X1203878Y859284D01*
X1203488Y859441D01*
X1203410Y859519D01*
X1203175Y859597D01*
X1202629Y859909D01*
X1202551Y859987D01*
X1202394Y860221D01*
X1202238Y860612D01*
X1202316Y861003D01*
Y861081D01*
X1202473Y861315D01*
X1202785Y861549D01*
X1203175Y861627D01*
X1203644D01*
X1204113Y861705D01*
X1204816Y861784D01*
X1205519Y861862D01*
X1206378Y862096D01*
X1207159Y862330D01*
X1208018Y862721D01*
X1208096Y862799D01*
X1208409Y862877D01*
X1208877Y863111D01*
X1209424Y863424D01*
X1210127Y863736D01*
X1210830Y864127D01*
X1212470Y864986D01*
X1212548Y865064D01*
X1212860Y865220D01*
X1213251Y865455D01*
X1213720Y865689D01*
X1213798Y865767D01*
X1214188Y865923D01*
X1214657Y866158D01*
X1215282Y866470D01*
X1215204Y866392D01*
D02*
G37*
G36*
X1283077Y877014D02*
X1283546Y876858D01*
X1283624D01*
X1283780Y876780D01*
X1284326Y876624D01*
X1284951Y876233D01*
X1285498Y875686D01*
X1285576Y875530D01*
X1285811Y875140D01*
X1285967Y874437D01*
Y874046D01*
X1285889Y873577D01*
Y873499D01*
Y873421D01*
X1285732Y872875D01*
X1285576Y872172D01*
X1285264Y871391D01*
Y871312D01*
X1285186Y871234D01*
X1285029Y870766D01*
X1284717Y870141D01*
X1284326Y869438D01*
X1284248Y869282D01*
X1284014Y868813D01*
X1283624Y868110D01*
X1283077Y867173D01*
X1282452Y866079D01*
X1281827Y864908D01*
X1281046Y863580D01*
X1280265Y862252D01*
X1280187Y862096D01*
X1279875Y861627D01*
X1279484Y860925D01*
X1278937Y860065D01*
X1278313Y858972D01*
X1277609Y857800D01*
X1276907Y856472D01*
X1276125Y855145D01*
X1276047Y854988D01*
X1275891Y854676D01*
X1275579Y854129D01*
X1275344Y853426D01*
Y853348D01*
X1275266Y853270D01*
X1275188Y852880D01*
X1275032Y852255D01*
X1274876Y851552D01*
Y851474D01*
Y851318D01*
X1274798Y850849D01*
X1274876Y850224D01*
X1275032Y849990D01*
X1275266Y849755D01*
X1275423Y849677D01*
X1275735Y849599D01*
X1276360Y849521D01*
X1276672Y849599D01*
X1277141Y849677D01*
X1277219D01*
X1277375Y849755D01*
X1277609Y849834D01*
X1277844Y849990D01*
X1278547Y850302D01*
X1279250Y850849D01*
X1279328Y850927D01*
X1279406Y851005D01*
X1279796Y851396D01*
X1280421Y851942D01*
X1281046Y852645D01*
X1281124Y852723D01*
X1281358Y853036D01*
X1281671Y853426D01*
X1282061Y853817D01*
X1282140Y853895D01*
X1282374Y854129D01*
X1282686Y854442D01*
X1283155Y854754D01*
X1283233D01*
X1283389Y854832D01*
X1283624Y854910D01*
X1284326D01*
X1284639Y854832D01*
X1284795Y854676D01*
X1284873Y854598D01*
X1284951Y854520D01*
X1285029Y854208D01*
Y853817D01*
Y853739D01*
Y853504D01*
X1284951Y853192D01*
X1284795Y852958D01*
X1284717Y852880D01*
X1284483Y852645D01*
X1284170Y852255D01*
X1283780Y851786D01*
X1283233Y851239D01*
X1282686Y850693D01*
X1281437Y849443D01*
X1281358Y849365D01*
X1281124Y849131D01*
X1280734Y848818D01*
X1280265Y848428D01*
X1279640Y848037D01*
X1278937Y847569D01*
X1278156Y847100D01*
X1277297Y846631D01*
X1277219Y846553D01*
X1276907Y846475D01*
X1276438Y846319D01*
X1275813Y846241D01*
X1275110Y846163D01*
X1274407Y846241D01*
X1273626Y846397D01*
X1272845Y846787D01*
X1272767Y846866D01*
X1272533Y847022D01*
X1272220Y847334D01*
X1271908Y847725D01*
X1271517Y848271D01*
X1271127Y848896D01*
X1270814Y849599D01*
X1270658Y850380D01*
Y850458D01*
Y850615D01*
X1270580Y851005D01*
Y851083D01*
Y851239D01*
Y851552D01*
X1270502Y851864D01*
Y851942D01*
X1270580Y852177D01*
Y852567D01*
X1270658Y853036D01*
X1270814Y853661D01*
X1270971Y854286D01*
X1271283Y855692D01*
Y855770D01*
X1271361Y856004D01*
X1271517Y856394D01*
X1271674Y856863D01*
X1271908Y857410D01*
X1272142Y858035D01*
X1272689Y859362D01*
X1272767Y859441D01*
X1272845Y859675D01*
X1273079Y860065D01*
X1273392Y860534D01*
X1273782Y861081D01*
X1274173Y861705D01*
X1275032Y863033D01*
X1275110Y863111D01*
X1275266Y863346D01*
X1275501Y863736D01*
X1275813Y864205D01*
X1276204Y864752D01*
X1276594Y865377D01*
X1277531Y866704D01*
Y866782D01*
X1277688Y866861D01*
X1278000Y867329D01*
X1278469Y867954D01*
X1279015Y868579D01*
Y868657D01*
X1279172Y868735D01*
X1279484Y869126D01*
X1279953Y869750D01*
X1280499Y870375D01*
X1280578Y870453D01*
X1280656Y870610D01*
X1280968Y871000D01*
Y871078D01*
X1281046Y871234D01*
X1281280Y871703D01*
Y871781D01*
X1281358Y872094D01*
X1281280Y872406D01*
X1281124Y872796D01*
X1281046Y872875D01*
X1280890Y872953D01*
X1280578Y873031D01*
X1280109Y872953D01*
X1280031Y872875D01*
X1279718Y872796D01*
X1279328Y872562D01*
X1278937Y872328D01*
X1278859Y872250D01*
X1278547Y872094D01*
X1278156Y871859D01*
X1277766Y871547D01*
X1277688Y871469D01*
X1277453Y871312D01*
X1277141Y871000D01*
X1276750Y870610D01*
X1276672Y870531D01*
X1276438Y870453D01*
X1275891D01*
X1275657Y870610D01*
X1275579Y870688D01*
X1275344Y871000D01*
X1275188Y871391D01*
Y871859D01*
Y872015D01*
X1275344Y872328D01*
X1275423Y872718D01*
X1275657Y873265D01*
X1275735Y873343D01*
X1275891Y873577D01*
X1276125Y873968D01*
X1276438Y874359D01*
X1276907Y874905D01*
X1277531Y875374D01*
X1278234Y875843D01*
X1279093Y876311D01*
X1279172D01*
X1279406Y876467D01*
X1279718Y876545D01*
X1280109Y876702D01*
X1281124Y876936D01*
X1282218Y877092D01*
X1282608D01*
X1283077Y877014D01*
D02*
G37*
G36*
X1262613Y865845D02*
X1262535Y865611D01*
X1262379Y865220D01*
X1262145Y864752D01*
X1261832Y864205D01*
X1261520Y863658D01*
X1260895Y862330D01*
Y862252D01*
X1260739Y862018D01*
X1260583Y861705D01*
X1260348Y861315D01*
X1259802Y860221D01*
X1259177Y859050D01*
Y858972D01*
X1259020Y858816D01*
X1258942Y858503D01*
X1258708Y858191D01*
X1258240Y857254D01*
X1257693Y856238D01*
Y856160D01*
X1257536Y856004D01*
X1257380Y855692D01*
X1257224Y855379D01*
X1256756Y854442D01*
X1256209Y853426D01*
X1256131Y853348D01*
X1256052Y853114D01*
X1255818Y852723D01*
X1255662Y852255D01*
X1255584Y852177D01*
X1255506Y851942D01*
X1255272Y851552D01*
X1255115Y851083D01*
Y851005D01*
X1255037Y850927D01*
X1254881Y850458D01*
X1254725Y849912D01*
Y849287D01*
Y849131D01*
X1254803Y848896D01*
X1254959Y848506D01*
X1255272Y848193D01*
X1255350D01*
X1255428Y848115D01*
X1255818Y847959D01*
X1256287Y847881D01*
X1256521Y847959D01*
X1256756Y848037D01*
X1256912Y848115D01*
X1257146Y848271D01*
X1257615Y848506D01*
X1258005Y848818D01*
X1258083Y848896D01*
X1258161Y848974D01*
X1258708Y849365D01*
X1259333Y849990D01*
X1260114Y850615D01*
X1260192Y850693D01*
X1260270Y850771D01*
X1260739Y851239D01*
X1261442Y851864D01*
X1262223Y852567D01*
X1262301Y852645D01*
X1262457Y852802D01*
X1262926Y853192D01*
X1263004Y853270D01*
X1263160Y853348D01*
X1263707Y853817D01*
X1263785Y853661D01*
X1263941Y853348D01*
X1264019Y852958D01*
Y852567D01*
Y852489D01*
X1263941Y852333D01*
X1263551Y851786D01*
X1263473Y851708D01*
X1263316Y851474D01*
X1263082Y851161D01*
X1262770Y850771D01*
X1261989Y849834D01*
X1260973Y848818D01*
X1260895Y848740D01*
X1260739Y848584D01*
X1260426Y848350D01*
X1260036Y848037D01*
X1259489Y847647D01*
X1258942Y847256D01*
X1257693Y846475D01*
X1257615D01*
X1257380Y846319D01*
X1257068Y846241D01*
X1256756Y846085D01*
X1256677D01*
X1256443Y846006D01*
X1256131Y845928D01*
X1255818Y845850D01*
X1254256D01*
X1253553Y846006D01*
X1252850Y846241D01*
X1252225Y846553D01*
X1251600Y847100D01*
X1251522Y847178D01*
X1251366Y847412D01*
X1251132Y847725D01*
X1250898Y848271D01*
X1250741Y848896D01*
X1250585Y849599D01*
X1250663Y850458D01*
X1250819Y851396D01*
Y851474D01*
X1250898Y851552D01*
X1251054Y852099D01*
X1251288Y852802D01*
X1251679Y853583D01*
Y853661D01*
X1251757Y853739D01*
X1251991Y854286D01*
X1252303Y854988D01*
X1252694Y855770D01*
X1252772Y855848D01*
X1252850Y856160D01*
X1253084Y856629D01*
X1253319Y857097D01*
X1253397Y857254D01*
X1253553Y857566D01*
X1253788Y858035D01*
X1254022Y858659D01*
X1253084D01*
X1252616Y858581D01*
X1251835D01*
X1251444Y858659D01*
X1251366D01*
X1251132Y858816D01*
X1250585Y859128D01*
X1250507Y859206D01*
X1250351Y859362D01*
X1249804Y859831D01*
Y859909D01*
X1249726Y860065D01*
X1249648Y860300D01*
X1249726Y860612D01*
Y860690D01*
X1249882Y860846D01*
X1250117Y861003D01*
X1250507Y861081D01*
X1251054D01*
X1251600Y861159D01*
X1252382Y861237D01*
X1253319Y861471D01*
X1254256Y861705D01*
X1255272Y862096D01*
X1256287Y862565D01*
X1256443Y862643D01*
X1256756Y862799D01*
X1257224Y863111D01*
X1257927Y863502D01*
X1258708Y863971D01*
X1259645Y864439D01*
X1261598Y865455D01*
X1261676D01*
X1261754Y865533D01*
X1262067Y865611D01*
X1262223Y865689D01*
X1262379Y865845D01*
X1262691Y865923D01*
X1262613Y865845D01*
D02*
G37*
G36*
X1275657Y837181D02*
X1275891Y837103D01*
X1276125Y836946D01*
X1276204Y836868D01*
X1276438Y836556D01*
X1276594Y836009D01*
Y835306D01*
Y835228D01*
X1276516Y835072D01*
X1276360Y834603D01*
Y834525D01*
X1276282Y834369D01*
X1276047Y833900D01*
Y833822D01*
X1275969Y833744D01*
X1275813Y833275D01*
Y833197D01*
X1275735Y833041D01*
X1275579Y832807D01*
X1275423Y832416D01*
X1275579D01*
X1275969Y832338D01*
X1276516D01*
X1277063Y832260D01*
X1277219D01*
X1277531Y832182D01*
X1278000D01*
X1278547Y832104D01*
X1278625D01*
X1278859Y832026D01*
X1279172Y831947D01*
X1279562Y831869D01*
X1279640Y831791D01*
X1279796Y831635D01*
X1280031Y831401D01*
X1280109Y830932D01*
Y830776D01*
X1280031Y830542D01*
X1279875Y830151D01*
X1279562Y829917D01*
X1279484D01*
X1279250Y829839D01*
X1278937Y829761D01*
X1278469Y829682D01*
X1277531D01*
X1276985Y829604D01*
X1276125D01*
X1275579Y829682D01*
X1275032D01*
X1274563Y829604D01*
X1274017Y829370D01*
X1273939Y829292D01*
X1273704Y829058D01*
X1273392Y828667D01*
X1273079Y828120D01*
Y828042D01*
X1272923Y827886D01*
X1272845Y827574D01*
X1272611Y827183D01*
X1272142Y826168D01*
X1271517Y824996D01*
Y824918D01*
X1271361Y824762D01*
X1271205Y824449D01*
X1271049Y824059D01*
X1270502Y823122D01*
X1269877Y821950D01*
X1269799Y821872D01*
X1269721Y821638D01*
X1269487Y821247D01*
X1269252Y820700D01*
X1268940Y820154D01*
X1268627Y819451D01*
X1267846Y818045D01*
X1267768Y817967D01*
X1267690Y817732D01*
X1267456Y817342D01*
X1267222Y816795D01*
X1266909Y816248D01*
X1266597Y815546D01*
X1265894Y814062D01*
X1265816Y813905D01*
X1265659Y813593D01*
X1265503Y813202D01*
X1265269Y812656D01*
X1265191Y812499D01*
X1265113Y812187D01*
X1264957Y811796D01*
X1264878Y811250D01*
Y811172D01*
Y811094D01*
Y810625D01*
X1265035Y810156D01*
X1265191Y809922D01*
X1265425Y809766D01*
X1265581Y809688D01*
X1265894Y809610D01*
X1266441D01*
X1266753Y809688D01*
X1267065Y809844D01*
X1267222Y809922D01*
X1267534Y810078D01*
X1268003Y810312D01*
X1268471Y810703D01*
X1268627Y810781D01*
X1268940Y811094D01*
X1269330Y811406D01*
X1269799Y811875D01*
X1269955Y812031D01*
X1270268Y812421D01*
X1270814Y812968D01*
X1271439Y813593D01*
Y813671D01*
X1271595Y813749D01*
X1271908Y814140D01*
X1272376Y814686D01*
X1272923Y815311D01*
X1273001D01*
X1273079Y815233D01*
X1273158Y815155D01*
X1273314Y815077D01*
Y814999D01*
X1273236Y814921D01*
X1273158Y814452D01*
Y814374D01*
X1273079Y814296D01*
X1272923Y813827D01*
Y813749D01*
X1272767Y813593D01*
X1272611Y813280D01*
X1272455Y812890D01*
X1271908Y812031D01*
X1271205Y811015D01*
X1271127Y810937D01*
X1271049Y810781D01*
X1270814Y810625D01*
X1270502Y810312D01*
X1269799Y809531D01*
X1268862Y808750D01*
X1268784D01*
X1268706Y808594D01*
X1268237Y808360D01*
X1267612Y807969D01*
X1266831Y807657D01*
X1266753D01*
X1266675Y807579D01*
X1266128Y807501D01*
X1265425Y807345D01*
X1264644Y807266D01*
X1264097D01*
X1263863Y807345D01*
X1263551D01*
X1262848Y807657D01*
X1262457Y807813D01*
X1262067Y808126D01*
X1261989Y808204D01*
X1261910Y808282D01*
X1261754Y808516D01*
X1261520Y808829D01*
X1261208Y809610D01*
X1261051Y810078D01*
Y810547D01*
Y810625D01*
Y810703D01*
Y811250D01*
X1261129Y811953D01*
X1261208Y812734D01*
Y812812D01*
Y812890D01*
X1261364Y813359D01*
X1261520Y813983D01*
X1261754Y814764D01*
Y814843D01*
X1261832Y815077D01*
X1261989Y815389D01*
X1262145Y815858D01*
X1262535Y816873D01*
X1263004Y818123D01*
Y818201D01*
X1263160Y818435D01*
X1263316Y818748D01*
X1263473Y819138D01*
X1263707Y819607D01*
X1264019Y820232D01*
X1264566Y821481D01*
X1264488D01*
X1264254Y821403D01*
X1263941Y821325D01*
X1263551Y821247D01*
X1262613Y820935D01*
X1261520Y820700D01*
X1261442D01*
X1261286Y820622D01*
X1260973Y820544D01*
X1260583Y820466D01*
X1259645Y820232D01*
X1258630Y819997D01*
X1258552Y820076D01*
X1258474Y820154D01*
Y820232D01*
X1258396Y820388D01*
X1258474D01*
X1258552Y820466D01*
X1259020Y820700D01*
X1259645Y821013D01*
X1260426Y821325D01*
X1260505D01*
X1260583Y821403D01*
X1261129Y821638D01*
X1261754Y821950D01*
X1262457Y822341D01*
X1262535D01*
X1262613Y822419D01*
X1263082Y822731D01*
X1263629Y823200D01*
X1264332Y823668D01*
X1264410D01*
X1264488Y823825D01*
X1264957Y824137D01*
X1265581Y824606D01*
X1266206Y825230D01*
X1266362Y825387D01*
X1266675Y825777D01*
X1267143Y826324D01*
X1267690Y827105D01*
Y827183D01*
X1267846Y827261D01*
X1268159Y827808D01*
X1268706Y828511D01*
X1269408Y829370D01*
X1269252D01*
X1268784Y829448D01*
X1267378D01*
X1267065Y829526D01*
X1266675D01*
X1266128Y829604D01*
X1266050D01*
X1265972Y829682D01*
X1265503Y829839D01*
X1265425D01*
X1265347Y829917D01*
X1264957Y830151D01*
Y830229D01*
X1265035Y830385D01*
X1265347Y830932D01*
Y831010D01*
X1265503Y831167D01*
X1265581Y831401D01*
X1265816Y831479D01*
X1265972Y831557D01*
X1266284Y831635D01*
X1266753Y831791D01*
X1267300Y831947D01*
X1267456D01*
X1267768Y832026D01*
X1268940D01*
X1269330Y832104D01*
X1269877Y832182D01*
X1270346Y832338D01*
X1270424Y832416D01*
X1270658Y832651D01*
X1270971Y833041D01*
X1271361Y833588D01*
X1271439Y833744D01*
X1271595Y834056D01*
X1271830Y834447D01*
X1272220Y834994D01*
X1272298Y835072D01*
X1272455Y835384D01*
X1272767Y835775D01*
X1273158Y836243D01*
X1273236Y836321D01*
X1273314Y836400D01*
X1273782Y836790D01*
X1273860Y836868D01*
X1274017Y836946D01*
X1274251Y837103D01*
X1274563Y837181D01*
X1274641D01*
X1274720Y837259D01*
X1275110D01*
X1275657Y837181D01*
D02*
G37*
G36*
X1322598Y838352D02*
X1322520Y838274D01*
X1322364Y837727D01*
X1322129Y837024D01*
X1321817Y836321D01*
Y836243D01*
X1321739Y836165D01*
X1321583Y835697D01*
X1321270Y835072D01*
X1320958Y834369D01*
X1321036D01*
X1321348Y834291D01*
X1321661Y834213D01*
X1322051Y834135D01*
X1322129D01*
X1322364Y834056D01*
X1322754Y833978D01*
X1323301Y833900D01*
X1323223Y833822D01*
X1322910Y833666D01*
X1322520Y833431D01*
X1321973Y833119D01*
X1321348Y832729D01*
X1320645Y832338D01*
X1319161Y831479D01*
X1319083Y831401D01*
X1318849Y831245D01*
X1318380Y831088D01*
X1317912Y830776D01*
X1317287Y830385D01*
X1316662Y829995D01*
X1315178Y829214D01*
Y829292D01*
X1315100Y829370D01*
X1315022D01*
X1314944Y829448D01*
X1315022Y829526D01*
X1315334Y829839D01*
X1315647Y830307D01*
X1316115Y830854D01*
X1316193Y831010D01*
X1316506Y831323D01*
X1316896Y831791D01*
X1317365Y832416D01*
X1317287D01*
X1317052Y832494D01*
X1316740Y832651D01*
X1316350Y832729D01*
X1316272D01*
X1316037Y832807D01*
X1315725Y832885D01*
X1315256Y833041D01*
X1315334Y833119D01*
X1315569Y833275D01*
X1315959Y833510D01*
X1316350Y833900D01*
X1316896Y834291D01*
X1317521Y834759D01*
X1318849Y835697D01*
X1318927Y835775D01*
X1319161Y835931D01*
X1319552Y836165D01*
X1320020Y836478D01*
X1320567Y836946D01*
X1321192Y837415D01*
X1322598Y838430D01*
Y838352D01*
D02*
G37*
G36*
X1179822Y839289D02*
X1180369Y839211D01*
X1180994Y838977D01*
X1181697Y838743D01*
X1182321Y838352D01*
X1182946Y837884D01*
X1183337Y837259D01*
Y837181D01*
X1183415Y836946D01*
X1183493Y836556D01*
X1183571Y836009D01*
Y835384D01*
X1183493Y834603D01*
X1183337Y833744D01*
X1182946Y832807D01*
Y832729D01*
X1182868Y832651D01*
X1182634Y832260D01*
X1182165Y831635D01*
X1181618Y831010D01*
X1181462Y830854D01*
X1181072Y830542D01*
X1180525Y830073D01*
X1179900Y829682D01*
X1179822Y829604D01*
X1179666Y829526D01*
X1179353Y829370D01*
X1179041Y829136D01*
X1178026Y828589D01*
X1176932Y828042D01*
X1176854D01*
X1176698Y827886D01*
X1176385Y827808D01*
X1175995Y827574D01*
X1174979Y827105D01*
X1173886Y826558D01*
X1173808D01*
X1173574Y826480D01*
X1173027Y826168D01*
X1172949D01*
X1172714Y826012D01*
X1172324Y825855D01*
X1171855Y825621D01*
X1172011Y825543D01*
X1172246Y825387D01*
X1172636Y825230D01*
X1173027Y824996D01*
X1173105D01*
X1173261Y824840D01*
X1173808Y824528D01*
X1173886D01*
X1173964Y824371D01*
X1174277Y824059D01*
X1174667Y823512D01*
X1174745Y823278D01*
Y822965D01*
Y822809D01*
X1174511Y822497D01*
X1174120Y822106D01*
X1173886Y821872D01*
X1173495Y821716D01*
X1173417D01*
X1173261Y821638D01*
X1173027Y821560D01*
X1172793Y821481D01*
X1172011Y821325D01*
X1170606D01*
X1170293Y821403D01*
X1169512Y821560D01*
X1168653Y821950D01*
X1168575D01*
X1168419Y822106D01*
X1168106Y822184D01*
X1167716Y822262D01*
X1166778Y822419D01*
X1166310D01*
X1165841Y822341D01*
X1165763D01*
X1165607Y822262D01*
X1165373Y822184D01*
X1165138Y822028D01*
X1164357Y821638D01*
X1163498Y821013D01*
X1163420Y820935D01*
X1163264Y820857D01*
X1163029Y820622D01*
X1162795Y820310D01*
X1162014Y819451D01*
X1161311Y818435D01*
Y818357D01*
X1161155Y818201D01*
X1160999Y817889D01*
X1160843Y817498D01*
X1160686Y817029D01*
X1160452Y816483D01*
X1160218Y815155D01*
Y815077D01*
Y814764D01*
Y814374D01*
X1160296Y813827D01*
X1160374Y813202D01*
X1160608Y812578D01*
X1160921Y811953D01*
X1161311Y811328D01*
X1161389Y811250D01*
X1161545Y811094D01*
X1161858Y810859D01*
X1162248Y810547D01*
X1162717Y810312D01*
X1163342Y810078D01*
X1164045Y809844D01*
X1164826Y809766D01*
X1166544D01*
X1167560Y809922D01*
X1167638D01*
X1167794Y810000D01*
X1168028D01*
X1168341Y810078D01*
X1169200Y810391D01*
X1170059Y810859D01*
X1170137Y810937D01*
X1170371Y811172D01*
X1170684Y811484D01*
X1170996Y811875D01*
X1171074Y811953D01*
X1171230Y812265D01*
X1171465Y812578D01*
X1171621Y813046D01*
Y813124D01*
X1171699Y813280D01*
Y813593D01*
Y813983D01*
Y814062D01*
X1171621Y814296D01*
X1171465Y814530D01*
X1171230Y814764D01*
X1171152D01*
X1170996Y814843D01*
X1170371D01*
X1170137Y814764D01*
X1169825Y814686D01*
X1169434Y814608D01*
X1169356D01*
X1169278Y814530D01*
X1168887Y814140D01*
Y814062D01*
X1168731Y813905D01*
X1168419Y813515D01*
X1168262Y813359D01*
X1167872Y813124D01*
X1167325Y812812D01*
X1166622Y812656D01*
X1166466D01*
X1166076Y812734D01*
X1165607Y812890D01*
X1165060Y813202D01*
X1164982Y813280D01*
X1164748Y813671D01*
X1164513Y814140D01*
Y814452D01*
Y814764D01*
Y814843D01*
Y814921D01*
X1164670Y815389D01*
X1164982Y815936D01*
X1165216Y816327D01*
X1165529Y816639D01*
X1165607Y816717D01*
X1165763Y816873D01*
X1166154Y817108D01*
X1166544Y817420D01*
X1167091Y817732D01*
X1167716Y817967D01*
X1168419Y818201D01*
X1169200Y818357D01*
X1169981D01*
X1170528Y818279D01*
X1171152Y818201D01*
X1171777Y817967D01*
X1172480Y817732D01*
X1173183Y817342D01*
X1173261Y817264D01*
X1173495Y817108D01*
X1173808Y816795D01*
X1174120Y816405D01*
X1174511Y815936D01*
X1174901Y815311D01*
X1175136Y814608D01*
X1175292Y813827D01*
Y813749D01*
Y813515D01*
X1175214Y813046D01*
X1175136Y812578D01*
X1174979Y812031D01*
X1174667Y811406D01*
X1174199Y810781D01*
X1173574Y810156D01*
X1173495Y810078D01*
X1173261Y809922D01*
X1172871Y809610D01*
X1172324Y809297D01*
X1171699Y808907D01*
X1170918Y808516D01*
X1170137Y808204D01*
X1169278Y807891D01*
X1169200D01*
X1168887Y807813D01*
X1168419Y807735D01*
X1167794Y807579D01*
X1167013Y807501D01*
X1166154D01*
X1165294Y807423D01*
X1164279Y807501D01*
X1164123D01*
X1163732Y807579D01*
X1163186Y807657D01*
X1162483Y807813D01*
X1162327D01*
X1161858Y807969D01*
X1161233Y808047D01*
X1160530Y808282D01*
X1160452D01*
X1160374Y808360D01*
X1160140Y808438D01*
X1159827Y808516D01*
X1159046Y808907D01*
X1158109Y809375D01*
X1157172Y810078D01*
X1156234Y810937D01*
X1155375Y812031D01*
X1155063Y812578D01*
X1154828Y813280D01*
Y813359D01*
Y813437D01*
X1154750Y813671D01*
X1154672Y813983D01*
Y814686D01*
Y815702D01*
X1154828Y816795D01*
X1155219Y818045D01*
X1155531Y818748D01*
X1155844Y819373D01*
X1156312Y820076D01*
X1156859Y820700D01*
X1156937Y820779D01*
X1157094Y820935D01*
X1157250Y821169D01*
X1157562Y821481D01*
X1158343Y822184D01*
X1159359Y822887D01*
X1159437Y822965D01*
X1159593Y823044D01*
X1159905Y823200D01*
X1160296Y823434D01*
X1161233Y823981D01*
X1162327Y824449D01*
X1162405D01*
X1162483Y824528D01*
X1162795Y824684D01*
X1163186Y824918D01*
X1163498Y825152D01*
X1163576Y825230D01*
X1163654Y825543D01*
Y826012D01*
X1163498Y826636D01*
Y826714D01*
X1163420Y827027D01*
Y827417D01*
Y827886D01*
Y828042D01*
Y828277D01*
X1163498Y828745D01*
X1163576Y829136D01*
Y829214D01*
X1163654Y829292D01*
X1163967Y829839D01*
X1164279Y830542D01*
X1164748Y831323D01*
Y831401D01*
X1164826Y831557D01*
X1165138Y832026D01*
X1165607Y832651D01*
X1166154Y833275D01*
X1166310Y833353D01*
X1166622Y833666D01*
X1167169Y834135D01*
X1167872Y834759D01*
X1168731Y835384D01*
X1169668Y836087D01*
X1170762Y836790D01*
X1171855Y837415D01*
X1172011Y837493D01*
X1172402Y837649D01*
X1173027Y837962D01*
X1173886Y838274D01*
X1174823Y838587D01*
X1175995Y838899D01*
X1177323Y839133D01*
X1178651Y839289D01*
X1178729Y839368D01*
X1179432D01*
X1179822Y839289D01*
D02*
G37*
G36*
X1290262Y827027D02*
X1290419Y826949D01*
X1290497Y826793D01*
X1290575Y826636D01*
X1290653Y826402D01*
Y826324D01*
Y826168D01*
Y825777D01*
X1290575Y825621D01*
X1290497Y825309D01*
X1290262Y824918D01*
X1290028Y824371D01*
X1289950Y824293D01*
X1289872Y823981D01*
X1289638Y823512D01*
X1289403Y822965D01*
X1289482D01*
X1289716Y823044D01*
X1290028Y823200D01*
X1290419Y823356D01*
X1291434Y823825D01*
X1292528Y824293D01*
X1292606D01*
X1292762Y824371D01*
X1293074Y824528D01*
X1293543Y824684D01*
X1294558Y825074D01*
X1295730Y825465D01*
X1295886D01*
X1296198Y825543D01*
X1296667Y825621D01*
X1298151D01*
X1298698Y825543D01*
X1298776D01*
X1298932Y825465D01*
X1299479Y825309D01*
X1300104Y824996D01*
X1300650Y824449D01*
X1300729Y824293D01*
X1300963Y823825D01*
X1301119Y823200D01*
X1301197Y822262D01*
Y822184D01*
Y822028D01*
X1301119Y821716D01*
X1301041Y821403D01*
X1300729Y820466D01*
X1300416Y819997D01*
X1300104Y819529D01*
X1300026Y819451D01*
X1299948Y819295D01*
X1299713Y819060D01*
X1299401Y818826D01*
X1298620Y818201D01*
X1298151Y817967D01*
X1297604Y817732D01*
X1297526D01*
X1297370Y817654D01*
X1296901Y817576D01*
X1295964D01*
X1295574Y817732D01*
X1295027Y817967D01*
X1294480Y818357D01*
X1294402Y818435D01*
X1294168Y818748D01*
X1294012Y819216D01*
X1293934Y819841D01*
Y819919D01*
X1294012Y820232D01*
X1294246Y820544D01*
X1294636Y820857D01*
X1294793Y820935D01*
X1295105Y821013D01*
X1295730Y821091D01*
X1296511D01*
X1296745Y821013D01*
X1297292Y820935D01*
X1297526D01*
X1297761Y821091D01*
X1297917Y821403D01*
Y821481D01*
X1297995Y821638D01*
X1298073Y821872D01*
Y822184D01*
Y822262D01*
Y822497D01*
X1297917Y822965D01*
X1297839Y823044D01*
X1297761Y823278D01*
X1297526Y823512D01*
X1297214Y823668D01*
X1297136D01*
X1296901Y823746D01*
X1296589D01*
X1296277Y823668D01*
X1296198D01*
X1295886Y823512D01*
X1295496Y823356D01*
X1295027Y823200D01*
X1294949D01*
X1294636Y823044D01*
X1294246Y822887D01*
X1293855Y822653D01*
X1293699Y822575D01*
X1293230Y822262D01*
X1292606Y821794D01*
X1291747Y821091D01*
X1290731Y820310D01*
X1289716Y819451D01*
X1288622Y818513D01*
X1287529Y817420D01*
X1287373Y817264D01*
X1287060Y816873D01*
X1286514Y816248D01*
X1285889Y815389D01*
X1285186Y814374D01*
X1284405Y813202D01*
X1283702Y811875D01*
X1282999Y810391D01*
Y810312D01*
X1282843Y810078D01*
X1282686Y809766D01*
X1282530Y809375D01*
X1281983Y808594D01*
X1281671Y808282D01*
X1281358Y808126D01*
X1281202Y808047D01*
X1280968D01*
X1280656Y807969D01*
X1280187Y807891D01*
X1278859D01*
X1277922Y807969D01*
Y808047D01*
X1278000Y808126D01*
X1278234Y808594D01*
X1278547Y809297D01*
X1279015Y810234D01*
X1279562Y811328D01*
X1280187Y812499D01*
X1280890Y813827D01*
X1281593Y815155D01*
Y815233D01*
X1281671Y815311D01*
X1281905Y815780D01*
X1282296Y816483D01*
X1282843Y817420D01*
X1283467Y818513D01*
X1284170Y819763D01*
X1284873Y821091D01*
X1285732Y822497D01*
X1285654D01*
X1285498Y822419D01*
X1285186D01*
X1284873Y822341D01*
X1284014Y822106D01*
X1283155Y821872D01*
X1282999D01*
X1282764Y821794D01*
X1282452Y821716D01*
X1281749Y821560D01*
X1280890Y821325D01*
Y821403D01*
Y821481D01*
Y821560D01*
X1280812Y821638D01*
X1280890Y821716D01*
X1281124Y821872D01*
X1281202Y821950D01*
X1281515Y822106D01*
X1281593Y822184D01*
X1281827Y822262D01*
X1282218Y822419D01*
X1282686Y822731D01*
X1283233Y822965D01*
X1283858Y823278D01*
X1285186Y823981D01*
X1285264Y824059D01*
X1285498Y824137D01*
X1285889Y824371D01*
X1286279Y824684D01*
X1287373Y825543D01*
X1288544Y826636D01*
X1288622Y826714D01*
X1288857Y826949D01*
X1288935Y827027D01*
X1289247Y827105D01*
X1290106D01*
X1290262Y827027D01*
D02*
G37*
G36*
X1346030Y828120D02*
X1346810Y827964D01*
X1346889D01*
X1347201Y827886D01*
X1347513Y827730D01*
X1347982Y827496D01*
X1348451Y827183D01*
X1348919Y826714D01*
X1349310Y826246D01*
X1349544Y825543D01*
Y825465D01*
X1349622Y825230D01*
Y824918D01*
Y824606D01*
Y824528D01*
Y824371D01*
X1349544Y824137D01*
X1349466Y823825D01*
X1349154Y822965D01*
X1348919Y822497D01*
X1348529Y822028D01*
X1348451Y821950D01*
X1348216Y821716D01*
X1347826Y821403D01*
X1347435Y821091D01*
X1347357Y821013D01*
X1347123Y820857D01*
X1346732Y820622D01*
X1346264Y820310D01*
X1346186Y820232D01*
X1345873Y820154D01*
X1345483Y820076D01*
X1345014Y819997D01*
X1344936D01*
X1344624Y820076D01*
X1344233Y820232D01*
X1343842Y820466D01*
X1343764Y820544D01*
X1343530Y820857D01*
X1343374Y821247D01*
X1343296Y821716D01*
Y821872D01*
X1343374Y822184D01*
X1343530Y822575D01*
X1343686Y823044D01*
X1343764Y823122D01*
X1343921Y823356D01*
X1344389Y823903D01*
X1344467Y823981D01*
X1344624Y824137D01*
X1345092Y824684D01*
X1345170Y824762D01*
X1345248Y824918D01*
X1345405Y825309D01*
Y825387D01*
X1345483Y825543D01*
X1345717Y825934D01*
X1345639D01*
X1345483Y826012D01*
X1345014Y826168D01*
X1344936D01*
X1344780Y826246D01*
X1344233D01*
X1344155Y826168D01*
X1343686Y826012D01*
X1343062Y825855D01*
X1342280Y825543D01*
X1342202D01*
X1342124Y825465D01*
X1341734Y825309D01*
X1341109Y824996D01*
X1340406Y824684D01*
X1340328D01*
X1340172Y824528D01*
X1339937Y824371D01*
X1339547Y824137D01*
X1338766Y823434D01*
X1337985Y822575D01*
X1337907Y822497D01*
X1337829Y822341D01*
X1337672Y822106D01*
X1337438Y821794D01*
X1336891Y821013D01*
X1336266Y819997D01*
X1336188Y819919D01*
X1336110Y819763D01*
X1335954Y819451D01*
X1335720Y818982D01*
X1335173Y817967D01*
X1334548Y816795D01*
Y816717D01*
X1334392Y816483D01*
X1334314Y816170D01*
X1334158Y815780D01*
X1333923Y815233D01*
X1333767Y814608D01*
X1333455Y813280D01*
Y813202D01*
Y812968D01*
Y812578D01*
Y812109D01*
X1333689Y811094D01*
X1333845Y810547D01*
X1334158Y810156D01*
X1334236D01*
X1334314Y810000D01*
X1334626Y809922D01*
X1334939Y809766D01*
X1335329Y809688D01*
X1335876Y809610D01*
X1336501Y809688D01*
X1337204Y809766D01*
X1337282D01*
X1337360Y809844D01*
X1337907Y809922D01*
X1338531Y810156D01*
X1339312Y810469D01*
X1339391D01*
X1339469Y810547D01*
X1339937Y810859D01*
X1340562Y811250D01*
X1341265Y811640D01*
X1341343D01*
X1341421Y811718D01*
X1341812Y812031D01*
X1342359Y812421D01*
X1342983Y812968D01*
X1343062D01*
X1343140Y813124D01*
X1343530Y813437D01*
X1344155Y813905D01*
X1344936Y814452D01*
Y814374D01*
X1344858Y814296D01*
X1344702Y813827D01*
X1344389Y813202D01*
X1343921Y812343D01*
X1343296Y811484D01*
X1342437Y810547D01*
X1341343Y809688D01*
X1340094Y808985D01*
X1340015D01*
X1339937Y808907D01*
X1339469Y808672D01*
X1338688Y808438D01*
X1337750Y808126D01*
X1336657Y807891D01*
X1335485Y807735D01*
X1334158Y807813D01*
X1332908Y808047D01*
X1332830D01*
X1332595Y808204D01*
X1332205Y808360D01*
X1331736Y808594D01*
X1330643Y809219D01*
X1330096Y809688D01*
X1329627Y810156D01*
X1329549Y810234D01*
X1329471Y810469D01*
X1329237Y810781D01*
X1329081Y811250D01*
X1328925Y811796D01*
X1328768Y812499D01*
X1328690Y813280D01*
Y814062D01*
Y814140D01*
Y814218D01*
X1328768Y814608D01*
X1328846Y815155D01*
X1329003Y815780D01*
Y815858D01*
X1329081Y815936D01*
X1329159Y816327D01*
X1329237Y816951D01*
X1329393Y817654D01*
X1329237D01*
X1328925Y817732D01*
X1328378Y817811D01*
X1327753Y817889D01*
X1327597D01*
X1327284Y817967D01*
X1326738Y818045D01*
X1326191Y818123D01*
Y818201D01*
Y818357D01*
Y818435D01*
Y818592D01*
X1326347Y818670D01*
X1326659Y818748D01*
X1327050Y818904D01*
X1327519Y819060D01*
X1327675D01*
X1327987Y819216D01*
X1328378Y819295D01*
X1328925Y819529D01*
X1329003D01*
X1329159Y819607D01*
X1329471Y819763D01*
X1329784Y819919D01*
X1330643Y820388D01*
X1331580Y821091D01*
X1331658Y821169D01*
X1331736Y821247D01*
X1331971Y821481D01*
X1332283Y821794D01*
X1332986Y822497D01*
X1333845Y823278D01*
X1333923Y823356D01*
X1334158Y823590D01*
X1334548Y823903D01*
X1335017Y824293D01*
X1335563Y824762D01*
X1336266Y825309D01*
X1337750Y826402D01*
X1337829Y826480D01*
X1338141Y826636D01*
X1338531Y826871D01*
X1339078Y827105D01*
X1339781Y827417D01*
X1340484Y827652D01*
X1341343Y827886D01*
X1342280Y828042D01*
X1342515D01*
X1342749Y828120D01*
X1342983D01*
X1343764Y828198D01*
X1345327D01*
X1346030Y828120D01*
D02*
G37*
G36*
X1250898Y827886D02*
X1251991Y827652D01*
X1252538Y827496D01*
X1253006Y827261D01*
X1253084D01*
X1253241Y827105D01*
X1253709Y826714D01*
X1254256Y825934D01*
X1254490Y825465D01*
X1254647Y824918D01*
Y824840D01*
Y824684D01*
X1254725Y824449D01*
Y824059D01*
X1254647Y823668D01*
X1254490Y823200D01*
X1254334Y822731D01*
X1254022Y822184D01*
X1253944Y822106D01*
X1253866Y821950D01*
X1253631Y821716D01*
X1253319Y821403D01*
X1252538Y820700D01*
X1251444Y819997D01*
X1251366D01*
X1251054Y819919D01*
X1250898Y819841D01*
X1250663Y819763D01*
X1250038D01*
X1249492Y819841D01*
X1248945Y820076D01*
X1248867Y820154D01*
X1248633Y820466D01*
X1248554Y820935D01*
X1248476Y821247D01*
X1248554Y821638D01*
X1248633Y821794D01*
X1248711Y822106D01*
X1248945Y822497D01*
X1249257Y822965D01*
X1249335Y823044D01*
X1249570Y823356D01*
X1249804Y823746D01*
X1250117Y824215D01*
Y824293D01*
X1250195Y824449D01*
X1250507Y824918D01*
Y824996D01*
X1250585Y825152D01*
X1250898Y825621D01*
X1250819D01*
X1250585Y825699D01*
X1250273D01*
X1249960Y825777D01*
X1249882D01*
X1249726Y825855D01*
X1249023D01*
X1248867Y825777D01*
X1248554D01*
X1248242Y825699D01*
X1247383Y825387D01*
X1246446Y824996D01*
X1246367D01*
X1246211Y824918D01*
X1245977Y824762D01*
X1245665Y824528D01*
X1244962Y824059D01*
X1244181Y823356D01*
X1244102Y823278D01*
X1243868Y822965D01*
X1243478Y822497D01*
X1242931Y821950D01*
X1242384Y821247D01*
X1241837Y820388D01*
X1241213Y819529D01*
X1240666Y818592D01*
X1240588Y818513D01*
X1240432Y818123D01*
X1240197Y817654D01*
X1239963Y816951D01*
X1239572Y816092D01*
X1239260Y815155D01*
X1238948Y814062D01*
X1238713Y812968D01*
Y812890D01*
X1238635Y812578D01*
Y812187D01*
X1238713Y811718D01*
Y811640D01*
X1238791Y811328D01*
X1238869Y810937D01*
X1239026Y810469D01*
X1239104Y810391D01*
X1239260Y810156D01*
X1239494Y809844D01*
X1239885Y809531D01*
X1239963Y809453D01*
X1240275Y809375D01*
X1240666Y809297D01*
X1241369D01*
X1241681Y809375D01*
X1242228Y809531D01*
X1242775Y809610D01*
X1242853D01*
X1243165Y809766D01*
X1243556Y809844D01*
X1244024Y810078D01*
X1244102D01*
X1244259Y810234D01*
X1244571Y810391D01*
X1244962Y810625D01*
X1245899Y811172D01*
X1246992Y811875D01*
X1247070Y811953D01*
X1247227Y812031D01*
X1247539Y812265D01*
X1247930Y812499D01*
X1248867Y813124D01*
X1249960Y813905D01*
X1249882Y813749D01*
X1249726Y813359D01*
X1249492Y812734D01*
X1249023Y812031D01*
X1248398Y811172D01*
X1247617Y810312D01*
X1246602Y809453D01*
X1245352Y808750D01*
X1245196Y808672D01*
X1244727Y808438D01*
X1244024Y808126D01*
X1243165Y807891D01*
X1242072Y807579D01*
X1240822Y807501D01*
X1239494D01*
X1238088Y807735D01*
X1238010D01*
X1237776Y807813D01*
X1237385Y807969D01*
X1236917Y808204D01*
X1236448Y808438D01*
X1235901Y808829D01*
X1235355Y809219D01*
X1234886Y809766D01*
X1234808Y809844D01*
X1234730Y810000D01*
X1234495Y810312D01*
X1234339Y810625D01*
X1234105Y811172D01*
X1233949Y811718D01*
X1233793Y812343D01*
Y813124D01*
Y813202D01*
Y813280D01*
X1233871Y813749D01*
X1233949Y814374D01*
X1234027Y815155D01*
Y815233D01*
X1234105Y815311D01*
X1234183Y815858D01*
X1234261Y816561D01*
X1234417Y817342D01*
X1234261D01*
X1233949Y817420D01*
X1233480Y817498D01*
X1232933Y817576D01*
X1232777D01*
X1232465Y817654D01*
X1231918Y817732D01*
X1231215Y817811D01*
Y817889D01*
X1231293Y817967D01*
X1231371Y818123D01*
X1231450Y818201D01*
X1231528Y818279D01*
X1231606Y818357D01*
X1231684D01*
X1231996Y818435D01*
X1232387Y818592D01*
X1232933Y818826D01*
X1233558Y819060D01*
X1234261Y819373D01*
X1235667Y820154D01*
X1235745Y820232D01*
X1235980Y820388D01*
X1236292Y820700D01*
X1236761Y821013D01*
X1237854Y821950D01*
X1239104Y823122D01*
X1239182Y823200D01*
X1239494Y823512D01*
X1239963Y823903D01*
X1240510Y824371D01*
X1241213Y824918D01*
X1241994Y825465D01*
X1243790Y826636D01*
X1243946Y826714D01*
X1244259Y826871D01*
X1244805Y827027D01*
X1245508Y827339D01*
X1246367Y827574D01*
X1247383Y827730D01*
X1248476Y827886D01*
X1249648Y827964D01*
X1250429D01*
X1250898Y827886D01*
D02*
G37*
G36*
X1224889Y827730D02*
X1225123D01*
X1225904Y827574D01*
X1226685Y827261D01*
X1226763D01*
X1226841Y827183D01*
X1227232Y826793D01*
X1227778Y826246D01*
X1228169Y825387D01*
Y825309D01*
X1228247Y825152D01*
X1228325Y824918D01*
Y824606D01*
X1228403Y823746D01*
X1228325Y823356D01*
X1228247Y822887D01*
Y822809D01*
X1228169Y822731D01*
X1227857Y822184D01*
X1227388Y821560D01*
X1226763Y820935D01*
X1226685D01*
X1226607Y820779D01*
X1226373Y820622D01*
X1226060Y820388D01*
X1225357Y819919D01*
X1224498Y819373D01*
X1224420D01*
X1224264Y819216D01*
X1224029Y819138D01*
X1223717Y818904D01*
X1222936Y818513D01*
X1222077Y818123D01*
X1221999D01*
X1221764Y817967D01*
X1221452Y817889D01*
X1220983Y817654D01*
X1220437Y817498D01*
X1219812Y817264D01*
X1218484Y816873D01*
X1218406D01*
X1218172Y816795D01*
X1217781Y816717D01*
X1217312Y816639D01*
X1216766Y816561D01*
X1214501D01*
X1214110Y816483D01*
X1213642Y816405D01*
X1213095Y816170D01*
X1213017Y816092D01*
X1212860Y815858D01*
X1212626Y815389D01*
X1212470Y814764D01*
Y814608D01*
X1212392Y814296D01*
X1212314Y813749D01*
X1212158Y813124D01*
Y812968D01*
X1212079Y812656D01*
X1212001Y812109D01*
Y811562D01*
Y811484D01*
Y811328D01*
X1212079Y810859D01*
X1212236Y810312D01*
X1212392Y810078D01*
X1212548Y809922D01*
X1212626Y809844D01*
X1213017Y809610D01*
X1213563Y809453D01*
X1214344Y809297D01*
X1214813D01*
X1215126Y809375D01*
X1215907Y809531D01*
X1216766Y809766D01*
X1216844D01*
X1217000Y809844D01*
X1217234Y809922D01*
X1217469Y810000D01*
X1218250Y810312D01*
X1219031Y810703D01*
X1219187Y810781D01*
X1219499Y810937D01*
X1220046Y811172D01*
X1220593Y811484D01*
X1220671D01*
X1220749Y811562D01*
X1221140Y811718D01*
X1221686Y811953D01*
X1222233Y812265D01*
Y812187D01*
X1222311Y812031D01*
X1222389Y811953D01*
X1222467Y811718D01*
X1222389Y811640D01*
X1222155Y811406D01*
X1221764Y811094D01*
X1221218Y810625D01*
X1220593Y810078D01*
X1219812Y809610D01*
X1218172Y808516D01*
X1218093Y808438D01*
X1217781Y808360D01*
X1217234Y808126D01*
X1216609Y807891D01*
X1215828Y807735D01*
X1214891Y807501D01*
X1213876Y807423D01*
X1212704D01*
X1212392Y807501D01*
X1212236Y807579D01*
X1211767D01*
X1211455Y807657D01*
X1210986Y807735D01*
X1210361Y807891D01*
X1209736Y808204D01*
X1209033Y808516D01*
X1208487Y809063D01*
X1207940Y809688D01*
X1207862Y809766D01*
X1207784Y810000D01*
X1207549Y810391D01*
X1207393Y810937D01*
X1207237Y811562D01*
X1207081Y812265D01*
X1207003Y813124D01*
X1207081Y813983D01*
Y814140D01*
X1207159Y814452D01*
X1207315Y814843D01*
X1207471Y815389D01*
X1207549Y815546D01*
X1207627Y815858D01*
Y816248D01*
X1207549Y816717D01*
X1207471Y816795D01*
X1207315Y817029D01*
X1207081Y817264D01*
X1206612Y817498D01*
X1206456Y817576D01*
X1206143Y817732D01*
X1205753Y817967D01*
X1205284Y818201D01*
X1205206Y818279D01*
X1204894Y818435D01*
X1204503Y818748D01*
X1204035Y819138D01*
X1203957Y819216D01*
X1203722Y819529D01*
X1203410Y819919D01*
X1203175Y820544D01*
X1203253D01*
X1203332Y820466D01*
X1203722Y820310D01*
X1204269Y820154D01*
X1204816Y819919D01*
X1204972Y819841D01*
X1205284Y819685D01*
X1205753Y819451D01*
X1206300Y819216D01*
X1206378D01*
X1206534Y819138D01*
X1206768Y819060D01*
X1207081Y818982D01*
X1207784Y818826D01*
X1208409D01*
X1208487Y818904D01*
X1208877Y819060D01*
X1209346Y819451D01*
X1209658Y819763D01*
X1209971Y820154D01*
X1210049Y820310D01*
X1210361Y820622D01*
X1210752Y821169D01*
X1211376Y821872D01*
X1212079Y822575D01*
X1212860Y823356D01*
X1213798Y824215D01*
X1214735Y824918D01*
X1214891Y824996D01*
X1215204Y825230D01*
X1215750Y825543D01*
X1216531Y825934D01*
X1217469Y826402D01*
X1218562Y826871D01*
X1219734Y827261D01*
X1220983Y827574D01*
X1221140D01*
X1221530Y827652D01*
X1222077Y827730D01*
X1222702Y827808D01*
X1224654D01*
X1224889Y827730D01*
D02*
G37*
G36*
X1319396Y827964D02*
X1319240Y827730D01*
X1319083Y827417D01*
X1318927Y826949D01*
X1318380Y825934D01*
X1317755Y824684D01*
Y824606D01*
X1317599Y824371D01*
X1317443Y824059D01*
X1317287Y823590D01*
X1316740Y822575D01*
X1316115Y821325D01*
X1316037Y821247D01*
X1315959Y821013D01*
X1315725Y820622D01*
X1315490Y820154D01*
X1315178Y819607D01*
X1314866Y818982D01*
X1314084Y817576D01*
X1314006Y817498D01*
X1313928Y817264D01*
X1313694Y816873D01*
X1313460Y816327D01*
X1313147Y815780D01*
X1312835Y815077D01*
X1312132Y813671D01*
Y813593D01*
X1311976Y813359D01*
X1311898Y813046D01*
X1311741Y812734D01*
Y812656D01*
X1311663Y812421D01*
X1311585Y812031D01*
X1311507Y811640D01*
Y811562D01*
Y811484D01*
X1311585Y811015D01*
X1311741Y810469D01*
X1312132Y810000D01*
X1312288Y809922D01*
X1312601Y809844D01*
X1313147D01*
X1313460Y809922D01*
X1313850Y810078D01*
X1313928D01*
X1314006Y810156D01*
X1314475Y810469D01*
X1315100Y810937D01*
X1315725Y811484D01*
X1315803D01*
X1315881Y811640D01*
X1316350Y811953D01*
X1316896Y812499D01*
X1317599Y813046D01*
X1317677Y813124D01*
X1317990Y813359D01*
X1318380Y813749D01*
X1318771Y814140D01*
X1318849Y814218D01*
X1319161Y814530D01*
X1319474Y814921D01*
X1319942Y815311D01*
X1320099Y815389D01*
X1320255Y815467D01*
X1320489Y815546D01*
X1320724D01*
X1321114Y815624D01*
Y815546D01*
Y815467D01*
X1321192Y814999D01*
Y814921D01*
Y814843D01*
X1321114Y814452D01*
X1321036Y814374D01*
X1320880Y814062D01*
X1320489Y813671D01*
X1320099Y813124D01*
X1319630Y812578D01*
X1319005Y811875D01*
X1317755Y810547D01*
X1317677Y810469D01*
X1317443Y810312D01*
X1317052Y810000D01*
X1316506Y809610D01*
X1315881Y809219D01*
X1315100Y808750D01*
X1314241Y808360D01*
X1313304Y807969D01*
X1313147D01*
X1312835Y807891D01*
X1312444Y807813D01*
X1311898Y807735D01*
X1311429D01*
X1310960Y807813D01*
X1310414Y807891D01*
X1310336D01*
X1310179Y807969D01*
X1309945Y808047D01*
X1309554Y808126D01*
X1308851Y808438D01*
X1308227Y808985D01*
Y809063D01*
X1308071Y809141D01*
X1307836Y809610D01*
X1307524Y810234D01*
X1307289Y811094D01*
Y811172D01*
Y811328D01*
X1307211Y811640D01*
Y812031D01*
X1307289Y812890D01*
X1307446Y813827D01*
Y813905D01*
X1307524Y814062D01*
X1307602Y814296D01*
X1307758Y814608D01*
X1308071Y815389D01*
X1308461Y816327D01*
Y816405D01*
X1308539Y816483D01*
X1308695Y816717D01*
X1308851Y817029D01*
X1309164Y817732D01*
X1309633Y818592D01*
Y818670D01*
X1309711Y818748D01*
X1309867Y818982D01*
X1310023Y819295D01*
X1310336Y819997D01*
X1310804Y820857D01*
X1309008D01*
X1308695Y820935D01*
X1308617D01*
X1308383Y821013D01*
X1307992Y821091D01*
X1307602Y821169D01*
X1307524Y821247D01*
X1307289Y821325D01*
X1306977Y821481D01*
X1306665Y821638D01*
Y821716D01*
X1306508Y821794D01*
X1306352Y822262D01*
Y822341D01*
X1306274Y822497D01*
Y822731D01*
Y822965D01*
Y823044D01*
X1306352Y823122D01*
X1306508Y823278D01*
X1306665Y823434D01*
X1306743Y823512D01*
X1306899Y823590D01*
X1307055Y823668D01*
X1307758D01*
X1308305Y823746D01*
X1308930D01*
X1309711Y823903D01*
X1310570Y824137D01*
X1311429Y824371D01*
X1312288Y824762D01*
X1312366Y824840D01*
X1312679Y824996D01*
X1313147Y825230D01*
X1313694Y825543D01*
X1314397Y825855D01*
X1315178Y826246D01*
X1316896Y827183D01*
X1316974Y827261D01*
X1317209Y827339D01*
X1317599Y827574D01*
X1317990Y827730D01*
X1318068Y827808D01*
X1318380Y827886D01*
X1318849Y827964D01*
X1319396Y828042D01*
Y827964D01*
D02*
G37*
G36*
X1197474Y839446D02*
X1197942Y839368D01*
X1198489Y839211D01*
X1199114Y838977D01*
X1199583Y838665D01*
X1200051Y838196D01*
X1200129Y838118D01*
X1200208Y837962D01*
X1200364Y837649D01*
X1200520Y837259D01*
X1200598Y836712D01*
X1200676Y836087D01*
X1200598Y835384D01*
X1200364Y834603D01*
Y834525D01*
X1200286Y834447D01*
X1200129Y834056D01*
X1199895Y833431D01*
X1199583Y832807D01*
X1199504Y832651D01*
X1199270Y832260D01*
X1198958Y831713D01*
X1198645Y831088D01*
Y831010D01*
X1198567Y830932D01*
X1198255Y830463D01*
X1197864Y829761D01*
X1197318Y828823D01*
X1196693Y827652D01*
X1195912Y826480D01*
X1195131Y825152D01*
X1194350Y823746D01*
Y823668D01*
X1194271Y823590D01*
X1193959Y823122D01*
X1193568Y822341D01*
X1193022Y821403D01*
X1192397Y820310D01*
X1191694Y819060D01*
X1190991Y817732D01*
X1190210Y816327D01*
X1190132Y816170D01*
X1189976Y815780D01*
X1189663Y815233D01*
X1189429Y814530D01*
Y814452D01*
Y814374D01*
X1189273Y813905D01*
X1189195Y813280D01*
X1189038Y812578D01*
Y812499D01*
Y812421D01*
Y811953D01*
X1189195Y811484D01*
X1189507Y811015D01*
X1189585Y810937D01*
X1189898Y810859D01*
X1190444D01*
X1191225Y810937D01*
X1191303D01*
X1191460Y811015D01*
X1191694Y811094D01*
X1192006Y811172D01*
X1192709Y811562D01*
X1193412Y812109D01*
X1193490Y812187D01*
X1193568Y812265D01*
X1194037Y812656D01*
X1194584Y813280D01*
X1195287Y813983D01*
X1195365Y814062D01*
X1195521Y814296D01*
X1195834Y814608D01*
X1196224Y814999D01*
X1196302Y815077D01*
X1196536Y815311D01*
X1196849Y815624D01*
X1197161Y816014D01*
X1197240Y816092D01*
X1197552Y816248D01*
X1197864Y816483D01*
X1198333Y816639D01*
X1198724D01*
X1199114Y816561D01*
X1199504Y816248D01*
X1199583Y816170D01*
X1199739Y815936D01*
X1199895Y815546D01*
Y815155D01*
X1199817Y815077D01*
X1199739Y814843D01*
X1199504Y814530D01*
X1199270Y814140D01*
X1199192Y814062D01*
X1199036Y813827D01*
X1198724Y813515D01*
X1198333Y813124D01*
X1197318Y812109D01*
X1196146Y810937D01*
X1196068Y810859D01*
X1195912Y810703D01*
X1195521Y810469D01*
X1195131Y810078D01*
X1194662Y809688D01*
X1194037Y809297D01*
X1192709Y808438D01*
X1192553Y808360D01*
X1192085Y808126D01*
X1191460Y807891D01*
X1190601Y807657D01*
X1189663Y807501D01*
X1188726D01*
X1187711Y807735D01*
X1187242Y807891D01*
X1186773Y808204D01*
X1186695Y808282D01*
X1186383Y808516D01*
X1186070Y808985D01*
X1185602Y809531D01*
X1185211Y810234D01*
X1184821Y811172D01*
X1184586Y812187D01*
X1184430Y813359D01*
Y813437D01*
X1184508Y813671D01*
X1184586Y814062D01*
X1184665Y814608D01*
X1184743Y815155D01*
X1184899Y815858D01*
X1185289Y817264D01*
Y817342D01*
X1185368Y817576D01*
X1185524Y817967D01*
X1185680Y818513D01*
X1185914Y819060D01*
X1186149Y819763D01*
X1186852Y821091D01*
X1186930Y821169D01*
X1187086Y821403D01*
X1187320Y821872D01*
X1187633Y822341D01*
X1187945Y822965D01*
X1188414Y823590D01*
X1189351Y824996D01*
X1189429Y825074D01*
X1189585Y825309D01*
X1189819Y825699D01*
X1190210Y826246D01*
X1190601Y826793D01*
X1191069Y827496D01*
X1192006Y828901D01*
Y828979D01*
X1192085Y829058D01*
X1192397Y829448D01*
X1192866Y830073D01*
X1193334Y830698D01*
Y830776D01*
X1193490Y830854D01*
X1193803Y831323D01*
X1194271Y831869D01*
X1194818Y832572D01*
X1194896Y832651D01*
X1194974Y832807D01*
X1195287Y833275D01*
X1195365Y833353D01*
X1195443Y833510D01*
X1195677Y834056D01*
Y834213D01*
Y834447D01*
Y834837D01*
X1195443Y835150D01*
X1195365Y835228D01*
X1195209Y835306D01*
X1194896Y835384D01*
X1194428Y835306D01*
X1194350D01*
X1194193Y835228D01*
X1193647Y834994D01*
X1193568D01*
X1193412Y834915D01*
X1192944Y834603D01*
X1192866D01*
X1192787Y834447D01*
X1192397Y834056D01*
Y833978D01*
X1192241Y833900D01*
X1191850Y833588D01*
X1191772Y833510D01*
X1191616Y833431D01*
X1191303Y833197D01*
X1190913Y833041D01*
X1190835Y832963D01*
X1190601Y832885D01*
X1190288Y832807D01*
X1190054D01*
X1189976Y832885D01*
X1189741Y833041D01*
X1189507Y833353D01*
X1189429Y833744D01*
Y833822D01*
Y834135D01*
X1189507Y834525D01*
X1189663Y834915D01*
X1189741Y834994D01*
X1189819Y835306D01*
X1190054Y835697D01*
X1190288Y836087D01*
X1190366Y836165D01*
X1190522Y836400D01*
X1190757Y836712D01*
X1191069Y837103D01*
X1191147Y837181D01*
X1191303Y837337D01*
X1191538Y837493D01*
X1191850Y837805D01*
X1192631Y838352D01*
X1193568Y838899D01*
X1193647D01*
X1193803Y838977D01*
X1194115Y839055D01*
X1194506Y839211D01*
X1195521Y839368D01*
X1196615Y839524D01*
X1197005D01*
X1197474Y839446D01*
D02*
G37*
%LPC*%
G36*
X1114682Y870766D02*
X1113198Y870688D01*
X1111558Y870453D01*
X1111402D01*
X1111012Y870297D01*
X1110465Y870063D01*
X1109684Y869828D01*
X1108825Y869438D01*
X1107965Y868969D01*
X1107028Y868344D01*
X1106169Y867642D01*
X1106091Y867563D01*
X1105779Y867251D01*
X1105388Y866782D01*
X1104919Y866236D01*
X1104295Y865455D01*
X1103670Y864673D01*
X1103123Y863736D01*
X1102498Y862721D01*
X1102420Y862565D01*
X1102264Y862174D01*
X1101951Y861627D01*
X1101639Y860846D01*
X1101327Y859909D01*
X1101014Y858816D01*
X1100780Y857722D01*
X1100624Y856551D01*
Y856394D01*
Y856004D01*
X1100546Y855379D01*
Y854520D01*
X1100624Y853504D01*
X1100702Y852411D01*
X1100858Y851239D01*
X1101092Y850068D01*
Y849990D01*
X1101170Y849755D01*
X1101248Y849443D01*
X1101405Y848974D01*
X1101561Y848428D01*
X1101717Y847725D01*
X1102029Y846944D01*
X1102264Y846163D01*
X1102967Y844288D01*
X1103826Y842336D01*
X1104841Y840305D01*
X1106091Y838274D01*
X1106169Y838196D01*
X1106247Y838040D01*
X1106481Y837727D01*
X1106716Y837415D01*
X1107106Y836946D01*
X1107497Y836400D01*
X1108590Y835150D01*
X1109840Y833666D01*
X1111402Y832104D01*
X1113042Y830463D01*
X1114917Y828901D01*
X1115073Y828823D01*
X1115385Y828511D01*
X1115854Y828198D01*
X1116479Y827808D01*
X1116635Y827730D01*
X1116947Y827496D01*
X1117494Y827261D01*
X1118041Y826949D01*
X1118119Y826871D01*
X1118431Y826793D01*
X1118978Y826636D01*
X1119603Y826558D01*
X1121087D01*
X1121868Y826793D01*
X1122727Y827183D01*
X1122805Y827261D01*
X1123040Y827417D01*
X1123430Y827808D01*
X1123821Y828198D01*
X1124289Y828823D01*
X1124680Y829526D01*
X1124914Y830307D01*
X1125070Y831245D01*
Y831323D01*
Y831479D01*
Y831713D01*
Y832104D01*
Y832885D01*
X1124914Y833822D01*
Y833900D01*
X1124836Y834056D01*
X1124758Y834291D01*
X1124680Y834603D01*
X1124446Y835384D01*
X1124055Y836243D01*
X1123977Y836321D01*
X1123899Y836556D01*
X1123665Y836946D01*
X1123274Y837415D01*
X1122805Y837962D01*
X1122181Y838508D01*
X1121400Y839055D01*
X1120462Y839524D01*
X1120384Y839602D01*
X1119994Y839680D01*
X1119525Y839836D01*
X1118900Y839914D01*
X1118119Y839992D01*
X1117338D01*
X1116479Y839836D01*
X1115620Y839524D01*
X1115463Y839446D01*
X1115151Y839289D01*
X1115073D01*
X1114995Y839211D01*
X1114604Y839055D01*
X1114526D01*
X1114370Y838977D01*
X1114058D01*
X1113667Y838899D01*
X1112730Y838977D01*
X1112183Y839133D01*
X1111636Y839368D01*
X1111558Y839446D01*
X1111402Y839524D01*
X1110933Y839992D01*
X1110621Y840305D01*
X1110309Y840695D01*
X1110074Y841242D01*
X1109918Y841789D01*
Y841867D01*
Y842101D01*
X1109840Y842414D01*
Y842804D01*
X1109918Y843741D01*
X1110152Y844835D01*
Y844913D01*
X1110230Y845069D01*
X1110387Y845303D01*
X1110543Y845694D01*
X1111090Y846475D01*
X1111871Y847256D01*
X1111949Y847334D01*
X1112105Y847412D01*
X1112417Y847647D01*
X1112730Y847881D01*
X1113667Y848350D01*
X1114214Y848506D01*
X1114761Y848662D01*
X1116791D01*
X1117963Y848428D01*
X1118119D01*
X1118431Y848350D01*
X1118900Y848193D01*
X1119525Y847959D01*
X1120228Y847647D01*
X1121009Y847334D01*
X1121790Y846866D01*
X1122571Y846319D01*
X1122649Y846241D01*
X1122884Y846006D01*
X1123274Y845694D01*
X1123743Y845303D01*
X1124211Y844757D01*
X1124836Y844054D01*
X1125383Y843351D01*
X1126008Y842570D01*
X1126086Y842492D01*
X1126242Y842257D01*
X1126476Y841945D01*
X1126711Y841554D01*
X1126789Y841476D01*
X1126945Y841242D01*
X1127179Y840852D01*
X1127492Y840383D01*
Y840461D01*
X1127648Y840617D01*
X1127804Y840930D01*
X1127960Y841320D01*
X1128507Y842336D01*
X1129054Y843429D01*
Y843507D01*
X1129210Y843663D01*
X1129288Y843976D01*
X1129522Y844366D01*
X1129913Y845303D01*
X1130460Y846319D01*
Y846397D01*
X1130538Y846475D01*
Y846709D01*
Y846944D01*
Y847022D01*
Y847178D01*
X1130382Y847569D01*
Y847647D01*
X1130303Y847803D01*
X1130147Y848115D01*
X1129991Y848506D01*
X1129522Y849443D01*
X1128976Y850536D01*
Y850615D01*
X1128820Y850771D01*
X1128741Y851083D01*
X1128507Y851552D01*
X1128038Y852567D01*
X1127492Y853739D01*
X1127414D01*
X1127257Y853661D01*
X1126789Y853426D01*
X1126711D01*
X1126554Y853270D01*
X1126086Y853036D01*
X1126008D01*
X1125930Y852958D01*
X1125695Y852802D01*
X1125383Y852645D01*
X1124602Y852333D01*
X1123508Y851942D01*
X1122259Y851708D01*
X1120853Y851552D01*
X1119291D01*
X1118510Y851708D01*
X1117651Y851942D01*
X1117572D01*
X1117494Y852020D01*
X1117260Y852099D01*
X1116947Y852255D01*
X1116167Y852567D01*
X1115151Y853036D01*
X1114136Y853739D01*
X1113042Y854520D01*
X1111949Y855457D01*
X1111012Y856629D01*
Y856707D01*
X1110933Y856785D01*
X1110621Y857254D01*
X1110309Y857956D01*
X1109996Y858816D01*
Y858894D01*
X1109918Y858972D01*
X1109840Y859519D01*
Y860221D01*
X1109918Y861081D01*
Y861159D01*
X1109996Y861315D01*
X1110074Y861627D01*
X1110152Y861940D01*
X1110465Y862721D01*
X1111012Y863424D01*
Y863502D01*
X1111168Y863580D01*
X1111558Y863971D01*
X1112261Y864439D01*
X1113198Y864830D01*
X1113277D01*
X1113433Y864908D01*
X1113901D01*
X1114604Y864830D01*
X1114917Y864752D01*
X1115307Y864595D01*
X1115385D01*
X1115463Y864517D01*
X1115932Y864205D01*
X1116479Y863736D01*
X1117026Y863111D01*
X1117104Y863033D01*
X1117338Y862721D01*
X1117651Y862252D01*
X1118041Y861705D01*
X1118119Y861549D01*
X1118353Y861237D01*
X1118666Y860768D01*
X1118978Y860221D01*
X1119056Y860143D01*
X1119135Y860065D01*
X1119603Y859597D01*
X1120228Y859128D01*
X1120697Y858894D01*
X1121165Y858738D01*
X1121400D01*
X1121634Y858659D01*
X1121946D01*
X1122805Y858738D01*
X1123274Y858894D01*
X1123743Y859128D01*
X1123821D01*
X1123977Y859284D01*
X1124211Y859441D01*
X1124524Y859675D01*
X1124836Y860065D01*
X1125148Y860456D01*
X1125461Y860925D01*
X1125617Y861549D01*
Y861627D01*
X1125695Y861862D01*
Y862174D01*
Y862565D01*
X1125617Y863111D01*
X1125461Y863658D01*
X1125227Y864283D01*
X1124914Y864908D01*
Y864986D01*
X1124836Y865064D01*
X1124524Y865455D01*
X1124055Y866079D01*
X1123430Y866782D01*
X1122571Y867642D01*
X1121634Y868423D01*
X1120540Y869204D01*
X1119369Y869828D01*
X1119213Y869907D01*
X1118744Y870063D01*
X1118041Y870297D01*
X1117104Y870531D01*
X1116010Y870688D01*
X1114682Y870766D01*
D02*
G37*
G36*
X1140613Y847022D02*
X1140301D01*
X1139910Y846944D01*
X1139520Y846866D01*
X1138426Y846631D01*
X1137880Y846319D01*
X1137411Y846006D01*
X1137489Y845928D01*
X1137567Y845772D01*
X1137802Y845538D01*
X1138114Y845303D01*
X1138973Y844679D01*
X1140067Y844132D01*
X1140145D01*
X1140379Y844054D01*
X1140691Y843976D01*
X1141082Y843898D01*
X1142097Y843741D01*
X1142566Y843820D01*
X1143113Y843898D01*
X1143191Y843976D01*
X1143503Y844054D01*
X1143737Y844366D01*
X1143972Y844679D01*
Y844757D01*
Y845069D01*
X1143894Y845382D01*
X1143659Y845850D01*
X1143581Y845928D01*
X1143425Y846006D01*
X1143191Y846241D01*
X1142878Y846397D01*
X1142410Y846631D01*
X1141941Y846787D01*
X1141316Y846944D01*
X1140613Y847022D01*
D02*
G37*
G36*
X1128585Y824840D02*
X1128507Y824762D01*
X1128429Y824606D01*
X1128195Y824371D01*
X1127882Y824059D01*
X1127023Y823278D01*
X1126008Y822497D01*
X1125930D01*
X1125773Y822341D01*
X1125461Y822184D01*
X1124992Y822028D01*
X1124446Y821794D01*
X1123821Y821638D01*
X1123118Y821403D01*
X1122337Y821247D01*
X1122415Y821169D01*
X1122571Y821013D01*
X1122884Y820700D01*
X1123274Y820310D01*
X1124289Y819373D01*
X1125305Y818357D01*
X1125383Y818279D01*
X1125539Y818123D01*
X1125852Y817889D01*
X1126164Y817498D01*
X1127023Y816717D01*
X1128038Y815702D01*
X1128117Y815624D01*
X1128273Y815546D01*
X1128741Y815233D01*
X1128976D01*
X1129210Y815311D01*
X1129522Y815546D01*
X1129601Y815624D01*
X1129757Y815780D01*
X1130069Y816092D01*
X1130382Y816405D01*
X1131241Y817264D01*
X1132256Y818279D01*
X1132334Y818357D01*
X1132490Y818513D01*
X1132803Y818826D01*
X1133115Y819138D01*
X1133974Y819997D01*
X1134834Y820857D01*
X1134755Y820935D01*
X1134599Y821013D01*
X1134287Y821247D01*
X1133896Y821481D01*
X1132881Y822106D01*
X1131709Y822887D01*
X1131631Y822965D01*
X1131475Y823044D01*
X1131163Y823278D01*
X1130772Y823512D01*
X1129757Y824137D01*
X1128585Y824840D01*
D02*
G37*
G36*
X1178885Y836400D02*
X1178338D01*
X1177635Y836321D01*
X1176854Y836087D01*
X1176776Y836009D01*
X1176385Y835931D01*
X1175917Y835697D01*
X1175370Y835306D01*
X1174667Y834915D01*
X1173964Y834447D01*
X1173261Y833822D01*
X1172636Y833119D01*
X1172558Y833041D01*
X1172324Y832807D01*
X1172011Y832338D01*
X1171621Y831869D01*
X1171230Y831167D01*
X1170762Y830463D01*
X1170293Y829604D01*
X1169825Y828745D01*
X1169903Y828667D01*
X1169981Y828433D01*
X1170059Y828355D01*
X1170137Y828198D01*
X1170215D01*
X1170371Y828277D01*
X1170684Y828355D01*
X1171074Y828433D01*
X1172011Y828667D01*
X1173027Y828979D01*
X1173105D01*
X1173261Y829058D01*
X1173574Y829136D01*
X1173886Y829214D01*
X1174745Y829526D01*
X1175761Y829839D01*
X1175839D01*
X1175917Y829917D01*
X1176385Y830073D01*
X1176932Y830307D01*
X1177635Y830698D01*
X1177713D01*
X1177791Y830776D01*
X1178182Y831088D01*
X1178729Y831479D01*
X1179275Y831947D01*
X1179353D01*
X1179432Y832104D01*
X1179744Y832416D01*
X1180135Y832963D01*
X1180369Y833744D01*
Y833822D01*
X1180447Y833978D01*
Y834447D01*
Y835072D01*
X1180213Y835619D01*
X1180135Y835697D01*
X1179900Y836009D01*
X1179432Y836243D01*
X1178885Y836400D01*
D02*
G37*
G36*
X1223014Y826246D02*
X1222780Y826168D01*
X1222702D01*
X1222389Y826090D01*
X1221921Y825934D01*
X1221530Y825699D01*
X1221452Y825621D01*
X1221140Y825465D01*
X1220671Y825230D01*
X1220124Y824918D01*
X1219499Y824449D01*
X1218875Y823903D01*
X1217547Y822653D01*
X1217469Y822575D01*
X1217312Y822341D01*
X1217000Y821950D01*
X1216609Y821481D01*
X1216141Y820857D01*
X1215594Y820154D01*
X1214501Y818592D01*
X1214969D01*
X1215282Y818513D01*
X1215985Y818592D01*
X1216844Y818670D01*
X1216922D01*
X1217000Y818748D01*
X1217469Y818826D01*
X1218093Y819060D01*
X1218796Y819295D01*
X1218875D01*
X1219031Y819373D01*
X1219343Y819529D01*
X1219734Y819685D01*
X1220671Y820154D01*
X1221686Y820700D01*
X1221764Y820779D01*
X1221921Y820857D01*
X1222155Y821091D01*
X1222389Y821325D01*
X1223092Y822106D01*
X1223795Y823044D01*
X1223873Y823122D01*
X1224029Y823434D01*
X1224186Y823903D01*
X1224342Y824371D01*
Y824528D01*
Y824840D01*
X1224264Y825230D01*
X1224029Y825699D01*
X1223951Y825777D01*
X1223639Y826012D01*
X1223248Y826168D01*
X1223014Y826246D01*
D02*
G37*
%LPD*%
D10*
X2142500Y456000D02*
G03*
X2142500Y456000I-500J0D01*
G01*
X2489450Y772800D02*
G03*
X2489450Y772800I-1000J0D01*
G01*
X281358Y618207D02*
G03*
X281358Y618207I-1000J0D01*
G01*
Y413208D02*
G03*
X281358Y413208I-1000J0D01*
G01*
X2332500Y630000D02*
G03*
X2332500Y630000I-500J0D01*
G01*
X2350500Y663000D02*
G03*
X2350500Y663000I-500J0D01*
G01*
X2368500Y630000D02*
G03*
X2368500Y630000I-500J0D01*
G01*
X2383500Y458000D02*
G03*
X2383500Y458000I-500J0D01*
G01*
X2351300Y486700D02*
G03*
X2351300Y486700I-500J0D01*
G01*
X2227825Y480350D02*
G03*
X2234175Y480350I3175J0D01*
G01*
X2509000Y709000D02*
X2515000D01*
X2509000Y725000D02*
X2515000D01*
Y709000D02*
Y725000D01*
X2513100Y709000D02*
Y725000D01*
X848000Y312001D02*
X872000D01*
X851500Y313000D02*
Y329500D01*
X848000Y330000D02*
X872000D01*
Y312001D02*
Y315500D01*
Y326500D02*
Y330000D01*
X848000Y312000D02*
Y330000D01*
Y299999D02*
X872000D01*
X868500Y282500D02*
Y299000D01*
X848000Y282000D02*
X872000D01*
X848000Y296500D02*
Y299999D01*
Y282000D02*
Y285500D01*
X872000Y282000D02*
Y300000D01*
X2135000Y426000D02*
X2141000D01*
X2135000Y412000D02*
X2141000D01*
X2172000Y426000D02*
X2178000D01*
X2172000Y412000D02*
X2178000D01*
X2485000Y742000D02*
X2500000D01*
X2485000Y774500D02*
X2500000D01*
X2208000Y628000D02*
X2245000D01*
X2208000Y674000D02*
X2245000D01*
X1976966Y291052D02*
X1992966D01*
X1976966Y292952D02*
X1992966D01*
X1976966Y286952D02*
Y292952D01*
X1992966Y286952D02*
Y292952D01*
X1852034Y704948D02*
X1868034D01*
X1852034Y703048D02*
X1868034D01*
Y709048D01*
X1852034Y703048D02*
Y709048D01*
X1877000Y704900D02*
X1893000D01*
X1877000Y703000D02*
X1893000D01*
Y709000D01*
X1877000Y703000D02*
Y709000D01*
X1902000Y704900D02*
X1918000D01*
X1902000Y703000D02*
X1918000D01*
Y709000D01*
X1902000Y703000D02*
Y709000D01*
X1927000Y704900D02*
X1943000D01*
X1927000Y703000D02*
X1943000D01*
Y709000D01*
X1927000Y703000D02*
Y709000D01*
X1952000Y704900D02*
X1968000D01*
X1952000Y703000D02*
X1968000D01*
Y709000D01*
X1952000Y703000D02*
Y709000D01*
X1977000Y704900D02*
X1993000D01*
X1977000Y703000D02*
X1993000D01*
Y709000D01*
X1977000Y703000D02*
Y709000D01*
X1852000Y813900D02*
X1868000D01*
X1852000Y812000D02*
X1868000D01*
Y818000D01*
X1852000Y812000D02*
Y818000D01*
X1877000Y813900D02*
X1893000D01*
X1877000Y812000D02*
X1893000D01*
Y818000D01*
X1877000Y812000D02*
Y818000D01*
X1902000Y813900D02*
X1918000D01*
X1902000Y812000D02*
X1918000D01*
Y818000D01*
X1902000Y812000D02*
Y818000D01*
X1951966Y291052D02*
X1967966D01*
X1951966Y292952D02*
X1967966D01*
X1951966Y286952D02*
Y292952D01*
X1967966Y286952D02*
Y292952D01*
X1557000Y648000D02*
X1563000D01*
X1557000Y632000D02*
X1563000D01*
X1557000D02*
Y648000D01*
X1558900Y632000D02*
Y648000D01*
X1557000Y468000D02*
X1563000D01*
X1557000Y452000D02*
X1563000D01*
X1557000D02*
Y468000D01*
X1558900Y452000D02*
Y468000D01*
X1926966Y291052D02*
X1942966D01*
X1926966Y292952D02*
X1942966D01*
X1926966Y286952D02*
Y292952D01*
X1942966Y286952D02*
Y292952D01*
X1901966Y291052D02*
X1917966D01*
X1901966Y292952D02*
X1917966D01*
X1901966Y286952D02*
Y292952D01*
X1917966Y286952D02*
Y292952D01*
X1876967Y291052D02*
X1892967D01*
X1876967Y292952D02*
X1892967D01*
X1876967Y286952D02*
Y292952D01*
X1892967Y286952D02*
Y292952D01*
X1852000Y291100D02*
X1868000D01*
X1852000Y293000D02*
X1868000D01*
X1852000Y287000D02*
Y293000D01*
X1868000Y287000D02*
Y293000D01*
X1977000Y391100D02*
X1993000D01*
X1977000Y393000D02*
X1993000D01*
X1977000Y387000D02*
Y393000D01*
X1993000Y387000D02*
Y393000D01*
X1951967Y391052D02*
X1967967D01*
X1951967Y392952D02*
X1967967D01*
X1951967Y386952D02*
Y392952D01*
X1967967Y386952D02*
Y392952D01*
X2053000Y813900D02*
X2069000D01*
X2053000Y812000D02*
X2069000D01*
Y818000D01*
X2053000Y812000D02*
Y818000D01*
X1901967Y391052D02*
X1917968D01*
X1901967Y392952D02*
X1917968D01*
X1901967Y386952D02*
Y392952D01*
X1917968Y386952D02*
Y392952D01*
X2052000Y291100D02*
X2068000D01*
X2052000Y293000D02*
X2068000D01*
X2052000Y287000D02*
Y293000D01*
X2068000Y287000D02*
Y293000D01*
X2077000Y291100D02*
X2093000D01*
X2077000Y293000D02*
X2093000D01*
X2077000Y287000D02*
Y293000D01*
X2093000Y287000D02*
Y293000D01*
X1952000Y813900D02*
X1968000D01*
X1952000Y812000D02*
X1968000D01*
Y818000D01*
X1952000Y812000D02*
Y818000D01*
X1977000Y813900D02*
X1993000D01*
X1977000Y812000D02*
X1993000D01*
Y818000D01*
X1977000Y812000D02*
Y818000D01*
X1927000Y813900D02*
X1943000D01*
X1927000Y812000D02*
X1943000D01*
Y818000D01*
X1927000Y812000D02*
Y818000D01*
X1926967Y391052D02*
X1942967D01*
X1926967Y392952D02*
X1942967D01*
X1926967Y386952D02*
Y392952D01*
X1942967Y386952D02*
Y392952D01*
X1876968Y391052D02*
X1892968D01*
X1876968Y392952D02*
X1892968D01*
X1876968Y386952D02*
Y392952D01*
X1892968Y386952D02*
Y392952D01*
X1851968Y391052D02*
X1867968D01*
X1851968Y392952D02*
X1867968D01*
X1851968Y386952D02*
Y392952D01*
X1867968Y386952D02*
Y392952D01*
X2077000Y813900D02*
X2093000D01*
X2077000Y812000D02*
X2093000D01*
Y818000D01*
X2077000Y812000D02*
Y818000D01*
X695000Y568500D02*
X710000D01*
X695000Y601000D02*
X710000D01*
X695000Y651000D02*
X710000D01*
X695000Y618500D02*
X710000D01*
X695000Y701000D02*
X710000D01*
X695000Y668500D02*
X710000D01*
X695000Y751000D02*
X710000D01*
X695000Y718500D02*
X710000D01*
X695000Y801000D02*
X710000D01*
X695000Y768500D02*
X710000D01*
X695000Y851000D02*
X710000D01*
X695000Y818500D02*
X710000D01*
X695000Y336000D02*
X710000D01*
X695000Y303500D02*
X710000D01*
X695000Y386000D02*
X710000D01*
X695000Y353500D02*
X710000D01*
X695000Y436000D02*
X710000D01*
X695000Y403500D02*
X710000D01*
X695000Y486000D02*
X710000D01*
X695000Y453500D02*
X710000D01*
X695000Y536000D02*
X710000D01*
X695000Y503500D02*
X710000D01*
X695000Y286000D02*
X710000D01*
X695000Y253500D02*
X710000D01*
X440000Y819000D02*
X455000D01*
X440000Y851500D02*
X455000D01*
X575000Y851000D02*
X590000D01*
X575000Y818500D02*
X590000D01*
X575000Y801000D02*
X590000D01*
X575000Y768500D02*
X590000D01*
X576000Y751000D02*
X591000D01*
X576000Y718500D02*
X591000D01*
X575000Y701000D02*
X590000D01*
X575000Y668500D02*
X590000D01*
X440000Y769000D02*
X455000D01*
X440000Y801500D02*
X455000D01*
X1883000Y620000D02*
Y626000D01*
X1869000Y620000D02*
Y626000D01*
X440000Y254000D02*
X455000D01*
X440000Y286500D02*
X455000D01*
X575000Y286000D02*
X590000D01*
X575000Y253500D02*
X590000D01*
X575000Y336000D02*
X590000D01*
X575000Y303500D02*
X590000D01*
X575000Y386000D02*
X590000D01*
X575000Y353500D02*
X590000D01*
X575000Y436000D02*
X590000D01*
X575000Y403500D02*
X590000D01*
X440000Y304000D02*
X455000D01*
X440000Y336500D02*
X455000D01*
X1858000Y472000D02*
Y478000D01*
X1872000Y472000D02*
Y478000D01*
X1852000Y620000D02*
Y626000D01*
X1838000Y620000D02*
Y626000D01*
X1833000Y472000D02*
Y478000D01*
X1847000Y472000D02*
Y478000D01*
X1700000Y408000D02*
X1715000D01*
X1700000Y375500D02*
X1715000D01*
X1660000Y533000D02*
X1675000D01*
X1660000Y565500D02*
X1675000D01*
X1660000Y721500D02*
X1675000D01*
X1700000Y881000D02*
X1715000D01*
X1700000Y848500D02*
X1715000D01*
X1566000Y385000D02*
Y400000D01*
X1533500Y385000D02*
Y400000D01*
X1534000Y700000D02*
Y715000D01*
X1566500Y700000D02*
Y715000D01*
X2343000Y566000D02*
X2361000D01*
X2357500Y542000D02*
X2361000D01*
X2343001D02*
X2346500D01*
X2361000D02*
Y566000D01*
X2344000Y562500D02*
X2360500D01*
X2343001Y542000D02*
Y566000D01*
X2355000Y621000D02*
X2361000D01*
X2355000Y607000D02*
X2361000D01*
X2371000Y566000D02*
X2389000D01*
X2385500Y542000D02*
X2389000D01*
X2371001D02*
X2374500D01*
X2389000D02*
Y566000D01*
X2372000Y562500D02*
X2388500D01*
X2371001Y542000D02*
Y566000D01*
X2371000Y607000D02*
X2377000D01*
X2371000Y621000D02*
X2377000D01*
X848000Y792000D02*
Y810000D01*
X872000Y806500D02*
Y810000D01*
Y792001D02*
Y795500D01*
X848000Y810000D02*
X872000D01*
X851500Y793000D02*
Y809500D01*
X848000Y792001D02*
X872000D01*
Y762000D02*
Y780000D01*
X848000Y762000D02*
Y765500D01*
Y776500D02*
Y779999D01*
Y762000D02*
X872000D01*
X868500Y762500D02*
Y779000D01*
X848000Y779999D02*
X872000D01*
X848000Y732000D02*
Y750000D01*
X872000Y746500D02*
Y750000D01*
Y732001D02*
Y735500D01*
X848000Y750000D02*
X872000D01*
X851500Y733000D02*
Y749500D01*
X848000Y732001D02*
X872000D01*
X872000Y702000D02*
Y720000D01*
X848000Y702000D02*
Y705500D01*
Y716500D02*
Y719999D01*
Y702000D02*
X872000D01*
X868500Y702500D02*
Y719000D01*
X848000Y719999D02*
X872000D01*
X848000Y672000D02*
Y690000D01*
X872000Y686500D02*
Y690000D01*
Y672001D02*
Y675500D01*
X848000Y690000D02*
X872000D01*
X851500Y673000D02*
Y689500D01*
X848000Y672001D02*
X872000D01*
Y642000D02*
Y660000D01*
X848000Y642000D02*
Y645500D01*
Y656500D02*
Y659999D01*
Y642000D02*
X872000D01*
X868500Y642500D02*
Y659000D01*
X848000Y659999D02*
X872000D01*
X848000Y612000D02*
Y630000D01*
X872000Y626500D02*
Y630000D01*
Y612001D02*
Y615500D01*
X848000Y630000D02*
X872000D01*
X851500Y613000D02*
Y629500D01*
X848000Y612001D02*
X872000D01*
Y582000D02*
Y600000D01*
X848000Y582000D02*
Y585500D01*
Y596500D02*
Y599999D01*
Y582000D02*
X872000D01*
X868500Y582500D02*
Y599000D01*
X848000Y599999D02*
X872000D01*
X848000Y552000D02*
Y570000D01*
X872000Y566500D02*
Y570000D01*
Y552001D02*
Y555500D01*
X848000Y570000D02*
X872000D01*
X851500Y553000D02*
Y569500D01*
X848000Y552001D02*
X872000D01*
Y522000D02*
Y540000D01*
X848000Y522000D02*
Y525500D01*
Y536500D02*
Y539999D01*
Y522000D02*
X872000D01*
X868500Y522500D02*
Y539000D01*
X848000Y539999D02*
X872000D01*
X848000Y492000D02*
Y510000D01*
X872000Y506500D02*
Y510000D01*
Y492001D02*
Y495500D01*
X848000Y510000D02*
X872000D01*
X851500Y493000D02*
Y509500D01*
X848000Y492001D02*
X872000D01*
X872000Y462000D02*
Y480000D01*
X848000Y462000D02*
Y465500D01*
Y476500D02*
Y479999D01*
Y462000D02*
X872000D01*
X868500Y462500D02*
Y479000D01*
X848000Y479999D02*
X872000D01*
X848000Y432000D02*
Y450000D01*
X872000Y446500D02*
Y450000D01*
Y432001D02*
Y435500D01*
X848000Y450000D02*
X872000D01*
X851500Y433000D02*
Y449500D01*
X848000Y432001D02*
X872000D01*
Y402000D02*
Y420000D01*
X848000Y402000D02*
Y405500D01*
Y416500D02*
Y419999D01*
Y402000D02*
X872000D01*
X868500Y402500D02*
Y419000D01*
X848000Y419999D02*
X872000D01*
X848000Y372000D02*
Y390000D01*
X872000Y386500D02*
Y390000D01*
Y372001D02*
Y375500D01*
X848000Y390000D02*
X872000D01*
X851500Y373000D02*
Y389500D01*
X848000Y372001D02*
X872000D01*
Y342000D02*
Y360000D01*
X848000Y342000D02*
Y345500D01*
Y356500D02*
Y359999D01*
Y342000D02*
X872000D01*
X868500Y342500D02*
Y359000D01*
X848000Y359999D02*
X872000D01*
X1823340Y823100D02*
Y837070D01*
X1660640D02*
X1823340D01*
X1660640Y732930D02*
X1823340D01*
Y746900D01*
Y353100D02*
Y367070D01*
X1660640D02*
X1823340D01*
X1660640Y262930D02*
X1823340D01*
Y276900D01*
X1656660Y577930D02*
Y591900D01*
Y577930D02*
X1819360D01*
X1656660Y417930D02*
Y431900D01*
Y417930D02*
X1819360D01*
X1656660Y522070D02*
X1819360D01*
X1656660Y508100D02*
Y522070D01*
X2064000Y454500D02*
Y635500D01*
X2006000Y454500D02*
Y635500D01*
Y454500D02*
X2064000D01*
X2006000Y635500D02*
X2064000D01*
X2219850Y480350D02*
X2227825D01*
X2234175D02*
X2242150D01*
Y429550D02*
Y480350D01*
X2219850Y429550D02*
X2242150D01*
X2219850D02*
Y480350D01*
D11*
X2259250Y635000D02*
G03*
X2259250Y635000I-1250J0D01*
G01*
X1681080Y825640D02*
G03*
X1681080Y825640I-1250J0D01*
G01*
Y355640D02*
G03*
X1681080Y355640I-1250J0D01*
G01*
X1801420Y589360D02*
G03*
X1801420Y589360I-1250J0D01*
G01*
Y429360D02*
G03*
X1801420Y429360I-1250J0D01*
G01*
X2082250Y453450D02*
G03*
X2082250Y453450I-1250J0D01*
G01*
X2203500Y483900D02*
G03*
X2203500Y483900I-1250J0D01*
G01*
X2250000Y856000D02*
X2264000D01*
X2296000D02*
X2310000D01*
X2335000Y831000D01*
X2225000D02*
X2250000Y856000D01*
X2225000Y744000D02*
X2264000D01*
X2296000D02*
X2335000D01*
X2225000D02*
Y831000D01*
X2335000Y744000D02*
Y831000D01*
X2130000Y856000D02*
X2144000D01*
X2176000D02*
X2190000D01*
X2215000Y831000D01*
X2105000D02*
X2130000Y856000D01*
X2105000Y744000D02*
X2144000D01*
X2176000D02*
X2215000D01*
X2105000D02*
Y831000D01*
X2215000Y744000D02*
Y831000D01*
X2296000Y254000D02*
X2310000D01*
X2250000D02*
X2264000D01*
X2225000Y279000D02*
X2250000Y254000D01*
X2310000D02*
X2335000Y279000D01*
X2296000Y366000D02*
X2335000D01*
X2225000D02*
X2264000D01*
X2335000Y279000D02*
Y366000D01*
X2225000Y279000D02*
Y366000D01*
X2176000Y254000D02*
X2190000D01*
X2130000D02*
X2144000D01*
X2105000Y279000D02*
X2130000Y254000D01*
X2190000D02*
X2215000Y279000D01*
X2176000Y366000D02*
X2215000D01*
X2105000D02*
X2144000D01*
X2215000Y279000D02*
Y366000D01*
X2105000Y279000D02*
Y366000D01*
D12*
X2057000Y464500D02*
G03*
X2057000Y464500I-3000J0D01*
G01*
D13*
X2377000Y276500D02*
X2403000D01*
X2377000Y348500D02*
X2403000D01*
D14*
X2173500Y461000D02*
Y479000D01*
X2142500Y461000D02*
Y479000D01*
X2143000D01*
X2142500Y461000D02*
X2143000D01*
X2173000Y479000D02*
X2173500D01*
X2173000Y461000D02*
X2173500D01*
X2363500Y635000D02*
Y653000D01*
X2332500Y635000D02*
Y653000D01*
X2333000D01*
X2332500Y635000D02*
X2333000D01*
X2363000Y653000D02*
X2363500D01*
X2363000Y635000D02*
X2363500D01*
X2381500Y668000D02*
Y686000D01*
X2350500Y668000D02*
Y686000D01*
X2351000D01*
X2350500Y668000D02*
X2351000D01*
X2381000Y686000D02*
X2381500D01*
X2381000Y668000D02*
X2381500D01*
X2399500Y635000D02*
Y653000D01*
X2368500Y635000D02*
Y653000D01*
X2369000D01*
X2368500Y635000D02*
X2369000D01*
X2399000Y653000D02*
X2399500D01*
X2399000Y635000D02*
X2399500D01*
X2351500Y453000D02*
X2352000D01*
X2351500Y435000D02*
X2352000D01*
X2382000Y453000D02*
X2382500D01*
X2382000Y435000D02*
X2382500D01*
Y453000D01*
X2351500Y435000D02*
Y453000D01*
X2381800Y491700D02*
X2382300D01*
X2381800Y509700D02*
X2382300D01*
X2351300Y491700D02*
X2351800D01*
X2351300Y509700D02*
X2351800D01*
X2351300Y491700D02*
Y509700D01*
X2382300Y491700D02*
Y509700D01*
X2176000Y639000D02*
Y663000D01*
X2124000Y639000D02*
Y663000D01*
X2137000Y677000D02*
X2163000D01*
X2137000Y625000D02*
X2163000D01*
D15*
X2346000Y743000D02*
X2375000D01*
X2346000D02*
Y871000D01*
X2375000D01*
X2445000Y743000D02*
X2474000D01*
Y871000D01*
X2445000D02*
X2474000D01*
X1386000Y745000D02*
Y774000D01*
X1514000D01*
Y745000D02*
Y774000D01*
X1386000Y646000D02*
Y675000D01*
Y646000D02*
X1514000D01*
Y675000D01*
Y486000D02*
Y515000D01*
X1386000Y486000D02*
X1514000D01*
X1386000D02*
Y515000D01*
X1514000Y585000D02*
Y614000D01*
X1386000D02*
X1514000D01*
X1386000Y585000D02*
Y614000D01*
X1514000Y326000D02*
Y355000D01*
X1386000Y326000D02*
X1514000D01*
X1386000D02*
Y355000D01*
X1514000Y425000D02*
Y454000D01*
X1386000D02*
X1514000D01*
X1386000Y425000D02*
Y454000D01*
X1236000Y745000D02*
Y774000D01*
X1364000D01*
Y745000D02*
Y774000D01*
X1236000Y646000D02*
Y675000D01*
Y646000D02*
X1364000D01*
Y675000D01*
X1236000Y585000D02*
Y614000D01*
X1364000D01*
Y585000D02*
Y614000D01*
X1236000Y486000D02*
Y515000D01*
Y486000D02*
X1364000D01*
Y515000D01*
X1236000Y425000D02*
Y454000D01*
X1364000D01*
Y425000D02*
Y454000D01*
X1236000Y326000D02*
Y355000D01*
Y326000D02*
X1364000D01*
Y355000D01*
X1086000Y745000D02*
Y774000D01*
X1214000D01*
Y745000D02*
Y774000D01*
X1086000Y646000D02*
Y675000D01*
Y646000D02*
X1214000D01*
Y675000D01*
X1086000Y585000D02*
Y614000D01*
X1214000D01*
Y585000D02*
Y614000D01*
X1086000Y486000D02*
Y515000D01*
Y486000D02*
X1214000D01*
Y515000D01*
X1086000Y425000D02*
Y454000D01*
X1214000D01*
Y425000D02*
Y454000D01*
X1086000Y326000D02*
Y355000D01*
Y326000D02*
X1214000D01*
Y355000D01*
X1064000Y646000D02*
Y675000D01*
X936000Y646000D02*
X1064000D01*
X936000D02*
Y675000D01*
X1064000Y745000D02*
Y774000D01*
X936000D02*
X1064000D01*
X936000Y745000D02*
Y774000D01*
X1064000Y486000D02*
Y515000D01*
X936000Y486000D02*
X1064000D01*
X936000D02*
Y515000D01*
X1064000Y585000D02*
Y614000D01*
X936000D02*
X1064000D01*
X936000Y585000D02*
Y614000D01*
X1064000Y326000D02*
Y355000D01*
X936000Y326000D02*
X1064000D01*
X936000D02*
Y355000D01*
X1064000Y425000D02*
Y454000D01*
X936000D02*
X1064000D01*
X936000Y425000D02*
Y454000D01*
X345156Y588980D02*
Y577123D01*
X345162Y704629D02*
Y692771D01*
X342594Y616937D02*
Y605085D01*
X348520Y611011D02*
X336668D01*
X342655Y731398D02*
Y719532D01*
X348588Y725465D02*
X336722D01*
X345156Y383980D02*
Y372124D01*
X345162Y499629D02*
Y487771D01*
X342594Y411937D02*
Y400086D01*
X348520Y406012D02*
X336668D01*
X342655Y526399D02*
Y514532D01*
X348588Y520465D02*
X336722D01*
D16*
X2516350Y793000D02*
Y823000D01*
X2485650Y793000D02*
Y823000D01*
X319648Y740117D02*
X372348D01*
Y567417D02*
Y740117D01*
X319648Y567417D02*
X372348D01*
X319648Y535118D02*
X372348D01*
Y362418D02*
Y535118D01*
X319648Y362418D02*
X372348D01*
X214848Y535118D02*
X281708D01*
X214848Y362418D02*
Y535118D01*
Y362418D02*
X281708D01*
D17*
X2440129Y273208D02*
Y293202D01*
X2450126D01*
X2453458Y289869D01*
Y276540D01*
X2450126Y273208D01*
X2440129D01*
X2473452Y276540D02*
X2470119Y273208D01*
X2463455D01*
X2460123Y276540D01*
Y289869D01*
X2463455Y293202D01*
X2470119D01*
X2473452Y289869D01*
X2480116Y283205D02*
X2493445D01*
X2486781Y276540D02*
Y289869D01*
X2440129Y333208D02*
Y353202D01*
X2450126D01*
X2453458Y349869D01*
Y336540D01*
X2450126Y333208D01*
X2440129D01*
X2473452Y336540D02*
X2470119Y333208D01*
X2463455D01*
X2460123Y336540D01*
Y349869D01*
X2463455Y353202D01*
X2470119D01*
X2473452Y349869D01*
X2480116Y343205D02*
X2493445D01*
D18*
X1248761Y553998D02*
X1245429D01*
X1247095D01*
Y545668D01*
X1245429Y544002D01*
X1243763D01*
X1242097Y545668D01*
X1252094Y553998D02*
Y544002D01*
X1258758D01*
X1268755Y552332D02*
X1267089Y553998D01*
X1263756D01*
X1262090Y552332D01*
Y545668D01*
X1263756Y544002D01*
X1267089D01*
X1268755Y545668D01*
X1278752Y553998D02*
X1275419D01*
X1277085D01*
Y545668D01*
X1275419Y544002D01*
X1273753D01*
X1272087Y545668D01*
X1282084Y553998D02*
Y544002D01*
X1288748D01*
X1298745Y552332D02*
X1297079Y553998D01*
X1293747D01*
X1292081Y552332D01*
Y545668D01*
X1293747Y544002D01*
X1297079D01*
X1298745Y545668D01*
X1308742Y553998D02*
X1305410D01*
X1307076D01*
Y545668D01*
X1305410Y544002D01*
X1303743D01*
X1302077Y545668D01*
X1312074Y553998D02*
Y544002D01*
X1318739D01*
X1328735Y552332D02*
X1327069Y553998D01*
X1323737D01*
X1322071Y552332D01*
Y545668D01*
X1323737Y544002D01*
X1327069D01*
X1328735Y545668D01*
X1338732Y553998D02*
X1335400D01*
X1337066D01*
Y545668D01*
X1335400Y544002D01*
X1333734D01*
X1332068Y545668D01*
X1342065Y553998D02*
Y544002D01*
X1348729D01*
X1358726Y552332D02*
X1357060Y553998D01*
X1353727D01*
X1352061Y552332D01*
Y545668D01*
X1353727Y544002D01*
X1357060D01*
X1358726Y545668D01*
X2463332Y671665D02*
X2461999Y672997D01*
X2459333D01*
X2458000Y671665D01*
Y670332D01*
X2459333Y668999D01*
X2461999D01*
X2463332Y667666D01*
Y666333D01*
X2461999Y665000D01*
X2459333D01*
X2458000Y666333D01*
X2469996Y672997D02*
X2467330D01*
X2465997Y671665D01*
Y666333D01*
X2467330Y665000D01*
X2469996D01*
X2471329Y666333D01*
Y671665D01*
X2469996Y672997D01*
X2473995D02*
Y665000D01*
X2479326D01*
X2481992Y663667D02*
X2487324D01*
X2489990Y665000D02*
Y672997D01*
X2493988D01*
X2495321Y671665D01*
Y668999D01*
X2493988Y667666D01*
X2489990D01*
X2501986Y672997D02*
X2499320D01*
X2497987Y671665D01*
Y666333D01*
X2499320Y665000D01*
X2501986D01*
X2503319Y666333D01*
Y671665D01*
X2501986Y672997D01*
X2505984D02*
Y665000D01*
X2511316D01*
X2458000Y435000D02*
Y440332D01*
X2461999D01*
X2463332Y438999D01*
Y435000D01*
X2465997D02*
Y442997D01*
X2469996D01*
X2471329Y441665D01*
Y438999D01*
X2469996Y437666D01*
X2465997D01*
X2468663D02*
X2471329Y435000D01*
X2479326Y441665D02*
X2477994Y442997D01*
X2475328D01*
X2473995Y441665D01*
Y440332D01*
X2475328Y438999D01*
X2477994D01*
X2479326Y437666D01*
Y436333D01*
X2477994Y435000D01*
X2475328D01*
X2473995Y436333D01*
X2481992Y442997D02*
X2487324D01*
X2484658D01*
Y435000D01*
X2458000Y544997D02*
Y537000D01*
X2461999D01*
X2463332Y538333D01*
Y539666D01*
X2461999Y540999D01*
X2458000D01*
X2461999D01*
X2463332Y542332D01*
Y543665D01*
X2461999Y544997D01*
X2458000D01*
X2471329Y543665D02*
X2469996Y544997D01*
X2467330D01*
X2465997Y543665D01*
Y542332D01*
X2467330Y540999D01*
X2469996D01*
X2471329Y539666D01*
Y538333D01*
X2469996Y537000D01*
X2467330D01*
X2465997Y538333D01*
X2473995Y544997D02*
X2479326D01*
X2476661D01*
Y537000D01*
X2481992Y535667D02*
X2487324D01*
X2495321Y543665D02*
X2493988Y544997D01*
X2491323D01*
X2489990Y543665D01*
Y542332D01*
X2491323Y540999D01*
X2493988D01*
X2495321Y539666D01*
Y538333D01*
X2493988Y537000D01*
X2491323D01*
X2489990Y538333D01*
X2497987Y544997D02*
X2500653D01*
X2499320D01*
Y537000D01*
X2497987D01*
X2500653D01*
X2504652D02*
Y544997D01*
X2507317Y542332D01*
X2509983Y544997D01*
Y537000D01*
X2458000Y566999D02*
X2463332D01*
X2460666Y569664D02*
Y564333D01*
X2465997Y569664D02*
X2467330Y570997D01*
X2469996D01*
X2471329Y569664D01*
Y568332D01*
X2469996Y566999D01*
X2468663D01*
X2469996D01*
X2471329Y565666D01*
Y564333D01*
X2469996Y563000D01*
X2467330D01*
X2465997Y564333D01*
X2473995Y570997D02*
Y565666D01*
X2476661Y563000D01*
X2479326Y565666D01*
Y570997D01*
X2481992Y569664D02*
X2483325Y570997D01*
X2485991D01*
X2487324Y569664D01*
Y568332D01*
X2485991Y566999D01*
X2484658D01*
X2485991D01*
X2487324Y565666D01*
Y564333D01*
X2485991Y563000D01*
X2483325D01*
X2481992Y564333D01*
X2463332Y493665D02*
X2461999Y494997D01*
X2459333D01*
X2458000Y493665D01*
Y492332D01*
X2459333Y490999D01*
X2461999D01*
X2463332Y489666D01*
Y488333D01*
X2461999Y487000D01*
X2459333D01*
X2458000Y488333D01*
X2471329Y493665D02*
X2469996Y494997D01*
X2467330D01*
X2465997Y493665D01*
Y488333D01*
X2467330Y487000D01*
X2469996D01*
X2471329Y488333D01*
X2473995Y494997D02*
Y487000D01*
X2479326D01*
X2481992Y485667D02*
X2487324D01*
X2489990Y493665D02*
X2491323Y494997D01*
X2493988D01*
X2495321Y493665D01*
Y492332D01*
X2493988Y490999D01*
X2492655D01*
X2493988D01*
X2495321Y489666D01*
Y488333D01*
X2493988Y487000D01*
X2491323D01*
X2489990Y488333D01*
X2497987Y494997D02*
Y489666D01*
X2500653Y487000D01*
X2503319Y489666D01*
Y494997D01*
X2505984Y493665D02*
X2507317Y494997D01*
X2509983D01*
X2511316Y493665D01*
Y492332D01*
X2509983Y490999D01*
X2508650D01*
X2509983D01*
X2511316Y489666D01*
Y488333D01*
X2509983Y487000D01*
X2507317D01*
X2505984Y488333D01*
X2463332Y645665D02*
X2461999Y646997D01*
X2459333D01*
X2458000Y645665D01*
Y640333D01*
X2459333Y639000D01*
X2461999D01*
X2463332Y640333D01*
Y642999D01*
X2460666D01*
X2465997Y639000D02*
Y646997D01*
X2471329Y639000D01*
Y646997D01*
X2473995D02*
Y639000D01*
X2477994D01*
X2479326Y640333D01*
Y645665D01*
X2477994Y646997D01*
X2473995D01*
X2458000Y465999D02*
X2463332D01*
X2460666Y468665D02*
Y463333D01*
X2471329Y469997D02*
X2465997D01*
Y465999D01*
X2468663Y467332D01*
X2469996D01*
X2471329Y465999D01*
Y463333D01*
X2469996Y462000D01*
X2467330D01*
X2465997Y463333D01*
X2473995Y469997D02*
Y464666D01*
X2476661Y462000D01*
X2479326Y464666D01*
Y469997D01*
X2463332Y594664D02*
X2461999Y595997D01*
X2459333D01*
X2458000Y594664D01*
Y593332D01*
X2459333Y591999D01*
X2461999D01*
X2463332Y590666D01*
Y589333D01*
X2461999Y588000D01*
X2459333D01*
X2458000Y589333D01*
X2471329Y594664D02*
X2469996Y595997D01*
X2467330D01*
X2465997Y594664D01*
Y589333D01*
X2467330Y588000D01*
X2469996D01*
X2471329Y589333D01*
X2473995Y595997D02*
Y588000D01*
X2479326D01*
X2481992Y586667D02*
X2487324D01*
X2489990Y594664D02*
X2491323Y595997D01*
X2493988D01*
X2495321Y594664D01*
Y593332D01*
X2493988Y591999D01*
X2492655D01*
X2493988D01*
X2495321Y590666D01*
Y589333D01*
X2493988Y588000D01*
X2491323D01*
X2489990Y589333D01*
X2497987Y595997D02*
Y590666D01*
X2500653Y588000D01*
X2503319Y590666D01*
Y595997D01*
X2505984Y594664D02*
X2507317Y595997D01*
X2509983D01*
X2511316Y594664D01*
Y593332D01*
X2509983Y591999D01*
X2508650D01*
X2509983D01*
X2511316Y590666D01*
Y589333D01*
X2509983Y588000D01*
X2507317D01*
X2505984Y589333D01*
X2463332Y619664D02*
X2461999Y620997D01*
X2459333D01*
X2458000Y619664D01*
Y618332D01*
X2459333Y616999D01*
X2461999D01*
X2463332Y615666D01*
Y614333D01*
X2461999Y613000D01*
X2459333D01*
X2458000Y614333D01*
X2465997Y620997D02*
Y613000D01*
X2469996D01*
X2471329Y614333D01*
Y619664D01*
X2469996Y620997D01*
X2465997D01*
X2473995Y613000D02*
Y618332D01*
X2476661Y620997D01*
X2479326Y618332D01*
Y613000D01*
Y616999D01*
X2473995D01*
X2481992Y611667D02*
X2487324D01*
X2489990Y619664D02*
X2491323Y620997D01*
X2493988D01*
X2495321Y619664D01*
Y618332D01*
X2493988Y616999D01*
X2492655D01*
X2493988D01*
X2495321Y615666D01*
Y614333D01*
X2493988Y613000D01*
X2491323D01*
X2489990Y614333D01*
X2497987Y620997D02*
Y615666D01*
X2500653Y613000D01*
X2503319Y615666D01*
Y620997D01*
X2505984Y619664D02*
X2507317Y620997D01*
X2509983D01*
X2511316Y619664D01*
Y618332D01*
X2509983Y616999D01*
X2508650D01*
X2509983D01*
X2511316Y615666D01*
Y614333D01*
X2509983Y613000D01*
X2507317D01*
X2505984Y614333D01*
X2463332Y518665D02*
X2461999Y519997D01*
X2459333D01*
X2458000Y518665D01*
Y517332D01*
X2459333Y515999D01*
X2461999D01*
X2463332Y514666D01*
Y513333D01*
X2461999Y512000D01*
X2459333D01*
X2458000Y513333D01*
X2465997Y519997D02*
Y512000D01*
X2469996D01*
X2471329Y513333D01*
Y518665D01*
X2469996Y519997D01*
X2465997D01*
X2473995Y512000D02*
Y517332D01*
X2476661Y519997D01*
X2479326Y517332D01*
Y512000D01*
Y515999D01*
X2473995D01*
X2481992Y510667D02*
X2487324D01*
X2489990Y518665D02*
X2491323Y519997D01*
X2493988D01*
X2495321Y518665D01*
Y517332D01*
X2493988Y515999D01*
X2492655D01*
X2493988D01*
X2495321Y514666D01*
Y513333D01*
X2493988Y512000D01*
X2491323D01*
X2489990Y513333D01*
X2497987Y519997D02*
Y514666D01*
X2500653Y512000D01*
X2503319Y514666D01*
Y519997D01*
X2505984Y518665D02*
X2507317Y519997D01*
X2509983D01*
X2511316Y518665D01*
Y517332D01*
X2509983Y515999D01*
X2508650D01*
X2509983D01*
X2511316Y514666D01*
Y513333D01*
X2509983Y512000D01*
X2507317D01*
X2505984Y513333D01*
M02*
