M48
;Layer_Color=9474304
;FILE_FORMAT=4:4
METRIC,LZ
;TYPE=PLATED
T1F00S00C0.2540
T2F00S00C0.6000
T3F00S00C0.8900
T4F00S00C0.9000
T6F00S00C1.5700
T7F00S00C2.8000
T8F00S00C3.5000
;TYPE=NON_PLATED
T9F00S00C3.2500
%
T01
X02341Y0047
X02346Y00507
X02359Y00512
X02366Y00534
X02298Y00524
Y00547
Y00568
X02298Y00579
X02298Y0059
X02269Y00586
X02273Y00573
X02269Y00567
X02269Y00547
Y00528
Y00515
X02258Y00494
X02298
X02317Y00444
X02203Y00424
X02173Y00427
X02179Y00455
X02161Y0046
X02158Y00453
X02156Y00467
X02139Y00463
X02117Y00464
X02125Y00445
X02126Y00488
X02144Y00501
X02132Y00521
X02137Y00528
X02132Y00556
Y00572
X02132Y00584
X02156
Y00572
X02144Y00564
X0218Y00556
Y00572
X02165Y0054
X02214Y00547
X02228Y00572
Y00521
X02213Y0049
X0219Y00502
X0218Y00482
X02099Y00513
X02036Y00505
Y00497
X02008Y00501
X01966Y00502
X01971Y00526
X01953
Y00539
X0194Y00514
X01945Y00475
X02005Y00429
X02016Y00415
X02015Y00378
X02039
X02048Y00404
X02057Y00463
Y00476
X02008Y00551
X01966Y0059
X01953Y00586
X01945Y0059
X0194Y00585
X02139Y00404
X01935Y00488
X01874Y00545
X01867
X00385Y00551
X0024Y00766
Y00776
X0023Y00771
X01906Y00633
Y00624
X019Y00614
X01906Y00605
X01935Y00596
X01954
X0201Y00602
Y00653
X02018Y0066
X02036
Y00653
X02031Y00678
X02022
X02004Y00665
Y00698
X02013Y00721
X02019Y00716
X0204Y00716
X02049Y00721
X02081Y0066
Y00653
X02104Y0064
X02118Y00595
X02128Y00596
X02156Y00608
X02167Y00616
X0218Y00608
X0218Y00596
X02209Y00646
Y00656
X02227
Y00646
X02263Y00651
X02256Y00668
X02263Y00624
X02246Y00612
X02304Y00624
X0215Y00671
X02055Y00628
Y00615
X02341Y00605
X02361
X02371
X02391
X02394Y00624
X024Y00675
X0239Y00685
X02377Y00675
X02342Y00685
X0235Y00704
X02398
X02409
X02421
X02433
X02445
X02457
X02469
X02481
X02491Y00731
X02499
X02495Y00737
X02513Y00746
X02519
X02525
X02531
Y00772
X02525Y00772
X02519Y00772
X02513
X02495Y00817
X02486Y00858
X02522Y00871
X02528Y00849
X02361Y00871
X02361Y00882
X02342Y00887
X02342Y00871
T02
X02525Y0043
X02295Y00445
Y00465
X02325Y0049
Y00525
X0223Y00505
Y00465
Y00445
X0222Y00365
Y00345
Y00325
X02245
Y00345
Y00365
X02195
Y00345
Y00325
X0211
Y00345
Y00365
X02085Y00364
Y00344
Y00327
X0206
Y00345
Y00365
X02045Y0043
X021
X01985Y0042
X0196
X01972Y00304
X01947
X02305Y00325
Y00345
Y00365
X0233
Y00345
Y00325
X01922Y00304
X01897
X01872
X01847
X0186Y0042
X01885
X0191
X01935
X01924Y00521
X01912
X019
X01888
X01876
X01864
X0182Y0052
X0181Y00525
X018Y0052
X0179Y00525
X0178Y0052
Y00505
X0179Y0051
X018Y00505
X0181Y0051
X0182Y00505
Y00535
X0181Y0054
Y00555
X0182Y0055
X018
X0179Y00555
X0178Y0055
Y00535
X0179Y0054
X018Y00535
X01912Y00533
X01924
Y00545
X01912
Y00557
X01924
Y00569
X01912
X019
X01888Y00569
X0155Y0056
Y0054
Y0037
Y00355
X0082Y0028
Y00265
Y0025
Y00235
X00522Y00265002
Y00285002
Y00305002
X00522002Y00325
X00522Y00344998
Y00364998
Y00384998
Y00404998
Y00424998
X00507Y00414998
Y00394998
Y00374998
Y00354998
Y00334998
X00507Y00315002
Y00295002
Y00275002
Y00690002
Y00710002
Y00730002
Y00750002
Y00770002
Y00790002
Y00810002
Y00830002
X00522002Y0084
X00522Y00820002
Y00800002
Y00780002
Y00760002
Y00740002
Y00720002
Y00700002
Y00680002
X00735Y0068
Y0066
X00745Y0067
X00735Y007
Y0072
X00745Y0071
X00735Y0074
Y0076
X00745Y0075
X00735Y0078
Y008
Y0082
Y0084
X00745Y0083
Y0079
X00755Y008
X00765Y0079
X00775Y008
Y0082
Y0084
X00765Y0083
X00755Y0084
Y0082
Y0078
X00775
X00775Y0076
Y0074
X00765Y0075
X00755Y0076
Y0074
Y0072
X00765Y0071
X00775Y0072
Y007
Y0068
Y0066
X00765Y0067
X00755Y0068
Y0066
Y007
X0155Y0073
Y00745
X0178Y007
X0179Y00705
X018Y007
X0181Y00705
X0182Y007
Y00685
X0181Y0069
Y00675
X0182Y0067
X018
X0179Y00675
Y0069
X0178Y00685
Y0067
X018Y00685
X0186Y00675
X01885
X0191
X01935
X01923Y00799
X01898
X01873
X01848
X01948
X01973
X02005Y0085
X02005Y0086
X02015Y00855
X02015Y00845
X02025Y0085
Y0086
X02035Y00855
X02035Y00845
X0206Y0078
Y00755
X02085
Y0078
X0211
Y00755
Y0073
X02085Y00729
X0206Y0073
X0205Y00685
X01985Y00675
X0196
X0224Y00685
X0227
X02245Y0073
X0222
X02195
Y00755
Y0078
X0222
Y00755
X02245
Y0078
X023
Y00755
X02325
Y0078
Y0073
X023
X02525Y0069
T03
X00359148Y00380168
Y00403068
Y00494468
Y00517368
Y00585167
X00310848Y00484368
Y00463968
Y00443568
Y00423168
X00293048Y00412968
Y00433368
Y00453768
Y00474168
Y00617967
Y00638367
Y00658767
Y00679167
X00310848Y00668967
Y00648567
Y00628167
Y00689367
X00359148Y00699467
Y00722367
Y00608067
T04
X024384Y004395
Y004649
Y004903
Y005157
Y005411
Y005665
Y005919
Y006173
Y006427
X024388Y006688
T06
X00301948Y00367468
Y00530068
Y00572467
Y00735067
T07
X0239Y002765
Y003485
T08
X003Y0028
Y0083
T09
X00267648Y00385268
Y00512268
Y00590267
Y00717267
M30
