G04*
G04 #@! TF.GenerationSoftware,Altium Limited,Altium Designer,18.1.7 (191)*
G04*
G04 Layer_Color=8388736*
%FSLAX44Y44*%
%MOMM*%
G71*
G01*
G75*
%ADD51R,1.3016X1.6016*%
%ADD52R,0.7016X0.7016*%
%ADD53R,0.7016X0.7016*%
%ADD54R,1.0316X1.0816*%
%ADD55R,1.2016X2.1016*%
%ADD56R,0.6516X0.9016*%
%ADD57R,1.1016X0.5516*%
%ADD58R,5.5016X3.0016*%
%ADD59R,2.3016X1.9016*%
G04:AMPARAMS|DCode=60|XSize=1.5716mm|YSize=0.5816mm|CornerRadius=0.1108mm|HoleSize=0mm|Usage=FLASHONLY|Rotation=90.000|XOffset=0mm|YOffset=0mm|HoleType=Round|Shape=RoundedRectangle|*
%AMROUNDEDRECTD60*
21,1,1.5716,0.3600,0,0,90.0*
21,1,1.3500,0.5816,0,0,90.0*
1,1,0.2216,0.1800,0.6750*
1,1,0.2216,0.1800,-0.6750*
1,1,0.2216,-0.1800,-0.6750*
1,1,0.2216,-0.1800,0.6750*
%
%ADD60ROUNDEDRECTD60*%
%ADD61R,1.8016X1.0016*%
%ADD62R,2.6016X1.0016*%
%ADD63R,2.7016X1.8016*%
%ADD64R,1.6016X1.3016*%
%ADD65R,1.6016X1.6016*%
%ADD66R,2.6016X4.7016*%
%ADD67R,0.5516X1.1016*%
%ADD68R,1.9016X2.3016*%
%ADD69R,2.1016X1.2016*%
%ADD70R,3.0016X5.5016*%
%ADD71R,4.6016X1.3516*%
%ADD72R,10.2616X9.6016*%
%ADD73R,3.5016X1.9016*%
%ADD74R,1.0816X1.0316*%
%ADD75R,1.9016X1.7016*%
%ADD76R,1.9016X3.5016*%
%ADD77R,1.2016X0.8016*%
%ADD78O,1.5016X0.4516*%
%ADD79O,2.7016X0.7620*%
%ADD80O,2.7016X0.8016*%
%ADD81R,1.8016X0.7516*%
%ADD82O,1.8016X0.7516*%
%ADD83R,7.1016X7.1016*%
%ADD84R,2.1016X1.9016*%
%ADD85O,3.1016X2.1016*%
%ADD86R,4.1016X4.1016*%
%ADD87R,1.4996X1.4996*%
%ADD88C,1.4996*%
%ADD89C,3.3516*%
%ADD90C,2.4566*%
D51*
X2525954Y717000D02*
D03*
X2498046D02*
D03*
D52*
X2107920Y501000D02*
D03*
X2118080D02*
D03*
X2514080Y871000D02*
D03*
X2503920D02*
D03*
X2483920Y871000D02*
D03*
X2494080D02*
D03*
X2168080Y446000D02*
D03*
X2157920D02*
D03*
X2168080Y435000D02*
D03*
X2157920D02*
D03*
X2503920Y858000D02*
D03*
X2514080D02*
D03*
Y847000D02*
D03*
X2503920D02*
D03*
X2537080Y840000D02*
D03*
X2526920D02*
D03*
X2537080Y792000D02*
D03*
X2526920D02*
D03*
Y780000D02*
D03*
X2537080D02*
D03*
X2526920Y808000D02*
D03*
X2537080D02*
D03*
X1924080Y633000D02*
D03*
X1913920D02*
D03*
X1924080Y605000D02*
D03*
X1913920D02*
D03*
X2173080Y608000D02*
D03*
X2162920D02*
D03*
X2279920Y590000D02*
D03*
X2290080D02*
D03*
X2279920Y514000D02*
D03*
X2290080D02*
D03*
X2279920Y524000D02*
D03*
X2290080D02*
D03*
Y579000D02*
D03*
X2279920D02*
D03*
X2253920Y611998D02*
D03*
X2264080D02*
D03*
X2149080Y596000D02*
D03*
X2138920D02*
D03*
X2149080Y572000D02*
D03*
X2138920D02*
D03*
Y556000D02*
D03*
X2149080D02*
D03*
X2173080Y584000D02*
D03*
X2162920D02*
D03*
X2279920Y494000D02*
D03*
X2290080D02*
D03*
X2172920Y540000D02*
D03*
X2183080D02*
D03*
X1964080Y603000D02*
D03*
X1953920D02*
D03*
X2107920Y476000D02*
D03*
X2118080D02*
D03*
X2106920Y614000D02*
D03*
X2117080D02*
D03*
X1954920Y552000D02*
D03*
X1965080D02*
D03*
X1865920Y608000D02*
D03*
X1876080D02*
D03*
X1865920Y597000D02*
D03*
X1876080D02*
D03*
X1864920Y490000D02*
D03*
X1875080D02*
D03*
X1864920Y502000D02*
D03*
X1875080D02*
D03*
X2279920Y601000D02*
D03*
X2290080D02*
D03*
X2290080Y504000D02*
D03*
X2279920D02*
D03*
X2290080Y612000D02*
D03*
X2279920D02*
D03*
X2173080Y596000D02*
D03*
X2162920D02*
D03*
Y572000D02*
D03*
X2173080D02*
D03*
X2162920Y556000D02*
D03*
X2173080D02*
D03*
X1834920Y608000D02*
D03*
X1845080D02*
D03*
X1834920Y597000D02*
D03*
X1845080D02*
D03*
X1839840Y490000D02*
D03*
X1850000D02*
D03*
X1839840Y502000D02*
D03*
X1850000D02*
D03*
X2238080Y612000D02*
D03*
X2227920D02*
D03*
X2138920Y608000D02*
D03*
X2149080D02*
D03*
X2149000Y584000D02*
D03*
X2138840D02*
D03*
X2138920Y544000D02*
D03*
X2149080D02*
D03*
X2290080Y535000D02*
D03*
X2279920D02*
D03*
X2290080Y568000D02*
D03*
X2279920D02*
D03*
Y547000D02*
D03*
X2290080D02*
D03*
X2172920Y496000D02*
D03*
X2183080D02*
D03*
X1953920Y615000D02*
D03*
X1964080D02*
D03*
X2361160Y597000D02*
D03*
X2351000D02*
D03*
X2350920Y587000D02*
D03*
X2361080D02*
D03*
X2370920Y597000D02*
D03*
X2381080D02*
D03*
Y587000D02*
D03*
X2370920D02*
D03*
X1924080Y624000D02*
D03*
X1913920D02*
D03*
X1924080Y614000D02*
D03*
X1913920D02*
D03*
X2107920Y488000D02*
D03*
X2118080D02*
D03*
X2106920Y602000D02*
D03*
X2117080D02*
D03*
X2361920Y467000D02*
D03*
X2372080D02*
D03*
Y478000D02*
D03*
X2361920D02*
D03*
X2172920Y508000D02*
D03*
X2183080D02*
D03*
D53*
X2107000Y589080D02*
D03*
Y578920D02*
D03*
X2190000Y424080D02*
D03*
Y413920D02*
D03*
X2133000Y479080D02*
D03*
Y468920D02*
D03*
X2148000Y445080D02*
D03*
Y434920D02*
D03*
X2128000Y613080D02*
D03*
Y602920D02*
D03*
X2469000Y711920D02*
D03*
Y722080D02*
D03*
X2481000Y711920D02*
D03*
Y722080D02*
D03*
X2457000Y711920D02*
D03*
Y722080D02*
D03*
X2445000Y711920D02*
D03*
Y722080D02*
D03*
X2362000Y722080D02*
D03*
Y711920D02*
D03*
X2526000Y818920D02*
D03*
Y829080D02*
D03*
X2537000Y818920D02*
D03*
Y829080D02*
D03*
X2350000Y711920D02*
D03*
Y722080D02*
D03*
X2374000Y711920D02*
D03*
Y722080D02*
D03*
X2493000Y858080D02*
D03*
Y847920D02*
D03*
X2386000Y722080D02*
D03*
Y711920D02*
D03*
X2398000Y722080D02*
D03*
Y711920D02*
D03*
X2409000Y722160D02*
D03*
Y712000D02*
D03*
X2421000Y722080D02*
D03*
Y711920D02*
D03*
X2433000Y722080D02*
D03*
Y711920D02*
D03*
X2263000Y633920D02*
D03*
Y644080D02*
D03*
Y668080D02*
D03*
Y657920D02*
D03*
X1934000Y624080D02*
D03*
Y613920D02*
D03*
X2186000Y474160D02*
D03*
Y464000D02*
D03*
Y447080D02*
D03*
Y436920D02*
D03*
X1660000Y315080D02*
D03*
Y304920D02*
D03*
Y779920D02*
D03*
Y790080D02*
D03*
X1815000Y635080D02*
D03*
Y624920D02*
D03*
Y464920D02*
D03*
Y475080D02*
D03*
X385000Y737080D02*
D03*
Y726920D02*
D03*
Y569920D02*
D03*
Y580080D02*
D03*
Y364920D02*
D03*
Y375080D02*
D03*
Y532080D02*
D03*
Y521920D02*
D03*
X813000Y541920D02*
D03*
Y552080D02*
D03*
X2341000Y597080D02*
D03*
Y586920D02*
D03*
X2391000Y597080D02*
D03*
Y586920D02*
D03*
X2390000Y666920D02*
D03*
Y677080D02*
D03*
X2342000Y666920D02*
D03*
Y677080D02*
D03*
X2275000Y472080D02*
D03*
Y461920D02*
D03*
D54*
X1964700Y577000D02*
D03*
X1949300D02*
D03*
X1949300Y488000D02*
D03*
X1964700D02*
D03*
X2117300Y454000D02*
D03*
X2132700D02*
D03*
X2117300Y437000D02*
D03*
X2132700D02*
D03*
D55*
X880000Y321000D02*
D03*
X840000D02*
D03*
Y291000D02*
D03*
X880000D02*
D03*
X840000Y801000D02*
D03*
X880000D02*
D03*
Y771000D02*
D03*
X840000D02*
D03*
X840000Y741000D02*
D03*
X880000D02*
D03*
X880000Y711000D02*
D03*
X840000D02*
D03*
X840000Y681000D02*
D03*
X880000D02*
D03*
Y651000D02*
D03*
X840000D02*
D03*
Y621000D02*
D03*
X880000D02*
D03*
Y591000D02*
D03*
X840000D02*
D03*
Y561000D02*
D03*
X880000D02*
D03*
Y531000D02*
D03*
X840000D02*
D03*
X840000Y501000D02*
D03*
X880000D02*
D03*
X880000Y471000D02*
D03*
X840000D02*
D03*
Y441000D02*
D03*
X880000D02*
D03*
Y411000D02*
D03*
X840000D02*
D03*
Y381000D02*
D03*
X880000D02*
D03*
Y351000D02*
D03*
X840000D02*
D03*
D56*
X2158000Y481500D02*
D03*
X2167500Y458500D02*
D03*
X2148500D02*
D03*
X2348000Y655500D02*
D03*
X2357500Y632500D02*
D03*
X2338500D02*
D03*
X2366000Y688500D02*
D03*
X2375500Y665500D02*
D03*
X2356500D02*
D03*
X2384000Y655500D02*
D03*
X2393500Y632500D02*
D03*
X2374500D02*
D03*
X2376500Y455500D02*
D03*
X2357500D02*
D03*
X2367000Y432500D02*
D03*
X2357300Y489200D02*
D03*
X2376300D02*
D03*
X2366800Y512200D02*
D03*
D57*
X2117000Y419000D02*
D03*
X2139000D02*
D03*
X2154000D02*
D03*
X2176000D02*
D03*
X2337000Y614000D02*
D03*
X2359000D02*
D03*
X2395000D02*
D03*
X2373000D02*
D03*
D58*
X2410000Y757000D02*
D03*
Y857000D02*
D03*
D59*
X2491000Y758000D02*
D03*
X2529000Y759000D02*
D03*
X666000Y584000D02*
D03*
X704000Y585000D02*
D03*
Y635000D02*
D03*
X666000Y634000D02*
D03*
X704000Y685000D02*
D03*
X666000Y684000D02*
D03*
X704000Y735000D02*
D03*
X666000Y734000D02*
D03*
X704000Y785000D02*
D03*
X666000Y784000D02*
D03*
X704000Y835000D02*
D03*
X666000Y834000D02*
D03*
X704000Y320000D02*
D03*
X666000Y319000D02*
D03*
X704000Y370000D02*
D03*
X666000Y369000D02*
D03*
X704000Y420000D02*
D03*
X666000Y419000D02*
D03*
X704000Y470000D02*
D03*
X666000Y469000D02*
D03*
X704000Y520000D02*
D03*
X666000Y519000D02*
D03*
X704000Y270000D02*
D03*
X666000Y269000D02*
D03*
X446000Y835000D02*
D03*
X484000Y836000D02*
D03*
X584000Y835000D02*
D03*
X546000Y834000D02*
D03*
X584000Y785000D02*
D03*
X546000Y784000D02*
D03*
X585000Y735000D02*
D03*
X547000Y734000D02*
D03*
X584000Y685000D02*
D03*
X546000Y684000D02*
D03*
X446000Y785000D02*
D03*
X484000Y786000D02*
D03*
X446000Y270000D02*
D03*
X484000Y271000D02*
D03*
X584000Y270000D02*
D03*
X546000Y269000D02*
D03*
X584000Y320000D02*
D03*
X546000Y319000D02*
D03*
X584000Y370000D02*
D03*
X546000Y369000D02*
D03*
X584000Y420000D02*
D03*
X546000Y419000D02*
D03*
X446000Y320000D02*
D03*
X484000Y321000D02*
D03*
X1709000Y392000D02*
D03*
X1671000Y391000D02*
D03*
X1666000Y549000D02*
D03*
X1704000Y550000D02*
D03*
Y706000D02*
D03*
X1666000Y705000D02*
D03*
X1709000Y865000D02*
D03*
X1671000Y864000D02*
D03*
D60*
X2491250Y829500D02*
D03*
X2497750D02*
D03*
X2504250D02*
D03*
X2510750D02*
D03*
Y786500D02*
D03*
X2504250D02*
D03*
X2497750D02*
D03*
X2491250D02*
D03*
D61*
X2244000Y635000D02*
D03*
Y666000D02*
D03*
D62*
X2240000Y651000D02*
D03*
D63*
X2218000D02*
D03*
D64*
X1984966Y275998D02*
D03*
Y303906D02*
D03*
X1860034Y720002D02*
D03*
Y692094D02*
D03*
X1885000Y719954D02*
D03*
Y692046D02*
D03*
X1910000Y719954D02*
D03*
Y692046D02*
D03*
X1935000Y719954D02*
D03*
Y692046D02*
D03*
X1960000Y719954D02*
D03*
Y692046D02*
D03*
X1985000Y719954D02*
D03*
Y692046D02*
D03*
X1860000Y828954D02*
D03*
Y801046D02*
D03*
X1885000Y828954D02*
D03*
Y801046D02*
D03*
X1910000Y828954D02*
D03*
Y801046D02*
D03*
X1959966Y275998D02*
D03*
Y303906D02*
D03*
X1934966Y275998D02*
D03*
Y303906D02*
D03*
X1909966Y275998D02*
D03*
Y303906D02*
D03*
X1884967Y275998D02*
D03*
Y303906D02*
D03*
X1860000Y276046D02*
D03*
Y303954D02*
D03*
X1985000Y376046D02*
D03*
Y403954D02*
D03*
X1959967Y375998D02*
D03*
Y403906D02*
D03*
X2061000Y828954D02*
D03*
Y801046D02*
D03*
X1909967Y375998D02*
D03*
Y403906D02*
D03*
X2060000Y276046D02*
D03*
Y303954D02*
D03*
X2085000Y276046D02*
D03*
Y303954D02*
D03*
X1960000Y828954D02*
D03*
Y801046D02*
D03*
X1985000Y828954D02*
D03*
Y801046D02*
D03*
X1935000Y828954D02*
D03*
Y801046D02*
D03*
X1934967Y375998D02*
D03*
Y403906D02*
D03*
X1884968Y375998D02*
D03*
Y403906D02*
D03*
X1859968Y375998D02*
D03*
Y403906D02*
D03*
X2085000Y828954D02*
D03*
Y801046D02*
D03*
D65*
X1547046Y640000D02*
D03*
X1572954D02*
D03*
X1547046Y460000D02*
D03*
X1572954D02*
D03*
D66*
X2280000Y755000D02*
D03*
Y845000D02*
D03*
X2160000Y755000D02*
D03*
Y845000D02*
D03*
X2280000Y355000D02*
D03*
Y265000D02*
D03*
X2160000Y355000D02*
D03*
Y265000D02*
D03*
D67*
X1876000Y644000D02*
D03*
Y622000D02*
D03*
X1865000Y454000D02*
D03*
Y476000D02*
D03*
X1845000Y644000D02*
D03*
Y622000D02*
D03*
X1840000Y454000D02*
D03*
Y476000D02*
D03*
D68*
X1550000Y391000D02*
D03*
X1549000Y429000D02*
D03*
X1550000Y709000D02*
D03*
X1551000Y671000D02*
D03*
D69*
X2352000Y574000D02*
D03*
Y534000D02*
D03*
X2380000Y574000D02*
D03*
Y534000D02*
D03*
D70*
X1400000Y710000D02*
D03*
X1500000D02*
D03*
Y550000D02*
D03*
X1400000D02*
D03*
X1500000Y390000D02*
D03*
X1400000D02*
D03*
X1250000Y710000D02*
D03*
X1350000D02*
D03*
X1250000Y550000D02*
D03*
X1350000D02*
D03*
X1250000Y390000D02*
D03*
X1350000D02*
D03*
X1100000Y710000D02*
D03*
X1200000D02*
D03*
X1100000Y550000D02*
D03*
X1200000D02*
D03*
X1100000Y390000D02*
D03*
X1200000D02*
D03*
X1050000Y710000D02*
D03*
X950000D02*
D03*
X1050000Y550000D02*
D03*
X950000D02*
D03*
X1050000Y390000D02*
D03*
X950000D02*
D03*
D71*
X1678560Y759600D02*
D03*
Y810400D02*
D03*
Y289600D02*
D03*
Y340400D02*
D03*
X1801440Y655400D02*
D03*
Y604600D02*
D03*
Y495400D02*
D03*
Y444600D02*
D03*
D72*
X1770000Y785000D02*
D03*
Y315000D02*
D03*
X1710000Y630000D02*
D03*
Y470000D02*
D03*
D73*
X2020000Y828000D02*
D03*
Y776000D02*
D03*
Y279000D02*
D03*
Y331000D02*
D03*
D74*
X2005000Y419700D02*
D03*
Y404300D02*
D03*
X2004000Y674300D02*
D03*
Y689700D02*
D03*
Y706300D02*
D03*
Y721700D02*
D03*
X2005000Y389700D02*
D03*
Y374300D02*
D03*
X2019000Y705700D02*
D03*
Y690300D02*
D03*
X2034000Y705700D02*
D03*
Y690300D02*
D03*
X2020000Y388300D02*
D03*
Y403700D02*
D03*
X2035000Y388300D02*
D03*
Y403700D02*
D03*
D75*
X1550000Y586000D02*
D03*
Y614000D02*
D03*
Y514000D02*
D03*
Y486000D02*
D03*
D76*
X1896000Y545000D02*
D03*
X1844000D02*
D03*
D77*
X2120500Y632500D02*
D03*
X2179500D02*
D03*
Y669500D02*
D03*
X2120500D02*
D03*
D78*
X2201374Y592778D02*
D03*
Y586278D02*
D03*
Y579778D02*
D03*
Y573278D02*
D03*
Y566778D02*
D03*
Y560278D02*
D03*
Y553778D02*
D03*
Y547278D02*
D03*
Y540778D02*
D03*
Y534278D02*
D03*
Y527778D02*
D03*
Y521278D02*
D03*
Y514778D02*
D03*
Y508278D02*
D03*
X2257374Y592778D02*
D03*
Y586278D02*
D03*
Y579778D02*
D03*
Y573278D02*
D03*
Y566778D02*
D03*
Y560278D02*
D03*
Y553778D02*
D03*
Y547278D02*
D03*
Y540778D02*
D03*
Y534278D02*
D03*
Y527778D02*
D03*
Y521278D02*
D03*
Y514778D02*
D03*
Y508278D02*
D03*
D79*
X2081000Y462450D02*
D03*
Y475150D02*
D03*
Y487850D02*
D03*
Y500550D02*
D03*
Y513250D02*
D03*
Y525950D02*
D03*
Y538650D02*
D03*
Y551350D02*
D03*
Y564050D02*
D03*
Y576750D02*
D03*
Y589450D02*
D03*
Y602150D02*
D03*
Y614850D02*
D03*
Y627550D02*
D03*
X1989000Y462450D02*
D03*
Y475150D02*
D03*
Y487850D02*
D03*
Y564050D02*
D03*
Y576750D02*
D03*
Y589450D02*
D03*
Y602150D02*
D03*
Y614850D02*
D03*
D80*
Y500550D02*
D03*
Y513250D02*
D03*
Y525950D02*
D03*
Y538650D02*
D03*
Y551350D02*
D03*
Y627550D02*
D03*
D81*
X2203000Y474000D02*
D03*
D82*
Y461300D02*
D03*
Y448600D02*
D03*
Y435900D02*
D03*
X2259000Y474000D02*
D03*
Y461300D02*
D03*
Y448600D02*
D03*
Y435900D02*
D03*
D83*
X300000Y830000D02*
D03*
Y280000D02*
D03*
D84*
X2438800Y668800D02*
D03*
X2438400Y439500D02*
D03*
Y490300D02*
D03*
Y541100D02*
D03*
Y515700D02*
D03*
Y642700D02*
D03*
Y617300D02*
D03*
Y566500D02*
D03*
Y591900D02*
D03*
Y464900D02*
D03*
D85*
X2450000Y380000D02*
D03*
Y245000D02*
D03*
D86*
X2390000Y348500D02*
D03*
Y276500D02*
D03*
D87*
X293048Y617967D02*
D03*
Y412968D02*
D03*
D88*
X310848Y628167D02*
D03*
X293048Y638367D02*
D03*
X310848Y648567D02*
D03*
X293048Y658767D02*
D03*
X310848Y668967D02*
D03*
X293048Y679167D02*
D03*
X310848Y689367D02*
D03*
X359148Y722367D02*
D03*
Y699467D02*
D03*
Y585167D02*
D03*
Y608067D02*
D03*
X310848Y423168D02*
D03*
X293048Y433368D02*
D03*
X310848Y443568D02*
D03*
X293048Y453768D02*
D03*
X310848Y463968D02*
D03*
X293048Y474168D02*
D03*
X310848Y484368D02*
D03*
X359148Y517368D02*
D03*
Y494468D02*
D03*
Y380168D02*
D03*
Y403068D02*
D03*
D89*
X267648Y717267D02*
D03*
Y590267D02*
D03*
Y512268D02*
D03*
Y385268D02*
D03*
D90*
X301948Y735067D02*
D03*
Y572467D02*
D03*
Y530068D02*
D03*
Y367468D02*
D03*
M02*
