G04*
G04 #@! TF.GenerationSoftware,Altium Limited,Altium Designer,18.1.7 (191)*
G04*
G04 Layer_Physical_Order=2*
G04 Layer_Color=16711680*
%FSLAX44Y44*%
%MOMM*%
G71*
G01*
G75*
%ADD10C,0.2000*%
%ADD91C,0.4000*%
%ADD92C,0.5000*%
%ADD93C,1.0000*%
%ADD178R,7.0000X7.0000*%
%ADD179R,2.0000X1.8000*%
%ADD180O,3.0000X2.0000*%
%ADD181R,4.0000X4.0000*%
%ADD182R,1.3980X1.3980*%
%ADD183C,1.3980*%
%ADD184C,3.2500*%
%ADD185C,2.3550*%
%ADD186C,1.0000*%
%ADD187C,0.4800*%
%ADD188R,6.5000X5.0000*%
%ADD189R,3.0000X18.5000*%
%ADD190R,5.7000X2.5000*%
%ADD191R,1.2000X10.9000*%
%ADD192R,15.0000X3.0000*%
%ADD193R,3.5000X2.5000*%
%ADD194R,5.0000X7.5000*%
%ADD195R,5.0000X2.0000*%
%ADD196R,9.0000X8.0000*%
%ADD197R,9.0000X10.0000*%
%ADD198R,153.5000X6.5000*%
%ADD199R,13.0000X7.0000*%
%ADD200R,8.9000X17.5000*%
%ADD201R,27.5000X14.0000*%
%ADD202R,8.0000X4.0000*%
%ADD203R,7.5000X20.0000*%
%ADD204R,132.0000X5.5000*%
%ADD205R,29.5000X17.0000*%
%ADD206R,43.0000X15.5000*%
%ADD207R,12.5000X59.5000*%
%ADD208R,30.0000X15.5000*%
%ADD209R,19.0000X8.0000*%
%ADD210R,8.5000X28.0000*%
%ADD211R,3.5000X8.5000*%
%ADD212R,18.0000X15.5000*%
%ADD213R,15.0000X13.5000*%
%ADD214R,93.0000X53.5000*%
G36*
X1990000Y682103D02*
X1988861Y681541D01*
X1988802Y681586D01*
X1986968Y682346D01*
X1986270Y682438D01*
Y675000D01*
Y667562D01*
X1986968Y667654D01*
X1988802Y668414D01*
X1988861Y668459D01*
X1990000Y667897D01*
X1990000Y427103D01*
X1988861Y426541D01*
X1988802Y426586D01*
X1986968Y427346D01*
X1986270Y427438D01*
Y420000D01*
Y412562D01*
X1986968Y412654D01*
X1988802Y413414D01*
X1988861Y413459D01*
X1990000Y412897D01*
Y410000D01*
X1840000Y410000D01*
X1840000Y710000D01*
X1990000Y710000D01*
X1990000Y682103D01*
D02*
G37*
G36*
X2001470Y695000D02*
X2002478Y694326D01*
X2004000Y694024D01*
X2005522Y694326D01*
X2006530Y695000D01*
X2101451Y695000D01*
Y642987D01*
X2101188Y642812D01*
X2100326Y641522D01*
X2100024Y640000D01*
X2100326Y638478D01*
X2101188Y637188D01*
X2102478Y636326D01*
X2104000Y636024D01*
X2105522Y636326D01*
X2106812Y637188D01*
X2107674Y638478D01*
X2107976Y640000D01*
X2107674Y641522D01*
X2106812Y642812D01*
X2106549Y642987D01*
Y695000D01*
X2331431Y695000D01*
Y627569D01*
X2305679D01*
X2305522Y627674D01*
X2304000Y627976D01*
X2302478Y627674D01*
X2301188Y626812D01*
X2300326Y625522D01*
X2300024Y624000D01*
X2300326Y622478D01*
X2301188Y621188D01*
X2302478Y620326D01*
X2304000Y620024D01*
X2305522Y620326D01*
X2305679Y620431D01*
X2335000D01*
X2336366Y620703D01*
X2337523Y621477D01*
X2338297Y622634D01*
X2338569Y624000D01*
Y681075D01*
X2339839Y681754D01*
X2340478Y681326D01*
X2342000Y681024D01*
X2343522Y681326D01*
X2344812Y682188D01*
X2345674Y683478D01*
X2345977Y685000D01*
X2345674Y686522D01*
X2344812Y687812D01*
X2344549Y687987D01*
Y695000D01*
X2358451Y695000D01*
X2358451Y607987D01*
X2358188Y607812D01*
X2357326Y606522D01*
X2357024Y605000D01*
X2357326Y603478D01*
X2358188Y602188D01*
X2359478Y601326D01*
X2361000Y601024D01*
X2362522Y601326D01*
X2363812Y602188D01*
X2364674Y603478D01*
X2364976Y605000D01*
X2364674Y606522D01*
X2363812Y607812D01*
X2363549Y607987D01*
X2363549Y695000D01*
X2368451D01*
Y607987D01*
X2368188Y607812D01*
X2367326Y606522D01*
X2367024Y605000D01*
X2367326Y603478D01*
X2368188Y602188D01*
X2369478Y601326D01*
X2371000Y601024D01*
X2372522Y601326D01*
X2373812Y602188D01*
X2374674Y603478D01*
X2374977Y605000D01*
X2374674Y606522D01*
X2373812Y607812D01*
X2373549Y607987D01*
Y671088D01*
X2374819Y671767D01*
X2375478Y671326D01*
X2377000Y671024D01*
X2378522Y671326D01*
X2379812Y672188D01*
X2379987Y672451D01*
X2397013D01*
X2397188Y672188D01*
X2398478Y671326D01*
X2400000Y671024D01*
X2401522Y671326D01*
X2402812Y672188D01*
X2403674Y673478D01*
X2403976Y675000D01*
X2403674Y676522D01*
X2402812Y677812D01*
X2401522Y678674D01*
X2400000Y678976D01*
X2398478Y678674D01*
X2397188Y677812D01*
X2397013Y677549D01*
X2379987D01*
X2379812Y677812D01*
X2378522Y678674D01*
X2377000Y678976D01*
X2375478Y678674D01*
X2374819Y678233D01*
X2373549Y678912D01*
Y695000D01*
X2387451Y695000D01*
Y687987D01*
X2387188Y687812D01*
X2386326Y686522D01*
X2386024Y685000D01*
X2386326Y683478D01*
X2387188Y682188D01*
X2388478Y681326D01*
X2390000Y681024D01*
X2391522Y681326D01*
X2392812Y682188D01*
X2393674Y683478D01*
X2393976Y685000D01*
X2393674Y686522D01*
X2392812Y687812D01*
X2392549Y687987D01*
Y695000D01*
X2517897Y695000D01*
X2518459Y693861D01*
X2518414Y693802D01*
X2517654Y691968D01*
X2517562Y691270D01*
X2525000D01*
Y690000D01*
X2526270D01*
Y682562D01*
X2526968Y682654D01*
X2528802Y683414D01*
X2528861Y683459D01*
X2530000Y682897D01*
X2530000Y437103D01*
X2528861Y436541D01*
X2528802Y436586D01*
X2526968Y437346D01*
X2526270Y437438D01*
Y430000D01*
Y422562D01*
X2526968Y422654D01*
X2528802Y423414D01*
X2528861Y423459D01*
X2530000Y422897D01*
Y420000D01*
X2207796Y420000D01*
X2207117Y421270D01*
X2207653Y422072D01*
X2207784Y422730D01*
X2198216D01*
X2198347Y422072D01*
X2198883Y421270D01*
X2198204Y420000D01*
X2141549D01*
Y460013D01*
X2141812Y460188D01*
X2142674Y461478D01*
X2142748Y461851D01*
X2144126Y462269D01*
X2148198Y458198D01*
X2149025Y457645D01*
X2150000Y457451D01*
X2153658D01*
X2154184Y456181D01*
X2153347Y454927D01*
X2153216Y454270D01*
X2162784D01*
X2162653Y454927D01*
X2162214Y455584D01*
X2162522Y456326D01*
X2163812Y457188D01*
X2164674Y458478D01*
X2164976Y460000D01*
X2164674Y461522D01*
X2163812Y462812D01*
X2162522Y463674D01*
X2161000Y463976D01*
X2160074Y463792D01*
X2159311Y464935D01*
X2159674Y465478D01*
X2159914Y466685D01*
X2160807Y467125D01*
X2161210Y467186D01*
X2170451Y457944D01*
Y429987D01*
X2170188Y429812D01*
X2169326Y428522D01*
X2169024Y427000D01*
X2169326Y425478D01*
X2170188Y424188D01*
X2171478Y423326D01*
X2173000Y423024D01*
X2174522Y423326D01*
X2175812Y424188D01*
X2176674Y425478D01*
X2176976Y427000D01*
X2176674Y428522D01*
X2175812Y429812D01*
X2175549Y429987D01*
Y450018D01*
X2176669Y450616D01*
X2177072Y450347D01*
X2177730Y450216D01*
Y455000D01*
Y459784D01*
X2177072Y459653D01*
X2176756Y459442D01*
X2175355Y459976D01*
X2174802Y460802D01*
X2162549Y473056D01*
Y534285D01*
X2163730Y535134D01*
Y540000D01*
Y544866D01*
X2162549Y545715D01*
Y557944D01*
X2171802Y567198D01*
X2172355Y568024D01*
X2172549Y569000D01*
Y596944D01*
X2179690Y604085D01*
X2180000Y604024D01*
X2181521Y604326D01*
X2182812Y605188D01*
X2183674Y606478D01*
X2183976Y608000D01*
X2183674Y609522D01*
X2182812Y610812D01*
X2182288Y611161D01*
X2182673Y612431D01*
X2199522D01*
X2214477Y597477D01*
X2215634Y596703D01*
X2217000Y596431D01*
X2253522D01*
X2265289Y584664D01*
X2265326Y584478D01*
X2266188Y583188D01*
X2267478Y582326D01*
X2269000Y582024D01*
X2270522Y582326D01*
X2271812Y583188D01*
X2272674Y584478D01*
X2272976Y586000D01*
X2272674Y587522D01*
X2271812Y588812D01*
X2270522Y589674D01*
X2270336Y589711D01*
X2257523Y602523D01*
X2256366Y603297D01*
X2255000Y603569D01*
X2218478D01*
X2203523Y618523D01*
X2202366Y619297D01*
X2201000Y619569D01*
X2168679D01*
X2168522Y619674D01*
X2167000Y619976D01*
X2165478Y619674D01*
X2164188Y618812D01*
X2163326Y617522D01*
X2163024Y616000D01*
X2163326Y614478D01*
X2164188Y613188D01*
X2165478Y612326D01*
X2167000Y612024D01*
X2168522Y612326D01*
X2168679Y612431D01*
X2177326D01*
X2177711Y611161D01*
X2177188Y610812D01*
X2176326Y609522D01*
X2176024Y608000D01*
X2176085Y607690D01*
X2168198Y599802D01*
X2167645Y598975D01*
X2167451Y598000D01*
Y570056D01*
X2159722Y562327D01*
X2158549Y562813D01*
Y569013D01*
X2158812Y569188D01*
X2159674Y570478D01*
X2159976Y572000D01*
X2159674Y573522D01*
X2158812Y574812D01*
X2157522Y575674D01*
X2156000Y575976D01*
X2154478Y575674D01*
X2153188Y574812D01*
X2152326Y573522D01*
X2152023Y572000D01*
X2152326Y570478D01*
X2153188Y569188D01*
X2153451Y569013D01*
Y469987D01*
X2153188Y469812D01*
X2152326Y468522D01*
X2152023Y467000D01*
X2152326Y465478D01*
X2153188Y464188D01*
X2153741Y463819D01*
X2153356Y462549D01*
X2151056D01*
X2146549Y467056D01*
Y498013D01*
X2146812Y498188D01*
X2147674Y499478D01*
X2147976Y501000D01*
X2147674Y502522D01*
X2146812Y503812D01*
X2146549Y503987D01*
Y561013D01*
X2146812Y561188D01*
X2147674Y562478D01*
X2147976Y564000D01*
X2147674Y565522D01*
X2146812Y566812D01*
X2145522Y567674D01*
X2144000Y567976D01*
X2142478Y567674D01*
X2141188Y566812D01*
X2140326Y565522D01*
X2140024Y564000D01*
X2140326Y562478D01*
X2141188Y561188D01*
X2141451Y561013D01*
Y530644D01*
X2140181Y530259D01*
X2139812Y530812D01*
X2138522Y531674D01*
X2137000Y531976D01*
X2135478Y531674D01*
X2134188Y530812D01*
X2133326Y529522D01*
X2133024Y528000D01*
X2133326Y526478D01*
X2133689Y525935D01*
X2132925Y524792D01*
X2132000Y524976D01*
X2130478Y524674D01*
X2129188Y523812D01*
X2128326Y522522D01*
X2128024Y521000D01*
X2128326Y519478D01*
X2129188Y518188D01*
X2129451Y518013D01*
Y508350D01*
X2128181Y507866D01*
X2121569Y514478D01*
Y593321D01*
X2121674Y593478D01*
X2121922Y594726D01*
X2123217D01*
X2123347Y594072D01*
X2124438Y592439D01*
X2126073Y591347D01*
X2126730Y591216D01*
Y596000D01*
Y600784D01*
X2126073Y600653D01*
X2124438Y599562D01*
X2123347Y597928D01*
X2123018Y596274D01*
X2121723D01*
X2121674Y596522D01*
X2120812Y597812D01*
X2119522Y598674D01*
X2118000Y598976D01*
X2116478Y598674D01*
X2115188Y597812D01*
X2114326Y596522D01*
X2114024Y595000D01*
X2114326Y593478D01*
X2114431Y593321D01*
Y516569D01*
X2100679D01*
X2100522Y516674D01*
X2099000Y516976D01*
X2097478Y516674D01*
X2096188Y515812D01*
X2095326Y514522D01*
X2095024Y513000D01*
X2095326Y511478D01*
X2096188Y510188D01*
X2097478Y509326D01*
X2099000Y509024D01*
X2100522Y509326D01*
X2100679Y509431D01*
X2116522D01*
X2122431Y503522D01*
Y489679D01*
X2122326Y489522D01*
X2122024Y488000D01*
X2122326Y486478D01*
X2123188Y485188D01*
X2124478Y484326D01*
X2126000Y484024D01*
X2127522Y484326D01*
X2128181Y484767D01*
X2129451Y484088D01*
Y480056D01*
X2117310Y467915D01*
X2117000Y467976D01*
X2115478Y467674D01*
X2114188Y466812D01*
X2113326Y465522D01*
X2113024Y464000D01*
X2113326Y462478D01*
X2114188Y461188D01*
X2115478Y460326D01*
X2117000Y460024D01*
X2118522Y460326D01*
X2119812Y461188D01*
X2120674Y462478D01*
X2120976Y464000D01*
X2120915Y464310D01*
X2133181Y476576D01*
X2134451Y476050D01*
Y473056D01*
X2123197Y461802D01*
X2122645Y460975D01*
X2122451Y460000D01*
Y447987D01*
X2122188Y447812D01*
X2121326Y446522D01*
X2121024Y445000D01*
X2121326Y443478D01*
X2122188Y442188D01*
X2123478Y441326D01*
X2125000Y441024D01*
X2126522Y441326D01*
X2127812Y442188D01*
X2128674Y443478D01*
X2128976Y445000D01*
X2128674Y446522D01*
X2127812Y447812D01*
X2127549Y447987D01*
Y458944D01*
X2138802Y470198D01*
X2139355Y471025D01*
X2139549Y472000D01*
Y497771D01*
X2140819Y498290D01*
X2141451Y497742D01*
Y467464D01*
X2140181Y466741D01*
X2139000Y466976D01*
X2137478Y466674D01*
X2136188Y465812D01*
X2135326Y464522D01*
X2135023Y463000D01*
X2135326Y461478D01*
X2136188Y460188D01*
X2136451Y460013D01*
Y420000D01*
X2000000Y420000D01*
Y425305D01*
X2001270Y425690D01*
X2001438Y425438D01*
X2003073Y424347D01*
X2003730Y424216D01*
Y429000D01*
Y433784D01*
X2003073Y433653D01*
X2001438Y432561D01*
X2001270Y432309D01*
X2000000Y432695D01*
Y660204D01*
X2001270Y660883D01*
X2002072Y660347D01*
X2002730Y660216D01*
Y665000D01*
Y669784D01*
X2002072Y669653D01*
X2001270Y669117D01*
X2000000Y669796D01*
Y695000D01*
X2001470D01*
D02*
G37*
%LPC*%
G36*
X1983730Y682438D02*
X1983032Y682346D01*
X1981198Y681586D01*
X1979622Y680378D01*
X1978414Y678802D01*
X1977654Y676968D01*
X1977562Y676270D01*
X1983730D01*
Y682438D01*
D02*
G37*
G36*
X1961270D02*
Y676270D01*
X1967438D01*
X1967346Y676968D01*
X1966586Y678802D01*
X1965378Y680378D01*
X1963802Y681586D01*
X1961968Y682346D01*
X1961270Y682438D01*
D02*
G37*
G36*
X1958730D02*
X1958032Y682346D01*
X1956198Y681586D01*
X1954622Y680378D01*
X1953414Y678802D01*
X1952654Y676968D01*
X1952562Y676270D01*
X1958730D01*
Y682438D01*
D02*
G37*
G36*
X1936270D02*
Y676270D01*
X1942438D01*
X1942346Y676968D01*
X1941586Y678802D01*
X1940378Y680378D01*
X1938802Y681586D01*
X1936968Y682346D01*
X1936270Y682438D01*
D02*
G37*
G36*
X1933730D02*
X1933032Y682346D01*
X1931198Y681586D01*
X1929622Y680378D01*
X1928414Y678802D01*
X1927654Y676968D01*
X1927562Y676270D01*
X1933730D01*
Y682438D01*
D02*
G37*
G36*
X1911270D02*
Y676270D01*
X1917438D01*
X1917346Y676968D01*
X1916586Y678802D01*
X1915378Y680378D01*
X1913802Y681586D01*
X1911968Y682346D01*
X1911270Y682438D01*
D02*
G37*
G36*
X1908730D02*
X1908032Y682346D01*
X1906198Y681586D01*
X1904622Y680378D01*
X1903414Y678802D01*
X1902654Y676968D01*
X1902562Y676270D01*
X1908730D01*
Y682438D01*
D02*
G37*
G36*
X1886270D02*
Y676270D01*
X1892438D01*
X1892346Y676968D01*
X1891586Y678802D01*
X1890378Y680378D01*
X1888802Y681586D01*
X1886968Y682346D01*
X1886270Y682438D01*
D02*
G37*
G36*
X1883730D02*
X1883032Y682346D01*
X1881198Y681586D01*
X1879622Y680378D01*
X1878414Y678802D01*
X1877654Y676968D01*
X1877562Y676270D01*
X1883730D01*
Y682438D01*
D02*
G37*
G36*
X1861270D02*
Y676270D01*
X1867438D01*
X1867346Y676968D01*
X1866586Y678802D01*
X1865378Y680378D01*
X1863802Y681586D01*
X1861968Y682346D01*
X1861270Y682438D01*
D02*
G37*
G36*
X1858730D02*
X1858032Y682346D01*
X1856198Y681586D01*
X1854622Y680378D01*
X1853414Y678802D01*
X1852654Y676968D01*
X1852562Y676270D01*
X1858730D01*
Y682438D01*
D02*
G37*
G36*
X1983730Y673730D02*
X1977562D01*
X1977654Y673032D01*
X1978414Y671198D01*
X1979622Y669622D01*
X1981198Y668414D01*
X1983032Y667654D01*
X1983730Y667562D01*
Y673730D01*
D02*
G37*
G36*
X1967438D02*
X1961270D01*
Y667562D01*
X1961968Y667654D01*
X1963802Y668414D01*
X1965378Y669622D01*
X1966586Y671198D01*
X1967346Y673032D01*
X1967438Y673730D01*
D02*
G37*
G36*
X1958730D02*
X1952562D01*
X1952654Y673032D01*
X1953414Y671198D01*
X1954622Y669622D01*
X1956198Y668414D01*
X1958032Y667654D01*
X1958730Y667562D01*
Y673730D01*
D02*
G37*
G36*
X1942438D02*
X1936270D01*
Y667562D01*
X1936968Y667654D01*
X1938802Y668414D01*
X1940378Y669622D01*
X1941586Y671198D01*
X1942346Y673032D01*
X1942438Y673730D01*
D02*
G37*
G36*
X1933730D02*
X1927562D01*
X1927654Y673032D01*
X1928414Y671198D01*
X1929622Y669622D01*
X1931198Y668414D01*
X1933032Y667654D01*
X1933730Y667562D01*
Y673730D01*
D02*
G37*
G36*
X1917438D02*
X1911270D01*
Y667562D01*
X1911968Y667654D01*
X1913802Y668414D01*
X1915378Y669622D01*
X1916586Y671198D01*
X1917346Y673032D01*
X1917438Y673730D01*
D02*
G37*
G36*
X1908730D02*
X1902562D01*
X1902654Y673032D01*
X1903414Y671198D01*
X1904622Y669622D01*
X1906198Y668414D01*
X1908032Y667654D01*
X1908730Y667562D01*
Y673730D01*
D02*
G37*
G36*
X1892438D02*
X1886270D01*
Y667562D01*
X1886968Y667654D01*
X1888802Y668414D01*
X1890378Y669622D01*
X1891586Y671198D01*
X1892346Y673032D01*
X1892438Y673730D01*
D02*
G37*
G36*
X1883730D02*
X1877562D01*
X1877654Y673032D01*
X1878414Y671198D01*
X1879622Y669622D01*
X1881198Y668414D01*
X1883032Y667654D01*
X1883730Y667562D01*
Y673730D01*
D02*
G37*
G36*
X1867438D02*
X1861270D01*
Y667562D01*
X1861968Y667654D01*
X1863802Y668414D01*
X1865378Y669622D01*
X1866586Y671198D01*
X1867346Y673032D01*
X1867438Y673730D01*
D02*
G37*
G36*
X1858730D02*
X1852562D01*
X1852654Y673032D01*
X1853414Y671198D01*
X1854622Y669622D01*
X1856198Y668414D01*
X1858032Y667654D01*
X1858730Y667562D01*
Y673730D01*
D02*
G37*
G36*
X1907270Y637784D02*
Y634270D01*
X1910784D01*
X1910653Y634927D01*
X1909561Y636562D01*
X1907928Y637653D01*
X1907270Y637784D01*
D02*
G37*
G36*
X1904730D02*
X1904073Y637653D01*
X1902439Y636562D01*
X1901347Y634927D01*
X1901216Y634270D01*
X1904730D01*
Y637784D01*
D02*
G37*
G36*
X1910784Y631730D02*
X1901216D01*
X1901347Y631073D01*
X1902439Y629439D01*
X1902691Y629270D01*
X1902305Y628000D01*
X1877000Y628000D01*
Y628000D01*
X1864000D01*
X1864000Y547530D01*
X1863326Y546522D01*
X1863024Y545000D01*
X1863326Y543478D01*
X1864000Y542470D01*
Y540000D01*
X1873815D01*
X1874000Y539963D01*
X1874185Y540000D01*
X1877000D01*
Y541063D01*
X1877561Y541438D01*
X1878653Y543073D01*
X1879037Y545000D01*
X1878653Y546927D01*
X1877561Y548562D01*
X1877000Y548937D01*
X1877000Y605500D01*
X1900553Y605500D01*
X1900963Y605000D01*
X1901347Y603073D01*
X1902439Y601438D01*
X1904073Y600347D01*
X1904730Y600216D01*
Y605000D01*
X1907270D01*
Y600216D01*
X1907928Y600347D01*
X1909561Y601438D01*
X1910653Y603073D01*
X1911037Y605000D01*
X1911447Y605500D01*
X1915000D01*
X1915000Y628000D01*
X1909695D01*
X1909309Y629270D01*
X1909561Y629439D01*
X1910653Y631073D01*
X1910784Y631730D01*
D02*
G37*
G36*
X1955270Y600784D02*
Y597270D01*
X1958784D01*
X1958653Y597928D01*
X1957561Y599562D01*
X1955927Y600653D01*
X1955270Y600784D01*
D02*
G37*
G36*
X1952730D02*
X1952072Y600653D01*
X1950439Y599562D01*
X1949347Y597928D01*
X1949216Y597270D01*
X1952730D01*
Y600784D01*
D02*
G37*
G36*
X1898730Y576438D02*
X1898032Y576346D01*
X1896198Y575586D01*
X1894622Y574378D01*
X1894207D01*
X1893154Y574549D01*
X1891803Y575586D01*
X1889968Y576346D01*
X1889270Y576438D01*
Y569000D01*
Y561562D01*
X1889968Y561654D01*
X1891803Y562414D01*
X1893154Y563451D01*
X1894000Y563589D01*
X1894846Y563451D01*
X1896198Y562414D01*
X1898032Y561654D01*
X1898730Y561562D01*
Y569000D01*
Y576438D01*
D02*
G37*
G36*
X1886730Y576438D02*
X1886032Y576346D01*
X1884198Y575586D01*
X1882622Y574378D01*
X1881414Y572803D01*
X1880654Y570968D01*
X1880562Y570270D01*
X1886730D01*
Y576438D01*
D02*
G37*
G36*
Y567730D02*
X1880562D01*
X1880654Y567032D01*
X1881414Y565197D01*
X1882622Y563622D01*
X1884198Y562414D01*
X1886032Y561654D01*
X1886730Y561562D01*
Y567730D01*
D02*
G37*
G36*
X1935000Y599976D02*
X1933478Y599674D01*
X1932188Y598812D01*
X1931326Y597522D01*
X1931024Y596000D01*
X1931326Y594478D01*
X1932188Y593188D01*
X1932451Y593013D01*
Y571619D01*
X1931181Y571366D01*
X1930586Y572803D01*
X1929378Y574378D01*
X1927802Y575586D01*
X1925968Y576346D01*
X1925270Y576438D01*
Y569000D01*
X1922730D01*
Y576438D01*
X1922032Y576346D01*
X1920197Y575586D01*
X1918846Y574549D01*
X1918000Y574411D01*
X1917153Y574549D01*
X1915802Y575586D01*
X1913968Y576346D01*
X1913270Y576438D01*
Y569000D01*
X1910730D01*
Y576438D01*
X1910032Y576346D01*
X1908197Y575586D01*
X1906846Y574549D01*
X1906000Y574411D01*
X1905154Y574549D01*
X1903803Y575586D01*
X1901968Y576346D01*
X1901270Y576438D01*
Y569000D01*
Y561562D01*
X1901968Y561654D01*
X1903803Y562414D01*
X1905058Y563377D01*
X1906388Y563026D01*
X1906533Y562261D01*
X1905414Y560802D01*
X1904654Y558968D01*
X1904562Y558270D01*
X1912000D01*
Y555730D01*
X1904562D01*
X1904654Y555032D01*
X1905414Y553198D01*
X1906622Y551622D01*
Y550378D01*
X1905414Y548802D01*
X1904654Y546968D01*
X1904562Y546270D01*
X1912000D01*
Y543730D01*
X1904562D01*
X1904654Y543032D01*
X1905414Y541198D01*
X1906622Y539622D01*
Y538378D01*
X1905414Y536802D01*
X1904654Y534968D01*
X1904562Y534270D01*
X1912000D01*
Y531730D01*
X1904562D01*
X1904654Y531032D01*
X1905414Y529198D01*
X1906115Y528283D01*
X1905898Y526751D01*
X1905408Y526378D01*
X1905378D01*
X1903803Y527586D01*
X1901968Y528346D01*
X1901270Y528438D01*
Y521000D01*
Y513562D01*
X1901968Y513654D01*
X1903803Y514414D01*
X1905378Y515622D01*
X1906622D01*
X1908197Y514414D01*
X1910032Y513654D01*
X1910730Y513562D01*
Y521000D01*
X1913270D01*
Y513562D01*
X1913968Y513654D01*
X1915802Y514414D01*
X1917378Y515622D01*
X1918622D01*
X1920197Y514414D01*
X1922032Y513654D01*
X1922730Y513562D01*
Y521000D01*
X1925270D01*
Y513562D01*
X1925968Y513654D01*
X1927802Y514414D01*
X1929378Y515622D01*
X1930586Y517197D01*
X1931181Y518634D01*
X1932451Y518381D01*
Y490987D01*
X1932188Y490812D01*
X1931326Y489522D01*
X1931024Y488000D01*
X1931326Y486478D01*
X1932188Y485188D01*
X1933478Y484326D01*
X1935000Y484024D01*
X1936522Y484326D01*
X1937812Y485188D01*
X1938674Y486478D01*
X1938976Y488000D01*
X1938674Y489522D01*
X1937812Y490812D01*
X1937549Y490987D01*
Y509536D01*
X1938819Y510258D01*
X1940000Y510024D01*
X1941181Y510258D01*
X1942451Y509536D01*
Y477987D01*
X1942188Y477812D01*
X1941326Y476522D01*
X1941024Y475000D01*
X1941326Y473478D01*
X1942188Y472188D01*
X1943478Y471326D01*
X1945000Y471024D01*
X1946522Y471326D01*
X1947812Y472188D01*
X1948674Y473478D01*
X1948976Y475000D01*
X1948674Y476522D01*
X1947812Y477812D01*
X1947549Y477987D01*
Y522980D01*
X1948819Y523366D01*
X1949438Y522438D01*
X1951073Y521347D01*
X1951730Y521216D01*
Y526000D01*
Y530784D01*
X1951073Y530653D01*
X1949438Y529562D01*
X1948819Y528634D01*
X1947549Y529020D01*
Y586340D01*
X1947840Y586557D01*
X1948563Y586217D01*
X1949048Y585876D01*
X1949326Y584478D01*
X1950188Y583188D01*
X1950451Y583013D01*
Y570000D01*
Y541987D01*
X1950188Y541812D01*
X1949326Y540522D01*
X1949024Y539000D01*
X1949326Y537478D01*
X1950188Y536188D01*
X1951478Y535326D01*
X1953000Y535024D01*
X1954522Y535326D01*
X1955812Y536188D01*
X1956674Y537478D01*
X1956976Y539000D01*
X1956674Y540522D01*
X1955812Y541812D01*
X1955549Y541987D01*
Y570000D01*
Y583013D01*
X1955812Y583188D01*
X1956674Y584478D01*
X1956976Y586000D01*
X1956674Y587522D01*
X1955812Y588812D01*
X1954522Y589674D01*
X1954274Y589723D01*
Y591018D01*
X1955927Y591347D01*
X1957561Y592439D01*
X1958653Y594072D01*
X1958784Y594730D01*
X1949216D01*
X1949347Y594072D01*
X1950439Y592439D01*
X1952072Y591347D01*
X1952726Y591217D01*
Y589922D01*
X1951478Y589674D01*
X1950188Y588812D01*
X1949970Y588485D01*
X1948774Y588980D01*
X1948976Y590000D01*
X1948674Y591522D01*
X1947812Y592812D01*
X1946522Y593674D01*
X1945000Y593976D01*
X1943478Y593674D01*
X1942188Y592812D01*
X1941326Y591522D01*
X1941037Y590065D01*
X1940916Y589705D01*
X1940295Y589084D01*
X1939935Y588963D01*
X1938819Y588741D01*
X1937549Y589464D01*
Y593013D01*
X1937812Y593188D01*
X1938674Y594478D01*
X1938976Y596000D01*
X1938674Y597522D01*
X1937812Y598812D01*
X1936522Y599674D01*
X1935000Y599976D01*
D02*
G37*
G36*
X1972270Y530784D02*
Y527270D01*
X1975784D01*
X1975653Y527927D01*
X1974561Y529562D01*
X1972928Y530653D01*
X1972270Y530784D01*
D02*
G37*
G36*
X1954270D02*
Y527270D01*
X1957784D01*
X1957653Y527927D01*
X1956561Y529562D01*
X1954928Y530653D01*
X1954270Y530784D01*
D02*
G37*
G36*
X1898730Y528438D02*
X1898032Y528346D01*
X1896198Y527586D01*
X1894622Y526378D01*
X1893378D01*
X1891803Y527586D01*
X1889968Y528346D01*
X1889270Y528438D01*
Y521000D01*
Y513562D01*
X1889968Y513654D01*
X1891803Y514414D01*
X1893378Y515622D01*
X1894622D01*
X1896198Y514414D01*
X1898032Y513654D01*
X1898730Y513562D01*
Y521000D01*
Y528438D01*
D02*
G37*
G36*
X1886730D02*
X1886032Y528346D01*
X1884198Y527586D01*
X1882623Y526378D01*
X1881378D01*
X1879803Y527586D01*
X1877968Y528346D01*
X1877270Y528438D01*
Y521000D01*
Y513562D01*
X1877968Y513654D01*
X1879803Y514414D01*
X1881378Y515622D01*
X1882623D01*
X1884198Y514414D01*
X1886032Y513654D01*
X1886730Y513562D01*
Y521000D01*
Y528438D01*
D02*
G37*
G36*
X1874730D02*
X1874032Y528346D01*
X1872198Y527586D01*
X1870623Y526378D01*
X1869378D01*
X1867803Y527586D01*
X1865968Y528346D01*
X1865270Y528438D01*
Y521000D01*
Y513562D01*
X1865968Y513654D01*
X1867803Y514414D01*
X1869378Y515622D01*
X1870623D01*
X1872198Y514414D01*
X1874032Y513654D01*
X1874730Y513562D01*
Y521000D01*
Y528438D01*
D02*
G37*
G36*
X1862730D02*
X1862032Y528346D01*
X1860197Y527586D01*
X1858622Y526378D01*
X1857414Y524803D01*
X1856654Y522968D01*
X1856562Y522270D01*
X1862730D01*
Y528438D01*
D02*
G37*
G36*
X1975784Y524730D02*
X1972270D01*
Y521216D01*
X1972928Y521347D01*
X1974561Y522438D01*
X1975653Y524072D01*
X1975784Y524730D01*
D02*
G37*
G36*
X1957784D02*
X1954270D01*
Y521216D01*
X1954928Y521347D01*
X1956561Y522438D01*
X1957653Y524072D01*
X1957784Y524730D01*
D02*
G37*
G36*
X1862730Y519730D02*
X1856562D01*
X1856654Y519032D01*
X1857414Y517197D01*
X1858622Y515622D01*
X1860197Y514414D01*
X1862032Y513654D01*
X1862730Y513562D01*
Y519730D01*
D02*
G37*
G36*
X1966000Y593976D02*
X1964478Y593674D01*
X1963188Y592812D01*
X1962326Y591522D01*
X1962024Y590000D01*
X1962326Y588478D01*
X1963188Y587188D01*
X1963451Y587013D01*
Y504987D01*
X1963188Y504812D01*
X1962326Y503522D01*
X1962024Y502000D01*
X1962326Y500478D01*
X1963188Y499188D01*
X1964478Y498326D01*
X1966000Y498024D01*
X1967522Y498326D01*
X1968812Y499188D01*
X1969674Y500478D01*
X1969976Y502000D01*
X1969674Y503522D01*
X1968812Y504812D01*
X1968549Y504987D01*
Y520285D01*
X1969730Y521134D01*
Y526000D01*
Y530866D01*
X1968549Y531715D01*
Y587013D01*
X1968812Y587188D01*
X1969674Y588478D01*
X1969976Y590000D01*
X1969674Y591522D01*
X1968812Y592812D01*
X1967522Y593674D01*
X1966000Y593976D01*
D02*
G37*
G36*
X1983730Y427438D02*
X1983032Y427346D01*
X1981198Y426586D01*
X1979622Y425378D01*
X1978414Y423802D01*
X1977654Y421968D01*
X1977562Y421270D01*
X1983730D01*
Y427438D01*
D02*
G37*
G36*
X1961270D02*
Y421270D01*
X1967438D01*
X1967346Y421968D01*
X1966586Y423802D01*
X1965378Y425378D01*
X1963802Y426586D01*
X1961968Y427346D01*
X1961270Y427438D01*
D02*
G37*
G36*
X1958730D02*
X1958032Y427346D01*
X1956198Y426586D01*
X1954622Y425378D01*
X1953414Y423802D01*
X1952654Y421968D01*
X1952562Y421270D01*
X1958730D01*
Y427438D01*
D02*
G37*
G36*
X1936270D02*
Y421270D01*
X1942438D01*
X1942346Y421968D01*
X1941586Y423802D01*
X1940378Y425378D01*
X1938802Y426586D01*
X1936968Y427346D01*
X1936270Y427438D01*
D02*
G37*
G36*
X1933730D02*
X1933032Y427346D01*
X1931198Y426586D01*
X1929622Y425378D01*
X1928414Y423802D01*
X1927654Y421968D01*
X1927562Y421270D01*
X1933730D01*
Y427438D01*
D02*
G37*
G36*
X1911270D02*
Y421270D01*
X1917438D01*
X1917346Y421968D01*
X1916586Y423802D01*
X1915378Y425378D01*
X1913802Y426586D01*
X1911968Y427346D01*
X1911270Y427438D01*
D02*
G37*
G36*
X1908730D02*
X1908032Y427346D01*
X1906198Y426586D01*
X1904622Y425378D01*
X1903414Y423802D01*
X1902654Y421968D01*
X1902562Y421270D01*
X1908730D01*
Y427438D01*
D02*
G37*
G36*
X1886270D02*
Y421270D01*
X1892438D01*
X1892346Y421968D01*
X1891586Y423802D01*
X1890378Y425378D01*
X1888802Y426586D01*
X1886968Y427346D01*
X1886270Y427438D01*
D02*
G37*
G36*
X1883730D02*
X1883032Y427346D01*
X1881198Y426586D01*
X1879622Y425378D01*
X1878414Y423802D01*
X1877654Y421968D01*
X1877562Y421270D01*
X1883730D01*
Y427438D01*
D02*
G37*
G36*
X1861270D02*
Y421270D01*
X1867438D01*
X1867346Y421968D01*
X1866586Y423802D01*
X1865378Y425378D01*
X1863802Y426586D01*
X1861968Y427346D01*
X1861270Y427438D01*
D02*
G37*
G36*
X1858730D02*
X1858032Y427346D01*
X1856198Y426586D01*
X1854622Y425378D01*
X1853414Y423802D01*
X1852654Y421968D01*
X1852562Y421270D01*
X1858730D01*
Y427438D01*
D02*
G37*
G36*
X1983730Y418730D02*
X1977562D01*
X1977654Y418032D01*
X1978414Y416198D01*
X1979622Y414622D01*
X1981198Y413414D01*
X1983032Y412654D01*
X1983730Y412562D01*
Y418730D01*
D02*
G37*
G36*
X1967438D02*
X1961270D01*
Y412562D01*
X1961968Y412654D01*
X1963802Y413414D01*
X1965378Y414622D01*
X1966586Y416198D01*
X1967346Y418032D01*
X1967438Y418730D01*
D02*
G37*
G36*
X1958730D02*
X1952562D01*
X1952654Y418032D01*
X1953414Y416198D01*
X1954622Y414622D01*
X1956198Y413414D01*
X1958032Y412654D01*
X1958730Y412562D01*
Y418730D01*
D02*
G37*
G36*
X1942438D02*
X1936270D01*
Y412562D01*
X1936968Y412654D01*
X1938802Y413414D01*
X1940378Y414622D01*
X1941586Y416198D01*
X1942346Y418032D01*
X1942438Y418730D01*
D02*
G37*
G36*
X1933730D02*
X1927562D01*
X1927654Y418032D01*
X1928414Y416198D01*
X1929622Y414622D01*
X1931198Y413414D01*
X1933032Y412654D01*
X1933730Y412562D01*
Y418730D01*
D02*
G37*
G36*
X1917438D02*
X1911270D01*
Y412562D01*
X1911968Y412654D01*
X1913802Y413414D01*
X1915378Y414622D01*
X1916586Y416198D01*
X1917346Y418032D01*
X1917438Y418730D01*
D02*
G37*
G36*
X1908730D02*
X1902562D01*
X1902654Y418032D01*
X1903414Y416198D01*
X1904622Y414622D01*
X1906198Y413414D01*
X1908032Y412654D01*
X1908730Y412562D01*
Y418730D01*
D02*
G37*
G36*
X1892438D02*
X1886270D01*
Y412562D01*
X1886968Y412654D01*
X1888802Y413414D01*
X1890378Y414622D01*
X1891586Y416198D01*
X1892346Y418032D01*
X1892438Y418730D01*
D02*
G37*
G36*
X1883730D02*
X1877562D01*
X1877654Y418032D01*
X1878414Y416198D01*
X1879622Y414622D01*
X1881198Y413414D01*
X1883032Y412654D01*
X1883730Y412562D01*
Y418730D01*
D02*
G37*
G36*
X1867438D02*
X1861270D01*
Y412562D01*
X1861968Y412654D01*
X1863802Y413414D01*
X1865378Y414622D01*
X1866586Y416198D01*
X1867346Y418032D01*
X1867438Y418730D01*
D02*
G37*
G36*
X1858730D02*
X1852562D01*
X1852654Y418032D01*
X1853414Y416198D01*
X1854622Y414622D01*
X1856198Y413414D01*
X1858032Y412654D01*
X1858730Y412562D01*
Y418730D01*
D02*
G37*
G36*
X2271270Y692438D02*
Y686270D01*
X2277438D01*
X2277346Y686968D01*
X2276586Y688802D01*
X2275378Y690378D01*
X2273802Y691586D01*
X2271968Y692346D01*
X2271270Y692438D01*
D02*
G37*
G36*
X2268730D02*
X2268032Y692346D01*
X2266198Y691586D01*
X2264622Y690378D01*
X2263414Y688802D01*
X2262654Y686968D01*
X2262562Y686270D01*
X2268730D01*
Y692438D01*
D02*
G37*
G36*
X2241270D02*
Y686270D01*
X2247438D01*
X2247346Y686968D01*
X2246586Y688802D01*
X2245378Y690378D01*
X2243802Y691586D01*
X2241968Y692346D01*
X2241270Y692438D01*
D02*
G37*
G36*
X2238730D02*
X2238032Y692346D01*
X2236198Y691586D01*
X2234622Y690378D01*
X2233414Y688802D01*
X2232654Y686968D01*
X2232562Y686270D01*
X2238730D01*
Y692438D01*
D02*
G37*
G36*
X2051270D02*
Y686270D01*
X2057438D01*
X2057346Y686968D01*
X2056586Y688802D01*
X2055378Y690378D01*
X2053802Y691586D01*
X2051968Y692346D01*
X2051270Y692438D01*
D02*
G37*
G36*
X2048730D02*
X2048032Y692346D01*
X2046198Y691586D01*
X2044622Y690378D01*
X2043414Y688802D01*
X2042654Y686968D01*
X2042562Y686270D01*
X2048730D01*
Y692438D01*
D02*
G37*
G36*
X2523730Y688730D02*
X2517562D01*
X2517654Y688032D01*
X2518414Y686198D01*
X2519622Y684622D01*
X2521198Y683414D01*
X2523032Y682654D01*
X2523730Y682562D01*
Y688730D01*
D02*
G37*
G36*
X2031000Y681976D02*
X2029478Y681674D01*
X2028188Y680812D01*
X2027326Y679522D01*
X2027147Y678623D01*
X2025853D01*
X2025674Y679522D01*
X2024812Y680812D01*
X2023522Y681674D01*
X2022000Y681976D01*
X2020478Y681674D01*
X2019188Y680812D01*
X2018326Y679522D01*
X2018024Y678000D01*
X2018326Y676478D01*
X2019188Y675188D01*
X2020451Y674344D01*
Y664464D01*
X2019181Y663742D01*
X2018000Y663976D01*
X2016478Y663674D01*
X2015188Y662812D01*
X2014326Y661522D01*
X2014024Y660000D01*
X2014326Y658478D01*
X2014431Y658321D01*
Y655674D01*
X2013161Y655288D01*
X2012812Y655812D01*
X2011522Y656674D01*
X2010000Y656976D01*
X2008478Y656674D01*
X2007188Y655812D01*
X2006326Y654522D01*
X2006024Y653000D01*
X2006326Y651478D01*
X2006431Y651321D01*
Y603679D01*
X2006326Y603522D01*
X2006024Y602000D01*
X2006326Y600478D01*
X2007188Y599188D01*
X2008478Y598326D01*
X2010000Y598024D01*
X2011522Y598326D01*
X2012812Y599188D01*
X2013161Y599712D01*
X2014431Y599326D01*
Y562478D01*
X2006664Y554711D01*
X2006478Y554674D01*
X2005188Y553812D01*
X2004326Y552522D01*
X2004023Y551000D01*
X2004326Y549478D01*
X2005188Y548188D01*
X2006478Y547326D01*
X2008000Y547024D01*
X2009522Y547326D01*
X2010812Y548188D01*
X2011674Y549478D01*
X2011711Y549664D01*
X2019278Y557231D01*
X2020451Y556745D01*
Y463000D01*
X2020645Y462025D01*
X2021198Y461198D01*
X2022025Y460645D01*
X2023000Y460451D01*
X2054013D01*
X2054188Y460188D01*
X2055478Y459326D01*
X2057000Y459024D01*
X2058522Y459326D01*
X2059812Y460188D01*
X2060674Y461478D01*
X2060976Y463000D01*
X2060674Y464522D01*
X2059812Y465812D01*
X2058522Y466674D01*
X2057000Y466976D01*
X2055478Y466674D01*
X2054188Y465812D01*
X2054013Y465549D01*
X2025549D01*
Y472552D01*
X2026819Y473487D01*
X2027000Y473451D01*
X2054013D01*
X2054188Y473188D01*
X2055478Y472326D01*
X2057000Y472024D01*
X2058522Y472326D01*
X2059812Y473188D01*
X2060674Y474478D01*
X2060976Y476000D01*
X2060674Y477522D01*
X2059812Y478812D01*
X2058522Y479674D01*
X2057000Y479976D01*
X2055478Y479674D01*
X2054188Y478812D01*
X2054013Y478549D01*
X2029549D01*
Y672944D01*
X2030690Y674085D01*
X2031000Y674024D01*
X2032522Y674326D01*
X2033812Y675188D01*
X2034674Y676478D01*
X2034976Y678000D01*
X2034674Y679522D01*
X2033812Y680812D01*
X2032522Y681674D01*
X2031000Y681976D01*
D02*
G37*
G36*
X2277438Y683730D02*
X2271270D01*
Y677562D01*
X2271968Y677654D01*
X2273802Y678414D01*
X2275378Y679622D01*
X2276586Y681198D01*
X2277346Y683032D01*
X2277438Y683730D01*
D02*
G37*
G36*
X2268730D02*
X2262562D01*
X2262654Y683032D01*
X2263414Y681198D01*
X2264622Y679622D01*
X2266198Y678414D01*
X2268032Y677654D01*
X2268730Y677562D01*
Y683730D01*
D02*
G37*
G36*
X2247438D02*
X2241270D01*
Y677562D01*
X2241968Y677654D01*
X2243802Y678414D01*
X2245378Y679622D01*
X2246586Y681198D01*
X2247346Y683032D01*
X2247438Y683730D01*
D02*
G37*
G36*
X2238730D02*
X2232562D01*
X2232654Y683032D01*
X2233414Y681198D01*
X2234622Y679622D01*
X2236198Y678414D01*
X2238032Y677654D01*
X2238730Y677562D01*
Y683730D01*
D02*
G37*
G36*
X2057438D02*
X2051270D01*
Y677562D01*
X2051968Y677654D01*
X2053802Y678414D01*
X2055378Y679622D01*
X2056586Y681198D01*
X2057346Y683032D01*
X2057438Y683730D01*
D02*
G37*
G36*
X2048730D02*
X2042562D01*
X2042654Y683032D01*
X2043414Y681198D01*
X2044622Y679622D01*
X2046198Y678414D01*
X2048032Y677654D01*
X2048730Y677562D01*
Y683730D01*
D02*
G37*
G36*
X2151270Y675784D02*
Y672270D01*
X2154784D01*
X2154653Y672927D01*
X2153562Y674561D01*
X2151927Y675653D01*
X2151270Y675784D01*
D02*
G37*
G36*
X2148730D02*
X2148073Y675653D01*
X2146438Y674561D01*
X2145347Y672927D01*
X2145216Y672270D01*
X2148730D01*
Y675784D01*
D02*
G37*
G36*
X2005270Y669784D02*
Y666270D01*
X2008784D01*
X2008653Y666927D01*
X2007561Y668561D01*
X2005927Y669653D01*
X2005270Y669784D01*
D02*
G37*
G36*
X2154784Y669730D02*
X2151270D01*
Y666216D01*
X2151927Y666347D01*
X2153562Y667439D01*
X2154653Y669072D01*
X2154784Y669730D01*
D02*
G37*
G36*
X2148730D02*
X2145216D01*
X2145347Y669072D01*
X2146438Y667439D01*
X2148073Y666347D01*
X2148730Y666216D01*
Y669730D01*
D02*
G37*
G36*
X2256000Y671976D02*
X2254478Y671674D01*
X2253188Y670812D01*
X2252326Y669522D01*
X2252024Y668000D01*
X2252326Y666478D01*
X2253188Y665188D01*
X2254478Y664326D01*
X2256000Y664024D01*
X2257522Y664326D01*
X2258812Y665188D01*
X2259674Y666478D01*
X2259976Y668000D01*
X2259674Y669522D01*
X2258812Y670812D01*
X2257522Y671674D01*
X2256000Y671976D01*
D02*
G37*
G36*
X2081000Y663976D02*
X2079478Y663674D01*
X2079321Y663569D01*
X2037679D01*
X2037522Y663674D01*
X2036000Y663976D01*
X2034478Y663674D01*
X2033188Y662812D01*
X2032326Y661522D01*
X2032024Y660000D01*
X2032326Y658478D01*
X2033119Y657293D01*
X2033268Y656889D01*
Y656111D01*
X2033119Y655707D01*
X2032326Y654522D01*
X2032024Y653000D01*
X2032326Y651478D01*
X2033188Y650188D01*
X2034478Y649326D01*
X2036000Y649024D01*
X2037522Y649326D01*
X2037679Y649431D01*
X2079321D01*
X2079478Y649326D01*
X2081000Y649024D01*
X2082522Y649326D01*
X2082679Y649431D01*
X2083000D01*
X2084366Y649703D01*
X2085523Y650477D01*
X2086297Y651634D01*
X2086569Y653000D01*
X2086297Y654366D01*
X2085523Y655523D01*
X2084547Y656176D01*
X2084436Y656328D01*
X2084291Y656699D01*
X2084115Y657642D01*
X2084674Y658478D01*
X2084976Y660000D01*
X2084674Y661522D01*
X2083812Y662812D01*
X2082522Y663674D01*
X2081000Y663976D01*
D02*
G37*
G36*
X2008784Y663730D02*
X2005270D01*
Y660216D01*
X2005927Y660347D01*
X2007561Y661439D01*
X2008653Y663073D01*
X2008784Y663730D01*
D02*
G37*
G36*
X2450300Y679300D02*
X2427300D01*
Y658300D01*
X2450300D01*
Y679300D01*
D02*
G37*
G36*
X2228270Y660784D02*
Y657270D01*
X2231784D01*
X2231653Y657927D01*
X2230561Y659561D01*
X2228927Y660653D01*
X2228270Y660784D01*
D02*
G37*
G36*
X2225730D02*
X2225072Y660653D01*
X2223438Y659561D01*
X2222346Y657927D01*
X2222216Y657270D01*
X2225730D01*
Y660784D01*
D02*
G37*
G36*
X2210270D02*
Y657270D01*
X2213784D01*
X2213653Y657927D01*
X2212561Y659561D01*
X2210927Y660653D01*
X2210270Y660784D01*
D02*
G37*
G36*
X2207730D02*
X2207072Y660653D01*
X2205438Y659561D01*
X2204346Y657927D01*
X2204216Y657270D01*
X2207730D01*
Y660784D01*
D02*
G37*
G36*
X2264270Y655784D02*
Y652270D01*
X2267784D01*
X2267653Y652927D01*
X2266561Y654561D01*
X2264928Y655653D01*
X2264270Y655784D01*
D02*
G37*
G36*
X2261730D02*
X2261073Y655653D01*
X2259438Y654561D01*
X2258347Y652927D01*
X2258216Y652270D01*
X2261730D01*
Y655784D01*
D02*
G37*
G36*
X2231784Y654730D02*
X2222216D01*
X2222346Y654072D01*
X2223438Y652439D01*
X2224492Y651734D01*
Y650266D01*
X2223438Y649561D01*
X2222346Y647927D01*
X2222216Y647270D01*
X2231784D01*
X2231653Y647927D01*
X2230561Y649561D01*
X2229507Y650266D01*
Y651734D01*
X2230561Y652439D01*
X2231653Y654072D01*
X2231784Y654730D01*
D02*
G37*
G36*
X2213784D02*
X2204216D01*
X2204346Y654072D01*
X2205438Y652439D01*
X2206492Y651734D01*
Y650266D01*
X2205438Y649561D01*
X2204346Y647927D01*
X2204216Y647270D01*
X2213784D01*
X2213653Y647927D01*
X2212561Y649561D01*
X2211508Y650266D01*
Y651734D01*
X2212561Y652439D01*
X2213653Y654072D01*
X2213784Y654730D01*
D02*
G37*
G36*
X2267784Y649730D02*
X2264270D01*
Y646216D01*
X2264928Y646347D01*
X2266561Y647439D01*
X2267653Y649072D01*
X2267784Y649730D01*
D02*
G37*
G36*
X2261730D02*
X2258216D01*
X2258347Y649072D01*
X2259438Y647439D01*
X2261073Y646347D01*
X2261730Y646216D01*
Y649730D01*
D02*
G37*
G36*
X2450940Y654240D02*
X2439670D01*
Y643970D01*
X2450940D01*
Y654240D01*
D02*
G37*
G36*
X2437130D02*
X2425860D01*
Y643970D01*
X2437130D01*
Y654240D01*
D02*
G37*
G36*
X2231784Y644730D02*
X2228270D01*
Y641216D01*
X2228927Y641347D01*
X2230561Y642439D01*
X2231653Y644072D01*
X2231784Y644730D01*
D02*
G37*
G36*
X2225730D02*
X2222216D01*
X2222346Y644072D01*
X2223438Y642439D01*
X2225072Y641347D01*
X2225730Y641216D01*
Y644730D01*
D02*
G37*
G36*
X2213784D02*
X2210270D01*
Y641216D01*
X2210927Y641347D01*
X2212561Y642439D01*
X2213653Y644072D01*
X2213784Y644730D01*
D02*
G37*
G36*
X2207730D02*
X2204216D01*
X2204346Y644072D01*
X2205438Y642439D01*
X2207072Y641347D01*
X2207730Y641216D01*
Y644730D01*
D02*
G37*
G36*
X2450940Y641430D02*
X2439670D01*
Y631160D01*
X2450940D01*
Y641430D01*
D02*
G37*
G36*
X2437130D02*
X2425860D01*
Y631160D01*
X2437130D01*
Y641430D01*
D02*
G37*
G36*
X2395270Y628784D02*
Y625270D01*
X2398784D01*
X2398653Y625928D01*
X2397561Y627561D01*
X2395927Y628653D01*
X2395270Y628784D01*
D02*
G37*
G36*
X2392730D02*
X2392072Y628653D01*
X2390439Y627561D01*
X2389347Y625928D01*
X2389216Y625270D01*
X2392730D01*
Y628784D01*
D02*
G37*
G36*
X2055000Y631976D02*
X2053478Y631674D01*
X2052188Y630812D01*
X2051326Y629522D01*
X2051024Y628000D01*
X2051085Y627690D01*
X2034198Y610802D01*
X2034198Y610802D01*
X2033645Y609975D01*
X2033451Y609000D01*
Y507987D01*
X2033188Y507812D01*
X2032326Y506522D01*
X2032024Y505000D01*
X2032326Y503478D01*
X2033188Y502188D01*
X2033851Y501745D01*
Y500255D01*
X2033188Y499812D01*
X2032326Y498522D01*
X2032024Y497000D01*
X2032326Y495478D01*
X2033188Y494188D01*
X2034478Y493326D01*
X2036000Y493024D01*
X2037522Y493326D01*
X2038812Y494188D01*
X2039674Y495478D01*
X2039976Y497000D01*
X2039915Y497310D01*
X2042802Y500198D01*
X2043355Y501025D01*
X2043549Y502000D01*
Y599944D01*
X2054690Y611085D01*
X2055000Y611024D01*
X2056522Y611326D01*
X2057812Y612188D01*
X2058674Y613478D01*
X2058976Y615000D01*
X2058674Y616522D01*
X2057812Y617812D01*
X2056522Y618674D01*
X2055000Y618976D01*
X2053478Y618674D01*
X2052188Y617812D01*
X2051326Y616522D01*
X2051024Y615000D01*
X2051085Y614690D01*
X2039819Y603424D01*
X2038549Y603950D01*
Y607944D01*
X2054690Y624085D01*
X2055000Y624024D01*
X2056522Y624326D01*
X2057812Y625188D01*
X2058674Y626478D01*
X2058976Y628000D01*
X2058674Y629522D01*
X2057812Y630812D01*
X2056522Y631674D01*
X2055000Y631976D01*
D02*
G37*
G36*
X2263000Y627976D02*
X2261478Y627674D01*
X2260188Y626812D01*
X2259326Y625522D01*
X2259024Y624000D01*
X2259326Y622478D01*
X2260188Y621188D01*
X2261478Y620326D01*
X2263000Y620024D01*
X2264522Y620326D01*
X2265812Y621188D01*
X2266674Y622478D01*
X2266976Y624000D01*
X2266674Y625522D01*
X2265812Y626812D01*
X2264522Y627674D01*
X2263000Y627976D01*
D02*
G37*
G36*
X2398784Y622730D02*
X2395270D01*
Y619216D01*
X2395927Y619347D01*
X2397561Y620438D01*
X2398653Y622072D01*
X2398784Y622730D01*
D02*
G37*
G36*
X2392730D02*
X2389216D01*
X2389347Y622072D01*
X2390439Y620438D01*
X2392072Y619347D01*
X2392730Y619216D01*
Y622730D01*
D02*
G37*
G36*
X2247270Y616784D02*
Y613270D01*
X2250784D01*
X2250653Y613927D01*
X2249561Y615561D01*
X2247927Y616653D01*
X2247270Y616784D01*
D02*
G37*
G36*
X2244730D02*
X2244072Y616653D01*
X2242438Y615561D01*
X2241347Y613927D01*
X2241216Y613270D01*
X2244730D01*
Y616784D01*
D02*
G37*
G36*
X2157270Y612784D02*
Y609270D01*
X2160784D01*
X2160653Y609927D01*
X2159561Y611562D01*
X2157927Y612653D01*
X2157270Y612784D01*
D02*
G37*
G36*
X2154730D02*
X2154072Y612653D01*
X2152438Y611562D01*
X2151346Y609927D01*
X2151216Y609270D01*
X2154730D01*
Y612784D01*
D02*
G37*
G36*
X2250784Y610730D02*
X2247270D01*
Y607216D01*
X2247927Y607347D01*
X2249561Y608438D01*
X2250653Y610073D01*
X2250784Y610730D01*
D02*
G37*
G36*
X2244730D02*
X2241216D01*
X2241347Y610073D01*
X2242438Y608438D01*
X2244072Y607347D01*
X2244730Y607216D01*
Y610730D01*
D02*
G37*
G36*
X2449900Y627800D02*
X2426900D01*
Y606800D01*
X2449900D01*
Y627800D01*
D02*
G37*
G36*
X2392270Y609784D02*
Y606270D01*
X2395784D01*
X2395653Y606927D01*
X2394562Y608562D01*
X2392928Y609653D01*
X2392270Y609784D01*
D02*
G37*
G36*
X2389730D02*
X2389073Y609653D01*
X2387439Y608562D01*
X2386347Y606927D01*
X2386216Y606270D01*
X2389730D01*
Y609784D01*
D02*
G37*
G36*
X2342270D02*
Y606270D01*
X2345784D01*
X2345653Y606927D01*
X2344562Y608562D01*
X2342928Y609653D01*
X2342270Y609784D01*
D02*
G37*
G36*
X2339730D02*
X2339073Y609653D01*
X2337439Y608562D01*
X2336347Y606927D01*
X2336216Y606270D01*
X2339730D01*
Y609784D01*
D02*
G37*
G36*
X2160784Y606730D02*
X2157270D01*
Y603216D01*
X2157927Y603347D01*
X2159561Y604439D01*
X2160653Y606073D01*
X2160784Y606730D01*
D02*
G37*
G36*
X2154730D02*
X2151216D01*
X2151346Y606073D01*
X2152438Y604439D01*
X2154072Y603347D01*
X2154730Y603216D01*
Y606730D01*
D02*
G37*
G36*
X2395784Y603730D02*
X2392270D01*
Y600216D01*
X2392928Y600347D01*
X2394562Y601438D01*
X2395653Y603073D01*
X2395784Y603730D01*
D02*
G37*
G36*
X2389730D02*
X2386216D01*
X2386347Y603073D01*
X2387439Y601438D01*
X2389073Y600347D01*
X2389730Y600216D01*
Y603730D01*
D02*
G37*
G36*
X2345784D02*
X2342270D01*
Y600216D01*
X2342928Y600347D01*
X2344562Y601438D01*
X2345653Y603073D01*
X2345784Y603730D01*
D02*
G37*
G36*
X2339730D02*
X2336216D01*
X2336347Y603073D01*
X2337439Y601438D01*
X2339073Y600347D01*
X2339730Y600216D01*
Y603730D01*
D02*
G37*
G36*
X2129270Y600784D02*
Y597270D01*
X2132784D01*
X2132653Y597928D01*
X2131561Y599562D01*
X2129928Y600653D01*
X2129270Y600784D01*
D02*
G37*
G36*
X2299270Y594784D02*
Y591270D01*
X2302784D01*
X2302653Y591927D01*
X2301561Y593562D01*
X2299927Y594653D01*
X2299270Y594784D01*
D02*
G37*
G36*
X2296730D02*
X2296072Y594653D01*
X2294438Y593562D01*
X2293347Y591927D01*
X2293216Y591270D01*
X2296730D01*
Y594784D01*
D02*
G37*
G36*
X2132784Y594730D02*
X2129270D01*
Y591216D01*
X2129928Y591347D01*
X2131561Y592439D01*
X2132653Y594072D01*
X2132784Y594730D01*
D02*
G37*
G36*
X2157270Y588784D02*
Y585270D01*
X2160784D01*
X2160653Y585928D01*
X2159561Y587561D01*
X2157927Y588653D01*
X2157270Y588784D01*
D02*
G37*
G36*
X2154730D02*
X2154072Y588653D01*
X2152438Y587561D01*
X2151346Y585928D01*
X2151216Y585270D01*
X2154730D01*
Y588784D01*
D02*
G37*
G36*
X2133270D02*
Y585270D01*
X2136784D01*
X2136653Y585928D01*
X2135561Y587561D01*
X2133927Y588653D01*
X2133270Y588784D01*
D02*
G37*
G36*
X2130730D02*
X2130072Y588653D01*
X2128438Y587561D01*
X2127346Y585928D01*
X2127216Y585270D01*
X2130730D01*
Y588784D01*
D02*
G37*
G36*
X2449900Y602400D02*
X2426900D01*
Y581400D01*
X2449900D01*
Y602400D01*
D02*
G37*
G36*
X2302784Y588730D02*
X2293216D01*
X2293347Y588073D01*
X2294438Y586438D01*
X2296072Y585347D01*
X2297074Y585147D01*
Y583853D01*
X2296072Y583653D01*
X2294438Y582561D01*
X2293347Y580928D01*
X2293216Y580270D01*
X2302784D01*
X2302653Y580928D01*
X2301561Y582561D01*
X2299927Y583653D01*
X2298926Y583853D01*
Y585147D01*
X2299927Y585347D01*
X2301561Y586438D01*
X2302653Y588073D01*
X2302784Y588730D01*
D02*
G37*
G36*
X2160784Y582730D02*
X2157270D01*
Y579216D01*
X2157927Y579347D01*
X2159561Y580438D01*
X2160653Y582072D01*
X2160784Y582730D01*
D02*
G37*
G36*
X2154730D02*
X2151216D01*
X2151346Y582072D01*
X2152438Y580438D01*
X2154072Y579347D01*
X2154730Y579216D01*
Y582730D01*
D02*
G37*
G36*
X2136784D02*
X2133270D01*
Y579216D01*
X2133927Y579347D01*
X2135561Y580438D01*
X2136653Y582072D01*
X2136784Y582730D01*
D02*
G37*
G36*
X2130730D02*
X2127216D01*
X2127346Y582072D01*
X2128438Y580438D01*
X2130072Y579347D01*
X2130730Y579216D01*
Y582730D01*
D02*
G37*
G36*
X2302784Y577730D02*
X2299270D01*
Y574216D01*
X2299927Y574347D01*
X2301561Y575438D01*
X2302653Y577072D01*
X2302784Y577730D01*
D02*
G37*
G36*
X2296730D02*
X2293216D01*
X2293347Y577072D01*
X2294438Y575438D01*
X2296072Y574347D01*
X2296730Y574216D01*
Y577730D01*
D02*
G37*
G36*
X2133270Y576784D02*
Y573270D01*
X2136784D01*
X2136653Y573927D01*
X2135561Y575561D01*
X2133927Y576653D01*
X2133270Y576784D01*
D02*
G37*
G36*
X2130730D02*
X2130072Y576653D01*
X2128438Y575561D01*
X2127346Y573927D01*
X2127216Y573270D01*
X2130730D01*
Y576784D01*
D02*
G37*
G36*
X2273000Y576976D02*
X2271478Y576674D01*
X2270188Y575812D01*
X2269326Y574522D01*
X2269024Y573000D01*
X2269050Y572867D01*
X2269000Y572037D01*
X2267072Y571653D01*
X2265438Y570561D01*
X2264347Y568927D01*
X2264216Y568270D01*
X2274030D01*
X2274522Y569326D01*
X2275812Y570188D01*
X2276674Y571478D01*
X2276976Y573000D01*
X2276674Y574522D01*
X2275812Y575812D01*
X2274522Y576674D01*
X2273000Y576976D01*
D02*
G37*
G36*
X2180000Y599976D02*
X2178478Y599674D01*
X2177188Y598812D01*
X2176326Y597522D01*
X2176024Y596000D01*
X2176326Y594478D01*
X2176431Y594321D01*
Y592000D01*
Y573679D01*
X2176326Y573522D01*
X2176024Y572000D01*
X2176326Y570478D01*
X2176431Y570321D01*
Y557679D01*
X2176326Y557522D01*
X2176024Y556000D01*
X2176326Y554478D01*
X2176431Y554321D01*
Y508000D01*
X2176431Y507999D01*
Y502000D01*
Y483679D01*
X2176326Y483522D01*
X2176024Y482000D01*
X2176326Y480478D01*
X2177188Y479188D01*
X2178478Y478326D01*
X2180000Y478024D01*
X2181522Y478326D01*
X2182812Y479188D01*
X2183674Y480478D01*
X2183976Y482000D01*
X2183674Y483522D01*
X2183569Y483679D01*
Y499451D01*
X2187013D01*
X2187188Y499188D01*
X2188478Y498326D01*
X2190000Y498024D01*
X2191522Y498326D01*
X2192812Y499188D01*
X2193674Y500478D01*
X2193976Y502000D01*
X2193674Y503522D01*
X2192812Y504812D01*
X2191522Y505674D01*
X2190000Y505976D01*
X2188478Y505674D01*
X2187188Y504812D01*
X2187013Y504549D01*
X2183569D01*
Y508000D01*
X2183569Y508001D01*
Y517431D01*
X2226321D01*
X2226478Y517326D01*
X2228000Y517024D01*
X2229522Y517326D01*
X2230812Y518188D01*
X2231674Y519478D01*
X2231976Y521000D01*
X2231674Y522522D01*
X2230812Y523812D01*
X2229522Y524674D01*
X2228000Y524976D01*
X2226478Y524674D01*
X2226321Y524569D01*
X2183569D01*
Y554321D01*
X2183674Y554478D01*
X2183976Y556000D01*
X2183674Y557522D01*
X2183569Y557679D01*
Y568431D01*
X2226321D01*
X2226478Y568326D01*
X2228000Y568024D01*
X2229522Y568326D01*
X2230812Y569188D01*
X2231674Y570478D01*
X2231976Y572000D01*
X2231674Y573522D01*
X2230812Y574812D01*
X2229522Y575674D01*
X2228000Y575976D01*
X2226478Y575674D01*
X2226321Y575569D01*
X2183569D01*
Y594321D01*
X2183674Y594478D01*
X2183976Y596000D01*
X2183674Y597522D01*
X2182812Y598812D01*
X2181522Y599674D01*
X2180000Y599976D01*
D02*
G37*
G36*
X2136784Y570730D02*
X2133270D01*
Y567216D01*
X2133927Y567347D01*
X2135561Y568438D01*
X2136653Y570073D01*
X2136784Y570730D01*
D02*
G37*
G36*
X2130730D02*
X2127216D01*
X2127346Y570073D01*
X2128438Y568438D01*
X2130072Y567347D01*
X2130730Y567216D01*
Y570730D01*
D02*
G37*
G36*
X2273784Y565730D02*
X2270270D01*
Y562216D01*
X2270927Y562347D01*
X2272561Y563438D01*
X2273653Y565073D01*
X2273784Y565730D01*
D02*
G37*
G36*
X2267730D02*
X2264216D01*
X2264347Y565073D01*
X2265438Y563438D01*
X2267072Y562347D01*
X2267730Y562216D01*
Y565730D01*
D02*
G37*
G36*
X2133270Y560784D02*
Y557270D01*
X2136784D01*
X2136653Y557928D01*
X2135561Y559562D01*
X2133927Y560653D01*
X2133270Y560784D01*
D02*
G37*
G36*
X2130730D02*
X2130072Y560653D01*
X2128438Y559562D01*
X2127346Y557928D01*
X2127216Y557270D01*
X2130730D01*
Y560784D01*
D02*
G37*
G36*
X2449900Y577000D02*
X2426900D01*
Y556000D01*
X2449900D01*
Y577000D01*
D02*
G37*
G36*
X2136784Y554730D02*
X2133270D01*
Y551216D01*
X2133927Y551347D01*
X2135561Y552439D01*
X2136653Y554072D01*
X2136784Y554730D01*
D02*
G37*
G36*
X2130730D02*
X2127216D01*
X2127346Y554072D01*
X2128438Y552439D01*
X2130072Y551347D01*
X2130730Y551216D01*
Y554730D01*
D02*
G37*
G36*
X2270270Y551784D02*
Y548270D01*
X2273784D01*
X2273653Y548927D01*
X2272561Y550561D01*
X2270927Y551653D01*
X2270270Y551784D01*
D02*
G37*
G36*
X2267730D02*
X2267072Y551653D01*
X2265439Y550561D01*
X2264347Y548927D01*
X2264216Y548270D01*
X2267730D01*
Y551784D01*
D02*
G37*
G36*
X2215270D02*
Y548270D01*
X2218784D01*
X2218653Y548927D01*
X2217561Y550561D01*
X2215927Y551653D01*
X2215270Y551784D01*
D02*
G37*
G36*
X2212730D02*
X2212072Y551653D01*
X2210439Y550561D01*
X2209347Y548927D01*
X2209216Y548270D01*
X2212730D01*
Y551784D01*
D02*
G37*
G36*
X2298000Y571976D02*
X2296478Y571674D01*
X2295188Y570812D01*
X2294326Y569522D01*
X2294023Y568000D01*
X2294326Y566478D01*
X2295188Y565188D01*
X2295451Y565013D01*
Y549987D01*
X2295188Y549812D01*
X2294326Y548522D01*
X2294023Y547000D01*
X2294326Y545478D01*
X2295188Y544188D01*
X2296478Y543326D01*
X2298000Y543024D01*
X2299522Y543326D01*
X2300812Y544188D01*
X2301674Y545478D01*
X2301976Y547000D01*
X2301674Y548522D01*
X2300812Y549812D01*
X2300549Y549987D01*
Y565013D01*
X2300812Y565188D01*
X2301674Y566478D01*
X2301976Y568000D01*
X2301674Y569522D01*
X2300812Y570812D01*
X2299522Y571674D01*
X2298000Y571976D01*
D02*
G37*
G36*
X2273784Y545730D02*
X2270270D01*
Y542216D01*
X2270927Y542347D01*
X2272561Y543438D01*
X2273653Y545073D01*
X2273784Y545730D01*
D02*
G37*
G36*
X2267730D02*
X2264216D01*
X2264347Y545073D01*
X2265439Y543438D01*
X2267072Y542347D01*
X2267730Y542216D01*
Y545730D01*
D02*
G37*
G36*
X2218784D02*
X2215270D01*
Y542216D01*
X2215927Y542347D01*
X2217561Y543438D01*
X2218653Y545073D01*
X2218784Y545730D01*
D02*
G37*
G36*
X2212730D02*
X2209216D01*
X2209347Y545073D01*
X2210439Y543438D01*
X2212072Y542347D01*
X2212730Y542216D01*
Y545730D01*
D02*
G37*
G36*
X2166270Y544784D02*
Y541270D01*
X2169784D01*
X2169653Y541927D01*
X2168562Y543562D01*
X2166927Y544653D01*
X2166270Y544784D01*
D02*
G37*
G36*
X2367270Y538784D02*
Y535270D01*
X2370784D01*
X2370653Y535928D01*
X2369562Y537562D01*
X2367928Y538653D01*
X2367270Y538784D01*
D02*
G37*
G36*
X2364730D02*
X2364073Y538653D01*
X2362439Y537562D01*
X2361347Y535928D01*
X2361216Y535270D01*
X2364730D01*
Y538784D01*
D02*
G37*
G36*
X2169784Y538730D02*
X2166270D01*
Y535216D01*
X2166927Y535347D01*
X2168562Y536438D01*
X2169653Y538073D01*
X2169784Y538730D01*
D02*
G37*
G36*
X2449900Y551600D02*
X2426900D01*
Y530600D01*
X2449900D01*
Y551600D01*
D02*
G37*
G36*
X2270270Y532784D02*
Y529270D01*
X2273784D01*
X2273653Y529927D01*
X2272561Y531562D01*
X2270927Y532653D01*
X2270270Y532784D01*
D02*
G37*
G36*
X2267730D02*
X2267072Y532653D01*
X2265439Y531562D01*
X2264347Y529927D01*
X2264216Y529270D01*
X2267730D01*
Y532784D01*
D02*
G37*
G36*
X2370784Y532730D02*
X2367270D01*
Y529216D01*
X2367928Y529347D01*
X2369562Y530438D01*
X2370653Y532072D01*
X2370784Y532730D01*
D02*
G37*
G36*
X2364730D02*
X2361216D01*
X2361347Y532072D01*
X2362439Y530438D01*
X2364073Y529347D01*
X2364730Y529216D01*
Y532730D01*
D02*
G37*
G36*
X2326270Y532438D02*
Y526270D01*
X2332438D01*
X2332346Y526968D01*
X2331586Y528802D01*
X2330378Y530378D01*
X2328802Y531586D01*
X2326968Y532346D01*
X2326270Y532438D01*
D02*
G37*
G36*
X2323730D02*
X2323032Y532346D01*
X2321198Y531586D01*
X2319622Y530378D01*
X2318414Y528802D01*
X2317654Y526968D01*
X2317562Y526270D01*
X2323730D01*
Y532438D01*
D02*
G37*
G36*
X2299270Y528784D02*
Y525270D01*
X2302784D01*
X2302653Y525928D01*
X2301561Y527561D01*
X2299927Y528653D01*
X2299270Y528784D01*
D02*
G37*
G36*
X2296730D02*
X2296072Y528653D01*
X2294438Y527561D01*
X2293347Y525928D01*
X2293216Y525270D01*
X2296730D01*
Y528784D01*
D02*
G37*
G36*
X2273784Y526730D02*
X2270270D01*
Y523216D01*
X2270927Y523347D01*
X2272561Y524439D01*
X2273653Y526073D01*
X2273784Y526730D01*
D02*
G37*
G36*
X2267730D02*
X2264216D01*
X2264347Y526073D01*
X2265439Y524439D01*
X2267072Y523347D01*
X2267730Y523216D01*
Y526730D01*
D02*
G37*
G36*
X2302784Y522730D02*
X2299270D01*
Y519216D01*
X2299927Y519347D01*
X2301561Y520438D01*
X2302653Y522072D01*
X2302784Y522730D01*
D02*
G37*
G36*
X2296730D02*
X2293216D01*
X2293347Y522072D01*
X2294438Y520438D01*
X2296072Y519347D01*
X2296730Y519216D01*
Y522730D01*
D02*
G37*
G36*
X2332438Y523730D02*
X2326270D01*
Y517562D01*
X2326968Y517654D01*
X2328802Y518414D01*
X2330378Y519622D01*
X2331586Y521198D01*
X2332346Y523032D01*
X2332438Y523730D01*
D02*
G37*
G36*
X2323730D02*
X2317562D01*
X2317654Y523032D01*
X2318414Y521198D01*
X2319622Y519622D01*
X2321198Y518414D01*
X2323032Y517654D01*
X2323730Y517562D01*
Y523730D01*
D02*
G37*
G36*
X2270270Y519784D02*
Y516270D01*
X2273784D01*
X2273653Y516927D01*
X2272561Y518562D01*
X2270927Y519653D01*
X2270270Y519784D01*
D02*
G37*
G36*
X2267730D02*
X2267072Y519653D01*
X2265439Y518562D01*
X2264347Y516927D01*
X2264216Y516270D01*
X2267730D01*
Y519784D01*
D02*
G37*
G36*
X2273784Y513730D02*
X2270270D01*
Y510216D01*
X2270927Y510347D01*
X2272561Y511438D01*
X2273653Y513073D01*
X2273784Y513730D01*
D02*
G37*
G36*
X2267730D02*
X2264216D01*
X2264347Y513073D01*
X2265439Y511438D01*
X2267072Y510347D01*
X2267730Y510216D01*
Y513730D01*
D02*
G37*
G36*
X2231270Y512438D02*
Y506270D01*
X2237438D01*
X2237346Y506968D01*
X2236586Y508802D01*
X2235378Y510378D01*
X2233802Y511586D01*
X2231968Y512346D01*
X2231270Y512438D01*
D02*
G37*
G36*
X2228730D02*
X2228032Y512346D01*
X2226198Y511586D01*
X2224622Y510378D01*
X2223414Y508802D01*
X2222654Y506968D01*
X2222562Y506270D01*
X2228730D01*
Y512438D01*
D02*
G37*
G36*
X2449900Y526200D02*
X2426900D01*
Y522549D01*
X2367000D01*
X2366025Y522355D01*
X2365198Y521802D01*
X2359310Y515915D01*
X2359000Y515976D01*
X2357478Y515674D01*
X2356188Y514812D01*
X2355326Y513522D01*
X2355024Y512000D01*
X2355326Y510478D01*
X2356188Y509188D01*
X2357478Y508326D01*
X2359000Y508024D01*
X2360522Y508326D01*
X2361812Y509188D01*
X2362674Y510478D01*
X2362977Y512000D01*
X2362915Y512310D01*
X2368056Y517451D01*
X2426900D01*
Y505200D01*
X2449900D01*
Y526200D01*
D02*
G37*
G36*
X2237438Y503730D02*
X2231270D01*
Y497562D01*
X2231968Y497654D01*
X2233802Y498414D01*
X2235378Y499622D01*
X2236586Y501198D01*
X2237346Y503032D01*
X2237438Y503730D01*
D02*
G37*
G36*
X2228730D02*
X2222562D01*
X2222654Y503032D01*
X2223414Y501198D01*
X2224622Y499622D01*
X2226198Y498414D01*
X2228032Y497654D01*
X2228730Y497562D01*
Y503730D01*
D02*
G37*
G36*
X2008000Y504976D02*
X2006478Y504674D01*
X2005188Y503812D01*
X2004326Y502522D01*
X2004024Y501000D01*
X2004326Y499478D01*
X2005188Y498188D01*
X2006478Y497326D01*
X2008000Y497024D01*
X2009522Y497326D01*
X2010812Y498188D01*
X2011674Y499478D01*
X2011976Y501000D01*
X2011674Y502522D01*
X2010812Y503812D01*
X2009522Y504674D01*
X2008000Y504976D01*
D02*
G37*
G36*
X2299270Y498784D02*
Y495270D01*
X2302784D01*
X2302653Y495928D01*
X2301561Y497561D01*
X2299927Y498653D01*
X2299270Y498784D01*
D02*
G37*
G36*
X2296730D02*
X2296072Y498653D01*
X2294438Y497561D01*
X2293347Y495928D01*
X2293216Y495270D01*
X2296730D01*
Y498784D01*
D02*
G37*
G36*
X2258000Y497976D02*
X2256478Y497674D01*
X2255188Y496812D01*
X2254326Y495522D01*
X2254023Y494000D01*
X2254085Y493690D01*
X2252944Y492549D01*
X2215987D01*
X2215812Y492812D01*
X2214522Y493674D01*
X2213000Y493976D01*
X2211478Y493674D01*
X2210188Y492812D01*
X2209326Y491522D01*
X2209023Y490000D01*
X2209326Y488478D01*
X2210188Y487188D01*
X2211478Y486326D01*
X2213000Y486024D01*
X2214522Y486326D01*
X2215812Y487188D01*
X2215987Y487451D01*
X2254000D01*
X2254975Y487645D01*
X2255802Y488198D01*
X2257690Y490085D01*
X2258000Y490024D01*
X2259522Y490326D01*
X2260812Y491188D01*
X2261674Y492478D01*
X2261976Y494000D01*
X2261674Y495522D01*
X2260812Y496812D01*
X2259522Y497674D01*
X2258000Y497976D01*
D02*
G37*
G36*
X2326270Y497438D02*
Y491270D01*
X2332438D01*
X2332346Y491968D01*
X2331586Y493802D01*
X2330378Y495378D01*
X2328802Y496586D01*
X2326968Y497346D01*
X2326270Y497438D01*
D02*
G37*
G36*
X2323730D02*
X2323032Y497346D01*
X2321198Y496586D01*
X2319622Y495378D01*
X2318414Y493802D01*
X2317654Y491968D01*
X2317562Y491270D01*
X2323730D01*
Y497438D01*
D02*
G37*
G36*
X2302784Y492730D02*
X2299270D01*
Y489216D01*
X2299927Y489347D01*
X2301561Y490438D01*
X2302653Y492072D01*
X2302784Y492730D01*
D02*
G37*
G36*
X2296730D02*
X2293216D01*
X2293347Y492072D01*
X2294438Y490438D01*
X2296072Y489347D01*
X2296730Y489216D01*
Y492730D01*
D02*
G37*
G36*
X2332438Y488730D02*
X2326270D01*
Y482562D01*
X2326968Y482654D01*
X2328802Y483414D01*
X2330378Y484622D01*
X2331586Y486198D01*
X2332346Y488032D01*
X2332438Y488730D01*
D02*
G37*
G36*
X2323730D02*
X2317562D01*
X2317654Y488032D01*
X2318414Y486198D01*
X2319622Y484622D01*
X2321198Y483414D01*
X2323032Y482654D01*
X2323730Y482562D01*
Y488730D01*
D02*
G37*
G36*
X2346000Y510976D02*
X2344478Y510674D01*
X2343188Y509812D01*
X2342326Y508522D01*
X2342024Y507000D01*
X2342326Y505478D01*
X2343188Y504188D01*
X2344478Y503326D01*
X2346000Y503024D01*
X2346310Y503085D01*
X2356197Y493198D01*
X2356198Y493198D01*
X2357025Y492645D01*
X2358000Y492451D01*
X2426900D01*
Y479800D01*
X2449900D01*
Y500800D01*
X2426900D01*
Y497549D01*
X2359056D01*
X2349915Y506690D01*
X2349977Y507000D01*
X2349674Y508522D01*
X2348812Y509812D01*
X2347522Y510674D01*
X2346000Y510976D01*
D02*
G37*
G36*
X2449900Y475400D02*
X2426900D01*
Y472549D01*
X2343987D01*
X2343812Y472812D01*
X2342522Y473674D01*
X2341000Y473976D01*
X2339478Y473674D01*
X2338188Y472812D01*
X2337326Y471522D01*
X2337024Y470000D01*
X2337326Y468478D01*
X2338188Y467188D01*
X2339478Y466326D01*
X2341000Y466024D01*
X2342522Y466326D01*
X2343812Y467188D01*
X2343987Y467451D01*
X2426900D01*
Y454400D01*
X2449900D01*
Y475400D01*
D02*
G37*
G36*
X2296270Y472438D02*
Y466270D01*
X2302438D01*
X2302346Y466968D01*
X2301586Y468802D01*
X2300378Y470378D01*
X2298802Y471586D01*
X2296968Y472346D01*
X2296270Y472438D01*
D02*
G37*
G36*
X2293730D02*
X2293032Y472346D01*
X2291198Y471586D01*
X2289622Y470378D01*
X2288414Y468802D01*
X2287654Y466968D01*
X2287562Y466270D01*
X2293730D01*
Y472438D01*
D02*
G37*
G36*
X2231270D02*
Y466270D01*
X2237438D01*
X2237346Y466968D01*
X2236586Y468802D01*
X2235378Y470378D01*
X2233802Y471586D01*
X2231968Y472346D01*
X2231270Y472438D01*
D02*
G37*
G36*
X2228730D02*
X2228032Y472346D01*
X2226198Y471586D01*
X2224622Y470378D01*
X2223414Y468802D01*
X2222654Y466968D01*
X2222562Y466270D01*
X2228730D01*
Y472438D01*
D02*
G37*
G36*
X2302438Y463730D02*
X2296270D01*
Y457562D01*
X2296968Y457654D01*
X2298802Y458414D01*
X2300378Y459622D01*
X2301586Y461198D01*
X2302346Y463032D01*
X2302438Y463730D01*
D02*
G37*
G36*
X2293730D02*
X2287562D01*
X2287654Y463032D01*
X2288414Y461198D01*
X2289622Y459622D01*
X2291198Y458414D01*
X2293032Y457654D01*
X2293730Y457562D01*
Y463730D01*
D02*
G37*
G36*
X2237438D02*
X2231270D01*
Y457562D01*
X2231968Y457654D01*
X2233802Y458414D01*
X2235378Y459622D01*
X2236586Y461198D01*
X2237346Y463032D01*
X2237438Y463730D01*
D02*
G37*
G36*
X2228730D02*
X2222562D01*
X2222654Y463032D01*
X2223414Y461198D01*
X2224622Y459622D01*
X2226198Y458414D01*
X2228032Y457654D01*
X2228730Y457562D01*
Y463730D01*
D02*
G37*
G36*
X2180270Y459784D02*
Y456270D01*
X2183784D01*
X2183653Y456927D01*
X2182561Y458562D01*
X2180927Y459653D01*
X2180270Y459784D01*
D02*
G37*
G36*
X2183784Y453730D02*
X2180270D01*
Y450216D01*
X2180927Y450347D01*
X2182561Y451438D01*
X2183653Y453073D01*
X2183784Y453730D01*
D02*
G37*
G36*
X2162784Y451730D02*
X2159270D01*
Y448216D01*
X2159927Y448347D01*
X2161561Y449438D01*
X2162653Y451073D01*
X2162784Y451730D01*
D02*
G37*
G36*
X2156730D02*
X2153216D01*
X2153347Y451073D01*
X2154438Y449438D01*
X2156072Y448347D01*
X2156730Y448216D01*
Y451730D01*
D02*
G37*
G36*
X2449900Y450000D02*
X2426900D01*
Y447049D01*
X2319457D01*
X2318522Y447674D01*
X2317000Y447976D01*
X2315478Y447674D01*
X2314188Y446812D01*
X2313326Y445522D01*
X2313024Y444000D01*
X2313326Y442478D01*
X2314188Y441188D01*
X2315478Y440326D01*
X2317000Y440024D01*
X2318522Y440326D01*
X2319812Y441188D01*
X2320321Y441951D01*
X2426900D01*
Y429000D01*
X2449900D01*
Y450000D01*
D02*
G37*
G36*
X2296270Y452438D02*
Y446270D01*
X2302438D01*
X2302346Y446968D01*
X2301586Y448802D01*
X2300378Y450378D01*
X2298802Y451586D01*
X2296968Y452346D01*
X2296270Y452438D01*
D02*
G37*
G36*
X2293730D02*
X2293032Y452346D01*
X2291198Y451586D01*
X2289622Y450378D01*
X2288414Y448802D01*
X2287654Y446968D01*
X2287562Y446270D01*
X2293730D01*
Y452438D01*
D02*
G37*
G36*
X2231270D02*
Y446270D01*
X2237438D01*
X2237346Y446968D01*
X2236586Y448802D01*
X2235378Y450378D01*
X2233802Y451586D01*
X2231968Y452346D01*
X2231270Y452438D01*
D02*
G37*
G36*
X2228730D02*
X2228032Y452346D01*
X2226198Y451586D01*
X2224622Y450378D01*
X2223414Y448802D01*
X2222654Y446968D01*
X2222562Y446270D01*
X2228730D01*
Y452438D01*
D02*
G37*
G36*
X2302438Y443730D02*
X2296270D01*
Y437562D01*
X2296968Y437654D01*
X2298802Y438414D01*
X2300378Y439622D01*
X2301586Y441198D01*
X2302346Y443032D01*
X2302438Y443730D01*
D02*
G37*
G36*
X2293730D02*
X2287562D01*
X2287654Y443032D01*
X2288414Y441198D01*
X2289622Y439622D01*
X2291198Y438414D01*
X2293032Y437654D01*
X2293730Y437562D01*
Y443730D01*
D02*
G37*
G36*
X2237438D02*
X2231270D01*
Y437562D01*
X2231968Y437654D01*
X2233802Y438414D01*
X2235378Y439622D01*
X2236586Y441198D01*
X2237346Y443032D01*
X2237438Y443730D01*
D02*
G37*
G36*
X2228730D02*
X2222562D01*
X2222654Y443032D01*
X2223414Y441198D01*
X2224622Y439622D01*
X2226198Y438414D01*
X2228032Y437654D01*
X2228730Y437562D01*
Y443730D01*
D02*
G37*
G36*
X2523730Y437438D02*
X2523032Y437346D01*
X2521198Y436586D01*
X2519622Y435378D01*
X2518414Y433802D01*
X2517654Y431968D01*
X2517562Y431270D01*
X2523730D01*
Y437438D01*
D02*
G37*
G36*
X2101270D02*
Y431270D01*
X2107438D01*
X2107346Y431968D01*
X2106586Y433802D01*
X2105378Y435378D01*
X2103802Y436586D01*
X2101968Y437346D01*
X2101270Y437438D01*
D02*
G37*
G36*
X2098730D02*
X2098032Y437346D01*
X2096198Y436586D01*
X2094622Y435378D01*
X2093414Y433802D01*
X2092654Y431968D01*
X2092562Y431270D01*
X2098730D01*
Y437438D01*
D02*
G37*
G36*
X2046270D02*
Y431270D01*
X2052438D01*
X2052346Y431968D01*
X2051586Y433802D01*
X2050378Y435378D01*
X2048802Y436586D01*
X2046968Y437346D01*
X2046270Y437438D01*
D02*
G37*
G36*
X2043730D02*
X2043032Y437346D01*
X2041198Y436586D01*
X2039622Y435378D01*
X2038414Y433802D01*
X2037654Y431968D01*
X2037562Y431270D01*
X2043730D01*
Y437438D01*
D02*
G37*
G36*
X2006270Y433784D02*
Y430270D01*
X2009784D01*
X2009653Y430928D01*
X2008562Y432561D01*
X2006927Y433653D01*
X2006270Y433784D01*
D02*
G37*
G36*
X2204270Y428784D02*
Y425270D01*
X2207784D01*
X2207653Y425927D01*
X2206561Y427561D01*
X2204927Y428653D01*
X2204270Y428784D01*
D02*
G37*
G36*
X2201730D02*
X2201072Y428653D01*
X2199438Y427561D01*
X2198347Y425927D01*
X2198216Y425270D01*
X2201730D01*
Y428784D01*
D02*
G37*
G36*
X2009784Y427730D02*
X2006270D01*
Y424216D01*
X2006927Y424347D01*
X2008562Y425438D01*
X2009653Y427072D01*
X2009784Y427730D01*
D02*
G37*
G36*
X2523730Y428730D02*
X2517562D01*
X2517654Y428032D01*
X2518414Y426198D01*
X2519622Y424622D01*
X2521198Y423414D01*
X2523032Y422654D01*
X2523730Y422562D01*
Y428730D01*
D02*
G37*
G36*
X2107438D02*
X2101270D01*
Y422562D01*
X2101968Y422654D01*
X2103802Y423414D01*
X2105378Y424622D01*
X2106586Y426198D01*
X2107346Y428032D01*
X2107438Y428730D01*
D02*
G37*
G36*
X2098730D02*
X2092562D01*
X2092654Y428032D01*
X2093414Y426198D01*
X2094622Y424622D01*
X2096198Y423414D01*
X2098032Y422654D01*
X2098730Y422562D01*
Y428730D01*
D02*
G37*
G36*
X2052438D02*
X2046270D01*
Y422562D01*
X2046968Y422654D01*
X2048802Y423414D01*
X2050378Y424622D01*
X2051586Y426198D01*
X2052346Y428032D01*
X2052438Y428730D01*
D02*
G37*
G36*
X2043730D02*
X2037562D01*
X2037654Y428032D01*
X2038414Y426198D01*
X2039622Y424622D01*
X2041198Y423414D01*
X2043032Y422654D01*
X2043730Y422562D01*
Y428730D01*
D02*
G37*
%LPD*%
D10*
X2013000Y721000D02*
X2049000D01*
X2010000Y842000D02*
Y845000D01*
X2020000Y716000D02*
Y716000D01*
X2104000Y640000D02*
Y698000D01*
X2004000D02*
X2104000D01*
X2004000Y698000D02*
X2004000Y698000D01*
X2020000Y716000D02*
X2040000D01*
X2020000Y716000D02*
X2020000Y716000D01*
X2039000Y378000D02*
Y378000D01*
X2015000D02*
X2039000D01*
X335000Y586000D02*
X360000D01*
X340000Y701000D02*
X360000D01*
X415000Y882000D02*
X2362000D01*
X314000Y629000D02*
Y670000D01*
X425000Y720000D02*
Y877000D01*
X375000Y670000D02*
X425000Y720000D01*
X2298000Y567000D02*
X2298000D01*
X2173000Y427000D02*
Y459000D01*
X2144000Y500000D02*
Y564000D01*
X1953000Y539000D02*
Y570000D01*
Y587000D02*
X1954000D01*
X1953000Y586000D02*
Y587000D01*
Y570000D02*
Y586000D01*
X2027000Y674000D02*
X2031000Y678000D01*
X2027000Y476000D02*
Y674000D01*
Y476000D02*
X2056000D01*
X2022000Y678000D02*
X2023000Y677000D01*
Y463000D02*
Y677000D01*
Y463000D02*
X2056000D01*
X2036000Y609000D02*
X2055000Y628000D01*
X2036000Y609000D02*
X2036000D01*
X2036000Y505000D02*
Y609000D01*
X2055000Y615000D02*
X2055000D01*
X2041000Y601000D02*
X2055000Y615000D01*
X2041000Y502000D02*
Y601000D01*
X2036000Y497000D02*
X2041000Y502000D01*
X2367000Y520000D02*
X2439000D01*
X2399000Y675000D02*
X2400000Y674000D01*
X2400000D01*
X2377000Y675000D02*
X2399000D01*
X2317000Y444500D02*
X2438400D01*
X2438000Y465000D02*
Y466000D01*
X2341000Y470000D02*
X2438000D01*
X2346000Y507000D02*
X2358000Y495000D01*
Y495000D02*
Y495000D01*
Y495000D02*
X2436000D01*
X2359000Y512000D02*
Y512000D01*
X2367000Y520000D01*
X2526000Y849000D02*
X2528000D01*
X2517000Y840000D02*
X2526000Y849000D01*
X2486000Y858000D02*
X2501000D01*
X2517000Y842000D01*
X2160000Y472000D02*
X2173000Y459000D01*
X2160000Y472000D02*
Y559000D01*
X2180000Y502000D02*
X2190000D01*
X2170000Y598000D02*
X2180000Y608000D01*
X2170000Y569000D02*
Y598000D01*
X2160000Y559000D02*
X2170000Y569000D01*
X2144000Y466000D02*
Y501000D01*
Y466000D02*
X2150000Y460000D01*
X2161000D01*
X2156000Y466000D02*
X2156000D01*
X2156000Y467000D02*
Y572000D01*
Y467000D02*
Y467000D01*
X2132000Y479000D02*
Y521000D01*
Y479000D02*
Y479000D01*
X2137000Y472000D02*
Y528000D01*
X2125000Y460000D02*
X2137000Y472000D01*
X2125000Y445000D02*
Y460000D01*
X2117000Y464000D02*
X2132000Y479000D01*
X2139000Y404000D02*
Y463000D01*
X2156000Y466000D02*
Y467000D01*
X2394000Y602000D02*
Y624000D01*
X2391000Y599000D02*
X2394000Y602000D01*
X2254000Y490000D02*
X2258000Y494000D01*
X2213000Y490000D02*
X2254000D01*
X406000Y892000D02*
X2390000D01*
X2371000Y860000D02*
Y877000D01*
Y860000D02*
X2371000Y860000D01*
X425000Y877000D02*
X2371000D01*
X415000Y720000D02*
Y882000D01*
X411000Y887000D02*
X2342000D01*
X2180000Y596000D02*
X2180000D01*
X2180000Y592000D02*
X2180000Y592000D01*
X2262000Y623000D02*
X2263000Y624000D01*
X2361000Y882000D02*
Y883000D01*
X406000Y776000D02*
Y892000D01*
X2366000Y599000D02*
X2391000D01*
X2366000Y534000D02*
Y599000D01*
X2391000D02*
X2391000Y599000D01*
X2289000Y590000D02*
X2298000D01*
X2289000Y579000D02*
Y590000D01*
X2269000Y567000D02*
X2289000D01*
X2269000D02*
X2269000D01*
X2289000Y579000D02*
X2298000D01*
X2289000Y567000D02*
Y579000D01*
X2269000Y547000D02*
Y567000D01*
Y528000D02*
Y547000D01*
Y515000D02*
Y527000D01*
X2298000Y515000D02*
X2298000D01*
X2269000D02*
X2298000D01*
X2298000Y518000D02*
Y524000D01*
Y515000D02*
Y518000D01*
X2298000Y515000D02*
Y518000D01*
Y494000D02*
Y515000D01*
Y518000D02*
X2298000D01*
X2298000Y547000D02*
Y567000D01*
X2180000Y595000D02*
X2180000Y595000D01*
X2180000Y592000D02*
Y596000D01*
X2004000Y698000D02*
Y698000D01*
X2037000Y415000D02*
X2048000Y404000D01*
X2016000Y415000D02*
X2037000D01*
X1874000Y609000D02*
X1903000D01*
X1874000Y545000D02*
Y609000D01*
X1966000Y502000D02*
Y590000D01*
X1945000Y476000D02*
Y590000D01*
Y475000D02*
Y476000D01*
X1935000Y488000D02*
Y596000D01*
X1940000Y514000D02*
Y585000D01*
X1906000Y612000D02*
Y623000D01*
X1903000Y609000D02*
X1906000Y612000D01*
X1867000Y614000D02*
X1900000D01*
X1867000Y545000D02*
Y614000D01*
X2361000Y882000D02*
X2362000D01*
X2362000Y882000D01*
X2342000Y887000D02*
X2343000D01*
X240000Y776000D02*
X406000D01*
X411000Y771000D02*
Y887000D01*
X340000Y771000D02*
X411000D01*
X230000D02*
X340000D01*
Y771000D01*
Y701000D02*
Y771000D01*
X230000D02*
Y771000D01*
Y742000D02*
Y771000D01*
X1960000Y675000D02*
X1985000D01*
X1960000Y674000D02*
Y675000D01*
X2371000Y860000D02*
X2371000Y605000D01*
X1970000Y413000D02*
X1973000D01*
X2341000Y599000D02*
X2366000D01*
X2341000D02*
Y605000D01*
X2371000Y860000D02*
X2371000Y860000D01*
X2390000Y892000D02*
X2390000Y685000D01*
X2342000D02*
Y871000D01*
X2361000D02*
X2361000Y605000D01*
X314000Y670000D02*
X365000D01*
X415000Y720000D01*
X375000Y480000D02*
Y670000D01*
X315000Y480000D02*
X375000D01*
X315000Y470000D02*
Y480000D01*
X240000Y546000D02*
Y766000D01*
Y546000D02*
Y546000D01*
X335000D02*
Y586000D01*
Y494468D02*
Y546000D01*
X359148Y336000D02*
Y380168D01*
X230000Y336000D02*
X359148D01*
X230000Y742000D02*
X230000Y336000D01*
X335000Y494468D02*
X359148D01*
X240000Y546000D02*
X335000D01*
D91*
X2180000Y502000D02*
Y508000D01*
Y482000D02*
Y502000D01*
X2255000Y600000D02*
X2269000Y586000D01*
X2217000Y600000D02*
X2255000D01*
X2201000Y616000D02*
X2217000Y600000D01*
X2167000Y616000D02*
X2201000D01*
X2126000Y488000D02*
Y505000D01*
X2118000Y513000D02*
X2126000Y505000D01*
X435000Y871000D02*
X2335000D01*
Y624000D02*
Y871000D01*
X2304000Y624000D02*
X2335000D01*
X2008000Y551000D02*
X2018000Y561000D01*
X2010000Y602000D02*
Y653000D01*
X2018000Y561000D02*
Y660000D01*
X2036000D02*
X2081000D01*
X2036000Y653000D02*
X2081000D01*
X2083000D01*
X2180000Y592000D02*
Y596000D01*
Y572000D02*
Y592000D01*
X2180000Y572000D02*
X2180000Y572000D01*
X2027000Y842000D02*
Y845000D01*
X2118000Y513000D02*
Y595000D01*
X2099000Y513000D02*
X2118000D01*
X2180000Y521000D02*
X2228000D01*
X2180000Y508000D02*
Y556000D01*
Y572000D01*
X2228000D01*
X435000Y720000D02*
Y870000D01*
X385000Y670000D02*
X435000Y720000D01*
X385000Y551000D02*
Y670000D01*
D92*
X2522000Y871000D02*
X2545000D01*
D93*
X2390000Y276500D02*
X2393500Y280000D01*
X2545000Y868000D02*
X2545000Y280000D01*
X2393500D02*
X2545000D01*
D178*
X300000Y830000D02*
D03*
Y280000D02*
D03*
D179*
X2438800Y668800D02*
D03*
X2438400Y439500D02*
D03*
Y490300D02*
D03*
Y541100D02*
D03*
Y515700D02*
D03*
Y642700D02*
D03*
Y617300D02*
D03*
Y566500D02*
D03*
Y591900D02*
D03*
Y464900D02*
D03*
D180*
X2450000Y380000D02*
D03*
Y245000D02*
D03*
D181*
X2390000Y348500D02*
D03*
Y276500D02*
D03*
D182*
X293048Y617967D02*
D03*
Y412968D02*
D03*
D183*
X310848Y628167D02*
D03*
X293048Y638367D02*
D03*
X310848Y648567D02*
D03*
X293048Y658767D02*
D03*
X310848Y668967D02*
D03*
X293048Y679167D02*
D03*
X310848Y689367D02*
D03*
X359148Y722367D02*
D03*
Y699467D02*
D03*
Y585167D02*
D03*
Y608067D02*
D03*
X310848Y423168D02*
D03*
X293048Y433368D02*
D03*
X310848Y443568D02*
D03*
X293048Y453768D02*
D03*
X310848Y463968D02*
D03*
X293048Y474168D02*
D03*
X310848Y484368D02*
D03*
X359148Y517368D02*
D03*
Y494468D02*
D03*
Y380168D02*
D03*
Y403068D02*
D03*
D184*
X267648Y717267D02*
D03*
Y590267D02*
D03*
Y512268D02*
D03*
Y385268D02*
D03*
D185*
X301948Y735067D02*
D03*
Y572467D02*
D03*
Y530068D02*
D03*
Y367468D02*
D03*
D186*
X2325000Y755000D02*
D03*
X2300000D02*
D03*
Y730000D02*
D03*
X2325000D02*
D03*
X2300000Y780000D02*
D03*
X2325000D02*
D03*
X2330000Y325000D02*
D03*
X2305000D02*
D03*
X2245000D02*
D03*
X2220000D02*
D03*
X2110000D02*
D03*
X2195000D02*
D03*
X2060000Y755000D02*
D03*
X2110000D02*
D03*
X2085000D02*
D03*
X2110000Y780000D02*
D03*
X2060000D02*
D03*
X2085000D02*
D03*
X2245000D02*
D03*
X2220000D02*
D03*
X2195000D02*
D03*
X2245000Y730000D02*
D03*
X2220000D02*
D03*
X2110000D02*
D03*
X2195000D02*
D03*
X2085000Y729000D02*
D03*
X2060000Y730000D02*
D03*
X2195000Y755000D02*
D03*
X2220000D02*
D03*
X2245000D02*
D03*
X2060000Y345000D02*
D03*
X2085000Y344000D02*
D03*
X2195000Y345000D02*
D03*
X2110000D02*
D03*
X2220000D02*
D03*
X2245000D02*
D03*
X2305000D02*
D03*
X2330000D02*
D03*
Y365000D02*
D03*
X2305000D02*
D03*
X2245000D02*
D03*
X2220000D02*
D03*
X2110000D02*
D03*
X2195000D02*
D03*
X2085000Y364000D02*
D03*
X2060000Y365000D02*
D03*
X820000Y235000D02*
D03*
Y265000D02*
D03*
Y280000D02*
D03*
Y250000D02*
D03*
X2325000Y490000D02*
D03*
Y525000D02*
D03*
X2295000Y465000D02*
D03*
Y445000D02*
D03*
X2230000Y505000D02*
D03*
Y445000D02*
D03*
Y465000D02*
D03*
X2525000Y690000D02*
D03*
Y430000D02*
D03*
X2050000Y685000D02*
D03*
X2045000Y430000D02*
D03*
X2100000D02*
D03*
X2270000Y685000D02*
D03*
X2240000D02*
D03*
X2035000Y855000D02*
D03*
X2035000Y845000D02*
D03*
X775000Y820000D02*
D03*
Y780000D02*
D03*
X775000Y740000D02*
D03*
Y700000D02*
D03*
Y660000D02*
D03*
X775000Y840000D02*
D03*
Y800000D02*
D03*
X775000Y760000D02*
D03*
Y720000D02*
D03*
Y680000D02*
D03*
X765000Y830000D02*
D03*
Y790000D02*
D03*
X765000Y750000D02*
D03*
Y710000D02*
D03*
Y670000D02*
D03*
X755000Y820000D02*
D03*
Y780000D02*
D03*
X755000Y740000D02*
D03*
Y700000D02*
D03*
Y660000D02*
D03*
X755000Y840000D02*
D03*
Y800000D02*
D03*
X755000Y760000D02*
D03*
Y720000D02*
D03*
Y680000D02*
D03*
X735000Y820000D02*
D03*
Y780000D02*
D03*
X735000Y740000D02*
D03*
Y700000D02*
D03*
Y660000D02*
D03*
X745000Y830000D02*
D03*
Y790000D02*
D03*
X745000Y750000D02*
D03*
Y710000D02*
D03*
Y670000D02*
D03*
X2015000Y845000D02*
D03*
X2025000Y850000D02*
D03*
X2005000Y850000D02*
D03*
X2015000Y855000D02*
D03*
X2025000Y860000D02*
D03*
X2005000D02*
D03*
X735000Y680000D02*
D03*
Y720000D02*
D03*
Y760000D02*
D03*
X735000Y800000D02*
D03*
Y840000D02*
D03*
X2060000Y327000D02*
D03*
X2085000D02*
D03*
X1876000Y521000D02*
D03*
X1864000D02*
D03*
X1790000Y555000D02*
D03*
X1780000Y550000D02*
D03*
X1800000D02*
D03*
X1820000D02*
D03*
X1810000Y555000D02*
D03*
X1790000Y540000D02*
D03*
X1780000Y535000D02*
D03*
X1800000D02*
D03*
X1820000D02*
D03*
X1810000Y540000D02*
D03*
X1790000Y525000D02*
D03*
X1780000Y520000D02*
D03*
X1800000D02*
D03*
X1820000D02*
D03*
X1810000Y525000D02*
D03*
X1790000Y510000D02*
D03*
X1780000Y505000D02*
D03*
X1800000D02*
D03*
X1820000D02*
D03*
X1810000Y510000D02*
D03*
X1790000Y705000D02*
D03*
X1780000Y700000D02*
D03*
X1800000D02*
D03*
X1820000D02*
D03*
X1810000Y705000D02*
D03*
Y690000D02*
D03*
X1790000D02*
D03*
Y675000D02*
D03*
X1780000Y670000D02*
D03*
X1800000D02*
D03*
X1820000D02*
D03*
X1810000Y675000D02*
D03*
X1973000Y799000D02*
D03*
X1948000D02*
D03*
X1923000D02*
D03*
X1898000D02*
D03*
X1873000D02*
D03*
X1848000D02*
D03*
X1924000Y569000D02*
D03*
Y557000D02*
D03*
Y545000D02*
D03*
Y533000D02*
D03*
Y521000D02*
D03*
X1888000D02*
D03*
X1900000D02*
D03*
X1912000D02*
D03*
Y533000D02*
D03*
Y545000D02*
D03*
Y557000D02*
D03*
Y569000D02*
D03*
X1900000D02*
D03*
X1888000Y569000D02*
D03*
X1550000Y730000D02*
D03*
Y745000D02*
D03*
Y355000D02*
D03*
Y370000D02*
D03*
Y540000D02*
D03*
Y560000D02*
D03*
X522002Y840000D02*
D03*
X507000Y770002D02*
D03*
Y790002D02*
D03*
X522000Y780002D02*
D03*
Y760002D02*
D03*
X507000Y810002D02*
D03*
Y830002D02*
D03*
X522000Y820002D02*
D03*
Y800002D02*
D03*
X507000Y690002D02*
D03*
Y710002D02*
D03*
X522000Y700002D02*
D03*
Y680002D02*
D03*
X507000Y730002D02*
D03*
Y750002D02*
D03*
X522000Y740002D02*
D03*
Y720002D02*
D03*
X507000Y414998D02*
D03*
X522000Y404998D02*
D03*
Y424998D02*
D03*
X507000Y354998D02*
D03*
Y334998D02*
D03*
X522000Y344998D02*
D03*
X507000Y394998D02*
D03*
Y374998D02*
D03*
X522000Y364998D02*
D03*
Y384998D02*
D03*
X522000Y285002D02*
D03*
Y305002D02*
D03*
X507000Y315002D02*
D03*
Y295002D02*
D03*
X522000Y265002D02*
D03*
X507000Y275002D02*
D03*
X522002Y325000D02*
D03*
X1780000Y685000D02*
D03*
X1800000D02*
D03*
X1820000D02*
D03*
X1860000Y675000D02*
D03*
X1847000Y304000D02*
D03*
X1872000D02*
D03*
X1897000D02*
D03*
X1922000D02*
D03*
X1947000D02*
D03*
X1972000D02*
D03*
X1985000Y420000D02*
D03*
X1960000D02*
D03*
X1935000D02*
D03*
X1910000D02*
D03*
X1885000D02*
D03*
X1860000D02*
D03*
X1910000Y675000D02*
D03*
X1885000D02*
D03*
X1985000D02*
D03*
X1960000D02*
D03*
X1935000D02*
D03*
D187*
X2049000Y721000D02*
D03*
X2531000Y772000D02*
D03*
Y746000D02*
D03*
X2495000Y817000D02*
D03*
Y737000D02*
D03*
X2499000Y731000D02*
D03*
X2491000D02*
D03*
X2519000Y772000D02*
D03*
X2513000D02*
D03*
X2398000Y704000D02*
D03*
X2004000Y665000D02*
D03*
X2005000Y429000D02*
D03*
X2013000Y721000D02*
D03*
X2040000Y716000D02*
D03*
X2019000Y716000D02*
D03*
X2015000Y378000D02*
D03*
X2039000D02*
D03*
X2350000Y704000D02*
D03*
X2173000Y427000D02*
D03*
X2203000Y424000D02*
D03*
X1953000Y586000D02*
D03*
X2400000Y675000D02*
D03*
X2377000D02*
D03*
X2317000Y444000D02*
D03*
X2341000Y470000D02*
D03*
X2346000Y507000D02*
D03*
X2359000Y512000D02*
D03*
X2525000Y772000D02*
D03*
X2519000Y746000D02*
D03*
X2528000Y849000D02*
D03*
X2522000Y871000D02*
D03*
X2486000Y858000D02*
D03*
X2161000Y460000D02*
D03*
X2190000Y502000D02*
D03*
X2180000Y608000D02*
D03*
X2180000Y482000D02*
D03*
X2137000Y528000D02*
D03*
X2132000Y521000D02*
D03*
X2125000Y445000D02*
D03*
X2117000Y464000D02*
D03*
X2139000Y404000D02*
D03*
X2139000Y463000D02*
D03*
X2158000Y453000D02*
D03*
X2128000Y596000D02*
D03*
X2167000Y616000D02*
D03*
X2394000Y624000D02*
D03*
X2513000Y746000D02*
D03*
X2525000D02*
D03*
X2256000Y668000D02*
D03*
X2481000Y704000D02*
D03*
X2469000D02*
D03*
X2457000D02*
D03*
X2445000D02*
D03*
X2433000D02*
D03*
X2421000D02*
D03*
X2409000D02*
D03*
X2269000Y586000D02*
D03*
X2258000Y494000D02*
D03*
X2213000Y490000D02*
D03*
X2126000Y488000D02*
D03*
X2371000Y605000D02*
D03*
X2010000Y653000D02*
D03*
X2018000Y660000D02*
D03*
X2036000D02*
D03*
Y653000D02*
D03*
X2081000Y660000D02*
D03*
Y653000D02*
D03*
X2150000Y671000D02*
D03*
X2263000Y651000D02*
D03*
X2361000Y871000D02*
D03*
X2342000D02*
D03*
X2304000Y624000D02*
D03*
X1971000Y526000D02*
D03*
X2104000Y640000D02*
D03*
X2010000Y602000D02*
D03*
X2227000Y656000D02*
D03*
Y646000D02*
D03*
X2209000Y656000D02*
D03*
Y646000D02*
D03*
X2008000Y551000D02*
D03*
X2263000Y624000D02*
D03*
X2179000Y455000D02*
D03*
X1966000Y590000D02*
D03*
X2118000Y595000D02*
D03*
X2269000Y515000D02*
D03*
Y547000D02*
D03*
Y528000D02*
D03*
X2008000Y501000D02*
D03*
X1953000Y526000D02*
D03*
X2228000Y521000D02*
D03*
X2165000Y540000D02*
D03*
X2214000Y547000D02*
D03*
X2144000Y501000D02*
D03*
X2144000Y564000D02*
D03*
X2156000Y467000D02*
D03*
Y572000D02*
D03*
X2099000Y513000D02*
D03*
X2298000Y547000D02*
D03*
Y568000D02*
D03*
X2269000Y567000D02*
D03*
X2273000Y573000D02*
D03*
X2298000Y524000D02*
D03*
X2132000Y556000D02*
D03*
Y572000D02*
D03*
X2180000Y596000D02*
D03*
Y572000D02*
D03*
Y556000D02*
D03*
X2132000Y584000D02*
D03*
X2156000D02*
D03*
Y608000D02*
D03*
X2228000Y572000D02*
D03*
X2298000Y494000D02*
D03*
X2298000Y579000D02*
D03*
X2298000Y590000D02*
D03*
X2246000Y612000D02*
D03*
X2004000Y698000D02*
D03*
X2016000Y415000D02*
D03*
X1954000Y596000D02*
D03*
X2055000Y615000D02*
D03*
Y628000D02*
D03*
X2036000Y497000D02*
D03*
Y505000D02*
D03*
X2057000Y463000D02*
D03*
Y476000D02*
D03*
X1966000Y502000D02*
D03*
X1945000Y475000D02*
D03*
X1935000Y488000D02*
D03*
Y596000D02*
D03*
X1953000Y539000D02*
D03*
X1945000Y590000D02*
D03*
X1940000Y585000D02*
D03*
Y514000D02*
D03*
X2048000Y404000D02*
D03*
X2031000Y678000D02*
D03*
X2022000D02*
D03*
X1906000Y633000D02*
D03*
Y605000D02*
D03*
Y624000D02*
D03*
X1900000Y614000D02*
D03*
X2342000Y887000D02*
D03*
X2361000Y882000D02*
D03*
X2342000Y685000D02*
D03*
X2390000D02*
D03*
X2366000Y534000D02*
D03*
X2361000Y605000D02*
D03*
X2391000D02*
D03*
X2341000D02*
D03*
X240000Y776000D02*
D03*
X1874000Y545000D02*
D03*
X1867000D02*
D03*
X385000Y551000D02*
D03*
X240000Y766000D02*
D03*
X230000Y771000D02*
D03*
D188*
X2502500Y700000D02*
D03*
D189*
X2520000Y772500D02*
D03*
D190*
X2506500Y852500D02*
D03*
D191*
X2495000Y782500D02*
D03*
D192*
X1915000Y675000D02*
D03*
Y420000D02*
D03*
D193*
X1872500Y517500D02*
D03*
D194*
X1905000Y542500D02*
D03*
D195*
X1995000Y525000D02*
D03*
D196*
X2025000Y765000D02*
D03*
D197*
Y320000D02*
D03*
D198*
X1572500Y252500D02*
D03*
D199*
X2355000Y355000D02*
D03*
D200*
X2439500Y777500D02*
D03*
D201*
X2192500Y795000D02*
D03*
D202*
X1995000Y845000D02*
D03*
D203*
X757500Y750000D02*
D03*
D204*
X1380000Y837500D02*
D03*
D205*
X2202500Y305000D02*
D03*
D206*
X705000Y552500D02*
D03*
D207*
X552500D02*
D03*
D208*
X1840000Y347500D02*
D03*
D209*
X1795000Y765000D02*
D03*
D210*
X1787500Y575000D02*
D03*
D211*
X302500Y653500D02*
D03*
Y448500D02*
D03*
D212*
X1900000Y347500D02*
D03*
D213*
X1915000Y737500D02*
D03*
D214*
X1270000Y537500D02*
D03*
M02*
