M48
;Layer_Color=9474304
;FILE_FORMAT=4:4
METRIC,LZ
;TYPE=PLATED
T1F00S00C0.7620
T2F00S00C0.8900
T3F00S00C1.5700
;TYPE=NON_PLATED
T4F00S00C3.2500
%
T01
X0498Y0045
Y0051
X0492
Y0045
X0486
Y0051
X048
Y0045
X0474
Y0051
X0468
Y0045
X0462
Y0051
X0456
Y0045
X0239
Y0051
X0233
Y0045
X0227
Y0051
X0221
Y0045
X0059
Y0051
X0053
Y0045
X0047
Y0051
X0041
Y0045
X0035
X0029
Y0051
X0035
X0023
Y0045
X0017
Y0051
T02
X00688803Y002
X00709203
X00729603
X00750003
X00739803Y002178
X00719403
X00699003
X00678603
X00668503Y002661
X00645603
X00759903
X00782803
X02155603
X02178503
X02188603Y002178
X02209003
X02229403
X02249803
X02239603Y002
X02219203
X02198803
X02260003
X02269903Y002661
X02292803
T03
X00632903Y002089
X00795503
X02142903
X02305503
T04
X00650703Y001746
X00777703
X02160703
X02287703
M30
