G04*
G04 #@! TF.GenerationSoftware,Altium Limited,Altium Designer,18.1.7 (191)*
G04*
G04 Layer_Color=65535*
%FSLAX44Y44*%
%MOMM*%
G71*
G01*
G75*
%ADD10C,0.2000*%
%ADD11C,0.1500*%
%ADD12C,0.2540*%
G36*
X1456544Y297891D02*
X1457521Y297501D01*
X1458888Y296524D01*
X1459083D01*
X1459278Y296329D01*
X1459864Y295548D01*
X1460060Y295157D01*
X1460645Y294376D01*
X1460450Y293985D01*
X1460060Y293204D01*
Y293009D01*
X1459864Y292814D01*
X1459669Y292423D01*
X1459278Y292228D01*
X1459083D01*
X1458888Y292032D01*
X1457911Y291446D01*
X1456349Y290665D01*
X1454786Y289689D01*
X1454591D01*
X1454396Y289494D01*
X1453419Y288908D01*
X1452052Y288126D01*
X1450490Y287345D01*
X1448927D01*
X1448537Y287540D01*
X1448146Y287931D01*
X1447951Y288322D01*
Y288517D01*
X1447755Y289298D01*
X1447951Y290665D01*
X1448146Y291446D01*
X1448537Y292423D01*
Y292618D01*
X1448732Y293009D01*
X1449513Y294181D01*
X1450685Y295548D01*
X1452052Y296915D01*
X1452247Y297110D01*
X1453029Y297501D01*
X1454200Y297891D01*
X1455372Y298087D01*
X1455763D01*
X1456544Y297891D01*
D02*
G37*
G36*
X1413969Y306875D02*
X1414554D01*
X1415336Y306680D01*
X1416117D01*
X1418265Y306485D01*
X1420804Y306094D01*
X1420999D01*
X1421390Y305899D01*
X1422757Y305508D01*
X1424319Y304532D01*
X1425687Y302969D01*
Y302774D01*
X1425882Y302579D01*
X1426468Y301407D01*
X1426858Y299649D01*
Y298673D01*
X1426663Y297501D01*
Y297306D01*
X1426468Y296720D01*
X1426077Y295548D01*
X1425491Y294181D01*
X1424710Y292618D01*
X1423538Y290861D01*
X1422171Y288908D01*
X1420414Y286759D01*
X1420218Y286564D01*
X1419437Y285978D01*
X1418461Y285002D01*
X1416898Y284025D01*
X1414945Y282853D01*
X1412797Y282072D01*
X1410258Y281486D01*
X1407524Y281291D01*
X1407133D01*
X1405766Y281486D01*
X1404203Y281877D01*
X1402641Y282658D01*
X1402251Y282853D01*
X1401469Y283634D01*
X1400493Y284806D01*
X1399321Y286369D01*
X1399126Y286564D01*
Y287345D01*
X1398930Y288322D01*
X1399321Y289494D01*
X1399516Y289689D01*
X1399907Y290275D01*
X1400688Y291056D01*
X1401665Y291446D01*
X1401860D01*
X1402446Y291642D01*
X1404594D01*
X1405180Y291446D01*
X1405571Y290665D01*
X1405766Y290275D01*
X1405961Y289494D01*
Y289103D01*
X1406156Y288322D01*
X1406547Y287540D01*
X1407328Y287150D01*
X1410063D01*
X1410453Y287345D01*
X1411039Y287540D01*
X1411820Y287931D01*
X1412797Y288322D01*
X1413773Y289103D01*
X1414750Y290079D01*
X1415726Y291251D01*
X1415922Y291446D01*
X1416117Y291837D01*
X1416508Y292423D01*
X1417093Y293400D01*
X1417875Y295548D01*
X1418070Y296720D01*
Y297891D01*
Y298087D01*
Y298282D01*
X1417875Y299063D01*
X1417484Y300040D01*
X1416703Y301016D01*
X1416508Y301211D01*
X1415922Y301602D01*
X1414945Y301797D01*
X1413773Y301993D01*
X1412601D01*
X1411625Y301797D01*
X1410258Y301602D01*
X1410063D01*
X1409281Y301407D01*
X1408109Y301211D01*
X1406938Y300821D01*
X1406742D01*
X1405961Y300430D01*
X1404985Y300040D01*
X1403618Y299258D01*
X1401860Y298477D01*
X1400102Y297501D01*
X1396587Y295157D01*
X1396391Y294962D01*
X1395806Y294571D01*
X1394829Y293790D01*
X1393657Y292814D01*
X1392290Y291642D01*
X1390923Y290275D01*
X1387798Y287150D01*
X1387603Y286955D01*
X1387017Y286173D01*
X1386041Y285197D01*
X1384673Y283830D01*
X1383306Y282072D01*
X1381744Y280119D01*
X1378619Y275823D01*
X1378424Y275627D01*
X1378033Y274846D01*
X1377252Y273479D01*
X1376275Y271916D01*
X1375104Y270159D01*
X1373932Y268010D01*
X1371393Y263323D01*
Y263128D01*
X1371198Y262737D01*
X1370807Y262151D01*
X1370417Y261175D01*
X1369635Y259027D01*
X1368854Y256488D01*
Y256292D01*
X1368659Y255902D01*
Y255121D01*
X1368463Y254339D01*
X1368268Y251800D01*
Y249066D01*
Y248871D01*
Y248480D01*
X1368463Y247699D01*
X1368659Y246723D01*
X1369440Y244574D01*
X1370612Y242231D01*
X1370807Y242035D01*
X1371002Y241840D01*
X1372174Y240864D01*
X1373932Y239692D01*
X1376471Y238520D01*
X1376666D01*
X1377447Y238325D01*
X1378424Y238129D01*
X1379986Y237934D01*
X1381549D01*
X1383502Y238129D01*
X1385650Y238520D01*
X1387994Y239301D01*
X1388189Y239496D01*
X1388970Y239692D01*
X1390142Y240278D01*
X1391509Y241059D01*
X1393071Y242036D01*
X1394634Y243403D01*
X1396001Y244770D01*
X1397173Y246527D01*
Y246723D01*
X1397368Y247113D01*
X1397954Y248285D01*
Y248480D01*
X1398149Y248871D01*
X1398345Y250043D01*
Y250238D01*
Y250433D01*
Y251019D01*
X1398149Y251605D01*
Y251800D01*
X1397954Y251996D01*
X1397563Y252386D01*
X1397173Y252582D01*
X1396782Y252777D01*
X1396391D01*
X1395806Y252582D01*
X1395610D01*
X1395220Y252386D01*
X1394829Y252191D01*
X1394438Y251800D01*
Y251605D01*
X1394048Y251410D01*
X1393657Y250238D01*
Y250043D01*
X1393462Y249652D01*
X1392876Y248480D01*
X1392681Y248090D01*
X1392290Y247309D01*
X1391509Y246332D01*
X1390533Y245551D01*
X1390337Y245356D01*
X1389556Y245160D01*
X1388384D01*
X1386822Y245356D01*
X1386431D01*
X1385650Y245746D01*
X1384673Y246332D01*
X1383892Y247309D01*
X1383697Y247504D01*
X1383502Y248285D01*
X1383306Y249457D01*
Y251215D01*
Y251410D01*
X1383502Y251800D01*
Y252386D01*
X1383697Y253168D01*
X1384478Y254925D01*
X1385845Y256488D01*
X1386041D01*
X1386236Y256878D01*
X1387408Y257464D01*
X1388970Y258441D01*
X1391118Y259417D01*
X1391314D01*
X1391704Y259613D01*
X1392290Y259808D01*
X1393071D01*
X1395024Y260198D01*
X1397759D01*
X1398930Y259613D01*
X1400688Y258831D01*
X1401469Y258050D01*
X1402446Y257269D01*
X1402641D01*
X1402836Y256878D01*
X1403813Y255902D01*
X1404594Y254339D01*
X1404985Y253363D01*
X1405180Y252386D01*
Y252191D01*
Y251996D01*
Y251410D01*
Y250629D01*
Y248871D01*
X1404594Y246723D01*
Y246527D01*
X1404203Y245746D01*
X1403813Y244770D01*
X1403032Y243598D01*
X1402251Y242231D01*
X1401274Y241059D01*
X1399907Y239692D01*
X1398540Y238520D01*
X1398345Y238325D01*
X1397759Y238129D01*
X1396782Y237544D01*
X1395610Y236958D01*
X1394243Y236176D01*
X1392681Y235395D01*
X1388970Y234028D01*
X1388580Y233833D01*
X1387603Y233638D01*
X1386041Y233247D01*
X1384283Y233052D01*
X1383892D01*
X1382720Y232856D01*
X1381158Y232661D01*
X1379400Y232466D01*
X1377838D01*
X1376861Y232661D01*
X1375690Y232856D01*
X1374127Y233052D01*
X1370807Y233833D01*
X1367292Y235005D01*
X1363581Y236762D01*
X1360261Y239106D01*
X1358894Y240473D01*
X1357527Y242231D01*
Y242426D01*
X1357331Y242621D01*
X1356941Y243207D01*
X1356745Y243988D01*
X1356355Y244965D01*
X1355964Y245941D01*
X1355378Y248871D01*
X1355183Y252386D01*
X1355378Y256488D01*
X1355769Y258636D01*
X1356160Y261175D01*
X1357136Y263519D01*
X1358113Y266253D01*
Y266448D01*
X1358503Y267034D01*
X1358894Y267815D01*
X1359480Y268792D01*
X1360261Y270159D01*
X1361042Y271721D01*
X1363386Y275432D01*
X1366315Y279533D01*
X1369635Y283634D01*
X1373541Y287931D01*
X1378033Y291837D01*
X1378228Y292032D01*
X1378619Y292228D01*
X1379400Y292814D01*
X1380377Y293400D01*
X1381549Y294376D01*
X1382916Y295157D01*
X1384673Y296329D01*
X1386431Y297501D01*
X1390728Y299844D01*
X1395806Y302188D01*
X1401274Y304532D01*
X1407328Y306485D01*
X1407524D01*
X1407914Y306680D01*
X1408500D01*
X1409281Y306875D01*
X1411430Y307071D01*
X1413969Y306875D01*
D02*
G37*
G36*
X1574701Y296524D02*
X1576068Y296329D01*
X1576459Y296134D01*
X1577045Y295743D01*
X1577826Y295157D01*
X1578607Y294181D01*
Y293985D01*
X1578802Y293790D01*
Y292618D01*
Y292423D01*
Y292032D01*
X1578607Y291642D01*
X1578412Y291446D01*
X1578216D01*
X1578021Y291056D01*
X1576849Y290275D01*
X1575287Y289298D01*
X1573334Y287931D01*
X1573138D01*
X1572943Y287736D01*
X1572357Y287345D01*
X1571576Y287150D01*
X1569623Y286369D01*
X1567280Y285588D01*
Y285783D01*
Y286173D01*
X1567084Y286955D01*
Y287931D01*
X1567280Y290079D01*
X1567670Y291251D01*
X1568061Y292423D01*
Y292618D01*
X1568256Y293009D01*
X1569232Y294181D01*
X1570600Y295548D01*
X1571576Y296134D01*
X1572748Y296524D01*
X1572943D01*
X1573724Y296720D01*
X1574701Y296524D01*
D02*
G37*
G36*
X1210856Y308242D02*
X1213004Y307852D01*
X1215543Y307461D01*
X1218277Y306875D01*
X1221012Y305899D01*
X1223746Y304727D01*
X1224136Y304532D01*
X1224918Y304141D01*
X1226285Y303360D01*
X1228042Y302188D01*
X1229995Y300821D01*
X1232144Y299258D01*
X1234487Y297306D01*
X1236831Y294962D01*
X1237026D01*
X1237222Y294571D01*
X1238198Y293595D01*
X1238393D01*
X1238589Y293204D01*
X1239370Y292228D01*
X1239565D01*
X1239956Y292032D01*
X1240346Y291837D01*
X1241127Y291446D01*
X1241323Y291642D01*
X1241713Y292228D01*
X1242299Y293009D01*
X1243081Y293790D01*
X1243276Y293985D01*
X1243666Y294571D01*
X1244448Y295352D01*
X1245229Y296134D01*
X1245424Y296329D01*
X1246205Y297110D01*
X1247377Y298087D01*
X1248744Y299258D01*
X1250697Y300821D01*
X1252650Y302188D01*
X1254994Y303555D01*
X1257533Y304727D01*
X1257923Y304922D01*
X1258705Y305117D01*
X1260072Y305703D01*
X1262025Y306289D01*
X1264173Y306875D01*
X1266517Y307461D01*
X1269251Y307852D01*
X1272180Y308047D01*
X1278039D01*
X1280773Y307852D01*
X1283898Y307656D01*
X1287023Y307071D01*
X1290343Y306289D01*
X1290539D01*
X1290734Y306094D01*
X1291906Y305899D01*
X1293468Y305117D01*
X1295616Y304336D01*
X1298155Y302969D01*
X1300889Y301602D01*
X1303624Y299649D01*
X1306358Y297501D01*
X1306553Y297306D01*
X1307334Y296720D01*
X1308311Y295743D01*
X1309483Y294376D01*
X1311045Y293009D01*
X1312608Y291251D01*
X1315537Y287150D01*
X1315732Y286955D01*
X1316123Y286173D01*
X1316904Y285002D01*
X1317685Y283439D01*
X1318467Y281681D01*
X1319443Y279533D01*
X1320224Y277190D01*
X1321006Y274651D01*
Y274455D01*
X1321201Y274260D01*
Y273674D01*
X1321396Y273088D01*
X1321591Y271135D01*
X1321787Y268792D01*
X1321591Y265862D01*
X1321006Y262737D01*
X1320029Y259613D01*
X1318467Y256292D01*
X1318271Y255902D01*
X1317490Y254925D01*
X1316123Y253558D01*
X1314365Y251800D01*
X1312217Y250043D01*
X1309483Y248480D01*
X1306358Y246918D01*
X1302647Y245941D01*
X1302257D01*
X1301671Y245746D01*
X1301085D01*
X1299132Y245551D01*
X1296788Y245355D01*
X1293859D01*
X1290929Y245551D01*
X1287609Y245941D01*
X1284484Y246723D01*
X1284094Y246918D01*
X1283117Y247309D01*
X1281555Y248090D01*
X1279406Y249066D01*
X1277063Y250433D01*
X1274524Y252191D01*
X1271985Y254535D01*
X1269446Y257074D01*
Y257269D01*
X1269055Y257464D01*
X1268079Y258831D01*
X1267103Y260589D01*
X1266126Y262737D01*
Y262933D01*
X1265931Y263323D01*
X1265735Y263909D01*
X1265540Y264690D01*
X1265345Y266643D01*
Y268987D01*
Y269182D01*
X1265540Y269573D01*
Y270354D01*
X1265735Y271135D01*
X1266517Y273088D01*
X1267688Y275041D01*
Y275236D01*
X1268079Y275432D01*
X1269055Y276408D01*
X1270813Y277580D01*
X1272962Y278557D01*
X1273157D01*
X1273547Y278752D01*
X1274133D01*
X1274914Y278947D01*
X1276672D01*
X1278430Y278557D01*
X1278625D01*
X1278820Y278361D01*
X1279992Y277775D01*
X1281359Y276604D01*
X1282922Y275041D01*
X1283117Y274846D01*
X1283703Y274065D01*
X1284289Y273088D01*
X1285070Y271916D01*
X1285266Y271721D01*
X1285851Y270940D01*
X1286437Y269768D01*
X1287218Y268596D01*
X1287414Y268401D01*
X1287609Y268010D01*
X1288781Y266643D01*
X1290734Y265081D01*
X1291906Y264495D01*
X1293078Y263909D01*
X1293273D01*
X1293663Y263714D01*
X1294445D01*
X1295226Y263519D01*
X1297569Y263714D01*
X1298741Y264104D01*
X1300108Y264690D01*
X1300304D01*
X1300694Y265081D01*
X1301866Y266057D01*
X1303233Y267620D01*
X1304014Y268792D01*
X1304405Y269963D01*
Y270159D01*
X1304600Y270549D01*
Y271331D01*
X1304796Y272307D01*
X1304600Y274846D01*
X1304405Y276213D01*
X1303819Y277580D01*
Y277775D01*
X1303624Y277971D01*
X1303038Y279338D01*
X1301866Y281096D01*
X1300304Y283244D01*
X1297960Y285588D01*
X1295226Y287931D01*
X1291906Y290275D01*
X1287804Y292032D01*
X1287609D01*
X1287218Y292228D01*
X1286633Y292423D01*
X1285851Y292618D01*
X1283703Y293204D01*
X1280773Y293790D01*
X1277453Y293985D01*
X1273938Y293790D01*
X1270032Y293204D01*
X1268274Y292618D01*
X1266321Y291837D01*
X1266126D01*
X1265540Y291446D01*
X1264564Y290861D01*
X1263392Y290275D01*
X1262220Y289298D01*
X1260853Y288126D01*
X1259486Y286955D01*
X1258314Y285392D01*
X1258119Y285197D01*
X1257728Y284611D01*
X1257337Y283830D01*
X1256556Y282658D01*
X1255775Y281291D01*
X1255189Y279728D01*
X1253822Y276213D01*
Y275822D01*
X1253627Y275041D01*
X1253236Y273479D01*
X1253041Y271526D01*
X1252650Y269377D01*
X1252260Y266839D01*
X1252064Y261370D01*
Y260980D01*
Y260003D01*
X1252260Y258636D01*
X1252455Y256683D01*
X1252650Y254339D01*
X1253041Y251800D01*
X1253627Y249066D01*
X1254408Y246332D01*
Y246137D01*
X1254603Y245746D01*
X1255189Y244379D01*
X1255970Y243012D01*
X1256361Y242426D01*
X1256752Y242035D01*
X1259095D01*
X1260267Y242231D01*
X1261439Y242426D01*
X1261634D01*
X1262415Y242621D01*
X1263392Y242817D01*
X1264759Y243012D01*
X1266321D01*
X1268079Y243207D01*
X1271985Y243012D01*
X1272180D01*
X1272766Y242817D01*
X1273938Y242621D01*
X1275110Y242426D01*
X1276672Y242035D01*
X1278430Y241450D01*
X1281945Y240082D01*
X1282141D01*
X1282336Y239887D01*
X1282531D01*
X1282922Y239692D01*
X1283117D01*
X1283312Y239301D01*
X1284680Y238520D01*
X1286242Y237153D01*
X1288000Y235590D01*
X1288195Y235395D01*
X1288390Y235200D01*
X1288781Y234614D01*
X1289171Y234028D01*
X1289757Y232075D01*
X1290148Y230903D01*
Y229536D01*
Y229341D01*
Y228950D01*
X1289953Y228169D01*
Y227388D01*
X1289171Y225240D01*
X1288586Y224263D01*
X1287804Y223287D01*
X1287609D01*
X1287414Y222896D01*
X1286242Y221919D01*
X1284289Y220748D01*
X1282141Y219576D01*
X1281945Y219381D01*
X1280969Y219185D01*
X1279797Y218795D01*
X1278039Y218209D01*
X1276086Y217818D01*
X1273743Y217428D01*
X1271399Y217037D01*
X1268860D01*
X1267884Y217232D01*
X1266712Y217428D01*
X1264954Y217623D01*
X1263001Y218209D01*
X1260853Y218990D01*
X1258705Y220162D01*
X1256361Y221529D01*
X1256166Y221724D01*
X1255385Y222115D01*
X1254408Y222701D01*
X1253431D01*
X1252846Y222310D01*
X1252064Y221724D01*
X1251283Y220748D01*
X1251088Y220552D01*
X1250697Y219771D01*
X1249916Y218599D01*
X1249135Y217232D01*
X1248158Y215474D01*
X1247182Y213521D01*
X1246401Y211373D01*
X1245620Y209030D01*
Y208834D01*
X1245424Y207858D01*
X1245034Y206686D01*
X1244838Y205124D01*
X1244643Y202975D01*
Y200827D01*
Y198288D01*
X1244838Y195749D01*
Y195554D01*
X1245034Y194968D01*
X1245229Y194187D01*
X1245620Y193015D01*
X1246205Y191648D01*
X1246987Y190476D01*
X1247768Y189109D01*
X1248940Y187742D01*
X1249135Y187547D01*
X1249526Y187156D01*
X1250307Y186570D01*
X1251283Y185984D01*
X1252455Y185398D01*
X1253822Y184617D01*
X1255189Y184226D01*
X1256947Y183836D01*
X1258509D01*
X1259681Y184031D01*
X1261048Y184226D01*
X1262611Y184617D01*
X1264368Y185203D01*
X1266126Y186180D01*
X1266321Y186375D01*
X1266907Y186765D01*
X1267688Y187351D01*
X1268860Y188132D01*
X1271009Y190281D01*
X1271790Y191453D01*
X1272571Y192820D01*
Y193015D01*
X1272766Y193210D01*
Y194187D01*
Y195359D01*
X1272376Y196726D01*
X1272180Y196921D01*
X1271594Y197507D01*
X1270423Y198093D01*
X1268860Y198288D01*
X1268665D01*
X1268079Y198093D01*
X1267103Y197897D01*
X1266126Y197702D01*
X1265931D01*
X1265345Y197507D01*
X1264564Y197312D01*
X1263587Y197116D01*
X1263392D01*
X1262611Y196921D01*
X1261439Y196726D01*
X1260072D01*
X1259290Y196921D01*
X1258509Y197312D01*
X1257533Y198288D01*
X1257337Y198483D01*
X1256947Y199265D01*
X1256556Y200436D01*
X1256361Y201608D01*
Y201999D01*
X1256556Y202780D01*
X1256752Y203757D01*
X1257142Y205124D01*
Y205319D01*
X1257337Y205514D01*
X1257923Y206491D01*
X1258900Y207858D01*
X1260267Y208834D01*
X1260462D01*
X1260658Y209030D01*
X1261634Y209420D01*
X1263001Y210006D01*
X1264759Y210397D01*
X1264954D01*
X1265735Y210592D01*
X1268274D01*
X1269837Y210787D01*
X1271790Y210592D01*
X1275696Y210201D01*
X1275891D01*
X1276477Y210006D01*
X1277454Y209615D01*
X1278821Y209225D01*
X1280188Y208639D01*
X1281945Y207858D01*
X1283508Y206881D01*
X1285266Y205514D01*
X1285461Y205319D01*
X1285851Y204928D01*
X1286633Y204342D01*
X1287414Y203561D01*
X1288976Y201413D01*
X1289562Y200046D01*
X1289953Y198679D01*
Y198483D01*
X1290148Y198093D01*
Y197312D01*
Y196335D01*
X1289953Y195163D01*
X1289562Y193796D01*
X1288976Y192429D01*
X1288000Y190867D01*
X1287804Y190671D01*
X1287609Y190086D01*
X1287023Y189304D01*
X1286437Y188328D01*
X1284484Y185789D01*
X1282336Y182859D01*
X1282141Y182664D01*
X1281750Y182273D01*
X1281164Y181492D01*
X1280383Y180516D01*
X1278430Y178172D01*
X1276282Y175438D01*
Y175243D01*
X1275891Y175047D01*
X1274914Y173876D01*
X1273352Y172118D01*
X1271399Y169774D01*
X1268860Y167040D01*
X1266126Y164111D01*
X1263196Y160986D01*
X1260072Y157666D01*
X1259681Y157275D01*
X1258705Y156103D01*
X1256947Y154541D01*
X1254799Y152393D01*
X1252260Y149853D01*
X1249330Y147119D01*
X1246010Y144190D01*
X1242690Y141260D01*
X1242495Y141065D01*
X1241909Y140479D01*
X1241518Y140284D01*
X1240737Y139893D01*
X1240542Y140089D01*
X1240151Y140284D01*
X1239565Y140870D01*
X1238784Y141456D01*
X1236831Y143018D01*
X1234487Y144776D01*
X1234292Y144971D01*
X1233901Y145166D01*
X1233316Y145752D01*
X1232534Y146338D01*
X1230777Y148096D01*
X1228628Y150049D01*
X1228433Y150244D01*
X1228042Y150635D01*
X1227261Y151416D01*
X1226285Y152392D01*
X1225113Y153564D01*
X1223550Y154931D01*
X1221988Y156494D01*
X1220230Y158251D01*
X1216129Y162353D01*
X1211637Y167040D01*
X1206950Y171922D01*
X1202263Y177000D01*
X1202067Y177196D01*
X1201677Y177586D01*
X1201091Y178367D01*
X1200114Y179344D01*
X1198943Y180711D01*
X1197576Y182273D01*
X1196208Y183836D01*
X1194451Y185789D01*
X1190740Y190085D01*
X1186834Y194968D01*
X1182537Y200436D01*
X1178241Y205905D01*
X1178045Y206295D01*
X1177264Y207272D01*
X1176288Y208639D01*
X1174725Y210592D01*
X1173163Y212936D01*
X1171405Y215474D01*
X1167694Y220943D01*
X1167499Y221334D01*
X1166913Y222310D01*
X1165937Y223873D01*
X1164960Y226021D01*
X1163593Y228560D01*
X1162421Y231294D01*
X1161054Y234419D01*
X1159883Y237739D01*
Y237934D01*
X1159687Y238129D01*
X1159492Y238715D01*
X1159297Y239496D01*
X1158906Y241645D01*
X1158320Y244184D01*
X1157539Y247309D01*
X1157148Y250824D01*
X1156758Y254535D01*
X1156562Y258245D01*
Y258441D01*
Y259027D01*
Y260003D01*
X1156758Y261175D01*
Y262737D01*
X1156953Y264300D01*
X1157344Y267620D01*
Y267815D01*
X1157539Y268206D01*
X1157734Y268987D01*
X1157930Y269963D01*
X1158320Y271331D01*
X1158711Y272698D01*
X1160078Y276213D01*
X1161835Y280314D01*
X1164374Y284806D01*
X1165937Y287150D01*
X1167499Y289494D01*
X1169452Y291837D01*
X1171600Y294181D01*
X1171991Y294571D01*
X1172968Y295548D01*
X1174335Y296915D01*
X1176483Y298477D01*
X1178827Y300235D01*
X1181756Y302188D01*
X1184686Y303750D01*
X1188006Y305117D01*
X1188201D01*
X1188396Y305313D01*
X1189568Y305703D01*
X1191521Y306094D01*
X1193865Y306875D01*
X1196794Y307461D01*
X1200114Y307852D01*
X1203825Y308242D01*
X1207731Y308438D01*
X1209294D01*
X1210856Y308242D01*
D02*
G37*
G36*
X1499120Y282463D02*
X1499706Y282072D01*
X1499901D01*
X1500096Y281681D01*
X1500291Y281096D01*
X1500487Y280314D01*
Y280119D01*
Y279729D01*
Y278361D01*
Y278166D01*
X1500096Y277580D01*
X1499706Y276408D01*
X1499120Y275237D01*
X1498534Y273674D01*
X1497753Y271916D01*
X1495995Y268206D01*
X1495800Y268010D01*
X1495604Y267425D01*
X1495214Y266448D01*
X1494628Y265081D01*
X1493846Y263714D01*
X1493065Y261956D01*
X1491308Y258245D01*
Y258050D01*
X1491112Y257659D01*
X1490722Y257074D01*
X1490331Y256097D01*
X1489355Y253949D01*
X1488378Y251410D01*
Y251215D01*
X1488183Y250824D01*
X1487792Y250238D01*
X1487597Y249262D01*
X1486620Y247309D01*
X1485644Y244770D01*
Y244574D01*
X1485449Y244184D01*
X1485253Y242817D01*
Y242621D01*
Y242231D01*
X1485058Y241254D01*
Y240864D01*
Y240082D01*
X1485449Y239106D01*
X1486230Y238325D01*
X1486425Y238129D01*
X1487011Y237934D01*
X1487988Y237739D01*
X1489159Y237934D01*
X1489355Y238129D01*
X1489550D01*
X1489745Y238325D01*
X1489940Y238520D01*
X1490722Y238911D01*
X1491698Y239692D01*
X1492870Y240668D01*
X1494432Y241645D01*
X1496190Y243012D01*
X1499901Y245746D01*
X1500096Y245942D01*
X1500682Y246527D01*
X1501658Y247309D01*
X1502830Y248285D01*
X1504197Y249652D01*
X1505760Y251215D01*
X1508689Y254730D01*
X1508885Y254925D01*
X1509275Y255707D01*
X1509666Y256683D01*
X1509861Y257659D01*
Y257855D01*
Y258636D01*
X1509666Y259808D01*
X1509471Y260980D01*
Y261175D01*
X1509275Y261956D01*
X1509080Y262933D01*
X1508885Y264300D01*
Y265862D01*
Y267620D01*
Y269377D01*
X1509275Y271135D01*
Y271331D01*
X1509471Y271916D01*
X1509861Y272893D01*
X1510447Y274065D01*
X1511228Y275432D01*
X1512400Y276799D01*
X1513767Y278361D01*
X1515330Y279729D01*
X1515525Y279924D01*
X1516306Y280510D01*
X1517283Y281096D01*
X1518454Y281681D01*
X1518845Y281877D01*
X1519626Y282072D01*
X1520798Y282072D01*
X1522165Y281681D01*
X1522360D01*
X1522556Y281486D01*
X1523337Y280900D01*
X1524313Y279924D01*
X1525095Y278752D01*
Y278361D01*
X1525290Y277580D01*
X1525485Y276213D01*
Y274651D01*
Y274260D01*
Y273284D01*
X1525290Y271917D01*
X1525095Y270354D01*
Y269963D01*
X1524899Y268987D01*
X1524509Y267815D01*
X1524118Y266253D01*
Y265862D01*
X1523728Y264886D01*
X1523337Y263714D01*
X1522751Y262151D01*
X1522556Y261761D01*
X1522360Y260784D01*
X1521774Y259417D01*
X1521189Y257855D01*
X1521384D01*
X1521579Y257464D01*
X1522751Y256878D01*
X1524313Y256488D01*
X1525290D01*
X1526266Y256683D01*
X1526462D01*
X1526657Y256878D01*
X1527829Y257074D01*
X1529586D01*
X1531539Y256683D01*
X1531344Y256488D01*
X1531149Y256097D01*
X1529977Y254925D01*
X1528415Y253558D01*
X1526266Y252191D01*
X1526071D01*
X1525681Y251996D01*
X1525095Y251800D01*
X1524313Y251605D01*
X1522360Y251410D01*
X1521189D01*
X1519821Y251605D01*
X1519431D01*
X1518650Y251800D01*
X1517478Y251605D01*
X1516306Y251410D01*
X1516111Y251215D01*
X1515525Y251019D01*
X1514744Y250433D01*
X1513767Y249457D01*
Y249262D01*
X1513377Y249066D01*
X1512400Y247894D01*
X1511033Y246332D01*
X1509471Y244574D01*
X1509275Y244379D01*
X1509080Y244184D01*
X1508103Y243012D01*
X1506541Y241645D01*
X1504783Y240278D01*
X1504588Y240082D01*
X1504002Y239496D01*
X1502830Y238715D01*
X1501658Y237739D01*
X1499901Y236762D01*
X1498143Y235786D01*
X1495995Y234809D01*
X1493846Y234028D01*
X1493651D01*
X1492870Y233833D01*
X1491698Y233442D01*
X1490136Y233247D01*
X1488183Y233052D01*
X1486035D01*
X1483691Y233247D01*
X1481152Y233638D01*
X1480957D01*
X1480566Y233833D01*
X1479199Y234223D01*
X1477637Y235005D01*
X1477051Y235590D01*
X1476465Y236176D01*
X1476269Y236567D01*
X1475683Y237544D01*
X1475098Y239301D01*
X1474707Y241645D01*
Y241840D01*
Y242036D01*
X1474512Y243403D01*
X1474707Y245160D01*
X1474902Y247113D01*
Y247309D01*
X1475098Y247504D01*
X1475488Y248871D01*
X1476074Y250433D01*
X1476855Y252386D01*
Y252582D01*
X1477051Y252972D01*
X1477441Y253754D01*
X1477832Y254535D01*
X1479004Y256683D01*
X1480175Y259222D01*
Y259417D01*
X1480371Y259808D01*
X1480761Y260394D01*
X1481152Y261370D01*
X1482324Y263519D01*
X1483496Y266057D01*
X1483691Y266253D01*
X1483886Y266643D01*
X1484472Y267815D01*
X1484667Y268010D01*
X1484863Y268401D01*
X1485253Y269182D01*
X1485644Y270159D01*
X1484472D01*
X1483300Y269963D01*
X1481933D01*
X1481152Y269768D01*
X1480175D01*
X1479199Y269573D01*
Y269768D01*
Y269963D01*
Y270549D01*
Y270745D01*
Y270940D01*
X1479394Y271135D01*
X1479980Y271526D01*
X1480761Y272112D01*
X1481738Y272698D01*
X1484472Y274651D01*
X1487402Y276604D01*
X1487597Y276799D01*
X1488183Y277190D01*
X1488964Y277775D01*
X1490136Y278361D01*
X1492675Y280314D01*
X1495800Y282267D01*
X1495995D01*
X1496385Y282463D01*
X1496971Y282658D01*
X1498534D01*
X1499120Y282463D01*
D02*
G37*
G36*
X1457325Y283244D02*
X1457130Y282658D01*
X1456739Y281681D01*
X1456154Y280510D01*
X1454591Y277775D01*
X1453029Y274651D01*
Y274455D01*
X1452638Y273869D01*
X1452443Y273088D01*
X1451857Y272112D01*
X1450685Y269377D01*
X1449123Y266448D01*
Y266253D01*
X1448732Y265862D01*
X1448537Y265081D01*
X1447951Y264300D01*
X1446779Y261956D01*
X1445412Y259417D01*
Y259222D01*
X1445021Y258831D01*
X1444631Y258050D01*
X1444240Y257269D01*
X1442873Y254925D01*
X1441506Y252191D01*
X1441311Y251996D01*
X1441115Y251410D01*
X1440529Y250433D01*
X1440139Y249262D01*
X1439944Y249066D01*
X1439748Y248480D01*
X1439162Y247504D01*
X1438772Y246332D01*
Y246137D01*
X1438576Y245942D01*
X1438186Y244770D01*
X1437795Y243207D01*
X1437600Y241645D01*
Y241450D01*
X1437795Y240668D01*
X1438186Y239692D01*
X1438967Y238911D01*
X1439162D01*
X1439358Y238715D01*
X1440334Y238520D01*
X1441506Y238325D01*
X1442287Y238520D01*
X1442873Y238715D01*
X1443068Y238911D01*
X1443849Y239301D01*
X1444826Y239887D01*
X1445998Y240668D01*
X1446193D01*
X1446388Y241059D01*
X1447560Y242036D01*
X1449123Y243403D01*
X1451076Y244965D01*
X1451271Y245160D01*
X1451466Y245356D01*
X1452638Y246332D01*
X1454200Y247894D01*
X1455958Y249457D01*
X1456154Y249652D01*
X1456544Y250043D01*
X1457911Y251215D01*
X1458107Y251410D01*
X1458497Y251800D01*
X1459864Y252972D01*
X1460060Y252777D01*
X1460645Y252191D01*
X1461036Y251410D01*
X1461231Y250629D01*
Y250433D01*
X1461036Y250043D01*
X1460450Y248871D01*
X1460255Y248676D01*
X1459864Y248090D01*
X1459278Y247113D01*
X1458302Y246137D01*
X1455958Y243403D01*
X1453029Y240473D01*
X1452833Y240278D01*
X1452443Y239887D01*
X1451662Y239106D01*
X1450490Y238325D01*
X1449123Y237348D01*
X1447755Y236372D01*
X1445998Y235200D01*
X1444045Y234223D01*
X1443849D01*
X1443654Y234028D01*
X1443068Y233833D01*
X1442287Y233638D01*
X1440529Y233247D01*
X1438381Y233052D01*
X1437209D01*
X1436428Y233247D01*
X1434670Y233638D01*
X1432522Y234223D01*
X1432327D01*
X1432132Y234419D01*
X1430960Y235200D01*
X1429593Y236372D01*
X1428226Y238129D01*
Y238325D01*
X1428030Y238715D01*
X1427835Y239301D01*
X1427640Y240082D01*
X1427444Y242036D01*
Y244574D01*
Y244770D01*
Y244965D01*
X1427835Y246137D01*
X1428226Y247699D01*
X1428811Y249457D01*
Y249652D01*
X1429007Y249848D01*
X1429397Y251019D01*
X1429983Y252582D01*
X1430569Y254339D01*
Y254535D01*
X1430764Y254730D01*
X1431350Y255902D01*
X1432132Y257464D01*
X1433108Y259417D01*
Y259613D01*
X1433303Y259808D01*
X1434084Y260980D01*
X1434866Y262737D01*
X1436037Y264886D01*
X1431350D01*
X1430569Y265081D01*
X1430374D01*
X1429788Y265276D01*
X1429007Y265471D01*
X1428030Y265862D01*
X1427835Y266057D01*
X1427249Y266253D01*
X1425882Y267034D01*
X1425687Y267229D01*
X1425296Y267815D01*
X1424905Y268792D01*
X1425101Y269768D01*
Y269963D01*
X1425491Y270549D01*
X1426272Y271135D01*
X1427249Y271331D01*
X1428421D01*
X1429593Y271526D01*
X1431350Y271721D01*
X1433108Y271916D01*
X1435256Y272502D01*
X1437209Y273088D01*
X1439358Y274065D01*
X1439553Y274260D01*
X1440334Y274455D01*
X1441506Y275041D01*
X1442873Y275823D01*
X1444631Y276604D01*
X1446388Y277580D01*
X1450490Y279729D01*
X1450685Y279924D01*
X1451466Y280314D01*
X1452443Y280900D01*
X1453615Y281486D01*
X1453810Y281681D01*
X1454786Y282072D01*
X1455958Y282658D01*
X1457521Y283439D01*
X1457325Y283244D01*
D02*
G37*
G36*
X1627041Y309805D02*
X1628213Y309414D01*
X1628409D01*
X1628799Y309219D01*
X1630166Y308828D01*
X1631729Y307852D01*
X1633096Y306485D01*
X1633291Y306094D01*
X1633877Y305118D01*
X1634268Y303360D01*
Y302383D01*
X1634072Y301212D01*
Y301016D01*
Y300821D01*
X1633682Y299454D01*
X1633291Y297696D01*
X1632510Y295743D01*
Y295548D01*
X1632315Y295352D01*
X1631924Y294181D01*
X1631143Y292618D01*
X1630166Y290861D01*
X1629971Y290470D01*
X1629385Y289298D01*
X1628409Y287540D01*
X1627041Y285197D01*
X1625479Y282463D01*
X1623917Y279533D01*
X1621964Y276213D01*
X1620011Y272893D01*
X1619815Y272502D01*
X1619034Y271331D01*
X1618058Y269573D01*
X1616691Y267425D01*
X1615128Y264690D01*
X1613371Y261761D01*
X1611613Y258441D01*
X1609660Y255121D01*
X1609464Y254730D01*
X1609074Y253949D01*
X1608293Y252582D01*
X1607707Y250824D01*
Y250629D01*
X1607511Y250433D01*
X1607316Y249457D01*
X1606926Y247894D01*
X1606535Y246137D01*
Y245942D01*
Y245551D01*
X1606340Y244379D01*
X1606535Y242817D01*
X1606926Y242231D01*
X1607511Y241645D01*
X1607902Y241450D01*
X1608683Y241254D01*
X1610246Y241059D01*
X1611027Y241254D01*
X1612199Y241450D01*
X1612394D01*
X1612785Y241645D01*
X1613371Y241840D01*
X1613956Y242231D01*
X1615714Y243012D01*
X1617472Y244379D01*
X1617667Y244574D01*
X1617862Y244770D01*
X1618839Y245746D01*
X1620401Y247113D01*
X1621964Y248871D01*
X1622159Y249066D01*
X1622745Y249848D01*
X1623526Y250824D01*
X1624503Y251800D01*
X1624698Y251996D01*
X1625284Y252582D01*
X1626065Y253363D01*
X1627237Y254144D01*
X1627432D01*
X1627823Y254339D01*
X1628409Y254535D01*
X1630166D01*
X1630948Y254339D01*
X1631338Y253949D01*
X1631533Y253754D01*
X1631729Y253558D01*
X1631924Y252777D01*
Y251800D01*
Y251605D01*
Y251019D01*
X1631729Y250238D01*
X1631338Y249652D01*
X1631143Y249457D01*
X1630557Y248871D01*
X1629776Y247894D01*
X1628799Y246723D01*
X1627432Y245356D01*
X1626065Y243988D01*
X1622940Y240864D01*
X1622745Y240668D01*
X1622159Y240082D01*
X1621183Y239301D01*
X1620011Y238325D01*
X1618448Y237348D01*
X1616691Y236176D01*
X1614738Y235005D01*
X1612589Y233833D01*
X1612394Y233638D01*
X1611613Y233442D01*
X1610441Y233052D01*
X1608878Y232856D01*
X1607121Y232661D01*
X1605363Y232856D01*
X1603410Y233247D01*
X1601457Y234223D01*
X1601262Y234419D01*
X1600676Y234809D01*
X1599895Y235591D01*
X1599113Y236567D01*
X1598137Y237934D01*
X1597160Y239497D01*
X1596379Y241254D01*
X1595989Y243207D01*
Y243403D01*
Y243793D01*
X1595793Y244770D01*
Y244965D01*
Y245356D01*
Y246137D01*
X1595598Y246918D01*
Y247113D01*
X1595793Y247699D01*
Y248676D01*
X1595989Y249848D01*
X1596379Y251410D01*
X1596770Y252972D01*
X1597551Y256488D01*
Y256683D01*
X1597746Y257269D01*
X1598137Y258245D01*
X1598528Y259417D01*
X1599113Y260784D01*
X1599699Y262347D01*
X1601066Y265667D01*
X1601262Y265862D01*
X1601457Y266448D01*
X1602043Y267425D01*
X1602824Y268596D01*
X1603801Y269963D01*
X1604777Y271526D01*
X1606926Y274846D01*
X1607121Y275041D01*
X1607511Y275627D01*
X1608097Y276604D01*
X1608878Y277775D01*
X1609855Y279143D01*
X1610832Y280705D01*
X1613175Y284025D01*
Y284220D01*
X1613566Y284416D01*
X1614347Y285588D01*
X1615519Y287150D01*
X1616886Y288712D01*
Y288908D01*
X1617276Y289103D01*
X1618058Y290079D01*
X1619229Y291642D01*
X1620597Y293204D01*
X1620792Y293400D01*
X1620987Y293790D01*
X1621768Y294767D01*
Y294962D01*
X1621964Y295352D01*
X1622550Y296524D01*
Y296720D01*
X1622745Y297501D01*
X1622550Y298282D01*
X1622159Y299259D01*
X1621964Y299454D01*
X1621573Y299649D01*
X1620792Y299844D01*
X1619620Y299649D01*
X1619425Y299454D01*
X1618644Y299259D01*
X1617667Y298673D01*
X1616691Y298087D01*
X1616495Y297892D01*
X1615714Y297501D01*
X1614738Y296915D01*
X1613761Y296134D01*
X1613566Y295938D01*
X1612980Y295548D01*
X1612199Y294767D01*
X1611222Y293790D01*
X1611027Y293595D01*
X1610441Y293400D01*
X1609074D01*
X1608488Y293790D01*
X1608293Y293985D01*
X1607707Y294767D01*
X1607316Y295743D01*
Y296915D01*
Y297306D01*
X1607707Y298087D01*
X1607902Y299063D01*
X1608488Y300430D01*
X1608683Y300626D01*
X1609074Y301212D01*
X1609660Y302188D01*
X1610441Y303165D01*
X1611613Y304532D01*
X1613175Y305704D01*
X1614933Y306875D01*
X1617081Y308047D01*
X1617276D01*
X1617862Y308438D01*
X1618644Y308633D01*
X1619620Y309024D01*
X1622159Y309610D01*
X1624893Y310000D01*
X1625870D01*
X1627041Y309805D01*
D02*
G37*
G36*
X1575873Y281877D02*
X1575677Y281291D01*
X1575287Y280314D01*
X1574701Y279143D01*
X1573920Y277775D01*
X1573138Y276408D01*
X1571576Y273088D01*
Y272893D01*
X1571185Y272307D01*
X1570795Y271526D01*
X1570209Y270549D01*
X1568842Y267815D01*
X1567280Y264886D01*
Y264690D01*
X1566889Y264300D01*
X1566694Y263519D01*
X1566108Y262737D01*
X1564936Y260394D01*
X1563569Y257855D01*
Y257659D01*
X1563178Y257269D01*
X1562788Y256488D01*
X1562397Y255707D01*
X1561225Y253363D01*
X1559858Y250824D01*
X1559663Y250629D01*
X1559467Y250043D01*
X1558882Y249066D01*
X1558491Y247894D01*
X1558296Y247699D01*
X1558100Y247113D01*
X1557514Y246137D01*
X1557124Y244965D01*
Y244770D01*
X1556929Y244574D01*
X1556538Y243403D01*
X1556147Y242036D01*
Y240473D01*
Y240082D01*
X1556343Y239497D01*
X1556733Y238520D01*
X1557514Y237739D01*
X1557710D01*
X1557905Y237544D01*
X1558882Y237153D01*
X1560053Y236958D01*
X1560639Y237153D01*
X1561225Y237348D01*
X1561616Y237544D01*
X1562202Y237934D01*
X1563374Y238520D01*
X1564350Y239301D01*
X1564545Y239497D01*
X1564741Y239692D01*
X1566108Y240668D01*
X1567670Y242231D01*
X1569623Y243793D01*
X1569818Y243988D01*
X1570014Y244184D01*
X1571185Y245356D01*
X1572943Y246918D01*
X1574896Y248676D01*
X1575092Y248871D01*
X1575482Y249262D01*
X1576654Y250238D01*
X1576849Y250433D01*
X1577240Y250629D01*
X1578607Y251800D01*
X1578802Y251410D01*
X1579193Y250629D01*
X1579388Y249652D01*
Y248676D01*
Y248480D01*
X1579193Y248090D01*
X1578216Y246723D01*
X1578021Y246527D01*
X1577630Y245942D01*
X1577045Y245160D01*
X1576263Y244184D01*
X1574310Y241840D01*
X1571771Y239301D01*
X1571576Y239106D01*
X1571185Y238715D01*
X1570404Y238130D01*
X1569428Y237348D01*
X1568061Y236372D01*
X1566694Y235395D01*
X1563569Y233442D01*
X1563374D01*
X1562788Y233052D01*
X1562006Y232856D01*
X1561225Y232466D01*
X1561030D01*
X1560444Y232271D01*
X1559663Y232075D01*
X1558882Y231880D01*
X1554976D01*
X1553218Y232271D01*
X1551460Y232856D01*
X1549898Y233638D01*
X1548335Y235005D01*
X1548140Y235200D01*
X1547749Y235786D01*
X1547164Y236567D01*
X1546578Y237934D01*
X1546187Y239497D01*
X1545797Y241254D01*
X1545992Y243403D01*
X1546382Y245746D01*
Y245942D01*
X1546578Y246137D01*
X1546968Y247504D01*
X1547554Y249262D01*
X1548531Y251215D01*
Y251410D01*
X1548726Y251605D01*
X1549312Y252972D01*
X1550093Y254730D01*
X1551070Y256683D01*
X1551265Y256878D01*
X1551460Y257659D01*
X1552046Y258831D01*
X1552632Y260003D01*
X1552827Y260394D01*
X1553218Y261175D01*
X1553804Y262347D01*
X1554390Y263909D01*
X1552046D01*
X1550874Y263714D01*
X1548921D01*
X1547945Y263909D01*
X1547749D01*
X1547164Y264300D01*
X1545797Y265081D01*
X1545601Y265276D01*
X1545211Y265667D01*
X1543843Y266839D01*
Y267034D01*
X1543648Y267425D01*
X1543453Y268011D01*
X1543648Y268792D01*
Y268987D01*
X1544039Y269378D01*
X1544625Y269768D01*
X1545601Y269963D01*
X1546968D01*
X1548335Y270159D01*
X1550288Y270354D01*
X1552632Y270940D01*
X1554976Y271526D01*
X1557514Y272502D01*
X1560053Y273674D01*
X1560444Y273869D01*
X1561225Y274260D01*
X1562397Y275041D01*
X1564155Y276018D01*
X1566108Y277190D01*
X1568451Y278361D01*
X1573334Y280900D01*
X1573529D01*
X1573724Y281096D01*
X1574506Y281291D01*
X1574896Y281486D01*
X1575287Y281877D01*
X1576068Y282072D01*
X1575873Y281877D01*
D02*
G37*
G36*
X1608488Y210201D02*
X1609074Y210006D01*
X1609660Y209616D01*
X1609855Y209420D01*
X1610441Y208639D01*
X1610832Y207272D01*
Y205514D01*
Y205319D01*
X1610636Y204928D01*
X1610246Y203757D01*
Y203561D01*
X1610050Y203171D01*
X1609465Y201999D01*
Y201804D01*
X1609269Y201608D01*
X1608879Y200436D01*
Y200241D01*
X1608683Y199851D01*
X1608293Y199265D01*
X1607902Y198288D01*
X1608293D01*
X1609269Y198093D01*
X1610636D01*
X1612003Y197897D01*
X1612394D01*
X1613175Y197702D01*
X1614347D01*
X1615714Y197507D01*
X1615909D01*
X1616495Y197312D01*
X1617276Y197116D01*
X1618253Y196921D01*
X1618448Y196726D01*
X1618839Y196335D01*
X1619425Y195749D01*
X1619620Y194577D01*
Y194187D01*
X1619425Y193601D01*
X1619034Y192624D01*
X1618253Y192038D01*
X1618058D01*
X1617472Y191843D01*
X1616691Y191648D01*
X1615519Y191453D01*
X1613175D01*
X1611808Y191257D01*
X1609660D01*
X1608293Y191453D01*
X1606926D01*
X1605754Y191257D01*
X1604387Y190671D01*
X1604191Y190476D01*
X1603605Y189890D01*
X1602824Y188914D01*
X1602043Y187547D01*
Y187351D01*
X1601652Y186961D01*
X1601457Y186180D01*
X1600871Y185203D01*
X1599699Y182664D01*
X1598137Y179735D01*
Y179539D01*
X1597746Y179149D01*
X1597356Y178368D01*
X1596965Y177391D01*
X1595598Y175047D01*
X1594036Y172118D01*
X1593840Y171923D01*
X1593645Y171337D01*
X1593059Y170360D01*
X1592473Y168993D01*
X1591692Y167626D01*
X1590911Y165868D01*
X1588958Y162353D01*
X1588763Y162157D01*
X1588567Y161572D01*
X1587981Y160595D01*
X1587395Y159228D01*
X1586614Y157861D01*
X1585833Y156103D01*
X1584075Y152393D01*
X1583880Y152002D01*
X1583490Y151221D01*
X1583099Y150244D01*
X1582513Y148877D01*
X1582318Y148486D01*
X1582122Y147705D01*
X1581732Y146729D01*
X1581537Y145362D01*
Y145166D01*
Y144971D01*
Y143799D01*
X1581927Y142627D01*
X1582318Y142042D01*
X1582904Y141651D01*
X1583294Y141456D01*
X1584075Y141260D01*
X1585443D01*
X1586224Y141456D01*
X1587005Y141846D01*
X1587395Y142042D01*
X1588177Y142432D01*
X1589348Y143018D01*
X1590520Y143995D01*
X1590911Y144190D01*
X1591692Y144971D01*
X1592669Y145752D01*
X1593840Y146924D01*
X1594231Y147315D01*
X1595012Y148291D01*
X1596379Y149658D01*
X1597942Y151221D01*
Y151416D01*
X1598332Y151611D01*
X1599113Y152588D01*
X1600285Y153955D01*
X1601652Y155517D01*
X1601848D01*
X1602043Y155322D01*
X1602238Y155127D01*
X1602629Y154931D01*
Y154736D01*
X1602434Y154541D01*
X1602238Y153369D01*
Y153174D01*
X1602043Y152978D01*
X1601652Y151807D01*
Y151611D01*
X1601262Y151221D01*
X1600871Y150440D01*
X1600481Y149463D01*
X1599113Y147315D01*
X1597356Y144776D01*
X1597160Y144580D01*
X1596965Y144190D01*
X1596379Y143799D01*
X1595598Y143018D01*
X1593840Y141065D01*
X1591497Y139112D01*
X1591302D01*
X1591106Y138722D01*
X1589934Y138136D01*
X1588372Y137159D01*
X1586419Y136378D01*
X1586224D01*
X1586028Y136183D01*
X1584661Y135987D01*
X1582904Y135597D01*
X1580951Y135401D01*
X1579583D01*
X1578998Y135597D01*
X1578216D01*
X1576459Y136378D01*
X1575482Y136769D01*
X1574506Y137550D01*
X1574310Y137745D01*
X1574115Y137940D01*
X1573725Y138526D01*
X1573139Y139307D01*
X1572357Y141260D01*
X1571967Y142432D01*
Y143604D01*
Y143799D01*
Y143995D01*
Y145362D01*
X1572162Y147119D01*
X1572357Y149072D01*
Y149268D01*
Y149463D01*
X1572748Y150635D01*
X1573139Y152197D01*
X1573725Y154150D01*
Y154346D01*
X1573920Y154931D01*
X1574310Y155713D01*
X1574701Y156884D01*
X1575677Y159423D01*
X1576849Y162548D01*
Y162743D01*
X1577240Y163329D01*
X1577630Y164111D01*
X1578021Y165087D01*
X1578607Y166259D01*
X1579388Y167821D01*
X1580755Y170946D01*
X1580560D01*
X1579974Y170751D01*
X1579193Y170555D01*
X1578216Y170360D01*
X1575873Y169579D01*
X1573139Y168993D01*
X1572943D01*
X1572553Y168798D01*
X1571772Y168603D01*
X1570795Y168407D01*
X1568451Y167821D01*
X1565912Y167235D01*
X1565717Y167431D01*
X1565522Y167626D01*
Y167821D01*
X1565327Y168212D01*
X1565522D01*
X1565717Y168407D01*
X1566889Y168993D01*
X1568451Y169774D01*
X1570404Y170555D01*
X1570600D01*
X1570795Y170751D01*
X1572162Y171337D01*
X1573725Y172118D01*
X1575482Y173094D01*
X1575677D01*
X1575873Y173290D01*
X1577045Y174071D01*
X1578412Y175243D01*
X1580169Y176415D01*
X1580365D01*
X1580560Y176805D01*
X1581732Y177586D01*
X1583294Y178758D01*
X1584857Y180320D01*
X1585247Y180711D01*
X1586028Y181688D01*
X1587200Y183055D01*
X1588567Y185008D01*
Y185203D01*
X1588958Y185398D01*
X1589739Y186765D01*
X1591106Y188523D01*
X1592864Y190671D01*
X1592473D01*
X1591302Y190867D01*
X1587786D01*
X1587005Y191062D01*
X1586028D01*
X1584661Y191257D01*
X1584466D01*
X1584271Y191453D01*
X1583099Y191843D01*
X1582904D01*
X1582708Y192038D01*
X1581732Y192624D01*
Y192820D01*
X1581927Y193210D01*
X1582708Y194577D01*
Y194773D01*
X1583099Y195163D01*
X1583294Y195749D01*
X1583880Y195944D01*
X1584271Y196140D01*
X1585052Y196335D01*
X1586224Y196726D01*
X1587591Y197116D01*
X1587981D01*
X1588763Y197312D01*
X1591692D01*
X1592669Y197507D01*
X1594036Y197702D01*
X1595208Y198093D01*
X1595403Y198288D01*
X1595989Y198874D01*
X1596770Y199851D01*
X1597746Y201218D01*
X1597942Y201608D01*
X1598332Y202390D01*
X1598918Y203366D01*
X1599895Y204733D01*
X1600090Y204928D01*
X1600481Y205710D01*
X1601262Y206686D01*
X1602238Y207858D01*
X1602434Y208053D01*
X1602629Y208249D01*
X1603801Y209225D01*
X1603996Y209420D01*
X1604387Y209616D01*
X1604973Y210006D01*
X1605754Y210201D01*
X1605949D01*
X1606144Y210397D01*
X1607121D01*
X1608488Y210201D01*
D02*
G37*
G36*
X1725864Y213131D02*
X1725668Y212936D01*
X1725278Y211569D01*
X1724692Y209811D01*
X1723911Y208053D01*
Y207858D01*
X1723715Y207663D01*
X1723325Y206491D01*
X1722543Y204928D01*
X1721762Y203171D01*
X1721958D01*
X1722739Y202975D01*
X1723520Y202780D01*
X1724496Y202585D01*
X1724692D01*
X1725278Y202390D01*
X1726254Y202194D01*
X1727621Y201999D01*
X1727426Y201804D01*
X1726645Y201413D01*
X1725668Y200827D01*
X1724301Y200046D01*
X1722739Y199069D01*
X1720981Y198093D01*
X1717270Y195945D01*
X1717075Y195749D01*
X1716489Y195359D01*
X1715317Y194968D01*
X1714146Y194187D01*
X1712583Y193210D01*
X1711021Y192234D01*
X1707310Y190281D01*
Y190476D01*
X1707115Y190672D01*
X1706920D01*
X1706724Y190867D01*
X1706920Y191062D01*
X1707701Y191843D01*
X1708482Y193015D01*
X1709654Y194382D01*
X1709849Y194773D01*
X1710630Y195554D01*
X1711607Y196726D01*
X1712778Y198288D01*
X1712583D01*
X1711997Y198484D01*
X1711216Y198874D01*
X1710240Y199069D01*
X1710044D01*
X1709458Y199265D01*
X1708677Y199460D01*
X1707505Y199851D01*
X1707701Y200046D01*
X1708287Y200436D01*
X1709263Y201022D01*
X1710240Y201999D01*
X1711607Y202975D01*
X1713169Y204147D01*
X1716489Y206491D01*
X1716685Y206686D01*
X1717270Y207077D01*
X1718247Y207663D01*
X1719419Y208444D01*
X1720786Y209616D01*
X1722348Y210787D01*
X1725864Y213326D01*
Y213131D01*
D02*
G37*
G36*
X1368854Y215474D02*
X1370221Y215279D01*
X1371784Y214693D01*
X1373541Y214107D01*
X1375104Y213131D01*
X1376666Y211959D01*
X1377643Y210397D01*
Y210201D01*
X1377838Y209616D01*
X1378033Y208639D01*
X1378229Y207272D01*
Y205709D01*
X1378033Y203757D01*
X1377643Y201608D01*
X1376666Y199265D01*
Y199069D01*
X1376471Y198874D01*
X1375885Y197897D01*
X1374713Y196335D01*
X1373346Y194773D01*
X1372955Y194382D01*
X1371979Y193601D01*
X1370612Y192429D01*
X1369049Y191453D01*
X1368854Y191257D01*
X1368463Y191062D01*
X1367682Y190671D01*
X1366901Y190086D01*
X1364362Y188718D01*
X1361628Y187351D01*
X1361433D01*
X1361042Y186961D01*
X1360261Y186765D01*
X1359284Y186180D01*
X1356745Y185008D01*
X1354011Y183641D01*
X1353816D01*
X1353230Y183445D01*
X1351863Y182664D01*
X1351668D01*
X1351082Y182273D01*
X1350105Y181883D01*
X1348934Y181297D01*
X1349324Y181102D01*
X1349910Y180711D01*
X1350887Y180320D01*
X1351863Y179734D01*
X1352058D01*
X1352449Y179344D01*
X1353816Y178563D01*
X1354011D01*
X1354207Y178172D01*
X1354988Y177391D01*
X1355964Y176024D01*
X1356160Y175438D01*
Y174657D01*
Y174266D01*
X1355574Y173485D01*
X1354597Y172508D01*
X1354011Y171922D01*
X1353035Y171532D01*
X1352840D01*
X1352449Y171337D01*
X1351863Y171141D01*
X1351277Y170946D01*
X1349324Y170555D01*
X1345809D01*
X1345027Y170751D01*
X1343074Y171141D01*
X1340926Y172118D01*
X1340731D01*
X1340340Y172508D01*
X1339559Y172704D01*
X1338582Y172899D01*
X1336239Y173290D01*
X1335067D01*
X1333895Y173094D01*
X1333700D01*
X1333309Y172899D01*
X1332724Y172704D01*
X1332138Y172313D01*
X1330185Y171337D01*
X1328036Y169774D01*
X1327841Y169579D01*
X1327450Y169384D01*
X1326864Y168798D01*
X1326279Y168016D01*
X1324326Y165868D01*
X1322568Y163329D01*
Y163134D01*
X1322177Y162743D01*
X1321787Y161962D01*
X1321396Y160986D01*
X1321006Y159814D01*
X1320420Y158447D01*
X1319834Y155127D01*
Y154931D01*
Y154150D01*
Y153174D01*
X1320029Y151807D01*
X1320224Y150244D01*
X1320810Y148682D01*
X1321591Y147119D01*
X1322568Y145557D01*
X1322763Y145362D01*
X1323154Y144971D01*
X1323935Y144385D01*
X1324911Y143604D01*
X1326083Y143018D01*
X1327646Y142432D01*
X1329403Y141846D01*
X1331356Y141651D01*
X1335653D01*
X1338192Y142042D01*
X1338387D01*
X1338778Y142237D01*
X1339364D01*
X1340145Y142432D01*
X1342293Y143213D01*
X1344442Y144385D01*
X1344637Y144580D01*
X1345223Y145166D01*
X1346004Y145948D01*
X1346785Y146924D01*
X1346980Y147119D01*
X1347371Y147900D01*
X1347957Y148682D01*
X1348348Y149853D01*
Y150049D01*
X1348543Y150440D01*
Y151221D01*
Y152197D01*
Y152393D01*
X1348348Y152978D01*
X1347957Y153564D01*
X1347371Y154150D01*
X1347176D01*
X1346785Y154346D01*
X1345223D01*
X1344637Y154150D01*
X1343856Y153955D01*
X1342879Y153760D01*
X1342684D01*
X1342489Y153564D01*
X1341512Y152588D01*
Y152393D01*
X1341121Y152002D01*
X1340340Y151025D01*
X1339950Y150635D01*
X1338973Y150049D01*
X1337606Y149268D01*
X1335848Y148877D01*
X1335458D01*
X1334481Y149072D01*
X1333309Y149463D01*
X1331942Y150244D01*
X1331747Y150440D01*
X1331161Y151416D01*
X1330575Y152588D01*
Y153369D01*
Y154150D01*
Y154346D01*
Y154541D01*
X1330966Y155713D01*
X1331747Y157080D01*
X1332333Y158056D01*
X1333114Y158837D01*
X1333309Y159033D01*
X1333700Y159423D01*
X1334677Y160009D01*
X1335653Y160790D01*
X1337020Y161572D01*
X1338582Y162157D01*
X1340340Y162743D01*
X1342293Y163134D01*
X1344246D01*
X1345613Y162939D01*
X1347176Y162743D01*
X1348738Y162157D01*
X1350496Y161572D01*
X1352254Y160595D01*
X1352449Y160400D01*
X1353035Y160009D01*
X1353816Y159228D01*
X1354597Y158251D01*
X1355574Y157080D01*
X1356550Y155517D01*
X1357136Y153760D01*
X1357527Y151807D01*
Y151611D01*
Y151025D01*
X1357331Y149853D01*
X1357136Y148682D01*
X1356745Y147315D01*
X1355964Y145752D01*
X1354792Y144190D01*
X1353230Y142627D01*
X1353035Y142432D01*
X1352449Y142042D01*
X1351472Y141260D01*
X1350105Y140479D01*
X1348543Y139503D01*
X1346590Y138526D01*
X1344637Y137745D01*
X1342489Y136964D01*
X1342293D01*
X1341512Y136768D01*
X1340340Y136573D01*
X1338778Y136182D01*
X1336825Y135987D01*
X1334677D01*
X1332528Y135792D01*
X1329989Y135987D01*
X1329599D01*
X1328622Y136182D01*
X1327255Y136378D01*
X1325497Y136768D01*
X1325107D01*
X1323935Y137159D01*
X1322373Y137354D01*
X1320615Y137940D01*
X1320420D01*
X1320224Y138135D01*
X1319638Y138331D01*
X1318857Y138526D01*
X1316904Y139503D01*
X1314561Y140674D01*
X1312217Y142432D01*
X1309873Y144580D01*
X1307725Y147315D01*
X1306944Y148682D01*
X1306358Y150440D01*
Y150635D01*
Y150830D01*
X1306163Y151416D01*
X1305967Y152197D01*
Y153955D01*
Y156494D01*
X1306358Y159228D01*
X1307334Y162353D01*
X1308116Y164111D01*
X1308897Y165673D01*
X1310069Y167431D01*
X1311436Y168993D01*
X1311631Y169188D01*
X1312022Y169579D01*
X1312412Y170165D01*
X1313194Y170946D01*
X1315146Y172704D01*
X1317685Y174461D01*
X1317881Y174657D01*
X1318271Y174852D01*
X1319052Y175243D01*
X1320029Y175828D01*
X1322373Y177196D01*
X1325107Y178367D01*
X1325302D01*
X1325497Y178563D01*
X1326279Y178953D01*
X1327255Y179539D01*
X1328036Y180125D01*
X1328232Y180320D01*
X1328427Y181102D01*
Y182273D01*
X1328036Y183836D01*
Y184031D01*
X1327841Y184812D01*
Y185789D01*
Y186961D01*
Y187351D01*
Y187937D01*
X1328036Y189109D01*
X1328232Y190086D01*
Y190281D01*
X1328427Y190476D01*
X1329208Y191843D01*
X1329989Y193601D01*
X1331161Y195554D01*
Y195749D01*
X1331356Y196140D01*
X1332138Y197312D01*
X1333309Y198874D01*
X1334677Y200436D01*
X1335067Y200632D01*
X1335848Y201413D01*
X1337215Y202585D01*
X1338973Y204147D01*
X1341121Y205709D01*
X1343465Y207467D01*
X1346199Y209225D01*
X1348934Y210787D01*
X1349324Y210983D01*
X1350301Y211373D01*
X1351863Y212154D01*
X1354011Y212936D01*
X1356355Y213717D01*
X1359284Y214498D01*
X1362605Y215084D01*
X1365925Y215474D01*
X1366120Y215670D01*
X1367878D01*
X1368854Y215474D01*
D02*
G37*
G36*
X1645009Y184812D02*
X1645400Y184617D01*
X1645595Y184226D01*
X1645790Y183836D01*
X1645986Y183250D01*
Y183055D01*
Y182664D01*
Y181688D01*
X1645790Y181297D01*
X1645595Y180516D01*
X1645009Y179539D01*
X1644423Y178172D01*
X1644228Y177977D01*
X1644033Y177196D01*
X1643447Y176024D01*
X1642861Y174657D01*
X1643056D01*
X1643642Y174852D01*
X1644423Y175243D01*
X1645400Y175633D01*
X1647939Y176805D01*
X1650673Y177977D01*
X1650868D01*
X1651259Y178172D01*
X1652040Y178563D01*
X1653212Y178953D01*
X1655751Y179930D01*
X1658680Y180906D01*
X1659071D01*
X1659852Y181102D01*
X1661024Y181297D01*
X1664734D01*
X1666102Y181102D01*
X1666297D01*
X1666687Y180906D01*
X1668055Y180516D01*
X1669617Y179735D01*
X1670984Y178368D01*
X1671180Y177977D01*
X1671765Y176805D01*
X1672156Y175243D01*
X1672351Y172899D01*
Y172704D01*
Y172313D01*
X1672156Y171532D01*
X1671961Y170751D01*
X1671180Y168407D01*
X1670398Y167235D01*
X1669617Y166064D01*
X1669422Y165868D01*
X1669227Y165478D01*
X1668641Y164892D01*
X1667859Y164306D01*
X1665906Y162743D01*
X1664734Y162157D01*
X1663367Y161572D01*
X1663172D01*
X1662782Y161376D01*
X1661610Y161181D01*
X1659266D01*
X1658290Y161572D01*
X1656922Y162157D01*
X1655555Y163134D01*
X1655360Y163329D01*
X1654774Y164111D01*
X1654384Y165282D01*
X1654188Y166845D01*
Y167040D01*
X1654384Y167821D01*
X1654969Y168603D01*
X1655946Y169384D01*
X1656337Y169579D01*
X1657118Y169774D01*
X1658680Y169970D01*
X1660633D01*
X1661219Y169774D01*
X1662586Y169579D01*
X1663172D01*
X1663758Y169970D01*
X1664149Y170751D01*
Y170946D01*
X1664344Y171337D01*
X1664539Y171923D01*
Y172704D01*
Y172899D01*
Y173485D01*
X1664149Y174657D01*
X1663953Y174852D01*
X1663758Y175438D01*
X1663172Y176024D01*
X1662391Y176415D01*
X1662196D01*
X1661610Y176610D01*
X1660829D01*
X1660047Y176415D01*
X1659852D01*
X1659071Y176024D01*
X1658094Y175633D01*
X1656922Y175243D01*
X1656727D01*
X1655946Y174852D01*
X1654969Y174461D01*
X1653993Y173876D01*
X1653602Y173680D01*
X1652431Y172899D01*
X1650868Y171727D01*
X1648720Y169970D01*
X1646181Y168017D01*
X1643642Y165868D01*
X1640908Y163525D01*
X1638174Y160790D01*
X1637783Y160400D01*
X1637002Y159423D01*
X1635635Y157861D01*
X1634072Y155713D01*
X1632315Y153174D01*
X1630362Y150244D01*
X1628604Y146924D01*
X1626846Y143213D01*
Y143018D01*
X1626456Y142432D01*
X1626065Y141651D01*
X1625674Y140674D01*
X1624307Y138722D01*
X1623526Y137940D01*
X1622745Y137550D01*
X1622354Y137354D01*
X1621768D01*
X1620987Y137159D01*
X1619815Y136964D01*
X1616495D01*
X1614152Y137159D01*
Y137354D01*
X1614347Y137550D01*
X1614933Y138722D01*
X1615714Y140479D01*
X1616886Y142823D01*
X1618253Y145557D01*
X1619815Y148486D01*
X1621573Y151807D01*
X1623331Y155127D01*
Y155322D01*
X1623526Y155517D01*
X1624112Y156689D01*
X1625089Y158447D01*
X1626456Y160790D01*
X1628018Y163525D01*
X1629776Y166649D01*
X1631533Y169970D01*
X1633682Y173485D01*
X1633486D01*
X1633096Y173290D01*
X1632315D01*
X1631533Y173094D01*
X1629385Y172509D01*
X1627237Y171923D01*
X1626846D01*
X1626260Y171727D01*
X1625479Y171532D01*
X1623721Y171141D01*
X1621573Y170555D01*
Y170751D01*
Y170946D01*
Y171141D01*
X1621378Y171337D01*
X1621573Y171532D01*
X1622159Y171923D01*
X1622354Y172118D01*
X1623136Y172509D01*
X1623331Y172704D01*
X1623917Y172899D01*
X1624893Y173290D01*
X1626065Y174071D01*
X1627432Y174657D01*
X1628994Y175438D01*
X1632315Y177196D01*
X1632510Y177391D01*
X1633096Y177586D01*
X1634072Y178172D01*
X1635049Y178953D01*
X1637783Y181102D01*
X1640713Y183836D01*
X1640908Y184031D01*
X1641494Y184617D01*
X1641689Y184812D01*
X1642470Y185008D01*
X1644619D01*
X1645009Y184812D01*
D02*
G37*
G36*
X1784454Y187547D02*
X1786407Y187156D01*
X1786602D01*
X1787383Y186961D01*
X1788165Y186570D01*
X1789336Y185984D01*
X1790508Y185203D01*
X1791680Y184031D01*
X1792656Y182859D01*
X1793242Y181102D01*
Y180906D01*
X1793438Y180320D01*
Y179539D01*
Y178758D01*
Y178563D01*
Y178172D01*
X1793242Y177586D01*
X1793047Y176805D01*
X1792266Y174657D01*
X1791680Y173485D01*
X1790703Y172313D01*
X1790508Y172118D01*
X1789922Y171532D01*
X1788946Y170751D01*
X1787969Y169970D01*
X1787774Y169774D01*
X1787188Y169384D01*
X1786212Y168798D01*
X1785040Y168017D01*
X1784844Y167821D01*
X1784063Y167626D01*
X1783087Y167431D01*
X1781915Y167235D01*
X1781720D01*
X1780938Y167431D01*
X1779962Y167821D01*
X1778985Y168407D01*
X1778790Y168603D01*
X1778204Y169384D01*
X1777814Y170360D01*
X1777618Y171532D01*
Y171923D01*
X1777814Y172704D01*
X1778204Y173680D01*
X1778595Y174852D01*
X1778790Y175047D01*
X1779181Y175633D01*
X1780352Y177000D01*
X1780548Y177196D01*
X1780938Y177586D01*
X1782110Y178953D01*
X1782305Y179149D01*
X1782501Y179539D01*
X1782891Y180516D01*
Y180711D01*
X1783087Y181102D01*
X1783673Y182078D01*
X1783477D01*
X1783087Y182274D01*
X1781915Y182664D01*
X1781720D01*
X1781329Y182859D01*
X1779962D01*
X1779767Y182664D01*
X1778595Y182274D01*
X1777032Y181883D01*
X1775079Y181102D01*
X1774884D01*
X1774689Y180906D01*
X1773712Y180516D01*
X1772150Y179735D01*
X1770392Y178953D01*
X1770197D01*
X1769806Y178563D01*
X1769220Y178172D01*
X1768244Y177586D01*
X1766291Y175829D01*
X1764338Y173680D01*
X1764142Y173485D01*
X1763947Y173094D01*
X1763557Y172509D01*
X1762971Y171727D01*
X1761604Y169774D01*
X1760041Y167235D01*
X1759846Y167040D01*
X1759651Y166649D01*
X1759260Y165868D01*
X1758674Y164697D01*
X1757307Y162158D01*
X1755745Y159228D01*
Y159033D01*
X1755354Y158447D01*
X1755159Y157666D01*
X1754768Y156689D01*
X1754182Y155322D01*
X1753792Y153760D01*
X1753010Y150440D01*
Y150244D01*
Y149658D01*
Y148682D01*
Y147510D01*
X1753596Y144971D01*
X1753987Y143604D01*
X1754768Y142627D01*
X1754963D01*
X1755159Y142237D01*
X1755940Y142042D01*
X1756721Y141651D01*
X1757698Y141456D01*
X1759065Y141260D01*
X1760627Y141456D01*
X1762385Y141651D01*
X1762580D01*
X1762775Y141846D01*
X1764142Y142042D01*
X1765705Y142627D01*
X1767658Y143409D01*
X1767853D01*
X1768049Y143604D01*
X1769220Y144385D01*
X1770783Y145362D01*
X1772540Y146338D01*
X1772736D01*
X1772931Y146533D01*
X1773908Y147315D01*
X1775275Y148291D01*
X1776837Y149658D01*
X1777032D01*
X1777228Y150049D01*
X1778204Y150830D01*
X1779767Y152002D01*
X1781720Y153369D01*
Y153174D01*
X1781524Y152978D01*
X1781134Y151807D01*
X1780352Y150244D01*
X1779181Y148096D01*
X1777618Y145948D01*
X1775470Y143604D01*
X1772736Y141456D01*
X1769611Y139698D01*
X1769416D01*
X1769220Y139503D01*
X1768049Y138917D01*
X1766096Y138331D01*
X1763752Y137550D01*
X1761018Y136964D01*
X1758088Y136573D01*
X1754768Y136769D01*
X1751643Y137354D01*
X1751448D01*
X1750862Y137745D01*
X1749886Y138136D01*
X1748714Y138722D01*
X1745980Y140284D01*
X1744612Y141456D01*
X1743441Y142627D01*
X1743245Y142823D01*
X1743050Y143409D01*
X1742464Y144190D01*
X1742074Y145362D01*
X1741683Y146729D01*
X1741292Y148486D01*
X1741097Y150440D01*
Y152393D01*
Y152588D01*
Y152783D01*
X1741292Y153760D01*
X1741488Y155127D01*
X1741878Y156689D01*
Y156884D01*
X1742074Y157080D01*
X1742269Y158056D01*
X1742464Y159619D01*
X1742855Y161376D01*
X1742464D01*
X1741683Y161572D01*
X1740316Y161767D01*
X1738754Y161962D01*
X1738363D01*
X1737582Y162158D01*
X1736215Y162353D01*
X1734848Y162548D01*
Y162743D01*
Y163134D01*
Y163329D01*
Y163720D01*
X1735238Y163915D01*
X1736019Y164111D01*
X1736996Y164501D01*
X1738168Y164892D01*
X1738558D01*
X1739339Y165282D01*
X1740316Y165478D01*
X1741683Y166064D01*
X1741878D01*
X1742269Y166259D01*
X1743050Y166649D01*
X1743831Y167040D01*
X1745980Y168212D01*
X1748323Y169970D01*
X1748519Y170165D01*
X1748714Y170360D01*
X1749300Y170946D01*
X1750081Y171727D01*
X1751839Y173485D01*
X1753987Y175438D01*
X1754182Y175633D01*
X1754768Y176219D01*
X1755745Y177000D01*
X1756916Y177977D01*
X1758284Y179149D01*
X1760041Y180516D01*
X1763752Y183250D01*
X1763947Y183445D01*
X1764728Y183836D01*
X1765705Y184422D01*
X1767072Y185008D01*
X1768830Y185789D01*
X1770587Y186375D01*
X1772736Y186961D01*
X1775079Y187351D01*
X1775665D01*
X1776251Y187547D01*
X1776837D01*
X1778790Y187742D01*
X1782696D01*
X1784454Y187547D01*
D02*
G37*
G36*
X1546578Y186961D02*
X1549312Y186375D01*
X1550679Y185984D01*
X1551851Y185398D01*
X1552046D01*
X1552437Y185008D01*
X1553609Y184031D01*
X1554976Y182078D01*
X1555562Y180906D01*
X1555952Y179539D01*
Y179344D01*
Y178953D01*
X1556147Y178368D01*
Y177391D01*
X1555952Y176415D01*
X1555562Y175243D01*
X1555171Y174071D01*
X1554390Y172704D01*
X1554194Y172509D01*
X1553999Y172118D01*
X1553413Y171532D01*
X1552632Y170751D01*
X1550679Y168993D01*
X1547945Y167235D01*
X1547749D01*
X1546968Y167040D01*
X1546578Y166845D01*
X1545992Y166649D01*
X1544429D01*
X1543062Y166845D01*
X1541695Y167431D01*
X1541500Y167626D01*
X1540914Y168407D01*
X1540719Y169579D01*
X1540523Y170360D01*
X1540719Y171337D01*
X1540914Y171727D01*
X1541109Y172509D01*
X1541695Y173485D01*
X1542476Y174657D01*
X1542672Y174852D01*
X1543258Y175633D01*
X1543844Y176610D01*
X1544625Y177782D01*
Y177977D01*
X1544820Y178368D01*
X1545601Y179539D01*
Y179735D01*
X1545797Y180125D01*
X1546578Y181297D01*
X1546382D01*
X1545797Y181492D01*
X1545015D01*
X1544234Y181688D01*
X1544039D01*
X1543648Y181883D01*
X1541891D01*
X1541500Y181688D01*
X1540719D01*
X1539937Y181492D01*
X1537789Y180711D01*
X1535446Y179735D01*
X1535250D01*
X1534860Y179539D01*
X1534274Y179149D01*
X1533492Y178563D01*
X1531735Y177391D01*
X1529782Y175633D01*
X1529586Y175438D01*
X1529001Y174657D01*
X1528024Y173485D01*
X1526657Y172118D01*
X1525290Y170360D01*
X1523923Y168212D01*
X1522360Y166063D01*
X1520993Y163720D01*
X1520798Y163525D01*
X1520407Y162548D01*
X1519821Y161376D01*
X1519236Y159619D01*
X1518259Y157470D01*
X1517478Y155127D01*
X1516697Y152393D01*
X1516111Y149658D01*
Y149463D01*
X1515916Y148682D01*
Y147705D01*
X1516111Y146533D01*
Y146338D01*
X1516306Y145557D01*
X1516501Y144580D01*
X1516892Y143409D01*
X1517087Y143213D01*
X1517478Y142627D01*
X1518064Y141846D01*
X1519040Y141065D01*
X1519236Y140870D01*
X1520017Y140674D01*
X1520993Y140479D01*
X1522751D01*
X1523532Y140674D01*
X1524899Y141065D01*
X1526266Y141260D01*
X1526462D01*
X1527243Y141651D01*
X1528219Y141846D01*
X1529391Y142432D01*
X1529586D01*
X1529977Y142823D01*
X1530758Y143213D01*
X1531735Y143799D01*
X1534078Y145166D01*
X1536813Y146924D01*
X1537008Y147119D01*
X1537399Y147315D01*
X1538180Y147901D01*
X1539156Y148486D01*
X1541500Y150049D01*
X1544234Y152002D01*
X1544039Y151611D01*
X1543648Y150635D01*
X1543062Y149072D01*
X1541891Y147315D01*
X1540328Y145166D01*
X1538375Y143018D01*
X1535836Y140870D01*
X1532711Y139112D01*
X1532321Y138917D01*
X1531149Y138331D01*
X1529391Y137550D01*
X1527243Y136964D01*
X1524509Y136183D01*
X1521384Y135987D01*
X1518064Y135987D01*
X1514548Y136573D01*
X1514353D01*
X1513767Y136768D01*
X1512791Y137159D01*
X1511619Y137745D01*
X1510447Y138331D01*
X1509080Y139307D01*
X1507713Y140284D01*
X1506541Y141651D01*
X1506346Y141846D01*
X1506151Y142237D01*
X1505565Y143018D01*
X1505174Y143799D01*
X1504588Y145166D01*
X1504197Y146533D01*
X1503807Y148096D01*
Y150049D01*
Y150244D01*
Y150440D01*
X1504002Y151611D01*
X1504197Y153174D01*
X1504393Y155127D01*
Y155322D01*
X1504588Y155517D01*
X1504783Y156884D01*
X1504979Y158642D01*
X1505369Y160595D01*
X1504979D01*
X1504197Y160790D01*
X1503026Y160986D01*
X1501658Y161181D01*
X1501268D01*
X1500487Y161376D01*
X1499120Y161572D01*
X1497362Y161767D01*
Y161962D01*
X1497557Y162157D01*
X1497753Y162548D01*
X1497948Y162743D01*
X1498143Y162939D01*
X1498338Y163134D01*
X1498534D01*
X1499315Y163329D01*
X1500291Y163720D01*
X1501658Y164306D01*
X1503221Y164892D01*
X1504979Y165673D01*
X1508494Y167626D01*
X1508689Y167821D01*
X1509275Y168212D01*
X1510056Y168993D01*
X1511228Y169774D01*
X1513963Y172118D01*
X1517087Y175047D01*
X1517283Y175243D01*
X1518064Y176024D01*
X1519236Y177000D01*
X1520603Y178172D01*
X1522360Y179539D01*
X1524313Y180906D01*
X1528805Y183836D01*
X1529196Y184031D01*
X1529977Y184422D01*
X1531344Y184812D01*
X1533102Y185594D01*
X1535250Y186180D01*
X1537789Y186570D01*
X1540523Y186961D01*
X1543453Y187156D01*
X1545406D01*
X1546578Y186961D01*
D02*
G37*
G36*
X1481543Y186570D02*
X1482128D01*
X1484082Y186180D01*
X1486035Y185398D01*
X1486230D01*
X1486425Y185203D01*
X1487402Y184226D01*
X1488769Y182859D01*
X1489745Y180711D01*
Y180516D01*
X1489940Y180125D01*
X1490136Y179539D01*
Y178758D01*
X1490331Y176610D01*
X1490136Y175633D01*
X1489940Y174461D01*
Y174266D01*
X1489745Y174071D01*
X1488964Y172704D01*
X1487792Y171141D01*
X1486230Y169579D01*
X1486035D01*
X1485839Y169188D01*
X1485253Y168798D01*
X1484472Y168212D01*
X1482714Y167040D01*
X1480566Y165673D01*
X1480371D01*
X1479980Y165282D01*
X1479394Y165087D01*
X1478613Y164501D01*
X1476660Y163525D01*
X1474512Y162548D01*
X1474317D01*
X1473731Y162157D01*
X1472949Y161962D01*
X1471777Y161376D01*
X1470410Y160986D01*
X1468848Y160400D01*
X1465528Y159423D01*
X1465333D01*
X1464747Y159228D01*
X1463770Y159033D01*
X1462598Y158837D01*
X1461231Y158642D01*
X1455568D01*
X1454591Y158447D01*
X1453419Y158251D01*
X1452052Y157666D01*
X1451857Y157470D01*
X1451466Y156884D01*
X1450880Y155713D01*
X1450490Y154150D01*
Y153760D01*
X1450294Y152978D01*
X1450099Y151611D01*
X1449709Y150049D01*
Y149658D01*
X1449513Y148877D01*
X1449318Y147510D01*
Y146143D01*
Y145948D01*
Y145557D01*
X1449513Y144385D01*
X1449904Y143018D01*
X1450294Y142432D01*
X1450685Y142042D01*
X1450880Y141846D01*
X1451857Y141260D01*
X1453224Y140870D01*
X1455177Y140479D01*
X1456349D01*
X1457130Y140674D01*
X1459083Y141065D01*
X1461231Y141651D01*
X1461427D01*
X1461817Y141846D01*
X1462403Y142042D01*
X1462989Y142237D01*
X1464942Y143018D01*
X1466895Y143995D01*
X1467286Y144190D01*
X1468067Y144580D01*
X1469434Y145166D01*
X1470801Y145948D01*
X1470996D01*
X1471192Y146143D01*
X1472168Y146533D01*
X1473535Y147119D01*
X1474902Y147901D01*
Y147705D01*
X1475098Y147315D01*
X1475293Y147119D01*
X1475488Y146533D01*
X1475293Y146338D01*
X1474707Y145752D01*
X1473731Y144971D01*
X1472363Y143799D01*
X1470801Y142432D01*
X1468848Y141260D01*
X1464747Y138526D01*
X1464551Y138331D01*
X1463770Y138135D01*
X1462403Y137550D01*
X1460841Y136964D01*
X1458888Y136573D01*
X1456544Y135987D01*
X1454005Y135792D01*
X1451076D01*
X1450294Y135987D01*
X1449904Y136182D01*
X1448732D01*
X1447951Y136378D01*
X1446779Y136573D01*
X1445217Y136964D01*
X1443654Y137745D01*
X1441897Y138526D01*
X1440529Y139893D01*
X1439162Y141456D01*
X1438967Y141651D01*
X1438772Y142237D01*
X1438186Y143213D01*
X1437795Y144580D01*
X1437405Y146143D01*
X1437014Y147901D01*
X1436819Y150049D01*
X1437014Y152197D01*
Y152588D01*
X1437209Y153369D01*
X1437600Y154346D01*
X1437991Y155713D01*
X1438186Y156103D01*
X1438381Y156884D01*
Y157861D01*
X1438186Y159033D01*
X1437991Y159228D01*
X1437600Y159814D01*
X1437014Y160400D01*
X1435842Y160986D01*
X1435452Y161181D01*
X1434670Y161572D01*
X1433694Y162157D01*
X1432522Y162743D01*
X1432327Y162939D01*
X1431546Y163329D01*
X1430569Y164111D01*
X1429397Y165087D01*
X1429202Y165282D01*
X1428616Y166063D01*
X1427835Y167040D01*
X1427249Y168602D01*
X1427444D01*
X1427640Y168407D01*
X1428616Y168016D01*
X1429983Y167626D01*
X1431350Y167040D01*
X1431741Y166845D01*
X1432522Y166454D01*
X1433694Y165868D01*
X1435061Y165282D01*
X1435256D01*
X1435647Y165087D01*
X1436233Y164892D01*
X1437014Y164696D01*
X1438772Y164306D01*
X1440334D01*
X1440529Y164501D01*
X1441506Y164892D01*
X1442678Y165868D01*
X1443459Y166649D01*
X1444240Y167626D01*
X1444435Y168016D01*
X1445217Y168798D01*
X1446193Y170165D01*
X1447756Y171922D01*
X1449513Y173680D01*
X1451466Y175633D01*
X1453810Y177782D01*
X1456154Y179539D01*
X1456544Y179735D01*
X1457325Y180320D01*
X1458692Y181102D01*
X1460645Y182078D01*
X1462989Y183250D01*
X1465723Y184422D01*
X1468653Y185398D01*
X1471777Y186180D01*
X1472168D01*
X1473145Y186375D01*
X1474512Y186570D01*
X1476074Y186765D01*
X1480957D01*
X1481543Y186570D01*
D02*
G37*
G36*
X1717856Y187156D02*
X1717466Y186570D01*
X1717075Y185789D01*
X1716685Y184617D01*
X1715317Y182078D01*
X1713755Y178953D01*
Y178758D01*
X1713364Y178172D01*
X1712974Y177391D01*
X1712583Y176219D01*
X1711216Y173680D01*
X1709654Y170555D01*
X1709458Y170360D01*
X1709263Y169774D01*
X1708677Y168798D01*
X1708091Y167626D01*
X1707310Y166259D01*
X1706529Y164697D01*
X1704576Y161181D01*
X1704381Y160986D01*
X1704185Y160400D01*
X1703599Y159423D01*
X1703013Y158056D01*
X1702232Y156689D01*
X1701451Y154931D01*
X1699693Y151416D01*
Y151221D01*
X1699303Y150635D01*
X1699107Y149854D01*
X1698717Y149072D01*
Y148877D01*
X1698522Y148291D01*
X1698326Y147315D01*
X1698131Y146338D01*
Y146143D01*
Y145948D01*
X1698326Y144776D01*
X1698717Y143409D01*
X1699693Y142237D01*
X1700084Y142042D01*
X1700865Y141846D01*
X1702232D01*
X1703013Y142042D01*
X1703990Y142432D01*
X1704185D01*
X1704381Y142627D01*
X1705552Y143409D01*
X1707115Y144580D01*
X1708677Y145948D01*
X1708873D01*
X1709068Y146338D01*
X1710240Y147119D01*
X1711607Y148486D01*
X1713364Y149854D01*
X1713560Y150049D01*
X1714341Y150635D01*
X1715317Y151611D01*
X1716294Y152588D01*
X1716489Y152783D01*
X1717270Y153564D01*
X1718052Y154541D01*
X1719223Y155517D01*
X1719614Y155713D01*
X1720005Y155908D01*
X1720591Y156103D01*
X1721176D01*
X1722153Y156299D01*
Y156103D01*
Y155908D01*
X1722348Y154736D01*
Y154541D01*
Y154346D01*
X1722153Y153369D01*
X1721958Y153174D01*
X1721567Y152393D01*
X1720591Y151416D01*
X1719614Y150049D01*
X1718442Y148682D01*
X1716880Y146924D01*
X1713755Y143604D01*
X1713560Y143409D01*
X1712974Y143018D01*
X1711997Y142237D01*
X1710630Y141260D01*
X1709068Y140284D01*
X1707115Y139112D01*
X1704966Y138136D01*
X1702623Y137159D01*
X1702232D01*
X1701451Y136964D01*
X1700475Y136769D01*
X1699107Y136573D01*
X1697936D01*
X1696764Y136769D01*
X1695397Y136964D01*
X1695201D01*
X1694811Y137159D01*
X1694225Y137354D01*
X1693248Y137550D01*
X1691491Y138331D01*
X1689928Y139698D01*
Y139893D01*
X1689538Y140089D01*
X1688952Y141260D01*
X1688171Y142823D01*
X1687585Y144971D01*
Y145166D01*
Y145557D01*
X1687389Y146338D01*
Y147315D01*
X1687585Y149463D01*
X1687975Y151807D01*
Y152002D01*
X1688171Y152393D01*
X1688366Y152978D01*
X1688757Y153760D01*
X1689538Y155713D01*
X1690514Y158056D01*
Y158252D01*
X1690710Y158447D01*
X1691100Y159033D01*
X1691491Y159814D01*
X1692272Y161572D01*
X1693444Y163720D01*
Y163915D01*
X1693639Y164111D01*
X1694030Y164697D01*
X1694420Y165478D01*
X1695201Y167235D01*
X1696373Y169384D01*
X1691881D01*
X1691100Y169579D01*
X1690905D01*
X1690319Y169774D01*
X1689342Y169970D01*
X1688366Y170165D01*
X1688171Y170360D01*
X1687585Y170555D01*
X1686803Y170946D01*
X1686022Y171337D01*
Y171532D01*
X1685632Y171727D01*
X1685241Y172899D01*
Y173094D01*
X1685046Y173485D01*
Y174071D01*
Y174657D01*
Y174852D01*
X1685241Y175047D01*
X1685632Y175438D01*
X1686022Y175829D01*
X1686218Y176024D01*
X1686608Y176219D01*
X1686999Y176415D01*
X1688757D01*
X1690124Y176610D01*
X1691686D01*
X1693639Y177000D01*
X1695787Y177586D01*
X1697936Y178172D01*
X1700084Y179149D01*
X1700279Y179344D01*
X1701060Y179735D01*
X1702232Y180320D01*
X1703599Y181102D01*
X1705357Y181883D01*
X1707310Y182859D01*
X1711607Y185203D01*
X1711802Y185398D01*
X1712388Y185594D01*
X1713364Y186180D01*
X1714341Y186570D01*
X1714536Y186765D01*
X1715317Y186961D01*
X1716489Y187156D01*
X1717856Y187351D01*
Y187156D01*
D02*
G37*
G36*
X1412992Y215865D02*
X1414164Y215670D01*
X1415531Y215279D01*
X1417093Y214693D01*
X1418265Y213912D01*
X1419437Y212740D01*
X1419632Y212545D01*
X1419828Y212155D01*
X1420218Y211373D01*
X1420609Y210397D01*
X1420804Y209030D01*
X1420999Y207467D01*
X1420804Y205709D01*
X1420218Y203757D01*
Y203561D01*
X1420023Y203366D01*
X1419632Y202389D01*
X1419046Y200827D01*
X1418265Y199265D01*
X1418070Y198874D01*
X1417484Y197897D01*
X1416703Y196530D01*
X1415922Y194968D01*
Y194773D01*
X1415726Y194577D01*
X1414945Y193406D01*
X1413969Y191648D01*
X1412601Y189304D01*
X1411039Y186375D01*
X1409086Y183445D01*
X1407133Y180125D01*
X1405180Y176610D01*
Y176415D01*
X1404985Y176219D01*
X1404203Y175047D01*
X1403227Y173094D01*
X1401860Y170751D01*
X1400298Y168016D01*
X1398540Y164892D01*
X1396782Y161572D01*
X1394829Y158056D01*
X1394634Y157666D01*
X1394243Y156689D01*
X1393462Y155322D01*
X1392876Y153564D01*
Y153369D01*
Y153174D01*
X1392486Y152002D01*
X1392290Y150440D01*
X1391900Y148682D01*
Y148486D01*
Y148291D01*
Y147119D01*
X1392290Y145948D01*
X1393071Y144776D01*
X1393267Y144580D01*
X1394048Y144385D01*
X1395415D01*
X1397368Y144580D01*
X1397563D01*
X1397954Y144776D01*
X1398540Y144971D01*
X1399321Y145166D01*
X1401079Y146143D01*
X1402836Y147510D01*
X1403032Y147705D01*
X1403227Y147901D01*
X1404399Y148877D01*
X1405766Y150440D01*
X1407524Y152197D01*
X1407719Y152393D01*
X1408110Y152978D01*
X1408891Y153760D01*
X1409867Y154736D01*
X1410063Y154931D01*
X1410648Y155517D01*
X1411430Y156299D01*
X1412211Y157275D01*
X1412406Y157470D01*
X1413187Y157861D01*
X1413969Y158447D01*
X1415140Y158837D01*
X1416117D01*
X1417093Y158642D01*
X1418070Y157861D01*
X1418265Y157666D01*
X1418656Y157080D01*
X1419046Y156103D01*
Y155127D01*
X1418851Y154931D01*
X1418656Y154346D01*
X1418070Y153564D01*
X1417484Y152588D01*
X1417289Y152393D01*
X1416898Y151807D01*
X1416117Y151025D01*
X1415140Y150049D01*
X1412601Y147510D01*
X1409672Y144580D01*
X1409477Y144385D01*
X1409086Y143995D01*
X1408110Y143409D01*
X1407133Y142432D01*
X1405961Y141456D01*
X1404399Y140479D01*
X1401079Y138331D01*
X1400688Y138135D01*
X1399516Y137550D01*
X1397954Y136964D01*
X1395806Y136378D01*
X1393462Y135987D01*
X1391118D01*
X1388580Y136573D01*
X1387408Y136964D01*
X1386236Y137745D01*
X1386041Y137940D01*
X1385259Y138526D01*
X1384478Y139698D01*
X1383306Y141065D01*
X1382330Y142823D01*
X1381353Y145166D01*
X1380768Y147705D01*
X1380377Y150635D01*
Y150830D01*
X1380572Y151416D01*
X1380768Y152393D01*
X1380963Y153760D01*
X1381158Y155127D01*
X1381549Y156884D01*
X1382525Y160400D01*
Y160595D01*
X1382720Y161181D01*
X1383111Y162157D01*
X1383502Y163525D01*
X1384088Y164892D01*
X1384673Y166649D01*
X1386431Y169970D01*
X1386626Y170165D01*
X1387017Y170751D01*
X1387603Y171922D01*
X1388384Y173094D01*
X1389165Y174657D01*
X1390337Y176219D01*
X1392681Y179735D01*
X1392876Y179930D01*
X1393267Y180516D01*
X1393853Y181492D01*
X1394829Y182859D01*
X1395806Y184226D01*
X1396977Y185984D01*
X1399321Y189500D01*
Y189695D01*
X1399516Y189890D01*
X1400298Y190867D01*
X1401469Y192429D01*
X1402641Y193992D01*
Y194187D01*
X1403032Y194382D01*
X1403813Y195554D01*
X1404985Y196921D01*
X1406352Y198679D01*
X1406547Y198874D01*
X1406742Y199265D01*
X1407524Y200436D01*
X1407719Y200632D01*
X1407914Y201022D01*
X1408500Y202389D01*
Y202780D01*
Y203366D01*
Y204342D01*
X1407914Y205124D01*
X1407719Y205319D01*
X1407328Y205514D01*
X1406547Y205709D01*
X1405375Y205514D01*
X1405180D01*
X1404789Y205319D01*
X1403422Y204733D01*
X1403227D01*
X1402836Y204538D01*
X1401665Y203757D01*
X1401469D01*
X1401274Y203366D01*
X1400298Y202389D01*
Y202194D01*
X1399907Y201999D01*
X1398930Y201218D01*
X1398735Y201022D01*
X1398345Y200827D01*
X1397563Y200241D01*
X1396587Y199851D01*
X1396391Y199655D01*
X1395806Y199460D01*
X1395024Y199265D01*
X1394438D01*
X1394243Y199460D01*
X1393657Y199851D01*
X1393071Y200632D01*
X1392876Y201608D01*
Y201803D01*
Y202585D01*
X1393071Y203561D01*
X1393462Y204538D01*
X1393657Y204733D01*
X1393853Y205514D01*
X1394438Y206491D01*
X1395024Y207467D01*
X1395220Y207663D01*
X1395610Y208249D01*
X1396196Y209030D01*
X1396977Y210006D01*
X1397173Y210201D01*
X1397563Y210592D01*
X1398149Y210983D01*
X1398930Y211764D01*
X1400883Y213131D01*
X1403227Y214498D01*
X1403422D01*
X1403813Y214693D01*
X1404594Y214889D01*
X1405571Y215279D01*
X1408109Y215670D01*
X1410844Y216061D01*
X1411820D01*
X1412992Y215865D01*
D02*
G37*
G36*
X958239Y198474D02*
X910000D01*
D01*
X890000D01*
Y214294D01*
X938239D01*
D01*
X958239D01*
Y198474D01*
D02*
G37*
G36*
X2029802Y210504D02*
X2064760Y210504D01*
Y195856D01*
X2029802Y195856D01*
Y160702D01*
X2014959D01*
Y195856D01*
X1980000D01*
Y210504D01*
X2014959D01*
X2014959Y245462D01*
X2029802D01*
X2029802Y210504D01*
D02*
G37*
%LPC*%
G36*
X1205973Y294181D02*
X1202263Y293985D01*
X1198161Y293400D01*
X1197771D01*
X1196794Y293009D01*
X1195427Y292423D01*
X1193474Y291837D01*
X1191326Y290861D01*
X1189178Y289689D01*
X1186834Y288126D01*
X1184686Y286369D01*
X1184490Y286173D01*
X1183709Y285392D01*
X1182733Y284220D01*
X1181561Y282853D01*
X1179998Y280900D01*
X1178436Y278947D01*
X1177069Y276604D01*
X1175507Y274065D01*
X1175311Y273674D01*
X1174921Y272698D01*
X1174139Y271331D01*
X1173358Y269377D01*
X1172577Y267034D01*
X1171796Y264300D01*
X1171210Y261565D01*
X1170819Y258636D01*
Y258245D01*
Y257269D01*
X1170624Y255706D01*
Y253558D01*
X1170819Y251019D01*
X1171015Y248285D01*
X1171405Y245355D01*
X1171991Y242426D01*
Y242231D01*
X1172186Y241645D01*
X1172382Y240864D01*
X1172772Y239692D01*
X1173163Y238325D01*
X1173553Y236567D01*
X1174335Y234614D01*
X1174921Y232661D01*
X1176678Y227974D01*
X1178827Y223091D01*
X1181366Y218013D01*
X1184490Y212936D01*
X1184686Y212740D01*
X1184881Y212350D01*
X1185467Y211569D01*
X1186053Y210787D01*
X1187029Y209615D01*
X1188006Y208248D01*
X1190740Y205124D01*
X1193865Y201413D01*
X1197771Y197507D01*
X1201872Y193406D01*
X1206559Y189499D01*
X1206950Y189304D01*
X1207731Y188523D01*
X1208903Y187742D01*
X1210465Y186765D01*
X1210856Y186570D01*
X1211637Y185984D01*
X1213004Y185398D01*
X1214371Y184617D01*
X1214567Y184422D01*
X1215348Y184226D01*
X1216715Y183836D01*
X1218277Y183640D01*
X1221988D01*
X1223941Y184226D01*
X1226089Y185203D01*
X1226285Y185398D01*
X1226871Y185789D01*
X1227847Y186765D01*
X1228824Y187742D01*
X1229995Y189304D01*
X1230972Y191062D01*
X1231558Y193015D01*
X1231948Y195359D01*
Y195554D01*
Y195944D01*
Y196530D01*
Y197507D01*
Y199460D01*
X1231558Y201803D01*
Y201999D01*
X1231363Y202389D01*
X1231167Y202975D01*
X1230972Y203757D01*
X1230386Y205709D01*
X1229409Y207858D01*
X1229214Y208053D01*
X1229019Y208639D01*
X1228433Y209615D01*
X1227457Y210787D01*
X1226285Y212154D01*
X1224722Y213521D01*
X1222769Y214889D01*
X1220426Y216060D01*
X1220230Y216256D01*
X1219254Y216451D01*
X1218082Y216842D01*
X1216520Y217037D01*
X1214567Y217232D01*
X1212614D01*
X1210465Y216842D01*
X1208317Y216060D01*
X1207926Y215865D01*
X1207145Y215474D01*
X1206950D01*
X1206755Y215279D01*
X1205778Y214889D01*
X1205583D01*
X1205192Y214693D01*
X1204411D01*
X1203435Y214498D01*
X1201091Y214693D01*
X1199724Y215084D01*
X1198357Y215670D01*
X1198161Y215865D01*
X1197771Y216060D01*
X1196599Y217232D01*
X1195818Y218013D01*
X1195037Y218990D01*
X1194451Y220357D01*
X1194060Y221724D01*
Y221919D01*
Y222505D01*
X1193865Y223286D01*
Y224263D01*
X1194060Y226607D01*
X1194646Y229341D01*
Y229536D01*
X1194841Y229927D01*
X1195232Y230513D01*
X1195622Y231489D01*
X1196990Y233442D01*
X1198943Y235395D01*
X1199138Y235590D01*
X1199529Y235786D01*
X1200310Y236372D01*
X1201091Y236958D01*
X1203435Y238129D01*
X1204802Y238520D01*
X1206169Y238911D01*
X1211246D01*
X1214176Y238325D01*
X1214567D01*
X1215348Y238129D01*
X1216520Y237739D01*
X1218082Y237153D01*
X1219840Y236372D01*
X1221793Y235590D01*
X1223746Y234419D01*
X1225699Y233052D01*
X1225894Y232856D01*
X1226480Y232270D01*
X1227457Y231489D01*
X1228628Y230513D01*
X1229800Y229146D01*
X1231363Y227388D01*
X1232730Y225630D01*
X1234292Y223677D01*
X1234487Y223482D01*
X1234878Y222896D01*
X1235464Y222115D01*
X1236050Y221138D01*
X1236245Y220943D01*
X1236636Y220357D01*
X1237222Y219381D01*
X1238003Y218209D01*
Y218404D01*
X1238393Y218795D01*
X1238784Y219576D01*
X1239174Y220552D01*
X1240542Y223091D01*
X1241909Y225826D01*
Y226021D01*
X1242299Y226411D01*
X1242495Y227193D01*
X1243081Y228169D01*
X1244057Y230513D01*
X1245424Y233052D01*
Y233247D01*
X1245619Y233442D01*
Y234028D01*
Y234614D01*
Y234809D01*
Y235200D01*
X1245229Y236176D01*
Y236372D01*
X1245033Y236762D01*
X1244643Y237544D01*
X1244252Y238520D01*
X1243081Y240864D01*
X1241713Y243598D01*
Y243793D01*
X1241323Y244184D01*
X1241127Y244965D01*
X1240542Y246137D01*
X1239370Y248676D01*
X1238003Y251605D01*
X1237807D01*
X1237417Y251410D01*
X1236245Y250824D01*
X1236050D01*
X1235659Y250433D01*
X1234487Y249848D01*
X1234292D01*
X1234097Y249652D01*
X1233511Y249262D01*
X1232730Y248871D01*
X1230777Y248090D01*
X1228042Y247113D01*
X1224918Y246527D01*
X1221402Y246137D01*
X1217496D01*
X1215543Y246527D01*
X1213395Y247113D01*
X1213199D01*
X1213004Y247309D01*
X1212418Y247504D01*
X1211637Y247894D01*
X1209684Y248676D01*
X1207145Y249847D01*
X1204606Y251605D01*
X1201872Y253558D01*
X1199138Y255902D01*
X1196794Y258831D01*
Y259027D01*
X1196599Y259222D01*
X1195818Y260394D01*
X1195037Y262151D01*
X1194255Y264300D01*
Y264495D01*
X1194060Y264690D01*
X1193865Y266057D01*
Y267815D01*
X1194060Y269963D01*
Y270159D01*
X1194255Y270549D01*
X1194451Y271331D01*
X1194646Y272112D01*
X1195427Y274065D01*
X1196794Y275822D01*
Y276018D01*
X1197185Y276213D01*
X1198161Y277190D01*
X1199919Y278361D01*
X1202263Y279338D01*
X1202458D01*
X1202849Y279533D01*
X1204020D01*
X1205778Y279338D01*
X1206559Y279142D01*
X1207536Y278752D01*
X1207731D01*
X1207926Y278557D01*
X1209098Y277775D01*
X1210465Y276604D01*
X1211832Y275041D01*
X1212028Y274846D01*
X1212614Y274065D01*
X1213395Y272893D01*
X1214371Y271526D01*
X1214567Y271135D01*
X1215153Y270354D01*
X1215934Y269182D01*
X1216715Y267815D01*
X1216910Y267620D01*
X1217105Y267425D01*
X1218277Y266253D01*
X1219840Y265081D01*
X1221012Y264495D01*
X1222183Y264104D01*
X1222769D01*
X1223355Y263909D01*
X1224136D01*
X1226285Y264104D01*
X1227457Y264495D01*
X1228628Y265081D01*
X1228824D01*
X1229214Y265471D01*
X1229800Y265862D01*
X1230581Y266448D01*
X1231363Y267425D01*
X1232144Y268401D01*
X1232925Y269573D01*
X1233316Y271135D01*
Y271331D01*
X1233511Y271916D01*
Y272698D01*
Y273674D01*
X1233316Y275041D01*
X1232925Y276408D01*
X1232339Y277971D01*
X1231558Y279533D01*
Y279728D01*
X1231363Y279924D01*
X1230581Y280900D01*
X1229409Y282463D01*
X1227847Y284220D01*
X1225699Y286369D01*
X1223355Y288322D01*
X1220621Y290275D01*
X1217691Y291837D01*
X1217301Y292032D01*
X1216129Y292423D01*
X1214371Y293009D01*
X1212028Y293595D01*
X1209294Y293985D01*
X1205973Y294181D01*
D02*
G37*
G36*
X1270813Y234809D02*
X1270032D01*
X1269055Y234614D01*
X1268079Y234419D01*
X1265345Y233833D01*
X1263978Y233052D01*
X1262806Y232270D01*
X1263001Y232075D01*
X1263196Y231684D01*
X1263782Y231099D01*
X1264564Y230513D01*
X1266712Y228950D01*
X1269446Y227583D01*
X1269641D01*
X1270227Y227388D01*
X1271009Y227193D01*
X1271985Y226997D01*
X1274524Y226607D01*
X1275696Y226802D01*
X1277063Y226997D01*
X1277258Y227193D01*
X1278039Y227388D01*
X1278625Y228169D01*
X1279211Y228950D01*
Y229146D01*
Y229927D01*
X1279016Y230708D01*
X1278430Y231880D01*
X1278235Y232075D01*
X1277844Y232270D01*
X1277258Y232856D01*
X1276477Y233247D01*
X1275305Y233833D01*
X1274133Y234223D01*
X1272571Y234614D01*
X1270813Y234809D01*
D02*
G37*
G36*
X1240737Y179344D02*
X1240542Y179149D01*
X1240346Y178758D01*
X1239760Y178172D01*
X1238979Y177391D01*
X1236831Y175438D01*
X1234292Y173485D01*
X1234097D01*
X1233706Y173094D01*
X1232925Y172704D01*
X1231753Y172313D01*
X1230386Y171727D01*
X1228824Y171337D01*
X1227066Y170751D01*
X1225113Y170360D01*
X1225308Y170165D01*
X1225699Y169774D01*
X1226480Y168993D01*
X1227457Y168016D01*
X1229995Y165673D01*
X1232534Y163134D01*
X1232730Y162939D01*
X1233120Y162548D01*
X1233901Y161962D01*
X1234683Y160986D01*
X1236831Y159033D01*
X1239370Y156494D01*
X1239565Y156299D01*
X1239956Y156103D01*
X1241127Y155322D01*
X1241713D01*
X1242299Y155517D01*
X1243081Y156103D01*
X1243276Y156299D01*
X1243666Y156689D01*
X1244448Y157470D01*
X1245229Y158251D01*
X1247377Y160400D01*
X1249916Y162939D01*
X1250111Y163134D01*
X1250502Y163525D01*
X1251283Y164306D01*
X1252064Y165087D01*
X1254213Y167235D01*
X1256361Y169384D01*
X1256166Y169579D01*
X1255775Y169774D01*
X1254994Y170360D01*
X1254017Y170946D01*
X1251479Y172508D01*
X1248549Y174461D01*
X1248354Y174657D01*
X1247963Y174852D01*
X1247182Y175438D01*
X1246205Y176024D01*
X1243666Y177586D01*
X1240737Y179344D01*
D02*
G37*
G36*
X1366510Y208248D02*
X1365143D01*
X1363386Y208053D01*
X1361433Y207467D01*
X1361237Y207272D01*
X1360261Y207077D01*
X1359089Y206491D01*
X1357722Y205514D01*
X1355964Y204538D01*
X1354207Y203366D01*
X1352449Y201803D01*
X1350887Y200046D01*
X1350691Y199851D01*
X1350105Y199265D01*
X1349324Y198093D01*
X1348348Y196921D01*
X1347371Y195163D01*
X1346199Y193406D01*
X1345027Y191257D01*
X1343856Y189109D01*
X1344051Y188914D01*
X1344246Y188328D01*
X1344442Y188132D01*
X1344637Y187742D01*
X1344832D01*
X1345223Y187937D01*
X1346004Y188132D01*
X1346980Y188328D01*
X1349324Y188914D01*
X1351863Y189695D01*
X1352058D01*
X1352449Y189890D01*
X1353230Y190086D01*
X1354011Y190281D01*
X1356160Y191062D01*
X1358698Y191843D01*
X1358894D01*
X1359089Y192038D01*
X1360261Y192429D01*
X1361628Y193015D01*
X1363386Y193992D01*
X1363581D01*
X1363776Y194187D01*
X1364753Y194968D01*
X1366120Y195944D01*
X1367487Y197116D01*
X1367682D01*
X1367878Y197507D01*
X1368659Y198288D01*
X1369635Y199655D01*
X1370221Y201608D01*
Y201803D01*
X1370417Y202194D01*
Y203366D01*
Y204928D01*
X1369831Y206295D01*
X1369635Y206491D01*
X1369049Y207272D01*
X1367878Y207858D01*
X1366510Y208248D01*
D02*
G37*
G36*
X1476855Y182859D02*
X1476270Y182664D01*
X1476074D01*
X1475293Y182469D01*
X1474121Y182078D01*
X1473145Y181492D01*
X1472949Y181297D01*
X1472168Y180906D01*
X1470996Y180320D01*
X1469629Y179539D01*
X1468067Y178368D01*
X1466504Y177000D01*
X1463184Y173876D01*
X1462989Y173680D01*
X1462598Y173094D01*
X1461817Y172118D01*
X1460841Y170946D01*
X1459669Y169384D01*
X1458302Y167626D01*
X1455568Y163720D01*
X1456739D01*
X1457521Y163525D01*
X1459278Y163720D01*
X1461427Y163915D01*
X1461622D01*
X1461817Y164111D01*
X1462989Y164306D01*
X1464551Y164892D01*
X1466309Y165478D01*
X1466504D01*
X1466895Y165673D01*
X1467676Y166063D01*
X1468653Y166454D01*
X1470996Y167626D01*
X1473535Y168993D01*
X1473731Y169188D01*
X1474121Y169384D01*
X1474707Y169970D01*
X1475293Y170555D01*
X1477051Y172508D01*
X1478808Y174852D01*
X1479004Y175047D01*
X1479394Y175829D01*
X1479785Y177000D01*
X1480175Y178172D01*
Y178563D01*
Y179344D01*
X1479980Y180320D01*
X1479394Y181492D01*
X1479199Y181688D01*
X1478418Y182274D01*
X1477441Y182664D01*
X1476855Y182859D01*
D02*
G37*
%LPD*%
D10*
X2260763Y187310D02*
G03*
X2260763Y187310I-1000J0D01*
G01*
X750763D02*
G03*
X750763Y187310I-1000J0D01*
G01*
D11*
X1408680Y503999D02*
X1406014D01*
X1407347D01*
Y497334D01*
X1406014Y496001D01*
X1404681D01*
X1403348Y497334D01*
X1411346Y503999D02*
Y496001D01*
X1416677D01*
X1424675Y502666D02*
X1423342Y503999D01*
X1420676D01*
X1419343Y502666D01*
Y497334D01*
X1420676Y496001D01*
X1423342D01*
X1424675Y497334D01*
X1432672Y503999D02*
X1430007D01*
X1431339D01*
Y497334D01*
X1430007Y496001D01*
X1428674D01*
X1427341Y497334D01*
X1435338Y503999D02*
Y496001D01*
X1440670D01*
X1448667Y502666D02*
X1447334Y503999D01*
X1444668D01*
X1443336Y502666D01*
Y497334D01*
X1444668Y496001D01*
X1447334D01*
X1448667Y497334D01*
X1456664Y503999D02*
X1453999D01*
X1455332D01*
Y497334D01*
X1453999Y496001D01*
X1452666D01*
X1451333Y497334D01*
X1459330Y503999D02*
Y496001D01*
X1464662D01*
X1472659Y502666D02*
X1471326Y503999D01*
X1468661D01*
X1467328Y502666D01*
Y497334D01*
X1468661Y496001D01*
X1471326D01*
X1472659Y497334D01*
X1480657Y503999D02*
X1477991D01*
X1479324D01*
Y497334D01*
X1477991Y496001D01*
X1476658D01*
X1475325Y497334D01*
X1483323Y503999D02*
Y496001D01*
X1488654D01*
X1496652Y502666D02*
X1495319Y503999D01*
X1492653D01*
X1491320Y502666D01*
Y497334D01*
X1492653Y496001D01*
X1495319D01*
X1496652Y497334D01*
D12*
X2146572Y249608D02*
X2158438D01*
X2152505Y255541D02*
Y243674D01*
X2261033Y249547D02*
X2272885D01*
X2266959Y255472D02*
Y243621D01*
X2173341Y252115D02*
X2185199D01*
X2288990Y252109D02*
X2300847D01*
X636572Y249608D02*
X648438D01*
X642505Y255541D02*
Y243674D01*
X751033Y249547D02*
X762885D01*
X756959Y255472D02*
Y243621D01*
X663341Y252115D02*
X675199D01*
X778990Y252109D02*
X790847D01*
M02*
